<?xml version="1.0" encoding="UTF-8" ?>
<!DOCTYPE svg PUBLIC "-//W3C//DTD SVG 1.1//EN" "http://www.w3.org/Graphics/SVG/1.1/DTD/svg11.dtd">
<svg width="1024pt" height="1024pt" viewBox="0 0 1024 1024" version="1.1" xmlns="http://www.w3.org/2000/svg">
<g id="#ffffffff">
<path fill="#ffffff" stroke="#ffffff" stroke-width="0.09375" opacity="1.00" d=" M 0.00 0.00 L 1024.00 0.00 L 1024.00 1024.00 L 0.00 1024.00 L 0.00 0.00 M 98.37 83.50 C 96.21 83.83 94.95 85.92 95.20 88.01 C 95.15 107.34 95.34 126.68 94.88 146.01 C 94.73 174.34 95.61 202.67 94.90 231.00 C 94.81 314.33 94.91 397.67 94.86 481.00 C 94.75 508.33 95.39 535.66 95.05 563.00 C 94.36 586.00 95.70 609.00 94.92 632.00 C 95.48 644.33 94.72 656.67 95.05 669.00 C 94.77 716.66 94.93 764.34 94.86 812.00 C 94.87 861.32 94.75 910.63 95.26 959.93 C 95.28 961.69 95.91 964.12 98.12 964.04 C 103.71 964.73 109.37 964.20 115.00 964.32 C 252.00 964.27 389.00 964.20 526.00 964.30 C 642.00 964.34 758.00 964.12 874.00 964.36 C 880.65 964.25 887.32 964.54 893.97 964.08 C 897.13 964.12 897.87 960.57 897.72 958.08 C 897.72 859.72 897.69 761.36 897.66 663.00 C 897.93 487.00 897.54 311.01 897.77 135.01 C 897.69 119.07 898.14 103.10 897.55 87.17 C 897.77 84.12 894.58 82.94 892.04 83.21 C 632.36 83.17 372.68 83.27 113.00 83.23 C 108.13 83.35 103.21 82.82 98.37 83.50 Z" />
<path fill="#ffffff" stroke="#ffffff" stroke-width="0.09375" opacity="1.00" d=" M 97.67 85.65 C 194.45 85.34 291.23 85.71 388.00 85.42 C 556.25 85.52 724.51 85.42 892.75 85.48 C 895.50 85.05 895.35 88.07 895.39 89.94 C 894.95 262.63 895.43 435.31 895.24 608.00 C 895.24 721.00 895.15 834.00 895.37 947.00 C 895.39 951.95 895.38 956.90 895.22 961.86 C 790.48 961.51 685.74 961.86 581.00 961.77 C 419.79 961.67 258.58 961.58 97.38 961.86 C 97.34 802.91 97.43 643.95 97.41 485.00 C 97.60 397.33 97.10 309.66 97.30 222.00 C 97.40 176.55 97.43 131.10 97.67 85.65 M 246.39 149.38 C 234.50 156.26 225.66 167.55 219.85 179.83 C 214.68 190.79 213.21 203.02 212.88 215.01 C 212.79 249.01 212.90 283.01 213.16 317.00 C 213.07 359.00 213.30 401.00 213.04 443.00 C 212.56 487.66 213.01 532.34 212.86 577.01 C 213.40 603.66 213.11 630.34 213.17 657.00 C 212.99 705.35 213.38 753.70 212.92 802.04 C 213.37 821.90 220.51 842.08 234.93 856.08 C 244.53 865.50 257.33 870.91 270.36 873.59 C 282.77 875.86 295.44 875.29 308.00 875.37 C 438.33 875.45 568.67 875.46 699.00 875.44 C 710.09 875.61 721.28 875.50 732.15 873.05 C 747.25 870.04 762.16 863.23 772.46 851.49 C 783.77 839.47 790.54 823.49 792.18 807.13 C 792.83 801.78 792.67 796.38 792.69 791.00 C 792.69 777.33 792.71 763.66 792.73 749.98 C 792.66 734.47 790.10 718.46 782.14 704.91 C 773.56 689.96 758.16 679.96 741.88 675.18 C 728.01 670.82 713.34 671.61 699.00 671.53 C 643.67 671.38 588.33 671.54 533.00 671.45 C 510.26 671.29 487.52 671.73 464.79 671.28 C 464.41 650.52 464.76 629.76 464.70 609.00 C 464.50 483.33 464.60 357.67 464.63 232.00 C 464.57 219.47 465.44 206.74 462.45 194.44 C 460.36 184.77 456.28 175.56 450.50 167.54 C 441.97 155.88 429.38 147.39 415.57 143.31 C 398.99 137.66 381.25 138.44 364.00 138.38 C 339.71 138.47 315.42 138.35 291.14 138.46 C 275.78 139.22 259.87 141.50 246.39 149.38 Z" />
<path fill="#ffffff" stroke="#ffffff" stroke-width="0.09375" opacity="1.00" d=" M 264.77 178.15 C 272.86 172.16 283.18 170.61 293.01 170.63 C 323.34 170.65 353.66 170.57 383.99 170.74 C 393.77 170.83 404.14 172.26 412.14 178.36 C 395.90 189.74 376.70 196.41 357.16 199.28 C 343.10 201.01 328.82 200.37 314.83 198.29 C 296.94 195.61 279.16 189.32 264.77 178.15 Z" />
<path fill="#ffffff" stroke="#ffffff" stroke-width="0.09375" opacity="1.00" d=" M 247.14 211.73 C 247.38 201.34 252.23 191.47 258.87 183.64 C 281.93 200.34 310.63 208.54 339.00 207.69 C 360.02 208.18 381.10 203.39 399.90 193.98 C 406.27 191.33 411.75 187.02 417.91 184.00 C 425.19 191.66 429.39 202.19 428.93 212.80 C 416.05 220.19 402.84 227.29 388.50 231.43 C 375.96 235.01 363.00 236.90 349.98 237.36 C 332.03 237.51 313.86 237.68 296.27 233.57 C 281.81 230.03 267.41 225.32 254.76 217.30 C 252.21 215.52 248.87 214.38 247.14 211.73 Z" />
<path fill="#ffffff" stroke="#ffffff" stroke-width="0.09375" opacity="1.00" d=" M 396.70 236.76 C 407.85 232.59 418.88 227.82 428.76 221.09 C 428.76 226.28 428.76 231.47 428.73 236.66 C 418.05 236.67 407.38 236.96 396.70 236.76 Z" />
<path fill="#ffffff" stroke="#ffffff" stroke-width="0.09375" opacity="1.00" d=" M 246.68 221.39 C 253.36 225.10 259.85 229.21 266.93 232.12 C 271.27 233.97 275.84 235.22 280.25 236.89 C 269.00 237.50 257.74 236.76 246.49 236.83 C 246.48 231.68 246.50 226.53 246.68 221.39 Z" />
<path fill="#ffffff" stroke="#ffffff" stroke-width="0.09375" opacity="1.00" d=" M 246.30 244.68 C 307.12 244.53 367.94 244.65 428.76 244.66 C 428.56 254.84 428.56 265.03 428.60 275.21 C 367.86 275.44 307.11 275.37 246.37 275.17 C 246.35 265.01 246.39 254.84 246.30 244.68 Z" />
<path fill="#ffffff" stroke="#ffffff" stroke-width="0.09375" opacity="1.00" d=" M 257.73 282.52 C 280.11 282.25 302.50 282.56 324.88 282.56 C 314.16 290.58 302.96 297.97 291.84 305.40 C 287.92 303.88 284.63 301.16 281.14 298.88 C 273.30 293.48 265.30 288.30 257.73 282.52 Z" />
<path fill="#ffffff" stroke="#ffffff" stroke-width="0.09375" opacity="1.00" d=" M 333.64 284.63 C 336.35 281.77 340.46 282.60 343.98 282.49 C 359.37 282.64 374.75 282.31 390.13 282.33 C 369.44 297.01 348.81 311.86 327.12 325.06 C 318.49 319.23 309.51 313.95 300.90 308.09 C 312.01 300.55 323.34 293.28 333.64 284.63 Z" />
<path fill="#ffffff" stroke="#ffffff" stroke-width="0.09375" opacity="1.00" d=" M 399.55 282.71 C 409.19 282.33 418.86 282.26 428.50 282.56 C 428.66 288.77 428.80 294.97 428.85 301.18 C 427.64 301.63 426.49 302.31 425.20 302.46 C 421.89 300.68 419.07 298.15 416.01 296.00 C 410.41 291.71 404.26 288.04 399.55 282.71 Z" />
<path fill="#ffffff" stroke="#ffffff" stroke-width="0.09375" opacity="1.00" d=" M 246.57 283.42 C 252.43 287.12 257.56 291.85 263.42 295.56 C 270.89 300.94 278.54 306.10 285.86 311.69 C 279.68 315.96 273.13 319.68 266.95 323.94 C 260.11 319.44 253.94 313.90 246.51 310.34 C 246.47 301.36 246.31 292.39 246.57 283.42 Z" />
<path fill="#ffffff" stroke="#ffffff" stroke-width="0.09375" opacity="1.00" d=" M 364.55 309.20 C 374.62 302.54 384.50 295.58 394.26 288.47 C 401.69 294.92 409.85 300.45 417.60 306.50 C 407.64 312.97 397.59 319.37 387.11 325.00 C 379.82 319.41 371.82 314.82 364.55 309.20 Z" />
<path fill="#ffffff" stroke="#ffffff" stroke-width="0.09375" opacity="1.00" d=" M 324.67 371.43 C 360.05 351.90 394.05 330.02 428.61 309.11 C 428.61 318.16 428.62 327.21 428.59 336.26 C 422.18 338.95 416.49 342.99 410.54 346.50 C 397.24 354.48 383.48 361.76 370.80 370.69 C 369.11 371.82 366.98 371.45 365.08 371.58 C 351.61 371.40 338.13 371.75 324.67 371.43 Z" />
<path fill="#ffffff" stroke="#ffffff" stroke-width="0.09375" opacity="1.00" d=" M 281.33 323.34 C 286.20 320.39 290.61 316.56 295.85 314.30 C 300.37 316.08 304.16 319.24 308.32 321.70 C 312.43 324.32 316.73 326.67 320.60 329.66 C 308.49 336.85 296.54 344.30 284.31 351.30 C 273.78 357.43 262.92 363.01 252.88 369.94 C 251.07 371.49 248.64 371.47 246.40 371.42 C 246.73 363.25 245.68 354.89 246.90 346.84 C 257.57 337.93 270.12 331.55 281.33 323.34 Z" />
<path fill="#ffffff" stroke="#ffffff" stroke-width="0.09375" opacity="1.00" d=" M 328.91 332.87 C 338.96 327.10 348.41 320.40 358.08 314.02 C 365.65 319.26 373.32 324.36 380.93 329.53 C 358.13 343.66 334.68 356.74 311.80 370.71 C 309.74 371.83 307.30 371.44 305.05 371.56 C 291.59 371.38 278.12 371.73 264.66 371.56 C 271.68 366.75 279.34 362.97 286.67 358.65 C 301.09 350.64 315.22 342.08 328.91 332.87 Z" />
<path fill="#ffffff" stroke="#ffffff" stroke-width="0.09375" opacity="1.00" d=" M 246.35 337.76 C 246.42 331.59 246.19 325.41 246.60 319.24 C 251.17 321.92 255.49 325.00 259.73 328.18 C 255.41 331.57 250.90 334.69 246.35 337.76 Z" />
<path fill="#ffffff" stroke="#ffffff" stroke-width="0.09375" opacity="1.00" d=" M 405.39 358.44 C 413.25 354.09 420.61 348.88 428.62 344.78 C 428.82 353.62 428.59 362.46 428.72 371.30 C 418.48 371.56 408.24 371.30 398.00 371.52 C 393.41 371.60 388.81 371.70 384.24 371.19 C 390.78 366.14 398.36 362.73 405.39 358.44 Z" />
<path fill="#ffffff" stroke="#ffffff" stroke-width="0.09375" opacity="1.00" d=" M 246.45 379.41 C 265.87 379.53 285.30 379.05 304.72 379.30 C 299.86 384.58 294.38 389.24 289.25 394.26 C 274.56 408.08 261.59 423.67 246.46 437.02 C 246.38 417.82 246.45 398.61 246.45 379.41 M 255.53 396.34 C 252.91 398.09 252.11 402.21 254.54 404.46 C 257.11 407.22 262.63 405.68 263.17 401.89 C 264.32 397.88 258.97 393.89 255.53 396.34 Z" />
<path fill="#ffffff" stroke="#ffffff" stroke-width="0.09375" opacity="1.00" d=" M 313.81 380.85 C 315.30 378.97 317.80 379.33 319.93 379.25 C 335.66 379.29 351.39 379.19 367.12 379.28 C 345.05 400.15 324.01 422.06 302.57 443.57 C 297.44 448.53 292.96 454.39 286.95 458.30 C 273.50 458.64 260.02 458.28 246.55 458.34 C 246.57 455.27 246.20 452.17 246.82 449.15 C 247.85 447.17 249.44 445.57 250.96 443.97 C 258.96 435.97 266.50 427.51 274.53 419.54 C 278.74 415.41 282.98 411.31 287.07 407.07 C 295.79 398.13 305.11 389.81 313.81 380.85 M 315.35 396.17 C 312.02 397.32 310.67 402.12 313.43 404.55 C 316.06 407.40 321.55 406.44 322.47 402.49 C 323.75 398.53 319.14 394.36 315.35 396.17 M 300.42 416.18 C 296.31 418.49 298.48 425.69 303.03 425.85 C 306.55 426.56 309.47 423.39 309.58 420.04 C 308.90 415.99 303.78 414.11 300.42 416.18 M 283.53 436.54 C 279.74 437.78 279.01 443.70 282.49 445.70 C 285.48 447.81 290.14 445.57 290.37 441.90 C 291.20 438.15 286.79 435.56 283.53 436.54 Z" />
<path fill="#ffffff" stroke="#ffffff" stroke-width="0.09375" opacity="1.00" d=" M 373.34 383.34 C 375.25 381.59 377.04 378.97 379.97 379.26 C 395.65 379.05 411.34 379.25 427.03 379.13 C 413.81 389.80 402.56 402.58 390.36 414.35 C 382.17 422.16 374.74 430.72 366.44 438.42 C 361.07 443.40 356.09 448.76 351.16 454.17 C 349.18 456.13 347.19 458.93 344.02 458.48 C 328.69 458.49 313.35 458.36 298.02 458.69 C 304.17 451.96 311.11 446.01 317.34 439.35 C 328.05 428.39 338.96 417.63 349.58 406.58 C 357.38 398.71 365.61 391.28 373.34 383.34 M 378.47 396.33 C 375.20 397.89 375.07 403.08 377.92 405.16 C 380.56 407.87 385.65 406.30 386.51 402.67 C 387.74 398.27 382.61 393.76 378.47 396.33 M 360.58 415.60 C 356.49 416.85 356.87 423.20 360.41 424.88 C 363.91 426.99 368.55 423.14 367.75 419.33 C 366.83 416.41 363.51 414.59 360.58 415.60 M 339.51 437.42 C 336.08 438.46 335.40 443.59 338.23 445.70 C 340.83 448.84 347.04 447.24 346.92 442.89 C 347.78 438.76 343.11 435.79 339.51 437.42 Z" />
<path fill="#ffffff" stroke="#ffffff" stroke-width="0.09375" opacity="1.00" d=" M 387.28 428.29 C 401.05 414.76 414.49 400.88 428.61 387.71 C 428.62 404.65 428.93 421.62 428.46 438.54 C 425.20 441.92 421.51 444.85 418.32 448.31 C 415.03 451.47 412.27 455.16 408.77 458.09 C 405.89 458.70 402.91 458.41 399.99 458.46 C 385.84 458.28 371.69 458.57 357.54 458.17 C 367.14 447.90 377.73 438.60 387.28 428.29 M 414.54 422.55 C 410.80 423.44 410.00 428.82 412.99 431.03 C 415.66 433.62 420.70 431.46 420.98 427.86 C 421.54 424.52 417.65 421.50 414.54 422.55 M 395.41 438.36 C 391.74 439.22 390.68 444.17 393.33 446.70 C 395.65 450.06 401.21 448.58 402.11 444.78 C 403.31 440.93 399.12 437.30 395.41 438.36 Z" />
<path fill="#ffffff" stroke="#ffffff" stroke-width="0.09375" opacity="1.00" d=" M 419.41 458.20 C 422.26 454.84 425.28 451.64 428.52 448.66 C 428.59 451.87 428.62 455.08 428.67 458.30 C 425.58 458.32 422.49 458.28 419.41 458.20 Z" />
<path fill="#ffffff" stroke="#ffffff" stroke-width="0.09375" opacity="1.00" d=" M 246.63 465.90 C 270.76 465.50 294.88 466.52 319.00 465.88 C 339.34 465.78 359.67 466.17 380.00 465.89 C 396.23 465.70 412.46 466.27 428.69 466.17 C 428.74 479.35 428.61 492.54 428.69 505.73 C 367.91 505.54 307.12 505.70 246.33 505.58 C 246.51 492.35 246.07 479.11 246.63 465.90 M 262.47 478.37 C 259.07 479.90 257.85 484.69 260.42 487.52 C 263.06 491.30 269.48 489.96 270.85 485.73 C 272.62 481.08 266.86 476.10 262.47 478.37 M 292.38 478.20 C 289.14 479.30 287.24 483.54 289.20 486.55 C 291.35 490.74 298.23 490.38 300.10 486.12 C 302.40 481.68 296.82 476.30 292.38 478.20 M 318.48 478.43 C 314.73 479.92 314.00 485.35 317.07 487.90 C 320.14 491.18 326.35 489.30 327.13 484.90 C 328.21 480.28 322.61 476.16 318.48 478.43 M 348.38 478.19 C 344.45 479.89 343.84 486.33 347.77 488.37 C 350.85 490.67 355.66 489.30 357.07 485.74 C 359.15 480.94 352.79 475.87 348.38 478.19 M 376.33 478.11 C 372.96 479.50 371.61 484.16 373.94 487.06 C 376.67 491.44 384.67 490.14 385.50 484.92 C 386.61 480.05 380.60 475.98 376.33 478.11 M 405.53 478.50 C 401.74 480.27 400.94 486.07 404.38 488.61 C 408.00 492.09 415.05 489.09 414.81 484.00 C 414.88 479.51 409.42 476.26 405.53 478.50 Z" />
<path fill="#ffffff" stroke="#ffffff" stroke-width="0.09375" opacity="1.00" d=" M 246.38 513.52 C 255.14 513.37 263.94 512.96 272.68 513.51 C 275.68 514.85 277.51 517.91 279.87 520.12 C 286.34 527.05 293.15 533.67 299.27 540.93 C 290.53 549.74 281.42 558.17 272.77 567.07 C 264.88 559.00 257.34 550.60 249.50 542.48 C 248.17 540.85 246.31 539.21 246.40 536.92 C 246.27 529.12 246.41 521.32 246.38 513.52 Z" />
<path fill="#ffffff" stroke="#ffffff" stroke-width="0.09375" opacity="1.00" d=" M 284.61 513.38 C 300.07 513.25 315.52 513.35 330.97 513.30 C 333.09 513.02 334.43 514.89 335.81 516.17 C 343.61 524.51 351.47 532.78 359.24 541.15 C 350.48 549.94 341.57 558.61 332.52 567.12 C 324.89 557.91 316.51 549.35 308.75 540.24 C 300.96 531.06 292.21 522.73 284.61 513.38 Z" />
<path fill="#ffffff" stroke="#ffffff" stroke-width="0.09375" opacity="1.00" d=" M 343.52 513.43 C 358.02 513.17 372.52 513.48 387.01 513.34 C 389.46 513.39 391.97 513.17 394.37 513.77 C 397.43 515.93 399.76 518.95 402.35 521.63 C 408.12 527.98 414.11 534.12 420.02 540.32 C 411.02 549.32 401.46 557.74 392.58 566.86 C 381.77 555.51 371.31 543.83 360.80 532.20 C 354.97 526.02 348.88 520.05 343.52 513.43 Z" />
<path fill="#ffffff" stroke="#ffffff" stroke-width="0.09375" opacity="1.00" d=" M 405.46 513.34 C 413.16 513.15 420.87 513.18 428.57 513.32 C 428.65 521.69 428.70 530.07 428.59 538.44 C 420.79 530.16 412.49 522.30 405.46 513.34 Z" />
<path fill="#ffffff" stroke="#ffffff" stroke-width="0.09375" opacity="1.00" d=" M 401.86 568.87 C 409.27 561.06 417.27 553.86 425.06 546.45 C 426.57 548.05 429.00 549.46 428.73 552.01 C 428.69 563.86 428.61 575.72 428.66 587.57 C 367.89 587.38 307.13 587.82 246.37 587.51 C 246.32 575.17 246.10 562.82 246.48 550.48 C 252.78 556.53 258.24 563.39 264.38 569.61 C 266.59 571.75 268.76 574.64 272.08 574.91 C 274.72 575.18 276.92 573.43 278.81 571.83 C 287.27 563.85 294.97 554.97 304.16 547.81 C 309.83 551.71 313.76 557.60 318.58 562.44 C 322.43 566.21 325.30 571.09 329.89 574.04 C 334.07 576.16 338.16 572.81 341.01 570.02 C 347.66 563.31 354.55 556.86 361.21 550.17 C 362.03 549.32 363.00 548.65 363.98 548.01 C 372.33 555.32 379.04 564.30 386.86 572.17 C 388.78 574.23 391.77 575.13 394.52 574.47 C 397.50 573.45 399.69 571.04 401.86 568.87 Z" />
<path fill="#ffffff" stroke="#ffffff" stroke-width="0.09375" opacity="1.00" d=" M 246.26 595.26 C 259.99 594.87 273.72 594.78 287.46 594.67 C 283.13 599.35 277.79 602.88 272.85 606.85 C 263.74 614.30 254.86 622.03 246.13 629.92 C 246.21 618.36 246.39 606.81 246.26 595.26 Z" />
<path fill="#ffffff" stroke="#ffffff" stroke-width="0.09375" opacity="1.00" d=" M 293.21 600.20 C 295.99 598.20 298.04 594.29 301.94 594.67 C 309.29 594.64 316.66 594.47 324.02 594.79 C 310.62 605.80 296.95 616.49 283.81 627.81 C 276.82 633.88 269.38 639.38 262.16 645.17 C 256.63 649.47 251.66 654.41 246.32 658.95 C 246.40 653.32 246.16 647.69 246.38 642.07 C 246.25 640.26 247.51 638.89 248.72 637.74 C 263.06 624.66 278.25 612.56 293.21 600.20 Z" />
<path fill="#ffffff" stroke="#ffffff" stroke-width="0.09375" opacity="1.00" d=" M 333.59 596.63 C 335.81 594.41 339.12 594.81 341.98 594.72 C 353.34 594.81 364.69 594.69 376.05 594.79 C 368.64 602.55 359.76 608.68 351.52 615.51 C 343.52 622.20 335.10 628.39 327.22 635.23 C 317.53 643.58 307.38 651.37 297.56 659.57 C 295.23 661.71 291.91 661.22 289.02 661.31 C 277.86 661.11 266.70 661.52 255.55 661.13 C 268.07 648.97 282.45 639.01 295.67 627.66 C 308.09 617.04 321.12 607.18 333.59 596.63 Z" />
<path fill="#ffffff" stroke="#ffffff" stroke-width="0.09375" opacity="1.00" d=" M 386.61 596.66 C 388.80 594.40 392.12 594.83 394.98 594.77 C 406.19 594.94 417.40 594.63 428.61 594.84 C 428.41 598.56 429.21 602.53 428.08 606.12 C 406.77 622.29 386.47 639.78 366.05 657.07 C 364.38 658.44 362.80 660.04 360.79 660.90 C 357.23 661.52 353.59 661.14 350.00 661.21 C 335.93 661.11 321.87 661.37 307.81 661.05 C 310.90 658.02 314.25 655.29 317.69 652.67 C 333.10 640.08 348.61 627.62 363.95 614.95 C 371.36 608.67 379.33 603.09 386.61 596.66 Z" />
<path fill="#ffffff" stroke="#ffffff" stroke-width="0.09375" opacity="1.00" d=" M 411.13 629.13 C 416.94 624.60 422.30 619.51 428.38 615.33 C 429.06 630.53 428.53 645.77 428.58 660.99 C 410.21 661.38 391.83 661.23 373.46 661.12 C 385.44 649.80 398.60 639.82 411.13 629.13 Z" />
<path fill="#ffffff" stroke="#ffffff" stroke-width="0.09375" opacity="1.00" d=" M 246.36 669.14 C 253.90 668.61 261.45 669.07 269.00 669.12 C 294.00 669.04 319.00 669.38 343.99 668.85 C 345.84 668.85 347.69 668.91 349.54 669.01 C 339.58 675.45 328.73 680.37 318.68 686.66 C 302.99 696.54 287.54 706.80 272.22 717.23 C 263.09 723.19 254.61 730.04 246.39 737.18 C 246.30 714.50 246.41 691.82 246.36 669.14 M 290.50 683.39 C 286.94 684.50 286.45 690.81 290.31 691.92 C 293.68 693.72 297.99 690.01 296.67 686.42 C 296.06 683.71 292.94 682.63 290.50 683.39 M 261.35 690.23 C 256.48 691.83 255.58 699.39 259.96 702.06 C 263.53 704.85 269.29 702.10 270.07 697.83 C 271.30 693.16 265.79 688.35 261.35 690.23 Z" />
<path fill="#ffffff" stroke="#ffffff" stroke-width="0.09375" opacity="1.00" d=" M 365.73 669.88 C 369.03 668.83 372.57 669.00 376.00 668.88 C 393.51 668.88 411.02 668.72 428.53 668.95 C 428.49 672.94 428.43 676.94 428.37 680.94 C 414.34 686.11 400.61 692.06 386.83 697.85 C 367.12 707.04 347.82 717.07 329.07 728.07 C 314.57 736.74 300.01 745.37 286.30 755.28 C 278.57 760.91 270.08 765.50 262.86 771.84 C 257.20 776.38 251.92 781.38 246.53 786.24 C 246.15 775.15 246.45 764.05 246.28 752.96 C 246.56 750.57 245.55 747.45 247.67 745.70 C 258.29 736.48 269.37 727.78 281.26 720.26 C 295.32 710.57 309.54 701.11 324.12 692.22 C 338.04 684.86 351.22 676.09 365.73 669.88 M 360.40 686.36 C 357.87 687.09 355.59 689.30 355.35 692.01 C 355.29 695.06 357.59 697.76 360.24 699.02 C 365.05 700.81 370.11 695.14 368.57 690.50 C 367.30 687.43 363.60 685.63 360.40 686.36 M 328.31 704.00 C 324.91 705.57 324.04 710.57 327.02 713.00 C 330.01 716.20 335.60 714.03 336.30 709.89 C 337.50 705.54 332.05 701.99 328.31 704.00 M 269.41 743.24 C 268.04 743.86 266.94 745.06 266.50 746.51 C 265.31 750.50 269.65 754.93 273.65 753.80 C 276.28 752.56 278.48 749.49 277.48 746.51 C 276.25 743.54 272.37 741.83 269.41 743.24 Z" />
<path fill="#ffffff" stroke="#ffffff" stroke-width="0.09375" opacity="1.00" d=" M 375.14 711.92 C 392.54 703.44 410.43 695.97 428.48 689.00 C 428.68 715.46 428.51 741.92 428.44 768.38 C 420.40 760.81 413.18 752.42 405.45 744.54 C 399.84 738.82 394.39 732.94 388.82 727.17 C 384.16 722.17 379.04 717.56 375.14 711.92 M 409.46 712.45 C 404.40 713.00 403.29 720.13 406.92 723.11 C 409.80 726.29 415.29 724.12 416.51 720.40 C 417.92 716.26 413.86 711.34 409.46 712.45 Z" />
<path fill="#ffffff" stroke="#ffffff" stroke-width="0.09375" opacity="1.00" d=" M 435.76 704.80 C 459.25 704.69 482.74 704.74 506.23 704.79 C 506.31 750.69 506.38 796.59 506.23 842.49 C 482.72 842.48 459.22 842.55 435.71 842.45 C 435.45 796.56 435.48 750.68 435.76 704.80 M 477.52 711.30 C 474.70 713.17 474.74 717.65 477.45 719.60 C 480.67 722.44 486.71 719.51 485.91 715.09 C 486.01 711.07 480.47 709.07 477.52 711.30 M 454.41 727.43 C 448.47 729.39 447.48 737.96 452.24 741.73 C 456.51 746.31 464.70 742.82 465.45 736.93 C 466.62 730.94 460.23 725.21 454.41 727.43 M 488.46 744.45 C 484.82 745.24 483.33 750.44 485.93 753.08 C 488.44 756.14 494.55 755.12 495.10 750.91 C 496.09 747.14 492.22 743.24 488.46 744.45 M 465.33 767.19 C 459.00 769.43 458.59 779.59 464.86 782.16 C 470.07 785.47 477.59 780.08 476.65 774.14 C 476.04 768.99 470.27 765.12 465.33 767.19 M 451.48 796.35 C 447.71 797.44 447.66 803.73 451.27 805.14 C 454.03 806.52 457.47 804.68 458.19 801.77 C 458.99 798.18 454.82 795.07 451.48 796.35 M 488.34 807.07 C 484.33 808.46 484.10 814.33 487.55 816.51 C 490.45 819.19 495.10 816.55 495.44 812.94 C 496.44 809.03 492.01 805.25 488.34 807.07 M 460.38 820.27 C 456.45 821.38 454.86 827.08 458.34 829.63 C 461.51 833.43 468.23 830.72 468.41 826.00 C 468.72 821.90 464.04 819.15 460.38 820.27 Z" />
<path fill="#ffffff" stroke="#ffffff" stroke-width="0.09375" opacity="1.00" d=" M 513.60 704.76 C 521.97 704.77 530.35 704.69 538.73 704.83 C 538.67 712.56 538.67 720.28 539.17 728.00 C 539.35 750.66 539.40 773.33 539.38 796.00 C 538.35 811.42 538.67 826.90 537.97 842.34 C 529.78 842.41 521.60 842.38 513.42 842.38 C 513.60 796.51 513.41 750.63 513.60 704.76 Z" />
<path fill="#ffffff" stroke="#ffffff" stroke-width="0.09375" opacity="1.00" d=" M 546.19 704.83 C 548.51 704.80 550.84 704.78 553.18 704.77 C 553.46 750.60 553.96 796.44 552.85 842.27 C 550.37 842.26 547.89 842.29 545.42 842.29 C 547.07 796.48 545.99 750.65 546.19 704.83 Z" />
<path fill="#ffffff" stroke="#ffffff" stroke-width="0.09375" opacity="1.00" d=" M 560.62 704.80 C 569.49 704.73 578.37 704.81 587.25 704.72 C 587.43 730.81 587.21 756.90 587.25 783.00 C 586.82 802.81 586.71 822.65 585.10 842.41 C 576.69 842.64 568.27 842.39 559.86 842.28 C 561.36 796.48 560.43 750.63 560.62 704.80 Z" />
<path fill="#ffffff" stroke="#ffffff" stroke-width="0.09375" opacity="1.00" d=" M 594.61 704.77 C 612.78 704.71 630.95 704.84 649.11 704.79 C 649.42 717.19 650.03 729.58 649.82 742.00 C 649.69 775.48 650.29 809.05 647.16 842.43 C 638.47 842.62 629.79 842.40 621.10 842.44 C 621.61 839.13 622.91 835.28 620.63 832.34 C 617.94 827.86 610.83 827.50 607.69 831.66 C 605.12 834.68 606.33 838.86 606.85 842.38 C 602.04 842.28 597.23 842.25 592.43 842.22 C 595.64 796.48 594.17 750.59 594.61 704.77 M 619.40 718.38 C 615.61 719.72 612.96 723.91 613.76 727.93 C 614.50 731.91 618.30 734.60 622.09 735.32 C 627.04 735.61 631.94 731.06 631.44 725.98 C 631.03 720.40 624.60 716.44 619.40 718.38 M 616.45 756.39 C 610.61 759.22 610.48 768.80 616.69 771.33 C 623.31 775.44 631.67 766.54 627.95 760.04 C 626.10 755.65 620.47 754.56 616.45 756.39 M 617.33 792.22 C 610.75 794.52 610.38 804.47 616.37 807.70 C 621.16 811.20 628.09 807.30 628.89 801.80 C 629.98 795.70 623.19 789.82 617.33 792.22 Z" />
<path fill="#ffffff" stroke="#ffffff" stroke-width="0.09375" opacity="1.00" d=" M 656.67 704.66 C 665.83 704.91 675.00 704.71 684.17 704.81 C 684.31 740.54 684.47 776.27 684.24 812.00 C 683.74 822.10 683.62 832.22 683.61 842.33 C 673.95 842.62 664.28 842.48 654.62 842.42 C 656.25 821.99 657.06 801.49 656.84 781.00 C 657.58 755.55 656.96 730.10 656.67 704.66 Z" />
<path fill="#ffffff" stroke="#ffffff" stroke-width="0.09375" opacity="1.00" d=" M 691.71 704.68 C 704.37 705.29 717.43 702.97 729.73 706.90 C 729.42 750.93 729.59 794.97 729.58 839.01 C 717.46 844.15 703.98 842.10 691.19 842.40 C 691.73 796.50 691.67 750.59 691.71 704.68 M 706.39 719.18 C 702.71 721.00 702.14 726.98 705.78 729.20 C 709.04 731.69 714.55 729.19 714.49 724.99 C 714.99 720.77 710.26 717.08 706.39 719.18 M 708.52 750.54 C 704.76 751.69 703.34 757.00 706.34 759.71 C 709.01 763.47 715.53 761.25 715.87 756.84 C 716.49 752.93 712.24 749.39 708.52 750.54 M 706.39 789.19 C 702.33 790.40 701.93 796.56 705.77 798.30 C 708.54 800.50 712.62 798.03 713.31 794.92 C 714.22 791.23 709.76 787.63 706.39 789.19 M 704.46 821.29 C 700.92 823.29 700.56 828.75 704.04 831.00 C 706.93 833.34 711.52 831.96 712.69 828.45 C 714.81 823.84 708.77 818.58 704.46 821.29 Z" />
<path fill="#ffffff" stroke="#ffffff" stroke-width="0.09375" opacity="1.00" d=" M 736.86 709.53 C 747.65 716.15 755.67 727.42 757.44 740.06 C 752.11 737.38 747.28 733.86 742.15 730.86 C 740.27 729.69 738.21 728.64 736.85 726.85 C 736.28 721.10 736.62 715.29 736.86 709.53 Z" />
<path fill="#ffffff" stroke="#ffffff" stroke-width="0.09375" opacity="1.00" d=" M 338.77 731.28 C 348.05 725.96 357.54 721.02 366.94 715.91 C 374.76 722.79 381.72 730.57 389.04 737.97 C 401.93 750.77 413.73 764.61 426.63 777.39 C 429.23 779.50 428.37 783.04 428.52 785.97 C 428.28 799.51 428.85 813.05 428.50 826.59 C 403.21 800.49 378.63 773.72 353.91 747.08 C 349.02 741.66 343.58 736.77 338.77 731.28 Z" />
<path fill="#ffffff" stroke="#ffffff" stroke-width="0.09375" opacity="1.00" d=" M 302.97 752.87 C 312.54 746.88 322.32 741.24 331.86 735.22 C 357.25 761.15 381.59 788.10 406.67 814.34 C 413.55 821.46 420.01 828.98 427.07 835.92 C 428.94 837.49 428.76 840.09 429.23 842.28 C 416.47 842.80 403.70 842.27 390.93 842.51 C 385.66 843.39 383.62 837.56 380.39 834.59 C 356.42 809.57 332.72 784.29 308.63 759.38 C 306.67 757.28 304.80 755.08 302.97 752.87 Z" />
<path fill="#ffffff" stroke="#ffffff" stroke-width="0.09375" opacity="1.00" d=" M 736.82 736.60 C 744.21 740.20 750.54 745.55 757.67 749.60 C 757.73 754.46 757.78 759.34 757.56 764.21 C 750.36 760.26 743.52 755.68 736.64 751.21 C 736.69 746.33 736.63 741.46 736.82 736.60 Z" />
<path fill="#ffffff" stroke="#ffffff" stroke-width="0.09375" opacity="1.00" d=" M 270.04 775.21 C 278.72 769.15 287.49 763.21 296.21 757.20 C 309.42 769.86 321.66 783.47 334.27 796.72 C 348.29 812.24 363.85 826.34 377.20 842.45 C 364.11 842.55 351.02 842.45 337.93 842.59 C 336.15 842.55 334.35 842.64 332.60 842.27 C 315.16 823.80 297.71 805.25 280.18 786.83 C 276.70 783.04 273.13 779.33 270.04 775.21 Z" />
<path fill="#ffffff" stroke="#ffffff" stroke-width="0.09375" opacity="1.00" d=" M 736.69 760.03 C 743.99 764.04 750.75 768.94 757.78 773.39 C 757.78 779.49 757.93 785.60 757.75 791.71 C 750.43 787.59 743.70 782.54 736.58 778.10 C 736.52 772.08 736.39 766.05 736.69 760.03 Z" />
<path fill="#ffffff" stroke="#ffffff" stroke-width="0.09375" opacity="1.00" d=" M 248.31 795.33 C 253.02 789.83 258.66 785.24 264.08 780.48 C 271.36 787.83 278.43 795.39 285.42 803.01 C 277.26 813.32 268.95 823.52 261.07 834.05 C 251.79 824.89 246.65 811.92 246.40 798.95 C 246.33 797.48 247.54 796.43 248.31 795.33 Z" />
<path fill="#ffffff" stroke="#ffffff" stroke-width="0.09375" opacity="1.00" d=" M 736.59 786.76 C 743.74 791.25 750.66 796.09 757.52 801.01 C 757.08 805.44 756.21 809.82 755.03 814.12 C 749.00 810.27 742.88 806.56 736.74 802.89 C 736.58 797.51 736.47 792.13 736.59 786.76 Z" />
<path fill="#ffffff" stroke="#ffffff" stroke-width="0.09375" opacity="1.00" d=" M 290.59 808.99 C 297.51 815.71 303.99 822.86 310.70 829.79 C 307.31 833.96 303.73 838.00 300.87 842.57 C 289.69 842.88 278.06 842.74 267.81 837.69 C 275.05 827.85 283.17 818.69 290.59 808.99 Z" />
<path fill="#ffffff" stroke="#ffffff" stroke-width="0.09375" opacity="1.00" d=" M 736.60 811.54 C 741.67 814.58 746.57 817.87 751.58 821.01 C 747.88 827.08 743.21 832.79 736.67 835.93 C 736.40 827.80 736.50 819.67 736.60 811.54 Z" />
<path fill="#ffffff" stroke="#ffffff" stroke-width="0.09375" opacity="1.00" d=" M 311.02 842.62 C 312.63 840.16 314.23 837.69 315.90 835.28 C 318.28 837.70 320.57 840.21 322.90 842.69 C 318.94 842.65 314.98 842.63 311.02 842.62 Z" />
</g>
<g id="#000000ff">
<path fill="#000000" stroke="#000000" stroke-width="0.09375" opacity="1.00" d=" M 98.37 83.50 C 103.21 82.82 108.13 83.35 113.00 83.23 C 372.68 83.27 632.36 83.17 892.04 83.21 C 894.58 82.94 897.77 84.12 897.55 87.17 C 898.14 103.10 897.69 119.07 897.77 135.01 C 897.54 311.01 897.93 487.00 897.66 663.00 C 897.69 761.36 897.72 859.72 897.72 958.08 C 897.87 960.57 897.13 964.12 893.97 964.08 C 887.32 964.54 880.65 964.25 874.00 964.36 C 758.00 964.12 642.00 964.34 526.00 964.30 C 389.00 964.20 252.00 964.27 115.00 964.32 C 109.37 964.20 103.71 964.73 98.12 964.04 C 95.91 964.12 95.28 961.69 95.26 959.93 C 94.75 910.63 94.87 861.32 94.86 812.00 C 94.93 764.34 94.77 716.66 95.05 669.00 C 94.72 656.67 95.48 644.33 94.92 632.00 C 95.70 609.00 94.36 586.00 95.05 563.00 C 95.39 535.66 94.75 508.33 94.86 481.00 C 94.91 397.67 94.81 314.33 94.90 231.00 C 95.61 202.67 94.73 174.34 94.88 146.01 C 95.34 126.68 95.15 107.34 95.20 88.01 C 94.95 85.92 96.21 83.83 98.37 83.50 M 97.67 85.65 C 97.43 131.10 97.40 176.55 97.30 222.00 C 97.10 309.66 97.60 397.33 97.41 485.00 C 97.43 643.95 97.34 802.91 97.38 961.86 C 258.58 961.58 419.79 961.67 581.00 961.77 C 685.74 961.86 790.48 961.51 895.22 961.86 C 895.38 956.90 895.39 951.95 895.37 947.00 C 895.15 834.00 895.24 721.00 895.24 608.00 C 895.43 435.31 894.95 262.63 895.39 89.94 C 895.35 88.07 895.50 85.05 892.75 85.48 C 724.51 85.42 556.25 85.52 388.00 85.42 C 291.23 85.71 194.45 85.34 97.67 85.65 Z" />
<path fill="#000000" stroke="#000000" stroke-width="0.09375" opacity="1.00" d=" M 246.39 149.38 C 259.87 141.50 275.78 139.22 291.14 138.46 C 315.42 138.35 339.71 138.47 364.00 138.38 C 381.25 138.44 398.99 137.66 415.57 143.31 C 429.38 147.39 441.97 155.88 450.50 167.54 C 456.28 175.56 460.36 184.77 462.45 194.44 C 465.44 206.74 464.57 219.47 464.63 232.00 C 464.60 357.67 464.50 483.33 464.70 609.00 C 464.76 629.76 464.41 650.52 464.79 671.28 C 487.52 671.73 510.26 671.29 533.00 671.45 C 588.33 671.54 643.67 671.38 699.00 671.53 C 713.34 671.61 728.01 670.82 741.88 675.18 C 758.16 679.96 773.56 689.96 782.14 704.91 C 790.10 718.46 792.66 734.47 792.73 749.98 C 792.71 763.66 792.69 777.33 792.69 791.00 C 792.67 796.38 792.83 801.78 792.18 807.13 C 790.54 823.49 783.77 839.47 772.46 851.49 C 762.16 863.23 747.25 870.04 732.15 873.05 C 721.28 875.50 710.09 875.61 699.00 875.44 C 568.67 875.46 438.33 875.45 308.00 875.37 C 295.44 875.29 282.77 875.86 270.36 873.59 C 257.33 870.91 244.53 865.50 234.93 856.08 C 220.51 842.08 213.37 821.90 212.92 802.04 C 213.38 753.70 212.99 705.35 213.17 657.00 C 213.11 630.34 213.40 603.66 212.86 577.01 C 213.01 532.34 212.56 487.66 213.04 443.00 C 213.30 401.00 213.07 359.00 213.16 317.00 C 212.90 283.01 212.79 249.01 212.88 215.01 C 213.21 203.02 214.68 190.79 219.85 179.83 C 225.66 167.55 234.50 156.26 246.39 149.38 M 264.77 178.15 C 279.16 189.32 296.94 195.61 314.83 198.29 C 328.82 200.37 343.10 201.01 357.16 199.28 C 376.70 196.41 395.90 189.74 412.14 178.36 C 404.14 172.26 393.77 170.83 383.99 170.74 C 353.66 170.57 323.34 170.65 293.01 170.63 C 283.18 170.61 272.86 172.16 264.77 178.15 M 247.14 211.73 C 248.87 214.38 252.21 215.52 254.76 217.30 C 267.41 225.32 281.81 230.03 296.27 233.57 C 313.86 237.68 332.03 237.51 349.98 237.36 C 363.00 236.90 375.96 235.01 388.50 231.43 C 402.84 227.29 416.05 220.19 428.93 212.80 C 429.39 202.19 425.19 191.66 417.91 184.00 C 411.75 187.02 406.27 191.33 399.90 193.98 C 381.10 203.39 360.02 208.18 339.00 207.69 C 310.63 208.54 281.93 200.34 258.87 183.64 C 252.23 191.47 247.38 201.34 247.14 211.73 M 396.70 236.76 C 407.38 236.96 418.05 236.67 428.73 236.66 C 428.76 231.47 428.76 226.28 428.76 221.09 C 418.88 227.82 407.85 232.59 396.70 236.76 M 246.68 221.39 C 246.50 226.53 246.48 231.68 246.49 236.83 C 257.74 236.76 269.00 237.50 280.25 236.89 C 275.84 235.22 271.27 233.97 266.93 232.12 C 259.85 229.21 253.36 225.10 246.68 221.39 M 246.30 244.68 C 246.39 254.84 246.35 265.01 246.37 275.17 C 307.11 275.37 367.86 275.44 428.60 275.21 C 428.56 265.03 428.56 254.84 428.76 244.66 C 367.94 244.65 307.12 244.53 246.30 244.68 M 257.73 282.52 C 265.30 288.30 273.30 293.48 281.14 298.88 C 284.63 301.16 287.92 303.88 291.84 305.40 C 302.96 297.97 314.16 290.58 324.88 282.56 C 302.50 282.56 280.11 282.25 257.73 282.52 M 333.64 284.63 C 323.34 293.28 312.01 300.55 300.90 308.09 C 309.51 313.95 318.49 319.23 327.12 325.06 C 348.81 311.86 369.44 297.01 390.13 282.33 C 374.75 282.31 359.37 282.64 343.98 282.49 C 340.46 282.60 336.35 281.77 333.64 284.63 M 399.55 282.71 C 404.26 288.04 410.41 291.71 416.01 296.00 C 419.07 298.15 421.89 300.68 425.20 302.46 C 426.49 302.31 427.64 301.63 428.85 301.18 C 428.80 294.97 428.66 288.77 428.50 282.56 C 418.86 282.26 409.19 282.33 399.55 282.71 M 246.57 283.42 C 246.31 292.39 246.47 301.36 246.51 310.34 C 253.94 313.90 260.11 319.44 266.95 323.94 C 273.13 319.68 279.68 315.96 285.86 311.69 C 278.54 306.10 270.89 300.94 263.42 295.56 C 257.56 291.85 252.43 287.12 246.57 283.42 M 364.55 309.20 C 371.82 314.82 379.82 319.41 387.11 325.00 C 397.59 319.37 407.64 312.97 417.60 306.50 C 409.85 300.45 401.69 294.92 394.26 288.47 C 384.50 295.58 374.62 302.54 364.55 309.20 M 324.67 371.43 C 338.13 371.75 351.61 371.40 365.08 371.58 C 366.98 371.45 369.11 371.82 370.80 370.69 C 383.48 361.76 397.24 354.48 410.54 346.50 C 416.49 342.99 422.18 338.95 428.59 336.26 C 428.62 327.21 428.61 318.16 428.61 309.11 C 394.05 330.02 360.05 351.90 324.67 371.43 M 281.33 323.34 C 270.12 331.55 257.57 337.93 246.90 346.84 C 245.68 354.89 246.73 363.25 246.40 371.42 C 248.64 371.47 251.07 371.49 252.88 369.94 C 262.92 363.01 273.78 357.43 284.31 351.30 C 296.54 344.30 308.49 336.85 320.60 329.66 C 316.73 326.67 312.43 324.32 308.32 321.70 C 304.16 319.24 300.37 316.08 295.85 314.30 C 290.61 316.56 286.20 320.39 281.33 323.34 M 328.91 332.87 C 315.22 342.08 301.09 350.64 286.67 358.65 C 279.34 362.97 271.68 366.75 264.66 371.56 C 278.12 371.73 291.59 371.38 305.05 371.56 C 307.30 371.44 309.74 371.83 311.80 370.71 C 334.68 356.74 358.13 343.66 380.93 329.53 C 373.32 324.36 365.65 319.26 358.08 314.02 C 348.41 320.40 338.96 327.10 328.91 332.87 M 246.35 337.76 C 250.90 334.69 255.41 331.57 259.73 328.18 C 255.49 325.00 251.17 321.92 246.60 319.24 C 246.19 325.41 246.42 331.59 246.35 337.76 M 405.39 358.44 C 398.36 362.73 390.78 366.14 384.24 371.19 C 388.81 371.70 393.41 371.60 398.00 371.52 C 408.24 371.30 418.48 371.56 428.72 371.30 C 428.59 362.46 428.82 353.62 428.62 344.78 C 420.61 348.88 413.25 354.09 405.39 358.44 M 246.45 379.41 C 246.45 398.61 246.38 417.82 246.46 437.02 C 261.59 423.67 274.56 408.08 289.25 394.26 C 294.38 389.24 299.86 384.58 304.72 379.30 C 285.30 379.05 265.87 379.53 246.45 379.41 M 313.81 380.85 C 305.11 389.81 295.79 398.13 287.07 407.07 C 282.98 411.31 278.74 415.41 274.53 419.54 C 266.50 427.51 258.96 435.97 250.96 443.97 C 249.44 445.57 247.85 447.17 246.82 449.15 C 246.20 452.17 246.57 455.27 246.55 458.34 C 260.02 458.28 273.50 458.64 286.95 458.30 C 292.96 454.39 297.44 448.53 302.57 443.57 C 324.01 422.06 345.05 400.15 367.12 379.28 C 351.39 379.19 335.66 379.29 319.93 379.25 C 317.80 379.33 315.30 378.97 313.81 380.85 M 373.34 383.34 C 365.61 391.28 357.38 398.71 349.58 406.58 C 338.96 417.63 328.05 428.39 317.34 439.35 C 311.11 446.01 304.17 451.96 298.02 458.69 C 313.35 458.36 328.69 458.49 344.02 458.48 C 347.19 458.93 349.18 456.13 351.16 454.17 C 356.09 448.76 361.07 443.40 366.44 438.42 C 374.74 430.72 382.17 422.16 390.36 414.35 C 402.56 402.58 413.81 389.80 427.03 379.13 C 411.34 379.25 395.65 379.05 379.97 379.26 C 377.04 378.97 375.25 381.59 373.34 383.34 M 387.28 428.29 C 377.73 438.60 367.14 447.90 357.54 458.17 C 371.69 458.57 385.84 458.28 399.99 458.46 C 402.91 458.41 405.89 458.70 408.77 458.09 C 412.27 455.16 415.03 451.47 418.32 448.31 C 421.51 444.85 425.20 441.92 428.46 438.54 C 428.93 421.62 428.62 404.65 428.61 387.71 C 414.49 400.88 401.05 414.76 387.28 428.29 M 419.41 458.20 C 422.49 458.28 425.58 458.32 428.67 458.30 C 428.62 455.08 428.59 451.87 428.52 448.66 C 425.28 451.64 422.26 454.84 419.41 458.20 M 246.63 465.90 C 246.07 479.11 246.51 492.35 246.33 505.58 C 307.12 505.70 367.91 505.54 428.69 505.73 C 428.61 492.54 428.74 479.35 428.69 466.17 C 412.46 466.27 396.23 465.70 380.00 465.89 C 359.67 466.17 339.34 465.78 319.00 465.88 C 294.88 466.52 270.76 465.50 246.63 465.90 M 246.38 513.52 C 246.41 521.32 246.27 529.12 246.40 536.92 C 246.31 539.21 248.17 540.85 249.50 542.48 C 257.34 550.60 264.88 559.00 272.77 567.07 C 281.42 558.17 290.53 549.74 299.27 540.93 C 293.15 533.67 286.34 527.05 279.87 520.12 C 277.51 517.91 275.68 514.85 272.68 513.51 C 263.94 512.96 255.14 513.37 246.38 513.52 M 284.61 513.38 C 292.21 522.73 300.96 531.06 308.75 540.24 C 316.51 549.35 324.89 557.91 332.52 567.12 C 341.57 558.61 350.48 549.94 359.24 541.15 C 351.47 532.78 343.61 524.51 335.81 516.17 C 334.43 514.89 333.09 513.02 330.97 513.30 C 315.52 513.35 300.07 513.25 284.61 513.38 M 343.52 513.43 C 348.88 520.05 354.97 526.02 360.80 532.20 C 371.31 543.83 381.77 555.51 392.58 566.86 C 401.46 557.74 411.02 549.32 420.02 540.32 C 414.11 534.12 408.12 527.98 402.35 521.63 C 399.76 518.95 397.43 515.93 394.37 513.77 C 391.97 513.17 389.46 513.39 387.01 513.34 C 372.52 513.48 358.02 513.17 343.52 513.43 M 405.46 513.34 C 412.49 522.30 420.79 530.16 428.59 538.44 C 428.70 530.07 428.65 521.69 428.57 513.32 C 420.87 513.18 413.16 513.15 405.46 513.34 M 401.86 568.87 C 399.69 571.04 397.50 573.45 394.52 574.47 C 391.77 575.13 388.78 574.23 386.86 572.17 C 379.04 564.30 372.33 555.32 363.98 548.01 C 363.00 548.65 362.03 549.32 361.21 550.17 C 354.55 556.86 347.66 563.31 341.01 570.02 C 338.16 572.81 334.07 576.16 329.89 574.04 C 325.30 571.09 322.43 566.21 318.58 562.44 C 313.76 557.60 309.83 551.71 304.16 547.81 C 294.97 554.97 287.27 563.85 278.81 571.83 C 276.92 573.43 274.72 575.18 272.08 574.91 C 268.76 574.64 266.59 571.75 264.38 569.61 C 258.24 563.39 252.78 556.53 246.48 550.48 C 246.10 562.82 246.32 575.17 246.37 587.51 C 307.13 587.82 367.89 587.38 428.66 587.57 C 428.61 575.72 428.69 563.86 428.73 552.01 C 429.00 549.46 426.57 548.05 425.06 546.45 C 417.27 553.86 409.27 561.06 401.86 568.87 M 246.26 595.26 C 246.39 606.81 246.21 618.36 246.13 629.92 C 254.86 622.03 263.74 614.30 272.85 606.85 C 277.79 602.88 283.13 599.35 287.46 594.67 C 273.72 594.78 259.99 594.87 246.26 595.26 M 293.21 600.20 C 278.25 612.56 263.06 624.66 248.72 637.74 C 247.51 638.89 246.25 640.26 246.38 642.07 C 246.16 647.69 246.40 653.32 246.32 658.95 C 251.66 654.41 256.63 649.47 262.16 645.17 C 269.38 639.38 276.82 633.88 283.81 627.81 C 296.95 616.49 310.62 605.80 324.02 594.79 C 316.66 594.47 309.29 594.64 301.94 594.67 C 298.04 594.29 295.99 598.20 293.21 600.20 M 333.59 596.63 C 321.12 607.18 308.09 617.04 295.67 627.66 C 282.45 639.01 268.07 648.97 255.55 661.13 C 266.70 661.52 277.86 661.11 289.02 661.31 C 291.91 661.22 295.23 661.71 297.56 659.57 C 307.38 651.37 317.53 643.58 327.22 635.23 C 335.10 628.39 343.52 622.20 351.52 615.51 C 359.76 608.68 368.64 602.55 376.05 594.79 C 364.69 594.69 353.34 594.81 341.98 594.72 C 339.12 594.81 335.81 594.41 333.59 596.63 M 386.61 596.66 C 379.33 603.09 371.36 608.67 363.95 614.95 C 348.61 627.62 333.10 640.08 317.69 652.67 C 314.25 655.29 310.90 658.02 307.81 661.05 C 321.87 661.37 335.93 661.11 350.00 661.21 C 353.59 661.14 357.23 661.52 360.79 660.90 C 362.80 660.04 364.38 658.44 366.05 657.07 C 386.47 639.78 406.77 622.29 428.08 606.12 C 429.21 602.53 428.41 598.56 428.61 594.84 C 417.40 594.63 406.19 594.94 394.98 594.77 C 392.12 594.83 388.80 594.40 386.61 596.66 M 411.13 629.13 C 398.60 639.82 385.44 649.80 373.46 661.12 C 391.83 661.23 410.21 661.38 428.58 660.99 C 428.53 645.77 429.06 630.53 428.38 615.33 C 422.30 619.51 416.94 624.60 411.13 629.13 M 246.36 669.14 C 246.41 691.82 246.30 714.50 246.39 737.18 C 254.61 730.04 263.09 723.19 272.22 717.23 C 287.54 706.80 302.99 696.54 318.68 686.66 C 328.73 680.37 339.58 675.45 349.54 669.01 C 347.69 668.91 345.84 668.85 343.99 668.85 C 319.00 669.38 294.00 669.04 269.00 669.12 C 261.45 669.07 253.90 668.61 246.36 669.14 M 365.73 669.88 C 351.22 676.09 338.04 684.86 324.12 692.22 C 309.54 701.11 295.32 710.57 281.26 720.26 C 269.37 727.78 258.29 736.48 247.67 745.70 C 245.55 747.45 246.56 750.57 246.28 752.96 C 246.45 764.05 246.15 775.15 246.53 786.24 C 251.92 781.38 257.20 776.38 262.86 771.84 C 270.08 765.50 278.57 760.91 286.30 755.28 C 300.01 745.37 314.57 736.74 329.07 728.07 C 347.82 717.07 367.12 707.04 386.83 697.85 C 400.61 692.06 414.34 686.11 428.37 680.94 C 428.43 676.94 428.49 672.94 428.53 668.95 C 411.02 668.72 393.51 668.88 376.00 668.88 C 372.57 669.00 369.03 668.83 365.73 669.88 M 375.14 711.92 C 379.04 717.56 384.16 722.17 388.82 727.17 C 394.39 732.94 399.84 738.82 405.45 744.54 C 413.18 752.42 420.40 760.81 428.44 768.38 C 428.51 741.92 428.68 715.46 428.48 689.00 C 410.43 695.97 392.54 703.44 375.14 711.92 M 435.76 704.80 C 435.48 750.68 435.45 796.56 435.71 842.45 C 459.22 842.55 482.72 842.48 506.23 842.49 C 506.38 796.59 506.31 750.69 506.23 704.79 C 482.74 704.74 459.25 704.69 435.76 704.80 M 513.60 704.76 C 513.41 750.63 513.60 796.51 513.42 842.38 C 521.60 842.38 529.78 842.41 537.97 842.34 C 538.67 826.90 538.35 811.42 539.38 796.00 C 539.40 773.33 539.35 750.66 539.17 728.00 C 538.67 720.28 538.67 712.56 538.73 704.83 C 530.35 704.69 521.97 704.77 513.60 704.76 M 546.19 704.83 C 545.99 750.65 547.07 796.48 545.42 842.29 C 547.89 842.29 550.37 842.26 552.85 842.27 C 553.96 796.44 553.46 750.60 553.18 704.77 C 550.84 704.78 548.51 704.80 546.19 704.83 M 560.62 704.80 C 560.43 750.63 561.36 796.48 559.86 842.28 C 568.27 842.39 576.69 842.64 585.10 842.41 C 586.71 822.65 586.82 802.81 587.25 783.00 C 587.21 756.90 587.43 730.81 587.25 704.72 C 578.37 704.81 569.49 704.73 560.62 704.80 M 594.61 704.77 C 594.17 750.59 595.64 796.48 592.43 842.22 C 597.23 842.25 602.04 842.28 606.85 842.38 C 606.33 838.86 605.12 834.68 607.69 831.66 C 610.83 827.50 617.94 827.86 620.63 832.34 C 622.91 835.28 621.61 839.13 621.10 842.44 C 629.79 842.40 638.47 842.62 647.16 842.43 C 650.29 809.05 649.69 775.48 649.82 742.00 C 650.03 729.58 649.42 717.19 649.11 704.79 C 630.95 704.84 612.78 704.71 594.61 704.77 M 656.67 704.66 C 656.96 730.10 657.58 755.55 656.84 781.00 C 657.06 801.49 656.25 821.99 654.62 842.42 C 664.28 842.48 673.95 842.62 683.61 842.33 C 683.62 832.22 683.74 822.10 684.24 812.00 C 684.47 776.27 684.31 740.54 684.17 704.81 C 675.00 704.71 665.83 704.91 656.67 704.66 M 691.71 704.68 C 691.67 750.59 691.73 796.50 691.19 842.40 C 703.98 842.10 717.46 844.15 729.58 839.01 C 729.59 794.97 729.42 750.93 729.73 706.90 C 717.43 702.97 704.37 705.29 691.71 704.68 M 736.86 709.53 C 736.62 715.29 736.28 721.10 736.85 726.85 C 738.21 728.64 740.27 729.69 742.15 730.86 C 747.28 733.86 752.11 737.38 757.44 740.06 C 755.67 727.42 747.65 716.15 736.86 709.53 M 338.77 731.28 C 343.58 736.77 349.02 741.66 353.91 747.08 C 378.63 773.72 403.21 800.49 428.50 826.59 C 428.85 813.05 428.28 799.51 428.52 785.97 C 428.37 783.04 429.23 779.50 426.63 777.39 C 413.73 764.61 401.93 750.77 389.04 737.97 C 381.72 730.57 374.76 722.79 366.94 715.91 C 357.54 721.02 348.05 725.96 338.77 731.28 M 302.97 752.87 C 304.80 755.08 306.67 757.28 308.63 759.38 C 332.72 784.29 356.42 809.57 380.39 834.59 C 383.62 837.56 385.66 843.39 390.93 842.51 C 403.70 842.27 416.47 842.80 429.23 842.28 C 428.76 840.09 428.94 837.49 427.07 835.92 C 420.01 828.98 413.55 821.46 406.67 814.34 C 381.59 788.10 357.25 761.15 331.86 735.22 C 322.32 741.24 312.54 746.88 302.97 752.87 M 736.82 736.60 C 736.63 741.46 736.69 746.33 736.64 751.21 C 743.52 755.68 750.36 760.26 757.56 764.21 C 757.78 759.34 757.73 754.46 757.67 749.60 C 750.54 745.55 744.21 740.20 736.82 736.60 M 270.04 775.21 C 273.13 779.33 276.70 783.04 280.18 786.83 C 297.71 805.25 315.16 823.80 332.60 842.27 C 334.35 842.64 336.15 842.55 337.93 842.59 C 351.02 842.45 364.11 842.55 377.20 842.45 C 363.85 826.34 348.29 812.24 334.27 796.72 C 321.66 783.47 309.42 769.86 296.21 757.20 C 287.49 763.21 278.72 769.15 270.04 775.21 M 736.69 760.03 C 736.39 766.05 736.52 772.08 736.58 778.10 C 743.70 782.54 750.43 787.59 757.75 791.71 C 757.93 785.60 757.78 779.49 757.78 773.39 C 750.75 768.94 743.99 764.04 736.69 760.03 M 248.31 795.33 C 247.54 796.43 246.33 797.48 246.40 798.95 C 246.65 811.92 251.79 824.89 261.07 834.05 C 268.95 823.52 277.26 813.32 285.42 803.01 C 278.43 795.39 271.36 787.83 264.08 780.48 C 258.66 785.24 253.02 789.83 248.31 795.33 M 736.59 786.76 C 736.47 792.13 736.58 797.51 736.74 802.89 C 742.88 806.56 749.00 810.27 755.03 814.12 C 756.21 809.82 757.08 805.44 757.52 801.01 C 750.66 796.09 743.74 791.25 736.59 786.76 M 290.59 808.99 C 283.17 818.69 275.05 827.85 267.81 837.69 C 278.06 842.74 289.69 842.88 300.87 842.57 C 303.73 838.00 307.31 833.96 310.70 829.79 C 303.99 822.86 297.51 815.71 290.59 808.99 M 736.60 811.54 C 736.50 819.67 736.40 827.80 736.67 835.93 C 743.21 832.79 747.88 827.08 751.58 821.01 C 746.57 817.87 741.67 814.58 736.60 811.54 M 311.02 842.62 C 314.98 842.63 318.94 842.65 322.90 842.69 C 320.57 840.21 318.28 837.70 315.90 835.28 C 314.23 837.69 312.63 840.16 311.02 842.62 Z" />
<path fill="#000000" stroke="#000000" stroke-width="0.09375" opacity="1.00" d=" M 255.53 396.34 C 258.97 393.89 264.32 397.88 263.17 401.89 C 262.63 405.68 257.11 407.22 254.54 404.46 C 252.11 402.21 252.91 398.09 255.53 396.34 Z" />
<path fill="#000000" stroke="#000000" stroke-width="0.09375" opacity="1.00" d=" M 315.35 396.17 C 319.14 394.36 323.75 398.53 322.47 402.49 C 321.55 406.44 316.06 407.40 313.43 404.55 C 310.67 402.12 312.02 397.32 315.35 396.17 Z" />
<path fill="#000000" stroke="#000000" stroke-width="0.09375" opacity="1.00" d=" M 378.47 396.33 C 382.61 393.76 387.74 398.27 386.51 402.67 C 385.65 406.30 380.56 407.87 377.92 405.16 C 375.07 403.08 375.20 397.89 378.47 396.33 Z" />
<path fill="#000000" stroke="#000000" stroke-width="0.09375" opacity="1.00" d=" M 360.58 415.60 C 363.51 414.59 366.83 416.41 367.75 419.33 C 368.55 423.14 363.91 426.99 360.41 424.88 C 356.87 423.20 356.49 416.85 360.58 415.60 Z" />
<path fill="#000000" stroke="#000000" stroke-width="0.09375" opacity="1.00" d=" M 300.42 416.18 C 303.78 414.11 308.90 415.99 309.58 420.04 C 309.47 423.39 306.55 426.56 303.03 425.85 C 298.48 425.69 296.31 418.49 300.42 416.18 Z" />
<path fill="#000000" stroke="#000000" stroke-width="0.09375" opacity="1.00" d=" M 414.54 422.55 C 417.65 421.50 421.54 424.52 420.98 427.86 C 420.70 431.46 415.66 433.62 412.99 431.03 C 410.00 428.82 410.80 423.44 414.54 422.55 Z" />
<path fill="#000000" stroke="#000000" stroke-width="0.09375" opacity="1.00" d=" M 283.53 436.54 C 286.79 435.56 291.20 438.15 290.37 441.90 C 290.14 445.57 285.48 447.81 282.49 445.70 C 279.01 443.70 279.74 437.78 283.53 436.54 Z" />
<path fill="#000000" stroke="#000000" stroke-width="0.09375" opacity="1.00" d=" M 339.51 437.42 C 343.11 435.79 347.78 438.76 346.92 442.89 C 347.04 447.24 340.83 448.84 338.23 445.70 C 335.40 443.59 336.08 438.46 339.51 437.42 Z" />
<path fill="#000000" stroke="#000000" stroke-width="0.09375" opacity="1.00" d=" M 395.41 438.36 C 399.12 437.30 403.31 440.93 402.11 444.78 C 401.21 448.58 395.65 450.06 393.33 446.70 C 390.68 444.17 391.74 439.22 395.41 438.36 Z" />
<path fill="#000000" stroke="#000000" stroke-width="0.09375" opacity="1.00" d=" M 262.47 478.37 C 266.86 476.10 272.62 481.08 270.85 485.73 C 269.48 489.96 263.06 491.30 260.42 487.52 C 257.85 484.69 259.07 479.90 262.47 478.37 Z" />
<path fill="#000000" stroke="#000000" stroke-width="0.09375" opacity="1.00" d=" M 292.38 478.20 C 296.82 476.30 302.40 481.68 300.10 486.12 C 298.23 490.38 291.35 490.74 289.20 486.55 C 287.24 483.54 289.14 479.30 292.38 478.20 Z" />
<path fill="#000000" stroke="#000000" stroke-width="0.09375" opacity="1.00" d=" M 318.48 478.43 C 322.61 476.16 328.21 480.28 327.13 484.90 C 326.35 489.30 320.14 491.18 317.07 487.90 C 314.00 485.35 314.73 479.92 318.48 478.43 Z" />
<path fill="#000000" stroke="#000000" stroke-width="0.09375" opacity="1.00" d=" M 348.38 478.19 C 352.79 475.87 359.15 480.94 357.07 485.74 C 355.66 489.30 350.85 490.67 347.77 488.37 C 343.84 486.33 344.45 479.89 348.38 478.19 Z" />
<path fill="#000000" stroke="#000000" stroke-width="0.09375" opacity="1.00" d=" M 376.33 478.11 C 380.60 475.98 386.61 480.05 385.50 484.92 C 384.67 490.14 376.67 491.44 373.94 487.06 C 371.61 484.16 372.96 479.50 376.33 478.11 Z" />
<path fill="#000000" stroke="#000000" stroke-width="0.09375" opacity="1.00" d=" M 405.53 478.50 C 409.42 476.26 414.88 479.51 414.81 484.00 C 415.05 489.09 408.00 492.09 404.38 488.61 C 400.94 486.07 401.74 480.27 405.53 478.50 Z" />
<path fill="#000000" stroke="#000000" stroke-width="0.09375" opacity="1.00" d=" M 290.50 683.39 C 292.94 682.63 296.06 683.71 296.67 686.42 C 297.99 690.01 293.68 693.72 290.31 691.92 C 286.45 690.81 286.94 684.50 290.50 683.39 Z" />
<path fill="#000000" stroke="#000000" stroke-width="0.09375" opacity="1.00" d=" M 360.40 686.36 C 363.60 685.63 367.30 687.43 368.57 690.50 C 370.11 695.14 365.05 700.81 360.24 699.02 C 357.59 697.76 355.29 695.06 355.35 692.01 C 355.59 689.30 357.87 687.09 360.40 686.36 Z" />
<path fill="#000000" stroke="#000000" stroke-width="0.09375" opacity="1.00" d=" M 261.35 690.23 C 265.79 688.35 271.30 693.16 270.07 697.83 C 269.29 702.10 263.53 704.85 259.96 702.06 C 255.58 699.39 256.48 691.83 261.35 690.23 Z" />
<path fill="#000000" stroke="#000000" stroke-width="0.09375" opacity="1.00" d=" M 328.31 704.00 C 332.05 701.99 337.50 705.54 336.30 709.89 C 335.60 714.03 330.01 716.20 327.02 713.00 C 324.04 710.57 324.91 705.57 328.31 704.00 Z" />
<path fill="#000000" stroke="#000000" stroke-width="0.09375" opacity="1.00" d=" M 477.52 711.30 C 480.47 709.07 486.01 711.07 485.91 715.09 C 486.71 719.51 480.67 722.44 477.45 719.60 C 474.74 717.65 474.70 713.17 477.52 711.30 Z" />
<path fill="#000000" stroke="#000000" stroke-width="0.09375" opacity="1.00" d=" M 409.46 712.45 C 413.86 711.34 417.92 716.26 416.51 720.40 C 415.29 724.12 409.80 726.29 406.92 723.11 C 403.29 720.13 404.40 713.00 409.46 712.45 Z" />
<path fill="#000000" stroke="#000000" stroke-width="0.09375" opacity="1.00" d=" M 619.40 718.38 C 624.60 716.44 631.03 720.40 631.44 725.98 C 631.94 731.06 627.04 735.61 622.09 735.32 C 618.30 734.60 614.50 731.91 613.76 727.93 C 612.96 723.91 615.61 719.72 619.40 718.38 Z" />
<path fill="#000000" stroke="#000000" stroke-width="0.09375" opacity="1.00" d=" M 706.39 719.18 C 710.26 717.08 714.99 720.77 714.49 724.99 C 714.55 729.19 709.04 731.69 705.78 729.20 C 702.14 726.98 702.71 721.00 706.39 719.18 Z" />
<path fill="#000000" stroke="#000000" stroke-width="0.09375" opacity="1.00" d=" M 454.41 727.43 C 460.23 725.21 466.62 730.94 465.45 736.93 C 464.70 742.82 456.51 746.31 452.24 741.73 C 447.48 737.96 448.47 729.39 454.41 727.43 Z" />
<path fill="#000000" stroke="#000000" stroke-width="0.09375" opacity="1.00" d=" M 269.41 743.24 C 272.37 741.83 276.25 743.54 277.48 746.51 C 278.48 749.49 276.28 752.56 273.65 753.80 C 269.65 754.93 265.31 750.50 266.50 746.51 C 266.94 745.06 268.04 743.86 269.41 743.24 Z" />
<path fill="#000000" stroke="#000000" stroke-width="0.09375" opacity="1.00" d=" M 488.46 744.45 C 492.22 743.24 496.09 747.14 495.10 750.91 C 494.55 755.12 488.44 756.14 485.93 753.08 C 483.33 750.44 484.82 745.24 488.46 744.45 Z" />
<path fill="#000000" stroke="#000000" stroke-width="0.09375" opacity="1.00" d=" M 708.52 750.54 C 712.24 749.39 716.49 752.93 715.87 756.84 C 715.53 761.25 709.01 763.47 706.34 759.71 C 703.34 757.00 704.76 751.69 708.52 750.54 Z" />
<path fill="#000000" stroke="#000000" stroke-width="0.09375" opacity="1.00" d=" M 616.45 756.39 C 620.47 754.56 626.10 755.65 627.95 760.04 C 631.67 766.54 623.31 775.44 616.69 771.33 C 610.48 768.80 610.61 759.22 616.45 756.39 Z" />
<path fill="#000000" stroke="#000000" stroke-width="0.09375" opacity="1.00" d=" M 465.33 767.19 C 470.27 765.12 476.04 768.99 476.65 774.14 C 477.59 780.08 470.07 785.47 464.86 782.16 C 458.59 779.59 459.00 769.43 465.33 767.19 Z" />
<path fill="#000000" stroke="#000000" stroke-width="0.09375" opacity="1.00" d=" M 706.39 789.19 C 709.76 787.63 714.22 791.23 713.31 794.92 C 712.62 798.03 708.54 800.50 705.77 798.30 C 701.93 796.56 702.33 790.40 706.39 789.19 Z" />
<path fill="#000000" stroke="#000000" stroke-width="0.09375" opacity="1.00" d=" M 617.33 792.22 C 623.19 789.82 629.98 795.70 628.89 801.80 C 628.09 807.30 621.16 811.20 616.37 807.70 C 610.38 804.47 610.75 794.52 617.33 792.22 Z" />
<path fill="#000000" stroke="#000000" stroke-width="0.09375" opacity="1.00" d=" M 451.48 796.35 C 454.82 795.07 458.99 798.18 458.19 801.77 C 457.47 804.68 454.03 806.52 451.27 805.14 C 447.66 803.73 447.71 797.44 451.48 796.35 Z" />
<path fill="#000000" stroke="#000000" stroke-width="0.09375" opacity="1.00" d=" M 488.34 807.07 C 492.01 805.25 496.44 809.03 495.44 812.94 C 495.10 816.55 490.45 819.19 487.55 816.51 C 484.10 814.33 484.33 808.46 488.34 807.07 Z" />
<path fill="#000000" stroke="#000000" stroke-width="0.09375" opacity="1.00" d=" M 460.38 820.27 C 464.04 819.15 468.72 821.90 468.41 826.00 C 468.23 830.72 461.51 833.43 458.34 829.63 C 454.86 827.08 456.45 821.38 460.38 820.27 Z" />
<path fill="#000000" stroke="#000000" stroke-width="0.09375" opacity="1.00" d=" M 704.46 821.29 C 708.77 818.58 714.81 823.84 712.69 828.45 C 711.52 831.96 706.93 833.34 704.04 831.00 C 700.56 828.75 700.92 823.29 704.46 821.29 Z" />
</g>
</svg>
