<?xml version="1.0" encoding="UTF-8" ?>
<!DOCTYPE svg PUBLIC "-//W3C//DTD SVG 1.1//EN" "http://www.w3.org/Graphics/SVG/1.1/DTD/svg11.dtd">
<svg width="1024pt" height="1024pt" viewBox="0 0 1024 1024" version="1.1" xmlns="http://www.w3.org/2000/svg">
<g id="#010000ff">
<path fill="#010000" stroke="#010000" stroke-width="0.09375" opacity="1.00" d=" M 0.00 0.00 L 1024.00 0.00 L 1024.00 1024.00 L 0.00 1024.00 L 0.00 0.00 M 26.38 24.51 C 15.98 26.85 9.92 37.80 10.18 47.93 C 10.26 358.95 10.21 669.97 10.20 980.99 C 9.76 991.68 16.89 1003.23 28.08 1004.65 C 35.01 1005.55 42.03 1005.15 49.00 1005.24 C 355.34 1005.22 661.67 1005.22 968.00 1005.23 C 975.41 1005.12 983.75 1005.82 989.96 1000.96 C 997.23 995.41 999.74 985.77 999.31 977.00 C 999.45 668.32 999.37 359.65 999.35 50.98 C 999.69 42.05 996.44 32.41 988.76 27.27 C 982.42 22.84 974.32 23.68 967.01 23.64 C 660.67 23.49 354.33 23.62 48.00 23.56 C 40.80 23.71 33.49 23.06 26.38 24.51 Z" />
<path fill="#010000" stroke="#010000" stroke-width="0.09375" opacity="1.00" d=" M 204.40 100.60 C 211.24 99.92 218.13 100.34 225.00 100.19 C 328.30 100.18 431.60 100.16 534.89 100.25 C 559.48 101.10 583.99 104.12 608.13 108.87 C 643.98 116.38 678.55 130.10 709.78 149.23 C 741.58 168.78 768.92 195.30 789.92 226.14 C 823.19 275.10 842.61 333.68 843.61 392.97 C 843.61 400.92 843.82 408.88 843.53 416.83 C 842.18 437.21 839.77 457.62 834.64 477.43 C 827.40 506.45 815.37 534.21 799.51 559.54 C 781.03 588.25 756.89 613.50 728.47 632.51 C 700.40 650.98 669.03 664.16 636.57 672.63 C 616.65 677.58 596.35 680.86 575.94 682.96 C 550.15 685.38 524.20 684.79 498.35 683.78 C 487.86 683.46 477.51 681.32 467.00 681.62 C 460.55 681.78 453.29 680.58 447.80 684.80 C 442.93 688.14 441.32 694.34 441.38 699.96 C 441.23 764.97 441.51 829.98 441.26 894.99 C 441.48 906.56 436.57 918.20 427.74 925.75 C 422.36 930.29 415.94 933.64 409.09 935.28 C 404.48 936.39 399.70 936.14 395.00 936.18 C 332.98 936.02 270.96 936.35 208.94 936.01 C 186.99 936.56 168.19 915.63 169.18 894.06 C 169.09 647.04 169.19 400.02 169.14 153.00 C 169.21 144.51 168.63 135.73 171.68 127.62 C 176.32 113.41 189.64 102.61 204.40 100.60 M 213.26 149.22 C 209.16 154.60 209.77 161.65 209.72 168.01 C 209.60 403.69 209.80 639.37 209.63 875.05 C 210.02 881.47 212.67 888.09 218.04 891.92 C 221.74 894.65 226.48 895.23 230.96 895.17 C 281.00 895.05 331.04 895.24 381.08 895.02 C 384.62 894.95 388.19 894.08 391.19 892.15 C 396.60 888.76 399.45 882.27 399.66 876.05 C 399.48 797.75 399.66 719.44 399.54 641.13 C 421.69 641.39 443.84 641.21 466.00 641.34 C 493.02 641.19 520.05 642.93 547.06 641.63 C 578.36 640.04 609.86 636.53 639.77 626.74 C 675.20 615.86 708.69 597.34 734.78 570.78 C 757.85 546.97 776.56 518.50 786.91 486.87 C 794.94 463.73 799.38 439.39 800.64 414.95 C 801.02 396.62 801.16 378.18 798.15 360.03 C 795.08 339.09 789.06 318.65 780.95 299.11 C 768.47 269.97 751.32 242.62 729.18 219.82 C 703.44 193.60 671.77 173.37 637.27 160.74 C 601.90 146.96 563.76 142.41 526.06 141.10 C 462.70 140.76 399.35 141.06 336.00 140.91 C 300.65 140.78 265.29 141.11 229.93 140.91 C 223.49 140.91 216.95 143.82 213.26 149.22 Z" />
<path fill="#010000" stroke="#010000" stroke-width="0.09375" opacity="1.00" d=" M 224.03 156.98 C 226.88 153.47 231.71 152.88 235.94 152.88 C 331.63 152.75 427.31 152.95 523.00 152.82 C 549.74 153.63 576.56 156.02 602.63 162.30 C 636.05 170.79 668.39 184.98 695.59 206.40 C 736.22 237.15 764.53 282.26 779.30 330.67 C 786.29 353.05 788.70 376.63 788.69 400.00 C 789.38 442.05 779.28 484.56 757.99 520.96 C 750.80 533.09 741.85 544.04 732.78 554.78 C 709.00 581.26 678.07 601.01 644.46 612.51 C 620.78 620.83 595.95 625.50 571.02 627.99 C 553.08 629.84 535.01 629.38 517.00 629.45 C 493.33 629.53 469.66 629.01 446.00 628.92 C 435.00 629.40 424.00 628.59 413.01 629.05 C 409.55 629.03 405.98 629.35 402.63 628.34 C 399.50 626.89 399.50 622.98 399.46 620.04 C 399.55 594.03 399.67 568.01 399.48 541.99 C 399.48 538.86 399.59 535.74 399.87 532.62 C 418.57 532.25 437.29 532.74 456.00 532.49 C 475.59 532.29 495.21 532.91 514.77 531.67 C 535.54 529.97 556.40 525.61 575.11 516.16 C 589.63 508.89 602.49 498.24 612.22 485.23 C 624.45 469.47 632.75 450.87 637.49 431.54 C 645.10 395.94 639.52 357.08 619.91 326.14 C 600.96 296.40 568.89 276.01 534.44 269.41 C 513.28 264.84 491.51 265.43 470.00 265.59 C 455.67 265.58 441.33 265.44 427.00 265.55 C 413.94 265.62 400.86 265.11 387.81 265.87 C 387.03 279.23 387.44 292.62 387.40 306.00 C 387.24 457.67 387.58 609.33 387.39 761.00 C 387.40 798.02 387.30 835.04 387.46 872.05 C 387.55 878.10 382.08 883.34 376.07 883.18 C 328.02 883.24 279.96 883.22 231.92 883.10 C 226.14 883.25 221.40 877.73 221.79 872.09 C 222.06 764.73 221.74 657.36 221.89 550.00 C 221.86 421.64 221.90 293.28 221.87 164.92 C 221.90 162.16 222.06 159.12 224.03 156.98 M 247.10 161.49 C 248.12 167.14 249.16 173.24 246.69 178.68 C 243.87 185.15 237.25 188.79 231.00 191.30 C 230.74 198.02 230.66 204.74 230.84 211.47 C 240.26 203.30 249.98 195.51 259.67 187.67 C 261.89 185.64 264.94 183.71 265.17 180.41 C 265.82 174.12 265.46 167.78 265.57 161.46 C 259.41 161.37 253.25 161.40 247.10 161.49 M 274.15 161.56 C 274.07 166.25 274.03 170.94 274.29 175.63 C 280.48 171.52 286.22 166.73 291.30 161.30 C 285.58 161.35 279.86 161.29 274.15 161.56 M 370.85 161.68 C 373.49 164.05 376.05 166.50 378.56 169.01 C 378.57 166.47 378.54 163.93 378.49 161.39 C 375.93 161.43 373.39 161.53 370.85 161.68 M 387.64 161.49 C 387.64 165.85 386.66 170.27 387.42 174.60 C 389.11 178.54 391.95 181.83 394.11 185.50 C 398.91 182.05 403.67 178.53 408.08 174.57 C 407.48 170.11 406.69 165.69 406.08 161.24 C 399.93 161.42 393.79 161.48 387.64 161.49 M 470.52 161.83 C 479.40 192.78 477.87 226.43 467.04 256.68 C 473.22 256.63 479.40 256.80 485.58 256.70 C 489.66 246.84 494.40 237.16 496.72 226.68 C 501.78 205.32 501.76 182.56 495.59 161.42 C 487.23 161.39 478.87 161.43 470.52 161.83 M 504.23 161.62 C 509.87 184.40 509.87 208.54 504.30 231.34 C 502.18 240.12 498.60 248.43 494.86 256.61 C 500.25 256.60 505.62 257.27 511.01 257.35 C 512.66 257.41 513.69 255.77 514.82 254.79 C 525.11 242.52 532.75 228.19 538.22 213.18 C 544.29 196.90 544.72 178.95 541.09 162.06 C 528.82 161.45 516.52 161.02 504.23 161.62 M 306.03 161.87 C 306.75 167.31 307.87 172.70 309.84 177.83 C 315.15 172.95 320.20 167.71 324.20 161.69 C 318.15 161.40 312.08 161.49 306.03 161.87 M 340.43 162.38 C 332.79 166.47 326.59 172.79 321.18 179.47 C 332.63 180.45 344.66 182.00 354.38 188.64 C 361.29 193.17 366.34 200.02 369.63 207.52 C 373.00 204.10 377.55 201.47 379.57 196.97 C 379.13 181.55 368.05 167.50 353.74 162.27 C 349.41 161.37 344.69 161.01 340.43 162.38 M 414.90 161.90 C 415.24 164.68 415.62 167.45 416.01 170.22 C 420.65 167.38 425.43 164.74 429.86 161.56 C 424.87 161.37 419.88 161.59 414.90 161.90 M 441.44 166.55 C 440.74 169.67 441.28 172.90 441.40 176.07 C 442.40 192.21 440.21 208.45 435.86 223.99 C 432.88 234.88 429.97 245.79 426.82 256.62 C 437.22 256.71 447.63 256.70 458.03 256.74 C 460.33 250.88 462.37 244.91 463.79 238.78 C 469.84 213.38 469.95 186.17 461.43 161.31 C 454.61 161.74 446.81 161.64 441.44 166.55 M 550.03 162.19 C 550.10 169.63 551.34 176.99 551.34 184.43 C 554.03 177.56 555.83 170.39 557.05 163.12 C 554.71 162.80 552.37 162.49 550.03 162.19 M 233.59 163.26 C 228.12 167.00 230.65 174.53 232.01 179.77 C 234.67 178.76 237.70 177.57 238.63 174.58 C 240.63 170.07 237.92 165.42 235.16 161.94 C 234.77 162.27 233.98 162.93 233.59 163.26 M 565.08 164.38 C 562.77 173.39 560.54 182.46 557.08 191.12 C 553.14 201.00 548.52 210.59 544.63 220.49 C 539.23 234.15 532.01 247.07 522.95 258.64 C 532.30 260.23 541.63 261.96 550.84 264.29 C 560.67 254.38 569.25 243.21 575.88 230.91 C 586.13 211.89 594.05 191.46 598.13 170.20 C 587.25 167.55 576.17 165.80 565.08 164.38 M 280.25 182.19 C 282.03 187.78 284.04 193.30 286.17 198.77 C 291.51 193.85 297.99 189.88 302.17 183.89 C 301.52 178.35 299.49 173.08 298.35 167.63 C 292.11 172.23 286.21 177.25 280.25 182.19 M 422.69 176.86 C 426.78 188.28 429.55 200.19 430.70 212.27 C 432.97 198.72 434.71 184.83 432.51 171.14 C 429.25 173.07 425.97 174.97 422.69 176.86 M 606.34 173.08 C 605.59 175.25 605.15 177.50 604.64 179.74 C 601.40 194.31 596.12 208.34 590.02 221.94 C 582.32 238.49 572.60 254.26 559.82 267.40 C 566.22 270.68 573.10 272.96 579.28 276.69 C 585.72 271.72 591.59 266.07 596.88 259.90 C 606.95 248.01 616.75 235.64 623.54 221.51 C 629.56 209.14 635.07 196.42 638.79 183.15 C 629.59 179.21 620.15 175.82 610.43 173.43 C 609.08 173.23 607.67 172.55 606.34 173.08 M 388.76 202.04 C 390.77 206.46 392.90 210.84 394.57 215.41 C 399.54 228.50 400.91 243.20 397.02 256.75 C 404.13 256.69 411.25 256.89 418.36 256.64 C 419.92 250.85 421.50 245.02 421.96 239.02 C 423.36 219.50 422.91 199.20 415.13 180.92 C 406.01 187.55 397.23 194.60 388.76 202.04 M 629.95 227.15 C 643.07 219.03 653.40 206.97 660.50 193.36 C 655.90 191.14 651.39 188.75 646.92 186.29 C 642.17 200.27 636.95 214.12 629.95 227.15 M 255.12 203.01 C 256.98 208.32 259.05 213.57 261.54 218.62 C 267.66 214.24 273.00 208.91 278.61 203.92 C 276.95 198.57 274.92 193.36 273.17 188.05 C 266.92 192.76 260.99 197.85 255.12 203.01 M 304.36 195.66 C 314.15 196.65 324.43 198.39 332.41 204.59 C 339.97 209.89 344.50 218.15 348.65 226.15 C 353.55 221.93 358.34 217.59 362.86 212.96 C 360.31 207.30 357.33 201.56 352.31 197.68 C 342.28 189.30 328.50 187.81 315.90 187.99 C 310.74 187.76 307.91 192.78 304.36 195.66 M 642.87 233.84 C 634.74 246.36 624.55 257.59 612.67 266.66 C 604.90 272.67 595.75 276.43 587.37 281.46 C 595.53 287.66 604.00 293.57 610.95 301.18 C 634.76 283.73 654.04 260.91 670.85 236.83 C 676.61 228.13 682.70 219.62 687.32 210.24 C 680.90 206.04 674.52 201.78 667.93 197.87 C 660.33 210.37 650.81 221.56 642.87 233.84 M 290.50 206.42 C 298.05 211.05 305.56 215.88 311.94 222.08 C 318.70 228.13 323.90 235.62 328.68 243.26 C 333.34 239.43 337.74 235.30 342.11 231.14 C 338.05 224.35 334.45 216.94 327.97 212.06 C 319.94 205.28 309.03 203.85 298.90 203.46 C 295.76 203.09 293.09 204.96 290.50 206.42 M 233.61 220.62 C 232.59 221.82 230.85 223.13 231.57 224.93 C 233.08 230.05 235.87 234.65 238.02 239.50 C 243.89 235.00 249.36 230.02 254.62 224.82 C 252.40 219.39 249.95 214.06 247.96 208.54 C 243.04 212.41 238.05 216.20 233.61 220.62 M 361.51 227.26 C 367.67 230.17 373.77 233.35 378.89 237.90 C 379.30 229.18 378.90 220.46 378.64 211.74 C 373.04 217.03 366.98 221.82 361.51 227.26 M 270.92 222.56 C 274.83 224.39 278.80 226.17 282.40 228.61 C 294.54 236.41 302.31 249.53 305.96 263.26 C 311.55 258.88 316.87 254.14 321.66 248.89 C 317.07 238.96 309.47 230.80 301.26 223.73 C 295.63 218.91 289.08 215.31 282.19 212.61 C 278.44 215.93 274.60 219.16 270.92 222.56 M 694.13 215.79 C 690.68 222.57 686.29 228.80 682.22 235.21 C 673.40 249.38 662.90 262.40 651.94 274.95 C 641.51 286.97 629.77 297.90 616.75 307.06 C 618.62 309.35 620.47 311.67 622.28 314.02 C 630.67 308.32 637.93 301.20 645.41 294.40 C 667.36 273.17 686.79 249.20 702.16 222.79 C 699.41 220.55 696.73 218.21 694.13 215.79 M 388.46 221.59 C 388.08 232.67 387.65 243.82 388.35 254.89 C 389.79 251.43 390.83 247.76 390.92 243.99 C 391.08 236.47 390.54 228.85 388.46 221.59 M 708.66 228.67 C 687.43 264.13 660.19 296.31 627.22 321.39 C 629.99 325.87 632.65 330.43 634.87 335.22 C 646.79 326.54 657.86 316.70 667.86 305.87 C 679.66 293.24 691.01 280.18 701.23 266.23 C 707.44 257.60 714.03 249.21 719.33 239.96 C 715.73 236.23 712.22 232.43 708.66 228.67 M 241.73 248.76 C 251.88 251.54 262.61 253.43 271.46 259.50 C 278.81 264.23 284.23 271.42 287.82 279.31 C 291.48 275.96 295.59 273.00 298.59 269.02 C 297.57 263.43 295.52 258.05 293.08 252.94 C 287.35 241.32 276.42 232.64 263.98 229.20 C 256.42 235.56 248.42 241.46 241.73 248.76 M 625.13 239.26 C 622.31 241.02 620.47 243.87 618.49 246.46 C 614.95 251.29 610.85 255.68 607.14 260.38 C 617.53 253.16 625.99 243.60 634.06 233.96 C 631.12 235.78 628.07 237.43 625.13 239.26 M 350.79 236.79 C 345.71 240.63 341.06 245.01 336.25 249.19 C 344.71 253.32 353.00 258.68 358.11 266.81 C 359.88 269.30 361.10 272.78 364.40 273.56 C 369.08 275.00 373.93 275.79 378.77 276.47 C 378.81 268.97 379.55 261.45 378.89 253.97 C 378.76 250.89 376.76 248.40 374.82 246.21 C 370.23 241.11 364.36 236.85 357.54 235.44 C 355.20 234.80 352.68 235.25 350.79 236.79 M 725.46 246.67 C 711.57 267.94 696.27 288.33 678.95 306.96 C 666.80 320.33 653.50 332.73 638.60 343.00 C 640.72 349.66 642.77 356.35 644.58 363.11 C 653.70 357.28 661.60 349.83 669.47 342.44 C 682.16 330.07 693.86 316.69 704.63 302.61 C 715.36 288.52 726.29 274.45 735.00 258.98 C 731.64 255.02 728.54 250.85 725.46 246.67 M 231.09 256.02 C 231.11 258.90 231.12 261.78 231.13 264.66 C 236.60 266.62 241.99 268.92 246.81 272.21 C 255.82 278.30 262.34 287.35 266.63 297.25 C 271.52 293.70 276.99 290.16 280.02 284.83 C 279.01 278.77 274.98 273.54 270.48 269.54 C 259.58 260.34 244.91 257.39 231.09 256.02 M 310.07 272.83 C 317.59 276.18 325.42 279.72 330.77 286.24 C 333.41 288.99 334.88 292.80 338.00 295.07 C 342.49 296.95 347.25 298.26 352.03 299.17 C 355.21 300.00 357.08 296.32 357.89 293.82 C 359.37 285.38 355.97 276.82 350.66 270.34 C 345.28 263.26 337.36 258.64 328.90 256.24 C 322.25 261.32 315.96 266.87 310.07 272.83 M 722.16 294.15 C 703.68 319.25 683.47 343.46 659.10 363.09 C 655.34 366.13 651.06 368.47 647.41 371.66 C 646.92 374.13 647.70 376.63 647.93 379.10 C 648.90 385.05 648.84 391.09 649.06 397.10 C 662.48 389.73 673.21 378.58 683.14 367.13 C 694.47 353.77 705.58 340.22 716.48 326.51 C 727.76 311.59 739.10 296.59 748.09 280.14 C 745.66 276.01 743.33 271.82 740.70 267.80 C 734.13 276.31 728.54 285.51 722.16 294.15 M 230.89 273.38 C 230.55 283.81 230.48 294.26 230.99 304.68 C 237.33 306.94 243.41 309.86 249.16 313.35 C 252.83 310.37 256.34 307.20 259.67 303.83 C 257.84 298.29 255.45 292.83 251.74 288.27 C 246.36 281.42 238.82 276.75 230.89 273.38 M 285.77 294.05 C 293.72 297.53 301.26 302.43 306.49 309.48 C 309.01 312.59 311.00 316.62 315.05 317.98 C 319.24 319.51 323.47 321.31 327.97 321.61 C 332.34 320.06 333.01 315.00 332.71 311.00 C 333.06 303.41 329.03 296.40 323.80 291.20 C 318.11 285.31 310.22 281.59 302.13 280.64 C 295.99 284.17 291.09 289.44 285.77 294.05 M 752.77 288.85 C 751.30 291.54 749.78 294.21 748.40 296.95 C 752.54 301.73 757.22 306.07 762.58 309.47 C 760.18 302.21 756.80 295.33 752.77 288.85 M 270.34 386.34 C 259.51 395.84 249.06 405.77 238.05 415.07 C 235.64 417.35 232.80 419.35 231.10 422.25 C 230.22 427.50 230.93 432.87 230.86 438.17 C 245.11 426.02 259.09 413.56 273.12 401.15 C 287.69 388.37 302.40 375.76 316.83 362.82 C 336.33 345.96 355.35 328.55 375.38 312.32 C 376.69 311.08 378.56 309.91 378.59 307.89 C 378.97 302.68 378.59 297.44 378.42 292.23 C 342.00 323.13 306.32 354.92 270.34 386.34 M 275.98 302.92 C 270.68 306.92 265.83 311.48 261.03 316.06 C 268.85 320.06 276.86 324.74 281.67 332.35 C 283.58 335.36 285.73 338.56 289.31 339.71 C 293.93 341.27 298.55 343.51 303.49 343.61 C 307.41 340.65 306.73 335.29 306.81 330.97 C 306.19 319.33 297.28 309.93 287.67 304.33 C 284.16 302.80 279.47 300.07 275.98 302.92 M 744.10 304.93 C 742.94 308.21 740.54 311.62 741.77 315.23 C 746.61 331.41 759.92 344.35 775.59 350.18 C 774.00 341.19 770.97 332.55 768.04 323.94 C 767.45 321.68 765.52 320.32 763.48 319.46 C 756.01 316.12 750.27 310.12 744.10 304.93 M 230.85 313.80 C 230.63 319.32 230.61 324.86 230.86 330.38 C 235.07 327.21 238.91 323.56 242.21 319.45 C 238.72 317.02 234.89 315.14 230.85 313.80 M 711.27 347.27 C 709.94 349.18 707.84 351.15 708.44 353.72 C 708.93 357.55 709.99 361.29 710.72 365.08 C 719.85 356.56 727.38 346.52 733.99 335.97 C 737.59 331.07 733.81 324.99 732.90 319.78 C 725.65 328.91 718.68 338.26 711.27 347.27 M 249.40 326.34 C 244.33 330.84 238.93 334.97 234.12 339.75 C 241.93 344.29 249.79 349.39 255.08 356.88 C 256.96 359.27 258.40 362.46 261.55 363.39 C 266.95 365.24 272.52 366.61 278.11 367.78 C 279.87 364.79 281.52 361.60 281.45 358.04 C 282.60 342.23 270.13 327.84 255.35 323.77 C 253.00 322.92 251.12 325.11 249.40 326.34 M 289.95 398.93 C 273.47 412.76 257.75 427.46 241.23 441.24 C 237.83 444.21 234.06 446.86 231.23 450.42 C 230.52 452.87 230.78 455.46 230.75 457.98 C 230.96 466.03 230.84 474.09 230.97 482.15 C 237.43 476.93 243.38 471.13 249.58 465.61 C 262.20 454.56 274.98 443.68 287.49 432.49 C 316.40 407.08 345.50 381.87 374.11 356.11 C 376.05 354.10 378.86 352.17 378.58 349.02 C 378.77 340.07 378.62 331.10 378.44 322.14 C 347.95 346.57 319.79 373.74 289.95 398.93 M 745.76 339.57 C 747.45 350.26 753.48 359.60 760.06 367.95 C 765.57 374.93 772.18 381.15 780.09 385.35 C 780.25 376.89 778.55 368.60 777.69 360.23 C 771.67 357.89 765.73 355.27 760.36 351.64 C 754.94 348.32 750.57 343.66 745.76 339.57 M 719.18 368.17 C 716.99 370.31 714.47 372.16 712.68 374.66 C 712.23 376.16 712.57 377.75 712.66 379.29 C 713.60 387.86 713.69 396.50 713.38 405.11 C 722.17 399.68 728.46 391.19 733.22 382.18 C 738.95 371.31 740.50 358.42 737.74 346.47 C 731.84 353.94 726.22 361.71 719.18 368.17 M 230.83 348.14 C 230.45 358.75 230.68 369.38 230.92 379.99 C 237.37 383.91 243.66 388.31 250.95 390.57 C 252.51 388.13 254.58 385.85 255.24 382.96 C 255.89 376.53 254.38 369.78 250.44 364.58 C 245.62 357.37 238.81 351.58 230.83 348.14 M 676.73 388.34 C 680.03 389.36 683.46 390.54 686.97 390.00 C 693.43 389.11 698.70 384.94 703.82 381.23 C 703.29 374.24 702.36 367.29 701.04 360.40 C 692.67 369.48 684.68 378.89 676.73 388.34 M 748.95 367.52 C 752.50 378.86 752.85 391.74 760.74 401.27 C 765.32 407.61 772.71 411.18 780.29 412.45 C 780.65 406.63 780.51 400.80 780.53 394.98 C 772.00 391.31 764.47 385.55 758.32 378.64 C 755.10 375.01 752.38 370.96 748.95 367.52 M 370.66 384.66 C 355.72 398.42 340.21 411.55 324.96 424.96 C 311.06 437.43 296.60 449.25 282.64 461.66 C 268.42 473.74 254.66 486.36 240.52 498.53 C 237.32 501.36 233.79 503.94 231.26 507.42 C 230.53 509.86 230.78 512.46 230.73 514.98 C 230.90 523.01 230.79 531.04 230.96 539.07 C 264.59 508.28 299.11 478.48 333.21 448.22 C 346.76 436.78 359.69 424.62 373.47 413.45 C 375.64 411.38 378.96 409.49 378.63 406.03 C 378.81 396.82 378.59 387.59 378.53 378.38 C 375.78 380.31 373.15 382.41 370.66 384.66 M 720.13 411.40 C 720.89 415.74 721.37 420.11 722.02 424.47 C 726.66 422.62 731.47 420.68 735.04 417.06 C 741.33 411.03 745.00 402.56 745.67 393.93 C 745.84 389.50 744.57 385.20 743.76 380.89 C 738.23 392.65 730.55 403.49 720.13 411.40 M 230.89 389.95 C 230.70 396.45 230.69 402.96 230.96 409.46 C 235.85 405.98 240.14 401.77 244.41 397.57 C 240.04 394.78 235.60 392.12 230.89 389.95 M 691.22 397.28 C 686.50 398.52 681.58 398.24 676.76 398.13 C 675.50 407.67 675.57 417.42 677.55 426.86 C 687.12 426.99 695.14 421.05 701.85 414.86 C 702.69 413.99 703.78 413.14 703.88 411.84 C 705.01 404.94 704.91 397.92 705.20 390.96 C 700.72 393.43 696.24 396.08 691.22 397.28 M 649.24 406.11 C 648.63 416.80 647.13 427.41 644.96 437.89 C 653.72 436.14 661.69 431.85 668.55 426.21 C 666.95 415.68 667.76 405.05 668.56 394.49 C 662.42 398.85 656.05 402.88 649.24 406.11 M 752.52 404.95 C 747.64 418.54 736.22 429.63 722.14 433.24 C 722.01 436.85 721.72 440.46 721.38 444.06 C 728.45 447.40 736.11 449.88 744.01 449.68 C 755.94 449.67 767.35 443.97 775.72 435.68 C 779.56 432.10 778.93 426.35 779.76 421.61 C 774.05 419.84 768.25 418.05 763.21 414.76 C 759.06 412.19 755.72 408.58 752.52 404.95 M 360.01 436.37 C 361.34 437.96 362.65 439.56 363.94 441.18 C 368.26 437.41 372.77 433.84 376.89 429.86 C 379.51 427.59 378.52 423.77 378.86 420.74 C 372.30 425.61 366.30 431.17 360.01 436.37 M 699.76 456.73 C 693.41 468.47 688.97 481.25 681.26 492.24 C 676.12 499.38 671.02 506.57 665.15 513.13 C 656.18 523.68 644.95 531.96 633.34 539.36 C 625.40 544.23 616.72 547.73 608.05 551.05 C 607.56 555.32 606.89 559.74 604.39 563.35 C 601.46 568.34 596.57 571.58 592.42 575.43 C 582.63 586.62 580.06 603.84 587.26 617.06 C 597.64 615.96 607.85 613.72 617.93 611.08 C 615.03 607.14 611.98 603.16 610.54 598.42 C 608.12 590.53 609.44 581.70 613.58 574.61 C 617.89 567.16 624.69 561.49 631.85 556.90 C 648.15 547.06 664.61 536.69 677.10 522.08 C 688.12 510.03 696.08 495.55 702.67 480.71 C 709.73 462.63 715.36 442.96 712.01 423.42 C 708.67 434.77 705.33 446.23 699.76 456.73 M 679.22 435.56 C 681.33 442.94 684.82 449.92 690.08 455.58 C 695.85 446.40 699.78 436.15 702.48 425.69 C 695.62 430.75 687.74 434.46 679.22 435.56 M 642.57 446.68 C 640.53 451.31 638.72 456.03 636.81 460.71 C 641.83 465.32 647.99 468.94 654.97 469.20 C 665.08 470.84 674.48 465.59 682.22 459.67 C 676.93 452.13 672.35 443.97 670.32 434.91 C 662.25 441.13 652.69 445.31 642.57 446.68 M 349.93 465.92 C 335.12 479.09 320.82 492.83 305.96 505.95 C 297.93 513.61 290.00 521.37 281.55 528.58 C 267.94 541.63 254.27 554.62 240.51 567.51 C 237.37 570.73 233.84 573.66 231.27 577.39 C 230.20 582.90 230.99 588.59 230.96 594.18 C 250.34 575.49 269.34 556.39 289.18 538.19 C 315.84 513.16 342.99 488.66 370.10 464.12 C 373.06 461.45 376.46 459.06 378.49 455.56 C 379.34 450.56 378.59 445.46 378.46 440.43 C 368.55 448.47 359.47 457.45 349.93 465.92 M 328.51 464.05 C 330.06 465.81 331.60 467.59 333.09 469.40 C 340.35 462.41 348.16 456.01 355.38 448.97 C 353.84 447.66 352.33 446.32 350.84 444.96 C 343.41 451.34 335.74 457.44 328.51 464.05 M 747.07 457.98 C 737.72 458.67 728.62 455.87 719.83 453.03 C 718.98 457.66 718.00 462.28 716.76 466.83 C 722.32 471.25 728.74 474.72 735.79 476.03 C 744.02 477.85 752.54 475.57 759.94 471.89 C 764.16 469.74 768.75 467.48 771.43 463.40 C 773.55 458.84 773.95 453.73 774.80 448.83 C 766.30 453.69 756.91 457.38 747.07 457.98 M 361.58 484.25 C 367.23 485.49 372.94 486.41 378.70 486.90 C 378.82 480.91 378.57 474.93 378.43 468.94 C 372.57 473.77 366.89 478.81 361.58 484.25 M 633.09 468.94 C 630.68 473.34 628.13 477.66 625.56 481.97 C 629.48 486.87 633.96 491.63 639.82 494.19 C 644.09 496.23 648.86 496.62 653.52 496.86 C 652.16 484.77 642.92 475.24 633.09 468.94 M 654.23 477.26 C 657.66 482.84 660.50 488.80 662.32 495.11 C 666.54 493.41 670.83 491.38 673.72 487.72 C 678.32 482.10 681.41 475.42 684.52 468.90 C 675.51 474.54 665.02 478.51 654.23 477.26 M 296.93 491.81 C 298.59 493.72 300.21 495.66 301.81 497.63 C 309.28 491.48 316.49 485.01 323.31 478.14 C 322.19 476.07 321.08 474.00 319.96 471.94 C 312.26 478.54 304.29 484.82 296.93 491.81 M 713.92 475.94 C 710.82 484.01 707.29 491.92 703.01 499.44 C 713.39 508.86 728.92 511.84 742.11 507.17 C 749.38 504.65 757.01 501.01 761.16 494.21 C 764.42 488.94 766.18 482.95 768.13 477.12 C 761.83 480.53 755.14 483.43 747.97 484.33 C 736.04 486.18 724.03 482.10 713.92 475.94 M 620.37 489.63 C 614.04 497.46 606.88 504.57 599.52 511.41 C 605.85 520.00 616.71 524.01 627.06 524.65 C 632.15 524.83 637.75 525.10 642.19 522.17 C 649.34 517.57 655.28 511.34 660.55 504.72 C 653.91 505.73 647.04 505.49 640.62 503.41 C 632.61 501.02 626.19 495.39 620.37 489.63 M 348.07 496.07 C 340.96 502.63 333.70 509.05 326.79 515.83 C 337.43 519.90 348.84 520.93 359.98 522.91 C 365.19 517.14 371.10 512.07 376.64 506.63 C 379.68 504.01 378.39 499.62 378.71 496.12 C 371.12 494.79 363.62 492.88 355.95 492.13 C 352.65 491.43 350.31 494.14 348.07 496.07 M 269.84 515.77 C 272.01 517.72 273.96 519.89 275.76 522.20 C 281.65 516.85 287.65 511.59 293.18 505.86 C 291.55 503.90 289.92 501.93 288.28 499.97 C 282.03 505.12 275.76 510.24 269.84 515.77 M 699.15 507.99 C 695.10 513.53 691.10 519.11 686.92 524.55 C 688.97 526.67 690.98 528.86 693.28 530.73 C 700.64 536.95 710.58 539.03 720.00 538.94 C 726.80 538.53 734.28 537.37 739.29 532.30 C 745.03 526.43 749.26 519.27 752.95 511.98 C 747.72 514.10 742.38 516.09 736.77 516.90 C 723.64 519.11 710.10 515.32 699.15 507.99 M 571.71 527.53 C 572.95 535.49 576.76 542.71 581.42 549.17 C 586.71 548.24 591.84 546.58 596.80 544.53 C 594.64 535.46 594.22 526.10 592.06 517.03 C 585.16 520.31 578.71 524.46 571.71 527.53 M 359.21 536.21 C 347.18 548.52 334.08 559.73 321.91 571.90 C 309.93 583.25 298.07 594.72 286.34 606.34 C 272.82 618.81 259.98 631.97 246.63 644.63 C 241.91 649.56 236.53 653.84 232.08 659.04 C 230.38 660.90 231.00 663.64 230.80 665.95 C 230.99 674.19 230.72 682.43 230.98 690.68 C 237.81 684.62 243.98 677.88 250.66 671.67 C 279.02 644.68 307.29 617.61 335.87 590.85 C 348.83 579.16 361.23 566.86 374.33 555.32 C 376.08 553.50 378.74 551.84 378.57 548.98 C 378.67 538.81 378.67 528.62 378.29 518.45 C 371.48 523.86 365.39 530.10 359.21 536.21 M 319.17 523.00 C 312.07 529.21 305.11 535.57 298.17 541.97 C 308.22 546.38 319.05 548.91 329.95 549.93 C 332.22 550.43 333.83 548.69 335.28 547.25 C 340.72 541.66 346.71 536.62 351.70 530.60 C 340.75 528.54 329.78 526.49 319.17 523.00 M 240.06 542.06 C 242.23 544.56 244.25 547.18 246.18 549.88 C 253.04 543.72 259.83 537.46 266.22 530.80 C 264.47 528.54 262.71 526.30 261.02 524.00 C 254.12 530.13 246.97 535.96 240.06 542.06 M 601.88 525.37 C 602.62 531.22 603.77 537.02 605.01 542.79 C 613.03 540.11 620.66 536.48 628.03 532.35 C 618.82 532.58 609.88 529.77 601.88 525.37 M 548.45 535.55 C 548.58 542.99 550.06 550.57 554.66 556.62 C 560.88 555.01 567.15 553.54 573.28 551.58 C 568.74 545.32 565.44 538.27 563.50 530.78 C 558.43 532.18 553.39 533.73 548.45 535.55 M 675.15 542.09 C 673.67 552.21 680.09 562.91 689.86 566.10 C 695.81 567.97 703.11 569.62 708.53 565.52 C 715.63 560.13 722.12 553.83 727.38 546.62 C 718.17 547.65 708.65 547.30 699.89 544.02 C 692.57 541.64 686.87 536.28 681.08 531.46 C 678.73 534.75 675.81 537.96 675.15 542.09 M 516.52 540.35 C 517.73 548.08 520.83 555.35 525.01 561.94 C 531.84 561.18 538.58 559.85 545.22 558.08 C 542.39 551.38 540.59 544.25 540.50 536.95 C 532.51 538.15 524.49 539.07 516.52 540.35 M 408.58 541.27 C 408.40 545.60 408.20 549.94 408.21 554.28 C 411.70 550.08 414.87 545.62 418.15 541.25 C 414.96 541.26 411.77 541.26 408.58 541.27 M 431.59 541.75 C 429.37 543.42 427.20 545.56 426.22 548.20 C 426.48 552.63 428.26 556.82 430.22 560.75 C 431.21 562.38 432.15 564.49 434.18 565.02 C 439.63 566.36 445.31 565.96 450.85 566.70 C 446.30 558.94 444.92 549.90 444.89 541.03 C 440.47 541.25 435.94 540.78 431.59 541.75 M 453.46 541.46 C 453.25 550.32 455.05 559.98 461.48 566.51 C 468.40 567.68 475.54 567.25 482.54 567.04 C 479.03 558.88 477.58 550.02 477.53 541.17 C 469.50 541.28 461.48 541.04 453.46 541.46 M 486.14 541.42 C 485.57 550.46 487.61 559.70 492.97 567.13 C 500.68 565.99 508.49 565.50 516.10 563.71 C 512.42 556.63 509.15 549.16 508.36 541.14 C 500.95 541.19 493.54 541.09 486.14 541.42 M 649.23 563.35 C 645.74 576.00 655.07 589.99 667.91 592.14 C 678.01 588.81 686.87 582.51 695.34 576.20 C 688.72 574.87 682.11 572.54 676.97 568.02 C 670.09 562.42 666.77 553.53 666.20 544.87 C 659.51 549.84 651.78 554.94 649.23 563.35 M 271.46 567.52 C 281.55 572.74 292.75 575.30 303.88 577.18 C 310.13 570.90 316.79 565.02 322.74 558.45 C 312.13 555.54 301.44 552.91 291.14 548.99 C 284.51 555.09 277.57 560.88 271.46 567.52 M 231.19 551.37 C 230.83 555.99 230.85 560.62 231.04 565.25 C 233.22 562.85 235.38 560.42 237.52 557.99 C 235.43 555.76 233.34 553.53 231.19 551.37 M 412.54 563.27 C 415.97 563.64 419.42 563.99 422.86 564.32 C 421.42 560.95 420.17 557.50 419.21 553.97 C 416.73 556.88 414.49 559.99 412.54 563.27 M 579.93 559.05 C 570.38 561.73 560.70 563.92 551.01 566.05 C 526.29 571.06 501.35 576.26 476.00 575.92 C 453.33 576.41 430.78 573.66 408.27 571.39 C 408.35 574.17 408.44 576.95 408.58 579.74 C 411.35 580.56 414.14 581.32 416.98 581.91 C 439.69 586.38 462.91 587.42 486.01 587.26 C 500.45 586.64 514.82 584.75 529.03 582.08 C 547.25 578.55 565.47 574.77 583.26 569.39 C 590.71 567.43 596.19 560.93 598.76 553.89 C 592.35 555.08 586.18 557.23 579.93 559.05 M 618.15 587.20 C 616.34 595.71 621.85 603.31 627.85 608.66 C 637.99 605.83 648.12 602.66 657.51 597.81 C 652.62 594.36 647.66 590.66 644.70 585.31 C 640.26 578.43 639.47 569.99 640.33 562.03 C 630.44 567.48 619.96 575.25 618.15 587.20 M 359.99 581.98 C 317.97 621.28 276.28 660.93 234.53 700.52 C 232.83 702.32 230.69 704.22 230.91 706.96 C 230.82 717.93 230.72 728.91 230.99 739.87 C 237.00 734.95 242.43 729.40 247.99 723.99 C 290.00 684.33 331.87 644.52 374.00 605.00 C 376.13 602.78 379.12 600.55 378.70 597.08 C 378.63 586.26 378.64 575.44 378.33 564.63 C 372.04 570.22 366.07 576.16 359.99 581.98 M 240.88 596.88 C 249.83 602.35 260.16 605.12 270.43 606.79 C 272.84 607.55 274.49 605.51 276.05 604.05 C 282.49 597.56 289.40 591.54 295.46 584.68 C 284.83 581.93 274.43 578.44 264.10 574.74 C 256.35 582.11 248.67 589.56 240.88 596.88 M 562.87 587.87 C 553.68 595.93 548.16 608.68 550.97 620.90 C 560.03 621.07 569.09 620.16 577.99 618.40 C 573.10 605.71 573.71 591.08 580.02 578.98 C 574.00 581.25 567.56 583.21 562.87 587.87 M 526.30 593.32 C 516.82 598.94 511.83 610.12 511.87 620.90 C 521.99 621.33 532.12 621.24 542.24 621.09 C 541.77 614.89 541.47 608.51 543.48 602.52 C 545.21 596.23 549.39 591.10 553.22 585.97 C 544.17 588.06 534.67 589.05 526.30 593.32 M 408.69 589.35 C 408.66 599.76 408.54 610.18 408.83 620.59 C 414.09 620.62 419.34 620.85 424.60 620.85 C 425.34 611.00 429.11 601.72 434.30 593.41 C 425.74 592.22 417.23 590.68 408.69 589.35 M 490.14 597.04 C 482.81 602.33 479.00 611.65 478.93 620.55 C 486.99 621.30 495.08 621.54 503.17 621.44 C 503.44 616.63 503.71 611.74 505.37 607.17 C 507.03 602.11 510.06 597.67 513.03 593.30 C 505.44 594.70 497.34 593.96 490.14 597.04 M 443.77 596.79 C 437.47 603.08 434.13 611.86 433.48 620.65 C 445.65 620.70 457.82 620.62 470.00 620.74 C 470.65 611.59 473.55 602.65 479.20 595.36 C 469.09 595.49 459.00 594.79 448.90 594.68 C 446.92 594.47 445.10 595.37 443.77 596.79 M 230.77 611.92 C 230.48 617.74 230.76 623.58 231.05 629.40 C 236.41 630.11 241.75 630.98 247.11 631.78 C 252.81 626.17 258.65 620.67 263.98 614.71 C 254.29 611.77 244.19 609.45 235.53 603.98 C 233.62 606.38 230.69 608.54 230.77 611.92 M 351.56 653.57 C 313.97 688.29 276.73 723.40 239.51 758.52 C 236.03 762.47 230.29 765.94 230.78 771.91 C 230.86 779.75 230.87 787.59 231.05 795.44 C 239.90 788.20 247.98 780.10 256.37 772.35 C 268.57 761.24 280.72 750.05 292.73 738.74 C 319.41 713.39 346.69 688.70 373.57 663.58 C 375.60 661.37 378.75 659.38 378.57 656.01 C 378.77 646.87 378.60 637.73 378.48 628.59 C 369.27 636.66 360.51 645.22 351.56 653.57 M 231.10 637.87 C 230.89 641.29 230.84 644.72 230.91 648.15 C 233.53 645.52 236.14 642.87 238.54 640.05 C 236.07 639.28 233.59 638.55 231.10 637.87 M 355.68 706.69 C 342.41 719.09 328.90 731.24 315.63 743.65 C 289.65 768.35 262.67 791.98 236.86 816.87 C 234.28 819.78 230.39 822.56 230.75 826.92 C 230.91 834.52 230.72 842.12 230.90 849.73 C 238.68 843.63 245.54 836.46 252.90 829.88 C 293.25 792.53 334.22 755.86 374.89 718.87 C 376.48 717.19 378.78 715.57 378.62 712.98 C 378.79 704.15 378.73 695.30 378.43 686.47 C 370.52 692.83 363.28 699.97 355.68 706.69 M 335.20 767.21 C 307.75 792.09 280.48 817.15 253.20 842.21 C 246.45 848.46 239.18 854.15 232.80 860.79 C 229.80 863.56 230.38 868.15 231.05 871.78 C 231.61 873.29 232.89 875.69 234.86 874.78 C 238.71 873.38 241.47 870.11 244.53 867.53 C 260.99 852.66 277.35 837.68 293.44 822.41 C 320.37 797.30 347.98 772.93 375.36 748.32 C 376.85 746.83 378.70 745.24 378.65 742.94 C 379.00 738.13 378.62 733.31 378.54 728.50 C 363.65 740.90 349.82 754.50 335.20 767.21 M 371.56 764.58 C 370.28 768.23 370.96 772.20 370.86 776.00 C 371.01 799.33 370.92 822.66 370.94 846.00 C 371.04 855.52 370.59 865.07 371.34 874.58 C 374.27 873.73 378.82 872.93 378.54 868.92 C 378.46 832.16 378.75 795.38 378.45 758.62 C 376.09 760.53 373.56 762.28 371.56 764.58 M 340.33 792.34 C 338.64 793.69 338.11 795.81 338.18 797.90 C 338.17 823.35 338.19 848.81 338.13 874.27 C 346.28 874.41 354.44 874.46 362.59 874.26 C 362.12 840.41 362.85 806.54 362.10 772.70 C 354.61 778.98 347.45 785.64 340.33 792.34 M 312.49 817.51 C 310.58 819.34 308.47 821.04 306.97 823.26 C 306.30 825.77 306.50 828.41 306.47 830.99 C 306.77 845.44 306.45 859.89 306.74 874.34 C 314.45 874.38 322.16 874.43 329.88 874.33 C 329.75 850.13 330.35 825.94 329.85 801.74 C 323.82 806.72 318.28 812.25 312.49 817.51 M 275.09 852.10 C 273.08 854.06 270.78 855.87 269.42 858.39 C 268.58 863.61 269.40 868.96 269.14 874.24 C 278.81 874.50 288.50 874.56 298.17 874.23 C 297.95 859.94 298.59 845.63 297.76 831.36 C 289.92 837.96 282.75 845.29 275.09 852.10 M 250.60 874.48 C 254.00 874.59 257.41 874.60 260.81 874.61 C 260.75 871.47 260.74 868.33 260.63 865.20 C 257.34 868.34 253.95 871.39 250.60 874.48 Z" />
<path fill="#010000" stroke="#010000" stroke-width="0.09375" opacity="1.00" d=" M 401.26 278.13 C 402.79 277.77 404.37 277.69 405.94 277.66 C 430.29 277.90 454.65 278.05 479.00 277.57 C 494.40 277.26 509.87 277.73 525.13 279.97 C 546.01 283.19 566.32 291.02 583.31 303.69 C 593.64 311.63 602.73 321.25 609.86 332.17 C 621.89 351.13 628.10 373.55 628.60 395.94 C 629.93 429.48 617.67 463.90 593.64 487.65 C 579.19 502.34 559.83 511.39 539.87 515.79 C 523.51 519.30 506.73 520.23 490.05 520.74 C 462.33 520.94 434.62 520.74 406.90 520.82 C 404.80 520.69 402.33 520.89 400.74 519.25 C 399.34 517.92 399.56 515.82 399.42 514.07 C 399.45 436.75 399.46 359.43 399.40 282.11 C 399.64 280.77 399.57 278.39 401.26 278.13 M 463.42 318.48 C 457.03 319.00 450.55 317.91 444.21 318.94 C 441.26 319.43 441.47 322.66 441.39 324.95 C 441.58 374.99 441.56 425.03 441.45 475.07 C 441.49 476.81 441.91 478.58 442.93 480.03 C 446.56 480.89 450.32 480.50 454.01 480.53 C 477.38 480.14 501.05 482.03 524.10 477.22 C 539.63 474.26 554.67 467.21 565.73 455.73 C 575.05 446.65 580.53 434.41 583.98 422.05 C 586.76 411.60 586.75 400.65 586.01 389.94 C 584.70 373.22 578.23 356.65 566.49 344.48 C 555.79 332.91 540.98 325.99 525.89 322.20 C 505.44 317.33 484.26 318.51 463.42 318.48 Z" />
</g>
<g id="#fcfdfdff">
<path fill="#fcfdfd" stroke="#fcfdfd" stroke-width="0.09375" opacity="1.00" d=" M 26.38 24.51 C 33.49 23.06 40.80 23.71 48.00 23.56 C 354.33 23.62 660.67 23.49 967.01 23.64 C 974.32 23.68 982.42 22.84 988.76 27.27 C 996.44 32.41 999.69 42.05 999.35 50.98 C 999.37 359.65 999.45 668.32 999.31 977.00 C 999.74 985.77 997.23 995.41 989.96 1000.96 C 983.75 1005.82 975.41 1005.12 968.00 1005.23 C 661.67 1005.22 355.34 1005.22 49.00 1005.24 C 42.03 1005.15 35.01 1005.55 28.08 1004.65 C 16.89 1003.23 9.76 991.68 10.20 980.99 C 10.21 669.97 10.26 358.95 10.18 47.93 C 9.92 37.80 15.98 26.85 26.38 24.51 M 204.40 100.60 C 189.64 102.61 176.32 113.41 171.68 127.62 C 168.63 135.73 169.21 144.51 169.14 153.00 C 169.19 400.02 169.09 647.04 169.18 894.06 C 168.19 915.63 186.99 936.56 208.94 936.01 C 270.96 936.35 332.98 936.02 395.00 936.18 C 399.70 936.14 404.48 936.39 409.09 935.28 C 415.94 933.64 422.36 930.29 427.74 925.75 C 436.57 918.20 441.48 906.56 441.26 894.99 C 441.51 829.98 441.23 764.97 441.38 699.96 C 441.32 694.34 442.93 688.14 447.80 684.80 C 453.29 680.58 460.55 681.78 467.00 681.62 C 477.51 681.32 487.86 683.46 498.35 683.78 C 524.20 684.79 550.15 685.38 575.94 682.96 C 596.35 680.86 616.65 677.58 636.57 672.63 C 669.03 664.16 700.40 650.98 728.47 632.51 C 756.89 613.50 781.03 588.25 799.51 559.54 C 815.37 534.21 827.40 506.45 834.64 477.43 C 839.77 457.62 842.18 437.21 843.53 416.83 C 843.82 408.88 843.61 400.92 843.61 392.97 C 842.61 333.68 823.19 275.10 789.92 226.14 C 768.92 195.30 741.58 168.78 709.78 149.23 C 678.55 130.10 643.98 116.38 608.13 108.87 C 583.99 104.12 559.48 101.10 534.89 100.25 C 431.60 100.16 328.30 100.18 225.00 100.19 C 218.13 100.34 211.24 99.92 204.40 100.60 Z" />
<path fill="#fcfdfd" stroke="#fcfdfd" stroke-width="0.09375" opacity="1.00" d=" M 213.26 149.22 C 216.95 143.82 223.49 140.91 229.93 140.91 C 265.29 141.11 300.65 140.78 336.00 140.91 C 399.35 141.06 462.70 140.76 526.06 141.10 C 563.76 142.41 601.90 146.96 637.27 160.74 C 671.77 173.37 703.44 193.60 729.18 219.82 C 751.32 242.62 768.47 269.97 780.95 299.11 C 789.06 318.65 795.08 339.09 798.15 360.03 C 801.16 378.18 801.02 396.62 800.64 414.95 C 799.38 439.39 794.94 463.73 786.91 486.87 C 776.56 518.50 757.85 546.97 734.78 570.78 C 708.69 597.34 675.20 615.86 639.77 626.74 C 609.86 636.53 578.36 640.04 547.06 641.63 C 520.05 642.93 493.02 641.19 466.00 641.34 C 443.84 641.21 421.69 641.39 399.54 641.13 C 399.66 719.44 399.48 797.75 399.66 876.05 C 399.45 882.27 396.60 888.76 391.19 892.15 C 388.19 894.08 384.62 894.95 381.08 895.02 C 331.04 895.24 281.00 895.05 230.96 895.17 C 226.48 895.23 221.74 894.65 218.04 891.92 C 212.67 888.09 210.02 881.47 209.63 875.05 C 209.80 639.37 209.60 403.69 209.72 168.01 C 209.77 161.65 209.16 154.60 213.26 149.22 M 224.03 156.98 C 222.06 159.12 221.90 162.16 221.87 164.92 C 221.90 293.28 221.86 421.64 221.89 550.00 C 221.74 657.36 222.06 764.73 221.79 872.09 C 221.40 877.73 226.14 883.25 231.92 883.10 C 279.96 883.22 328.02 883.24 376.07 883.18 C 382.08 883.34 387.55 878.10 387.46 872.05 C 387.30 835.04 387.40 798.02 387.39 761.00 C 387.58 609.33 387.24 457.67 387.40 306.00 C 387.44 292.62 387.03 279.23 387.81 265.87 C 400.86 265.11 413.94 265.62 427.00 265.55 C 441.33 265.44 455.67 265.58 470.00 265.59 C 491.51 265.43 513.28 264.84 534.44 269.41 C 568.89 276.01 600.96 296.40 619.91 326.14 C 639.52 357.08 645.10 395.94 637.49 431.54 C 632.75 450.87 624.45 469.47 612.22 485.23 C 602.49 498.24 589.63 508.89 575.11 516.16 C 556.40 525.61 535.54 529.97 514.77 531.67 C 495.21 532.91 475.59 532.29 456.00 532.49 C 437.29 532.74 418.57 532.25 399.87 532.62 C 399.59 535.74 399.48 538.86 399.48 541.99 C 399.67 568.01 399.55 594.03 399.46 620.04 C 399.50 622.98 399.50 626.89 402.63 628.34 C 405.98 629.35 409.55 629.03 413.01 629.05 C 424.00 628.59 435.00 629.40 446.00 628.92 C 469.66 629.01 493.33 629.53 517.00 629.45 C 535.01 629.38 553.08 629.84 571.02 627.99 C 595.95 625.50 620.78 620.83 644.46 612.51 C 678.07 601.01 709.00 581.26 732.78 554.78 C 741.85 544.04 750.80 533.09 757.99 520.96 C 779.28 484.56 789.38 442.05 788.69 400.00 C 788.70 376.63 786.29 353.05 779.30 330.67 C 764.53 282.26 736.22 237.15 695.59 206.40 C 668.39 184.98 636.05 170.79 602.63 162.30 C 576.56 156.02 549.74 153.63 523.00 152.82 C 427.31 152.95 331.63 152.75 235.94 152.88 C 231.71 152.88 226.88 153.47 224.03 156.98 M 401.26 278.13 C 399.57 278.39 399.64 280.77 399.40 282.11 C 399.46 359.43 399.45 436.75 399.42 514.07 C 399.56 515.82 399.34 517.92 400.74 519.25 C 402.33 520.89 404.80 520.69 406.90 520.82 C 434.62 520.74 462.33 520.94 490.05 520.74 C 506.73 520.23 523.51 519.30 539.87 515.79 C 559.83 511.39 579.19 502.34 593.64 487.65 C 617.67 463.90 629.93 429.48 628.60 395.94 C 628.10 373.55 621.89 351.13 609.86 332.17 C 602.73 321.25 593.64 311.63 583.31 303.69 C 566.32 291.02 546.01 283.19 525.13 279.97 C 509.87 277.73 494.40 277.26 479.00 277.57 C 454.65 278.05 430.29 277.90 405.94 277.66 C 404.37 277.69 402.79 277.77 401.26 278.13 Z" />
<path fill="#fcfdfd" stroke="#fcfdfd" stroke-width="0.09375" opacity="1.00" d=" M 247.10 161.49 C 253.25 161.40 259.41 161.37 265.57 161.46 C 265.46 167.78 265.82 174.12 265.17 180.41 C 264.94 183.71 261.89 185.64 259.67 187.67 C 249.98 195.51 240.26 203.30 230.84 211.47 C 230.66 204.74 230.74 198.02 231.00 191.30 C 237.25 188.79 243.87 185.15 246.69 178.68 C 249.16 173.24 248.12 167.14 247.10 161.49 Z" />
<path fill="#fcfdfd" stroke="#fcfdfd" stroke-width="0.09375" opacity="1.00" d=" M 274.15 161.56 C 279.86 161.29 285.58 161.35 291.30 161.30 C 286.22 166.73 280.48 171.52 274.29 175.63 C 274.03 170.94 274.07 166.25 274.15 161.56 Z" />
<path fill="#fcfdfd" stroke="#fcfdfd" stroke-width="0.09375" opacity="1.00" d=" M 370.85 161.68 C 373.39 161.53 375.93 161.43 378.49 161.39 C 378.54 163.93 378.57 166.47 378.56 169.01 C 376.05 166.50 373.49 164.05 370.85 161.68 Z" />
<path fill="#fcfdfd" stroke="#fcfdfd" stroke-width="0.09375" opacity="1.00" d=" M 387.64 161.49 C 393.79 161.48 399.93 161.42 406.08 161.24 C 406.69 165.69 407.48 170.11 408.08 174.57 C 403.67 178.53 398.91 182.05 394.11 185.50 C 391.95 181.83 389.11 178.54 387.42 174.60 C 386.66 170.27 387.64 165.85 387.64 161.49 Z" />
<path fill="#fcfdfd" stroke="#fcfdfd" stroke-width="0.09375" opacity="1.00" d=" M 470.52 161.83 C 478.87 161.43 487.23 161.39 495.59 161.42 C 501.76 182.56 501.78 205.32 496.72 226.68 C 494.40 237.16 489.66 246.84 485.58 256.70 C 479.40 256.80 473.22 256.63 467.04 256.68 C 477.87 226.43 479.40 192.78 470.52 161.83 Z" />
<path fill="#fcfdfd" stroke="#fcfdfd" stroke-width="0.09375" opacity="1.00" d=" M 504.23 161.62 C 516.52 161.02 528.82 161.45 541.09 162.06 C 544.72 178.95 544.29 196.90 538.22 213.18 C 532.75 228.19 525.11 242.52 514.82 254.79 C 513.69 255.77 512.66 257.41 511.01 257.35 C 505.62 257.27 500.25 256.60 494.86 256.61 C 498.60 248.43 502.18 240.12 504.30 231.34 C 509.87 208.54 509.87 184.40 504.23 161.62 Z" />
<path fill="#fcfdfd" stroke="#fcfdfd" stroke-width="0.09375" opacity="1.00" d=" M 306.03 161.87 C 312.08 161.49 318.15 161.40 324.20 161.69 C 320.20 167.71 315.15 172.95 309.84 177.83 C 307.87 172.70 306.75 167.31 306.03 161.87 Z" />
<path fill="#fcfdfd" stroke="#fcfdfd" stroke-width="0.09375" opacity="1.00" d=" M 340.43 162.38 C 344.69 161.01 349.41 161.37 353.74 162.27 C 368.05 167.50 379.13 181.55 379.57 196.97 C 377.55 201.47 373.00 204.10 369.63 207.52 C 366.34 200.02 361.29 193.17 354.38 188.64 C 344.66 182.00 332.63 180.45 321.18 179.47 C 326.59 172.79 332.79 166.47 340.43 162.38 Z" />
<path fill="#fcfdfd" stroke="#fcfdfd" stroke-width="0.09375" opacity="1.00" d=" M 414.90 161.90 C 419.88 161.59 424.87 161.37 429.86 161.56 C 425.43 164.74 420.65 167.38 416.01 170.22 C 415.62 167.45 415.24 164.68 414.90 161.90 Z" />
<path fill="#fcfdfd" stroke="#fcfdfd" stroke-width="0.09375" opacity="1.00" d=" M 441.44 166.55 C 446.81 161.64 454.61 161.74 461.43 161.31 C 469.95 186.17 469.84 213.38 463.79 238.78 C 462.37 244.91 460.33 250.88 458.03 256.74 C 447.63 256.70 437.22 256.71 426.82 256.62 C 429.97 245.79 432.88 234.88 435.86 223.99 C 440.21 208.45 442.40 192.21 441.40 176.07 C 441.28 172.90 440.74 169.67 441.44 166.55 Z" />
<path fill="#fcfdfd" stroke="#fcfdfd" stroke-width="0.09375" opacity="1.00" d=" M 550.03 162.19 C 552.37 162.49 554.71 162.80 557.05 163.12 C 555.83 170.39 554.03 177.56 551.34 184.43 C 551.34 176.99 550.10 169.63 550.03 162.19 Z" />
<path fill="#fcfdfd" stroke="#fcfdfd" stroke-width="0.09375" opacity="1.00" d=" M 233.59 163.26 C 233.98 162.93 234.77 162.27 235.16 161.94 C 237.92 165.42 240.63 170.07 238.63 174.58 C 237.70 177.57 234.67 178.76 232.01 179.77 C 230.65 174.53 228.12 167.00 233.59 163.26 Z" />
<path fill="#fcfdfd" stroke="#fcfdfd" stroke-width="0.09375" opacity="1.00" d=" M 565.08 164.38 C 576.17 165.80 587.25 167.55 598.13 170.20 C 594.05 191.46 586.13 211.89 575.88 230.91 C 569.25 243.21 560.67 254.38 550.84 264.29 C 541.63 261.96 532.30 260.23 522.95 258.64 C 532.01 247.07 539.23 234.15 544.63 220.49 C 548.52 210.59 553.14 201.00 557.08 191.12 C 560.54 182.46 562.77 173.39 565.08 164.38 Z" />
<path fill="#fcfdfd" stroke="#fcfdfd" stroke-width="0.09375" opacity="1.00" d=" M 280.25 182.19 C 286.21 177.25 292.11 172.23 298.35 167.63 C 299.49 173.08 301.52 178.35 302.17 183.89 C 297.99 189.88 291.51 193.85 286.17 198.77 C 284.04 193.30 282.03 187.78 280.25 182.19 Z" />
<path fill="#fcfdfd" stroke="#fcfdfd" stroke-width="0.09375" opacity="1.00" d=" M 422.69 176.86 C 425.97 174.97 429.25 173.07 432.51 171.14 C 434.71 184.83 432.97 198.72 430.70 212.27 C 429.55 200.19 426.78 188.28 422.69 176.86 Z" />
<path fill="#fcfdfd" stroke="#fcfdfd" stroke-width="0.09375" opacity="1.00" d=" M 606.34 173.08 C 607.67 172.55 609.08 173.23 610.43 173.43 C 620.15 175.82 629.59 179.21 638.79 183.15 C 635.07 196.42 629.56 209.14 623.54 221.51 C 616.75 235.64 606.95 248.01 596.88 259.90 C 591.59 266.07 585.72 271.72 579.28 276.69 C 573.10 272.96 566.22 270.68 559.82 267.40 C 572.60 254.26 582.32 238.49 590.02 221.94 C 596.12 208.34 601.40 194.31 604.64 179.74 C 605.15 177.50 605.59 175.25 606.34 173.08 Z" />
<path fill="#fcfdfd" stroke="#fcfdfd" stroke-width="0.09375" opacity="1.00" d=" M 388.76 202.04 C 397.23 194.60 406.01 187.55 415.13 180.92 C 422.91 199.20 423.36 219.50 421.96 239.02 C 421.50 245.02 419.92 250.85 418.36 256.64 C 411.25 256.89 404.13 256.69 397.02 256.75 C 400.91 243.20 399.54 228.50 394.57 215.41 C 392.90 210.84 390.77 206.46 388.76 202.04 Z" />
<path fill="#fcfdfd" stroke="#fcfdfd" stroke-width="0.09375" opacity="1.00" d=" M 629.95 227.15 C 636.95 214.12 642.17 200.27 646.92 186.29 C 651.39 188.75 655.90 191.14 660.50 193.36 C 653.40 206.97 643.07 219.03 629.95 227.15 Z" />
<path fill="#fcfdfd" stroke="#fcfdfd" stroke-width="0.09375" opacity="1.00" d=" M 255.12 203.01 C 260.99 197.85 266.92 192.76 273.17 188.05 C 274.92 193.36 276.95 198.57 278.61 203.92 C 273.00 208.91 267.66 214.24 261.54 218.62 C 259.05 213.57 256.98 208.32 255.12 203.01 Z" />
<path fill="#fcfdfd" stroke="#fcfdfd" stroke-width="0.09375" opacity="1.00" d=" M 304.36 195.66 C 307.91 192.78 310.74 187.76 315.90 187.99 C 328.50 187.81 342.28 189.30 352.31 197.68 C 357.33 201.56 360.31 207.30 362.86 212.96 C 358.34 217.59 353.55 221.93 348.65 226.15 C 344.50 218.15 339.97 209.89 332.41 204.59 C 324.43 198.39 314.15 196.65 304.36 195.66 Z" />
<path fill="#fcfdfd" stroke="#fcfdfd" stroke-width="0.09375" opacity="1.00" d=" M 642.87 233.84 C 650.81 221.56 660.33 210.37 667.93 197.87 C 674.52 201.78 680.90 206.04 687.32 210.24 C 682.70 219.62 676.61 228.13 670.85 236.83 C 654.04 260.91 634.76 283.73 610.95 301.18 C 604.00 293.57 595.53 287.66 587.37 281.46 C 595.75 276.43 604.90 272.67 612.67 266.66 C 624.55 257.59 634.74 246.36 642.87 233.84 Z" />
<path fill="#fcfdfd" stroke="#fcfdfd" stroke-width="0.09375" opacity="1.00" d=" M 290.50 206.42 C 293.09 204.96 295.76 203.09 298.90 203.46 C 309.03 203.85 319.94 205.28 327.97 212.06 C 334.45 216.94 338.05 224.35 342.11 231.14 C 337.74 235.30 333.34 239.43 328.68 243.26 C 323.90 235.62 318.70 228.13 311.94 222.08 C 305.56 215.88 298.05 211.05 290.50 206.42 Z" />
<path fill="#fcfdfd" stroke="#fcfdfd" stroke-width="0.09375" opacity="1.00" d=" M 233.61 220.62 C 238.05 216.20 243.04 212.41 247.96 208.54 C 249.95 214.06 252.40 219.39 254.62 224.82 C 249.36 230.02 243.89 235.00 238.02 239.50 C 235.87 234.65 233.08 230.05 231.57 224.93 C 230.85 223.13 232.59 221.82 233.61 220.62 Z" />
<path fill="#fcfdfd" stroke="#fcfdfd" stroke-width="0.09375" opacity="1.00" d=" M 361.51 227.26 C 366.98 221.82 373.04 217.03 378.64 211.74 C 378.90 220.46 379.30 229.18 378.89 237.90 C 373.77 233.35 367.67 230.17 361.51 227.26 Z" />
<path fill="#fcfdfd" stroke="#fcfdfd" stroke-width="0.09375" opacity="1.00" d=" M 270.92 222.56 C 274.60 219.16 278.44 215.93 282.19 212.61 C 289.08 215.31 295.63 218.91 301.26 223.73 C 309.47 230.80 317.07 238.96 321.66 248.89 C 316.87 254.14 311.55 258.88 305.96 263.26 C 302.31 249.53 294.54 236.41 282.40 228.61 C 278.80 226.17 274.83 224.39 270.92 222.56 Z" />
<path fill="#fcfdfd" stroke="#fcfdfd" stroke-width="0.09375" opacity="1.00" d=" M 694.13 215.79 C 696.73 218.21 699.41 220.55 702.16 222.79 C 686.79 249.20 667.36 273.17 645.41 294.40 C 637.93 301.20 630.67 308.32 622.28 314.02 C 620.47 311.67 618.62 309.35 616.75 307.06 C 629.77 297.90 641.51 286.97 651.94 274.95 C 662.90 262.40 673.40 249.38 682.22 235.21 C 686.29 228.80 690.68 222.57 694.13 215.79 Z" />
<path fill="#fcfdfd" stroke="#fcfdfd" stroke-width="0.09375" opacity="1.00" d=" M 388.46 221.59 C 390.54 228.85 391.08 236.47 390.92 243.99 C 390.83 247.76 389.79 251.43 388.35 254.89 C 387.65 243.82 388.08 232.67 388.46 221.59 Z" />
<path fill="#fcfdfd" stroke="#fcfdfd" stroke-width="0.09375" opacity="1.00" d=" M 708.66 228.67 C 712.22 232.43 715.73 236.23 719.33 239.96 C 714.03 249.21 707.44 257.60 701.23 266.23 C 691.01 280.18 679.66 293.24 667.86 305.87 C 657.86 316.70 646.79 326.54 634.87 335.22 C 632.65 330.43 629.99 325.87 627.22 321.39 C 660.19 296.31 687.43 264.13 708.66 228.67 Z" />
<path fill="#fcfdfd" stroke="#fcfdfd" stroke-width="0.09375" opacity="1.00" d=" M 241.73 248.76 C 248.42 241.46 256.42 235.56 263.98 229.20 C 276.42 232.64 287.35 241.32 293.08 252.94 C 295.52 258.05 297.57 263.43 298.59 269.02 C 295.59 273.00 291.48 275.96 287.82 279.31 C 284.23 271.42 278.81 264.23 271.46 259.50 C 262.61 253.43 251.88 251.54 241.73 248.76 Z" />
<path fill="#fcfdfd" stroke="#fcfdfd" stroke-width="0.09375" opacity="1.00" d=" M 625.13 239.26 C 628.07 237.43 631.12 235.78 634.06 233.96 C 625.99 243.60 617.53 253.16 607.14 260.38 C 610.85 255.68 614.95 251.29 618.49 246.46 C 620.47 243.87 622.31 241.02 625.13 239.26 Z" />
<path fill="#fcfdfd" stroke="#fcfdfd" stroke-width="0.09375" opacity="1.00" d=" M 350.79 236.79 C 352.68 235.25 355.20 234.80 357.54 235.44 C 364.36 236.85 370.23 241.11 374.82 246.21 C 376.76 248.40 378.76 250.89 378.89 253.97 C 379.55 261.45 378.81 268.97 378.77 276.47 C 373.93 275.79 369.08 275.00 364.40 273.56 C 361.10 272.78 359.88 269.30 358.11 266.81 C 353.00 258.68 344.71 253.32 336.25 249.19 C 341.06 245.01 345.71 240.63 350.79 236.79 Z" />
<path fill="#fcfdfd" stroke="#fcfdfd" stroke-width="0.09375" opacity="1.00" d=" M 725.46 246.67 C 728.54 250.85 731.64 255.02 735.00 258.98 C 726.29 274.45 715.36 288.52 704.63 302.61 C 693.86 316.69 682.16 330.07 669.47 342.44 C 661.60 349.83 653.70 357.28 644.58 363.11 C 642.77 356.35 640.72 349.66 638.60 343.00 C 653.50 332.73 666.80 320.33 678.95 306.96 C 696.27 288.33 711.57 267.94 725.46 246.67 Z" />
<path fill="#fcfdfd" stroke="#fcfdfd" stroke-width="0.09375" opacity="1.00" d=" M 231.09 256.02 C 244.91 257.39 259.58 260.34 270.48 269.54 C 274.98 273.54 279.01 278.77 280.02 284.83 C 276.99 290.16 271.52 293.70 266.63 297.25 C 262.34 287.35 255.82 278.30 246.81 272.21 C 241.99 268.92 236.60 266.62 231.13 264.66 C 231.12 261.78 231.11 258.90 231.09 256.02 Z" />
<path fill="#fcfdfd" stroke="#fcfdfd" stroke-width="0.09375" opacity="1.00" d=" M 310.07 272.83 C 315.96 266.87 322.25 261.32 328.90 256.24 C 337.36 258.64 345.28 263.26 350.66 270.34 C 355.97 276.82 359.37 285.38 357.89 293.82 C 357.08 296.32 355.21 300.00 352.03 299.17 C 347.25 298.26 342.49 296.95 338.00 295.07 C 334.88 292.80 333.41 288.99 330.77 286.24 C 325.42 279.72 317.59 276.18 310.07 272.83 Z" />
<path fill="#fcfdfd" stroke="#fcfdfd" stroke-width="0.09375" opacity="1.00" d=" M 722.16 294.15 C 728.54 285.51 734.13 276.31 740.70 267.80 C 743.33 271.82 745.66 276.01 748.09 280.14 C 739.10 296.59 727.76 311.59 716.48 326.51 C 705.58 340.22 694.47 353.77 683.14 367.13 C 673.21 378.58 662.48 389.73 649.06 397.10 C 648.84 391.09 648.90 385.05 647.93 379.10 C 647.70 376.63 646.92 374.13 647.41 371.66 C 651.06 368.47 655.34 366.13 659.10 363.09 C 683.47 343.46 703.68 319.25 722.16 294.15 Z" />
<path fill="#fcfdfd" stroke="#fcfdfd" stroke-width="0.09375" opacity="1.00" d=" M 230.89 273.38 C 238.82 276.75 246.36 281.42 251.74 288.27 C 255.45 292.83 257.84 298.29 259.67 303.83 C 256.34 307.20 252.83 310.37 249.16 313.35 C 243.41 309.86 237.33 306.94 230.99 304.68 C 230.48 294.26 230.55 283.81 230.89 273.38 Z" />
<path fill="#fcfdfd" stroke="#fcfdfd" stroke-width="0.09375" opacity="1.00" d=" M 285.77 294.05 C 291.09 289.44 295.99 284.17 302.13 280.64 C 310.22 281.59 318.11 285.31 323.80 291.20 C 329.03 296.40 333.06 303.41 332.71 311.00 C 333.01 315.00 332.34 320.06 327.97 321.61 C 323.47 321.31 319.24 319.51 315.05 317.98 C 311.00 316.62 309.01 312.59 306.49 309.48 C 301.26 302.43 293.72 297.53 285.77 294.05 Z" />
<path fill="#fcfdfd" stroke="#fcfdfd" stroke-width="0.09375" opacity="1.00" d=" M 752.77 288.85 C 756.80 295.33 760.18 302.21 762.58 309.47 C 757.22 306.07 752.54 301.73 748.40 296.95 C 749.78 294.21 751.30 291.54 752.77 288.85 Z" />
<path fill="#fcfdfd" stroke="#fcfdfd" stroke-width="0.09375" opacity="1.00" d=" M 270.34 386.34 C 306.32 354.92 342.00 323.13 378.42 292.23 C 378.59 297.44 378.97 302.68 378.59 307.89 C 378.56 309.91 376.69 311.08 375.38 312.32 C 355.35 328.55 336.33 345.96 316.83 362.82 C 302.40 375.76 287.69 388.37 273.12 401.15 C 259.09 413.56 245.11 426.02 230.86 438.17 C 230.93 432.87 230.22 427.50 231.10 422.25 C 232.80 419.35 235.64 417.35 238.05 415.07 C 249.06 405.77 259.51 395.84 270.34 386.34 Z" />
<path fill="#fcfdfd" stroke="#fcfdfd" stroke-width="0.09375" opacity="1.00" d=" M 275.98 302.92 C 279.47 300.07 284.16 302.80 287.67 304.33 C 297.28 309.93 306.19 319.33 306.81 330.97 C 306.73 335.29 307.41 340.65 303.49 343.61 C 298.55 343.51 293.93 341.27 289.31 339.71 C 285.73 338.56 283.58 335.36 281.67 332.35 C 276.86 324.74 268.85 320.06 261.03 316.06 C 265.83 311.48 270.68 306.92 275.98 302.92 Z" />
<path fill="#fcfdfd" stroke="#fcfdfd" stroke-width="0.09375" opacity="1.00" d=" M 744.10 304.93 C 750.27 310.12 756.01 316.12 763.48 319.46 C 765.52 320.32 767.45 321.68 768.04 323.94 C 770.97 332.55 774.00 341.19 775.59 350.18 C 759.92 344.35 746.61 331.41 741.77 315.23 C 740.54 311.62 742.94 308.21 744.10 304.93 Z" />
<path fill="#fcfdfd" stroke="#fcfdfd" stroke-width="0.09375" opacity="1.00" d=" M 230.85 313.80 C 234.89 315.14 238.72 317.02 242.21 319.45 C 238.91 323.56 235.07 327.21 230.86 330.38 C 230.61 324.86 230.63 319.32 230.85 313.80 Z" />
<path fill="#fcfdfd" stroke="#fcfdfd" stroke-width="0.09375" opacity="1.00" d=" M 463.42 318.48 C 484.26 318.51 505.44 317.33 525.89 322.20 C 540.98 325.99 555.79 332.91 566.49 344.48 C 578.23 356.65 584.70 373.22 586.01 389.94 C 586.75 400.65 586.76 411.60 583.98 422.05 C 580.53 434.41 575.05 446.65 565.73 455.73 C 554.67 467.21 539.63 474.26 524.10 477.22 C 501.05 482.03 477.38 480.14 454.01 480.53 C 450.32 480.50 446.56 480.89 442.93 480.03 C 441.91 478.58 441.49 476.81 441.45 475.07 C 441.56 425.03 441.58 374.99 441.39 324.95 C 441.47 322.66 441.26 319.43 444.21 318.94 C 450.55 317.91 457.03 319.00 463.42 318.48 Z" />
<path fill="#fcfdfd" stroke="#fcfdfd" stroke-width="0.09375" opacity="1.00" d=" M 711.27 347.27 C 718.68 338.26 725.65 328.91 732.90 319.78 C 733.81 324.99 737.59 331.07 733.99 335.97 C 727.38 346.52 719.85 356.56 710.72 365.08 C 709.99 361.29 708.93 357.55 708.44 353.72 C 707.84 351.15 709.94 349.18 711.27 347.27 Z" />
<path fill="#fcfdfd" stroke="#fcfdfd" stroke-width="0.09375" opacity="1.00" d=" M 249.40 326.34 C 251.12 325.11 253.00 322.92 255.35 323.77 C 270.13 327.84 282.60 342.23 281.45 358.04 C 281.52 361.60 279.87 364.79 278.11 367.78 C 272.52 366.61 266.95 365.24 261.55 363.39 C 258.40 362.46 256.96 359.27 255.08 356.88 C 249.79 349.39 241.93 344.29 234.12 339.75 C 238.93 334.97 244.33 330.84 249.40 326.34 Z" />
<path fill="#fcfdfd" stroke="#fcfdfd" stroke-width="0.09375" opacity="1.00" d=" M 289.95 398.93 C 319.79 373.74 347.95 346.57 378.44 322.14 C 378.62 331.10 378.77 340.07 378.58 349.02 C 378.86 352.17 376.05 354.10 374.11 356.11 C 345.50 381.87 316.40 407.08 287.49 432.49 C 274.98 443.68 262.20 454.56 249.58 465.61 C 243.38 471.13 237.43 476.93 230.97 482.15 C 230.84 474.09 230.96 466.03 230.75 457.98 C 230.78 455.46 230.52 452.87 231.23 450.42 C 234.06 446.86 237.83 444.21 241.23 441.24 C 257.75 427.46 273.47 412.76 289.95 398.93 Z" />
<path fill="#fcfdfd" stroke="#fcfdfd" stroke-width="0.09375" opacity="1.00" d=" M 745.76 339.57 C 750.57 343.66 754.94 348.32 760.36 351.64 C 765.73 355.27 771.67 357.89 777.69 360.23 C 778.55 368.60 780.25 376.89 780.09 385.35 C 772.18 381.15 765.57 374.93 760.06 367.95 C 753.48 359.60 747.45 350.26 745.76 339.57 Z" />
<path fill="#fcfdfd" stroke="#fcfdfd" stroke-width="0.09375" opacity="1.00" d=" M 719.18 368.17 C 726.22 361.71 731.84 353.94 737.74 346.47 C 740.50 358.42 738.95 371.31 733.22 382.18 C 728.46 391.19 722.17 399.68 713.38 405.11 C 713.69 396.50 713.60 387.86 712.66 379.29 C 712.57 377.75 712.23 376.16 712.68 374.66 C 714.47 372.16 716.99 370.31 719.18 368.17 Z" />
<path fill="#fcfdfd" stroke="#fcfdfd" stroke-width="0.09375" opacity="1.00" d=" M 230.83 348.14 C 238.81 351.58 245.62 357.37 250.44 364.58 C 254.38 369.78 255.89 376.53 255.24 382.96 C 254.58 385.85 252.51 388.13 250.95 390.57 C 243.66 388.31 237.37 383.91 230.92 379.99 C 230.68 369.38 230.45 358.75 230.83 348.14 Z" />
<path fill="#fcfdfd" stroke="#fcfdfd" stroke-width="0.09375" opacity="1.00" d=" M 676.73 388.34 C 684.68 378.89 692.67 369.48 701.04 360.40 C 702.36 367.29 703.29 374.24 703.82 381.23 C 698.70 384.94 693.43 389.11 686.97 390.00 C 683.46 390.54 680.03 389.36 676.73 388.34 Z" />
<path fill="#fcfdfd" stroke="#fcfdfd" stroke-width="0.09375" opacity="1.00" d=" M 748.95 367.52 C 752.38 370.96 755.10 375.01 758.32 378.64 C 764.47 385.55 772.00 391.31 780.53 394.98 C 780.51 400.80 780.65 406.63 780.29 412.45 C 772.71 411.18 765.32 407.61 760.74 401.27 C 752.85 391.74 752.50 378.86 748.95 367.52 Z" />
<path fill="#fcfdfd" stroke="#fcfdfd" stroke-width="0.09375" opacity="1.00" d=" M 370.66 384.66 C 373.15 382.41 375.78 380.31 378.53 378.38 C 378.59 387.59 378.81 396.82 378.63 406.03 C 378.96 409.49 375.64 411.38 373.47 413.45 C 359.69 424.62 346.76 436.78 333.21 448.22 C 299.11 478.48 264.59 508.28 230.96 539.07 C 230.79 531.04 230.90 523.01 230.73 514.98 C 230.78 512.46 230.53 509.86 231.26 507.42 C 233.79 503.94 237.32 501.36 240.52 498.53 C 254.66 486.36 268.42 473.74 282.64 461.66 C 296.60 449.25 311.06 437.43 324.96 424.96 C 340.21 411.55 355.72 398.42 370.66 384.66 Z" />
<path fill="#fcfdfd" stroke="#fcfdfd" stroke-width="0.09375" opacity="1.00" d=" M 720.13 411.40 C 730.55 403.49 738.23 392.65 743.76 380.89 C 744.57 385.20 745.84 389.50 745.67 393.93 C 745.00 402.56 741.33 411.03 735.04 417.06 C 731.47 420.68 726.66 422.62 722.02 424.47 C 721.37 420.11 720.89 415.74 720.13 411.40 Z" />
<path fill="#fcfdfd" stroke="#fcfdfd" stroke-width="0.09375" opacity="1.00" d=" M 230.89 389.95 C 235.60 392.12 240.04 394.78 244.41 397.57 C 240.14 401.77 235.85 405.98 230.96 409.46 C 230.69 402.96 230.70 396.45 230.89 389.95 Z" />
<path fill="#fcfdfd" stroke="#fcfdfd" stroke-width="0.09375" opacity="1.00" d=" M 691.22 397.28 C 696.24 396.08 700.72 393.43 705.20 390.96 C 704.91 397.92 705.01 404.94 703.88 411.84 C 703.78 413.14 702.69 413.99 701.85 414.86 C 695.14 421.05 687.12 426.99 677.55 426.86 C 675.57 417.42 675.50 407.67 676.76 398.13 C 681.58 398.24 686.50 398.52 691.22 397.28 Z" />
<path fill="#fcfdfd" stroke="#fcfdfd" stroke-width="0.09375" opacity="1.00" d=" M 649.24 406.11 C 656.05 402.88 662.42 398.85 668.56 394.49 C 667.76 405.05 666.95 415.68 668.55 426.21 C 661.69 431.85 653.72 436.14 644.96 437.89 C 647.13 427.41 648.63 416.80 649.24 406.11 Z" />
<path fill="#fcfdfd" stroke="#fcfdfd" stroke-width="0.09375" opacity="1.00" d=" M 752.52 404.95 C 755.72 408.58 759.06 412.19 763.21 414.76 C 768.25 418.05 774.05 419.84 779.76 421.61 C 778.93 426.35 779.56 432.10 775.72 435.68 C 767.35 443.97 755.94 449.67 744.01 449.68 C 736.11 449.88 728.45 447.40 721.38 444.06 C 721.72 440.46 722.01 436.85 722.14 433.24 C 736.22 429.63 747.64 418.54 752.52 404.95 Z" />
<path fill="#fcfdfd" stroke="#fcfdfd" stroke-width="0.09375" opacity="1.00" d=" M 360.01 436.37 C 366.30 431.17 372.30 425.61 378.86 420.74 C 378.52 423.77 379.51 427.59 376.89 429.86 C 372.77 433.84 368.26 437.41 363.94 441.18 C 362.65 439.56 361.34 437.96 360.01 436.37 Z" />
<path fill="#fcfdfd" stroke="#fcfdfd" stroke-width="0.09375" opacity="1.00" d=" M 699.76 456.73 C 705.33 446.23 708.67 434.77 712.01 423.42 C 715.36 442.96 709.73 462.63 702.67 480.71 C 696.08 495.55 688.12 510.03 677.10 522.08 C 664.61 536.69 648.15 547.06 631.85 556.90 C 624.69 561.49 617.89 567.16 613.58 574.61 C 609.44 581.70 608.12 590.53 610.54 598.42 C 611.98 603.16 615.03 607.14 617.93 611.08 C 607.85 613.72 597.64 615.96 587.26 617.06 C 580.06 603.84 582.63 586.62 592.42 575.43 C 596.57 571.58 601.46 568.34 604.39 563.35 C 606.89 559.74 607.56 555.32 608.05 551.05 C 616.72 547.73 625.40 544.23 633.34 539.36 C 644.95 531.96 656.18 523.68 665.15 513.13 C 671.02 506.57 676.12 499.38 681.26 492.24 C 688.97 481.25 693.41 468.47 699.76 456.73 Z" />
<path fill="#fcfdfd" stroke="#fcfdfd" stroke-width="0.09375" opacity="1.00" d=" M 679.22 435.56 C 687.74 434.46 695.62 430.75 702.48 425.69 C 699.78 436.15 695.85 446.40 690.08 455.58 C 684.82 449.92 681.33 442.94 679.22 435.56 Z" />
<path fill="#fcfdfd" stroke="#fcfdfd" stroke-width="0.09375" opacity="1.00" d=" M 642.57 446.68 C 652.69 445.31 662.25 441.13 670.32 434.91 C 672.35 443.97 676.93 452.13 682.22 459.67 C 674.48 465.59 665.08 470.84 654.97 469.20 C 647.99 468.94 641.83 465.32 636.81 460.71 C 638.72 456.03 640.53 451.31 642.57 446.68 Z" />
<path fill="#fcfdfd" stroke="#fcfdfd" stroke-width="0.09375" opacity="1.00" d=" M 349.93 465.92 C 359.47 457.45 368.55 448.47 378.46 440.43 C 378.59 445.46 379.34 450.56 378.49 455.56 C 376.46 459.06 373.06 461.45 370.10 464.12 C 342.99 488.66 315.84 513.16 289.18 538.19 C 269.34 556.39 250.34 575.49 230.96 594.18 C 230.99 588.59 230.20 582.90 231.27 577.39 C 233.84 573.66 237.37 570.73 240.51 567.51 C 254.27 554.62 267.94 541.63 281.55 528.58 C 290.00 521.37 297.93 513.61 305.96 505.95 C 320.82 492.83 335.12 479.09 349.93 465.92 Z" />
<path fill="#fcfdfd" stroke="#fcfdfd" stroke-width="0.09375" opacity="1.00" d=" M 328.51 464.05 C 335.74 457.44 343.41 451.34 350.84 444.96 C 352.33 446.32 353.84 447.66 355.38 448.97 C 348.16 456.01 340.35 462.41 333.09 469.40 C 331.60 467.59 330.06 465.81 328.51 464.05 Z" />
<path fill="#fcfdfd" stroke="#fcfdfd" stroke-width="0.09375" opacity="1.00" d=" M 747.07 457.98 C 756.91 457.38 766.30 453.69 774.80 448.83 C 773.95 453.73 773.55 458.84 771.43 463.40 C 768.75 467.48 764.16 469.74 759.94 471.89 C 752.54 475.57 744.02 477.85 735.79 476.03 C 728.74 474.72 722.32 471.25 716.76 466.83 C 718.00 462.28 718.98 457.66 719.83 453.03 C 728.62 455.87 737.72 458.67 747.07 457.98 Z" />
<path fill="#fcfdfd" stroke="#fcfdfd" stroke-width="0.09375" opacity="1.00" d=" M 361.58 484.25 C 366.89 478.81 372.57 473.77 378.43 468.94 C 378.57 474.93 378.82 480.91 378.70 486.90 C 372.94 486.41 367.23 485.49 361.58 484.25 Z" />
<path fill="#fcfdfd" stroke="#fcfdfd" stroke-width="0.09375" opacity="1.00" d=" M 633.09 468.94 C 642.92 475.24 652.16 484.77 653.52 496.86 C 648.86 496.62 644.09 496.23 639.82 494.19 C 633.96 491.63 629.48 486.87 625.56 481.97 C 628.13 477.66 630.68 473.34 633.09 468.94 Z" />
<path fill="#fcfdfd" stroke="#fcfdfd" stroke-width="0.09375" opacity="1.00" d=" M 654.23 477.26 C 665.02 478.51 675.51 474.54 684.52 468.90 C 681.41 475.42 678.32 482.10 673.72 487.72 C 670.83 491.38 666.54 493.41 662.32 495.11 C 660.50 488.80 657.66 482.84 654.23 477.26 Z" />
<path fill="#fcfdfd" stroke="#fcfdfd" stroke-width="0.09375" opacity="1.00" d=" M 296.93 491.81 C 304.29 484.82 312.26 478.54 319.96 471.94 C 321.08 474.00 322.19 476.07 323.31 478.14 C 316.49 485.01 309.28 491.48 301.81 497.63 C 300.21 495.66 298.59 493.72 296.93 491.81 Z" />
<path fill="#fcfdfd" stroke="#fcfdfd" stroke-width="0.09375" opacity="1.00" d=" M 713.92 475.94 C 724.03 482.10 736.04 486.18 747.97 484.33 C 755.14 483.43 761.83 480.53 768.13 477.12 C 766.18 482.95 764.42 488.94 761.16 494.21 C 757.01 501.01 749.38 504.65 742.11 507.17 C 728.92 511.84 713.39 508.86 703.01 499.44 C 707.29 491.92 710.82 484.01 713.92 475.94 Z" />
<path fill="#fcfdfd" stroke="#fcfdfd" stroke-width="0.09375" opacity="1.00" d=" M 620.37 489.63 C 626.19 495.39 632.61 501.02 640.62 503.41 C 647.04 505.49 653.91 505.73 660.55 504.72 C 655.28 511.34 649.34 517.57 642.19 522.17 C 637.75 525.10 632.15 524.83 627.06 524.65 C 616.71 524.01 605.85 520.00 599.52 511.41 C 606.88 504.57 614.04 497.46 620.37 489.63 Z" />
<path fill="#fcfdfd" stroke="#fcfdfd" stroke-width="0.09375" opacity="1.00" d=" M 348.07 496.07 C 350.31 494.14 352.65 491.43 355.95 492.13 C 363.62 492.88 371.12 494.79 378.71 496.12 C 378.39 499.62 379.68 504.01 376.64 506.63 C 371.10 512.07 365.19 517.14 359.98 522.91 C 348.84 520.93 337.43 519.90 326.79 515.83 C 333.70 509.05 340.96 502.63 348.07 496.07 Z" />
<path fill="#fcfdfd" stroke="#fcfdfd" stroke-width="0.09375" opacity="1.00" d=" M 269.84 515.77 C 275.76 510.24 282.03 505.12 288.28 499.97 C 289.92 501.93 291.55 503.90 293.18 505.86 C 287.65 511.59 281.65 516.85 275.76 522.20 C 273.96 519.89 272.01 517.72 269.84 515.77 Z" />
<path fill="#fcfdfd" stroke="#fcfdfd" stroke-width="0.09375" opacity="1.00" d=" M 699.15 507.99 C 710.10 515.32 723.64 519.11 736.77 516.90 C 742.38 516.09 747.72 514.10 752.95 511.98 C 749.26 519.27 745.03 526.43 739.29 532.30 C 734.28 537.37 726.80 538.53 720.00 538.94 C 710.58 539.03 700.64 536.95 693.28 530.73 C 690.98 528.86 688.97 526.67 686.92 524.55 C 691.10 519.11 695.10 513.53 699.15 507.99 Z" />
<path fill="#fcfdfd" stroke="#fcfdfd" stroke-width="0.09375" opacity="1.00" d=" M 571.71 527.53 C 578.71 524.46 585.16 520.31 592.06 517.03 C 594.22 526.10 594.64 535.46 596.80 544.53 C 591.84 546.58 586.71 548.24 581.42 549.17 C 576.76 542.71 572.95 535.49 571.71 527.53 Z" />
<path fill="#fcfdfd" stroke="#fcfdfd" stroke-width="0.09375" opacity="1.00" d=" M 359.21 536.21 C 365.39 530.10 371.48 523.86 378.29 518.45 C 378.67 528.62 378.67 538.81 378.57 548.98 C 378.74 551.84 376.08 553.50 374.33 555.32 C 361.23 566.86 348.83 579.16 335.87 590.85 C 307.29 617.61 279.02 644.68 250.66 671.67 C 243.98 677.88 237.81 684.62 230.98 690.68 C 230.72 682.43 230.99 674.19 230.80 665.95 C 231.00 663.64 230.38 660.90 232.08 659.04 C 236.53 653.84 241.91 649.56 246.63 644.63 C 259.98 631.97 272.82 618.81 286.34 606.34 C 298.07 594.72 309.93 583.25 321.91 571.90 C 334.08 559.73 347.18 548.52 359.21 536.21 Z" />
<path fill="#fcfdfd" stroke="#fcfdfd" stroke-width="0.09375" opacity="1.00" d=" M 319.17 523.00 C 329.78 526.49 340.75 528.54 351.70 530.60 C 346.71 536.62 340.72 541.66 335.28 547.25 C 333.83 548.69 332.22 550.43 329.95 549.93 C 319.05 548.91 308.22 546.38 298.17 541.97 C 305.11 535.57 312.07 529.21 319.17 523.00 Z" />
<path fill="#fcfdfd" stroke="#fcfdfd" stroke-width="0.09375" opacity="1.00" d=" M 240.06 542.06 C 246.97 535.96 254.12 530.13 261.02 524.00 C 262.71 526.30 264.47 528.54 266.22 530.80 C 259.83 537.46 253.04 543.72 246.18 549.88 C 244.25 547.18 242.23 544.56 240.06 542.06 Z" />
<path fill="#fcfdfd" stroke="#fcfdfd" stroke-width="0.09375" opacity="1.00" d=" M 601.88 525.37 C 609.88 529.77 618.82 532.58 628.03 532.35 C 620.66 536.48 613.03 540.11 605.01 542.79 C 603.77 537.02 602.62 531.22 601.88 525.37 Z" />
<path fill="#fcfdfd" stroke="#fcfdfd" stroke-width="0.09375" opacity="1.00" d=" M 548.45 535.55 C 553.39 533.73 558.43 532.18 563.50 530.78 C 565.44 538.27 568.74 545.32 573.28 551.58 C 567.15 553.54 560.88 555.01 554.66 556.62 C 550.06 550.57 548.58 542.99 548.45 535.55 Z" />
<path fill="#fcfdfd" stroke="#fcfdfd" stroke-width="0.09375" opacity="1.00" d=" M 675.15 542.09 C 675.81 537.96 678.73 534.75 681.08 531.46 C 686.87 536.28 692.57 541.64 699.89 544.02 C 708.65 547.30 718.17 547.65 727.38 546.62 C 722.12 553.83 715.63 560.13 708.53 565.52 C 703.11 569.62 695.81 567.97 689.86 566.10 C 680.09 562.91 673.67 552.21 675.15 542.09 Z" />
<path fill="#fcfdfd" stroke="#fcfdfd" stroke-width="0.09375" opacity="1.00" d=" M 516.52 540.35 C 524.49 539.07 532.51 538.15 540.50 536.95 C 540.59 544.25 542.39 551.38 545.22 558.08 C 538.58 559.85 531.84 561.18 525.01 561.94 C 520.83 555.35 517.73 548.08 516.52 540.35 Z" />
<path fill="#fcfdfd" stroke="#fcfdfd" stroke-width="0.09375" opacity="1.00" d=" M 408.58 541.27 C 411.77 541.26 414.96 541.26 418.15 541.25 C 414.87 545.62 411.70 550.08 408.21 554.28 C 408.20 549.94 408.40 545.60 408.58 541.27 Z" />
<path fill="#fcfdfd" stroke="#fcfdfd" stroke-width="0.09375" opacity="1.00" d=" M 431.59 541.75 C 435.94 540.78 440.47 541.25 444.89 541.03 C 444.92 549.90 446.30 558.94 450.85 566.70 C 445.31 565.96 439.63 566.36 434.18 565.02 C 432.15 564.49 431.21 562.38 430.22 560.75 C 428.26 556.82 426.48 552.63 426.22 548.20 C 427.20 545.56 429.37 543.42 431.59 541.75 Z" />
<path fill="#fcfdfd" stroke="#fcfdfd" stroke-width="0.09375" opacity="1.00" d=" M 453.46 541.46 C 461.48 541.04 469.50 541.28 477.53 541.17 C 477.58 550.02 479.03 558.88 482.54 567.04 C 475.54 567.25 468.40 567.68 461.48 566.51 C 455.05 559.98 453.25 550.32 453.46 541.46 Z" />
<path fill="#fcfdfd" stroke="#fcfdfd" stroke-width="0.09375" opacity="1.00" d=" M 486.14 541.42 C 493.54 541.09 500.95 541.19 508.36 541.14 C 509.15 549.16 512.42 556.63 516.10 563.71 C 508.49 565.50 500.68 565.99 492.97 567.13 C 487.61 559.70 485.57 550.46 486.14 541.42 Z" />
<path fill="#fcfdfd" stroke="#fcfdfd" stroke-width="0.09375" opacity="1.00" d=" M 649.23 563.35 C 651.78 554.94 659.51 549.84 666.20 544.87 C 666.77 553.53 670.09 562.42 676.97 568.02 C 682.11 572.54 688.72 574.87 695.34 576.20 C 686.87 582.51 678.01 588.81 667.91 592.14 C 655.07 589.99 645.74 576.00 649.23 563.35 Z" />
<path fill="#fcfdfd" stroke="#fcfdfd" stroke-width="0.09375" opacity="1.00" d=" M 271.46 567.52 C 277.57 560.88 284.51 555.09 291.14 548.99 C 301.44 552.91 312.13 555.54 322.74 558.45 C 316.79 565.02 310.13 570.90 303.88 577.18 C 292.75 575.30 281.55 572.74 271.46 567.52 Z" />
<path fill="#fcfdfd" stroke="#fcfdfd" stroke-width="0.09375" opacity="1.00" d=" M 231.19 551.37 C 233.34 553.53 235.43 555.76 237.52 557.99 C 235.38 560.42 233.22 562.85 231.04 565.25 C 230.85 560.62 230.83 555.99 231.19 551.37 Z" />
<path fill="#fcfdfd" stroke="#fcfdfd" stroke-width="0.09375" opacity="1.00" d=" M 412.54 563.27 C 414.49 559.99 416.73 556.88 419.21 553.97 C 420.17 557.50 421.42 560.95 422.86 564.32 C 419.42 563.99 415.97 563.64 412.54 563.27 Z" />
<path fill="#fcfdfd" stroke="#fcfdfd" stroke-width="0.09375" opacity="1.00" d=" M 579.93 559.05 C 586.18 557.23 592.35 555.08 598.76 553.89 C 596.19 560.93 590.71 567.43 583.26 569.39 C 565.47 574.77 547.25 578.55 529.03 582.08 C 514.82 584.75 500.45 586.64 486.01 587.26 C 462.91 587.42 439.69 586.38 416.98 581.91 C 414.14 581.32 411.35 580.56 408.58 579.74 C 408.44 576.95 408.35 574.17 408.27 571.39 C 430.78 573.66 453.33 576.41 476.00 575.92 C 501.35 576.26 526.29 571.06 551.01 566.05 C 560.70 563.92 570.38 561.73 579.93 559.05 Z" />
<path fill="#fcfdfd" stroke="#fcfdfd" stroke-width="0.09375" opacity="1.00" d=" M 618.15 587.20 C 619.96 575.25 630.44 567.48 640.33 562.03 C 639.47 569.99 640.26 578.43 644.70 585.31 C 647.66 590.66 652.62 594.36 657.51 597.81 C 648.12 602.66 637.99 605.83 627.85 608.66 C 621.85 603.31 616.34 595.71 618.15 587.20 Z" />
<path fill="#fcfdfd" stroke="#fcfdfd" stroke-width="0.09375" opacity="1.00" d=" M 359.99 581.98 C 366.07 576.16 372.04 570.22 378.33 564.63 C 378.64 575.44 378.63 586.26 378.70 597.08 C 379.12 600.55 376.13 602.78 374.00 605.00 C 331.87 644.52 290.00 684.33 247.99 723.99 C 242.43 729.40 237.00 734.95 230.99 739.87 C 230.72 728.91 230.82 717.93 230.91 706.96 C 230.69 704.22 232.83 702.32 234.53 700.52 C 276.28 660.93 317.97 621.28 359.99 581.98 Z" />
<path fill="#fcfdfd" stroke="#fcfdfd" stroke-width="0.09375" opacity="1.00" d=" M 240.88 596.88 C 248.67 589.56 256.35 582.11 264.10 574.74 C 274.43 578.44 284.83 581.93 295.46 584.68 C 289.40 591.54 282.49 597.56 276.05 604.05 C 274.49 605.51 272.84 607.55 270.43 606.79 C 260.16 605.12 249.83 602.35 240.88 596.88 Z" />
<path fill="#fcfdfd" stroke="#fcfdfd" stroke-width="0.09375" opacity="1.00" d=" M 562.87 587.87 C 567.56 583.21 574.00 581.25 580.02 578.98 C 573.71 591.08 573.10 605.71 577.99 618.40 C 569.09 620.16 560.03 621.07 550.97 620.90 C 548.16 608.68 553.68 595.93 562.87 587.87 Z" />
<path fill="#fcfdfd" stroke="#fcfdfd" stroke-width="0.09375" opacity="1.00" d=" M 526.30 593.32 C 534.67 589.05 544.17 588.06 553.22 585.97 C 549.39 591.10 545.21 596.23 543.48 602.52 C 541.47 608.51 541.77 614.89 542.24 621.09 C 532.12 621.24 521.99 621.33 511.87 620.90 C 511.83 610.12 516.82 598.94 526.30 593.32 Z" />
<path fill="#fcfdfd" stroke="#fcfdfd" stroke-width="0.09375" opacity="1.00" d=" M 408.69 589.35 C 417.23 590.68 425.74 592.22 434.30 593.41 C 429.11 601.72 425.34 611.00 424.60 620.85 C 419.34 620.85 414.09 620.62 408.83 620.59 C 408.54 610.18 408.66 599.76 408.69 589.35 Z" />
<path fill="#fcfdfd" stroke="#fcfdfd" stroke-width="0.09375" opacity="1.00" d=" M 490.14 597.04 C 497.34 593.96 505.44 594.70 513.03 593.30 C 510.06 597.67 507.03 602.11 505.37 607.17 C 503.71 611.74 503.44 616.63 503.17 621.44 C 495.08 621.54 486.99 621.30 478.93 620.55 C 479.00 611.65 482.81 602.33 490.14 597.04 Z" />
<path fill="#fcfdfd" stroke="#fcfdfd" stroke-width="0.09375" opacity="1.00" d=" M 443.77 596.79 C 445.10 595.37 446.92 594.47 448.90 594.68 C 459.00 594.79 469.09 595.49 479.20 595.36 C 473.55 602.65 470.65 611.59 470.00 620.74 C 457.82 620.62 445.65 620.70 433.48 620.65 C 434.13 611.86 437.47 603.08 443.77 596.79 Z" />
<path fill="#fcfdfd" stroke="#fcfdfd" stroke-width="0.09375" opacity="1.00" d=" M 230.77 611.92 C 230.69 608.54 233.62 606.38 235.53 603.98 C 244.19 609.45 254.29 611.77 263.98 614.71 C 258.65 620.67 252.81 626.17 247.11 631.78 C 241.75 630.98 236.41 630.11 231.05 629.40 C 230.76 623.58 230.48 617.74 230.77 611.92 Z" />
<path fill="#fcfdfd" stroke="#fcfdfd" stroke-width="0.09375" opacity="1.00" d=" M 351.56 653.57 C 360.51 645.22 369.27 636.66 378.48 628.59 C 378.60 637.73 378.77 646.87 378.57 656.01 C 378.75 659.38 375.60 661.37 373.57 663.58 C 346.69 688.70 319.41 713.39 292.73 738.74 C 280.72 750.05 268.57 761.24 256.37 772.35 C 247.98 780.10 239.90 788.20 231.05 795.44 C 230.87 787.59 230.86 779.75 230.78 771.91 C 230.29 765.94 236.03 762.47 239.51 758.52 C 276.73 723.40 313.97 688.29 351.56 653.57 Z" />
<path fill="#fcfdfd" stroke="#fcfdfd" stroke-width="0.09375" opacity="1.00" d=" M 231.10 637.87 C 233.59 638.55 236.07 639.28 238.54 640.05 C 236.14 642.87 233.53 645.52 230.91 648.15 C 230.84 644.72 230.89 641.29 231.10 637.87 Z" />
<path fill="#fcfdfd" stroke="#fcfdfd" stroke-width="0.09375" opacity="1.00" d=" M 355.68 706.69 C 363.28 699.97 370.52 692.83 378.43 686.47 C 378.73 695.30 378.79 704.15 378.62 712.98 C 378.78 715.57 376.48 717.19 374.89 718.87 C 334.22 755.86 293.25 792.53 252.90 829.88 C 245.54 836.46 238.68 843.63 230.90 849.73 C 230.72 842.12 230.91 834.52 230.75 826.92 C 230.39 822.56 234.28 819.78 236.86 816.87 C 262.67 791.98 289.65 768.35 315.63 743.65 C 328.90 731.24 342.41 719.09 355.68 706.69 Z" />
<path fill="#fcfdfd" stroke="#fcfdfd" stroke-width="0.09375" opacity="1.00" d=" M 335.20 767.21 C 349.82 754.50 363.65 740.90 378.54 728.50 C 378.62 733.31 379.00 738.13 378.65 742.94 C 378.70 745.24 376.85 746.83 375.36 748.32 C 347.98 772.93 320.37 797.30 293.44 822.41 C 277.35 837.68 260.99 852.66 244.53 867.53 C 241.47 870.11 238.71 873.38 234.86 874.78 C 232.89 875.69 231.61 873.29 231.05 871.78 C 230.38 868.15 229.80 863.56 232.80 860.79 C 239.18 854.15 246.45 848.46 253.20 842.21 C 280.48 817.15 307.75 792.09 335.20 767.21 Z" />
<path fill="#fcfdfd" stroke="#fcfdfd" stroke-width="0.09375" opacity="1.00" d=" M 371.56 764.58 C 373.56 762.28 376.09 760.53 378.45 758.62 C 378.75 795.38 378.46 832.16 378.54 868.92 C 378.82 872.93 374.27 873.73 371.34 874.58 C 370.59 865.07 371.04 855.52 370.94 846.00 C 370.92 822.66 371.01 799.33 370.86 776.00 C 370.96 772.20 370.28 768.23 371.56 764.58 Z" />
<path fill="#fcfdfd" stroke="#fcfdfd" stroke-width="0.09375" opacity="1.00" d=" M 340.33 792.34 C 347.45 785.64 354.61 778.98 362.10 772.70 C 362.85 806.54 362.12 840.41 362.59 874.26 C 354.44 874.46 346.28 874.41 338.13 874.27 C 338.19 848.81 338.17 823.35 338.18 797.90 C 338.11 795.81 338.64 793.69 340.33 792.34 Z" />
<path fill="#fcfdfd" stroke="#fcfdfd" stroke-width="0.09375" opacity="1.00" d=" M 312.49 817.51 C 318.28 812.25 323.82 806.72 329.85 801.74 C 330.35 825.94 329.75 850.13 329.88 874.33 C 322.16 874.43 314.45 874.38 306.74 874.34 C 306.45 859.89 306.77 845.44 306.47 830.99 C 306.50 828.41 306.30 825.77 306.97 823.26 C 308.47 821.04 310.58 819.34 312.49 817.51 Z" />
<path fill="#fcfdfd" stroke="#fcfdfd" stroke-width="0.09375" opacity="1.00" d=" M 275.09 852.10 C 282.75 845.29 289.92 837.96 297.76 831.36 C 298.59 845.63 297.95 859.94 298.17 874.23 C 288.50 874.56 278.81 874.50 269.14 874.24 C 269.40 868.96 268.58 863.61 269.42 858.39 C 270.78 855.87 273.08 854.06 275.09 852.10 Z" />
<path fill="#fcfdfd" stroke="#fcfdfd" stroke-width="0.09375" opacity="1.00" d=" M 250.60 874.48 C 253.95 871.39 257.34 868.34 260.63 865.20 C 260.74 868.33 260.75 871.47 260.81 874.61 C 257.41 874.60 254.00 874.59 250.60 874.48 Z" />
</g>
</svg>
