<?xml version="1.0" encoding="UTF-8" ?>
<!DOCTYPE svg PUBLIC "-//W3C//DTD SVG 1.1//EN" "http://www.w3.org/Graphics/SVG/1.1/DTD/svg11.dtd">
<svg width="1024pt" height="1024pt" viewBox="0 0 1024 1024" version="1.1" xmlns="http://www.w3.org/2000/svg">
<g id="#fdfffeff">
<path fill="#fdfffe" stroke="#fdfffe" stroke-width="0.09375" opacity="1.00" d=" M 0.00 0.00 L 1024.00 0.00 L 1024.00 1024.00 L 0.00 1024.00 L 0.00 0.00 M 401.43 53.58 C 328.28 54.25 255.12 53.88 181.97 54.04 C 160.04 54.52 137.82 64.89 125.05 83.04 C 116.56 94.90 112.69 109.54 112.60 124.01 C 112.25 195.01 111.85 266.01 111.73 337.00 C 111.67 412.00 110.62 487.00 110.37 561.99 C 109.68 612.66 109.50 663.33 109.25 714.00 C 109.29 736.00 108.63 758.00 108.72 780.00 C 108.70 820.67 107.86 861.33 107.88 901.99 C 107.88 922.91 117.93 943.70 134.69 956.30 C 147.61 965.39 163.21 970.85 179.03 971.36 C 228.35 971.32 277.67 971.52 327.00 971.27 C 336.68 971.20 346.37 971.53 356.04 971.00 C 374.86 969.84 393.78 961.66 405.84 946.86 C 415.55 935.61 420.95 920.82 421.23 906.00 C 420.57 831.00 420.80 756.00 420.68 681.00 C 420.68 676.65 420.61 672.29 420.94 667.95 C 421.36 660.92 425.90 654.10 432.56 651.55 C 440.55 648.25 450.62 649.97 456.56 656.42 C 461.09 661.27 463.71 667.47 466.78 673.28 C 482.54 703.74 498.74 733.97 514.59 764.39 C 542.45 818.51 570.74 872.41 598.42 926.63 C 605.36 939.91 615.35 952.03 628.72 959.21 C 641.89 966.47 657.01 969.76 672.00 969.54 C 730.00 969.78 788.00 969.77 846.00 969.56 C 858.82 969.42 871.76 970.08 884.40 967.45 C 899.71 964.21 914.84 957.21 925.12 945.09 C 935.33 932.93 941.19 916.94 940.37 901.01 C 939.79 889.69 935.18 879.08 929.74 869.31 C 925.41 861.64 920.97 854.03 916.49 846.46 C 872.43 772.78 827.92 699.37 782.43 626.58 C 778.83 620.29 774.22 614.55 771.39 607.86 C 771.83 606.44 773.56 606.37 774.71 605.81 C 784.34 602.57 793.73 598.59 802.58 593.60 C 827.08 580.08 846.81 559.26 862.05 536.03 C 877.97 511.73 889.79 484.83 898.06 457.02 C 903.19 438.05 906.71 418.61 908.22 399.01 C 909.75 385.72 908.26 372.36 908.30 359.04 C 906.24 324.47 898.58 290.27 886.07 257.98 C 872.37 221.74 853.56 187.17 828.33 157.62 C 806.95 132.43 781.10 111.17 752.84 94.11 C 734.90 83.45 715.76 74.93 696.18 67.75 C 674.18 60.13 651.42 53.49 627.99 52.82 C 552.47 52.92 476.95 53.26 401.43 53.58 Z" />
<path fill="#fdfffe" stroke="#fdfffe" stroke-width="0.09375" opacity="1.00" d=" M 250.72 99.53 C 268.14 99.76 285.60 99.40 303.01 100.37 C 313.79 100.42 324.52 101.84 335.11 103.81 C 342.82 105.14 350.76 107.07 357.11 111.89 C 362.75 116.24 366.23 123.03 367.08 130.04 C 354.51 129.89 341.68 131.00 330.00 136.00 C 323.02 138.76 317.08 143.40 310.86 147.48 C 308.08 140.58 306.44 133.12 302.05 126.97 C 294.66 114.98 282.04 107.01 268.65 103.31 C 262.83 101.35 256.57 101.40 250.72 99.53 Z" />
<path fill="#fdfffe" stroke="#fdfffe" stroke-width="0.09375" opacity="1.00" d=" M 363.01 99.04 C 364.46 99.26 365.92 99.46 367.39 99.64 C 367.47 101.15 367.56 102.65 367.66 104.16 C 365.75 102.82 364.27 101.00 363.01 99.04 Z" />
<path fill="#fdfffe" stroke="#fdfffe" stroke-width="0.09375" opacity="1.00" d=" M 378.49 99.27 C 388.26 98.98 398.05 99.14 407.84 99.28 C 408.07 141.85 407.86 184.43 407.95 227.00 C 407.88 235.59 408.10 244.18 407.80 252.77 C 395.33 259.26 384.67 269.43 378.70 282.26 C 378.21 275.85 378.57 269.42 378.49 263.00 C 378.65 208.43 378.28 153.85 378.49 99.27 Z" />
<path fill="#fdfffe" stroke="#fdfffe" stroke-width="0.09375" opacity="1.00" d=" M 419.44 98.89 C 421.68 99.65 423.95 100.59 425.47 102.49 C 436.46 114.57 442.49 130.11 447.50 145.40 C 454.08 167.95 455.67 191.67 454.98 215.05 C 454.19 224.59 453.38 234.27 450.40 243.43 C 446.31 243.91 442.18 243.92 438.08 244.26 C 431.63 244.98 425.38 246.83 419.16 248.62 C 418.88 213.08 419.20 177.54 419.11 142.00 C 419.26 127.64 418.68 113.25 419.44 98.89 M 430.43 154.52 C 424.98 156.00 423.31 164.67 428.40 167.60 C 432.79 171.04 439.67 167.30 439.87 161.93 C 440.42 157.01 435.09 152.81 430.43 154.52 M 433.44 204.39 C 428.35 206.61 427.63 214.60 432.42 217.54 C 436.59 220.59 442.76 217.47 443.55 212.56 C 445.13 206.98 438.59 201.75 433.44 204.39 Z" />
<path fill="#fdfffe" stroke="#fdfffe" stroke-width="0.09375" opacity="1.00" d=" M 437.79 99.01 C 445.43 98.90 453.09 98.74 460.73 99.13 C 472.20 120.91 478.46 145.02 482.58 169.16 C 487.11 193.75 486.74 219.19 481.71 243.68 C 475.27 244.06 468.83 243.84 462.39 243.85 C 464.06 232.97 466.15 222.06 465.83 211.00 C 466.45 177.99 461.88 144.01 446.72 114.31 C 444.06 109.02 440.64 104.18 437.79 99.01 Z" />
<path fill="#fdfffe" stroke="#fdfffe" stroke-width="0.09375" opacity="1.00" d=" M 473.27 98.95 C 485.80 98.65 498.34 98.90 510.88 98.86 C 507.04 104.56 504.02 111.01 503.71 117.98 C 502.64 136.43 508.70 154.19 511.97 172.12 C 515.96 193.73 517.18 216.44 510.79 237.71 C 510.05 239.79 509.32 242.06 507.58 243.53 C 502.80 244.21 497.95 243.81 493.15 243.76 C 495.74 223.99 497.43 203.89 495.06 184.01 C 493.01 162.90 488.53 142.07 482.21 121.84 C 479.71 114.03 476.24 106.58 473.27 98.95 Z" />
<path fill="#fdfffe" stroke="#fdfffe" stroke-width="0.09375" opacity="1.00" d=" M 519.85 105.88 C 523.21 102.13 527.63 98.51 532.95 98.63 C 538.34 98.59 543.74 98.59 549.13 98.79 C 543.62 105.86 538.32 113.48 536.48 122.41 C 532.99 139.01 535.83 156.12 539.67 172.39 C 542.83 185.54 544.76 199.12 543.69 212.66 C 542.88 223.11 541.77 233.80 537.61 243.54 C 532.05 243.98 526.47 243.88 520.90 243.65 C 522.07 236.95 524.01 230.39 524.81 223.62 C 527.54 205.13 525.55 186.30 521.87 168.10 C 518.94 154.74 515.33 141.45 514.45 127.74 C 513.64 120.18 514.65 111.80 519.85 105.88 Z" />
<path fill="#fdfffe" stroke="#fdfffe" stroke-width="0.09375" opacity="1.00" d=" M 559.44 104.41 C 562.95 101.41 567.04 98.24 571.95 98.61 C 581.71 98.87 591.49 98.41 601.25 98.72 C 587.53 108.90 573.88 121.30 569.22 138.36 C 563.58 158.75 571.20 179.43 570.70 200.00 C 570.52 214.81 569.36 230.51 561.40 243.42 C 557.60 243.81 553.77 243.90 549.96 243.76 C 553.55 227.04 555.87 209.86 554.22 192.75 C 551.55 171.62 542.64 150.82 546.18 129.24 C 547.39 119.69 552.17 110.71 559.44 104.41 Z" />
<path fill="#fdfffe" stroke="#fdfffe" stroke-width="0.09375" opacity="1.00" d=" M 167.76 109.79 C 173.27 103.36 181.88 100.64 190.14 100.48 C 201.98 100.19 213.85 100.09 225.69 100.44 C 230.22 107.41 230.12 116.04 229.72 124.02 C 229.70 136.21 228.39 148.80 232.46 160.55 C 237.13 175.44 248.08 187.90 261.61 195.47 C 270.95 200.86 281.42 204.10 292.03 205.83 C 306.26 208.13 320.85 205.03 335.01 208.03 C 347.01 210.93 356.14 220.52 361.94 231.00 C 367.39 240.61 367.51 252.08 367.00 262.82 C 357.35 263.34 347.67 262.93 338.00 263.03 C 313.34 262.63 288.67 262.27 264.00 262.22 C 243.72 261.00 223.38 261.79 203.07 261.41 C 188.72 260.08 174.29 261.09 159.91 260.69 C 159.38 251.54 159.61 242.34 159.79 233.18 C 176.21 232.97 192.63 233.42 209.05 233.32 C 211.72 233.45 214.65 232.20 215.53 229.51 C 217.09 225.91 213.95 221.59 210.04 221.98 C 193.37 221.66 176.68 222.49 160.01 221.94 C 159.74 214.32 159.79 206.69 160.05 199.07 C 181.38 198.52 202.73 199.06 224.06 199.00 C 227.94 199.48 231.62 195.02 229.74 191.40 C 228.76 189.18 226.35 188.22 224.05 188.29 C 202.69 188.26 181.30 188.53 159.94 188.15 C 159.74 181.41 159.81 174.66 159.92 167.92 C 177.63 167.36 195.35 168.29 213.06 167.79 C 216.29 168.15 218.54 164.96 218.86 162.08 C 218.39 159.32 215.99 156.82 213.05 156.97 C 195.48 156.68 177.90 156.94 160.33 156.69 C 160.17 148.78 160.44 140.86 160.38 132.95 C 160.40 124.77 161.94 115.95 167.76 109.79 M 195.39 115.37 C 190.57 115.87 186.45 119.62 185.06 124.18 C 183.55 129.66 186.31 136.12 191.58 138.45 C 198.07 141.34 206.65 137.50 208.51 130.56 C 210.58 122.83 203.45 114.27 195.39 115.37 M 254.39 212.41 C 247.77 214.24 243.86 221.90 245.67 228.39 C 247.02 233.92 252.42 237.89 258.01 238.11 C 265.41 238.43 272.59 231.61 271.33 224.01 C 270.64 216.11 262.05 209.95 254.39 212.41 M 303.40 223.44 C 294.86 225.94 292.67 238.90 300.08 243.92 C 307.08 249.61 319.56 244.29 319.45 235.00 C 319.97 226.87 310.99 220.19 303.40 223.44 M 348.32 233.26 C 341.78 236.03 342.07 246.80 348.59 249.43 C 355.18 252.87 363.59 244.51 360.09 237.92 C 358.22 233.49 352.74 231.23 348.32 233.26 Z" />
<path fill="#fdfffe" stroke="#fdfffe" stroke-width="0.09375" opacity="1.00" d=" M 599.26 114.26 C 606.92 108.11 615.25 101.89 625.20 100.31 C 632.12 99.67 639.10 100.71 645.83 102.34 C 645.83 104.18 645.86 106.04 645.63 107.88 C 636.49 157.98 626.40 207.93 615.65 257.71 C 609.66 254.39 603.63 251.10 597.16 248.78 C 590.01 246.04 582.43 244.80 574.89 243.64 C 575.96 238.30 577.91 233.19 578.89 227.83 C 580.90 217.03 581.83 206.01 581.35 195.02 C 581.25 178.76 576.17 162.68 578.57 146.39 C 580.46 133.29 589.41 122.51 599.26 114.26 M 612.43 127.45 C 606.43 129.23 606.33 139.02 612.23 140.99 C 617.61 143.19 623.47 136.94 621.40 131.66 C 620.42 127.91 615.91 126.03 612.43 127.45 M 610.39 170.35 C 604.77 171.44 602.63 179.33 606.79 183.21 C 610.22 186.89 617.02 185.23 618.49 180.45 C 621.00 175.38 615.89 168.94 610.39 170.35 M 600.36 212.28 C 594.31 213.67 592.55 222.85 597.57 226.43 C 601.84 230.22 609.33 226.58 609.42 220.98 C 610.44 215.93 605.29 211.20 600.36 212.28 Z" />
<path fill="#fdfffe" stroke="#fdfffe" stroke-width="0.09375" opacity="1.00" d=" M 239.85 106.07 C 245.04 109.03 249.72 112.83 253.76 117.24 C 260.98 124.92 268.68 133.05 271.30 143.58 C 274.66 155.80 271.92 168.48 272.06 180.90 C 274.48 182.40 277.08 183.61 279.87 184.24 C 282.63 178.92 282.68 172.83 283.27 167.01 C 283.77 155.90 283.58 144.35 279.01 134.00 C 275.59 125.42 269.28 118.52 262.99 111.95 C 276.90 115.62 289.95 124.59 296.19 137.84 C 301.56 148.36 301.84 160.45 301.76 172.00 C 301.60 179.98 301.96 187.97 301.67 195.95 C 287.00 195.99 272.61 190.64 260.69 182.27 C 248.32 173.22 240.39 158.44 240.16 143.07 C 240.25 130.73 240.33 118.40 239.85 106.07 Z" />
<path fill="#fdfffe" stroke="#fdfffe" stroke-width="0.09375" opacity="1.00" d=" M 656.94 106.18 C 664.54 107.15 671.85 109.54 679.10 111.93 C 695.40 117.31 711.21 124.27 726.01 132.99 C 735.40 138.62 744.63 144.86 752.05 153.00 C 761.40 165.90 767.41 180.78 773.63 195.35 C 788.29 230.79 796.89 268.72 799.04 307.00 C 799.09 317.01 799.13 327.03 799.00 337.04 C 796.49 379.04 787.43 421.03 769.06 459.05 C 757.59 483.07 742.42 505.26 724.70 525.11 C 711.76 514.97 698.43 505.31 684.61 496.40 C 661.93 481.97 638.06 469.46 613.56 458.44 C 608.93 456.36 604.10 454.58 599.99 451.55 C 611.74 446.60 623.13 440.29 632.24 431.23 C 634.36 429.05 636.48 426.85 638.81 424.88 C 649.97 433.25 661.99 441.42 675.99 443.94 C 689.34 446.66 703.78 442.97 714.25 434.26 C 726.96 424.00 735.20 409.36 741.59 394.58 C 747.15 382.16 750.20 368.81 752.40 355.44 C 754.83 341.44 754.78 327.18 754.19 313.03 C 752.60 292.01 747.38 271.11 737.72 252.30 C 731.24 240.09 722.65 228.86 711.87 220.15 C 699.93 210.19 685.89 203.04 671.39 197.63 C 661.66 194.00 651.43 192.12 641.49 189.21 C 644.86 170.18 648.45 151.18 652.10 132.20 C 653.95 123.57 654.87 114.76 656.94 106.18 M 704.49 153.58 C 698.49 154.51 694.50 161.06 696.03 166.85 C 697.04 171.86 701.86 175.67 707.01 175.31 C 713.93 175.24 719.41 167.53 717.06 160.99 C 715.59 155.70 709.80 152.35 704.49 153.58 Z" />
<path fill="#fdfffe" stroke="#fdfffe" stroke-width="0.09375" opacity="1.00" d=" M 323.65 151.75 C 335.78 142.48 351.95 139.79 366.87 141.10 C 367.53 153.13 367.29 165.20 366.87 177.23 C 356.77 178.49 345.66 176.15 338.47 168.52 C 333.45 163.01 329.02 156.96 323.65 151.75 Z" />
<path fill="#fdfffe" stroke="#fdfffe" stroke-width="0.09375" opacity="1.00" d=" M 311.84 159.73 C 321.33 160.98 325.15 170.75 331.37 176.65 C 340.54 186.13 354.44 187.87 366.96 188.43 C 367.51 198.11 367.47 207.85 366.97 217.54 C 362.92 213.76 359.65 209.14 354.98 206.05 C 346.45 199.50 335.76 196.11 325.05 196.03 C 320.73 196.04 316.42 196.15 312.11 195.92 C 311.94 183.86 311.61 171.79 311.84 159.73 Z" />
<path fill="#fdfffe" stroke="#fdfffe" stroke-width="0.09375" opacity="1.00" d=" M 774.93 170.06 C 786.45 181.28 797.51 193.09 806.57 206.42 C 812.82 215.64 819.16 224.89 823.98 234.96 C 821.71 236.68 819.10 238.12 817.44 240.49 C 815.29 243.83 818.06 248.74 821.97 248.73 C 824.63 248.18 827.09 246.95 829.65 246.06 C 834.32 255.05 838.93 264.19 841.98 273.88 C 836.86 276.64 830.80 277.56 826.14 281.12 C 822.38 284.14 825.27 290.86 829.98 290.36 C 835.39 289.51 839.96 286.14 845.12 284.46 C 849.19 293.95 852.15 303.96 854.32 314.04 C 846.87 316.34 838.86 315.96 831.49 318.52 C 827.97 319.70 826.83 324.88 829.76 327.28 C 831.50 329.06 834.16 329.01 836.43 328.54 C 843.23 327.24 849.99 325.52 856.92 325.04 C 859.70 336.49 861.08 348.31 861.40 360.09 C 851.20 359.24 841.20 356.75 831.00 356.00 C 827.62 355.49 823.97 358.34 824.62 361.94 C 824.86 365.20 828.23 366.63 831.08 366.86 C 841.29 368.07 851.54 369.21 861.58 371.55 C 862.53 383.70 861.42 395.89 859.89 407.94 C 851.25 407.41 842.67 405.94 834.00 406.03 C 829.54 406.11 824.94 405.38 820.61 406.64 C 817.14 407.70 816.02 412.87 818.74 415.26 C 821.24 417.61 824.93 416.86 828.03 416.81 C 838.03 415.96 848.14 416.96 857.86 419.39 C 856.69 429.40 854.22 439.22 851.50 448.91 C 848.44 448.40 845.43 447.62 842.54 446.53 C 828.72 441.42 813.07 440.08 798.99 444.92 C 794.97 446.27 791.08 448.00 786.94 448.93 C 787.92 441.49 791.85 434.88 793.75 427.67 C 804.51 391.52 811.23 353.81 810.23 316.00 C 810.49 304.94 809.38 293.92 807.83 282.99 C 805.12 261.04 800.16 239.42 793.71 218.28 C 788.30 201.89 781.72 185.92 774.93 170.06 Z" />
<path fill="#fdfffe" stroke="#fdfffe" stroke-width="0.09375" opacity="1.00" d=" M 639.22 200.08 C 654.58 202.48 669.45 207.72 683.34 214.64 C 700.17 223.14 715.40 235.61 725.01 252.01 C 740.39 277.97 745.70 309.11 743.15 338.94 C 742.02 359.28 737.25 379.60 727.83 397.74 C 722.39 408.94 715.27 419.65 705.25 427.26 C 697.93 432.75 688.30 435.74 679.21 433.78 C 673.54 432.78 668.05 430.79 663.07 427.90 C 656.95 424.35 650.87 420.48 646.10 415.18 C 651.59 407.24 656.62 398.86 659.69 389.66 C 660.71 386.55 661.80 383.46 663.07 380.45 C 669.08 382.04 675.49 383.62 681.60 381.58 C 693.19 378.22 701.07 367.55 704.41 356.39 C 711.02 334.25 709.01 309.99 700.34 288.69 C 693.36 272.33 681.09 258.24 665.56 249.47 C 655.09 243.26 642.72 241.03 630.66 241.84 C 631.62 234.75 633.69 227.87 634.88 220.82 C 636.39 213.92 637.19 206.86 639.22 200.08 Z" />
<path fill="#fdfffe" stroke="#fdfffe" stroke-width="0.09375" opacity="1.00" d=" M 629.15 252.93 C 638.04 250.45 647.36 252.85 655.56 256.51 C 671.02 263.85 683.58 276.98 690.29 292.72 C 697.81 310.16 699.87 330.07 695.64 348.62 C 693.71 356.97 689.54 365.45 681.97 370.00 C 676.89 373.09 670.67 372.32 665.08 371.49 C 666.78 358.66 667.35 345.58 665.23 332.76 C 661.04 310.08 650.60 288.22 633.97 272.04 C 631.63 269.63 628.63 267.75 626.90 264.81 C 626.82 260.74 628.13 256.83 629.15 252.93 Z" />
<path fill="#fdfffe" stroke="#fdfffe" stroke-width="0.09375" opacity="1.00" d=" M 159.94 271.31 C 168.66 271.07 177.39 271.10 186.09 271.60 C 197.06 272.10 208.04 271.46 219.00 271.99 C 229.02 272.87 239.10 271.58 249.11 272.66 C 259.39 273.14 269.70 272.60 279.99 272.86 C 295.95 274.29 312.02 272.46 327.96 274.12 C 341.14 273.76 354.29 274.44 367.46 274.38 C 367.52 280.12 367.68 285.86 367.59 291.60 C 355.41 291.97 343.18 292.28 331.04 291.17 C 320.98 290.89 310.88 291.73 300.86 290.46 C 288.24 289.93 275.57 291.01 262.98 289.72 C 247.00 289.47 231.01 289.74 215.03 289.51 C 203.45 288.22 191.79 289.86 180.21 288.72 C 173.42 288.03 166.59 288.74 159.79 288.38 C 159.45 282.69 159.41 276.98 159.94 271.31 Z" />
<path fill="#fdfffe" stroke="#fdfffe" stroke-width="0.09375" opacity="1.00" d=" M 444.42 292.67 C 452.23 291.49 460.14 292.05 468.00 292.00 C 497.00 292.02 526.00 292.04 555.00 291.97 C 561.32 292.10 567.70 291.76 573.93 293.01 C 588.30 295.67 600.98 305.11 608.41 317.59 C 616.67 330.19 618.27 345.94 616.40 360.59 C 613.90 376.00 605.65 390.74 592.77 399.81 C 585.61 405.02 577.01 408.64 568.06 408.82 C 527.69 408.86 487.32 408.88 446.94 408.88 C 440.00 408.96 432.88 407.06 427.57 402.42 C 421.04 397.47 418.03 389.06 418.10 381.06 C 418.05 362.03 418.06 342.99 418.09 323.96 C 417.98 317.18 419.60 310.18 423.71 304.69 C 428.58 298.05 436.40 294.01 444.42 292.67 Z" />
<path fill="#fdfffe" stroke="#fdfffe" stroke-width="0.09375" opacity="1.00" d=" M 159.92 299.32 C 169.95 299.04 179.97 299.75 190.00 299.56 C 209.63 300.42 229.30 299.72 248.93 300.29 C 262.61 301.66 276.41 299.73 290.04 301.62 C 299.68 301.98 309.35 300.89 318.97 301.90 C 328.56 302.66 338.19 301.69 347.78 302.37 C 354.42 303.27 361.13 302.74 367.80 303.11 C 368.06 308.29 368.09 313.47 367.74 318.65 C 358.51 319.05 349.26 318.84 340.05 318.17 C 312.69 318.12 285.33 317.95 257.98 317.95 C 233.68 316.52 209.29 318.18 184.99 316.64 C 176.60 316.59 168.21 316.93 159.82 316.71 C 159.12 310.93 159.29 305.09 159.92 299.32 Z" />
<path fill="#fdfffe" stroke="#fdfffe" stroke-width="0.09375" opacity="1.00" d=" M 159.31 327.42 C 188.20 327.70 217.10 327.74 245.99 327.77 C 264.63 328.70 283.30 328.11 301.95 328.79 C 313.40 329.17 324.90 328.12 336.32 329.35 C 346.81 329.87 357.35 328.99 367.84 329.95 C 367.99 334.56 367.97 339.16 367.71 343.77 C 348.15 344.41 328.56 343.96 308.99 344.07 C 261.67 344.18 214.34 344.48 167.01 344.40 C 164.40 344.38 161.80 344.21 159.20 344.05 C 159.07 338.51 159.06 332.96 159.31 327.42 Z" />
<path fill="#fdfffe" stroke="#fdfffe" stroke-width="0.09375" opacity="1.00" d=" M 270.01 354.30 C 294.33 353.77 318.67 354.37 342.99 354.62 C 351.26 354.50 359.54 354.24 367.79 354.83 C 368.10 360.82 368.34 366.82 367.86 372.81 C 358.68 371.37 349.05 369.81 340.05 373.01 C 333.35 375.26 327.68 379.77 323.05 385.02 C 320.36 387.88 317.83 391.28 313.97 392.61 C 311.11 392.13 308.84 390.13 306.73 388.29 C 294.49 376.96 283.41 364.33 270.01 354.30 Z" />
<path fill="#fdfffe" stroke="#fdfffe" stroke-width="0.09375" opacity="1.00" d=" M 159.33 355.23 C 180.21 354.77 201.11 355.30 222.00 355.28 C 226.07 355.26 230.15 355.29 234.20 355.74 C 241.00 356.44 248.09 355.94 254.59 358.46 C 263.16 361.82 270.25 367.90 276.85 374.17 C 285.32 382.35 293.34 391.05 302.47 398.52 C 306.84 402.10 312.88 404.74 318.48 402.48 C 328.23 398.52 332.78 387.43 342.66 383.62 C 350.71 380.13 359.62 382.21 367.77 384.19 C 367.97 398.40 367.61 412.62 367.56 426.84 C 360.72 427.46 353.85 426.92 347.00 426.98 C 335.98 426.88 324.97 426.99 313.96 426.85 C 299.32 426.20 285.93 418.44 276.13 407.88 C 267.78 399.24 261.18 388.71 251.00 381.99 C 244.60 377.36 236.81 375.12 229.04 374.23 C 221.55 373.44 213.72 374.41 207.05 378.07 C 199.76 381.86 195.12 389.14 187.89 393.03 C 183.86 389.24 181.36 384.26 178.16 379.83 C 173.20 372.79 166.61 367.13 159.28 362.68 C 159.28 360.20 159.29 357.71 159.33 355.23 Z" />
<path fill="#fdfffe" stroke="#fdfffe" stroke-width="0.09375" opacity="1.00" d=" M 159.13 375.75 C 167.37 380.62 171.60 389.54 177.07 396.97 C 180.07 401.32 185.46 404.47 190.84 403.02 C 200.02 400.46 204.64 390.99 212.97 386.98 C 222.62 382.55 234.16 384.71 243.10 389.87 C 254.36 396.38 261.05 407.96 269.99 417.02 C 273.56 421.08 278.28 423.83 282.27 427.43 C 266.53 428.24 250.76 427.34 235.02 427.81 C 225.02 428.38 215.01 427.79 205.00 427.89 C 189.63 428.03 174.26 428.31 158.89 427.93 C 158.71 418.62 159.02 409.31 158.95 400.01 C 159.09 391.92 158.57 383.83 159.13 375.75 Z" />
<path fill="#fdfffe" stroke="#fdfffe" stroke-width="0.09375" opacity="1.00" d=" M 378.46 422.00 C 384.28 435.03 395.34 444.99 407.96 451.30 C 408.40 467.52 408.01 483.77 408.09 500.00 C 408.11 534.35 408.00 568.71 408.22 603.06 C 408.16 604.65 408.16 606.72 406.33 607.34 C 398.23 611.84 390.85 617.91 385.73 625.70 C 382.95 629.88 381.25 634.63 379.18 639.18 C 378.53 623.46 379.00 607.72 378.82 592.00 C 378.46 571.32 378.77 550.65 378.71 529.97 C 378.27 493.98 378.73 457.99 378.46 422.00 Z" />
<path fill="#fdfffe" stroke="#fdfffe" stroke-width="0.09375" opacity="1.00" d=" M 158.76 438.69 C 198.16 438.31 237.58 438.42 276.99 438.07 C 300.99 437.70 325.00 437.90 349.00 437.88 C 355.20 437.93 361.41 437.68 367.61 438.15 C 367.61 445.22 367.75 452.30 367.41 459.38 C 319.61 459.62 271.80 459.52 224.00 459.70 C 202.31 459.62 180.62 459.87 158.93 459.59 C 158.38 452.64 158.69 445.66 158.76 438.69 Z" />
<path fill="#fdfffe" stroke="#fdfffe" stroke-width="0.09375" opacity="1.00" d=" M 795.98 457.14 C 806.91 451.50 820.05 451.03 831.79 454.23 C 837.14 455.76 842.47 457.43 847.49 459.87 C 845.47 466.10 842.61 472.00 839.91 477.96 C 837.51 483.07 835.21 488.27 832.05 492.98 C 823.01 488.12 815.36 481.08 808.57 473.46 C 804.05 468.29 799.41 463.13 795.98 457.14 Z" />
<path fill="#fdfffe" stroke="#fdfffe" stroke-width="0.09375" opacity="1.00" d=" M 419.39 455.32 C 431.88 456.80 444.46 456.22 457.00 456.37 C 471.74 456.46 486.47 456.20 501.21 456.34 C 499.76 459.39 497.94 462.23 495.84 464.87 C 484.31 479.80 471.48 494.24 455.41 504.41 C 444.65 511.30 432.08 514.94 419.41 515.96 C 419.55 495.75 419.11 475.53 419.39 455.32 Z" />
<path fill="#fdfffe" stroke="#fdfffe" stroke-width="0.09375" opacity="1.00" d=" M 512.20 461.19 C 513.78 459.23 515.04 456.07 518.06 456.36 C 532.40 456.32 546.75 456.40 561.10 456.39 C 558.42 462.60 554.25 467.96 550.53 473.55 C 540.54 488.25 528.94 501.81 516.56 514.54 C 498.46 532.75 477.90 549.12 454.02 559.01 C 442.96 563.47 431.45 567.50 419.42 567.98 C 419.53 554.35 419.02 540.71 419.41 527.09 C 432.45 525.38 445.65 522.82 457.19 516.20 C 480.23 503.38 497.29 482.45 512.20 461.19 Z" />
<path fill="#fdfffe" stroke="#fdfffe" stroke-width="0.09375" opacity="1.00" d=" M 574.79 456.81 C 578.00 455.86 581.62 455.94 584.70 457.31 C 603.74 466.22 623.21 474.25 641.69 484.32 C 657.61 492.51 672.95 501.75 688.00 511.44 C 687.42 513.59 686.72 515.72 685.77 517.73 C 678.18 533.44 670.30 549.07 660.61 563.60 C 640.07 595.75 614.39 625.25 582.43 646.45 C 566.42 657.59 549.06 666.74 531.02 674.10 C 528.12 675.32 525.14 676.30 522.13 677.19 C 514.64 662.80 508.06 647.93 500.40 633.63 C 493.52 620.66 482.24 609.74 468.31 604.69 C 452.75 598.68 435.50 598.96 419.41 602.53 C 419.54 594.59 419.05 586.65 419.62 578.72 C 428.69 577.50 437.86 576.44 446.58 573.53 C 465.32 567.26 482.83 557.54 498.49 545.52 C 512.32 535.16 524.39 522.69 536.10 510.05 C 548.03 497.04 558.36 482.67 567.87 467.83 C 570.27 464.22 571.95 460.11 574.79 456.81 M 592.33 545.08 C 589.07 546.60 588.51 550.83 590.39 553.64 C 594.65 561.29 599.30 568.74 603.69 576.33 C 605.45 579.13 607.08 582.30 610.02 584.07 C 614.01 586.53 619.53 581.03 617.04 577.04 C 614.32 571.56 610.63 566.65 607.63 561.33 C 604.79 556.79 602.71 551.82 599.73 547.37 C 598.25 544.92 594.90 543.83 592.33 545.08 M 551.33 581.13 C 549.10 581.97 547.14 584.28 547.93 586.79 C 549.09 591.32 551.44 595.43 553.20 599.75 C 556.30 606.40 558.53 613.47 561.98 619.95 C 564.04 624.24 571.28 622.40 571.69 617.89 C 571.26 613.78 569.17 610.09 567.69 606.30 C 564.52 599.05 562.07 591.50 558.53 584.42 C 557.37 581.70 554.18 579.94 551.33 581.13 M 498.49 602.45 C 495.64 603.40 494.34 606.70 495.38 609.44 C 497.51 616.64 500.71 623.48 503.46 630.47 C 504.99 633.89 506.09 637.60 508.45 640.59 C 511.51 643.24 518.13 640.46 517.17 636.08 C 516.03 630.98 513.31 626.43 511.51 621.56 C 509.17 616.14 507.65 610.36 504.85 605.14 C 503.77 602.79 500.90 601.70 498.49 602.45 Z" />
<path fill="#fdfffe" stroke="#fdfffe" stroke-width="0.09375" opacity="1.00" d=" M 776.36 469.37 C 778.25 465.46 779.99 461.44 782.70 458.02 C 787.31 462.93 790.83 468.71 795.13 473.88 C 801.40 481.55 808.26 488.80 816.01 494.99 C 819.39 497.62 822.99 499.97 826.17 502.86 C 821.24 510.92 815.97 518.95 809.08 525.47 C 800.78 519.72 793.09 513.16 785.54 506.47 C 783.37 504.48 780.31 503.15 777.40 504.22 C 774.43 505.86 773.29 510.54 776.09 512.89 C 784.09 520.15 793.37 526.00 800.79 533.91 C 793.51 541.50 785.17 548.26 775.88 553.23 C 771.95 548.99 769.83 543.39 765.72 539.32 C 762.74 536.30 756.45 538.61 756.63 542.98 C 757.45 549.23 764.00 552.66 765.21 558.75 C 763.26 559.25 761.31 560.33 759.25 559.93 C 757.49 559.07 756.11 557.64 754.71 556.31 C 747.10 548.59 739.57 540.74 731.30 533.72 C 735.33 528.63 740.05 524.15 744.16 519.13 C 756.87 503.94 767.42 487.02 776.36 469.37 Z" />
<path fill="#fdfffe" stroke="#fdfffe" stroke-width="0.09375" opacity="1.00" d=" M 168.19 470.27 C 181.77 470.35 195.36 470.16 208.93 470.42 C 208.98 479.03 205.43 487.10 201.64 494.65 C 196.72 503.71 190.61 512.36 182.51 518.85 C 181.07 516.75 179.76 514.54 178.95 512.12 C 174.12 498.52 171.11 484.37 168.19 470.27 Z" />
<path fill="#fdfffe" stroke="#fdfffe" stroke-width="0.09375" opacity="1.00" d=" M 220.11 470.26 C 227.03 470.12 233.97 469.72 240.88 470.22 C 242.60 470.14 243.05 471.99 243.72 473.19 C 246.67 479.63 248.81 486.47 249.81 493.49 C 239.05 496.11 227.92 498.43 218.44 504.46 C 210.83 509.39 203.89 516.20 200.93 524.97 C 199.11 529.97 198.65 535.33 198.36 540.61 C 192.29 543.01 185.85 544.67 180.40 548.40 C 170.77 554.87 162.75 565.10 162.00 577.03 C 161.55 585.90 167.29 593.95 174.66 598.37 C 183.57 603.79 194.22 604.62 204.38 605.21 C 200.43 610.13 194.95 613.42 189.55 616.51 C 179.39 622.13 168.50 626.57 157.08 628.82 C 156.97 607.07 157.14 585.32 157.46 563.57 C 157.82 554.39 157.17 545.18 157.98 536.02 C 158.41 516.18 157.59 496.31 158.46 476.49 C 159.48 477.95 160.19 479.61 160.47 481.39 C 162.52 492.74 165.22 504.00 169.10 514.88 C 170.49 518.59 171.76 522.53 174.45 525.55 C 178.27 529.49 184.98 529.31 189.30 526.28 C 206.82 512.92 216.80 491.69 220.11 470.26 Z" />
<path fill="#fdfffe" stroke="#fdfffe" stroke-width="0.09375" opacity="1.00" d=" M 253.84 470.17 C 262.07 469.94 270.33 469.83 278.55 470.29 C 286.59 491.02 287.56 514.10 283.78 535.86 C 274.02 586.80 237.00 631.54 188.86 650.80 C 178.50 655.05 167.83 658.69 156.78 660.62 C 156.51 653.77 156.52 646.92 156.86 640.09 C 176.02 635.48 194.86 627.88 210.13 615.17 C 219.96 607.72 228.28 598.52 235.94 588.91 C 246.28 575.60 253.66 560.08 257.73 543.74 C 262.73 522.67 263.12 500.16 256.62 479.37 C 255.65 476.31 254.68 473.26 253.84 470.17 Z" />
<path fill="#fdfffe" stroke="#fdfffe" stroke-width="0.09375" opacity="1.00" d=" M 289.89 470.30 C 302.23 469.96 314.58 470.21 326.92 470.20 C 328.03 473.24 329.28 476.61 328.10 479.84 C 326.29 484.10 322.79 487.45 318.95 489.94 C 311.72 494.38 303.74 497.77 295.29 498.93 C 294.20 489.25 292.00 479.79 289.89 470.30 Z" />
<path fill="#fdfffe" stroke="#fdfffe" stroke-width="0.09375" opacity="1.00" d=" M 338.63 469.94 C 348.07 469.08 357.59 469.64 367.05 469.88 C 367.33 473.73 367.46 477.59 367.26 481.45 C 359.58 479.36 352.35 475.98 344.97 473.07 C 342.76 472.23 340.64 471.18 338.63 469.94 Z" />
<path fill="#fdfffe" stroke="#fdfffe" stroke-width="0.09375" opacity="1.00" d=" M 337.45 481.17 C 346.15 483.74 354.33 487.77 362.65 491.32 C 363.96 492.22 367.02 492.81 366.27 494.94 C 363.75 502.13 358.58 507.97 353.72 513.69 C 351.82 516.02 349.60 518.06 347.17 519.83 C 344.05 517.92 340.98 515.91 337.66 514.37 C 328.11 510.19 317.59 509.14 307.76 505.83 C 316.01 502.68 324.67 499.44 330.76 492.74 C 333.88 489.47 335.69 485.27 337.45 481.17 Z" />
<path fill="#fdfffe" stroke="#fdfffe" stroke-width="0.09375" opacity="1.00" d=" M 222.16 514.15 C 230.90 508.72 240.83 504.96 251.13 504.09 C 252.31 518.51 250.82 533.32 246.01 547.01 C 233.70 543.04 221.09 539.49 208.05 539.46 C 208.00 529.34 213.58 519.49 222.16 514.15 Z" />
<path fill="#fdfffe" stroke="#fdfffe" stroke-width="0.09375" opacity="1.00" d=" M 295.29 510.32 C 303.84 513.82 312.43 517.30 321.42 519.51 C 326.79 521.07 332.82 521.84 336.99 525.95 C 335.93 528.70 333.77 530.77 331.22 532.16 C 324.45 536.09 316.98 539.65 308.99 539.54 C 303.49 539.46 298.58 536.62 294.20 533.56 C 294.95 525.83 295.62 518.09 295.29 510.32 Z" />
<path fill="#fdfffe" stroke="#fdfffe" stroke-width="0.09375" opacity="1.00" d=" M 356.87 524.85 C 360.51 522.00 363.36 518.27 367.11 515.54 C 367.38 524.94 363.93 533.79 361.71 542.78 C 357.19 558.70 353.47 574.90 347.35 590.32 C 327.31 638.93 297.98 683.63 261.58 721.55 C 249.74 734.08 237.39 746.13 224.14 757.17 C 211.09 768.22 197.75 778.96 183.59 788.56 C 174.27 795.05 164.85 801.46 154.87 806.91 C 155.13 798.69 154.85 790.47 155.25 782.27 C 162.90 778.05 166.51 769.15 174.65 765.64 C 180.96 762.08 188.36 762.17 195.08 759.93 C 194.16 753.58 190.47 747.70 191.11 741.17 C 191.78 736.41 197.01 734.75 201.05 733.88 C 208.65 731.99 216.41 733.76 224.03 734.50 C 226.43 734.96 228.69 732.44 227.97 730.11 C 227.24 724.13 225.23 716.83 229.88 711.91 C 235.95 706.47 243.71 703.43 251.03 700.07 C 253.39 698.88 256.24 698.06 257.80 695.78 C 258.22 692.07 257.87 688.30 258.58 684.62 C 260.91 671.33 258.89 657.70 254.98 644.91 C 265.83 647.22 277.01 648.35 288.06 646.98 C 293.84 646.24 300.07 645.55 304.87 641.94 C 307.64 639.91 307.46 636.09 306.94 633.08 C 305.75 627.33 301.78 622.79 298.81 617.90 C 310.08 613.17 323.15 610.18 331.07 600.09 C 333.93 596.92 335.05 592.68 334.80 588.48 C 338.31 586.51 343.25 584.75 343.50 580.03 C 343.90 572.03 338.44 565.28 332.94 560.09 C 328.61 555.78 323.04 552.85 319.28 547.96 C 326.22 544.64 333.76 542.48 340.21 538.18 C 342.99 536.37 345.15 533.82 347.68 531.70 C 350.59 529.23 353.90 527.27 356.87 524.85 M 278.48 659.40 C 275.43 661.33 273.39 664.42 271.17 667.20 C 269.47 669.62 267.30 671.98 266.80 675.00 C 267.43 678.18 271.61 680.69 274.43 678.49 C 277.55 676.32 279.97 673.32 282.43 670.46 C 283.88 668.53 285.68 666.57 285.95 664.08 C 285.21 660.98 281.67 658.19 278.48 659.40 Z" />
<path fill="#fdfffe" stroke="#fdfffe" stroke-width="0.09375" opacity="1.00" d=" M 686.19 542.27 C 690.38 534.73 693.16 526.46 697.88 519.21 C 703.17 522.36 708.09 526.07 712.83 529.99 C 711.41 534.01 709.58 537.86 707.58 541.62 C 691.02 575.00 671.28 607.32 645.00 633.99 C 619.49 659.72 589.63 681.22 556.94 696.89 C 550.40 699.93 544.03 703.45 537.04 705.38 C 533.67 699.48 530.81 693.30 528.18 687.05 C 563.90 673.59 596.98 653.01 624.34 626.34 C 649.58 602.10 669.64 572.98 686.19 542.27 Z" />
<path fill="#fdfffe" stroke="#fdfffe" stroke-width="0.09375" opacity="1.00" d=" M 712.50 556.54 C 715.46 550.98 717.78 545.08 720.97 539.63 C 729.60 546.16 737.54 553.69 744.44 562.02 C 735.48 563.65 725.88 564.65 718.42 570.41 C 708.86 577.19 704.66 589.88 706.88 601.21 C 708.50 611.12 715.53 618.80 721.78 626.20 C 727.67 632.77 732.58 640.11 737.80 647.21 C 741.02 651.77 744.67 656.05 747.31 660.99 C 743.98 667.20 739.48 672.65 735.25 678.25 C 724.86 691.76 714.57 705.42 702.43 717.43 C 684.31 735.58 664.55 752.26 642.61 765.63 C 629.56 773.55 616.13 780.87 602.27 787.28 C 596.41 789.96 590.64 793.03 584.28 794.34 C 576.00 778.76 568.32 762.86 561.30 746.68 C 558.18 740.35 556.15 733.12 550.66 728.32 C 546.69 724.83 544.77 719.81 542.95 715.01 C 589.09 696.45 630.80 667.02 664.03 630.04 C 683.35 607.81 698.75 582.50 712.50 556.54 M 701.42 618.32 C 697.89 620.03 698.28 624.76 700.80 627.20 C 706.39 633.60 712.12 639.87 717.73 646.26 C 719.84 648.52 721.71 651.12 724.40 652.76 C 728.62 655.00 734.31 649.55 731.92 645.28 C 730.47 642.47 728.06 640.35 725.89 638.11 C 720.01 632.31 714.85 625.83 709.10 619.92 C 707.23 617.68 704.03 617.35 701.42 618.32 M 662.39 660.38 C 660.12 661.06 657.60 663.14 658.26 665.78 C 659.09 668.89 661.10 671.51 662.78 674.22 C 667.85 681.86 672.50 689.77 677.49 697.47 C 679.04 699.72 681.46 702.69 684.57 701.62 C 686.99 700.43 689.88 697.57 688.38 694.68 C 686.69 690.60 683.98 687.08 681.61 683.40 C 677.54 677.39 673.87 671.13 670.06 664.96 C 668.44 662.41 665.77 659.35 662.39 660.38 M 610.34 703.22 C 607.22 704.11 606.07 707.80 607.16 710.65 C 609.12 717.23 611.83 723.56 613.97 730.09 C 615.60 734.40 616.58 739.01 618.92 743.02 C 621.27 747.01 629.04 744.91 628.17 740.03 C 627.38 734.38 624.70 729.23 623.12 723.80 C 621.11 718.11 619.75 712.18 617.29 706.67 C 616.23 703.99 613.11 702.44 610.34 703.22 Z" />
<path fill="#fdfffe" stroke="#fdfffe" stroke-width="0.09375" opacity="1.00" d=" M 292.45 543.91 C 298.29 546.20 303.64 549.57 308.54 553.47 C 315.78 559.20 323.38 564.55 329.89 571.13 C 331.90 572.98 332.74 575.65 332.66 578.34 C 322.99 580.90 312.95 581.77 302.99 582.07 C 295.38 582.10 287.30 582.73 280.29 579.18 C 282.20 573.63 284.96 568.43 286.92 562.90 C 289.20 556.70 290.66 550.25 292.45 543.91 Z" />
<path fill="#fdfffe" stroke="#fdfffe" stroke-width="0.09375" opacity="1.00" d=" M 202.00 550.93 C 215.73 548.87 229.74 551.95 242.54 556.87 C 239.21 566.01 233.99 574.37 227.89 581.91 C 224.40 586.12 220.55 590.49 215.19 592.26 C 204.59 596.04 192.46 595.62 182.27 590.76 C 177.92 588.63 173.94 585.00 172.80 580.12 C 171.59 575.78 173.40 571.33 175.58 567.63 C 181.24 558.42 191.39 552.42 202.00 550.93 Z" />
<path fill="#fdfffe" stroke="#fdfffe" stroke-width="0.09375" opacity="1.00" d=" M 328.62 652.60 C 345.18 625.44 358.05 596.14 367.56 565.81 C 368.23 576.53 367.86 587.27 368.08 598.00 C 367.96 603.18 368.43 608.40 367.68 613.54 C 365.48 615.72 361.32 616.43 361.25 620.26 C 360.05 624.46 364.51 626.17 367.38 627.81 C 368.66 629.89 368.02 632.65 368.27 635.01 C 368.01 646.83 369.41 658.59 369.54 670.41 C 369.76 680.96 369.72 691.51 369.84 702.06 C 370.07 704.49 368.91 706.66 367.60 708.61 C 353.45 730.20 338.88 751.56 322.64 771.64 C 311.66 785.57 300.58 799.47 288.29 812.29 C 275.04 827.02 260.70 840.72 245.93 853.92 C 225.39 872.62 203.95 890.47 180.62 905.62 C 175.40 908.74 170.26 912.75 164.06 913.50 C 157.09 910.01 154.30 901.43 154.30 894.06 C 154.43 869.75 154.53 845.44 154.90 821.14 C 160.62 816.63 167.04 813.15 173.06 809.09 C 204.93 788.81 234.61 765.05 261.19 738.20 C 287.16 712.67 309.68 683.68 328.62 652.60 M 355.42 639.44 C 349.82 640.17 347.47 648.60 352.11 651.91 C 356.39 655.80 364.09 651.72 363.72 646.09 C 363.73 641.88 359.61 638.24 355.42 639.44 M 342.32 668.18 C 336.60 669.96 336.14 679.01 341.60 681.40 C 346.10 683.91 352.19 680.08 351.94 674.94 C 352.42 670.02 346.75 666.31 342.32 668.18 M 328.52 696.56 C 322.67 698.44 321.83 707.88 327.61 710.38 C 332.43 713.10 338.91 708.47 338.11 703.08 C 337.88 698.48 332.88 695.01 328.52 696.56 M 307.38 723.27 C 301.63 724.47 300.07 732.88 304.48 736.45 C 308.29 740.09 315.48 737.67 316.55 732.56 C 318.40 727.22 312.67 721.67 307.38 723.27 M 287.32 750.16 C 280.81 751.92 280.37 761.99 286.46 764.58 C 291.77 767.76 298.96 761.89 297.32 756.06 C 296.57 751.59 291.54 748.93 287.32 750.16 M 261.45 774.43 C 254.76 775.30 251.57 784.09 255.73 789.23 C 259.36 794.43 268.24 793.56 270.87 787.82 C 274.61 781.65 268.47 773.07 261.45 774.43 M 232.33 801.11 C 226.92 802.99 224.91 810.17 228.20 814.76 C 231.87 820.88 242.55 819.06 244.14 812.10 C 246.75 805.29 238.91 798.25 232.33 801.11 M 205.46 825.52 C 197.96 826.51 196.92 838.61 203.77 841.24 C 208.14 843.55 213.88 840.52 214.89 835.81 C 216.46 830.36 211.14 824.15 205.46 825.52 M 173.35 851.24 C 166.91 852.35 165.91 862.68 172.03 864.98 C 176.00 867.23 180.99 863.98 181.65 859.75 C 183.07 854.98 178.16 849.91 173.35 851.24 Z" />
<path fill="#fdfffe" stroke="#fdfffe" stroke-width="0.09375" opacity="1.00" d=" M 274.63 588.40 C 281.72 589.84 288.64 592.44 296.00 592.13 C 305.10 592.79 314.09 590.74 323.16 590.91 C 322.65 592.90 322.08 595.02 320.37 596.34 C 313.64 602.35 305.17 605.97 296.68 608.75 C 293.41 609.68 289.40 611.00 286.49 608.49 C 281.53 604.81 277.66 599.88 273.75 595.16 C 271.79 593.16 274.02 590.53 274.63 588.40 Z" />
<path fill="#fdfffe" stroke="#fdfffe" stroke-width="0.09375" opacity="1.00" d=" M 257.18 614.15 C 260.40 610.33 263.13 606.10 266.76 602.64 C 271.85 607.76 276.73 613.11 282.40 617.61 C 288.24 622.39 294.89 627.31 297.05 634.93 C 291.74 637.42 285.79 637.68 280.04 637.88 C 272.44 638.16 264.80 637.35 257.42 635.51 C 254.86 634.71 251.88 634.05 250.28 631.69 C 248.91 629.68 248.08 627.39 247.13 625.18 C 250.56 621.58 254.01 617.98 257.18 614.15 Z" />
<path fill="#fdfffe" stroke="#fdfffe" stroke-width="0.09375" opacity="1.00" d=" M 214.68 649.66 C 223.21 645.17 231.02 639.39 238.23 633.01 C 242.40 638.39 244.88 644.85 246.67 651.36 C 248.75 659.36 250.10 667.63 249.76 675.93 C 240.36 675.82 231.43 672.19 223.28 667.78 C 217.07 664.26 210.21 660.73 206.71 654.18 C 209.30 652.55 211.97 651.07 214.68 649.66 Z" />
<path fill="#fdfffe" stroke="#fdfffe" stroke-width="0.09375" opacity="1.00" d=" M 168.24 668.86 C 177.95 665.86 187.57 662.63 197.07 659.04 C 198.76 668.93 197.63 679.03 196.08 688.87 C 194.89 695.26 193.59 701.87 189.91 707.36 C 185.89 703.79 183.18 699.11 180.38 694.59 C 175.51 686.44 171.57 677.75 168.24 668.86 Z" />
<path fill="#fdfffe" stroke="#fdfffe" stroke-width="0.09375" opacity="1.00" d=" M 207.56 670.03 C 214.96 674.21 222.06 679.05 230.12 681.92 C 235.08 684.01 240.53 684.47 245.53 686.43 C 247.59 687.15 247.58 690.74 245.56 691.55 C 237.16 696.66 226.47 699.11 220.61 707.63 C 217.24 712.15 217.18 717.97 217.01 723.36 C 208.80 723.34 200.22 722.93 192.57 726.49 C 187.72 728.59 183.04 732.27 181.59 737.58 C 179.92 742.50 181.32 747.67 181.89 752.66 C 176.61 754.19 171.11 755.41 166.39 758.36 C 162.04 760.83 158.54 764.45 155.08 768.00 C 155.64 749.68 154.87 731.33 155.99 713.04 C 155.98 699.72 155.92 686.40 156.32 673.09 C 156.96 673.10 158.23 673.10 158.86 673.10 C 164.23 686.10 169.99 699.16 178.64 710.36 C 181.21 713.71 184.57 717.02 189.01 717.36 C 193.96 717.37 198.75 714.27 200.69 709.69 C 206.20 697.25 207.29 683.47 207.56 670.03 Z" />
<path fill="#fdfffe" stroke="#fdfffe" stroke-width="0.09375" opacity="1.00" d=" M 750.63 677.41 C 751.12 675.45 752.54 673.96 753.83 672.47 C 760.47 680.65 765.36 690.06 771.22 698.79 C 778.36 709.70 785.15 720.83 792.26 731.76 C 793.47 733.60 794.35 735.62 795.11 737.69 C 785.88 740.42 775.24 739.56 767.43 733.60 C 758.66 726.73 754.04 716.00 751.48 705.44 C 749.42 696.30 747.91 686.58 750.63 677.41 Z" />
<path fill="#fdfffe" stroke="#fdfffe" stroke-width="0.09375" opacity="1.00" d=" M 730.70 702.65 C 733.21 698.77 736.11 695.15 739.26 691.77 C 740.64 708.15 744.89 725.26 756.41 737.59 C 764.33 746.36 776.57 749.91 788.13 749.32 C 785.16 756.02 781.36 762.31 777.63 768.61 C 776.04 770.87 774.67 774.00 771.60 774.42 C 764.12 775.60 756.29 773.92 749.67 770.36 C 739.73 764.22 733.22 753.50 730.72 742.24 C 728.58 732.69 727.50 722.84 728.10 713.06 C 728.44 709.50 728.66 705.71 730.70 702.65 Z" />
<path fill="#fdfffe" stroke="#fdfffe" stroke-width="0.09375" opacity="1.00" d=" M 702.76 739.76 C 704.27 730.83 711.26 724.27 717.68 718.51 C 718.42 735.96 720.79 754.73 732.33 768.67 C 739.94 778.61 752.07 784.25 764.42 785.18 C 760.82 792.01 755.35 797.58 750.76 803.74 C 748.61 806.08 746.74 809.80 743.06 809.54 C 733.69 809.50 723.90 806.59 717.10 799.89 C 709.42 792.42 705.03 782.19 703.20 771.76 C 701.23 761.22 700.72 750.33 702.76 739.76 Z" />
<path fill="#fdfffe" stroke="#fdfffe" stroke-width="0.09375" opacity="1.00" d=" M 352.22 751.27 C 359.07 742.64 364.15 732.64 371.81 724.66 C 372.59 737.04 372.56 749.47 372.64 761.88 C 364.15 762.03 355.50 760.95 347.51 757.98 C 348.86 755.59 350.50 753.39 352.22 751.27 Z" />
<path fill="#fdfffe" stroke="#fdfffe" stroke-width="0.09375" opacity="1.00" d=" M 674.81 756.79 C 680.51 752.38 685.88 747.53 691.85 743.48 C 690.95 758.41 691.77 773.77 697.19 787.87 C 701.97 799.64 710.47 810.53 722.38 815.65 C 727.30 817.93 732.70 818.74 738.02 819.61 C 731.28 829.18 723.13 837.64 715.27 846.29 C 711.27 850.26 707.49 854.57 702.79 857.76 C 697.34 861.49 690.16 860.00 684.53 857.49 C 677.33 854.57 671.63 848.79 668.00 842.01 C 660.47 829.30 659.44 813.98 660.46 799.58 C 661.66 788.03 664.13 776.64 667.49 765.54 C 668.49 761.63 671.84 759.18 674.81 756.79 Z" />
<path fill="#fdfffe" stroke="#fdfffe" stroke-width="0.09375" opacity="1.00" d=" M 778.30 800.34 C 782.90 781.92 791.52 764.68 801.94 748.89 C 806.87 755.69 811.09 762.97 815.41 770.16 C 813.61 775.59 810.94 780.70 809.38 786.22 C 806.47 796.51 804.68 807.30 805.94 818.01 C 806.46 822.72 809.15 827.45 813.68 829.33 C 820.44 832.24 828.22 831.31 834.99 828.91 C 839.32 827.49 843.18 824.90 847.63 823.83 C 849.55 826.82 851.40 829.87 853.07 833.03 C 848.17 840.03 841.56 845.53 835.39 851.35 C 823.19 861.81 810.38 871.91 795.68 878.66 C 789.46 881.42 783.10 884.15 776.28 884.97 C 771.50 869.12 771.51 852.32 772.15 835.91 C 773.13 823.90 775.62 812.07 778.30 800.34 Z" />
<path fill="#fdfffe" stroke="#fdfffe" stroke-width="0.09375" opacity="1.00" d=" M 340.37 767.31 C 346.17 768.37 351.78 770.30 357.59 771.28 C 362.58 772.14 367.62 772.54 372.64 773.15 C 372.70 779.90 372.96 786.66 372.54 793.41 C 354.58 794.00 336.63 794.72 318.66 794.68 C 325.53 785.27 333.29 776.55 340.37 767.31 Z" />
<path fill="#fdfffe" stroke="#fdfffe" stroke-width="0.09375" opacity="1.00" d=" M 628.37 786.43 C 637.53 781.64 646.23 776.03 655.19 770.86 C 652.69 782.43 649.91 794.09 650.07 806.00 C 649.84 811.28 650.35 816.54 650.65 821.80 C 650.96 823.96 648.79 825.12 647.43 826.38 C 640.25 831.73 632.67 836.53 624.85 840.90 C 620.47 843.33 616.10 845.91 611.26 847.34 C 607.11 839.26 603.29 831.01 599.00 822.99 C 595.94 816.74 592.25 810.77 589.89 804.21 C 602.91 798.74 616.13 793.57 628.37 786.43 Z" />
<path fill="#fdfffe" stroke="#fdfffe" stroke-width="0.09375" opacity="1.00" d=" M 822.23 781.96 C 829.30 792.00 835.13 802.87 841.72 813.24 C 836.26 818.42 828.59 821.31 821.07 820.89 C 816.83 820.60 815.61 815.55 815.70 812.05 C 815.89 801.75 817.94 791.36 822.23 781.96 Z" />
<path fill="#fdfffe" stroke="#fdfffe" stroke-width="0.09375" opacity="1.00" d=" M 723.94 852.97 C 740.30 835.77 754.55 816.74 768.85 797.84 C 764.49 813.51 761.44 829.68 761.73 846.01 C 761.37 860.01 762.24 874.21 766.32 887.68 C 767.34 891.27 769.73 895.31 773.97 895.32 C 782.70 895.50 791.03 892.24 798.96 888.92 C 815.49 881.57 830.31 870.83 843.58 858.62 C 848.97 853.88 853.70 848.44 859.12 843.73 C 864.01 850.09 867.56 857.33 871.95 864.02 C 874.49 867.98 877.14 871.87 879.41 876.00 C 873.24 880.73 866.17 884.16 860.26 889.25 C 848.84 897.95 839.53 909.18 832.72 921.80 C 822.59 922.37 812.42 922.14 802.29 921.93 C 800.57 918.18 799.00 913.94 795.31 911.67 C 787.06 906.17 775.13 908.38 768.57 915.54 C 766.72 917.41 765.68 920.02 763.61 921.65 C 759.79 922.44 755.87 922.10 752.01 922.14 C 743.45 921.95 734.88 922.46 726.33 921.89 C 724.62 914.26 721.85 906.48 715.89 901.11 C 707.53 892.59 695.34 889.82 683.86 888.82 C 688.85 884.11 694.59 880.31 699.70 875.73 C 708.00 868.38 716.28 860.99 723.94 852.97 M 735.33 860.29 C 726.34 862.66 723.30 874.60 727.93 882.02 C 732.10 889.67 743.84 890.95 749.92 884.93 C 754.95 880.15 755.48 871.80 751.99 866.01 C 748.59 860.53 741.39 858.16 735.33 860.29 Z" />
<path fill="#fdfffe" stroke="#fdfffe" stroke-width="0.09375" opacity="1.00" d=" M 314.05 805.11 C 322.35 804.46 330.68 804.82 339.00 804.67 C 350.32 804.74 361.65 804.36 372.97 804.81 C 373.45 812.87 373.23 820.96 373.28 829.03 C 373.02 831.16 373.63 834.15 371.37 835.38 C 348.13 850.06 329.16 873.12 323.34 900.39 C 321.42 908.05 321.57 915.97 321.18 923.80 C 309.76 924.05 298.33 923.86 286.92 923.86 C 297.78 886.83 303.84 848.66 312.15 811.03 C 312.62 809.00 313.32 807.05 314.05 805.11 M 328.34 832.32 C 321.23 834.85 321.18 846.31 328.23 848.97 C 334.62 851.84 341.83 844.89 339.65 838.38 C 338.77 833.34 332.94 830.72 328.34 832.32 Z" />
<path fill="#fdfffe" stroke="#fdfffe" stroke-width="0.09375" opacity="1.00" d=" M 285.12 832.11 C 290.10 827.04 294.76 821.67 300.00 816.86 C 295.34 839.85 290.71 862.85 285.81 885.80 C 283.96 893.36 282.65 901.10 280.03 908.45 C 274.63 905.09 270.85 899.86 267.29 894.72 C 262.38 887.51 258.49 879.63 255.55 871.42 C 254.71 868.78 253.80 866.03 254.11 863.24 C 256.19 859.72 259.67 857.37 262.53 854.54 C 270.15 847.15 277.83 839.82 285.12 832.11 Z" />
<path fill="#fdfffe" stroke="#fdfffe" stroke-width="0.09375" opacity="1.00" d=" M 637.81 845.82 C 643.21 842.50 648.10 838.46 653.19 834.70 C 657.42 844.73 662.38 854.99 671.23 861.78 C 676.59 866.10 683.25 868.32 689.96 869.47 C 685.27 874.70 679.25 878.43 673.87 882.87 C 665.47 889.66 656.29 895.38 647.18 901.16 C 645.24 902.37 643.16 903.33 641.09 904.30 C 633.01 888.54 624.76 872.86 617.14 856.87 C 624.02 853.17 631.17 849.95 637.81 845.82 Z" />
<path fill="#fdfffe" stroke="#fdfffe" stroke-width="0.09375" opacity="1.00" d=" M 341.76 881.72 C 349.58 867.98 360.50 855.98 373.67 847.20 C 373.28 862.81 373.63 878.43 373.59 894.04 C 373.69 902.12 371.56 910.75 365.30 916.30 C 356.55 924.44 343.55 924.50 332.33 923.88 C 330.91 909.27 334.62 894.45 341.76 881.72 Z" />
<path fill="#fdfffe" stroke="#fdfffe" stroke-width="0.09375" opacity="1.00" d=" M 738.34 869.01 C 741.57 867.01 745.25 870.77 745.23 874.01 C 744.91 876.93 742.13 879.77 739.06 879.33 C 737.09 878.65 735.30 877.02 734.87 874.94 C 734.41 872.42 736.35 870.25 738.34 869.01 Z" />
<path fill="#fdfffe" stroke="#fdfffe" stroke-width="0.09375" opacity="1.00" d=" M 208.57 899.58 C 221.03 890.59 232.50 880.36 244.31 870.57 C 248.92 883.16 254.19 895.75 262.74 906.24 C 266.70 911.47 272.08 915.28 277.13 919.36 C 276.67 920.82 276.24 922.28 275.83 923.77 C 250.89 924.04 225.95 923.74 201.01 923.89 C 192.26 923.71 183.29 924.88 174.79 922.21 C 186.10 914.76 197.82 907.86 208.57 899.58 Z" />
<path fill="#fdfffe" stroke="#fdfffe" stroke-width="0.09375" opacity="1.00" d=" M 869.16 896.19 C 874.13 892.78 878.77 888.51 884.70 886.86 C 887.19 891.26 889.75 895.88 890.29 901.00 C 890.28 909.34 883.85 916.46 876.31 919.27 C 866.50 922.94 855.82 922.05 845.56 922.02 C 851.15 911.63 860.01 903.42 869.16 896.19 Z" />
<path fill="#fdfffe" stroke="#fdfffe" stroke-width="0.09375" opacity="1.00" d=" M 649.91 912.50 C 658.22 906.70 666.94 900.67 677.19 899.10 C 687.35 897.78 698.26 900.15 706.30 906.69 C 710.67 910.58 714.41 915.86 714.56 921.92 C 700.36 922.28 686.14 922.21 671.94 921.90 C 664.08 921.03 654.73 919.45 649.91 912.50 Z" />
<path fill="#fdfffe" stroke="#fdfffe" stroke-width="0.09375" opacity="1.00" d=" M 776.51 922.01 C 779.84 917.72 787.09 917.57 790.46 921.88 C 785.83 922.45 781.14 922.49 776.51 922.01 Z" />
</g>
<g id="#0c0d0dff">
<path fill="#0c0d0d" stroke="#0c0d0d" stroke-width="0.09375" opacity="1.00" d=" M 401.43 53.58 C 476.95 53.26 552.47 52.92 627.99 52.82 C 651.42 53.49 674.18 60.13 696.18 67.75 C 715.76 74.93 734.90 83.45 752.84 94.11 C 781.10 111.17 806.95 132.43 828.33 157.62 C 853.56 187.17 872.37 221.74 886.07 257.98 C 898.58 290.27 906.24 324.47 908.30 359.04 C 908.26 372.36 909.75 385.72 908.22 399.01 C 906.71 418.61 903.19 438.05 898.06 457.02 C 889.79 484.83 877.97 511.73 862.05 536.03 C 846.81 559.26 827.08 580.08 802.58 593.60 C 793.73 598.59 784.34 602.57 774.71 605.81 C 773.56 606.37 771.83 606.44 771.39 607.86 C 774.22 614.55 778.83 620.29 782.43 626.58 C 827.92 699.37 872.43 772.78 916.49 846.46 C 920.97 854.03 925.41 861.64 929.74 869.31 C 935.18 879.08 939.79 889.69 940.37 901.01 C 941.19 916.94 935.33 932.93 925.12 945.09 C 914.84 957.21 899.71 964.21 884.40 967.45 C 871.76 970.08 858.82 969.42 846.00 969.56 C 788.00 969.77 730.00 969.78 672.00 969.54 C 657.01 969.76 641.89 966.47 628.72 959.21 C 615.35 952.03 605.36 939.91 598.42 926.63 C 570.74 872.41 542.45 818.51 514.59 764.39 C 498.74 733.97 482.54 703.74 466.78 673.28 C 463.71 667.47 461.09 661.27 456.56 656.42 C 450.62 649.97 440.55 648.25 432.56 651.55 C 425.90 654.10 421.36 660.92 420.94 667.95 C 420.61 672.29 420.68 676.65 420.68 681.00 C 420.80 756.00 420.57 831.00 421.23 906.00 C 420.95 920.82 415.55 935.61 405.84 946.86 C 393.78 961.66 374.86 969.84 356.04 971.00 C 346.37 971.53 336.68 971.20 327.00 971.27 C 277.67 971.52 228.35 971.32 179.03 971.36 C 163.21 970.85 147.61 965.39 134.69 956.30 C 117.93 943.70 107.88 922.91 107.88 901.99 C 107.86 861.33 108.70 820.67 108.72 780.00 C 108.63 758.00 109.29 736.00 109.25 714.00 C 109.50 663.33 109.68 612.66 110.37 561.99 C 110.62 487.00 111.67 412.00 111.73 337.00 C 111.85 266.01 112.25 195.01 112.60 124.01 C 112.69 109.54 116.56 94.90 125.05 83.04 C 137.82 64.89 160.04 54.52 181.97 54.04 C 255.12 53.88 328.28 54.25 401.43 53.58 M 250.72 99.53 C 256.57 101.40 262.83 101.35 268.65 103.31 C 282.04 107.01 294.66 114.98 302.05 126.97 C 306.44 133.12 308.08 140.58 310.86 147.48 C 317.08 143.40 323.02 138.76 330.00 136.00 C 341.68 131.00 354.51 129.89 367.08 130.04 C 366.23 123.03 362.75 116.24 357.11 111.89 C 350.76 107.07 342.82 105.14 335.11 103.81 C 324.52 101.84 313.79 100.42 303.01 100.37 C 285.60 99.40 268.14 99.76 250.72 99.53 M 363.01 99.04 C 364.27 101.00 365.75 102.82 367.66 104.16 C 367.56 102.65 367.47 101.15 367.39 99.64 C 365.92 99.46 364.46 99.26 363.01 99.04 M 378.49 99.27 C 378.28 153.85 378.65 208.43 378.49 263.00 C 378.57 269.42 378.21 275.85 378.70 282.26 C 384.67 269.43 395.33 259.26 407.80 252.77 C 408.10 244.18 407.88 235.59 407.95 227.00 C 407.86 184.43 408.07 141.85 407.84 99.28 C 398.05 99.14 388.26 98.98 378.49 99.27 M 419.44 98.89 C 418.68 113.25 419.26 127.64 419.11 142.00 C 419.20 177.54 418.88 213.08 419.16 248.62 C 425.38 246.83 431.63 244.98 438.08 244.26 C 442.18 243.92 446.31 243.91 450.40 243.43 C 453.38 234.27 454.19 224.59 454.98 215.05 C 455.67 191.67 454.08 167.95 447.50 145.40 C 442.49 130.11 436.46 114.57 425.47 102.49 C 423.95 100.59 421.68 99.65 419.44 98.89 M 437.79 99.01 C 440.64 104.18 444.06 109.02 446.72 114.31 C 461.88 144.01 466.45 177.99 465.83 211.00 C 466.15 222.06 464.06 232.97 462.39 243.85 C 468.83 243.84 475.27 244.06 481.71 243.68 C 486.74 219.19 487.11 193.75 482.58 169.16 C 478.46 145.02 472.20 120.91 460.73 99.13 C 453.09 98.74 445.43 98.90 437.79 99.01 M 473.27 98.95 C 476.24 106.58 479.71 114.03 482.21 121.84 C 488.53 142.07 493.01 162.90 495.06 184.01 C 497.43 203.89 495.74 223.99 493.15 243.76 C 497.95 243.81 502.80 244.21 507.58 243.53 C 509.32 242.06 510.05 239.79 510.79 237.71 C 517.18 216.44 515.96 193.73 511.97 172.12 C 508.70 154.19 502.64 136.43 503.71 117.98 C 504.02 111.01 507.04 104.56 510.88 98.86 C 498.34 98.90 485.80 98.65 473.27 98.95 M 519.85 105.88 C 514.65 111.80 513.64 120.18 514.45 127.74 C 515.33 141.45 518.94 154.74 521.87 168.10 C 525.55 186.30 527.54 205.13 524.81 223.62 C 524.01 230.39 522.07 236.95 520.90 243.65 C 526.47 243.88 532.05 243.98 537.61 243.54 C 541.77 233.80 542.88 223.11 543.69 212.66 C 544.76 199.12 542.83 185.54 539.67 172.39 C 535.83 156.12 532.99 139.01 536.48 122.41 C 538.32 113.48 543.62 105.86 549.13 98.79 C 543.74 98.59 538.34 98.59 532.95 98.63 C 527.63 98.51 523.21 102.13 519.85 105.88 M 559.44 104.41 C 552.17 110.71 547.39 119.69 546.18 129.24 C 542.64 150.82 551.55 171.62 554.22 192.75 C 555.87 209.86 553.55 227.04 549.96 243.76 C 553.77 243.90 557.60 243.81 561.40 243.42 C 569.36 230.51 570.52 214.81 570.70 200.00 C 571.20 179.43 563.58 158.75 569.22 138.36 C 573.88 121.30 587.53 108.90 601.25 98.72 C 591.49 98.41 581.71 98.87 571.95 98.61 C 567.04 98.24 562.95 101.41 559.44 104.41 M 167.76 109.79 C 161.94 115.95 160.40 124.77 160.38 132.95 C 160.44 140.86 160.17 148.78 160.33 156.69 C 177.90 156.94 195.48 156.68 213.05 156.97 C 215.99 156.82 218.39 159.32 218.86 162.08 C 218.54 164.96 216.29 168.15 213.06 167.79 C 195.35 168.29 177.63 167.36 159.92 167.92 C 159.81 174.66 159.74 181.41 159.94 188.15 C 181.30 188.53 202.69 188.26 224.05 188.29 C 226.35 188.22 228.76 189.18 229.74 191.40 C 231.62 195.02 227.94 199.48 224.06 199.00 C 202.73 199.06 181.38 198.52 160.05 199.07 C 159.79 206.69 159.74 214.32 160.01 221.94 C 176.68 222.49 193.37 221.66 210.04 221.98 C 213.95 221.59 217.09 225.91 215.53 229.51 C 214.65 232.20 211.72 233.45 209.05 233.32 C 192.63 233.42 176.21 232.97 159.79 233.18 C 159.61 242.34 159.38 251.54 159.91 260.69 C 174.29 261.09 188.72 260.08 203.07 261.41 C 223.38 261.79 243.72 261.00 264.00 262.22 C 288.67 262.27 313.34 262.63 338.00 263.03 C 347.67 262.93 357.35 263.34 367.00 262.82 C 367.51 252.08 367.39 240.61 361.94 231.00 C 356.14 220.52 347.01 210.93 335.01 208.03 C 320.85 205.03 306.26 208.13 292.03 205.83 C 281.42 204.10 270.95 200.86 261.61 195.47 C 248.08 187.90 237.13 175.44 232.46 160.55 C 228.39 148.80 229.70 136.21 229.72 124.02 C 230.12 116.04 230.22 107.41 225.69 100.44 C 213.85 100.09 201.98 100.19 190.14 100.48 C 181.88 100.64 173.27 103.36 167.76 109.79 M 599.26 114.26 C 589.41 122.51 580.46 133.29 578.57 146.39 C 576.17 162.68 581.25 178.76 581.35 195.02 C 581.83 206.01 580.90 217.03 578.89 227.83 C 577.91 233.19 575.96 238.30 574.89 243.64 C 582.43 244.80 590.01 246.04 597.16 248.78 C 603.63 251.10 609.66 254.39 615.65 257.71 C 626.40 207.93 636.49 157.98 645.63 107.88 C 645.86 106.04 645.83 104.18 645.83 102.34 C 639.10 100.71 632.12 99.67 625.20 100.31 C 615.25 101.89 606.92 108.11 599.26 114.26 M 239.85 106.07 C 240.33 118.40 240.25 130.73 240.16 143.07 C 240.39 158.44 248.32 173.22 260.69 182.27 C 272.61 190.64 287.00 195.99 301.67 195.95 C 301.96 187.97 301.60 179.98 301.76 172.00 C 301.84 160.45 301.56 148.36 296.19 137.84 C 289.95 124.59 276.90 115.62 262.99 111.95 C 269.28 118.52 275.59 125.42 279.01 134.00 C 283.58 144.35 283.77 155.90 283.27 167.01 C 282.68 172.83 282.63 178.92 279.87 184.24 C 277.08 183.61 274.48 182.40 272.06 180.90 C 271.92 168.48 274.66 155.80 271.30 143.58 C 268.68 133.05 260.98 124.92 253.76 117.24 C 249.72 112.83 245.04 109.03 239.85 106.07 M 656.94 106.18 C 654.87 114.76 653.95 123.57 652.10 132.20 C 648.45 151.18 644.86 170.18 641.49 189.21 C 651.43 192.12 661.66 194.00 671.39 197.63 C 685.89 203.04 699.93 210.19 711.87 220.15 C 722.65 228.86 731.24 240.09 737.72 252.30 C 747.38 271.11 752.60 292.01 754.19 313.03 C 754.78 327.18 754.83 341.44 752.40 355.44 C 750.20 368.81 747.15 382.16 741.59 394.58 C 735.20 409.36 726.96 424.00 714.25 434.26 C 703.78 442.97 689.34 446.66 675.99 443.94 C 661.99 441.42 649.97 433.25 638.81 424.88 C 636.48 426.85 634.36 429.05 632.24 431.23 C 623.13 440.29 611.74 446.60 599.99 451.55 C 604.10 454.58 608.93 456.36 613.56 458.44 C 638.06 469.46 661.93 481.97 684.61 496.40 C 698.43 505.31 711.76 514.97 724.70 525.11 C 742.42 505.26 757.59 483.07 769.06 459.05 C 787.43 421.03 796.49 379.04 799.00 337.04 C 799.13 327.03 799.09 317.01 799.04 307.00 C 796.89 268.72 788.29 230.79 773.63 195.35 C 767.41 180.78 761.40 165.90 752.05 153.00 C 744.63 144.86 735.40 138.62 726.01 132.99 C 711.21 124.27 695.40 117.31 679.10 111.93 C 671.85 109.54 664.54 107.15 656.94 106.18 M 323.65 151.75 C 329.02 156.96 333.45 163.01 338.47 168.52 C 345.66 176.15 356.77 178.49 366.87 177.23 C 367.29 165.20 367.53 153.13 366.87 141.10 C 351.95 139.79 335.78 142.48 323.65 151.75 M 311.84 159.73 C 311.61 171.79 311.94 183.86 312.11 195.92 C 316.42 196.15 320.73 196.04 325.05 196.03 C 335.76 196.11 346.45 199.50 354.98 206.05 C 359.65 209.14 362.92 213.76 366.97 217.54 C 367.47 207.85 367.51 198.11 366.96 188.43 C 354.44 187.87 340.54 186.13 331.37 176.65 C 325.15 170.75 321.33 160.98 311.84 159.73 M 774.93 170.06 C 781.72 185.92 788.30 201.89 793.71 218.28 C 800.16 239.42 805.12 261.04 807.83 282.99 C 809.38 293.92 810.49 304.94 810.23 316.00 C 811.23 353.81 804.51 391.52 793.75 427.67 C 791.85 434.88 787.92 441.49 786.94 448.93 C 791.08 448.00 794.97 446.27 798.99 444.92 C 813.07 440.08 828.72 441.42 842.54 446.53 C 845.43 447.62 848.44 448.40 851.50 448.91 C 854.22 439.22 856.69 429.40 857.86 419.39 C 848.14 416.96 838.03 415.96 828.03 416.81 C 824.93 416.86 821.24 417.61 818.74 415.26 C 816.02 412.87 817.14 407.70 820.61 406.64 C 824.94 405.38 829.54 406.11 834.00 406.03 C 842.67 405.94 851.25 407.41 859.89 407.94 C 861.42 395.89 862.53 383.70 861.58 371.55 C 851.54 369.21 841.29 368.07 831.08 366.86 C 828.23 366.63 824.86 365.20 824.62 361.94 C 823.97 358.34 827.62 355.49 831.00 356.00 C 841.20 356.75 851.20 359.24 861.40 360.09 C 861.08 348.31 859.70 336.49 856.92 325.04 C 849.99 325.52 843.23 327.24 836.43 328.54 C 834.16 329.01 831.50 329.06 829.76 327.28 C 826.83 324.88 827.97 319.70 831.49 318.52 C 838.86 315.96 846.87 316.34 854.32 314.04 C 852.15 303.96 849.19 293.95 845.12 284.46 C 839.96 286.14 835.39 289.51 829.98 290.36 C 825.27 290.86 822.38 284.14 826.14 281.12 C 830.80 277.56 836.86 276.64 841.98 273.88 C 838.93 264.19 834.32 255.05 829.65 246.06 C 827.09 246.95 824.63 248.18 821.97 248.73 C 818.06 248.74 815.29 243.83 817.44 240.49 C 819.10 238.12 821.71 236.68 823.98 234.96 C 819.16 224.89 812.82 215.64 806.57 206.42 C 797.51 193.09 786.45 181.28 774.93 170.06 M 639.22 200.08 C 637.19 206.86 636.39 213.92 634.88 220.82 C 633.69 227.87 631.62 234.75 630.66 241.84 C 642.72 241.03 655.09 243.26 665.56 249.47 C 681.09 258.24 693.36 272.33 700.34 288.69 C 709.01 309.99 711.02 334.25 704.41 356.39 C 701.07 367.55 693.19 378.22 681.60 381.58 C 675.49 383.62 669.08 382.04 663.07 380.45 C 661.80 383.46 660.71 386.55 659.69 389.66 C 656.62 398.86 651.59 407.24 646.10 415.18 C 650.87 420.48 656.95 424.35 663.07 427.90 C 668.05 430.79 673.54 432.78 679.21 433.78 C 688.30 435.74 697.93 432.75 705.25 427.26 C 715.27 419.65 722.39 408.94 727.83 397.74 C 737.25 379.60 742.02 359.28 743.15 338.94 C 745.70 309.11 740.39 277.97 725.01 252.01 C 715.40 235.61 700.17 223.14 683.34 214.64 C 669.45 207.72 654.58 202.48 639.22 200.08 M 629.15 252.93 C 628.13 256.83 626.82 260.74 626.90 264.81 C 628.63 267.75 631.63 269.63 633.97 272.04 C 650.60 288.22 661.04 310.08 665.23 332.76 C 667.35 345.58 666.78 358.66 665.08 371.49 C 670.67 372.32 676.89 373.09 681.97 370.00 C 689.54 365.45 693.71 356.97 695.64 348.62 C 699.87 330.07 697.81 310.16 690.29 292.72 C 683.58 276.98 671.02 263.85 655.56 256.51 C 647.36 252.85 638.04 250.45 629.15 252.93 M 159.94 271.31 C 159.41 276.98 159.45 282.69 159.79 288.38 C 166.59 288.74 173.42 288.03 180.21 288.72 C 191.79 289.86 203.45 288.22 215.03 289.51 C 231.01 289.74 247.00 289.47 262.98 289.72 C 275.57 291.01 288.24 289.93 300.86 290.46 C 310.88 291.73 320.98 290.89 331.04 291.17 C 343.18 292.28 355.41 291.97 367.59 291.60 C 367.68 285.86 367.52 280.12 367.46 274.38 C 354.29 274.44 341.14 273.76 327.96 274.12 C 312.02 272.46 295.95 274.29 279.99 272.86 C 269.70 272.60 259.39 273.14 249.11 272.66 C 239.10 271.58 229.02 272.87 219.00 271.99 C 208.04 271.46 197.06 272.10 186.09 271.60 C 177.39 271.10 168.66 271.07 159.94 271.31 M 444.42 292.67 C 436.40 294.01 428.58 298.05 423.71 304.69 C 419.60 310.18 417.98 317.18 418.09 323.96 C 418.06 342.99 418.05 362.03 418.10 381.06 C 418.03 389.06 421.04 397.47 427.57 402.42 C 432.88 407.06 440.00 408.96 446.94 408.88 C 487.32 408.88 527.69 408.86 568.06 408.82 C 577.01 408.64 585.61 405.02 592.77 399.81 C 605.65 390.74 613.90 376.00 616.40 360.59 C 618.27 345.94 616.67 330.19 608.41 317.59 C 600.98 305.11 588.30 295.67 573.93 293.01 C 567.70 291.76 561.32 292.10 555.00 291.97 C 526.00 292.04 497.00 292.02 468.00 292.00 C 460.14 292.05 452.23 291.49 444.42 292.67 M 159.92 299.32 C 159.29 305.09 159.12 310.93 159.82 316.71 C 168.21 316.93 176.60 316.59 184.99 316.64 C 209.29 318.18 233.68 316.52 257.98 317.95 C 285.33 317.95 312.69 318.12 340.05 318.17 C 349.26 318.84 358.51 319.05 367.74 318.65 C 368.09 313.47 368.06 308.29 367.80 303.11 C 361.13 302.74 354.42 303.27 347.78 302.37 C 338.19 301.69 328.56 302.66 318.97 301.90 C 309.35 300.89 299.68 301.98 290.04 301.62 C 276.41 299.73 262.61 301.66 248.93 300.29 C 229.30 299.72 209.63 300.42 190.00 299.56 C 179.97 299.75 169.95 299.04 159.92 299.32 M 159.31 327.42 C 159.06 332.96 159.07 338.51 159.20 344.05 C 161.80 344.21 164.40 344.38 167.01 344.40 C 214.34 344.48 261.67 344.18 308.99 344.07 C 328.56 343.96 348.15 344.41 367.71 343.77 C 367.97 339.16 367.99 334.56 367.84 329.95 C 357.35 328.99 346.81 329.87 336.32 329.35 C 324.90 328.12 313.40 329.17 301.95 328.79 C 283.30 328.11 264.63 328.70 245.99 327.77 C 217.10 327.74 188.20 327.70 159.31 327.42 M 270.01 354.30 C 283.41 364.33 294.49 376.96 306.73 388.29 C 308.84 390.13 311.11 392.13 313.97 392.61 C 317.83 391.28 320.36 387.88 323.05 385.02 C 327.68 379.77 333.35 375.26 340.05 373.01 C 349.05 369.81 358.68 371.37 367.86 372.81 C 368.34 366.82 368.10 360.82 367.79 354.83 C 359.54 354.24 351.26 354.50 342.99 354.62 C 318.67 354.37 294.33 353.77 270.01 354.30 M 159.33 355.23 C 159.29 357.71 159.28 360.20 159.28 362.68 C 166.61 367.13 173.20 372.79 178.16 379.83 C 181.36 384.26 183.86 389.24 187.89 393.03 C 195.12 389.14 199.76 381.86 207.05 378.07 C 213.72 374.41 221.55 373.44 229.04 374.23 C 236.81 375.12 244.60 377.36 251.00 381.99 C 261.18 388.71 267.78 399.24 276.13 407.88 C 285.93 418.44 299.32 426.20 313.96 426.85 C 324.97 426.99 335.98 426.88 347.00 426.98 C 353.85 426.92 360.72 427.46 367.56 426.84 C 367.61 412.62 367.97 398.40 367.77 384.19 C 359.62 382.21 350.71 380.13 342.66 383.62 C 332.78 387.43 328.23 398.52 318.48 402.48 C 312.88 404.74 306.84 402.10 302.47 398.52 C 293.34 391.05 285.32 382.35 276.85 374.17 C 270.25 367.90 263.16 361.82 254.59 358.46 C 248.09 355.94 241.00 356.44 234.20 355.74 C 230.15 355.29 226.07 355.26 222.00 355.28 C 201.11 355.30 180.21 354.77 159.33 355.23 M 159.13 375.75 C 158.57 383.83 159.09 391.92 158.95 400.01 C 159.02 409.31 158.71 418.62 158.89 427.93 C 174.26 428.31 189.63 428.03 205.00 427.89 C 215.01 427.79 225.02 428.38 235.02 427.81 C 250.76 427.34 266.53 428.24 282.27 427.43 C 278.28 423.83 273.56 421.08 269.99 417.02 C 261.05 407.96 254.36 396.38 243.10 389.87 C 234.16 384.71 222.62 382.55 212.97 386.98 C 204.64 390.99 200.02 400.46 190.84 403.02 C 185.46 404.47 180.07 401.32 177.07 396.97 C 171.60 389.54 167.37 380.62 159.13 375.75 M 378.46 422.00 C 378.73 457.99 378.27 493.98 378.71 529.97 C 378.77 550.65 378.46 571.32 378.82 592.00 C 379.00 607.72 378.53 623.46 379.18 639.18 C 381.25 634.63 382.95 629.88 385.73 625.70 C 390.85 617.91 398.23 611.84 406.33 607.34 C 408.16 606.72 408.16 604.65 408.22 603.06 C 408.00 568.71 408.11 534.35 408.09 500.00 C 408.01 483.77 408.40 467.52 407.96 451.30 C 395.34 444.99 384.28 435.03 378.46 422.00 M 158.76 438.69 C 158.69 445.66 158.38 452.64 158.93 459.59 C 180.62 459.87 202.31 459.62 224.00 459.70 C 271.80 459.52 319.61 459.62 367.41 459.38 C 367.75 452.30 367.61 445.22 367.61 438.15 C 361.41 437.68 355.20 437.93 349.00 437.88 C 325.00 437.90 300.99 437.70 276.99 438.07 C 237.58 438.42 198.16 438.31 158.76 438.69 M 795.98 457.14 C 799.41 463.13 804.05 468.29 808.57 473.46 C 815.36 481.08 823.01 488.12 832.05 492.98 C 835.21 488.27 837.51 483.07 839.91 477.96 C 842.61 472.00 845.47 466.10 847.49 459.87 C 842.47 457.43 837.14 455.76 831.79 454.23 C 820.05 451.03 806.91 451.50 795.98 457.14 M 419.39 455.32 C 419.11 475.53 419.55 495.75 419.41 515.96 C 432.08 514.94 444.65 511.30 455.41 504.41 C 471.48 494.24 484.31 479.80 495.84 464.87 C 497.94 462.23 499.76 459.39 501.21 456.34 C 486.47 456.20 471.74 456.46 457.00 456.37 C 444.46 456.22 431.88 456.80 419.39 455.32 M 512.20 461.19 C 497.29 482.45 480.23 503.38 457.19 516.20 C 445.65 522.82 432.45 525.38 419.41 527.09 C 419.02 540.71 419.53 554.35 419.42 567.98 C 431.45 567.50 442.96 563.47 454.02 559.01 C 477.90 549.12 498.46 532.75 516.56 514.54 C 528.94 501.81 540.54 488.25 550.53 473.55 C 554.25 467.96 558.42 462.60 561.10 456.39 C 546.75 456.40 532.40 456.32 518.06 456.36 C 515.04 456.07 513.78 459.23 512.20 461.19 M 574.79 456.81 C 571.95 460.11 570.27 464.22 567.87 467.83 C 558.36 482.67 548.03 497.04 536.10 510.05 C 524.39 522.69 512.32 535.16 498.49 545.52 C 482.83 557.54 465.32 567.26 446.58 573.53 C 437.86 576.44 428.69 577.50 419.62 578.72 C 419.05 586.65 419.54 594.59 419.41 602.53 C 435.50 598.96 452.75 598.68 468.31 604.69 C 482.24 609.74 493.52 620.66 500.40 633.63 C 508.06 647.93 514.64 662.80 522.13 677.19 C 525.14 676.30 528.12 675.32 531.02 674.10 C 549.06 666.74 566.42 657.59 582.43 646.45 C 614.39 625.25 640.07 595.75 660.61 563.60 C 670.30 549.07 678.18 533.44 685.77 517.73 C 686.72 515.72 687.42 513.59 688.00 511.44 C 672.95 501.75 657.61 492.51 641.69 484.32 C 623.21 474.25 603.74 466.22 584.70 457.31 C 581.62 455.94 578.00 455.86 574.79 456.81 M 776.36 469.37 C 767.42 487.02 756.87 503.94 744.16 519.13 C 740.05 524.15 735.33 528.63 731.30 533.72 C 739.57 540.74 747.10 548.59 754.71 556.31 C 756.11 557.64 757.49 559.07 759.25 559.93 C 761.31 560.33 763.26 559.25 765.21 558.75 C 764.00 552.66 757.45 549.23 756.63 542.98 C 756.45 538.61 762.74 536.30 765.72 539.32 C 769.83 543.39 771.95 548.99 775.88 553.23 C 785.17 548.26 793.51 541.50 800.79 533.91 C 793.37 526.00 784.09 520.15 776.09 512.89 C 773.29 510.54 774.43 505.86 777.40 504.22 C 780.31 503.15 783.37 504.48 785.54 506.47 C 793.09 513.16 800.78 519.72 809.08 525.47 C 815.97 518.95 821.24 510.92 826.17 502.86 C 822.99 499.97 819.39 497.62 816.01 494.99 C 808.26 488.80 801.40 481.55 795.13 473.88 C 790.83 468.71 787.31 462.93 782.70 458.02 C 779.99 461.44 778.25 465.46 776.36 469.37 M 168.19 470.27 C 171.11 484.37 174.12 498.52 178.95 512.12 C 179.76 514.54 181.07 516.75 182.51 518.85 C 190.61 512.36 196.72 503.71 201.64 494.65 C 205.43 487.10 208.98 479.03 208.93 470.42 C 195.36 470.16 181.77 470.35 168.19 470.27 M 220.11 470.26 C 216.80 491.69 206.82 512.92 189.30 526.28 C 184.98 529.31 178.27 529.49 174.45 525.55 C 171.76 522.53 170.49 518.59 169.10 514.88 C 165.22 504.00 162.52 492.74 160.47 481.39 C 160.19 479.61 159.48 477.95 158.46 476.49 C 157.59 496.31 158.41 516.18 157.98 536.02 C 157.17 545.18 157.82 554.39 157.46 563.57 C 157.14 585.32 156.97 607.07 157.08 628.82 C 168.50 626.57 179.39 622.13 189.55 616.51 C 194.95 613.42 200.43 610.13 204.38 605.21 C 194.22 604.62 183.57 603.79 174.66 598.37 C 167.29 593.95 161.55 585.90 162.00 577.03 C 162.75 565.10 170.77 554.87 180.40 548.40 C 185.85 544.67 192.29 543.01 198.36 540.61 C 198.65 535.33 199.11 529.97 200.93 524.97 C 203.89 516.20 210.83 509.39 218.44 504.46 C 227.92 498.43 239.05 496.11 249.81 493.49 C 248.81 486.47 246.67 479.63 243.72 473.19 C 243.05 471.99 242.60 470.14 240.88 470.22 C 233.97 469.72 227.03 470.12 220.11 470.26 M 253.84 470.17 C 254.68 473.26 255.65 476.31 256.62 479.37 C 263.12 500.16 262.73 522.67 257.73 543.74 C 253.66 560.08 246.28 575.60 235.94 588.91 C 228.28 598.52 219.96 607.72 210.13 615.17 C 194.86 627.88 176.02 635.48 156.86 640.09 C 156.52 646.92 156.51 653.77 156.78 660.62 C 167.83 658.69 178.50 655.05 188.86 650.80 C 237.00 631.54 274.02 586.80 283.78 535.86 C 287.56 514.10 286.59 491.02 278.55 470.29 C 270.33 469.83 262.07 469.94 253.84 470.17 M 289.89 470.30 C 292.00 479.79 294.20 489.25 295.29 498.93 C 303.74 497.77 311.72 494.38 318.95 489.94 C 322.79 487.45 326.29 484.10 328.10 479.84 C 329.28 476.61 328.03 473.24 326.92 470.20 C 314.58 470.21 302.23 469.96 289.89 470.30 M 338.63 469.94 C 340.64 471.18 342.76 472.23 344.97 473.07 C 352.35 475.98 359.58 479.36 367.26 481.45 C 367.46 477.59 367.33 473.73 367.05 469.88 C 357.59 469.64 348.07 469.08 338.63 469.94 M 337.45 481.17 C 335.69 485.27 333.88 489.47 330.76 492.74 C 324.67 499.44 316.01 502.68 307.76 505.83 C 317.59 509.14 328.11 510.19 337.66 514.37 C 340.98 515.91 344.05 517.92 347.17 519.83 C 349.60 518.06 351.82 516.02 353.72 513.69 C 358.58 507.97 363.75 502.13 366.27 494.94 C 367.02 492.81 363.96 492.22 362.65 491.32 C 354.33 487.77 346.15 483.74 337.45 481.17 M 222.16 514.15 C 213.58 519.49 208.00 529.34 208.05 539.46 C 221.09 539.49 233.70 543.04 246.01 547.01 C 250.82 533.32 252.31 518.51 251.13 504.09 C 240.83 504.96 230.90 508.72 222.16 514.15 M 295.29 510.32 C 295.62 518.09 294.95 525.83 294.20 533.56 C 298.58 536.62 303.49 539.46 308.99 539.54 C 316.98 539.65 324.45 536.09 331.22 532.16 C 333.77 530.77 335.93 528.70 336.99 525.95 C 332.82 521.84 326.79 521.07 321.42 519.51 C 312.43 517.30 303.84 513.82 295.29 510.32 M 356.87 524.85 C 353.90 527.27 350.59 529.23 347.68 531.70 C 345.15 533.82 342.99 536.37 340.21 538.18 C 333.76 542.48 326.22 544.64 319.28 547.96 C 323.04 552.85 328.61 555.78 332.94 560.09 C 338.44 565.28 343.90 572.03 343.50 580.03 C 343.25 584.75 338.31 586.51 334.80 588.48 C 335.05 592.68 333.93 596.92 331.07 600.09 C 323.15 610.18 310.08 613.17 298.81 617.90 C 301.78 622.79 305.75 627.33 306.94 633.08 C 307.46 636.09 307.64 639.91 304.87 641.94 C 300.07 645.55 293.84 646.24 288.06 646.98 C 277.01 648.35 265.83 647.22 254.98 644.91 C 258.89 657.70 260.91 671.33 258.58 684.62 C 257.87 688.30 258.22 692.07 257.80 695.78 C 256.24 698.06 253.39 698.88 251.03 700.07 C 243.71 703.43 235.95 706.47 229.88 711.91 C 225.23 716.83 227.24 724.13 227.97 730.11 C 228.69 732.44 226.43 734.96 224.03 734.50 C 216.41 733.76 208.65 731.99 201.05 733.88 C 197.01 734.75 191.78 736.41 191.11 741.17 C 190.47 747.70 194.16 753.58 195.08 759.93 C 188.36 762.17 180.96 762.08 174.65 765.64 C 166.51 769.15 162.90 778.05 155.25 782.27 C 154.85 790.47 155.13 798.69 154.87 806.91 C 164.85 801.46 174.27 795.05 183.59 788.56 C 197.75 778.96 211.09 768.22 224.14 757.17 C 237.39 746.13 249.74 734.08 261.58 721.55 C 297.98 683.63 327.31 638.93 347.35 590.32 C 353.47 574.90 357.19 558.70 361.71 542.78 C 363.93 533.79 367.38 524.94 367.11 515.54 C 363.36 518.27 360.51 522.00 356.87 524.85 M 686.19 542.27 C 669.64 572.98 649.58 602.10 624.34 626.34 C 596.98 653.01 563.90 673.59 528.18 687.05 C 530.81 693.30 533.67 699.48 537.04 705.38 C 544.03 703.45 550.40 699.93 556.94 696.89 C 589.63 681.22 619.49 659.72 645.00 633.99 C 671.28 607.32 691.02 575.00 707.58 541.62 C 709.58 537.86 711.41 534.01 712.83 529.99 C 708.09 526.07 703.17 522.36 697.88 519.21 C 693.16 526.46 690.38 534.73 686.19 542.27 M 712.50 556.54 C 698.75 582.50 683.35 607.81 664.03 630.04 C 630.80 667.02 589.09 696.45 542.95 715.01 C 544.77 719.81 546.69 724.83 550.66 728.32 C 556.15 733.12 558.18 740.35 561.30 746.68 C 568.32 762.86 576.00 778.76 584.28 794.34 C 590.64 793.03 596.41 789.96 602.27 787.28 C 616.13 780.87 629.56 773.55 642.61 765.63 C 664.55 752.26 684.31 735.58 702.43 717.43 C 714.57 705.42 724.86 691.76 735.25 678.25 C 739.48 672.65 743.98 667.20 747.31 660.99 C 744.67 656.05 741.02 651.77 737.80 647.21 C 732.58 640.11 727.67 632.77 721.78 626.20 C 715.53 618.80 708.50 611.12 706.88 601.21 C 704.66 589.88 708.86 577.19 718.42 570.41 C 725.88 564.65 735.48 563.65 744.44 562.02 C 737.54 553.69 729.60 546.16 720.97 539.63 C 717.78 545.08 715.46 550.98 712.50 556.54 M 292.45 543.91 C 290.66 550.25 289.20 556.70 286.92 562.90 C 284.96 568.43 282.20 573.63 280.29 579.18 C 287.30 582.73 295.38 582.10 302.99 582.07 C 312.95 581.77 322.99 580.90 332.66 578.34 C 332.74 575.65 331.90 572.98 329.89 571.13 C 323.38 564.55 315.78 559.20 308.54 553.47 C 303.64 549.57 298.29 546.20 292.45 543.91 M 202.00 550.93 C 191.39 552.42 181.24 558.42 175.58 567.63 C 173.40 571.33 171.59 575.78 172.80 580.12 C 173.94 585.00 177.92 588.63 182.27 590.76 C 192.46 595.62 204.59 596.04 215.19 592.26 C 220.55 590.49 224.40 586.12 227.89 581.91 C 233.99 574.37 239.21 566.01 242.54 556.87 C 229.74 551.95 215.73 548.87 202.00 550.93 M 328.62 652.60 C 309.68 683.68 287.16 712.67 261.19 738.20 C 234.61 765.05 204.93 788.81 173.06 809.09 C 167.04 813.15 160.62 816.63 154.90 821.14 C 154.53 845.44 154.43 869.75 154.30 894.06 C 154.30 901.43 157.09 910.01 164.06 913.50 C 170.26 912.75 175.40 908.74 180.62 905.62 C 203.95 890.47 225.39 872.62 245.93 853.92 C 260.70 840.72 275.04 827.02 288.29 812.29 C 300.58 799.47 311.66 785.57 322.64 771.64 C 338.88 751.56 353.45 730.20 367.60 708.61 C 368.91 706.66 370.07 704.49 369.84 702.06 C 369.72 691.51 369.76 680.96 369.54 670.41 C 369.41 658.59 368.01 646.83 368.27 635.01 C 368.02 632.65 368.66 629.89 367.38 627.81 C 364.51 626.17 360.05 624.46 361.25 620.26 C 361.32 616.43 365.48 615.72 367.68 613.54 C 368.43 608.40 367.96 603.18 368.08 598.00 C 367.86 587.27 368.23 576.53 367.56 565.81 C 358.05 596.14 345.18 625.44 328.62 652.60 M 274.63 588.40 C 274.02 590.53 271.79 593.16 273.75 595.16 C 277.66 599.88 281.53 604.81 286.49 608.49 C 289.40 611.00 293.41 609.68 296.68 608.75 C 305.17 605.97 313.64 602.35 320.37 596.34 C 322.08 595.02 322.65 592.90 323.16 590.91 C 314.09 590.74 305.10 592.79 296.00 592.13 C 288.64 592.44 281.72 589.84 274.63 588.40 M 257.18 614.15 C 254.01 617.98 250.56 621.58 247.13 625.18 C 248.08 627.39 248.91 629.68 250.28 631.69 C 251.88 634.05 254.86 634.71 257.42 635.51 C 264.80 637.35 272.44 638.16 280.04 637.88 C 285.79 637.68 291.74 637.42 297.05 634.93 C 294.89 627.31 288.24 622.39 282.40 617.61 C 276.73 613.11 271.85 607.76 266.76 602.64 C 263.13 606.10 260.40 610.33 257.18 614.15 M 214.68 649.66 C 211.97 651.07 209.30 652.55 206.71 654.18 C 210.21 660.73 217.07 664.26 223.28 667.78 C 231.43 672.19 240.36 675.82 249.76 675.93 C 250.10 667.63 248.75 659.36 246.67 651.36 C 244.88 644.85 242.40 638.39 238.23 633.01 C 231.02 639.39 223.21 645.17 214.68 649.66 M 168.24 668.86 C 171.57 677.75 175.51 686.44 180.38 694.59 C 183.18 699.11 185.89 703.79 189.91 707.36 C 193.59 701.87 194.89 695.26 196.08 688.87 C 197.63 679.03 198.76 668.93 197.07 659.04 C 187.57 662.63 177.95 665.86 168.24 668.86 M 207.56 670.03 C 207.29 683.47 206.20 697.25 200.69 709.69 C 198.75 714.27 193.96 717.37 189.01 717.36 C 184.57 717.02 181.21 713.71 178.64 710.36 C 169.99 699.16 164.23 686.10 158.86 673.10 C 158.23 673.10 156.96 673.10 156.32 673.09 C 155.92 686.40 155.98 699.72 155.99 713.04 C 154.87 731.33 155.64 749.68 155.08 768.00 C 158.54 764.45 162.04 760.83 166.39 758.36 C 171.11 755.41 176.61 754.19 181.89 752.66 C 181.32 747.67 179.92 742.50 181.59 737.58 C 183.04 732.27 187.72 728.59 192.57 726.49 C 200.22 722.93 208.80 723.34 217.01 723.36 C 217.18 717.97 217.24 712.15 220.61 707.63 C 226.47 699.11 237.16 696.66 245.56 691.55 C 247.58 690.74 247.59 687.15 245.53 686.43 C 240.53 684.47 235.08 684.01 230.12 681.92 C 222.06 679.05 214.96 674.21 207.56 670.03 M 750.63 677.41 C 747.91 686.58 749.42 696.30 751.48 705.44 C 754.04 716.00 758.66 726.73 767.43 733.60 C 775.24 739.56 785.88 740.42 795.11 737.69 C 794.35 735.62 793.47 733.60 792.26 731.76 C 785.15 720.83 778.36 709.70 771.22 698.79 C 765.36 690.06 760.47 680.65 753.83 672.47 C 752.54 673.96 751.12 675.45 750.63 677.41 M 730.70 702.65 C 728.66 705.71 728.44 709.50 728.10 713.06 C 727.50 722.84 728.58 732.69 730.72 742.24 C 733.22 753.50 739.73 764.22 749.67 770.36 C 756.29 773.92 764.12 775.60 771.60 774.42 C 774.67 774.00 776.04 770.87 777.63 768.61 C 781.36 762.31 785.16 756.02 788.13 749.32 C 776.57 749.91 764.33 746.36 756.41 737.59 C 744.89 725.26 740.64 708.15 739.26 691.77 C 736.11 695.15 733.21 698.77 730.70 702.65 M 702.76 739.76 C 700.72 750.33 701.23 761.22 703.20 771.76 C 705.03 782.19 709.42 792.42 717.10 799.89 C 723.90 806.59 733.69 809.50 743.06 809.54 C 746.74 809.80 748.61 806.08 750.76 803.74 C 755.35 797.58 760.82 792.01 764.42 785.18 C 752.07 784.25 739.94 778.61 732.33 768.67 C 720.79 754.73 718.42 735.96 717.68 718.51 C 711.26 724.27 704.27 730.83 702.76 739.76 M 352.22 751.27 C 350.50 753.39 348.86 755.59 347.51 757.98 C 355.50 760.95 364.15 762.03 372.64 761.88 C 372.56 749.47 372.59 737.04 371.81 724.66 C 364.15 732.64 359.07 742.64 352.22 751.27 M 674.81 756.79 C 671.84 759.18 668.49 761.63 667.49 765.54 C 664.13 776.64 661.66 788.03 660.46 799.58 C 659.44 813.98 660.47 829.30 668.00 842.01 C 671.63 848.79 677.33 854.57 684.53 857.49 C 690.16 860.00 697.34 861.49 702.79 857.76 C 707.49 854.57 711.27 850.26 715.27 846.29 C 723.13 837.64 731.28 829.18 738.02 819.61 C 732.70 818.74 727.30 817.93 722.38 815.65 C 710.47 810.53 701.97 799.64 697.19 787.87 C 691.77 773.77 690.95 758.41 691.85 743.48 C 685.88 747.53 680.51 752.38 674.81 756.79 M 778.30 800.34 C 775.62 812.07 773.13 823.90 772.15 835.91 C 771.51 852.32 771.50 869.12 776.28 884.97 C 783.10 884.15 789.46 881.42 795.68 878.66 C 810.38 871.91 823.19 861.81 835.39 851.35 C 841.56 845.53 848.17 840.03 853.07 833.03 C 851.40 829.87 849.55 826.82 847.63 823.83 C 843.18 824.90 839.32 827.49 834.99 828.91 C 828.22 831.31 820.44 832.24 813.68 829.33 C 809.15 827.45 806.46 822.72 805.94 818.01 C 804.68 807.30 806.47 796.51 809.38 786.22 C 810.94 780.70 813.61 775.59 815.41 770.16 C 811.09 762.97 806.87 755.69 801.94 748.89 C 791.52 764.68 782.90 781.92 778.30 800.34 M 340.37 767.31 C 333.29 776.55 325.53 785.27 318.66 794.68 C 336.63 794.72 354.58 794.00 372.54 793.41 C 372.96 786.66 372.70 779.90 372.64 773.15 C 367.62 772.54 362.58 772.14 357.59 771.28 C 351.78 770.30 346.17 768.37 340.37 767.31 M 628.37 786.43 C 616.13 793.57 602.91 798.74 589.89 804.21 C 592.25 810.77 595.94 816.74 599.00 822.99 C 603.29 831.01 607.11 839.26 611.26 847.34 C 616.10 845.91 620.47 843.33 624.85 840.90 C 632.67 836.53 640.25 831.73 647.43 826.38 C 648.79 825.12 650.96 823.96 650.65 821.80 C 650.35 816.54 649.84 811.28 650.07 806.00 C 649.91 794.09 652.69 782.43 655.19 770.86 C 646.23 776.03 637.53 781.64 628.37 786.43 M 822.23 781.96 C 817.94 791.36 815.89 801.75 815.70 812.05 C 815.61 815.55 816.83 820.60 821.07 820.89 C 828.59 821.31 836.26 818.42 841.72 813.24 C 835.13 802.87 829.30 792.00 822.23 781.96 M 723.94 852.97 C 716.28 860.99 708.00 868.38 699.70 875.73 C 694.59 880.31 688.85 884.11 683.86 888.82 C 695.34 889.82 707.53 892.59 715.89 901.11 C 721.85 906.48 724.62 914.26 726.33 921.89 C 734.88 922.46 743.45 921.95 752.01 922.14 C 755.87 922.10 759.79 922.44 763.61 921.65 C 765.68 920.02 766.72 917.41 768.57 915.54 C 775.13 908.38 787.06 906.17 795.31 911.67 C 799.00 913.94 800.57 918.18 802.29 921.93 C 812.42 922.14 822.59 922.37 832.72 921.80 C 839.53 909.18 848.84 897.95 860.26 889.25 C 866.17 884.16 873.24 880.73 879.41 876.00 C 877.14 871.87 874.49 867.98 871.95 864.02 C 867.56 857.33 864.01 850.09 859.12 843.73 C 853.70 848.44 848.97 853.88 843.58 858.62 C 830.31 870.83 815.49 881.57 798.96 888.92 C 791.03 892.24 782.70 895.50 773.97 895.32 C 769.73 895.31 767.34 891.27 766.32 887.68 C 762.24 874.21 761.37 860.01 761.73 846.01 C 761.44 829.68 764.49 813.51 768.85 797.84 C 754.55 816.74 740.30 835.77 723.94 852.97 M 314.05 805.11 C 313.32 807.05 312.62 809.00 312.15 811.03 C 303.84 848.66 297.78 886.83 286.92 923.86 C 298.33 923.86 309.76 924.05 321.18 923.80 C 321.57 915.97 321.42 908.05 323.34 900.39 C 329.16 873.12 348.13 850.06 371.37 835.38 C 373.63 834.15 373.02 831.16 373.28 829.03 C 373.23 820.96 373.45 812.87 372.97 804.81 C 361.65 804.36 350.32 804.74 339.00 804.67 C 330.68 804.82 322.35 804.46 314.05 805.11 M 285.12 832.11 C 277.83 839.82 270.15 847.15 262.53 854.54 C 259.67 857.37 256.19 859.72 254.11 863.24 C 253.80 866.03 254.71 868.78 255.55 871.42 C 258.49 879.63 262.38 887.51 267.29 894.72 C 270.85 899.86 274.63 905.09 280.03 908.45 C 282.65 901.10 283.96 893.36 285.81 885.80 C 290.71 862.85 295.34 839.85 300.00 816.86 C 294.76 821.67 290.10 827.04 285.12 832.11 M 637.81 845.82 C 631.17 849.95 624.02 853.17 617.14 856.87 C 624.76 872.86 633.01 888.54 641.09 904.30 C 643.16 903.33 645.24 902.37 647.18 901.16 C 656.29 895.38 665.47 889.66 673.87 882.87 C 679.25 878.43 685.27 874.70 689.96 869.47 C 683.25 868.32 676.59 866.10 671.23 861.78 C 662.38 854.99 657.42 844.73 653.19 834.70 C 648.10 838.46 643.21 842.50 637.81 845.82 M 341.76 881.72 C 334.62 894.45 330.91 909.27 332.33 923.88 C 343.55 924.50 356.55 924.44 365.30 916.30 C 371.56 910.75 373.69 902.12 373.59 894.04 C 373.63 878.43 373.28 862.81 373.67 847.20 C 360.50 855.98 349.58 867.98 341.76 881.72 M 208.57 899.58 C 197.82 907.86 186.10 914.76 174.79 922.21 C 183.29 924.88 192.26 923.71 201.01 923.89 C 225.95 923.74 250.89 924.04 275.83 923.77 C 276.24 922.28 276.67 920.82 277.13 919.36 C 272.08 915.28 266.70 911.47 262.74 906.24 C 254.19 895.75 248.92 883.16 244.31 870.57 C 232.50 880.36 221.03 890.59 208.57 899.58 M 869.16 896.19 C 860.01 903.42 851.15 911.63 845.56 922.02 C 855.82 922.05 866.50 922.94 876.31 919.27 C 883.85 916.46 890.28 909.34 890.29 901.00 C 889.75 895.88 887.19 891.26 884.70 886.86 C 878.77 888.51 874.13 892.78 869.16 896.19 M 649.91 912.50 C 654.73 919.45 664.08 921.03 671.94 921.90 C 686.14 922.21 700.36 922.28 714.56 921.92 C 714.41 915.86 710.67 910.58 706.30 906.69 C 698.26 900.15 687.35 897.78 677.19 899.10 C 666.94 900.67 658.22 906.70 649.91 912.50 M 776.51 922.01 C 781.14 922.49 785.83 922.45 790.46 921.88 C 787.09 917.57 779.84 917.72 776.51 922.01 Z" />
<path fill="#0c0d0d" stroke="#0c0d0d" stroke-width="0.09375" opacity="1.00" d=" M 195.39 115.37 C 203.45 114.27 210.58 122.83 208.51 130.56 C 206.65 137.50 198.07 141.34 191.58 138.45 C 186.31 136.12 183.55 129.66 185.06 124.18 C 186.45 119.62 190.57 115.87 195.39 115.37 Z" />
<path fill="#0c0d0d" stroke="#0c0d0d" stroke-width="0.09375" opacity="1.00" d=" M 612.43 127.45 C 615.91 126.03 620.42 127.91 621.40 131.66 C 623.47 136.94 617.61 143.19 612.23 140.99 C 606.33 139.02 606.43 129.23 612.43 127.45 Z" />
<path fill="#0c0d0d" stroke="#0c0d0d" stroke-width="0.09375" opacity="1.00" d=" M 704.49 153.58 C 709.80 152.35 715.59 155.70 717.06 160.99 C 719.41 167.53 713.93 175.24 707.01 175.31 C 701.86 175.67 697.04 171.86 696.03 166.85 C 694.50 161.06 698.49 154.51 704.49 153.58 Z" />
<path fill="#0c0d0d" stroke="#0c0d0d" stroke-width="0.09375" opacity="1.00" d=" M 430.43 154.52 C 435.09 152.81 440.42 157.01 439.87 161.93 C 439.67 167.30 432.79 171.04 428.40 167.60 C 423.31 164.67 424.98 156.00 430.43 154.52 Z" />
<path fill="#0c0d0d" stroke="#0c0d0d" stroke-width="0.09375" opacity="1.00" d=" M 610.39 170.35 C 615.89 168.94 621.00 175.38 618.49 180.45 C 617.02 185.23 610.22 186.89 606.79 183.21 C 602.63 179.33 604.77 171.44 610.39 170.35 Z" />
<path fill="#0c0d0d" stroke="#0c0d0d" stroke-width="0.09375" opacity="1.00" d=" M 433.44 204.39 C 438.59 201.75 445.13 206.98 443.55 212.56 C 442.76 217.47 436.59 220.59 432.42 217.54 C 427.63 214.60 428.35 206.61 433.44 204.39 Z" />
<path fill="#0c0d0d" stroke="#0c0d0d" stroke-width="0.09375" opacity="1.00" d=" M 254.39 212.41 C 262.05 209.95 270.64 216.11 271.33 224.01 C 272.59 231.61 265.41 238.43 258.01 238.11 C 252.42 237.89 247.02 233.92 245.67 228.39 C 243.86 221.90 247.77 214.24 254.39 212.41 Z" />
<path fill="#0c0d0d" stroke="#0c0d0d" stroke-width="0.09375" opacity="1.00" d=" M 600.36 212.28 C 605.29 211.20 610.44 215.93 609.42 220.98 C 609.33 226.58 601.84 230.22 597.57 226.43 C 592.55 222.85 594.31 213.67 600.36 212.28 Z" />
<path fill="#0c0d0d" stroke="#0c0d0d" stroke-width="0.09375" opacity="1.00" d=" M 303.40 223.44 C 310.99 220.19 319.97 226.87 319.45 235.00 C 319.56 244.29 307.08 249.61 300.08 243.92 C 292.67 238.90 294.86 225.94 303.40 223.44 Z" />
<path fill="#0c0d0d" stroke="#0c0d0d" stroke-width="0.09375" opacity="1.00" d=" M 348.32 233.26 C 352.74 231.23 358.22 233.49 360.09 237.92 C 363.59 244.51 355.18 252.87 348.59 249.43 C 342.07 246.80 341.78 236.03 348.32 233.26 Z" />
<path fill="#0c0d0d" stroke="#0c0d0d" stroke-width="0.09375" opacity="1.00" d=" M 592.33 545.08 C 594.90 543.83 598.25 544.92 599.73 547.37 C 602.71 551.82 604.79 556.79 607.63 561.33 C 610.63 566.65 614.32 571.56 617.04 577.04 C 619.53 581.03 614.01 586.53 610.02 584.07 C 607.08 582.30 605.45 579.13 603.69 576.33 C 599.30 568.74 594.65 561.29 590.39 553.64 C 588.51 550.83 589.07 546.60 592.33 545.08 Z" />
<path fill="#0c0d0d" stroke="#0c0d0d" stroke-width="0.09375" opacity="1.00" d=" M 551.33 581.13 C 554.18 579.94 557.37 581.70 558.53 584.42 C 562.07 591.50 564.52 599.05 567.69 606.30 C 569.17 610.09 571.26 613.78 571.69 617.89 C 571.28 622.40 564.04 624.24 561.98 619.95 C 558.53 613.47 556.30 606.40 553.20 599.75 C 551.44 595.43 549.09 591.32 547.93 586.79 C 547.14 584.28 549.10 581.97 551.33 581.13 Z" />
<path fill="#0c0d0d" stroke="#0c0d0d" stroke-width="0.09375" opacity="1.00" d=" M 498.49 602.45 C 500.90 601.70 503.77 602.79 504.85 605.14 C 507.65 610.36 509.17 616.14 511.51 621.56 C 513.31 626.43 516.03 630.98 517.17 636.08 C 518.13 640.46 511.51 643.24 508.45 640.59 C 506.09 637.60 504.99 633.89 503.46 630.47 C 500.71 623.48 497.51 616.64 495.38 609.44 C 494.34 606.70 495.64 603.40 498.49 602.45 Z" />
<path fill="#0c0d0d" stroke="#0c0d0d" stroke-width="0.09375" opacity="1.00" d=" M 701.42 618.32 C 704.03 617.35 707.23 617.68 709.10 619.92 C 714.85 625.83 720.01 632.31 725.89 638.11 C 728.06 640.35 730.47 642.47 731.92 645.28 C 734.31 649.55 728.62 655.00 724.40 652.76 C 721.71 651.12 719.84 648.52 717.73 646.26 C 712.12 639.87 706.39 633.60 700.80 627.20 C 698.28 624.76 697.89 620.03 701.42 618.32 Z" />
<path fill="#0c0d0d" stroke="#0c0d0d" stroke-width="0.09375" opacity="1.00" d=" M 355.42 639.44 C 359.61 638.24 363.73 641.88 363.72 646.09 C 364.09 651.72 356.39 655.80 352.11 651.91 C 347.47 648.60 349.82 640.17 355.42 639.44 Z" />
<path fill="#0c0d0d" stroke="#0c0d0d" stroke-width="0.09375" opacity="1.00" d=" M 278.48 659.40 C 281.67 658.19 285.21 660.98 285.95 664.08 C 285.68 666.57 283.88 668.53 282.43 670.46 C 279.97 673.32 277.55 676.32 274.43 678.49 C 271.61 680.69 267.43 678.18 266.80 675.00 C 267.30 671.98 269.47 669.62 271.17 667.20 C 273.39 664.42 275.43 661.33 278.48 659.40 Z" />
<path fill="#0c0d0d" stroke="#0c0d0d" stroke-width="0.09375" opacity="1.00" d=" M 662.39 660.38 C 665.77 659.35 668.44 662.41 670.06 664.96 C 673.87 671.13 677.54 677.39 681.61 683.40 C 683.98 687.08 686.69 690.60 688.38 694.68 C 689.88 697.57 686.99 700.43 684.57 701.62 C 681.46 702.69 679.04 699.72 677.49 697.47 C 672.50 689.77 667.85 681.86 662.78 674.22 C 661.10 671.51 659.09 668.89 658.26 665.78 C 657.60 663.14 660.12 661.06 662.39 660.38 Z" />
<path fill="#0c0d0d" stroke="#0c0d0d" stroke-width="0.09375" opacity="1.00" d=" M 342.32 668.18 C 346.75 666.31 352.42 670.02 351.94 674.94 C 352.19 680.08 346.10 683.91 341.60 681.40 C 336.14 679.01 336.60 669.96 342.32 668.18 Z" />
<path fill="#0c0d0d" stroke="#0c0d0d" stroke-width="0.09375" opacity="1.00" d=" M 328.52 696.56 C 332.88 695.01 337.88 698.48 338.11 703.08 C 338.91 708.47 332.43 713.10 327.61 710.38 C 321.83 707.88 322.67 698.44 328.52 696.56 Z" />
<path fill="#0c0d0d" stroke="#0c0d0d" stroke-width="0.09375" opacity="1.00" d=" M 610.34 703.22 C 613.11 702.44 616.23 703.99 617.29 706.67 C 619.75 712.18 621.11 718.11 623.12 723.80 C 624.70 729.23 627.38 734.38 628.17 740.03 C 629.04 744.91 621.27 747.01 618.92 743.02 C 616.58 739.01 615.60 734.40 613.97 730.09 C 611.83 723.56 609.12 717.23 607.16 710.65 C 606.07 707.80 607.22 704.11 610.34 703.22 Z" />
<path fill="#0c0d0d" stroke="#0c0d0d" stroke-width="0.09375" opacity="1.00" d=" M 307.38 723.27 C 312.67 721.67 318.40 727.22 316.55 732.56 C 315.48 737.67 308.29 740.09 304.48 736.45 C 300.07 732.88 301.63 724.47 307.38 723.27 Z" />
<path fill="#0c0d0d" stroke="#0c0d0d" stroke-width="0.09375" opacity="1.00" d=" M 287.32 750.16 C 291.54 748.93 296.57 751.59 297.32 756.06 C 298.96 761.89 291.77 767.76 286.46 764.58 C 280.37 761.99 280.81 751.92 287.32 750.16 Z" />
<path fill="#0c0d0d" stroke="#0c0d0d" stroke-width="0.09375" opacity="1.00" d=" M 261.45 774.43 C 268.47 773.07 274.61 781.65 270.87 787.82 C 268.24 793.56 259.36 794.43 255.73 789.23 C 251.57 784.09 254.76 775.30 261.45 774.43 Z" />
<path fill="#0c0d0d" stroke="#0c0d0d" stroke-width="0.09375" opacity="1.00" d=" M 232.33 801.11 C 238.91 798.25 246.75 805.29 244.14 812.10 C 242.55 819.06 231.87 820.88 228.20 814.76 C 224.91 810.17 226.92 802.99 232.33 801.11 Z" />
<path fill="#0c0d0d" stroke="#0c0d0d" stroke-width="0.09375" opacity="1.00" d=" M 205.46 825.52 C 211.14 824.15 216.46 830.36 214.89 835.81 C 213.88 840.52 208.14 843.55 203.77 841.24 C 196.92 838.61 197.96 826.51 205.46 825.52 Z" />
<path fill="#0c0d0d" stroke="#0c0d0d" stroke-width="0.09375" opacity="1.00" d=" M 328.34 832.32 C 332.94 830.72 338.77 833.34 339.65 838.38 C 341.83 844.89 334.62 851.84 328.23 848.97 C 321.18 846.31 321.23 834.85 328.34 832.32 Z" />
<path fill="#0c0d0d" stroke="#0c0d0d" stroke-width="0.09375" opacity="1.00" d=" M 173.35 851.24 C 178.16 849.91 183.07 854.98 181.65 859.75 C 180.99 863.98 176.00 867.23 172.03 864.98 C 165.91 862.68 166.91 852.35 173.35 851.24 Z" />
<path fill="#0c0d0d" stroke="#0c0d0d" stroke-width="0.09375" opacity="1.00" d=" M 735.33 860.29 C 741.39 858.16 748.59 860.53 751.99 866.01 C 755.48 871.80 754.95 880.15 749.92 884.93 C 743.84 890.95 732.10 889.67 727.93 882.02 C 723.30 874.60 726.34 862.66 735.33 860.29 M 738.34 869.01 C 736.35 870.25 734.41 872.42 734.87 874.94 C 735.30 877.02 737.09 878.65 739.06 879.33 C 742.13 879.77 744.91 876.93 745.23 874.01 C 745.25 870.77 741.57 867.01 738.34 869.01 Z" />
</g>
</svg>
