<?xml version="1.0" encoding="UTF-8" ?>
<!DOCTYPE svg PUBLIC "-//W3C//DTD SVG 1.1//EN" "http://www.w3.org/Graphics/SVG/1.1/DTD/svg11.dtd">
<svg width="1024pt" height="1024pt" viewBox="0 0 1024 1024" version="1.1" xmlns="http://www.w3.org/2000/svg">
<g id="#fdfffeff">
<path fill="#fdfffe" stroke="#fdfffe" stroke-width="0.09375" opacity="1.00" d=" M 0.00 0.00 L 1024.00 0.00 L 1024.00 1024.00 L 0.00 1024.00 L 0.00 0.00 M 472.05 89.61 C 442.43 89.72 412.83 91.10 383.25 92.42 C 343.43 94.54 303.64 97.22 263.95 101.07 C 244.60 103.23 225.08 105.08 206.20 110.09 C 187.87 114.90 170.76 124.92 158.48 139.47 C 149.12 150.44 142.87 163.71 138.29 177.29 C 131.44 198.16 128.35 220.12 127.74 242.03 C 127.31 258.07 127.84 274.35 132.04 289.93 C 136.73 308.79 146.76 326.67 161.92 339.07 C 174.52 349.42 190.39 355.13 206.43 357.31 C 226.42 360.35 246.62 357.58 266.58 355.73 C 295.39 352.40 324.08 348.08 352.93 345.09 C 359.95 344.46 367.19 344.10 374.03 346.10 C 382.35 348.46 389.11 355.55 391.11 363.96 C 392.16 368.22 391.89 372.65 391.91 377.00 C 391.90 396.01 391.26 415.00 391.01 434.00 C 390.20 471.99 389.67 509.99 389.25 547.99 C 388.37 560.64 389.02 573.32 388.33 585.97 C 388.30 603.98 387.36 621.98 387.41 639.99 C 386.19 674.66 385.93 709.34 384.75 744.01 C 384.48 765.76 383.98 787.51 383.26 809.26 C 379.93 811.08 376.20 812.74 374.17 816.14 C 371.26 820.88 372.01 826.70 371.86 832.01 C 372.28 848.34 372.08 864.67 372.14 881.00 C 372.04 898.86 372.50 916.71 372.16 934.57 C 368.74 934.55 365.33 934.57 361.92 934.61 C 361.47 911.75 361.86 888.87 361.72 866.00 C 361.51 841.30 362.21 816.61 362.01 791.91 C 362.08 790.01 361.88 787.80 363.47 786.43 C 366.45 783.21 369.75 779.64 369.75 774.96 C 370.38 768.48 364.69 762.03 358.01 762.73 C 350.46 762.76 344.09 770.46 345.97 777.91 C 346.39 782.66 350.64 785.25 353.55 788.44 C 353.85 814.94 353.29 841.48 353.40 868.00 C 353.24 890.25 353.64 912.52 352.78 934.75 C 350.01 934.71 347.24 934.66 344.47 934.59 C 344.24 900.73 344.34 866.87 344.15 833.01 C 343.94 826.37 344.02 818.91 339.42 813.57 C 335.95 809.15 329.25 807.22 324.32 810.34 C 319.05 813.54 318.73 820.46 318.46 825.97 C 318.13 862.25 318.85 898.55 318.04 934.83 C 316.33 934.82 314.62 934.83 312.91 934.85 C 312.77 905.23 312.96 875.61 313.38 845.99 C 313.39 839.75 314.15 833.42 312.68 827.29 C 310.68 827.61 308.11 826.95 306.62 828.66 C 305.77 830.33 305.65 832.25 305.49 834.10 C 304.75 867.62 304.82 901.14 304.42 934.67 C 300.02 934.77 295.62 934.75 291.23 934.69 C 290.45 897.44 289.64 860.20 288.23 822.97 C 287.74 819.71 289.25 816.75 291.44 814.45 C 299.15 805.80 306.65 796.95 313.82 787.85 C 323.98 774.21 333.02 759.68 340.17 744.24 C 344.04 735.59 347.57 726.54 348.12 716.99 C 348.19 711.50 346.96 705.18 342.28 701.74 C 337.35 698.10 330.48 699.52 325.67 702.67 C 317.18 708.19 311.56 717.00 306.81 725.73 C 298.16 742.87 292.49 761.28 287.01 779.61 C 286.50 774.77 286.52 769.90 286.32 765.04 C 285.62 741.59 284.65 718.14 283.40 694.71 C 291.28 691.67 299.50 688.67 305.78 682.80 C 313.17 675.88 318.83 666.74 320.32 656.62 C 322.50 642.13 318.23 626.58 308.34 615.66 C 299.26 605.50 285.68 599.33 272.00 599.74 C 258.48 599.23 244.81 603.72 234.39 612.39 C 223.12 622.45 216.78 637.99 218.21 653.08 C 218.80 664.31 224.27 674.97 232.30 682.72 C 238.88 688.91 247.30 692.80 255.93 695.23 C 256.74 728.85 258.28 762.45 259.39 796.06 C 259.91 821.80 261.35 847.52 261.53 873.26 C 261.81 893.74 262.59 914.22 262.19 934.69 C 253.44 934.84 244.69 934.49 235.94 934.66 C 245.62 925.78 254.89 914.62 255.87 900.97 C 256.36 897.31 254.90 892.79 250.88 891.91 C 244.72 890.81 238.71 893.57 233.46 896.51 C 219.99 904.51 209.18 916.33 200.34 929.14 C 200.10 920.84 199.28 912.57 198.20 904.35 C 208.74 898.52 219.50 892.70 228.05 884.05 C 240.13 872.60 247.33 856.87 250.57 840.73 C 251.07 837.75 251.52 834.18 249.22 831.82 C 246.85 828.96 242.67 829.36 239.56 830.58 C 233.47 832.95 228.24 837.09 223.46 841.46 C 212.63 851.76 203.79 864.07 197.10 877.42 C 196.40 863.97 195.33 850.54 194.90 837.08 C 199.67 835.19 204.43 833.30 209.10 831.17 C 223.39 824.65 234.90 812.62 241.37 798.36 C 245.08 790.09 247.95 781.12 247.52 771.95 C 247.44 768.05 245.00 763.62 240.79 763.15 C 235.84 762.82 231.73 766.17 228.13 769.13 C 213.33 781.63 203.01 798.36 193.68 815.09 C 192.12 802.16 190.69 789.20 188.82 776.30 C 194.37 772.50 199.94 768.29 203.29 762.31 C 208.38 753.76 208.02 743.26 206.36 733.80 C 203.84 719.16 195.57 706.14 185.21 695.76 C 182.42 693.07 178.59 690.44 174.54 691.61 C 171.19 692.46 169.49 695.95 169.28 699.16 C 168.09 712.20 169.84 725.25 171.09 738.22 C 163.67 726.89 155.28 715.74 144.03 707.97 C 138.43 704.42 131.90 701.15 125.09 701.94 C 121.36 702.40 119.77 706.67 120.61 709.97 C 122.33 718.45 126.95 726.06 132.18 732.84 C 143.88 747.32 159.55 758.97 177.49 764.40 C 179.37 774.65 181.52 784.90 181.98 795.35 C 178.13 791.07 175.01 786.14 170.61 782.39 C 164.41 776.96 157.12 772.11 148.76 771.12 C 145.65 770.77 141.84 771.10 139.94 773.96 C 137.37 777.57 138.63 782.29 139.93 786.14 C 144.35 798.16 153.03 808.10 162.62 816.35 C 169.45 822.32 177.58 826.41 185.60 830.49 C 186.52 844.50 187.43 858.54 187.75 872.58 C 184.93 868.88 182.67 864.80 180.02 860.98 C 174.98 853.51 169.02 846.70 162.60 840.38 C 157.93 835.96 152.98 831.40 146.72 829.41 C 144.03 828.50 140.67 828.47 138.53 830.60 C 136.04 833.02 135.97 836.76 136.07 840.01 C 136.56 851.46 142.27 861.95 149.22 870.78 C 157.96 881.93 169.57 890.81 182.58 896.42 C 185.34 897.82 189.28 899.09 189.39 902.80 C 190.39 911.62 191.35 920.49 191.45 929.39 C 180.28 916.01 168.64 902.11 152.73 894.22 C 148.13 892.09 142.73 889.96 137.70 891.73 C 133.49 893.94 133.89 899.45 134.68 903.42 C 137.23 915.36 144.26 925.80 151.95 935.06 C 155.43 938.94 159.20 943.89 164.97 943.80 C 249.32 943.96 333.68 943.91 418.04 943.94 C 425.08 943.27 430.96 947.69 437.46 949.52 C 451.53 953.78 466.31 954.94 480.93 955.85 C 502.48 956.89 524.09 956.99 545.63 955.71 C 562.32 954.46 579.31 952.43 594.82 945.75 C 597.99 944.27 601.49 943.86 604.96 943.93 C 693.67 943.84 782.37 943.93 871.08 943.84 C 875.06 943.87 879.29 943.14 882.34 940.36 C 887.92 935.40 891.19 928.37 893.33 921.34 C 895.32 914.35 896.02 906.26 892.22 899.75 C 889.57 895.21 884.28 893.52 879.56 892.06 C 885.65 886.57 891.74 880.48 894.52 872.59 C 896.26 867.61 896.43 861.43 892.77 857.25 C 889.76 853.87 884.99 853.45 880.81 852.79 C 887.87 846.26 894.27 838.69 897.63 829.56 C 899.41 824.54 901.17 818.88 899.27 813.66 C 898.13 810.37 894.46 808.69 891.16 809.33 C 881.65 810.82 873.37 816.06 864.89 820.26 C 869.41 815.64 873.91 810.97 877.67 805.69 C 885.87 795.20 891.13 782.51 893.24 769.40 C 893.69 764.97 894.36 760.03 892.00 756.01 C 890.05 752.75 885.71 752.22 882.37 753.30 C 874.62 755.63 868.37 761.17 862.79 766.80 C 854.20 775.88 846.51 785.94 840.92 797.16 C 841.77 791.20 842.30 785.06 844.51 779.42 C 847.24 775.00 851.28 771.57 854.79 767.79 C 870.93 751.85 884.15 732.50 890.83 710.68 C 893.73 700.79 894.95 689.78 891.02 679.99 C 888.69 674.06 883.60 668.62 876.97 667.98 C 870.18 667.35 864.12 671.20 858.95 675.13 C 858.00 668.43 856.71 661.61 853.27 655.69 C 849.42 648.71 843.07 642.43 834.98 640.97 C 828.82 639.83 822.48 642.87 818.94 647.92 C 812.80 656.44 810.67 666.97 808.27 676.99 C 804.09 675.68 799.47 674.42 795.23 676.22 C 789.98 678.35 787.50 683.98 786.00 689.07 C 783.09 699.85 783.87 711.36 786.68 722.07 C 789.59 733.49 795.92 743.68 803.12 752.88 C 811.68 764.10 822.25 773.88 834.39 781.12 C 832.93 795.25 829.88 809.18 828.45 823.33 C 822.51 807.80 820.29 791.15 814.47 775.59 C 811.85 768.65 807.52 761.76 800.74 758.29 C 794.75 755.10 786.89 757.80 783.42 763.43 C 779.95 768.79 780.23 775.60 781.52 781.62 C 784.55 795.22 791.34 807.59 798.61 819.34 C 790.26 822.09 782.45 826.22 775.29 831.30 C 766.08 837.81 757.08 845.01 750.52 854.29 C 750.08 841.28 754.15 828.74 757.37 816.29 C 762.16 799.05 765.73 781.51 769.09 763.95 C 771.43 751.42 773.61 738.70 772.89 725.92 C 772.33 719.65 770.99 712.46 765.57 708.52 C 761.16 705.23 754.92 706.64 751.02 710.04 C 745.15 715.04 741.13 721.82 737.52 728.54 C 726.45 750.66 720.35 774.81 714.73 798.77 C 710.74 815.64 709.25 832.97 705.63 849.91 C 703.32 847.26 701.02 843.48 696.99 843.81 C 692.38 843.45 688.33 847.61 688.33 852.13 C 688.18 858.54 689.63 864.87 691.04 871.09 C 694.53 885.00 698.85 898.69 702.59 912.53 C 704.40 919.98 706.90 927.22 709.13 934.55 C 696.86 934.73 684.59 934.89 672.33 934.57 C 671.98 924.05 672.57 913.53 672.87 903.01 C 673.45 887.87 673.42 872.69 674.76 857.59 C 676.57 841.68 680.84 826.20 684.79 810.73 C 688.03 796.46 692.54 782.37 699.53 769.47 C 700.36 767.76 701.37 766.05 701.63 764.14 C 701.18 761.37 698.20 759.15 695.44 760.23 C 692.78 762.44 691.24 765.65 689.73 768.69 C 686.92 774.72 684.54 780.95 682.18 787.17 C 679.87 793.25 678.41 799.67 675.40 805.48 C 675.16 797.26 676.09 789.07 676.99 780.92 C 679.42 760.33 682.22 739.74 686.71 719.48 C 690.71 701.45 694.64 683.31 701.32 666.05 C 703.64 666.52 705.95 667.03 708.26 667.55 C 708.91 678.44 710.41 689.42 714.44 699.63 C 715.95 703.08 717.81 706.98 721.54 708.46 C 724.77 709.67 728.05 707.49 730.12 705.13 C 734.56 699.90 735.77 692.63 735.25 685.96 C 734.73 678.24 730.69 671.47 727.53 664.61 C 735.67 668.21 743.80 672.98 752.97 672.93 C 758.57 672.86 765.14 669.94 766.34 663.92 C 767.52 658.72 763.58 654.11 759.42 651.60 C 751.54 646.56 742.03 645.88 733.09 644.19 C 740.75 640.73 748.77 636.77 753.69 629.67 C 756.74 625.45 756.90 618.85 752.59 615.40 C 748.24 611.41 741.88 612.94 737.01 615.00 C 730.24 617.43 725.04 622.54 718.96 626.17 C 719.68 619.83 723.82 614.69 725.69 608.72 C 727.69 602.52 729.42 595.49 726.75 589.23 C 725.35 585.67 721.27 583.12 717.48 584.44 C 713.63 585.81 711.60 589.75 710.49 593.43 C 707.61 603.05 707.35 613.18 706.81 623.13 C 704.90 623.27 703.00 623.41 701.11 623.54 C 698.91 617.22 696.54 610.86 692.56 605.42 C 689.31 600.98 685.61 595.97 679.96 594.66 C 673.04 593.44 667.56 600.56 667.76 606.98 C 667.43 614.36 672.81 620.16 677.83 624.87 C 672.74 625.44 667.48 625.68 662.70 627.66 C 658.59 629.42 654.67 633.11 654.85 637.92 C 654.87 642.44 658.84 645.62 662.63 647.34 C 670.19 650.78 678.67 649.50 686.68 649.03 C 686.90 650.41 687.13 651.80 687.37 653.20 C 681.25 656.76 673.56 658.32 668.94 664.00 C 666.32 667.20 669.94 672.06 673.74 670.78 C 680.34 668.15 685.58 662.90 692.28 660.42 C 694.67 662.09 692.71 665.01 692.21 667.19 C 687.70 678.15 685.08 689.75 681.99 701.16 C 677.58 719.05 673.93 737.15 671.61 755.44 C 669.17 773.52 666.59 791.67 666.51 809.96 C 665.92 843.08 664.72 876.19 664.43 909.31 C 662.04 904.66 660.12 899.79 657.89 895.07 C 654.62 888.11 650.14 881.78 646.98 874.78 C 646.14 870.89 647.23 866.87 647.28 862.94 C 648.17 843.98 647.33 824.99 647.25 806.01 C 646.24 739.34 644.61 672.68 644.11 606.00 C 644.20 581.67 643.41 557.34 643.41 533.00 C 642.85 504.35 643.06 475.68 642.41 447.03 C 642.38 421.67 641.47 396.31 641.82 370.95 C 641.83 360.95 648.34 351.28 657.67 347.64 C 668.13 343.53 679.57 345.36 690.43 346.29 C 725.29 349.10 759.93 354.04 794.72 357.58 C 806.43 358.55 818.22 359.81 829.97 358.58 C 844.31 357.37 858.55 352.79 870.26 344.28 C 885.53 333.39 895.69 316.49 900.73 298.63 C 906.18 278.94 907.36 258.35 907.13 238.01 C 907.01 215.65 905.91 193.09 900.59 171.29 C 896.56 155.01 888.56 139.35 875.69 128.30 C 864.47 118.42 850.39 112.33 835.88 109.21 C 812.58 104.14 788.79 102.06 765.12 99.52 C 716.22 94.69 667.12 92.28 618.03 90.40 C 569.38 89.16 520.70 88.15 472.05 89.61 M 254.22 554.05 C 253.79 560.45 255.36 566.72 256.22 573.01 C 256.84 577.50 257.67 581.98 259.38 586.20 C 261.38 585.59 263.36 584.93 265.32 584.21 C 264.68 577.66 263.13 571.25 262.26 564.73 C 261.66 561.05 261.36 557.23 259.75 553.82 C 257.91 553.61 256.05 553.86 254.22 554.05 M 285.14 557.07 C 283.68 560.96 283.99 565.23 283.66 569.32 C 283.48 575.77 282.08 582.24 283.24 588.68 C 285.31 588.44 287.73 588.89 289.47 587.46 C 290.67 583.82 290.38 579.92 290.66 576.16 C 290.84 569.51 291.81 562.82 290.85 556.20 C 288.98 556.41 286.57 555.48 285.14 557.07 M 211.35 570.17 C 209.50 571.05 208.83 573.92 210.26 575.50 C 213.94 580.81 218.26 585.66 222.32 590.69 C 223.94 592.74 227.60 595.80 229.43 592.31 C 231.58 590.18 229.21 587.85 227.89 586.07 C 224.21 581.75 220.69 577.30 217.19 572.85 C 215.79 571.18 213.74 568.87 211.35 570.17 M 315.86 580.83 C 313.79 584.16 311.02 587.20 309.99 591.06 C 309.19 593.66 313.12 595.70 315.09 594.10 C 317.95 591.84 319.51 588.43 321.50 585.47 C 323.95 581.35 327.53 577.58 327.87 572.57 C 326.25 572.15 324.65 571.68 323.00 571.47 C 319.83 573.89 318.13 577.64 315.86 580.83 M 182.95 604.94 C 188.24 608.82 194.06 611.92 199.62 615.40 C 203.08 617.30 206.51 620.03 210.66 619.91 C 211.74 618.55 212.53 616.99 213.37 615.48 C 208.82 612.31 203.89 609.74 199.18 606.82 C 194.14 603.75 189.44 600.04 183.84 597.99 C 182.90 600.02 180.13 603.21 182.95 604.94 M 339.47 610.51 C 335.73 612.85 331.48 614.49 328.20 617.50 C 326.32 619.60 328.45 622.85 330.94 622.97 C 334.20 622.39 336.96 620.39 339.82 618.83 C 346.93 614.57 354.41 610.95 361.45 606.57 C 360.52 604.38 359.30 600.38 356.15 601.81 C 350.26 603.99 344.98 607.54 339.47 610.51 M 165.36 631.54 C 168.25 634.31 172.14 635.60 175.68 637.29 C 184.28 640.96 192.76 645.22 202.01 647.02 C 202.79 645.22 204.16 643.45 203.84 641.38 C 201.39 639.08 198.07 638.14 195.01 636.97 C 188.52 634.69 182.18 632.01 175.96 629.07 C 173.41 627.93 170.84 626.63 168.02 626.34 C 166.11 627.22 164.92 629.46 165.36 631.54 M 361.41 642.13 C 354.64 643.67 347.66 644.20 340.97 646.07 C 337.56 646.60 337.30 652.58 341.09 652.65 C 346.23 652.75 351.22 651.16 356.29 650.47 C 360.42 649.61 364.86 649.51 368.63 647.43 C 369.79 645.45 368.82 642.78 366.82 641.82 C 365.02 641.47 363.19 641.85 361.41 642.13 Z" />
<path fill="#fdfffe" stroke="#fdfffe" stroke-width="0.09375" opacity="1.00" d=" M 465.71 128.80 C 472.22 127.86 478.87 128.33 485.44 128.14 C 483.42 131.50 481.22 134.76 479.06 138.03 C 469.20 152.71 461.34 168.89 457.01 186.07 C 454.44 197.23 453.96 209.80 460.09 219.93 C 467.78 232.84 481.90 240.42 496.08 244.01 C 505.63 246.64 516.37 247.14 525.32 242.30 C 534.30 237.75 539.82 228.75 543.89 219.89 C 544.46 217.91 546.25 215.47 544.59 213.60 C 542.98 211.37 539.05 211.05 537.85 213.84 C 533.08 221.47 529.12 230.44 520.88 234.99 C 512.82 239.10 503.38 237.34 495.12 234.82 C 484.39 231.22 473.32 225.63 467.54 215.40 C 461.90 205.97 463.39 194.31 466.17 184.21 C 471.60 165.54 482.11 148.91 492.97 132.97 C 494.57 130.99 496.03 128.03 499.02 128.25 C 506.99 127.85 514.99 127.90 522.97 127.89 C 515.95 140.90 507.10 153.73 505.96 168.92 C 504.58 183.67 513.46 199.25 527.69 204.17 C 537.97 207.87 549.97 204.18 557.10 196.09 C 563.99 188.34 568.06 178.64 572.31 169.31 C 577.63 157.21 582.89 145.09 587.84 132.83 C 588.46 131.43 589.08 129.98 590.10 128.81 C 596.08 128.32 602.09 128.80 608.07 129.06 C 605.70 137.82 601.74 146.02 598.37 154.42 C 582.96 190.27 561.89 223.42 538.72 254.72 C 515.90 285.30 491.58 314.75 466.55 343.54 C 454.59 357.03 442.83 370.76 429.86 383.31 C 429.79 369.77 429.76 355.86 425.01 342.98 C 421.02 331.01 412.69 320.42 401.47 314.48 C 385.25 305.41 365.99 305.64 347.97 306.31 C 345.05 306.17 341.50 307.19 339.24 304.80 C 331.16 297.54 326.23 287.35 324.25 276.76 C 323.62 274.78 323.49 271.44 320.78 271.33 C 318.47 270.81 315.51 272.39 315.66 275.02 C 316.09 287.48 322.34 298.84 330.00 308.36 C 322.99 309.28 316.01 310.57 308.96 311.15 C 306.16 311.73 304.15 309.37 302.50 307.51 C 297.35 301.29 295.24 293.28 293.39 285.59 C 292.58 282.49 292.26 279.16 290.54 276.40 C 288.69 274.73 285.25 274.99 283.93 277.20 C 283.28 278.71 283.59 280.41 283.79 281.99 C 285.83 292.89 288.52 304.11 295.60 312.96 C 286.45 314.72 277.14 315.39 267.93 316.74 C 262.98 317.46 258.00 318.03 253.01 318.38 C 248.25 307.11 247.44 294.62 248.34 282.54 C 249.44 266.39 252.26 249.63 247.13 233.87 C 243.54 222.32 233.57 212.62 221.44 210.71 C 213.38 208.91 205.25 212.52 197.21 210.85 C 190.75 209.47 186.91 202.98 186.10 196.82 C 184.90 187.31 186.30 177.69 188.34 168.40 C 189.11 165.22 189.86 161.71 192.51 159.53 C 196.05 156.43 200.12 154.03 204.21 151.74 C 200.82 166.08 199.06 181.12 201.54 195.76 C 203.73 195.85 206.37 196.89 208.20 195.19 C 209.73 193.98 209.32 191.79 209.39 190.09 C 208.66 177.86 208.93 165.34 212.48 153.52 C 213.34 151.31 213.85 148.31 216.47 147.55 C 220.99 145.83 225.78 144.96 230.48 143.88 C 230.06 155.52 229.08 167.21 230.25 178.83 C 230.82 183.52 238.86 182.48 238.81 177.89 C 238.83 166.09 237.76 154.15 239.91 142.45 C 250.00 141.16 260.13 140.25 270.26 139.36 C 268.40 150.66 267.81 162.36 270.49 173.58 C 270.93 176.85 275.34 177.90 277.44 175.51 C 279.75 173.54 278.79 170.27 278.45 167.70 C 276.71 158.14 276.05 147.48 280.54 138.60 C 284.28 137.75 288.14 137.67 291.95 137.30 C 314.51 135.51 337.08 133.60 359.69 132.62 C 356.58 139.10 352.89 145.29 349.75 151.76 C 348.72 153.97 347.61 156.28 347.71 158.78 C 349.31 160.25 351.49 161.87 353.80 161.22 C 355.57 160.14 356.42 158.12 357.36 156.35 C 360.64 149.17 364.21 142.10 368.37 135.38 C 369.35 134.05 370.17 132.12 372.11 132.12 C 376.55 131.43 381.07 131.48 385.56 131.30 C 379.29 143.96 372.95 156.60 367.64 169.70 C 367.04 171.37 366.48 173.10 366.49 174.90 C 367.91 176.51 370.12 178.46 372.43 177.48 C 374.44 176.00 375.33 173.55 376.38 171.38 C 381.61 159.21 386.88 147.01 393.53 135.53 C 394.67 133.82 395.63 131.75 397.51 130.72 C 401.64 129.85 405.90 130.17 410.09 130.07 C 405.45 142.56 400.19 154.81 395.15 167.14 C 393.42 171.63 390.62 175.96 390.53 180.90 C 391.98 182.46 394.76 184.79 396.81 182.90 C 399.89 179.19 401.07 174.35 403.16 170.08 C 409.31 156.75 413.92 142.75 420.46 129.60 C 431.79 129.19 443.11 128.78 454.45 128.61 C 446.61 142.81 439.37 157.75 436.73 173.89 C 438.78 174.56 440.82 175.33 442.96 175.67 C 444.55 174.19 445.35 172.12 446.06 170.12 C 449.97 158.27 454.29 146.44 460.72 135.69 C 462.21 133.29 463.49 130.63 465.71 128.80 M 314.36 175.09 C 304.04 178.23 294.77 184.65 287.93 192.97 C 279.21 203.91 276.36 218.30 276.38 232.00 C 276.45 235.88 276.20 239.87 277.33 243.63 C 279.39 245.45 283.60 245.55 284.79 242.69 C 285.49 239.52 285.08 236.23 285.09 233.01 C 284.78 223.08 286.19 212.80 290.96 203.96 C 296.40 194.18 305.72 186.50 316.58 183.57 C 319.22 182.77 323.10 181.72 322.71 178.19 C 321.75 174.62 317.41 173.83 314.36 175.09 M 405.49 216.33 C 402.46 219.23 400.90 223.25 398.80 226.81 C 393.27 236.39 388.13 246.19 382.93 255.95 C 381.12 259.77 378.64 263.45 378.08 267.71 C 379.33 270.06 383.16 271.65 385.15 269.33 C 387.88 266.09 389.33 262.02 391.43 258.38 C 397.06 248.32 402.08 237.91 408.02 228.02 C 409.38 225.48 411.13 222.97 411.40 220.03 C 411.31 217.20 407.96 215.73 405.49 216.33 M 347.42 224.41 C 345.50 224.61 345.14 227.28 344.64 228.82 C 342.91 238.92 342.47 249.19 341.24 259.36 C 340.92 263.14 340.16 267.00 340.95 270.77 C 342.67 272.51 345.39 272.88 347.56 271.79 C 349.33 269.62 349.12 266.62 349.47 264.01 C 350.26 252.01 352.05 240.09 352.89 228.10 C 353.27 225.18 349.72 224.17 347.42 224.41 M 441.37 268.13 C 438.50 269.92 436.35 272.61 433.93 274.92 C 426.76 282.10 419.58 289.25 412.22 296.23 C 410.28 298.25 407.96 300.21 407.19 303.01 C 407.54 305.12 409.57 307.24 411.85 306.86 C 414.17 306.13 415.97 304.36 417.78 302.80 C 426.28 294.97 434.38 286.73 442.49 278.50 C 444.25 276.52 446.38 274.61 447.12 271.97 C 447.23 269.21 443.86 266.87 441.37 268.13 Z" />
<path fill="#fdfffe" stroke="#fdfffe" stroke-width="0.09375" opacity="1.00" d=" M 533.35 128.21 C 548.88 127.44 564.45 128.20 580.00 128.26 C 573.11 145.62 565.91 162.90 557.66 179.67 C 554.76 185.13 551.31 190.56 546.25 194.26 C 539.69 198.83 530.28 197.75 524.27 192.75 C 516.03 186.00 512.51 174.34 515.20 164.09 C 518.59 150.97 526.63 139.78 533.35 128.21 Z" />
<path fill="#fdfffe" stroke="#fdfffe" stroke-width="0.09375" opacity="1.00" d=" M 618.39 129.28 C 639.94 129.65 661.47 131.01 682.99 132.11 C 693.42 132.74 703.86 133.24 714.26 134.28 C 711.47 145.95 706.47 156.91 701.99 167.99 C 688.52 198.65 671.44 227.67 651.83 254.79 C 640.87 270.52 628.02 285.00 613.28 297.29 C 600.38 308.53 586.36 318.39 573.12 329.18 C 569.91 331.38 572.19 337.22 576.01 336.51 C 580.70 334.83 584.35 331.21 588.37 328.38 C 603.05 316.80 618.38 305.91 631.65 292.66 C 654.13 270.78 671.70 244.49 687.48 217.54 C 698.44 198.74 708.07 179.16 716.09 158.93 C 719.24 151.14 721.63 143.07 724.61 135.21 C 730.71 135.71 736.83 136.04 742.94 136.48 C 744.92 136.55 746.87 137.21 748.29 138.65 C 757.86 147.52 765.44 158.57 770.06 170.79 C 777.45 189.01 778.77 209.20 776.39 228.57 C 773.68 251.24 765.98 273.72 751.95 291.93 C 746.17 298.87 740.11 305.80 732.78 311.12 C 719.15 310.40 705.57 308.36 691.92 307.62 C 674.34 306.24 655.92 305.53 639.30 312.37 C 624.90 318.33 613.59 330.81 608.51 345.47 C 603.82 358.78 603.33 373.05 603.29 387.02 C 586.91 399.20 571.94 413.14 556.76 426.75 C 529.39 451.00 503.22 476.57 476.02 501.00 C 460.01 515.21 444.06 529.50 427.74 543.36 C 427.41 517.57 428.70 491.80 428.67 466.01 C 428.79 462.85 428.39 459.55 429.42 456.51 C 432.00 453.40 435.25 450.95 438.20 448.21 C 479.36 411.42 515.82 369.68 557.95 333.93 C 572.61 320.81 587.88 308.38 603.65 296.62 C 617.16 285.90 630.35 274.74 642.72 262.71 C 644.63 260.64 646.92 258.64 647.71 255.84 C 648.19 252.56 643.70 249.55 641.18 252.16 C 632.31 259.93 623.97 268.34 614.77 275.76 C 597.40 290.12 579.35 303.62 562.11 318.12 C 519.38 352.79 481.36 392.68 442.14 431.15 C 437.90 435.24 433.60 439.25 429.09 443.05 C 429.14 429.35 429.34 415.65 429.33 401.96 C 428.94 398.23 432.10 395.83 434.33 393.37 C 460.34 366.91 484.60 338.77 508.00 309.99 C 529.88 283.28 551.01 255.89 569.90 226.96 C 589.98 196.54 606.72 163.84 618.39 129.28 M 654.39 151.28 C 647.65 154.03 647.80 164.87 654.43 167.63 C 660.49 170.52 668.04 164.64 666.97 158.10 C 666.62 152.23 659.48 148.66 654.39 151.28 M 626.45 196.44 C 622.82 197.98 620.64 201.98 621.07 205.87 C 621.20 210.80 626.00 215.13 630.96 214.31 C 637.41 213.74 641.40 205.50 637.86 200.07 C 635.63 196.18 630.51 194.78 626.45 196.44 M 733.42 220.52 C 724.36 223.31 720.93 235.82 726.94 243.03 C 731.63 249.52 741.87 250.06 747.49 244.49 C 753.10 239.95 753.58 231.22 749.46 225.54 C 746.05 220.49 739.08 218.58 733.42 220.52 M 569.36 260.30 C 565.22 261.46 562.15 265.65 562.69 270.00 C 562.65 274.90 567.12 279.15 572.01 278.86 C 577.86 278.94 582.42 272.69 581.02 267.11 C 580.15 261.92 574.27 258.71 569.36 260.30 M 698.35 277.20 C 690.40 278.87 689.38 290.99 696.39 294.54 C 702.63 298.67 711.22 292.10 710.11 285.09 C 709.67 279.58 703.61 275.53 698.35 277.20 M 477.64 476.65 C 474.24 478.42 471.57 481.24 468.63 483.64 C 459.35 491.35 449.94 498.89 440.87 506.85 C 438.09 509.42 434.59 511.36 432.51 514.60 C 431.26 516.80 433.63 518.68 435.27 519.77 C 438.42 519.40 440.91 517.19 443.37 515.38 C 455.04 506.08 466.58 496.59 477.91 486.87 C 479.88 485.08 482.10 483.35 483.21 480.87 C 483.46 478.19 480.24 475.17 477.64 476.65 Z" />
<path fill="#fdfffe" stroke="#fdfffe" stroke-width="0.09375" opacity="1.00" d=" M 760.56 138.06 C 770.42 138.45 780.19 139.96 790.00 140.97 C 792.85 141.19 795.76 142.01 797.74 144.21 C 807.85 154.11 814.51 167.06 818.62 180.49 C 825.64 204.18 825.14 229.63 819.46 253.55 C 816.02 269.40 809.69 284.51 801.45 298.44 C 797.22 305.32 792.08 311.57 787.02 317.83 C 773.02 316.26 759.00 314.77 745.05 312.87 C 752.21 305.72 759.47 298.53 764.90 289.92 C 774.11 275.24 780.52 258.79 783.65 241.74 C 788.51 215.16 787.79 186.57 776.20 161.74 C 772.26 153.06 766.27 145.60 760.56 138.06 Z" />
<path fill="#fdfffe" stroke="#fdfffe" stroke-width="0.09375" opacity="1.00" d=" M 809.61 143.80 C 815.54 144.58 821.42 145.77 827.22 147.23 C 823.70 149.61 819.98 151.68 816.03 153.27 C 813.78 150.19 811.59 147.06 809.61 143.80 Z" />
<path fill="#fdfffe" stroke="#fdfffe" stroke-width="0.09375" opacity="1.00" d=" M 817.43 155.82 C 822.47 154.09 826.94 150.99 832.02 149.42 C 839.02 150.02 845.22 154.03 850.47 158.48 C 841.52 161.59 832.52 164.55 823.65 167.88 C 821.40 163.96 819.35 159.92 817.43 155.82 Z" />
<path fill="#fdfffe" stroke="#fdfffe" stroke-width="0.09375" opacity="1.00" d=" M 824.81 170.40 C 834.49 167.47 844.13 164.44 853.66 161.04 C 855.60 163.84 857.44 166.71 859.14 169.67 C 848.50 172.45 837.96 175.67 827.76 179.82 C 826.64 176.72 825.66 173.57 824.81 170.40 Z" />
<path fill="#fdfffe" stroke="#fdfffe" stroke-width="0.09375" opacity="1.00" d=" M 828.70 183.13 C 839.47 180.02 850.03 176.28 860.69 172.84 C 863.37 178.45 865.03 184.47 865.90 190.62 C 854.28 193.05 842.84 196.20 831.37 199.20 C 830.53 193.84 829.56 188.49 828.70 183.13 Z" />
<path fill="#fdfffe" stroke="#fdfffe" stroke-width="0.09375" opacity="1.00" d=" M 165.77 238.05 C 166.78 217.65 170.65 197.38 177.63 178.18 C 177.50 185.26 176.06 192.42 177.71 199.44 C 179.24 207.64 184.56 215.53 192.68 218.34 C 199.54 221.09 206.93 219.29 213.99 218.71 C 224.75 217.88 235.17 225.33 238.53 235.47 C 243.92 251.07 240.02 267.70 239.61 283.72 C 229.86 284.26 219.36 284.45 210.85 289.85 C 202.51 295.51 199.42 305.73 197.47 315.10 C 190.33 311.89 183.81 307.23 178.89 301.11 C 171.67 292.35 168.14 281.17 166.66 270.07 C 165.33 259.45 165.07 248.72 165.77 238.05 M 209.35 239.18 C 204.47 239.84 200.38 244.18 200.20 249.13 C 199.57 254.05 202.22 259.37 207.00 261.12 C 212.86 263.63 220.15 260.12 222.25 254.20 C 223.47 250.62 222.99 246.40 220.64 243.38 C 218.03 240.02 213.49 238.48 209.35 239.18 M 176.35 242.23 C 173.28 242.85 172.58 246.24 173.17 248.89 C 174.67 259.15 176.53 269.43 179.67 279.32 C 180.49 281.23 181.38 284.30 184.00 283.98 C 186.14 284.13 188.89 282.41 188.29 280.00 C 187.40 273.86 185.29 267.98 184.20 261.88 C 182.82 256.08 182.49 250.05 180.76 244.34 C 180.40 242.34 178.08 241.61 176.35 242.23 Z" />
<path fill="#fdfffe" stroke="#fdfffe" stroke-width="0.09375" opacity="1.00" d=" M 832.10 204.06 C 843.78 201.72 855.42 199.18 866.92 196.09 C 867.36 199.74 867.71 203.41 867.98 207.09 C 856.06 209.23 844.17 211.57 832.33 214.08 C 832.22 210.74 832.14 207.40 832.10 204.06 Z" />
<path fill="#fdfffe" stroke="#fdfffe" stroke-width="0.09375" opacity="1.00" d=" M 832.32 219.10 C 844.49 217.30 856.67 215.45 868.72 212.94 C 868.90 216.25 869.08 219.56 869.15 222.88 C 856.91 225.57 844.52 227.73 832.02 228.65 C 832.10 225.46 832.21 222.28 832.32 219.10 Z" />
<path fill="#fdfffe" stroke="#fdfffe" stroke-width="0.09375" opacity="1.00" d=" M 831.38 235.22 C 844.27 234.23 857.05 232.22 869.75 229.82 C 869.92 251.36 869.12 273.53 861.58 293.96 C 855.50 291.63 849.45 288.92 842.90 288.34 C 834.50 287.65 826.08 286.76 817.65 287.12 C 819.00 283.55 820.43 280.01 821.95 276.51 C 829.30 276.97 836.62 277.98 844.00 278.23 C 843.91 277.49 843.72 276.03 843.63 275.30 C 836.89 274.27 830.10 273.69 823.33 273.05 C 826.90 260.65 829.82 248.05 831.38 235.22 Z" />
<path fill="#fdfffe" stroke="#fdfffe" stroke-width="0.09375" opacity="1.00" d=" M 816.13 289.76 C 831.06 289.24 846.75 289.77 860.41 296.53 C 858.39 301.82 854.66 306.15 850.84 310.23 C 837.45 305.16 823.09 303.01 808.80 303.82 C 811.24 299.13 813.63 294.41 816.13 289.76 Z" />
<path fill="#fdfffe" stroke="#fdfffe" stroke-width="0.09375" opacity="1.00" d=" M 217.23 296.15 C 223.98 292.82 231.76 292.96 239.11 292.72 C 239.66 301.64 240.75 310.53 243.09 319.17 C 230.91 320.89 218.37 320.66 206.36 317.89 C 206.66 309.68 209.47 300.26 217.23 296.15 Z" />
<path fill="#fdfffe" stroke="#fdfffe" stroke-width="0.09375" opacity="1.00" d=" M 797.27 319.36 C 800.63 315.26 803.25 310.46 807.20 306.89 C 810.41 306.24 813.71 306.55 816.97 306.66 C 827.55 307.24 838.20 308.72 848.16 312.51 C 842.52 316.41 836.13 319.32 829.29 320.23 C 818.66 321.68 807.85 320.91 797.27 319.36 Z" />
<path fill="#fdfffe" stroke="#fdfffe" stroke-width="0.09375" opacity="1.00" d=" M 590.39 409.36 C 594.65 405.66 599.04 402.11 603.69 398.89 C 603.88 416.93 603.52 434.97 604.19 453.00 C 604.32 480.67 604.68 508.33 604.78 536.00 C 604.39 561.00 605.64 585.99 605.14 610.99 C 593.30 602.08 580.31 594.68 566.32 589.72 C 543.71 580.90 518.65 579.68 494.90 583.88 C 470.40 588.23 446.72 597.76 426.53 612.39 C 426.68 595.57 427.45 578.75 427.17 561.92 C 427.33 559.81 426.75 557.15 428.62 555.63 C 455.35 531.35 482.86 507.93 509.18 483.19 C 536.19 458.52 562.69 433.28 590.39 409.36 M 568.45 498.63 C 557.50 502.12 550.71 514.69 553.17 525.81 C 554.81 534.73 562.28 542.19 571.18 543.88 C 580.68 545.82 591.00 541.29 596.25 533.20 C 602.31 523.41 600.23 509.15 590.92 502.10 C 584.68 497.14 575.91 496.34 568.45 498.63 M 484.36 532.26 C 477.55 533.42 471.57 539.79 472.26 546.93 C 472.41 553.94 478.37 559.97 485.28 560.61 C 494.26 562.09 502.99 552.99 501.19 544.08 C 500.09 536.40 491.99 530.60 484.36 532.26 Z" />
<path fill="#fdfffe" stroke="#fdfffe" stroke-width="0.09375" opacity="1.00" d=" M 484.53 540.44 C 488.72 538.88 494.25 543.22 492.88 547.75 C 492.06 550.76 488.75 553.55 485.53 552.44 C 483.10 551.53 480.66 549.59 480.31 546.87 C 480.33 544.17 482.19 541.66 484.53 540.44 Z" />
<path fill="#fdfffe" stroke="#fdfffe" stroke-width="0.09375" opacity="1.00" d=" M 475.97 597.89 C 499.20 590.19 524.57 588.30 548.51 593.70 C 563.70 597.67 578.51 603.65 591.61 612.39 C 596.10 615.52 600.84 618.47 604.58 622.51 C 606.22 628.32 605.27 634.57 605.35 640.56 C 593.82 630.73 581.67 621.39 567.77 615.16 C 551.37 607.34 533.09 603.80 514.96 604.26 C 483.11 605.02 451.89 616.32 426.24 635.08 C 426.30 631.55 425.95 627.97 426.61 624.49 C 427.52 622.54 429.47 621.38 431.09 620.09 C 444.72 610.34 459.96 602.82 475.97 597.89 Z" />
<path fill="#fdfffe" stroke="#fdfffe" stroke-width="0.09375" opacity="1.00" d=" M 715.16 614.23 C 715.89 607.22 716.22 599.84 719.58 593.48 C 720.61 600.68 718.16 607.79 715.16 614.23 Z" />
<path fill="#fdfffe" stroke="#fdfffe" stroke-width="0.09375" opacity="1.00" d=" M 675.87 603.61 C 680.11 603.27 683.56 605.79 685.71 609.25 C 689.35 614.35 692.09 620.21 692.93 626.48 C 686.95 622.90 681.70 618.10 677.50 612.55 C 675.50 610.00 675.92 606.62 675.87 603.61 Z" />
<path fill="#fdfffe" stroke="#fdfffe" stroke-width="0.09375" opacity="1.00" d=" M 267.82 608.70 C 275.77 608.10 283.70 609.82 290.91 613.16 C 288.17 618.43 284.75 623.40 280.62 627.69 C 279.00 629.60 275.66 628.47 274.63 626.44 C 271.31 621.00 269.18 614.91 267.82 608.70 Z" />
<path fill="#fdfffe" stroke="#fdfffe" stroke-width="0.09375" opacity="1.00" d=" M 246.74 614.81 C 250.74 612.48 255.01 610.60 259.54 609.55 C 261.59 616.61 264.74 623.28 266.83 630.33 C 259.55 625.97 253.13 620.36 246.74 614.81 Z" />
<path fill="#fdfffe" stroke="#fdfffe" stroke-width="0.09375" opacity="1.00" d=" M 454.32 628.30 C 472.28 619.43 492.01 614.27 511.99 612.86 C 522.45 612.17 532.90 613.73 543.12 615.89 C 551.27 617.61 558.86 621.14 566.38 624.61 C 580.00 631.13 592.51 640.17 602.57 651.47 C 604.17 653.31 606.15 655.27 605.86 657.95 C 605.79 681.32 606.12 704.69 606.52 728.05 C 597.84 711.44 586.61 695.86 571.84 684.15 C 560.49 674.43 546.34 668.54 531.93 665.04 C 502.23 658.69 470.05 664.01 444.37 680.37 C 437.23 684.93 431.06 690.76 424.72 696.34 C 424.99 682.88 425.58 669.43 425.48 655.97 C 425.54 653.25 425.28 650.47 425.90 647.80 C 428.04 644.66 431.40 642.63 434.43 640.45 C 440.97 636.26 447.30 631.69 454.32 628.30 M 512.51 619.31 C 509.69 621.75 509.41 627.39 513.50 628.72 C 517.31 630.88 521.94 626.44 520.54 622.51 C 519.76 619.12 515.40 617.37 512.51 619.31 M 540.50 624.34 C 538.12 626.13 537.03 630.24 539.67 632.30 C 542.30 635.00 547.96 634.01 548.45 629.92 C 549.42 625.63 544.12 622.11 540.50 624.34 M 483.40 625.04 C 479.77 626.81 479.53 633.13 483.55 634.58 C 487.12 636.56 491.82 633.03 491.31 629.09 C 490.91 625.54 486.47 623.51 483.40 625.04 M 455.47 633.26 C 452.51 635.04 451.94 640.06 454.99 642.07 C 457.82 644.25 462.55 642.48 462.90 638.82 C 463.84 634.85 458.96 631.24 455.47 633.26 M 568.56 637.39 C 565.87 639.51 566.18 644.18 569.18 645.91 C 572.19 648.25 577.02 645.67 577.00 641.93 C 577.50 637.63 571.88 634.85 568.56 637.39 M 435.38 647.04 C 432.91 648.86 432.05 653.29 434.83 655.26 C 437.50 657.70 442.69 656.74 443.35 652.86 C 444.73 648.44 439.06 644.78 435.38 647.04 M 591.33 661.92 C 587.99 663.67 587.51 669.18 591.19 670.87 C 594.91 673.62 600.05 669.40 599.09 665.21 C 598.55 661.73 594.17 660.58 591.33 661.92 Z" />
<path fill="#fdfffe" stroke="#fdfffe" stroke-width="0.09375" opacity="1.00" d=" M 287.21 632.38 C 290.35 627.13 294.99 623.00 299.05 618.49 C 304.23 623.68 308.33 629.98 310.37 637.06 C 303.94 637.15 297.48 637.22 291.05 636.81 C 288.88 636.88 285.92 634.73 287.21 632.38 Z" />
<path fill="#fdfffe" stroke="#fdfffe" stroke-width="0.09375" opacity="1.00" d=" M 228.94 635.83 C 231.11 630.29 233.72 624.31 238.92 620.98 C 246.15 624.65 252.76 629.57 258.77 635.00 C 248.82 635.21 238.88 635.38 228.94 635.83 Z" />
<path fill="#fdfffe" stroke="#fdfffe" stroke-width="0.09375" opacity="1.00" d=" M 726.25 630.24 C 730.93 627.04 735.81 623.91 741.29 622.26 C 743.41 621.59 745.59 622.40 747.70 622.79 C 745.34 630.54 736.83 633.00 730.63 636.82 C 729.05 634.69 727.59 632.51 726.25 630.24 Z" />
<path fill="#fdfffe" stroke="#fdfffe" stroke-width="0.09375" opacity="1.00" d=" M 704.33 631.28 C 715.04 628.58 727.20 639.83 723.77 650.80 C 722.16 656.69 715.90 660.09 710.04 659.67 C 700.62 659.56 691.90 649.86 694.45 640.40 C 695.32 635.55 699.60 632.08 704.33 631.28 M 707.52 640.39 C 704.02 642.25 703.96 647.70 707.39 649.69 C 710.25 652.30 714.99 650.32 715.78 646.73 C 716.85 642.34 711.49 638.24 707.52 640.39 Z" />
<path fill="#fdfffe" stroke="#fdfffe" stroke-width="0.09375" opacity="1.00" d=" M 662.84 636.99 C 669.38 631.48 678.64 632.64 686.43 634.09 C 686.38 636.60 686.25 639.12 686.05 641.64 C 680.27 642.12 674.35 642.51 668.67 641.13 C 666.23 640.60 664.52 638.66 662.84 636.99 Z" />
<path fill="#fdfffe" stroke="#fdfffe" stroke-width="0.09375" opacity="1.00" d=" M 271.44 636.25 C 276.33 633.47 283.42 639.06 281.39 644.47 C 280.01 649.37 272.76 652.16 269.29 647.71 C 265.45 644.39 267.14 638.24 271.44 636.25 Z" />
<path fill="#fdfffe" stroke="#fdfffe" stroke-width="0.09375" opacity="1.00" d=" M 226.93 644.15 C 237.99 643.28 249.37 641.85 260.30 644.44 C 259.13 647.05 257.40 649.43 254.87 650.88 C 246.81 655.94 239.37 661.94 232.52 668.54 C 228.07 661.28 225.78 652.65 226.93 644.15 Z" />
<path fill="#fdfffe" stroke="#fdfffe" stroke-width="0.09375" opacity="1.00" d=" M 288.42 645.33 C 296.43 644.64 304.44 645.73 312.43 646.25 C 312.70 653.26 311.48 660.35 308.00 666.50 C 301.68 661.67 294.84 657.40 289.31 651.65 C 287.47 650.06 288.52 647.41 288.42 645.33 Z" />
<path fill="#fdfffe" stroke="#fdfffe" stroke-width="0.09375" opacity="1.00" d=" M 828.53 650.40 C 832.34 648.08 837.13 650.07 840.18 652.79 C 846.36 658.40 848.91 666.82 850.08 674.83 C 852.27 690.93 849.61 707.11 847.19 723.02 C 844.77 736.73 842.78 750.58 838.90 763.97 C 828.05 750.86 820.09 735.13 816.66 718.41 C 812.64 700.68 814.22 681.96 819.89 664.78 C 821.85 659.56 823.96 653.90 828.53 650.40 Z" />
<path fill="#fdfffe" stroke="#fdfffe" stroke-width="0.09375" opacity="1.00" d=" M 731.64 652.36 C 741.08 652.97 751.29 654.59 758.52 661.24 C 756.90 662.65 755.38 664.81 752.97 664.64 C 745.29 664.37 738.46 660.38 731.73 657.11 C 731.68 655.52 731.65 653.93 731.64 652.36 Z" />
<path fill="#fdfffe" stroke="#fdfffe" stroke-width="0.09375" opacity="1.00" d=" M 259.48 686.49 C 259.89 676.07 262.81 665.78 267.79 656.63 C 269.54 656.86 271.30 657.09 273.05 657.33 C 274.35 666.92 277.12 676.21 281.13 685.01 C 274.05 686.76 266.73 686.97 259.48 686.49 Z" />
<path fill="#fdfffe" stroke="#fdfffe" stroke-width="0.09375" opacity="1.00" d=" M 281.50 656.70 C 288.40 662.37 295.37 667.94 302.32 673.54 C 298.86 677.36 294.49 680.16 289.96 682.55 C 285.41 674.64 282.21 665.84 281.50 656.70 Z" />
<path fill="#fdfffe" stroke="#fdfffe" stroke-width="0.09375" opacity="1.00" d=" M 238.86 674.95 C 243.75 668.56 250.74 664.09 257.24 659.46 C 254.55 667.23 252.28 675.13 250.73 683.21 C 246.60 680.78 241.80 678.89 238.86 674.95 Z" />
<path fill="#fdfffe" stroke="#fdfffe" stroke-width="0.09375" opacity="1.00" d=" M 716.33 666.49 C 717.80 667.32 719.55 667.97 720.44 669.54 C 725.26 677.06 729.15 686.42 726.27 695.38 C 725.62 696.68 725.35 699.04 723.41 698.73 C 721.88 695.96 720.94 692.92 720.02 689.92 C 717.78 682.32 715.67 674.49 716.33 666.49 Z" />
<path fill="#fdfffe" stroke="#fdfffe" stroke-width="0.09375" opacity="1.00" d=" M 463.66 680.66 C 475.77 675.44 488.84 672.03 502.09 672.01 C 501.99 695.29 501.68 718.58 501.60 741.88 C 501.35 753.63 501.73 765.40 501.21 777.15 C 487.55 762.98 474.26 748.41 461.86 733.12 C 456.27 725.91 450.54 718.64 446.77 710.28 C 445.03 705.96 443.38 700.96 445.43 696.45 C 448.74 688.72 456.39 684.14 463.66 680.66 M 470.36 693.11 C 466.49 694.58 465.27 700.70 469.02 703.00 C 472.11 705.41 477.16 703.69 477.75 699.71 C 479.13 695.52 474.29 691.40 470.36 693.11 Z" />
<path fill="#fdfffe" stroke="#fdfffe" stroke-width="0.09375" opacity="1.00" d=" M 510.19 672.02 C 527.06 671.78 544.06 676.56 558.25 685.71 C 564.85 689.72 568.98 697.26 568.80 704.99 C 568.98 714.72 563.28 723.17 557.52 730.52 C 546.43 744.02 533.82 756.17 521.15 768.17 C 517.34 771.71 513.46 775.19 509.27 778.28 C 509.50 742.86 510.03 707.44 510.19 672.02 M 535.47 692.34 C 531.57 693.91 530.61 700.44 534.69 702.40 C 538.15 704.76 543.01 701.97 543.25 697.94 C 543.92 693.86 539.02 691.00 535.47 692.34 Z" />
<path fill="#fdfffe" stroke="#fdfffe" stroke-width="0.09375" opacity="1.00" d=" M 865.49 680.51 C 868.57 677.46 873.40 675.30 877.62 677.27 C 882.41 679.61 884.40 685.18 884.89 690.18 C 885.93 701.40 881.88 712.28 877.30 722.32 C 870.03 737.49 860.09 751.37 848.03 763.10 C 853.20 741.07 856.80 718.69 859.52 696.23 C 860.35 690.69 861.18 684.53 865.49 680.51 Z" />
<path fill="#fdfffe" stroke="#fdfffe" stroke-width="0.09375" opacity="1.00" d=" M 798.43 683.40 C 800.90 682.81 802.98 684.75 804.52 686.42 C 806.75 688.67 806.15 692.08 806.25 694.96 C 805.46 714.46 810.62 733.96 820.03 750.99 C 823.38 757.54 828.08 763.22 832.09 769.35 C 822.67 762.82 814.90 754.13 807.81 745.19 C 796.67 731.22 790.75 712.84 793.12 695.00 C 793.85 690.83 794.86 686.08 798.43 683.40 Z" />
<path fill="#fdfffe" stroke="#fdfffe" stroke-width="0.09375" opacity="1.00" d=" M 264.49 695.92 C 268.03 695.91 271.57 695.95 275.10 696.06 C 276.93 746.03 278.71 795.99 280.56 845.95 C 281.36 875.48 282.54 905.02 281.92 934.56 C 278.32 934.60 274.73 934.68 271.14 934.77 C 270.13 883.44 269.46 832.10 267.23 780.80 C 266.36 752.50 265.18 724.22 264.49 695.92 Z" />
<path fill="#fdfffe" stroke="#fdfffe" stroke-width="0.09375" opacity="1.00" d=" M 425.68 708.67 C 428.45 705.20 431.88 702.34 435.32 699.57 C 436.88 714.67 446.30 727.10 455.33 738.67 C 468.35 754.87 482.36 770.27 496.83 785.18 C 498.52 787.22 500.92 789.15 501.08 792.01 C 501.38 795.66 501.15 799.33 501.07 803.00 C 500.59 813.87 500.91 824.75 500.52 835.63 C 492.66 839.43 485.16 843.90 477.82 848.64 C 461.53 838.53 444.37 829.94 427.97 820.04 C 426.16 818.89 424.25 817.82 422.84 816.20 C 421.75 812.93 422.46 809.37 422.37 805.98 C 425.88 806.67 429.40 807.70 433.02 807.55 C 439.94 807.01 446.56 802.76 449.49 796.40 C 454.50 786.47 449.95 772.84 439.64 768.37 C 434.48 765.81 428.55 766.35 423.17 767.85 C 423.53 750.88 424.24 733.92 424.42 716.95 C 424.64 714.20 424.03 711.07 425.68 708.67 Z" />
<path fill="#fdfffe" stroke="#fdfffe" stroke-width="0.09375" opacity="1.00" d=" M 577.42 700.93 C 587.86 712.62 596.20 726.09 602.38 740.48 C 604.47 745.42 606.77 750.46 606.93 755.93 C 607.37 764.26 607.41 772.61 607.67 780.96 C 607.70 785.81 608.42 791.16 605.39 795.36 C 599.20 804.70 589.84 811.23 581.52 818.53 C 578.30 821.12 575.50 824.26 571.98 826.46 C 566.99 826.45 562.07 825.34 557.08 825.28 C 540.72 824.25 524.45 827.31 508.88 832.12 C 508.72 820.05 509.26 807.99 509.15 795.93 C 509.26 793.29 508.80 790.04 511.29 788.31 C 527.35 775.15 542.33 760.69 556.35 745.38 C 563.90 736.94 571.29 727.94 575.22 717.18 C 577.16 712.00 577.51 706.41 577.42 700.93 M 567.43 762.58 C 558.36 765.05 552.39 774.88 553.62 784.06 C 554.67 793.50 562.70 801.60 572.15 802.69 C 583.32 803.94 594.54 794.44 594.40 783.00 C 595.05 769.51 580.30 758.17 567.43 762.58 Z" />
<path fill="#fdfffe" stroke="#fdfffe" stroke-width="0.09375" opacity="1.00" d=" M 178.37 703.59 C 183.62 705.68 187.05 710.40 189.94 715.04 C 196.49 725.75 200.48 738.67 198.30 751.27 C 197.24 757.64 193.14 763.96 186.50 765.43 C 181.30 749.10 178.33 732.08 177.50 714.97 C 177.27 711.15 177.63 707.33 178.37 703.59 Z" />
<path fill="#fdfffe" stroke="#fdfffe" stroke-width="0.09375" opacity="1.00" d=" M 332.68 708.65 C 335.80 707.20 339.21 710.20 339.55 713.29 C 340.07 717.54 338.95 721.79 337.77 725.85 C 333.52 739.46 326.75 752.15 319.13 764.15 C 310.69 777.14 301.72 789.92 291.04 801.18 C 294.29 783.37 299.89 766.09 306.13 749.14 C 310.60 738.13 315.21 726.97 322.46 717.45 C 325.23 713.90 328.42 710.37 332.68 708.65 Z" />
<path fill="#fdfffe" stroke="#fdfffe" stroke-width="0.09375" opacity="1.00" d=" M 131.99 712.73 C 135.20 713.05 138.43 713.90 140.90 716.11 C 152.52 725.47 161.94 737.55 168.35 751.03 C 158.79 746.80 150.50 740.17 143.26 732.72 C 138.04 727.07 132.89 720.65 131.99 712.73 Z" />
<path fill="#fdfffe" stroke="#fdfffe" stroke-width="0.09375" opacity="1.00" d=" M 754.01 718.98 C 755.72 716.92 758.96 713.55 761.48 716.48 C 764.86 720.44 764.45 726.11 764.65 730.99 C 764.34 745.32 761.10 759.39 758.51 773.43 C 755.00 790.47 750.73 807.34 746.18 824.12 C 743.25 835.94 740.34 848.44 743.67 860.50 C 744.85 864.16 744.02 867.96 744.20 871.70 C 745.68 874.61 750.07 874.33 751.72 871.74 C 754.24 867.64 754.70 862.55 757.66 858.66 C 762.92 851.61 770.03 846.24 777.03 841.03 C 783.57 836.41 790.05 831.06 798.15 829.55 C 800.86 835.79 797.11 842.09 795.05 847.92 C 791.71 856.87 786.83 865.26 780.13 872.12 C 765.61 887.35 747.02 898.26 733.73 914.74 C 728.16 921.02 723.91 928.26 719.48 935.34 C 717.87 932.83 716.62 930.12 715.82 927.26 C 711.40 912.48 707.60 897.52 703.15 882.75 C 700.48 873.41 697.18 864.02 697.10 854.20 C 699.01 857.36 700.14 860.89 701.41 864.34 C 703.90 863.87 706.89 863.79 708.46 861.46 C 713.24 855.30 714.58 847.40 716.06 839.95 C 718.07 828.63 719.42 817.20 721.82 805.95 C 725.68 787.63 730.57 769.50 736.90 751.87 C 741.32 740.34 746.20 728.66 754.01 718.98 Z" />
<path fill="#fdfffe" stroke="#fdfffe" stroke-width="0.09375" opacity="1.00" d=" M 874.04 767.03 C 877.11 764.29 880.84 762.41 884.81 761.36 C 885.46 772.04 881.48 782.33 876.61 791.64 C 871.58 800.85 864.83 809.03 857.42 816.42 C 851.18 822.56 844.18 828.35 835.67 830.93 C 836.47 822.13 840.59 814.16 844.29 806.30 C 851.84 791.66 861.53 777.85 874.04 767.03 Z" />
<path fill="#fdfffe" stroke="#fdfffe" stroke-width="0.09375" opacity="1.00" d=" M 792.15 766.12 C 794.26 764.47 797.19 765.34 799.01 767.01 C 804.21 771.37 806.52 778.04 808.63 784.27 C 812.43 796.18 814.24 808.66 818.60 820.41 C 820.43 825.47 823.05 830.26 824.13 835.58 C 817.30 832.05 812.95 825.46 808.58 819.41 C 800.27 807.17 793.57 793.70 789.71 779.40 C 788.60 774.99 788.02 769.17 792.15 766.12 Z" />
<path fill="#fdfffe" stroke="#fdfffe" stroke-width="0.09375" opacity="1.00" d=" M 569.39 770.39 C 576.84 767.52 586.10 774.00 585.90 781.99 C 586.13 788.65 579.87 795.30 573.03 794.30 C 567.60 793.76 563.12 789.04 562.14 783.79 C 560.95 778.36 564.21 772.37 569.39 770.39 Z" />
<path fill="#fdfffe" stroke="#fdfffe" stroke-width="0.09375" opacity="1.00" d=" M 354.78 771.74 C 356.94 771.74 359.11 771.80 361.27 771.92 C 360.89 773.91 360.91 776.11 359.82 777.91 C 358.90 779.72 356.61 779.11 354.97 779.45 C 354.80 776.88 354.73 774.31 354.78 771.74 Z" />
<path fill="#fdfffe" stroke="#fdfffe" stroke-width="0.09375" opacity="1.00" d=" M 227.66 780.65 C 230.19 778.13 233.00 775.33 236.76 774.99 C 239.27 777.26 238.67 780.85 237.90 783.76 C 232.52 803.32 217.72 821.43 197.43 826.30 C 198.96 820.51 202.59 815.67 205.60 810.59 C 212.23 800.11 219.13 789.70 227.66 780.65 Z" />
<path fill="#fdfffe" stroke="#fdfffe" stroke-width="0.09375" opacity="1.00" d=" M 427.34 775.20 C 435.18 772.26 443.81 779.84 442.90 787.89 C 442.84 794.04 437.56 800.20 431.04 799.19 C 427.79 798.55 422.94 797.06 423.01 793.03 C 422.76 788.39 422.70 783.73 423.15 779.11 C 423.09 776.82 425.59 775.93 427.34 775.20 Z" />
<path fill="#fdfffe" stroke="#fdfffe" stroke-width="0.09375" opacity="1.00" d=" M 148.49 780.53 C 151.55 780.61 154.79 780.75 157.40 782.55 C 163.21 786.26 167.96 791.37 172.34 796.63 C 177.26 802.90 181.58 810.11 182.24 818.23 C 170.69 814.16 161.71 805.07 154.63 795.39 C 151.54 790.95 148.46 786.15 148.49 780.53 Z" />
<path fill="#fdfffe" stroke="#fdfffe" stroke-width="0.09375" opacity="1.00" d=" M 581.93 829.53 C 590.59 822.33 599.27 815.14 607.63 807.58 C 608.02 818.41 607.96 829.25 607.74 840.08 C 599.33 836.11 590.87 832.17 581.93 829.53 Z" />
<path fill="#fdfffe" stroke="#fdfffe" stroke-width="0.09375" opacity="1.00" d=" M 327.54 817.64 C 329.55 817.94 332.12 817.63 333.39 819.62 C 336.46 823.71 335.81 829.18 336.05 834.00 C 336.21 867.61 336.57 901.23 336.09 934.83 C 332.80 934.78 329.52 934.77 326.23 934.79 C 326.14 901.85 326.25 868.91 326.32 835.98 C 326.31 829.85 326.35 823.68 327.54 817.64 Z" />
<path fill="#fdfffe" stroke="#fdfffe" stroke-width="0.09375" opacity="1.00" d=" M 869.01 827.03 C 875.91 823.77 882.58 819.56 890.30 818.56 C 891.64 824.63 888.79 830.49 885.24 835.24 C 874.49 849.66 860.09 861.56 843.33 868.30 C 837.88 870.47 832.13 871.79 826.31 872.41 C 827.05 865.12 828.63 857.95 829.85 850.73 C 830.49 847.65 831.01 843.72 834.45 842.53 C 846.01 837.47 857.88 833.04 869.01 827.03 Z" />
<path fill="#fdfffe" stroke="#fdfffe" stroke-width="0.09375" opacity="1.00" d=" M 380.11 835.00 C 380.30 829.75 379.29 824.02 382.19 819.31 C 382.82 837.19 381.09 855.18 383.05 873.03 C 385.16 895.27 393.56 917.20 408.20 934.22 C 399.03 935.05 389.82 934.72 380.64 934.55 C 380.30 901.37 380.01 868.18 380.11 835.00 Z" />
<path fill="#fdfffe" stroke="#fdfffe" stroke-width="0.09375" opacity="1.00" d=" M 422.19 827.79 C 430.26 831.47 437.73 836.30 445.55 840.48 C 453.75 845.34 462.37 849.52 470.22 854.97 C 455.05 866.58 441.99 880.64 429.45 894.98 C 421.14 878.65 421.68 859.84 421.85 842.01 C 421.84 837.26 421.86 832.52 422.19 827.79 Z" />
<path fill="#fdfffe" stroke="#fdfffe" stroke-width="0.09375" opacity="1.00" d=" M 506.15 843.21 C 529.90 832.93 557.28 831.50 582.00 839.13 C 591.02 841.50 599.05 846.32 607.45 850.20 C 606.95 859.24 606.29 868.31 604.87 877.27 C 593.01 869.13 580.01 862.40 565.93 859.13 C 548.85 854.67 530.21 855.87 514.06 863.12 C 499.63 869.66 487.92 880.77 477.09 892.08 C 469.94 899.33 463.69 907.38 456.94 914.99 C 448.40 913.05 439.99 909.22 434.50 902.16 C 442.81 892.61 451.77 883.66 460.85 874.85 C 474.10 861.96 489.12 850.60 506.15 843.21 Z" />
<path fill="#fdfffe" stroke="#fdfffe" stroke-width="0.09375" opacity="1.00" d=" M 808.45 833.50 C 812.77 837.74 817.03 842.09 822.08 845.51 C 820.78 854.46 818.59 863.26 816.82 872.13 C 811.48 867.46 805.35 862.77 797.85 863.19 C 802.31 853.65 805.73 843.68 808.45 833.50 Z" />
<path fill="#fdfffe" stroke="#fdfffe" stroke-width="0.09375" opacity="1.00" d=" M 146.03 839.64 C 153.23 841.68 158.14 847.68 162.97 853.00 C 171.39 863.00 179.68 873.56 184.15 886.00 C 170.45 882.73 159.97 871.93 152.40 860.59 C 148.81 854.29 143.81 847.25 146.03 839.64 Z" />
<path fill="#fdfffe" stroke="#fdfffe" stroke-width="0.09375" opacity="1.00" d=" M 212.07 868.05 C 218.99 858.22 226.00 847.84 236.50 841.51 C 238.76 844.35 239.79 848.03 238.53 851.55 C 234.52 865.92 223.94 877.46 212.24 886.23 C 208.09 889.43 203.50 892.21 198.33 893.38 C 201.57 884.29 206.83 876.08 212.07 868.05 Z" />
<path fill="#fdfffe" stroke="#fdfffe" stroke-width="0.09375" opacity="1.00" d=" M 873.45 863.61 C 877.19 862.04 881.57 860.67 885.50 862.41 C 888.26 864.81 886.95 868.89 885.68 871.73 C 881.30 880.55 873.36 886.93 865.39 892.39 C 851.81 900.72 835.82 904.21 820.14 905.85 C 820.99 899.06 821.97 892.25 823.59 885.59 C 823.97 882.97 826.96 882.73 828.97 881.97 C 837.29 879.66 845.67 877.32 853.46 873.51 C 860.25 870.47 866.61 866.55 873.45 863.61 Z" />
<path fill="#fdfffe" stroke="#fdfffe" stroke-width="0.09375" opacity="1.00" d=" M 503.71 879.72 C 516.73 869.55 533.46 864.22 549.98 865.60 C 568.78 867.07 587.18 874.69 601.43 887.06 C 596.64 899.09 586.78 909.62 573.99 912.98 C 562.26 916.09 550.10 917.18 538.03 917.97 C 514.57 918.82 491.02 918.70 467.64 916.61 C 478.45 903.23 490.07 890.28 503.71 879.72 M 545.37 893.23 C 537.49 896.14 537.41 908.63 545.04 911.89 C 552.22 915.73 560.83 907.60 559.04 900.20 C 557.83 894.36 550.79 890.86 545.37 893.23 Z" />
<path fill="#fdfffe" stroke="#fdfffe" stroke-width="0.09375" opacity="1.00" d=" M 795.27 876.23 C 795.26 872.24 800.26 871.22 803.16 872.85 C 807.69 875.40 811.05 879.53 814.87 882.99 C 813.19 890.64 811.77 898.35 809.89 905.96 C 800.48 899.29 794.75 887.74 795.27 876.23 Z" />
<path fill="#fdfffe" stroke="#fdfffe" stroke-width="0.09375" opacity="1.00" d=" M 749.33 911.32 C 761.26 899.67 775.14 890.14 786.51 877.90 C 786.91 885.65 789.04 893.23 792.87 899.99 C 782.62 908.07 781.63 923.74 788.14 934.46 C 768.75 935.01 749.35 934.57 729.96 934.68 C 735.71 926.35 741.85 918.19 749.33 911.32 Z" />
<path fill="#fdfffe" stroke="#fdfffe" stroke-width="0.09375" opacity="1.00" d=" M 634.50 910.68 C 638.24 903.24 641.18 895.46 643.93 887.62 C 652.79 902.15 659.76 917.94 664.04 934.43 C 656.76 934.74 649.47 934.66 642.18 934.63 C 639.83 929.60 638.06 924.33 635.70 919.30 C 634.61 916.59 632.56 913.50 634.50 910.68 Z" />
<path fill="#fdfffe" stroke="#fdfffe" stroke-width="0.09375" opacity="1.00" d=" M 853.28 907.27 C 860.00 905.15 866.36 901.86 873.30 900.41 C 878.11 899.27 884.02 901.46 885.78 906.35 C 887.25 911.00 886.15 916.03 884.54 920.50 C 882.80 925.02 880.52 929.63 876.58 932.65 C 873.59 934.95 869.59 934.57 866.04 934.69 C 849.74 934.58 833.41 934.99 817.11 934.55 C 815.08 934.77 815.76 932.19 815.73 931.02 C 816.04 926.08 817.12 921.24 818.44 916.49 C 829.95 913.03 841.93 911.33 853.28 907.27 Z" />
<path fill="#fdfffe" stroke="#fdfffe" stroke-width="0.09375" opacity="1.00" d=" M 143.72 900.55 C 147.02 901.04 150.32 901.93 153.11 903.83 C 165.70 911.69 175.46 923.14 184.86 934.44 C 178.59 934.32 172.32 934.99 166.06 934.59 C 162.74 934.56 160.59 931.70 158.53 929.50 C 153.71 923.79 149.46 917.54 146.14 910.84 C 144.49 907.66 143.98 904.07 143.72 900.55 Z" />
<path fill="#fdfffe" stroke="#fdfffe" stroke-width="0.09375" opacity="1.00" d=" M 238.22 903.15 C 240.59 901.84 243.34 901.79 245.97 901.68 C 246.01 904.46 246.23 907.42 244.88 909.98 C 241.60 916.89 236.34 922.61 230.87 927.86 C 228.14 930.23 225.40 932.90 221.88 934.03 C 216.66 934.96 211.32 934.34 206.06 934.27 C 210.69 927.92 215.94 922.05 221.41 916.42 C 226.38 911.28 231.85 906.48 238.22 903.15 Z" />
<path fill="#fdfffe" stroke="#fdfffe" stroke-width="0.09375" opacity="1.00" d=" M 795.45 910.25 C 797.15 908.77 799.31 910.07 800.85 911.11 C 803.57 913.02 806.26 915.09 808.37 917.68 C 808.76 922.30 807.66 926.99 806.47 931.45 C 805.99 934.87 800.80 935.84 798.70 933.31 C 793.00 927.49 790.37 917.20 795.45 910.25 Z" />
<path fill="#fdfffe" stroke="#fdfffe" stroke-width="0.09375" opacity="1.00" d=" M 615.71 934.07 C 619.49 929.83 623.35 925.65 626.98 921.28 C 629.29 925.51 631.46 929.87 632.52 934.62 C 626.90 934.72 621.29 934.62 615.71 934.07 Z" />
</g>
<g id="#0a0e0dff">
<path fill="#0a0e0d" stroke="#0a0e0d" stroke-width="0.09375" opacity="1.00" d=" M 472.05 89.61 C 520.70 88.15 569.38 89.16 618.03 90.40 C 667.12 92.28 716.22 94.69 765.12 99.52 C 788.79 102.06 812.58 104.14 835.88 109.21 C 850.39 112.33 864.47 118.42 875.69 128.30 C 888.56 139.35 896.56 155.01 900.59 171.29 C 905.91 193.09 907.01 215.65 907.13 238.01 C 907.36 258.35 906.18 278.94 900.73 298.63 C 895.69 316.49 885.53 333.39 870.26 344.28 C 858.55 352.79 844.31 357.37 829.97 358.58 C 818.22 359.81 806.43 358.55 794.72 357.58 C 759.93 354.04 725.29 349.10 690.43 346.29 C 679.57 345.36 668.13 343.53 657.67 347.64 C 648.34 351.28 641.83 360.95 641.82 370.95 C 641.47 396.31 642.38 421.67 642.41 447.03 C 643.06 475.68 642.85 504.35 643.41 533.00 C 643.41 557.34 644.20 581.67 644.11 606.00 C 644.61 672.68 646.24 739.34 647.25 806.01 C 647.33 824.99 648.17 843.98 647.28 862.94 C 647.23 866.87 646.14 870.89 646.98 874.78 C 650.14 881.78 654.62 888.11 657.89 895.07 C 660.12 899.79 662.04 904.66 664.43 909.31 C 664.72 876.19 665.92 843.08 666.51 809.96 C 666.59 791.67 669.17 773.52 671.61 755.44 C 673.93 737.15 677.58 719.05 681.99 701.16 C 685.08 689.75 687.70 678.15 692.21 667.19 C 692.71 665.01 694.67 662.09 692.28 660.42 C 685.58 662.90 680.34 668.15 673.74 670.78 C 669.94 672.06 666.32 667.20 668.94 664.00 C 673.56 658.32 681.25 656.76 687.37 653.20 C 687.13 651.80 686.90 650.41 686.68 649.03 C 678.67 649.50 670.19 650.78 662.63 647.34 C 658.84 645.62 654.87 642.44 654.85 637.92 C 654.67 633.11 658.59 629.42 662.70 627.66 C 667.48 625.68 672.74 625.44 677.83 624.87 C 672.81 620.16 667.43 614.36 667.76 606.98 C 667.56 600.56 673.04 593.44 679.96 594.66 C 685.61 595.97 689.31 600.98 692.56 605.42 C 696.54 610.86 698.91 617.22 701.11 623.54 C 703.00 623.41 704.90 623.27 706.81 623.13 C 707.35 613.18 707.61 603.05 710.49 593.43 C 711.60 589.75 713.63 585.81 717.48 584.44 C 721.27 583.12 725.35 585.67 726.75 589.23 C 729.42 595.49 727.69 602.52 725.69 608.72 C 723.82 614.69 719.68 619.83 718.96 626.17 C 725.04 622.54 730.24 617.43 737.01 615.00 C 741.88 612.94 748.24 611.41 752.59 615.40 C 756.90 618.85 756.74 625.45 753.69 629.67 C 748.77 636.77 740.75 640.73 733.09 644.19 C 742.03 645.88 751.54 646.56 759.42 651.60 C 763.58 654.11 767.52 658.72 766.34 663.92 C 765.14 669.94 758.57 672.86 752.97 672.93 C 743.80 672.98 735.67 668.21 727.53 664.61 C 730.69 671.47 734.73 678.24 735.25 685.96 C 735.77 692.63 734.56 699.90 730.12 705.13 C 728.05 707.49 724.77 709.67 721.54 708.46 C 717.81 706.98 715.95 703.08 714.44 699.63 C 710.41 689.42 708.91 678.44 708.26 667.55 C 705.95 667.03 703.64 666.52 701.32 666.05 C 694.64 683.31 690.71 701.45 686.71 719.48 C 682.22 739.74 679.42 760.33 676.99 780.92 C 676.09 789.07 675.16 797.26 675.40 805.48 C 678.41 799.67 679.87 793.25 682.18 787.17 C 684.54 780.95 686.92 774.72 689.73 768.69 C 691.24 765.65 692.78 762.44 695.44 760.23 C 698.20 759.15 701.18 761.37 701.63 764.14 C 701.37 766.05 700.36 767.76 699.53 769.47 C 692.54 782.37 688.03 796.46 684.79 810.73 C 680.84 826.20 676.57 841.68 674.76 857.59 C 673.42 872.69 673.45 887.87 672.87 903.01 C 672.57 913.53 671.98 924.05 672.33 934.57 C 684.59 934.89 696.86 934.73 709.13 934.55 C 706.90 927.22 704.40 919.98 702.59 912.53 C 698.85 898.69 694.53 885.00 691.04 871.09 C 689.63 864.87 688.18 858.54 688.33 852.13 C 688.33 847.61 692.38 843.45 696.99 843.81 C 701.02 843.48 703.32 847.26 705.63 849.91 C 709.25 832.97 710.74 815.64 714.73 798.77 C 720.35 774.81 726.45 750.66 737.52 728.54 C 741.13 721.82 745.15 715.04 751.02 710.04 C 754.92 706.64 761.16 705.23 765.57 708.52 C 770.99 712.46 772.33 719.65 772.89 725.92 C 773.61 738.70 771.43 751.42 769.09 763.95 C 765.73 781.51 762.16 799.05 757.37 816.29 C 754.15 828.74 750.08 841.28 750.52 854.29 C 757.08 845.01 766.08 837.81 775.29 831.30 C 782.45 826.22 790.26 822.09 798.61 819.34 C 791.34 807.59 784.55 795.22 781.52 781.62 C 780.23 775.60 779.95 768.79 783.42 763.43 C 786.89 757.80 794.75 755.10 800.74 758.29 C 807.52 761.76 811.85 768.65 814.47 775.59 C 820.29 791.15 822.51 807.80 828.45 823.33 C 829.88 809.18 832.93 795.25 834.39 781.12 C 822.25 773.88 811.68 764.10 803.12 752.88 C 795.92 743.68 789.59 733.49 786.68 722.07 C 783.87 711.36 783.09 699.85 786.00 689.07 C 787.50 683.98 789.98 678.35 795.23 676.22 C 799.47 674.42 804.09 675.68 808.27 676.99 C 810.67 666.97 812.80 656.44 818.94 647.92 C 822.48 642.87 828.82 639.83 834.98 640.97 C 843.07 642.43 849.42 648.71 853.27 655.69 C 856.71 661.61 858.00 668.43 858.95 675.13 C 864.12 671.20 870.18 667.35 876.97 667.98 C 883.60 668.62 888.69 674.06 891.02 679.99 C 894.95 689.78 893.73 700.79 890.83 710.68 C 884.15 732.50 870.93 751.85 854.79 767.79 C 851.28 771.57 847.24 775.00 844.51 779.42 C 842.30 785.06 841.77 791.20 840.92 797.16 C 846.51 785.94 854.20 775.88 862.79 766.80 C 868.37 761.17 874.62 755.63 882.37 753.30 C 885.71 752.22 890.05 752.75 892.00 756.01 C 894.36 760.03 893.69 764.97 893.24 769.40 C 891.13 782.51 885.87 795.20 877.67 805.69 C 873.91 810.97 869.41 815.64 864.89 820.26 C 873.37 816.06 881.65 810.82 891.16 809.33 C 894.46 808.69 898.13 810.37 899.27 813.66 C 901.17 818.88 899.41 824.54 897.63 829.56 C 894.27 838.69 887.87 846.26 880.81 852.79 C 884.99 853.45 889.76 853.87 892.77 857.25 C 896.43 861.43 896.26 867.61 894.52 872.59 C 891.74 880.48 885.65 886.57 879.56 892.06 C 884.28 893.52 889.57 895.21 892.22 899.75 C 896.02 906.26 895.32 914.35 893.33 921.34 C 891.19 928.37 887.92 935.40 882.34 940.36 C 879.29 943.14 875.06 943.87 871.08 943.84 C 782.37 943.93 693.67 943.84 604.96 943.93 C 601.49 943.86 597.99 944.27 594.82 945.75 C 579.31 952.43 562.32 954.46 545.63 955.71 C 524.09 956.99 502.48 956.89 480.93 955.85 C 466.31 954.94 451.53 953.78 437.46 949.52 C 430.96 947.69 425.08 943.27 418.04 943.94 C 333.68 943.91 249.32 943.96 164.97 943.80 C 159.20 943.89 155.43 938.94 151.95 935.06 C 144.26 925.80 137.23 915.36 134.68 903.42 C 133.89 899.45 133.49 893.94 137.70 891.73 C 142.73 889.96 148.13 892.09 152.73 894.22 C 168.64 902.11 180.28 916.01 191.45 929.39 C 191.35 920.49 190.39 911.62 189.39 902.80 C 189.28 899.09 185.34 897.82 182.58 896.42 C 169.57 890.81 157.96 881.93 149.22 870.78 C 142.27 861.95 136.56 851.46 136.07 840.01 C 135.97 836.76 136.04 833.02 138.53 830.60 C 140.67 828.47 144.03 828.50 146.72 829.41 C 152.98 831.40 157.93 835.96 162.60 840.38 C 169.02 846.70 174.98 853.51 180.02 860.98 C 182.67 864.80 184.93 868.88 187.75 872.58 C 187.43 858.54 186.52 844.50 185.60 830.49 C 177.58 826.41 169.45 822.32 162.62 816.35 C 153.03 808.10 144.35 798.16 139.93 786.14 C 138.63 782.29 137.37 777.57 139.94 773.96 C 141.84 771.10 145.65 770.77 148.76 771.12 C 157.12 772.11 164.41 776.96 170.61 782.39 C 175.01 786.14 178.13 791.07 181.98 795.35 C 181.52 784.90 179.37 774.65 177.49 764.40 C 159.55 758.97 143.88 747.32 132.18 732.84 C 126.95 726.06 122.33 718.45 120.61 709.97 C 119.77 706.67 121.36 702.40 125.09 701.94 C 131.90 701.15 138.43 704.42 144.03 707.97 C 155.28 715.74 163.67 726.89 171.09 738.22 C 169.84 725.25 168.09 712.20 169.28 699.16 C 169.49 695.95 171.19 692.46 174.54 691.61 C 178.59 690.44 182.42 693.07 185.21 695.76 C 195.57 706.14 203.84 719.16 206.36 733.80 C 208.02 743.26 208.38 753.76 203.29 762.31 C 199.94 768.29 194.37 772.50 188.82 776.30 C 190.69 789.20 192.12 802.16 193.68 815.09 C 203.01 798.36 213.33 781.63 228.13 769.13 C 231.73 766.17 235.84 762.82 240.79 763.15 C 245.00 763.62 247.44 768.05 247.52 771.95 C 247.95 781.12 245.08 790.09 241.37 798.36 C 234.90 812.62 223.39 824.65 209.10 831.17 C 204.43 833.30 199.67 835.19 194.90 837.08 C 195.33 850.54 196.40 863.97 197.10 877.42 C 203.79 864.07 212.63 851.76 223.46 841.46 C 228.24 837.09 233.47 832.95 239.56 830.58 C 242.67 829.36 246.85 828.96 249.22 831.82 C 251.52 834.18 251.07 837.75 250.57 840.73 C 247.33 856.87 240.13 872.60 228.05 884.05 C 219.50 892.70 208.74 898.52 198.20 904.35 C 199.28 912.57 200.10 920.84 200.34 929.14 C 209.18 916.33 219.99 904.51 233.46 896.51 C 238.71 893.57 244.72 890.81 250.88 891.91 C 254.90 892.79 256.36 897.31 255.87 900.97 C 254.89 914.62 245.62 925.78 235.94 934.66 C 244.69 934.49 253.44 934.84 262.19 934.69 C 262.59 914.22 261.81 893.74 261.53 873.26 C 261.35 847.52 259.91 821.80 259.39 796.06 C 258.28 762.45 256.74 728.85 255.93 695.23 C 247.30 692.80 238.88 688.91 232.30 682.72 C 224.27 674.97 218.80 664.31 218.21 653.08 C 216.78 637.99 223.12 622.45 234.39 612.39 C 244.81 603.72 258.48 599.23 272.00 599.74 C 285.68 599.33 299.26 605.50 308.34 615.66 C 318.23 626.58 322.50 642.13 320.32 656.62 C 318.83 666.74 313.17 675.88 305.78 682.80 C 299.50 688.67 291.28 691.67 283.40 694.71 C 284.65 718.14 285.62 741.59 286.32 765.04 C 286.52 769.90 286.50 774.77 287.01 779.61 C 292.49 761.28 298.16 742.87 306.81 725.73 C 311.56 717.00 317.18 708.19 325.67 702.67 C 330.48 699.52 337.35 698.10 342.28 701.74 C 346.96 705.18 348.19 711.50 348.12 716.99 C 347.57 726.54 344.04 735.59 340.17 744.24 C 333.02 759.68 323.98 774.21 313.82 787.85 C 306.65 796.95 299.15 805.80 291.44 814.45 C 289.25 816.75 287.74 819.71 288.23 822.97 C 289.64 860.20 290.45 897.44 291.23 934.69 C 295.62 934.75 300.02 934.77 304.42 934.67 C 304.82 901.14 304.75 867.62 305.49 834.10 C 305.65 832.25 305.77 830.33 306.62 828.66 C 308.11 826.95 310.68 827.61 312.68 827.29 C 314.15 833.42 313.39 839.75 313.38 845.99 C 312.96 875.61 312.77 905.23 312.91 934.85 C 314.62 934.83 316.33 934.82 318.04 934.83 C 318.85 898.55 318.13 862.25 318.46 825.97 C 318.73 820.46 319.05 813.54 324.32 810.34 C 329.25 807.22 335.95 809.15 339.42 813.57 C 344.02 818.91 343.94 826.37 344.15 833.01 C 344.34 866.87 344.24 900.73 344.47 934.59 C 347.24 934.66 350.01 934.71 352.78 934.75 C 353.64 912.52 353.24 890.25 353.40 868.00 C 353.29 841.48 353.85 814.94 353.55 788.44 C 350.64 785.25 346.39 782.66 345.97 777.91 C 344.09 770.46 350.46 762.76 358.01 762.73 C 364.69 762.03 370.38 768.48 369.75 774.96 C 369.75 779.64 366.45 783.21 363.47 786.43 C 361.88 787.80 362.08 790.01 362.01 791.91 C 362.21 816.61 361.51 841.30 361.72 866.00 C 361.86 888.87 361.47 911.75 361.92 934.61 C 365.33 934.57 368.74 934.55 372.16 934.57 C 372.50 916.71 372.04 898.86 372.14 881.00 C 372.08 864.67 372.28 848.34 371.86 832.01 C 372.01 826.70 371.26 820.88 374.17 816.14 C 376.20 812.74 379.93 811.08 383.26 809.26 C 383.98 787.51 384.48 765.76 384.75 744.01 C 385.93 709.34 386.19 674.66 387.41 639.99 C 387.36 621.98 388.30 603.98 388.33 585.97 C 389.02 573.32 388.37 560.64 389.25 547.99 C 389.67 509.99 390.20 471.99 391.01 434.00 C 391.26 415.00 391.90 396.01 391.91 377.00 C 391.89 372.65 392.16 368.22 391.11 363.96 C 389.11 355.55 382.35 348.46 374.03 346.10 C 367.19 344.10 359.95 344.46 352.93 345.09 C 324.08 348.08 295.39 352.40 266.58 355.73 C 246.62 357.58 226.42 360.35 206.43 357.31 C 190.39 355.13 174.52 349.42 161.92 339.07 C 146.76 326.67 136.73 308.79 132.04 289.93 C 127.84 274.35 127.31 258.07 127.74 242.03 C 128.35 220.12 131.44 198.16 138.29 177.29 C 142.87 163.71 149.12 150.44 158.48 139.47 C 170.76 124.92 187.87 114.90 206.20 110.09 C 225.08 105.08 244.60 103.23 263.95 101.07 C 303.64 97.22 343.43 94.54 383.25 92.42 C 412.83 91.10 442.43 89.72 472.05 89.61 M 465.71 128.80 C 463.49 130.63 462.21 133.29 460.72 135.69 C 454.29 146.44 449.97 158.27 446.06 170.12 C 445.35 172.12 444.55 174.19 442.96 175.67 C 440.82 175.33 438.78 174.56 436.73 173.89 C 439.37 157.75 446.61 142.81 454.45 128.61 C 443.11 128.78 431.79 129.19 420.46 129.60 C 413.92 142.75 409.31 156.75 403.16 170.08 C 401.07 174.35 399.89 179.19 396.81 182.90 C 394.76 184.79 391.98 182.46 390.53 180.90 C 390.62 175.96 393.42 171.63 395.15 167.14 C 400.19 154.81 405.45 142.56 410.09 130.07 C 405.90 130.17 401.64 129.85 397.51 130.72 C 395.63 131.75 394.67 133.82 393.53 135.53 C 386.88 147.01 381.61 159.21 376.38 171.38 C 375.33 173.55 374.44 176.00 372.43 177.48 C 370.12 178.46 367.91 176.51 366.49 174.90 C 366.48 173.10 367.04 171.37 367.64 169.70 C 372.95 156.60 379.29 143.96 385.56 131.30 C 381.07 131.48 376.55 131.43 372.11 132.12 C 370.17 132.12 369.35 134.05 368.37 135.38 C 364.21 142.10 360.64 149.17 357.36 156.35 C 356.42 158.12 355.57 160.14 353.80 161.22 C 351.49 161.87 349.31 160.25 347.71 158.78 C 347.61 156.28 348.72 153.97 349.75 151.76 C 352.89 145.29 356.58 139.10 359.69 132.62 C 337.08 133.60 314.51 135.51 291.95 137.30 C 288.14 137.67 284.28 137.75 280.54 138.60 C 276.05 147.48 276.71 158.14 278.45 167.70 C 278.79 170.27 279.75 173.54 277.44 175.51 C 275.34 177.90 270.93 176.85 270.49 173.58 C 267.81 162.36 268.40 150.66 270.26 139.36 C 260.13 140.25 250.00 141.16 239.91 142.45 C 237.76 154.15 238.83 166.09 238.81 177.89 C 238.86 182.48 230.82 183.52 230.25 178.83 C 229.08 167.21 230.06 155.52 230.48 143.88 C 225.78 144.96 220.99 145.83 216.47 147.55 C 213.85 148.31 213.34 151.31 212.48 153.52 C 208.93 165.34 208.66 177.86 209.39 190.09 C 209.32 191.79 209.73 193.98 208.20 195.19 C 206.37 196.89 203.73 195.85 201.54 195.76 C 199.06 181.12 200.82 166.08 204.21 151.74 C 200.12 154.03 196.05 156.43 192.51 159.53 C 189.86 161.71 189.11 165.22 188.34 168.40 C 186.30 177.69 184.90 187.31 186.10 196.82 C 186.91 202.98 190.75 209.47 197.21 210.85 C 205.25 212.52 213.38 208.91 221.44 210.71 C 233.57 212.62 243.54 222.32 247.13 233.87 C 252.26 249.63 249.44 266.39 248.34 282.54 C 247.44 294.62 248.25 307.11 253.01 318.38 C 258.00 318.03 262.98 317.46 267.93 316.74 C 277.14 315.39 286.45 314.72 295.60 312.96 C 288.52 304.11 285.83 292.89 283.79 281.99 C 283.59 280.41 283.28 278.71 283.93 277.20 C 285.25 274.99 288.69 274.73 290.54 276.40 C 292.26 279.16 292.58 282.49 293.39 285.59 C 295.24 293.28 297.35 301.29 302.50 307.51 C 304.15 309.37 306.16 311.73 308.96 311.15 C 316.01 310.57 322.99 309.28 330.00 308.36 C 322.34 298.84 316.09 287.48 315.66 275.02 C 315.51 272.39 318.47 270.81 320.78 271.33 C 323.49 271.44 323.62 274.78 324.25 276.76 C 326.23 287.35 331.16 297.54 339.24 304.80 C 341.50 307.19 345.05 306.17 347.97 306.31 C 365.99 305.64 385.25 305.41 401.47 314.48 C 412.69 320.42 421.02 331.01 425.01 342.98 C 429.76 355.86 429.79 369.77 429.86 383.31 C 442.83 370.76 454.59 357.03 466.55 343.54 C 491.58 314.75 515.90 285.30 538.72 254.72 C 561.89 223.42 582.96 190.27 598.37 154.42 C 601.74 146.02 605.70 137.82 608.07 129.06 C 602.09 128.80 596.08 128.32 590.10 128.81 C 589.08 129.98 588.46 131.43 587.84 132.83 C 582.89 145.09 577.63 157.21 572.31 169.31 C 568.06 178.64 563.99 188.34 557.10 196.09 C 549.97 204.18 537.97 207.87 527.69 204.17 C 513.46 199.25 504.58 183.67 505.96 168.92 C 507.10 153.73 515.95 140.90 522.97 127.89 C 514.99 127.90 506.99 127.85 499.02 128.25 C 496.03 128.03 494.57 130.99 492.97 132.97 C 482.11 148.91 471.60 165.54 466.17 184.21 C 463.39 194.31 461.90 205.97 467.54 215.40 C 473.32 225.63 484.39 231.22 495.12 234.82 C 503.38 237.34 512.82 239.10 520.88 234.99 C 529.12 230.44 533.08 221.47 537.85 213.84 C 539.05 211.05 542.98 211.37 544.59 213.60 C 546.25 215.47 544.46 217.91 543.89 219.89 C 539.82 228.75 534.30 237.75 525.32 242.30 C 516.37 247.14 505.63 246.64 496.08 244.01 C 481.90 240.42 467.78 232.84 460.09 219.93 C 453.96 209.80 454.44 197.23 457.01 186.07 C 461.34 168.89 469.20 152.71 479.06 138.03 C 481.22 134.76 483.42 131.50 485.44 128.14 C 478.87 128.33 472.22 127.86 465.71 128.80 M 533.35 128.21 C 526.63 139.78 518.59 150.97 515.20 164.09 C 512.51 174.34 516.03 186.00 524.27 192.75 C 530.28 197.75 539.69 198.83 546.25 194.26 C 551.31 190.56 554.76 185.13 557.66 179.67 C 565.91 162.90 573.11 145.62 580.00 128.26 C 564.45 128.20 548.88 127.44 533.35 128.21 M 618.39 129.28 C 606.72 163.84 589.98 196.54 569.90 226.96 C 551.01 255.89 529.88 283.28 508.00 309.99 C 484.60 338.77 460.34 366.91 434.33 393.37 C 432.10 395.83 428.94 398.23 429.33 401.96 C 429.34 415.65 429.14 429.35 429.09 443.05 C 433.60 439.25 437.90 435.24 442.14 431.15 C 481.36 392.68 519.38 352.79 562.11 318.12 C 579.35 303.62 597.40 290.12 614.77 275.76 C 623.97 268.34 632.31 259.93 641.18 252.16 C 643.70 249.55 648.19 252.56 647.71 255.84 C 646.92 258.64 644.63 260.64 642.72 262.71 C 630.35 274.74 617.16 285.90 603.65 296.62 C 587.88 308.38 572.61 320.81 557.95 333.93 C 515.82 369.68 479.36 411.42 438.20 448.21 C 435.25 450.95 432.00 453.40 429.42 456.51 C 428.39 459.55 428.79 462.85 428.67 466.01 C 428.70 491.80 427.41 517.57 427.74 543.36 C 444.06 529.50 460.01 515.21 476.02 501.00 C 503.22 476.57 529.39 451.00 556.76 426.75 C 571.94 413.14 586.91 399.20 603.29 387.02 C 603.33 373.05 603.82 358.78 608.51 345.47 C 613.59 330.81 624.90 318.33 639.30 312.37 C 655.92 305.53 674.34 306.24 691.92 307.62 C 705.57 308.36 719.15 310.40 732.78 311.12 C 740.11 305.80 746.17 298.87 751.95 291.93 C 765.98 273.72 773.68 251.24 776.39 228.57 C 778.77 209.20 777.45 189.01 770.06 170.79 C 765.44 158.57 757.86 147.52 748.29 138.65 C 746.87 137.21 744.92 136.55 742.94 136.48 C 736.83 136.04 730.71 135.71 724.61 135.21 C 721.63 143.07 719.24 151.14 716.09 158.93 C 708.07 179.16 698.44 198.74 687.48 217.54 C 671.70 244.49 654.13 270.78 631.65 292.66 C 618.38 305.91 603.05 316.80 588.37 328.38 C 584.35 331.21 580.70 334.83 576.01 336.51 C 572.19 337.22 569.91 331.38 573.12 329.18 C 586.36 318.39 600.38 308.53 613.28 297.29 C 628.02 285.00 640.87 270.52 651.83 254.79 C 671.44 227.67 688.52 198.65 701.99 167.99 C 706.47 156.91 711.47 145.95 714.26 134.28 C 703.86 133.24 693.42 132.74 682.99 132.11 C 661.47 131.01 639.94 129.65 618.39 129.28 M 760.56 138.06 C 766.27 145.60 772.26 153.06 776.20 161.74 C 787.79 186.57 788.51 215.16 783.65 241.74 C 780.52 258.79 774.11 275.24 764.90 289.92 C 759.47 298.53 752.21 305.72 745.05 312.87 C 759.00 314.77 773.02 316.26 787.02 317.83 C 792.08 311.57 797.22 305.32 801.45 298.44 C 809.69 284.51 816.02 269.40 819.46 253.55 C 825.14 229.63 825.64 204.18 818.62 180.49 C 814.51 167.06 807.85 154.11 797.74 144.21 C 795.76 142.01 792.85 141.19 790.00 140.97 C 780.19 139.96 770.42 138.45 760.56 138.06 M 809.61 143.80 C 811.59 147.06 813.78 150.19 816.03 153.27 C 819.98 151.68 823.70 149.61 827.22 147.23 C 821.42 145.77 815.54 144.58 809.61 143.80 M 817.43 155.82 C 819.35 159.92 821.40 163.96 823.65 167.88 C 832.52 164.55 841.52 161.59 850.47 158.48 C 845.22 154.03 839.02 150.02 832.02 149.42 C 826.94 150.99 822.47 154.09 817.43 155.82 M 824.81 170.40 C 825.66 173.57 826.64 176.72 827.76 179.82 C 837.96 175.67 848.50 172.45 859.14 169.67 C 857.44 166.71 855.60 163.84 853.66 161.04 C 844.13 164.44 834.49 167.47 824.81 170.40 M 828.70 183.13 C 829.56 188.49 830.53 193.84 831.37 199.20 C 842.84 196.20 854.28 193.05 865.90 190.62 C 865.03 184.47 863.37 178.45 860.69 172.84 C 850.03 176.28 839.47 180.02 828.70 183.13 M 165.77 238.05 C 165.07 248.72 165.33 259.45 166.66 270.07 C 168.14 281.17 171.67 292.35 178.89 301.11 C 183.81 307.23 190.33 311.89 197.47 315.10 C 199.42 305.73 202.51 295.51 210.85 289.85 C 219.36 284.45 229.86 284.26 239.61 283.72 C 240.02 267.70 243.92 251.07 238.53 235.47 C 235.17 225.33 224.75 217.88 213.99 218.71 C 206.93 219.29 199.54 221.09 192.68 218.34 C 184.56 215.53 179.24 207.64 177.71 199.44 C 176.06 192.42 177.50 185.26 177.63 178.18 C 170.65 197.38 166.78 217.65 165.77 238.05 M 832.10 204.06 C 832.14 207.40 832.22 210.74 832.33 214.08 C 844.17 211.57 856.06 209.23 867.98 207.09 C 867.71 203.41 867.36 199.74 866.92 196.09 C 855.42 199.18 843.78 201.72 832.10 204.06 M 832.32 219.10 C 832.21 222.28 832.10 225.46 832.02 228.65 C 844.52 227.73 856.91 225.57 869.15 222.88 C 869.08 219.56 868.90 216.25 868.72 212.94 C 856.67 215.45 844.49 217.30 832.32 219.10 M 831.38 235.22 C 829.82 248.05 826.90 260.65 823.33 273.05 C 830.10 273.69 836.89 274.27 843.63 275.30 C 843.72 276.03 843.91 277.49 844.00 278.23 C 836.62 277.98 829.30 276.97 821.95 276.51 C 820.43 280.01 819.00 283.55 817.65 287.12 C 826.08 286.76 834.50 287.65 842.90 288.34 C 849.45 288.92 855.50 291.63 861.58 293.96 C 869.12 273.53 869.92 251.36 869.75 229.82 C 857.05 232.22 844.27 234.23 831.38 235.22 M 816.13 289.76 C 813.63 294.41 811.24 299.13 808.80 303.82 C 823.09 303.01 837.45 305.16 850.84 310.23 C 854.66 306.15 858.39 301.82 860.41 296.53 C 846.75 289.77 831.06 289.24 816.13 289.76 M 217.23 296.15 C 209.47 300.26 206.66 309.68 206.36 317.89 C 218.37 320.66 230.91 320.89 243.09 319.17 C 240.75 310.53 239.66 301.64 239.11 292.72 C 231.76 292.96 223.98 292.82 217.23 296.15 M 797.27 319.36 C 807.85 320.91 818.66 321.68 829.29 320.23 C 836.13 319.32 842.52 316.41 848.16 312.51 C 838.20 308.72 827.55 307.24 816.97 306.66 C 813.71 306.55 810.41 306.24 807.20 306.89 C 803.25 310.46 800.63 315.26 797.27 319.36 M 590.39 409.36 C 562.69 433.28 536.19 458.52 509.18 483.19 C 482.86 507.93 455.35 531.35 428.62 555.63 C 426.75 557.15 427.33 559.81 427.17 561.92 C 427.45 578.75 426.68 595.57 426.53 612.39 C 446.72 597.76 470.40 588.23 494.90 583.88 C 518.65 579.68 543.71 580.90 566.32 589.72 C 580.31 594.68 593.30 602.08 605.14 610.99 C 605.64 585.99 604.39 561.00 604.78 536.00 C 604.68 508.33 604.32 480.67 604.19 453.00 C 603.52 434.97 603.88 416.93 603.69 398.89 C 599.04 402.11 594.65 405.66 590.39 409.36 M 475.97 597.89 C 459.96 602.82 444.72 610.34 431.09 620.09 C 429.47 621.38 427.52 622.54 426.61 624.49 C 425.95 627.97 426.30 631.55 426.24 635.08 C 451.89 616.32 483.11 605.02 514.96 604.26 C 533.09 603.80 551.37 607.34 567.77 615.16 C 581.67 621.39 593.82 630.73 605.35 640.56 C 605.27 634.57 606.22 628.32 604.58 622.51 C 600.84 618.47 596.10 615.52 591.61 612.39 C 578.51 603.65 563.70 597.67 548.51 593.70 C 524.57 588.30 499.20 590.19 475.97 597.89 M 715.16 614.23 C 718.16 607.79 720.61 600.68 719.58 593.48 C 716.22 599.84 715.89 607.22 715.16 614.23 M 675.87 603.61 C 675.92 606.62 675.50 610.00 677.50 612.55 C 681.70 618.10 686.95 622.90 692.93 626.48 C 692.09 620.21 689.35 614.35 685.71 609.25 C 683.56 605.79 680.11 603.27 675.87 603.61 M 267.82 608.70 C 269.18 614.91 271.31 621.00 274.63 626.44 C 275.66 628.47 279.00 629.60 280.62 627.69 C 284.75 623.40 288.17 618.43 290.91 613.16 C 283.70 609.82 275.77 608.10 267.82 608.70 M 246.74 614.81 C 253.13 620.36 259.55 625.97 266.83 630.33 C 264.74 623.28 261.59 616.61 259.54 609.55 C 255.01 610.60 250.74 612.48 246.74 614.81 M 454.32 628.30 C 447.30 631.69 440.97 636.26 434.43 640.45 C 431.40 642.63 428.04 644.66 425.90 647.80 C 425.28 650.47 425.54 653.25 425.48 655.97 C 425.58 669.43 424.99 682.88 424.72 696.34 C 431.06 690.76 437.23 684.93 444.37 680.37 C 470.05 664.01 502.23 658.69 531.93 665.04 C 546.34 668.54 560.49 674.43 571.84 684.15 C 586.61 695.86 597.84 711.44 606.52 728.05 C 606.12 704.69 605.79 681.32 605.86 657.95 C 606.15 655.27 604.17 653.31 602.57 651.47 C 592.51 640.17 580.00 631.13 566.38 624.61 C 558.86 621.14 551.27 617.61 543.12 615.89 C 532.90 613.73 522.45 612.17 511.99 612.86 C 492.01 614.27 472.28 619.43 454.32 628.30 M 287.21 632.38 C 285.92 634.73 288.88 636.88 291.05 636.81 C 297.48 637.22 303.94 637.15 310.37 637.06 C 308.33 629.98 304.23 623.68 299.05 618.49 C 294.99 623.00 290.35 627.13 287.21 632.38 M 228.94 635.83 C 238.88 635.38 248.82 635.21 258.77 635.00 C 252.76 629.57 246.15 624.65 238.92 620.98 C 233.72 624.31 231.11 630.29 228.94 635.83 M 726.25 630.24 C 727.59 632.51 729.05 634.69 730.63 636.82 C 736.83 633.00 745.34 630.54 747.70 622.79 C 745.59 622.40 743.41 621.59 741.29 622.26 C 735.81 623.91 730.93 627.04 726.25 630.24 M 704.33 631.28 C 699.60 632.08 695.32 635.55 694.45 640.40 C 691.90 649.86 700.62 659.56 710.04 659.67 C 715.90 660.09 722.16 656.69 723.77 650.80 C 727.20 639.83 715.04 628.58 704.33 631.28 M 662.84 636.99 C 664.52 638.66 666.23 640.60 668.67 641.13 C 674.35 642.51 680.27 642.12 686.05 641.64 C 686.25 639.12 686.38 636.60 686.43 634.09 C 678.64 632.64 669.38 631.48 662.84 636.99 M 271.44 636.25 C 267.14 638.24 265.45 644.39 269.29 647.71 C 272.76 652.16 280.01 649.37 281.39 644.47 C 283.42 639.06 276.33 633.47 271.44 636.25 M 226.93 644.15 C 225.78 652.65 228.07 661.28 232.52 668.54 C 239.37 661.94 246.81 655.94 254.87 650.88 C 257.40 649.43 259.13 647.05 260.30 644.44 C 249.37 641.85 237.99 643.28 226.93 644.15 M 288.42 645.33 C 288.52 647.41 287.47 650.06 289.31 651.65 C 294.84 657.40 301.68 661.67 308.00 666.50 C 311.48 660.35 312.70 653.26 312.43 646.25 C 304.44 645.73 296.43 644.64 288.42 645.33 M 828.53 650.40 C 823.96 653.90 821.85 659.56 819.89 664.78 C 814.22 681.96 812.64 700.68 816.66 718.41 C 820.09 735.13 828.05 750.86 838.90 763.97 C 842.78 750.58 844.77 736.73 847.19 723.02 C 849.61 707.11 852.27 690.93 850.08 674.83 C 848.91 666.82 846.36 658.40 840.18 652.79 C 837.13 650.07 832.34 648.08 828.53 650.40 M 731.64 652.36 C 731.65 653.93 731.68 655.52 731.73 657.11 C 738.46 660.38 745.29 664.37 752.97 664.64 C 755.38 664.81 756.90 662.65 758.52 661.24 C 751.29 654.59 741.08 652.97 731.64 652.36 M 259.48 686.49 C 266.73 686.97 274.05 686.76 281.13 685.01 C 277.12 676.21 274.35 666.92 273.05 657.33 C 271.30 657.09 269.54 656.86 267.79 656.63 C 262.81 665.78 259.89 676.07 259.48 686.49 M 281.50 656.70 C 282.21 665.84 285.41 674.64 289.96 682.55 C 294.49 680.16 298.86 677.36 302.32 673.54 C 295.37 667.94 288.40 662.37 281.50 656.70 M 238.86 674.95 C 241.80 678.89 246.60 680.78 250.73 683.21 C 252.28 675.13 254.55 667.23 257.24 659.46 C 250.74 664.09 243.75 668.56 238.86 674.95 M 716.33 666.49 C 715.67 674.49 717.78 682.32 720.02 689.92 C 720.94 692.92 721.88 695.96 723.41 698.73 C 725.35 699.04 725.62 696.68 726.27 695.38 C 729.15 686.42 725.26 677.06 720.44 669.54 C 719.55 667.97 717.80 667.32 716.33 666.49 M 463.66 680.66 C 456.39 684.14 448.74 688.72 445.43 696.45 C 443.38 700.96 445.03 705.96 446.77 710.28 C 450.54 718.64 456.27 725.91 461.86 733.12 C 474.26 748.41 487.55 762.98 501.21 777.15 C 501.73 765.40 501.35 753.63 501.60 741.88 C 501.68 718.58 501.99 695.29 502.09 672.01 C 488.84 672.03 475.77 675.44 463.66 680.66 M 510.19 672.02 C 510.03 707.44 509.50 742.86 509.27 778.28 C 513.46 775.19 517.34 771.71 521.15 768.17 C 533.82 756.17 546.43 744.02 557.52 730.52 C 563.28 723.17 568.98 714.72 568.80 704.99 C 568.98 697.26 564.85 689.72 558.25 685.71 C 544.06 676.56 527.06 671.78 510.19 672.02 M 865.49 680.51 C 861.18 684.53 860.35 690.69 859.52 696.23 C 856.80 718.69 853.20 741.07 848.03 763.10 C 860.09 751.37 870.03 737.49 877.30 722.32 C 881.88 712.28 885.93 701.40 884.89 690.18 C 884.40 685.18 882.41 679.61 877.62 677.27 C 873.40 675.30 868.57 677.46 865.49 680.51 M 798.43 683.40 C 794.86 686.08 793.85 690.83 793.12 695.00 C 790.75 712.84 796.67 731.22 807.81 745.19 C 814.90 754.13 822.67 762.82 832.09 769.35 C 828.08 763.22 823.38 757.54 820.03 750.99 C 810.62 733.96 805.46 714.46 806.25 694.96 C 806.15 692.08 806.75 688.67 804.52 686.42 C 802.98 684.75 800.90 682.81 798.43 683.40 M 264.49 695.92 C 265.18 724.22 266.36 752.50 267.23 780.80 C 269.46 832.10 270.13 883.44 271.14 934.77 C 274.73 934.68 278.32 934.60 281.92 934.56 C 282.54 905.02 281.36 875.48 280.56 845.95 C 278.71 795.99 276.93 746.03 275.10 696.06 C 271.57 695.95 268.03 695.91 264.49 695.92 M 425.68 708.67 C 424.03 711.07 424.64 714.20 424.42 716.95 C 424.24 733.92 423.53 750.88 423.17 767.85 C 428.55 766.35 434.48 765.81 439.64 768.37 C 449.95 772.84 454.50 786.47 449.49 796.40 C 446.56 802.76 439.94 807.01 433.02 807.55 C 429.40 807.70 425.88 806.67 422.37 805.98 C 422.46 809.37 421.75 812.93 422.84 816.20 C 424.25 817.82 426.16 818.89 427.97 820.04 C 444.37 829.94 461.53 838.53 477.82 848.64 C 485.16 843.90 492.66 839.43 500.52 835.63 C 500.91 824.75 500.59 813.87 501.07 803.00 C 501.15 799.33 501.38 795.66 501.08 792.01 C 500.92 789.15 498.52 787.22 496.83 785.18 C 482.36 770.27 468.35 754.87 455.33 738.67 C 446.30 727.10 436.88 714.67 435.32 699.57 C 431.88 702.34 428.45 705.20 425.68 708.67 M 577.42 700.93 C 577.51 706.41 577.16 712.00 575.22 717.18 C 571.29 727.94 563.90 736.94 556.35 745.38 C 542.33 760.69 527.35 775.15 511.29 788.31 C 508.80 790.04 509.26 793.29 509.15 795.93 C 509.26 807.99 508.72 820.05 508.88 832.12 C 524.45 827.31 540.72 824.25 557.08 825.28 C 562.07 825.34 566.99 826.45 571.98 826.46 C 575.50 824.26 578.30 821.12 581.52 818.53 C 589.84 811.23 599.20 804.70 605.39 795.36 C 608.42 791.16 607.70 785.81 607.67 780.96 C 607.41 772.61 607.37 764.26 606.93 755.93 C 606.77 750.46 604.47 745.42 602.38 740.48 C 596.20 726.09 587.86 712.62 577.42 700.93 M 178.37 703.59 C 177.63 707.33 177.27 711.15 177.50 714.97 C 178.33 732.08 181.30 749.10 186.50 765.43 C 193.14 763.96 197.24 757.64 198.30 751.27 C 200.48 738.67 196.49 725.75 189.94 715.04 C 187.05 710.40 183.62 705.68 178.37 703.59 M 332.68 708.65 C 328.42 710.37 325.23 713.90 322.46 717.45 C 315.21 726.97 310.60 738.13 306.13 749.14 C 299.89 766.09 294.29 783.37 291.04 801.18 C 301.72 789.92 310.69 777.14 319.13 764.15 C 326.75 752.15 333.52 739.46 337.77 725.85 C 338.95 721.79 340.07 717.54 339.55 713.29 C 339.21 710.20 335.80 707.20 332.68 708.65 M 131.99 712.73 C 132.89 720.65 138.04 727.07 143.26 732.72 C 150.50 740.17 158.79 746.80 168.35 751.03 C 161.94 737.55 152.52 725.47 140.90 716.11 C 138.43 713.90 135.20 713.05 131.99 712.73 M 754.01 718.98 C 746.20 728.66 741.32 740.34 736.90 751.87 C 730.57 769.50 725.68 787.63 721.82 805.95 C 719.42 817.20 718.07 828.63 716.06 839.95 C 714.58 847.40 713.24 855.30 708.46 861.46 C 706.89 863.79 703.90 863.87 701.41 864.34 C 700.14 860.89 699.01 857.36 697.10 854.20 C 697.18 864.02 700.48 873.41 703.15 882.75 C 707.60 897.52 711.40 912.48 715.82 927.26 C 716.62 930.12 717.87 932.83 719.48 935.34 C 723.91 928.26 728.16 921.02 733.73 914.74 C 747.02 898.26 765.61 887.35 780.13 872.12 C 786.83 865.26 791.71 856.87 795.05 847.92 C 797.11 842.09 800.86 835.79 798.15 829.55 C 790.05 831.06 783.57 836.41 777.03 841.03 C 770.03 846.24 762.92 851.61 757.66 858.66 C 754.70 862.55 754.24 867.64 751.72 871.74 C 750.07 874.33 745.68 874.61 744.20 871.70 C 744.02 867.96 744.85 864.16 743.67 860.50 C 740.34 848.44 743.25 835.94 746.18 824.12 C 750.73 807.34 755.00 790.47 758.51 773.43 C 761.10 759.39 764.34 745.32 764.65 730.99 C 764.45 726.11 764.86 720.44 761.48 716.48 C 758.96 713.55 755.72 716.92 754.01 718.98 M 874.04 767.03 C 861.53 777.85 851.84 791.66 844.29 806.30 C 840.59 814.16 836.47 822.13 835.67 830.93 C 844.18 828.35 851.18 822.56 857.42 816.42 C 864.83 809.03 871.58 800.85 876.61 791.64 C 881.48 782.33 885.46 772.04 884.81 761.36 C 880.84 762.41 877.11 764.29 874.04 767.03 M 792.15 766.12 C 788.02 769.17 788.60 774.99 789.71 779.40 C 793.57 793.70 800.27 807.17 808.58 819.41 C 812.95 825.46 817.30 832.05 824.13 835.58 C 823.05 830.26 820.43 825.47 818.60 820.41 C 814.24 808.66 812.43 796.18 808.63 784.27 C 806.52 778.04 804.21 771.37 799.01 767.01 C 797.19 765.34 794.26 764.47 792.15 766.12 M 354.78 771.74 C 354.73 774.31 354.80 776.88 354.97 779.45 C 356.61 779.11 358.90 779.72 359.82 777.91 C 360.91 776.11 360.89 773.91 361.27 771.92 C 359.11 771.80 356.94 771.74 354.78 771.74 M 227.66 780.65 C 219.13 789.70 212.23 800.11 205.60 810.59 C 202.59 815.67 198.96 820.51 197.43 826.30 C 217.72 821.43 232.52 803.32 237.90 783.76 C 238.67 780.85 239.27 777.26 236.76 774.99 C 233.00 775.33 230.19 778.13 227.66 780.65 M 427.34 775.20 C 425.59 775.93 423.09 776.82 423.15 779.11 C 422.70 783.73 422.76 788.39 423.01 793.03 C 422.94 797.06 427.79 798.55 431.04 799.19 C 437.56 800.20 442.84 794.04 442.90 787.89 C 443.81 779.84 435.18 772.26 427.34 775.20 M 148.49 780.53 C 148.46 786.15 151.54 790.95 154.63 795.39 C 161.71 805.07 170.69 814.16 182.24 818.23 C 181.58 810.11 177.26 802.90 172.34 796.63 C 167.96 791.37 163.21 786.26 157.40 782.55 C 154.79 780.75 151.55 780.61 148.49 780.53 M 581.93 829.53 C 590.87 832.17 599.33 836.11 607.74 840.08 C 607.96 829.25 608.02 818.41 607.63 807.58 C 599.27 815.14 590.59 822.33 581.93 829.53 M 327.54 817.64 C 326.35 823.68 326.31 829.85 326.32 835.98 C 326.25 868.91 326.14 901.85 326.23 934.79 C 329.52 934.77 332.80 934.78 336.09 934.83 C 336.57 901.23 336.21 867.61 336.05 834.00 C 335.81 829.18 336.46 823.71 333.39 819.62 C 332.12 817.63 329.55 817.94 327.54 817.64 M 869.01 827.03 C 857.88 833.04 846.01 837.47 834.45 842.53 C 831.01 843.72 830.49 847.65 829.85 850.73 C 828.63 857.95 827.05 865.12 826.31 872.41 C 832.13 871.79 837.88 870.47 843.33 868.30 C 860.09 861.56 874.49 849.66 885.24 835.24 C 888.79 830.49 891.64 824.63 890.30 818.56 C 882.58 819.56 875.91 823.77 869.01 827.03 M 380.11 835.00 C 380.01 868.18 380.30 901.37 380.64 934.55 C 389.82 934.72 399.03 935.05 408.20 934.22 C 393.56 917.20 385.16 895.27 383.05 873.03 C 381.09 855.18 382.82 837.19 382.19 819.31 C 379.29 824.02 380.30 829.75 380.11 835.00 M 422.19 827.79 C 421.86 832.52 421.84 837.26 421.85 842.01 C 421.68 859.84 421.14 878.65 429.45 894.98 C 441.99 880.64 455.05 866.58 470.22 854.97 C 462.37 849.52 453.75 845.34 445.55 840.48 C 437.73 836.30 430.26 831.47 422.19 827.79 M 506.15 843.21 C 489.12 850.60 474.10 861.96 460.85 874.85 C 451.77 883.66 442.81 892.61 434.50 902.16 C 439.99 909.22 448.40 913.05 456.94 914.99 C 463.69 907.38 469.94 899.33 477.09 892.08 C 487.92 880.77 499.63 869.66 514.06 863.12 C 530.21 855.87 548.85 854.67 565.93 859.13 C 580.01 862.40 593.01 869.13 604.87 877.27 C 606.29 868.31 606.95 859.24 607.45 850.20 C 599.05 846.32 591.02 841.50 582.00 839.13 C 557.28 831.50 529.90 832.93 506.15 843.21 M 808.45 833.50 C 805.73 843.68 802.31 853.65 797.85 863.19 C 805.35 862.77 811.48 867.46 816.82 872.13 C 818.59 863.26 820.78 854.46 822.08 845.51 C 817.03 842.09 812.77 837.74 808.45 833.50 M 146.03 839.64 C 143.81 847.25 148.81 854.29 152.40 860.59 C 159.97 871.93 170.45 882.73 184.15 886.00 C 179.68 873.56 171.39 863.00 162.97 853.00 C 158.14 847.68 153.23 841.68 146.03 839.64 M 212.07 868.05 C 206.83 876.08 201.57 884.29 198.33 893.38 C 203.50 892.21 208.09 889.43 212.24 886.23 C 223.94 877.46 234.52 865.92 238.53 851.55 C 239.79 848.03 238.76 844.35 236.50 841.51 C 226.00 847.84 218.99 858.22 212.07 868.05 M 873.45 863.61 C 866.61 866.55 860.25 870.47 853.46 873.51 C 845.67 877.32 837.29 879.66 828.97 881.97 C 826.96 882.73 823.97 882.97 823.59 885.59 C 821.97 892.25 820.99 899.06 820.14 905.85 C 835.82 904.21 851.81 900.72 865.39 892.39 C 873.36 886.93 881.30 880.55 885.68 871.73 C 886.95 868.89 888.26 864.81 885.50 862.41 C 881.57 860.67 877.19 862.04 873.45 863.61 M 503.71 879.72 C 490.07 890.28 478.45 903.23 467.64 916.61 C 491.02 918.70 514.57 918.82 538.03 917.97 C 550.10 917.18 562.26 916.09 573.99 912.98 C 586.78 909.62 596.64 899.09 601.43 887.06 C 587.18 874.69 568.78 867.07 549.98 865.60 C 533.46 864.22 516.73 869.55 503.71 879.72 M 795.27 876.23 C 794.75 887.74 800.48 899.29 809.89 905.96 C 811.77 898.35 813.19 890.64 814.87 882.99 C 811.05 879.53 807.69 875.40 803.16 872.85 C 800.26 871.22 795.26 872.24 795.27 876.23 M 749.33 911.32 C 741.85 918.19 735.71 926.35 729.96 934.68 C 749.35 934.57 768.75 935.01 788.14 934.46 C 781.63 923.74 782.62 908.07 792.87 899.99 C 789.04 893.23 786.91 885.65 786.51 877.90 C 775.14 890.14 761.26 899.67 749.33 911.32 M 634.50 910.68 C 632.56 913.50 634.61 916.59 635.70 919.30 C 638.06 924.33 639.83 929.60 642.18 934.63 C 649.47 934.66 656.76 934.74 664.04 934.43 C 659.76 917.94 652.79 902.15 643.93 887.62 C 641.18 895.46 638.24 903.24 634.50 910.68 M 853.28 907.27 C 841.93 911.33 829.95 913.03 818.44 916.49 C 817.12 921.24 816.04 926.08 815.73 931.02 C 815.76 932.19 815.08 934.77 817.11 934.55 C 833.41 934.99 849.74 934.58 866.04 934.69 C 869.59 934.57 873.59 934.95 876.58 932.65 C 880.52 929.63 882.80 925.02 884.54 920.50 C 886.15 916.03 887.25 911.00 885.78 906.35 C 884.02 901.46 878.11 899.27 873.30 900.41 C 866.36 901.86 860.00 905.15 853.28 907.27 M 143.72 900.55 C 143.98 904.07 144.49 907.66 146.14 910.84 C 149.46 917.54 153.71 923.79 158.53 929.50 C 160.59 931.70 162.74 934.56 166.06 934.59 C 172.32 934.99 178.59 934.32 184.86 934.44 C 175.46 923.14 165.70 911.69 153.11 903.83 C 150.32 901.93 147.02 901.04 143.72 900.55 M 238.22 903.15 C 231.85 906.48 226.38 911.28 221.41 916.42 C 215.94 922.05 210.69 927.92 206.06 934.27 C 211.32 934.34 216.66 934.96 221.88 934.03 C 225.40 932.90 228.14 930.23 230.87 927.86 C 236.34 922.61 241.60 916.89 244.88 909.98 C 246.23 907.42 246.01 904.46 245.97 901.68 C 243.34 901.79 240.59 901.84 238.22 903.15 M 795.45 910.25 C 790.37 917.20 793.00 927.49 798.70 933.31 C 800.80 935.84 805.99 934.87 806.47 931.45 C 807.66 926.99 808.76 922.30 808.37 917.68 C 806.26 915.09 803.57 913.02 800.85 911.11 C 799.31 910.07 797.15 908.77 795.45 910.25 M 615.71 934.07 C 621.29 934.62 626.90 934.72 632.52 934.62 C 631.46 929.87 629.29 925.51 626.98 921.28 C 623.35 925.65 619.49 929.83 615.71 934.07 Z" />
<path fill="#0a0e0d" stroke="#0a0e0d" stroke-width="0.09375" opacity="1.00" d=" M 654.39 151.28 C 659.48 148.66 666.62 152.23 666.97 158.10 C 668.04 164.64 660.49 170.52 654.43 167.63 C 647.80 164.87 647.65 154.03 654.39 151.28 Z" />
<path fill="#0a0e0d" stroke="#0a0e0d" stroke-width="0.09375" opacity="1.00" d=" M 314.36 175.09 C 317.41 173.83 321.75 174.62 322.71 178.19 C 323.10 181.72 319.22 182.77 316.58 183.57 C 305.72 186.50 296.40 194.18 290.96 203.96 C 286.19 212.80 284.78 223.08 285.09 233.01 C 285.08 236.23 285.49 239.52 284.79 242.69 C 283.60 245.55 279.39 245.45 277.33 243.63 C 276.20 239.87 276.45 235.88 276.38 232.00 C 276.36 218.30 279.21 203.91 287.93 192.97 C 294.77 184.65 304.04 178.23 314.36 175.09 Z" />
<path fill="#0a0e0d" stroke="#0a0e0d" stroke-width="0.09375" opacity="1.00" d=" M 626.45 196.44 C 630.51 194.78 635.63 196.18 637.86 200.07 C 641.40 205.50 637.41 213.74 630.96 214.31 C 626.00 215.13 621.20 210.80 621.07 205.87 C 620.64 201.98 622.82 197.98 626.45 196.44 Z" />
<path fill="#0a0e0d" stroke="#0a0e0d" stroke-width="0.09375" opacity="1.00" d=" M 405.49 216.33 C 407.96 215.73 411.31 217.20 411.40 220.03 C 411.13 222.97 409.38 225.48 408.02 228.02 C 402.08 237.91 397.06 248.32 391.43 258.38 C 389.33 262.02 387.88 266.09 385.15 269.33 C 383.16 271.65 379.33 270.06 378.08 267.71 C 378.64 263.45 381.12 259.77 382.93 255.95 C 388.13 246.19 393.27 236.39 398.80 226.81 C 400.90 223.25 402.46 219.23 405.49 216.33 Z" />
<path fill="#0a0e0d" stroke="#0a0e0d" stroke-width="0.09375" opacity="1.00" d=" M 733.42 220.52 C 739.08 218.58 746.05 220.49 749.46 225.54 C 753.58 231.22 753.10 239.95 747.49 244.49 C 741.87 250.06 731.63 249.52 726.94 243.03 C 720.93 235.82 724.36 223.31 733.42 220.52 Z" />
<path fill="#0a0e0d" stroke="#0a0e0d" stroke-width="0.09375" opacity="1.00" d=" M 347.42 224.41 C 349.72 224.17 353.27 225.18 352.89 228.10 C 352.05 240.09 350.26 252.01 349.47 264.01 C 349.12 266.62 349.33 269.62 347.56 271.79 C 345.39 272.88 342.67 272.51 340.95 270.77 C 340.16 267.00 340.92 263.14 341.24 259.36 C 342.47 249.19 342.91 238.92 344.64 228.82 C 345.14 227.28 345.50 224.61 347.42 224.41 Z" />
<path fill="#0a0e0d" stroke="#0a0e0d" stroke-width="0.09375" opacity="1.00" d=" M 209.35 239.18 C 213.49 238.48 218.03 240.02 220.64 243.38 C 222.99 246.40 223.47 250.62 222.25 254.20 C 220.15 260.12 212.86 263.63 207.00 261.12 C 202.22 259.37 199.57 254.05 200.20 249.13 C 200.38 244.18 204.47 239.84 209.35 239.18 Z" />
<path fill="#0a0e0d" stroke="#0a0e0d" stroke-width="0.09375" opacity="1.00" d=" M 176.35 242.23 C 178.08 241.61 180.40 242.34 180.76 244.34 C 182.49 250.05 182.82 256.08 184.20 261.88 C 185.29 267.98 187.40 273.86 188.29 280.00 C 188.89 282.41 186.14 284.13 184.00 283.98 C 181.38 284.30 180.49 281.23 179.67 279.32 C 176.53 269.43 174.67 259.15 173.17 248.89 C 172.58 246.24 173.28 242.85 176.35 242.23 Z" />
<path fill="#0a0e0d" stroke="#0a0e0d" stroke-width="0.09375" opacity="1.00" d=" M 569.36 260.30 C 574.27 258.71 580.15 261.92 581.02 267.11 C 582.42 272.69 577.86 278.94 572.01 278.86 C 567.12 279.15 562.65 274.90 562.69 270.00 C 562.15 265.65 565.22 261.46 569.36 260.30 Z" />
<path fill="#0a0e0d" stroke="#0a0e0d" stroke-width="0.09375" opacity="1.00" d=" M 441.37 268.13 C 443.86 266.87 447.23 269.21 447.12 271.97 C 446.38 274.61 444.25 276.52 442.49 278.50 C 434.38 286.73 426.28 294.97 417.78 302.80 C 415.97 304.36 414.17 306.13 411.85 306.86 C 409.57 307.24 407.54 305.12 407.19 303.01 C 407.96 300.21 410.28 298.25 412.22 296.23 C 419.58 289.25 426.76 282.10 433.93 274.92 C 436.35 272.61 438.50 269.92 441.37 268.13 Z" />
<path fill="#0a0e0d" stroke="#0a0e0d" stroke-width="0.09375" opacity="1.00" d=" M 698.35 277.20 C 703.61 275.53 709.67 279.58 710.11 285.09 C 711.22 292.10 702.63 298.67 696.39 294.54 C 689.38 290.99 690.40 278.87 698.35 277.20 Z" />
<path fill="#0a0e0d" stroke="#0a0e0d" stroke-width="0.09375" opacity="1.00" d=" M 477.64 476.65 C 480.24 475.17 483.46 478.19 483.21 480.87 C 482.10 483.35 479.88 485.08 477.91 486.87 C 466.58 496.59 455.04 506.08 443.37 515.38 C 440.91 517.19 438.42 519.40 435.27 519.77 C 433.63 518.68 431.26 516.80 432.51 514.60 C 434.59 511.36 438.09 509.42 440.87 506.85 C 449.94 498.89 459.35 491.35 468.63 483.64 C 471.57 481.24 474.24 478.42 477.64 476.65 Z" />
<path fill="#0a0e0d" stroke="#0a0e0d" stroke-width="0.09375" opacity="1.00" d=" M 568.45 498.63 C 575.91 496.34 584.68 497.14 590.92 502.10 C 600.23 509.15 602.31 523.41 596.25 533.20 C 591.00 541.29 580.68 545.82 571.18 543.88 C 562.28 542.19 554.81 534.73 553.17 525.81 C 550.71 514.69 557.50 502.12 568.45 498.63 Z" />
<path fill="#0a0e0d" stroke="#0a0e0d" stroke-width="0.09375" opacity="1.00" d=" M 484.36 532.26 C 491.99 530.60 500.09 536.40 501.19 544.08 C 502.99 552.99 494.26 562.09 485.28 560.61 C 478.37 559.97 472.41 553.94 472.26 546.93 C 471.57 539.79 477.55 533.42 484.36 532.26 M 484.53 540.44 C 482.19 541.66 480.33 544.17 480.31 546.87 C 480.66 549.59 483.10 551.53 485.53 552.44 C 488.75 553.55 492.06 550.76 492.88 547.75 C 494.25 543.22 488.72 538.88 484.53 540.44 Z" />
<path fill="#0a0e0d" stroke="#0a0e0d" stroke-width="0.09375" opacity="1.00" d=" M 254.22 554.05 C 256.05 553.86 257.91 553.61 259.75 553.82 C 261.36 557.23 261.66 561.05 262.26 564.73 C 263.13 571.25 264.68 577.66 265.32 584.21 C 263.36 584.93 261.38 585.59 259.38 586.20 C 257.67 581.98 256.84 577.50 256.22 573.01 C 255.36 566.72 253.79 560.45 254.22 554.05 Z" />
<path fill="#0a0e0d" stroke="#0a0e0d" stroke-width="0.09375" opacity="1.00" d=" M 285.14 557.07 C 286.57 555.48 288.98 556.41 290.85 556.20 C 291.81 562.82 290.84 569.51 290.66 576.16 C 290.38 579.92 290.67 583.82 289.47 587.46 C 287.73 588.89 285.31 588.44 283.24 588.68 C 282.08 582.24 283.48 575.77 283.66 569.32 C 283.99 565.23 283.68 560.96 285.14 557.07 Z" />
<path fill="#0a0e0d" stroke="#0a0e0d" stroke-width="0.09375" opacity="1.00" d=" M 211.35 570.17 C 213.74 568.87 215.79 571.18 217.19 572.85 C 220.69 577.30 224.21 581.75 227.89 586.07 C 229.21 587.85 231.58 590.18 229.43 592.31 C 227.60 595.80 223.94 592.74 222.32 590.69 C 218.26 585.66 213.94 580.81 210.26 575.50 C 208.83 573.92 209.50 571.05 211.35 570.17 Z" />
<path fill="#0a0e0d" stroke="#0a0e0d" stroke-width="0.09375" opacity="1.00" d=" M 315.86 580.83 C 318.13 577.64 319.83 573.89 323.00 571.47 C 324.65 571.68 326.25 572.15 327.87 572.57 C 327.53 577.58 323.95 581.35 321.50 585.47 C 319.51 588.43 317.95 591.84 315.09 594.10 C 313.12 595.70 309.19 593.66 309.99 591.06 C 311.02 587.20 313.79 584.16 315.86 580.83 Z" />
<path fill="#0a0e0d" stroke="#0a0e0d" stroke-width="0.09375" opacity="1.00" d=" M 182.95 604.94 C 180.13 603.21 182.90 600.02 183.84 597.99 C 189.44 600.04 194.14 603.75 199.18 606.82 C 203.89 609.74 208.82 612.31 213.37 615.48 C 212.53 616.99 211.74 618.55 210.66 619.91 C 206.51 620.03 203.08 617.30 199.62 615.40 C 194.06 611.92 188.24 608.82 182.95 604.94 Z" />
<path fill="#0a0e0d" stroke="#0a0e0d" stroke-width="0.09375" opacity="1.00" d=" M 339.47 610.51 C 344.98 607.54 350.26 603.99 356.15 601.81 C 359.30 600.38 360.52 604.38 361.45 606.57 C 354.41 610.95 346.93 614.57 339.82 618.83 C 336.96 620.39 334.20 622.39 330.94 622.97 C 328.45 622.85 326.32 619.60 328.20 617.50 C 331.48 614.49 335.73 612.85 339.47 610.51 Z" />
<path fill="#0a0e0d" stroke="#0a0e0d" stroke-width="0.09375" opacity="1.00" d=" M 512.51 619.31 C 515.40 617.37 519.76 619.12 520.54 622.51 C 521.94 626.44 517.31 630.88 513.50 628.72 C 509.41 627.39 509.69 621.75 512.51 619.31 Z" />
<path fill="#0a0e0d" stroke="#0a0e0d" stroke-width="0.09375" opacity="1.00" d=" M 540.50 624.34 C 544.12 622.11 549.42 625.63 548.45 629.92 C 547.96 634.01 542.30 635.00 539.67 632.30 C 537.03 630.24 538.12 626.13 540.50 624.34 Z" />
<path fill="#0a0e0d" stroke="#0a0e0d" stroke-width="0.09375" opacity="1.00" d=" M 483.40 625.04 C 486.47 623.51 490.91 625.54 491.31 629.09 C 491.82 633.03 487.12 636.56 483.55 634.58 C 479.53 633.13 479.77 626.81 483.40 625.04 Z" />
<path fill="#0a0e0d" stroke="#0a0e0d" stroke-width="0.09375" opacity="1.00" d=" M 165.36 631.54 C 164.92 629.46 166.11 627.22 168.02 626.34 C 170.84 626.63 173.41 627.93 175.96 629.07 C 182.18 632.01 188.52 634.69 195.01 636.97 C 198.07 638.14 201.39 639.08 203.84 641.38 C 204.16 643.45 202.79 645.22 202.01 647.02 C 192.76 645.22 184.28 640.96 175.68 637.29 C 172.14 635.60 168.25 634.31 165.36 631.54 Z" />
<path fill="#0a0e0d" stroke="#0a0e0d" stroke-width="0.09375" opacity="1.00" d=" M 455.47 633.26 C 458.96 631.24 463.84 634.85 462.90 638.82 C 462.55 642.48 457.82 644.25 454.99 642.07 C 451.94 640.06 452.51 635.04 455.47 633.26 Z" />
<path fill="#0a0e0d" stroke="#0a0e0d" stroke-width="0.09375" opacity="1.00" d=" M 568.56 637.39 C 571.88 634.85 577.50 637.63 577.00 641.93 C 577.02 645.67 572.19 648.25 569.18 645.91 C 566.18 644.18 565.87 639.51 568.56 637.39 Z" />
<path fill="#0a0e0d" stroke="#0a0e0d" stroke-width="0.09375" opacity="1.00" d=" M 707.52 640.39 C 711.49 638.24 716.85 642.34 715.78 646.73 C 714.99 650.32 710.25 652.30 707.39 649.69 C 703.96 647.70 704.02 642.25 707.52 640.39 Z" />
<path fill="#0a0e0d" stroke="#0a0e0d" stroke-width="0.09375" opacity="1.00" d=" M 361.41 642.13 C 363.19 641.85 365.02 641.47 366.82 641.82 C 368.82 642.78 369.79 645.45 368.63 647.43 C 364.86 649.51 360.42 649.61 356.29 650.47 C 351.22 651.16 346.23 652.75 341.09 652.65 C 337.30 652.58 337.56 646.60 340.97 646.07 C 347.66 644.20 354.64 643.67 361.41 642.13 Z" />
<path fill="#0a0e0d" stroke="#0a0e0d" stroke-width="0.09375" opacity="1.00" d=" M 435.38 647.04 C 439.06 644.78 444.73 648.44 443.35 652.86 C 442.69 656.74 437.50 657.70 434.83 655.26 C 432.05 653.29 432.91 648.86 435.38 647.04 Z" />
<path fill="#0a0e0d" stroke="#0a0e0d" stroke-width="0.09375" opacity="1.00" d=" M 591.33 661.92 C 594.17 660.58 598.55 661.73 599.09 665.21 C 600.05 669.40 594.91 673.62 591.19 670.87 C 587.51 669.18 587.99 663.67 591.33 661.92 Z" />
<path fill="#0a0e0d" stroke="#0a0e0d" stroke-width="0.09375" opacity="1.00" d=" M 535.47 692.34 C 539.02 691.00 543.92 693.86 543.25 697.94 C 543.01 701.97 538.15 704.76 534.69 702.40 C 530.61 700.44 531.57 693.91 535.47 692.34 Z" />
<path fill="#0a0e0d" stroke="#0a0e0d" stroke-width="0.09375" opacity="1.00" d=" M 470.36 693.11 C 474.29 691.40 479.13 695.52 477.75 699.71 C 477.16 703.69 472.11 705.41 469.02 703.00 C 465.27 700.70 466.49 694.58 470.36 693.11 Z" />
<path fill="#0a0e0d" stroke="#0a0e0d" stroke-width="0.09375" opacity="1.00" d=" M 567.43 762.58 C 580.30 758.17 595.05 769.51 594.40 783.00 C 594.54 794.44 583.32 803.94 572.15 802.69 C 562.70 801.60 554.67 793.50 553.62 784.06 C 552.39 774.88 558.36 765.05 567.43 762.58 M 569.39 770.39 C 564.21 772.37 560.95 778.36 562.14 783.79 C 563.12 789.04 567.60 793.76 573.03 794.30 C 579.87 795.30 586.13 788.65 585.90 781.99 C 586.10 774.00 576.84 767.52 569.39 770.39 Z" />
<path fill="#0a0e0d" stroke="#0a0e0d" stroke-width="0.09375" opacity="1.00" d=" M 545.37 893.23 C 550.79 890.86 557.83 894.36 559.04 900.20 C 560.83 907.60 552.22 915.73 545.04 911.89 C 537.41 908.63 537.49 896.14 545.37 893.23 Z" />
</g>
</svg>
