<?xml version="1.0" encoding="UTF-8" ?>
<!DOCTYPE svg PUBLIC "-//W3C//DTD SVG 1.1//EN" "http://www.w3.org/Graphics/SVG/1.1/DTD/svg11.dtd">
<svg width="1024pt" height="1024pt" viewBox="0 0 1024 1024" version="1.1" xmlns="http://www.w3.org/2000/svg">
<g id="#fbfdfdff">
<path fill="#fbfdfd" stroke="#fbfdfd" stroke-width="0.09375" opacity="1.00" d=" M 0.00 0.00 L 1024.00 0.00 L 1024.00 1024.00 L 0.00 1024.00 L 0.00 0.00 M 93.45 109.43 C 83.32 118.08 78.50 131.89 79.95 145.02 C 80.70 156.82 87.85 166.68 93.17 176.82 C 178.10 327.47 261.62 478.90 346.22 629.73 C 350.03 636.98 354.39 644.00 357.26 651.69 C 359.74 658.17 359.05 665.22 359.21 672.01 C 359.33 759.68 359.22 847.36 359.31 935.04 C 358.92 950.92 368.59 966.11 382.43 973.56 C 391.16 978.18 401.15 980.14 410.99 979.86 C 466.35 979.86 521.70 979.96 577.06 979.83 C 586.07 979.84 595.19 978.33 603.26 974.18 C 618.34 967.00 628.85 950.81 628.22 933.98 C 628.26 841.31 628.27 748.65 628.20 655.99 C 629.60 644.22 636.99 634.44 642.06 624.04 C 726.31 470.16 813.00 317.63 898.18 164.27 C 904.69 153.48 907.04 140.10 903.04 127.98 C 897.44 108.84 877.42 96.98 858.07 97.13 C 801.05 96.89 744.02 97.22 687.00 97.01 C 678.45 97.03 669.76 96.58 661.37 98.52 C 646.55 101.77 633.34 112.01 626.73 125.70 C 584.21 211.28 542.09 297.08 501.73 383.71 C 499.10 388.97 497.28 394.68 493.96 399.57 C 453.14 312.87 411.08 226.76 367.81 141.26 C 362.34 129.98 357.21 117.86 347.24 109.73 C 336.62 100.24 321.99 96.57 307.99 97.10 C 248.32 97.05 188.64 97.07 128.97 97.11 C 116.22 97.02 102.81 100.31 93.45 109.43 Z" />
<path fill="#fbfdfd" stroke="#fbfdfd" stroke-width="0.09375" opacity="1.00" d=" M 140.84 131.73 C 144.42 131.46 148.01 131.26 151.60 131.46 C 154.50 136.07 157.07 140.87 159.60 145.68 C 156.02 145.43 152.43 145.29 148.84 145.14 C 146.16 140.68 143.71 136.08 140.84 131.73 Z" />
<path fill="#fbfdfd" stroke="#fbfdfd" stroke-width="0.09375" opacity="1.00" d=" M 284.34 131.52 C 287.43 131.50 290.53 131.45 293.63 131.40 C 290.93 132.56 288.27 133.77 285.61 135.00 C 285.18 133.83 284.76 132.68 284.34 131.52 Z" />
<path fill="#fbfdfd" stroke="#fbfdfd" stroke-width="0.09375" opacity="1.00" d=" M 669.00 132.03 C 677.89 130.36 687.06 132.00 696.06 131.44 C 695.17 138.40 694.89 145.41 694.79 152.42 C 679.94 154.65 665.00 156.10 650.08 157.76 C 655.32 148.61 658.12 136.20 669.00 132.03 M 675.31 132.22 C 670.51 132.92 669.61 140.02 673.81 142.24 C 678.41 145.23 683.87 138.44 680.89 134.22 C 679.65 132.43 677.33 131.96 675.31 132.22 Z" />
<path fill="#fbfdfd" stroke="#fbfdfd" stroke-width="0.09375" opacity="1.00" d=" M 707.23 131.51 C 720.99 131.22 734.76 131.33 748.52 131.57 C 747.37 134.85 746.42 138.19 745.37 141.51 C 737.26 139.86 729.23 137.47 720.96 136.84 C 718.79 137.10 719.00 139.65 718.31 141.18 C 725.94 145.57 735.40 144.02 743.78 146.07 C 743.30 154.15 744.46 162.27 748.15 169.55 C 743.33 173.53 737.79 176.93 734.11 182.07 C 732.01 184.36 734.35 189.17 737.52 187.51 C 742.80 183.95 747.11 179.11 752.18 175.23 C 761.49 185.04 775.85 188.73 788.95 186.21 C 791.51 193.26 792.77 200.70 795.18 207.78 C 795.79 211.46 803.08 210.46 801.57 206.46 C 799.86 198.64 797.38 190.99 796.22 183.05 C 802.38 179.22 807.43 173.94 811.49 167.96 C 817.81 171.46 824.14 174.96 830.44 178.51 C 833.46 180.23 835.47 177.26 836.74 174.93 C 830.12 168.91 820.52 166.97 814.17 160.86 C 816.87 150.95 815.25 140.37 810.03 131.56 C 823.55 131.35 837.07 131.42 850.60 131.66 C 856.02 147.69 852.97 165.56 845.39 180.38 C 830.96 213.55 788.76 228.38 755.39 217.58 C 736.69 211.65 720.84 197.52 713.02 179.51 C 716.24 178.59 719.63 178.13 722.68 176.69 C 725.74 175.52 725.53 169.97 722.02 169.65 C 717.62 168.93 713.82 171.76 709.89 173.21 C 705.44 159.93 703.60 145.22 707.23 131.51 M 832.46 142.56 C 827.31 144.01 826.14 151.43 830.55 154.45 C 834.37 158.20 841.30 154.91 841.51 149.80 C 842.05 145.12 836.85 141.21 832.46 142.56 M 763.26 195.27 C 758.91 196.60 757.77 202.97 761.02 205.97 C 763.88 209.23 769.66 208.39 771.59 204.52 C 774.86 199.63 768.37 193.07 763.26 195.27 Z" />
<path fill="#fbfdfd" stroke="#fbfdfd" stroke-width="0.09375" opacity="1.00" d=" M 114.50 138.10 C 117.68 134.73 121.82 132.51 126.30 131.43 C 129.23 134.61 131.66 138.21 133.47 142.14 C 128.30 142.97 123.24 144.42 118.04 145.09 C 116.84 142.77 115.59 140.47 114.50 138.10 Z" />
<path fill="#fbfdfd" stroke="#fbfdfd" stroke-width="0.09375" opacity="1.00" d=" M 164.25 131.66 C 167.83 131.49 171.41 131.31 175.00 131.39 C 185.56 138.66 189.72 151.05 194.20 162.44 C 190.27 163.28 186.29 163.86 182.27 164.07 C 176.47 153.16 170.88 142.11 164.25 131.66 Z" />
<path fill="#fbfdfd" stroke="#fbfdfd" stroke-width="0.09375" opacity="1.00" d=" M 193.37 131.67 C 196.18 131.52 199.00 131.46 201.82 131.52 C 202.37 134.16 202.85 136.81 203.08 139.50 C 201.60 140.22 200.13 140.94 198.65 141.65 C 196.86 138.33 195.26 134.93 193.37 131.67 Z" />
<path fill="#fbfdfd" stroke="#fbfdfd" stroke-width="0.09375" opacity="1.00" d=" M 211.00 131.54 C 221.33 131.36 231.66 131.50 241.98 131.56 C 242.69 134.14 243.44 136.71 243.98 139.34 C 239.33 142.56 233.66 146.50 228.03 143.11 C 220.15 146.60 211.35 139.74 211.00 131.54 Z" />
<path fill="#fbfdfd" stroke="#fbfdfd" stroke-width="0.09375" opacity="1.00" d=" M 256.08 131.56 C 261.41 131.54 266.73 131.56 272.06 131.45 C 273.88 136.59 275.62 141.77 276.97 147.07 C 272.17 149.48 267.08 151.18 261.99 152.85 C 259.31 145.97 257.66 138.76 256.08 131.56 Z" />
<path fill="#fbfdfd" stroke="#fbfdfd" stroke-width="0.09375" opacity="1.00" d=" M 763.27 132.20 C 773.66 131.02 784.46 131.59 794.99 131.66 C 805.58 137.92 808.04 153.34 801.37 163.36 C 794.77 175.61 777.14 180.51 765.60 172.36 C 751.82 163.87 750.48 142.16 763.27 132.20 M 773.32 144.26 C 764.24 148.09 771.42 162.96 780.02 158.03 C 788.44 153.79 781.97 139.91 773.32 144.26 Z" />
<path fill="#fbfdfd" stroke="#fbfdfd" stroke-width="0.09375" opacity="1.00" d=" M 863.13 132.58 C 865.62 134.75 869.00 136.70 869.85 140.09 C 868.67 146.12 865.29 151.47 862.90 157.08 C 864.29 148.94 863.41 140.75 863.13 132.58 Z" />
<path fill="#fbfdfd" stroke="#fbfdfd" stroke-width="0.09375" opacity="1.00" d=" M 290.02 144.00 C 299.68 140.59 309.32 137.04 319.00 133.74 C 322.10 134.73 324.73 136.96 326.38 139.76 C 316.03 145.66 304.72 149.60 293.62 153.82 C 292.31 150.59 290.99 147.35 290.02 144.00 Z" />
<path fill="#fbfdfd" stroke="#fbfdfd" stroke-width="0.09375" opacity="1.00" d=" M 201.83 149.60 C 204.30 148.76 207.33 145.64 209.73 148.22 C 213.21 151.65 217.58 153.70 222.34 154.64 C 224.15 157.25 224.89 160.39 225.85 163.37 C 220.47 165.11 215.10 166.90 209.66 168.42 C 206.27 162.51 203.87 156.08 201.83 149.60 Z" />
<path fill="#fbfdfd" stroke="#fbfdfd" stroke-width="0.09375" opacity="1.00" d=" M 237.16 154.57 C 241.12 153.08 245.08 151.43 248.29 148.59 C 250.02 154.70 254.95 160.46 253.31 167.07 C 260.64 178.27 265.18 191.08 271.18 203.02 C 265.59 205.79 259.72 207.94 253.81 209.93 C 249.72 199.27 245.39 188.64 242.38 177.61 C 241.14 174.43 243.65 171.78 244.93 169.11 C 240.84 165.23 238.59 159.93 237.16 154.57 Z" />
<path fill="#fbfdfd" stroke="#fbfdfd" stroke-width="0.09375" opacity="1.00" d=" M 319.94 154.23 C 323.82 152.74 327.68 151.16 331.37 149.22 C 335.83 156.33 339.20 164.03 343.30 171.33 C 335.95 181.18 327.29 189.98 319.67 199.63 C 311.12 188.15 303.17 175.96 297.75 162.67 C 304.11 160.33 310.67 158.47 316.76 155.46 C 310.62 159.92 311.85 170.41 318.96 173.06 C 325.40 176.16 334.01 169.96 332.35 162.81 C 331.67 156.88 325.79 152.81 319.94 154.23 Z" />
<path fill="#fbfdfd" stroke="#fbfdfd" stroke-width="0.09375" opacity="1.00" d=" M 122.68 154.42 C 127.76 153.08 132.97 152.26 138.18 151.62 C 140.73 156.03 143.54 160.33 145.15 165.20 C 140.08 165.68 135.12 167.07 130.04 167.35 C 126.83 163.53 124.75 158.92 122.68 154.42 Z" />
<path fill="#fbfdfd" stroke="#fbfdfd" stroke-width="0.09375" opacity="1.00" d=" M 152.50 154.34 C 156.74 155.44 162.98 152.77 165.51 157.44 C 168.50 161.86 170.89 166.67 172.85 171.63 C 169.06 171.68 165.27 171.77 161.49 171.70 C 158.46 165.92 155.81 159.96 152.50 154.34 Z" />
<path fill="#fbfdfd" stroke="#fbfdfd" stroke-width="0.09375" opacity="1.00" d=" M 265.09 161.58 C 270.33 159.36 275.70 157.44 280.87 155.03 C 284.95 163.87 289.50 172.48 293.98 181.12 C 289.02 185.07 283.23 187.72 277.40 190.10 C 272.80 180.83 268.07 171.53 265.09 161.58 Z" />
<path fill="#fbfdfd" stroke="#fbfdfd" stroke-width="0.09375" opacity="1.00" d=" M 645.78 168.56 C 662.50 166.75 679.15 164.29 695.89 162.61 C 698.77 176.40 704.98 189.18 713.05 200.67 C 703.04 211.78 691.48 221.64 682.90 233.97 C 679.54 238.50 687.40 244.39 690.66 239.64 C 700.35 229.16 710.10 218.71 720.26 208.66 C 733.09 221.00 750.09 228.47 767.59 231.08 C 767.70 244.75 767.23 258.43 767.91 272.09 C 767.65 275.12 770.67 276.36 772.80 277.69 C 774.91 276.33 778.25 275.19 777.76 272.02 C 777.47 258.61 777.68 245.19 777.65 231.77 C 795.64 230.97 814.25 226.81 828.81 215.69 C 820.40 231.53 811.66 247.21 802.86 262.84 C 799.79 261.50 794.90 261.16 793.67 265.07 C 792.62 267.89 795.10 269.84 797.28 271.01 C 793.69 278.69 789.42 286.05 785.14 293.36 C 741.48 299.42 697.61 276.93 671.31 242.70 C 656.99 223.58 646.14 201.43 642.44 177.69 C 642.28 174.35 644.55 171.53 645.78 168.56 M 680.39 177.31 C 676.83 178.83 676.21 184.33 679.78 186.24 C 683.10 189.31 688.18 184.80 687.44 180.99 C 686.44 178.23 683.25 176.39 680.39 177.31 M 663.37 186.39 C 659.04 188.32 658.12 195.19 662.08 197.96 C 664.96 200.34 670.12 200.83 672.11 197.06 C 676.55 191.77 669.32 183.59 663.37 186.39 M 688.20 198.98 C 685.31 200.65 684.49 205.52 687.68 207.33 C 690.51 209.77 694.83 207.28 695.34 203.93 C 696.27 200.21 691.20 197.42 688.20 198.98 M 739.45 230.50 C 734.08 233.85 739.73 242.46 744.81 238.89 C 749.92 235.70 744.48 226.86 739.45 230.50 M 709.44 239.51 C 705.41 241.49 705.51 247.62 709.29 249.82 C 713.52 252.88 719.65 248.15 718.73 243.32 C 717.74 239.58 712.77 237.54 709.44 239.51 M 792.36 242.39 C 789.01 242.87 786.96 247.82 789.80 250.18 C 792.11 252.72 796.48 251.69 797.72 248.56 C 799.81 245.28 795.60 241.67 792.36 242.39 M 727.37 249.38 C 718.78 251.44 722.32 265.42 730.97 263.30 C 739.45 261.15 736.49 246.57 727.37 249.38 M 746.47 255.36 C 741.79 258.20 743.75 265.79 748.98 266.45 C 752.84 267.32 755.90 263.55 756.20 260.03 C 755.68 255.72 750.13 252.57 746.47 255.36 Z" />
<path fill="#fbfdfd" stroke="#fbfdfd" stroke-width="0.09375" opacity="1.00" d=" M 185.82 172.45 C 189.68 171.76 193.57 171.26 197.45 170.68 C 199.87 175.95 202.07 181.33 203.75 186.90 C 199.70 186.97 195.65 187.15 191.61 187.49 C 189.36 182.60 187.74 177.46 185.82 172.45 Z" />
<path fill="#fbfdfd" stroke="#fbfdfd" stroke-width="0.09375" opacity="1.00" d=" M 212.76 176.57 C 218.10 175.58 223.22 173.75 228.35 171.99 C 230.49 178.05 232.70 184.10 234.47 190.29 C 229.32 192.31 224.36 194.76 219.16 196.65 C 217.06 189.94 214.26 183.44 212.76 176.57 Z" />
<path fill="#fbfdfd" stroke="#fbfdfd" stroke-width="0.09375" opacity="1.00" d=" M 133.98 176.78 C 139.24 175.76 144.51 174.72 149.84 174.16 C 153.18 181.33 154.69 189.15 155.84 196.92 C 152.27 196.66 148.70 196.34 145.15 195.87 C 141.15 189.67 138.06 182.93 133.98 176.78 Z" />
<path fill="#fbfdfd" stroke="#fbfdfd" stroke-width="0.09375" opacity="1.00" d=" M 163.71 180.33 C 167.71 180.33 171.70 180.42 175.70 180.57 C 179.89 188.44 182.00 197.22 184.26 205.79 C 179.03 205.40 173.80 204.98 168.56 204.76 C 167.52 196.51 165.86 188.36 163.71 180.33 Z" />
<path fill="#fbfdfd" stroke="#fbfdfd" stroke-width="0.09375" opacity="1.00" d=" M 348.31 183.78 C 352.63 192.18 357.48 200.33 361.00 209.11 C 340.57 242.33 312.68 270.18 285.56 297.95 C 281.01 282.39 286.73 265.97 294.46 252.42 C 309.15 227.18 329.29 205.74 348.31 183.78 Z" />
<path fill="#fbfdfd" stroke="#fbfdfd" stroke-width="0.09375" opacity="1.00" d=" M 281.42 197.25 C 287.40 195.04 293.15 192.30 298.88 189.52 C 303.24 195.97 307.95 202.18 312.03 208.81 C 307.47 214.36 302.19 219.22 296.86 224.01 C 290.76 215.69 285.50 206.72 281.42 197.25 Z" />
<path fill="#fbfdfd" stroke="#fbfdfd" stroke-width="0.09375" opacity="1.00" d=" M 633.93 192.57 C 646.63 234.19 674.63 272.41 714.33 291.67 C 724.58 296.74 735.61 300.12 746.70 302.82 C 746.11 307.55 745.56 312.29 744.56 316.96 C 689.16 307.37 642.39 263.69 625.40 210.63 C 626.44 204.12 631.23 198.58 633.93 192.57 Z" />
<path fill="#fbfdfd" stroke="#fbfdfd" stroke-width="0.09375" opacity="1.00" d=" M 193.98 195.82 C 197.99 195.82 202.00 195.92 206.00 196.17 C 210.06 204.71 212.97 213.84 214.73 223.13 C 209.73 222.74 204.33 223.35 199.65 221.47 C 197.81 212.92 195.77 204.39 193.98 195.82 Z" />
<path fill="#fbfdfd" stroke="#fbfdfd" stroke-width="0.09375" opacity="1.00" d=" M 221.68 204.57 C 226.96 203.11 232.15 201.33 237.28 199.40 C 239.95 205.45 242.81 211.51 244.23 218.02 C 238.62 220.32 232.81 222.06 226.90 223.40 C 225.46 217.04 223.37 210.86 221.68 204.57 Z" />
<path fill="#fbfdfd" stroke="#fbfdfd" stroke-width="0.09375" opacity="1.00" d=" M 150.66 206.52 C 158.79 204.49 158.00 213.77 157.63 219.10 C 155.43 214.83 153.16 210.61 150.66 206.52 Z" />
<path fill="#fbfdfd" stroke="#fbfdfd" stroke-width="0.09375" opacity="1.00" d=" M 258.16 218.34 C 263.50 215.91 269.07 213.99 274.35 211.40 C 278.71 218.59 283.37 225.65 286.97 233.27 C 280.97 237.45 274.43 240.75 267.80 243.78 C 265.00 235.14 260.64 227.09 258.16 218.34 Z" />
<path fill="#fbfdfd" stroke="#fbfdfd" stroke-width="0.09375" opacity="1.00" d=" M 169.43 213.66 C 174.89 213.83 180.40 214.04 185.73 215.29 C 188.17 217.35 188.10 221.14 188.79 224.09 C 182.61 224.20 176.46 224.96 170.28 225.21 C 169.79 221.38 169.52 217.52 169.43 213.66 Z" />
<path fill="#fbfdfd" stroke="#fbfdfd" stroke-width="0.09375" opacity="1.00" d=" M 351.31 247.10 C 357.01 238.80 362.33 230.23 367.83 221.79 C 373.46 232.87 379.48 243.75 384.99 254.89 C 380.31 251.86 375.64 248.73 370.57 246.40 C 366.95 244.47 362.16 250.40 365.80 253.13 C 373.50 260.68 384.07 264.66 391.57 272.47 C 395.65 277.25 398.08 283.16 400.53 288.87 C 386.77 294.12 374.01 301.52 361.28 308.84 C 359.00 307.18 356.44 306.00 353.86 304.91 C 353.02 285.65 351.55 266.37 351.31 247.10 M 365.41 271.34 C 359.63 274.11 361.17 283.36 367.15 284.80 C 372.54 287.25 378.82 280.68 376.51 275.39 C 374.99 271.10 369.32 269.16 365.41 271.34 Z" />
<path fill="#fbfdfd" stroke="#fbfdfd" stroke-width="0.09375" opacity="1.00" d=" M 229.06 232.71 C 235.56 231.09 242.04 229.30 248.31 226.93 C 251.75 233.72 254.76 240.76 257.09 248.01 C 249.81 250.63 242.32 252.69 234.68 253.94 C 232.95 246.83 230.73 239.84 229.06 232.71 Z" />
<path fill="#fbfdfd" stroke="#fbfdfd" stroke-width="0.09375" opacity="1.00" d=" M 201.76 231.21 C 206.83 231.12 211.90 231.52 216.93 232.14 C 220.06 241.35 222.33 250.83 224.40 260.33 C 218.00 259.72 211.66 258.69 205.30 257.74 C 204.44 248.86 202.88 240.06 201.76 231.21 Z" />
<path fill="#fbfdfd" stroke="#fbfdfd" stroke-width="0.09375" opacity="1.00" d=" M 170.76 233.63 C 177.36 233.35 183.98 233.46 190.57 233.98 C 192.02 241.19 193.11 248.48 193.65 255.82 C 188.44 255.41 183.24 254.88 178.05 254.26 C 174.66 247.76 168.96 241.57 170.76 233.63 Z" />
<path fill="#fbfdfd" stroke="#fbfdfd" stroke-width="0.09375" opacity="1.00" d=" M 605.47 250.01 C 607.93 244.96 610.39 239.92 613.02 234.97 C 619.05 248.43 627.45 260.56 635.14 273.07 C 633.06 275.73 630.99 278.42 629.06 281.20 C 621.04 270.93 612.64 260.90 605.47 250.01 Z" />
<path fill="#fbfdfd" stroke="#fbfdfd" stroke-width="0.09375" opacity="1.00" d=" M 271.69 255.20 C 275.15 252.96 278.83 251.06 282.56 249.30 C 279.71 256.03 277.36 262.95 275.26 269.95 C 273.92 265.07 272.61 260.18 271.69 255.20 Z" />
<path fill="#fbfdfd" stroke="#fbfdfd" stroke-width="0.09375" opacity="1.00" d=" M 301.34 298.26 C 314.54 284.25 328.24 270.68 340.58 255.88 C 341.68 271.71 342.52 287.58 342.96 303.44 C 329.18 301.11 315.32 298.86 301.34 298.26 Z" />
<path fill="#fbfdfd" stroke="#fbfdfd" stroke-width="0.09375" opacity="1.00" d=" M 241.78 264.17 C 247.81 262.55 253.63 260.23 259.65 258.56 C 260.69 263.17 261.97 267.76 262.10 272.52 C 255.43 269.46 248.52 267.03 241.78 264.17 Z" />
<path fill="#fbfdfd" stroke="#fbfdfd" stroke-width="0.09375" opacity="1.00" d=" M 593.15 276.73 C 595.20 271.77 597.42 266.86 599.91 262.09 C 609.50 273.12 617.78 285.24 625.54 297.60 C 620.12 298.27 614.79 299.55 609.74 301.64 C 604.69 293.03 598.98 284.83 593.15 276.73 Z" />
<path fill="#fbfdfd" stroke="#fbfdfd" stroke-width="0.09375" opacity="1.00" d=" M 185.31 267.34 C 201.96 267.32 218.47 270.52 234.58 274.49 C 247.88 278.58 262.12 282.74 272.21 292.84 C 275.72 295.94 276.93 303.99 271.15 305.15 C 264.98 306.62 258.55 305.70 252.39 304.64 C 236.09 302.33 219.94 298.95 203.53 297.41 C 201.51 297.49 200.87 295.39 200.03 293.97 C 195.40 284.94 189.75 276.47 185.31 267.34 Z" />
<path fill="#fbfdfd" stroke="#fbfdfd" stroke-width="0.09375" opacity="1.00" d=" M 635.04 291.93 C 637.55 288.22 640.65 284.97 643.29 281.36 C 650.33 290.12 658.80 297.47 667.33 304.73 C 665.23 307.40 663.18 310.12 661.17 312.85 C 656.22 310.37 650.63 310.03 645.19 310.16 C 642.05 303.95 638.35 298.05 635.04 291.93 Z" />
<path fill="#fbfdfd" stroke="#fbfdfd" stroke-width="0.09375" opacity="1.00" d=" M 581.31 301.33 C 583.40 296.45 585.85 291.74 588.26 287.02 C 592.65 293.06 597.31 299.00 600.49 305.81 C 595.28 308.83 589.81 311.61 585.58 315.99 C 584.04 311.18 578.09 306.59 581.31 301.33 Z" />
<path fill="#fbfdfd" stroke="#fbfdfd" stroke-width="0.09375" opacity="1.00" d=" M 372.59 314.76 C 382.96 308.39 393.83 302.62 405.41 298.80 C 408.68 305.06 412.30 311.15 415.14 317.62 C 412.54 318.83 409.93 319.99 407.23 320.94 C 403.48 316.91 396.61 316.63 393.28 321.31 C 389.49 326.57 395.44 334.55 401.55 332.49 C 407.11 330.26 412.95 328.88 418.66 327.11 C 420.42 330.31 421.97 333.63 423.23 337.06 C 411.15 340.92 400.48 348.00 390.69 355.92 C 391.16 340.54 385.55 323.92 372.59 314.76 Z" />
<path fill="#fbfdfd" stroke="#fbfdfd" stroke-width="0.09375" opacity="1.00" d=" M 756.45 304.66 C 763.84 304.77 771.23 305.59 778.61 304.80 C 775.67 310.05 773.53 315.93 769.35 320.37 C 764.51 320.39 759.74 319.28 755.01 318.38 C 755.37 313.79 756.12 309.25 756.45 304.66 Z" />
<path fill="#fbfdfd" stroke="#fbfdfd" stroke-width="0.09375" opacity="1.00" d=" M 612.39 310.75 C 619.63 306.65 630.10 306.13 635.25 313.74 C 639.66 321.45 643.31 330.07 643.94 339.01 C 644.03 348.45 634.54 353.02 626.98 355.87 C 625.80 352.36 624.68 348.84 623.55 345.32 C 627.73 342.35 631.53 337.69 630.52 332.22 C 629.61 325.12 622.21 320.77 615.41 321.83 C 614.30 318.16 613.23 314.49 612.39 310.75 Z" />
<path fill="#fbfdfd" stroke="#fbfdfd" stroke-width="0.09375" opacity="1.00" d=" M 287.55 311.47 C 297.78 306.93 309.25 308.60 319.96 310.11 C 333.43 312.29 347.34 313.55 359.96 319.13 C 375.91 326.23 384.54 346.90 377.31 363.02 C 372.89 363.02 367.99 366.73 369.45 371.54 C 371.56 376.12 377.91 375.98 380.76 372.19 C 386.86 390.82 383.30 412.98 368.88 426.88 C 356.36 439.34 338.20 443.55 321.31 446.21 C 309.83 447.57 295.61 448.27 287.25 438.72 C 280.92 430.64 276.26 421.32 269.31 413.68 C 258.87 404.32 254.63 390.46 247.14 378.94 C 243.50 374.22 244.82 368.04 245.62 362.61 C 248.27 350.70 255.79 340.67 263.43 331.46 C 270.26 323.54 277.55 315.34 287.55 311.47 M 287.34 321.27 C 283.72 322.96 282.55 328.50 285.87 331.08 C 289.81 334.57 296.51 330.05 295.77 325.19 C 295.20 321.51 290.45 319.81 287.34 321.27 M 327.47 324.49 C 324.01 325.57 321.92 330.56 324.53 333.44 C 327.27 337.27 334.53 336.51 335.58 331.59 C 337.15 326.91 331.60 323.35 327.47 324.49 M 282.20 355.92 C 281.84 359.15 282.70 362.51 281.85 365.67 C 277.16 369.44 272.21 373.69 270.97 379.91 C 268.11 389.98 274.73 400.78 284.39 404.11 C 280.51 406.74 278.72 413.97 284.30 415.68 C 289.49 417.47 292.64 412.16 292.00 407.63 C 291.59 407.30 290.77 406.65 290.35 406.32 C 294.07 406.77 298.34 406.08 301.54 408.40 C 304.96 412.03 308.07 416.30 312.93 418.10 C 323.61 423.09 336.92 417.26 341.90 406.94 C 345.26 400.85 344.80 393.73 346.09 387.12 C 348.56 382.48 353.41 379.54 355.69 374.71 C 361.05 365.51 358.77 352.29 350.01 346.00 C 341.27 340.18 328.99 340.31 320.23 346.01 C 316.86 340.84 312.73 335.03 305.99 334.48 C 293.89 333.39 283.34 344.34 282.20 355.92 M 258.37 355.37 C 251.06 358.79 258.22 370.68 264.41 365.47 C 270.76 361.64 264.68 351.80 258.37 355.37 M 360.29 395.26 C 353.09 397.95 358.36 409.80 365.01 406.08 C 371.52 402.91 367.01 392.54 360.29 395.26 M 342.38 421.41 C 335.23 423.32 338.44 434.69 345.60 432.47 C 353.24 430.77 349.71 418.79 342.38 421.41 M 304.21 431.11 C 300.31 432.94 300.24 438.88 303.98 440.94 C 307.42 444.13 313.15 440.39 312.79 436.10 C 312.75 432.00 307.72 429.37 304.21 431.11 Z" />
<path fill="#fbfdfd" stroke="#fbfdfd" stroke-width="0.09375" opacity="1.00" d=" M 676.53 311.63 C 685.79 317.07 694.75 323.25 704.93 326.94 C 701.82 332.43 697.32 336.93 694.00 342.28 C 685.28 335.62 676.92 328.52 669.11 320.81 C 671.87 318.00 674.25 314.84 676.53 311.63 Z" />
<path fill="#fbfdfd" stroke="#fbfdfd" stroke-width="0.09375" opacity="1.00" d=" M 209.94 312.38 C 227.24 312.41 244.44 314.31 261.52 316.89 C 250.58 329.40 240.06 342.80 235.03 358.92 C 227.56 342.98 218.46 327.80 209.94 312.38 M 230.28 321.23 C 226.53 322.79 225.02 328.02 227.94 331.06 C 230.68 334.33 236.40 334.42 238.55 330.43 C 242.19 325.54 235.43 318.67 230.28 321.23 Z" />
<path fill="#fbfdfd" stroke="#fbfdfd" stroke-width="0.09375" opacity="1.00" d=" M 590.26 328.97 C 590.68 321.05 598.79 316.54 605.28 313.73 C 606.61 317.53 607.95 321.33 609.33 325.12 C 598.80 331.20 604.90 348.72 616.75 347.33 C 617.81 350.92 618.85 354.57 618.80 358.35 C 611.16 361.52 598.51 360.14 596.45 350.60 C 594.63 343.32 591.61 336.35 590.26 328.97 Z" />
<path fill="#fbfdfd" stroke="#fbfdfd" stroke-width="0.09375" opacity="1.00" d=" M 567.39 330.81 C 568.47 325.50 571.89 320.76 573.95 315.71 C 591.71 357.93 598.75 404.32 597.23 449.99 C 596.21 480.41 596.60 510.88 595.24 541.29 C 593.80 555.75 593.53 570.64 588.52 584.45 C 583.75 579.35 579.32 572.46 582.20 565.31 C 585.95 520.18 581.24 474.73 573.69 430.20 C 568.97 405.10 564.41 379.79 555.52 355.77 C 556.00 350.95 559.14 346.79 560.96 342.37 C 572.73 372.15 576.43 404.28 581.48 435.69 C 582.66 440.43 590.31 437.82 589.06 433.11 C 585.68 398.37 578.98 363.79 567.39 330.81 Z" />
<path fill="#fbfdfd" stroke="#fbfdfd" stroke-width="0.09375" opacity="1.00" d=" M 649.90 321.05 C 653.84 322.96 657.77 325.02 660.94 328.09 C 671.05 337.72 681.94 346.48 692.83 355.20 C 707.66 367.06 716.31 384.89 721.31 402.85 C 722.47 405.83 720.40 408.60 719.22 411.20 C 712.65 423.15 706.55 435.39 699.56 447.10 C 701.53 437.45 701.66 427.54 699.07 417.98 C 697.42 413.37 700.55 409.43 702.64 405.64 C 707.04 398.01 707.48 387.88 702.69 380.31 C 697.79 371.88 688.57 367.39 679.91 363.79 C 677.66 362.52 675.01 363.89 674.35 366.24 C 676.55 382.85 679.71 400.04 675.63 416.63 C 673.79 423.60 672.10 430.85 673.23 438.08 C 673.66 441.67 674.93 445.54 672.89 448.89 C 668.00 459.15 663.98 470.48 665.94 482.01 C 666.43 487.27 669.26 491.85 670.78 496.80 C 667.26 505.35 662.47 513.37 658.11 521.53 C 654.34 506.36 652.34 490.67 652.86 475.03 C 653.85 461.23 657.07 447.73 658.88 434.04 C 664.11 396.30 660.89 357.52 649.90 321.05 Z" />
<path fill="#fbfdfd" stroke="#fbfdfd" stroke-width="0.09375" opacity="1.00" d=" M 617.22 330.43 C 619.68 330.12 621.64 332.62 621.28 334.98 C 621.39 338.77 614.65 340.30 613.59 336.33 C 612.46 333.72 614.64 330.92 617.22 330.43 Z" />
<path fill="#fbfdfd" stroke="#fbfdfd" stroke-width="0.09375" opacity="1.00" d=" M 715.83 331.27 C 724.86 334.41 734.28 336.17 743.64 338.03 C 743.56 347.13 751.28 356.77 745.16 365.07 C 740.00 374.38 735.03 383.79 729.82 393.06 C 724.21 376.09 714.00 361.30 702.39 347.90 C 706.93 342.41 711.66 337.06 715.83 331.27 M 726.30 342.31 C 717.94 345.27 721.95 358.86 730.61 356.55 C 739.86 354.36 735.35 338.58 726.30 342.31 Z" />
<path fill="#fbfdfd" stroke="#fbfdfd" stroke-width="0.09375" opacity="1.00" d=" M 754.86 338.64 C 756.82 338.70 758.78 338.76 760.76 338.83 C 759.45 341.54 758.09 344.22 756.65 346.87 C 755.92 344.15 755.34 341.40 754.86 338.64 Z" />
<path fill="#fbfdfd" stroke="#fbfdfd" stroke-width="0.09375" opacity="1.00" d=" M 300.34 346.38 C 308.89 342.59 311.98 353.13 315.51 358.49 C 319.45 362.66 323.61 357.06 326.74 354.75 C 334.22 349.14 348.38 353.63 347.91 364.02 C 347.81 372.97 336.86 376.10 335.66 384.59 C 334.23 391.50 334.86 399.33 330.13 405.13 C 326.93 409.72 320.20 409.77 315.57 407.54 C 311.25 405.62 309.45 400.86 305.76 398.18 C 299.14 394.34 290.05 397.56 284.28 391.74 C 279.94 388.31 279.94 380.73 284.73 377.73 C 288.23 375.27 295.46 374.04 293.69 368.25 C 291.51 360.51 291.51 349.84 300.34 346.38 M 313.36 377.36 C 309.89 378.38 308.38 384.13 312.00 385.97 C 315.21 388.75 320.79 385.16 319.86 381.16 C 319.31 378.24 316.08 376.75 313.36 377.36 Z" />
<path fill="#fbfdfd" stroke="#fbfdfd" stroke-width="0.09375" opacity="1.00" d=" M 391.61 371.13 C 400.73 359.40 413.97 351.12 428.09 346.79 C 430.41 351.22 432.63 355.70 434.64 360.29 C 427.05 363.20 419.38 366.68 413.77 372.76 C 402.78 384.18 397.74 399.68 393.51 414.60 C 387.19 434.72 383.70 455.64 381.97 476.63 C 376.58 476.52 371.19 476.56 365.80 476.63 C 366.30 465.60 368.38 454.72 369.59 443.76 C 369.72 439.18 374.91 437.62 377.36 434.36 C 393.89 418.22 397.74 392.76 391.61 371.13 Z" />
<path fill="#fbfdfd" stroke="#fbfdfd" stroke-width="0.09375" opacity="1.00" d=" M 628.53 364.15 C 635.03 362.28 640.96 358.86 646.31 354.77 C 647.86 361.21 648.85 367.76 649.35 374.36 C 644.07 377.88 637.64 379.37 631.39 378.07 C 630.32 373.45 629.44 368.79 628.53 364.15 Z" />
<path fill="#fbfdfd" stroke="#fbfdfd" stroke-width="0.09375" opacity="1.00" d=" M 543.90 389.14 C 539.80 381.30 547.20 374.08 549.66 366.89 C 553.13 375.79 555.25 385.13 557.59 394.37 C 566.37 434.20 572.33 474.72 574.26 515.48 C 574.60 531.30 575.39 547.28 573.07 562.99 C 569.05 557.28 560.12 552.78 562.69 544.69 C 566.09 509.42 561.87 473.85 555.87 439.08 C 552.58 422.28 549.51 405.36 543.90 389.14 Z" />
<path fill="#fbfdfd" stroke="#fbfdfd" stroke-width="0.09375" opacity="1.00" d=" M 601.13 368.62 C 607.23 370.20 613.67 369.75 619.70 368.09 C 623.02 386.46 625.03 405.27 622.83 423.91 C 622.04 439.00 620.55 454.04 619.68 469.13 C 618.31 479.95 621.02 490.93 619.80 501.70 C 616.37 505.47 610.37 503.52 606.47 501.38 C 605.09 494.65 606.29 487.56 606.28 480.70 C 611.03 480.06 615.63 477.33 618.13 473.24 C 615.36 469.44 610.80 467.75 606.58 466.11 C 606.01 458.76 606.24 451.34 607.16 444.03 C 613.16 442.64 616.21 435.25 614.12 429.72 C 612.95 426.25 609.91 424.01 607.73 421.23 C 606.57 417.42 606.84 412.77 610.12 410.06 C 617.66 402.39 615.33 387.66 604.67 384.11 C 603.07 379.04 602.65 373.70 601.13 368.62 Z" />
<path fill="#fbfdfd" stroke="#fbfdfd" stroke-width="0.09375" opacity="1.00" d=" M 408.77 401.84 C 413.93 387.76 423.79 373.25 439.45 370.14 C 442.36 374.94 444.68 380.07 446.74 385.29 C 430.92 392.54 422.33 409.00 418.11 425.10 C 412.92 442.61 410.48 460.77 408.77 478.91 C 403.25 478.49 397.75 477.84 392.21 477.73 C 394.01 451.81 399.43 426.10 408.77 401.84 Z" />
<path fill="#fbfdfd" stroke="#fbfdfd" stroke-width="0.09375" opacity="1.00" d=" M 686.07 379.85 C 695.61 380.55 696.70 392.77 690.33 398.23 C 688.50 392.22 686.35 386.19 686.07 379.85 Z" />
<path fill="#fbfdfd" stroke="#fbfdfd" stroke-width="0.09375" opacity="1.00" d=" M 632.19 386.85 C 638.23 386.07 644.35 385.75 650.42 386.46 C 650.36 393.18 651.72 400.36 649.82 406.82 C 644.79 409.06 638.66 407.76 633.23 407.49 C 632.69 400.62 632.42 393.73 632.19 386.85 Z" />
<path fill="#fbfdfd" stroke="#fbfdfd" stroke-width="0.09375" opacity="1.00" d=" M 427.36 430.37 C 430.92 416.43 437.78 402.04 451.12 395.11 C 453.94 400.07 456.29 405.28 458.76 410.43 C 438.05 428.23 436.91 457.77 434.53 482.97 C 429.32 482.32 424.21 481.10 419.06 480.18 C 419.60 463.30 422.65 446.57 427.36 430.37 Z" />
<path fill="#fbfdfd" stroke="#fbfdfd" stroke-width="0.09375" opacity="1.00" d=" M 528.32 412.41 C 530.86 406.65 533.45 400.91 536.34 395.32 C 538.33 400.98 540.09 406.72 541.45 412.58 C 548.94 445.89 554.32 479.82 555.28 514.00 C 555.20 522.86 555.61 531.85 553.56 540.55 C 549.61 537.89 546.17 534.58 542.33 531.78 C 545.38 496.30 540.35 460.38 530.79 426.20 C 530.06 421.61 525.85 417.04 528.32 412.41 Z" />
<path fill="#fbfdfd" stroke="#fbfdfd" stroke-width="0.09375" opacity="1.00" d=" M 632.45 417.25 C 638.22 417.16 643.95 417.92 649.67 418.65 C 649.56 424.07 649.84 429.73 647.90 434.88 C 644.11 439.53 637.21 438.74 631.96 437.73 C 630.89 430.93 632.23 424.07 632.45 417.25 Z" />
<path fill="#fbfdfd" stroke="#fbfdfd" stroke-width="0.09375" opacity="1.00" d=" M 450.33 444.35 C 452.71 435.70 456.86 427.39 463.50 421.20 C 466.11 426.37 469.26 431.41 470.77 437.04 C 469.34 441.24 466.44 444.78 464.93 448.97 C 459.84 461.92 461.37 476.06 459.94 489.61 C 454.87 488.10 449.73 486.89 444.56 485.78 C 444.94 471.82 446.62 457.84 450.33 444.35 Z" />
<path fill="#fbfdfd" stroke="#fbfdfd" stroke-width="0.09375" opacity="1.00" d=" M 687.21 439.96 C 682.58 435.48 681.89 427.34 686.88 422.86 C 692.07 427.29 691.35 435.09 687.21 439.96 Z" />
<path fill="#fbfdfd" stroke="#fbfdfd" stroke-width="0.09375" opacity="1.00" d=" M 513.63 441.04 C 515.90 436.30 518.22 431.57 520.92 427.06 C 526.83 442.05 528.87 458.21 531.36 474.03 C 533.45 490.29 535.64 506.88 533.03 523.20 C 529.06 520.89 524.07 518.94 521.64 515.00 C 522.60 490.15 520.25 465.05 513.63 441.04 Z" />
<path fill="#fbfdfd" stroke="#fbfdfd" stroke-width="0.09375" opacity="1.00" d=" M 339.93 453.73 C 345.97 450.69 352.97 449.63 359.06 446.50 C 357.60 456.70 356.25 466.92 354.66 477.10 C 348.56 477.81 342.49 478.73 336.42 479.71 C 337.25 471.01 338.44 462.33 339.93 453.73 Z" />
<path fill="#fbfdfd" stroke="#fbfdfd" stroke-width="0.09375" opacity="1.00" d=" M 630.39 446.56 C 635.83 446.60 641.28 446.53 646.72 446.36 C 641.58 473.84 641.85 502.53 649.50 529.53 C 650.02 531.48 650.78 533.68 649.49 535.51 C 645.53 542.73 641.82 550.08 637.84 557.30 C 629.72 521.05 625.93 483.58 630.39 446.56 Z" />
<path fill="#fbfdfd" stroke="#fbfdfd" stroke-width="0.09375" opacity="1.00" d=" M 477.15 447.27 C 479.28 450.91 482.29 453.87 485.07 456.99 C 485.61 470.87 486.00 484.81 485.04 498.68 C 480.19 496.38 475.19 494.47 470.12 492.75 C 470.36 477.43 469.45 461.13 477.15 447.27 Z" />
<path fill="#fbfdfd" stroke="#fbfdfd" stroke-width="0.09375" opacity="1.00" d=" M 495.17 457.80 C 499.64 457.10 503.36 454.43 506.25 451.07 C 511.38 470.59 513.33 491.12 511.83 511.26 C 506.29 508.25 500.79 505.17 495.05 502.53 C 495.62 487.63 495.61 472.71 495.17 457.80 Z" />
<path fill="#fbfdfd" stroke="#fbfdfd" stroke-width="0.09375" opacity="1.00" d=" M 287.63 452.97 C 291.86 454.43 296.12 455.82 300.47 456.87 C 299.83 461.31 298.75 465.68 297.83 470.07 C 294.22 464.50 290.92 458.73 287.63 452.97 Z" />
<path fill="#fbfdfd" stroke="#fbfdfd" stroke-width="0.09375" opacity="1.00" d=" M 310.80 457.91 C 316.88 456.98 323.07 456.81 329.11 455.55 C 327.85 464.47 326.38 473.36 325.69 482.34 C 319.73 483.94 313.79 485.61 307.78 486.98 C 307.60 477.20 309.00 467.49 310.80 457.91 Z" />
<path fill="#fbfdfd" stroke="#fbfdfd" stroke-width="0.09375" opacity="1.00" d=" M 677.89 482.95 C 674.27 476.82 674.26 468.49 679.12 463.01 C 687.54 467.77 681.44 477.10 677.89 482.95 Z" />
<path fill="#fbfdfd" stroke="#fbfdfd" stroke-width="0.09375" opacity="1.00" d=" M 372.92 487.78 C 374.56 487.70 376.21 487.64 377.86 487.63 C 383.31 502.14 389.35 516.54 392.94 531.66 C 372.10 529.28 351.11 527.39 330.12 528.75 C 324.59 518.03 317.59 508.12 312.88 496.97 C 324.27 493.10 336.10 490.56 348.04 489.12 C 346.35 495.51 345.12 503.01 349.24 508.77 C 354.86 516.83 368.72 515.99 373.41 507.39 C 377.16 501.34 374.75 494.04 372.92 487.78 M 327.45 501.50 C 323.94 503.92 323.54 510.26 327.59 512.36 C 331.14 514.75 336.80 512.42 337.07 507.97 C 338.32 502.95 331.51 498.70 327.45 501.50 Z" />
<path fill="#fbfdfd" stroke="#fbfdfd" stroke-width="0.09375" opacity="1.00" d=" M 395.08 488.68 C 407.58 488.82 419.97 491.03 432.19 493.55 C 429.29 498.69 426.22 503.83 422.10 508.11 C 418.20 512.42 410.76 512.39 406.69 508.35 C 401.02 503.02 398.43 495.49 395.08 488.68 Z" />
<path fill="#fbfdfd" stroke="#fbfdfd" stroke-width="0.09375" opacity="1.00" d=" M 443.01 496.19 C 453.48 498.66 464.01 501.34 473.71 506.10 C 474.43 521.78 474.79 537.49 474.34 553.19 C 454.27 545.96 434.05 538.81 413.00 534.97 C 410.20 534.17 407.00 534.31 404.51 532.69 C 403.66 529.65 403.23 526.52 402.31 523.51 C 410.57 530.05 423.14 528.88 430.44 521.43 C 436.99 514.51 440.89 505.40 443.01 496.19 M 450.37 510.37 C 443.21 513.54 444.64 525.24 452.09 527.06 C 458.41 529.27 465.08 522.32 463.10 516.10 C 461.74 510.82 455.22 508.08 450.37 510.37 Z" />
<path fill="#fbfdfd" stroke="#fbfdfd" stroke-width="0.09375" opacity="1.00" d=" M 606.34 514.22 C 611.14 512.77 615.91 510.92 621.03 511.06 C 621.56 518.40 623.16 525.67 623.39 533.02 C 620.04 538.47 609.34 536.92 607.19 530.71 C 605.38 525.42 606.37 519.70 606.34 514.22 Z" />
<path fill="#fbfdfd" stroke="#fbfdfd" stroke-width="0.09375" opacity="1.00" d=" M 489.27 511.96 C 500.02 516.44 509.97 522.58 519.92 528.58 C 511.97 529.71 504.11 531.43 496.34 533.46 C 493.90 526.32 491.95 519.01 489.27 511.96 Z" />
<path fill="#fbfdfd" stroke="#fbfdfd" stroke-width="0.09375" opacity="1.00" d=" M 525.40 533.30 C 526.75 534.31 528.11 535.31 529.47 536.34 C 528.07 536.43 526.68 536.52 525.30 536.62 C 525.33 535.51 525.36 534.40 525.40 533.30 Z" />
<path fill="#fbfdfd" stroke="#fbfdfd" stroke-width="0.09375" opacity="1.00" d=" M 336.81 538.92 C 420.13 536.21 505.73 566.36 564.11 626.90 C 568.45 631.92 574.04 636.03 576.88 642.20 C 573.99 644.91 571.14 647.68 568.22 650.36 C 565.89 648.15 563.72 645.79 561.74 643.27 C 531.12 607.20 489.80 580.98 445.11 565.98 C 412.31 555.56 377.81 548.82 343.27 550.94 C 340.71 547.17 338.64 543.09 336.81 538.92 Z" />
<path fill="#fbfdfd" stroke="#fbfdfd" stroke-width="0.09375" opacity="1.00" d=" M 609.41 545.85 C 614.65 545.52 619.78 544.38 624.94 543.45 C 626.87 551.75 628.51 560.16 631.63 568.14 C 629.05 573.58 626.07 578.82 623.20 584.11 C 614.78 573.12 611.55 559.26 609.41 545.85 Z" />
<path fill="#fbfdfd" stroke="#fbfdfd" stroke-width="0.09375" opacity="1.00" d=" M 484.41 556.02 C 501.29 545.75 521.80 545.42 540.88 547.24 C 542.56 547.55 543.73 548.93 544.94 550.04 C 554.89 560.50 566.06 570.30 572.69 583.35 C 572.22 594.09 568.79 604.51 567.19 615.14 C 543.71 592.32 516.67 572.96 486.99 559.05 C 485.70 558.40 484.30 557.67 484.41 556.02 M 522.39 555.34 C 518.37 557.84 518.68 565.02 523.16 566.95 C 528.09 569.60 534.21 562.55 530.94 558.01 C 529.37 555.05 525.35 553.57 522.39 555.34 M 552.37 570.36 C 546.79 571.56 545.42 579.76 550.19 582.82 C 554.06 586.24 560.79 582.99 560.91 577.95 C 561.61 573.35 556.90 568.98 552.37 570.36 Z" />
<path fill="#fbfdfd" stroke="#fbfdfd" stroke-width="0.09375" opacity="1.00" d=" M 348.59 561.17 C 355.03 560.53 361.50 560.74 367.96 560.88 C 368.52 568.54 368.48 576.22 368.67 583.89 C 366.15 583.90 363.64 583.88 361.13 583.84 C 356.93 576.29 352.75 568.74 348.59 561.17 Z" />
<path fill="#fbfdfd" stroke="#fbfdfd" stroke-width="0.09375" opacity="1.00" d=" M 378.78 562.20 C 395.47 562.99 411.78 567.20 427.88 571.37 C 426.40 578.58 424.41 585.67 422.92 592.88 C 408.43 589.27 393.79 586.29 378.96 584.45 C 378.95 577.03 378.85 569.61 378.78 562.20 Z" />
<path fill="#fbfdfd" stroke="#fbfdfd" stroke-width="0.09375" opacity="1.00" d=" M 437.99 574.98 C 447.32 576.62 455.89 580.87 464.57 584.49 C 479.39 591.36 494.15 598.73 507.34 608.47 C 502.91 614.84 497.88 620.76 493.21 626.94 C 474.59 613.85 454.22 603.29 432.58 596.19 C 433.65 588.94 436.39 582.10 437.99 574.98 Z" />
<path fill="#fbfdfd" stroke="#fbfdfd" stroke-width="0.09375" opacity="1.00" d=" M 602.69 574.51 C 606.14 581.18 608.47 588.37 612.01 595.01 C 617.06 602.19 609.22 609.23 605.85 615.36 C 602.75 608.94 596.34 603.00 598.19 595.28 C 599.16 588.26 600.59 581.28 602.69 574.51 Z" />
<path fill="#fbfdfd" stroke="#fbfdfd" stroke-width="0.09375" opacity="1.00" d=" M 367.06 594.10 C 414.39 596.38 461.47 613.44 497.74 644.27 C 511.20 655.37 523.94 667.66 534.01 681.98 C 527.31 688.43 519.84 693.97 512.87 700.09 C 486.83 669.44 455.57 641.52 417.10 627.93 C 405.36 624.15 393.47 620.69 381.28 618.76 C 379.41 615.36 376.59 611.48 379.54 607.79 C 379.35 607.19 378.96 605.98 378.76 605.38 C 373.22 603.60 369.44 599.25 367.06 594.10 M 406.29 607.37 C 402.06 608.89 400.44 614.99 403.69 618.25 C 406.76 622.32 413.72 621.35 415.77 616.76 C 417.97 611.38 411.83 604.82 406.29 607.37 M 434.35 615.41 C 425.59 618.39 430.72 632.65 439.41 629.50 C 448.06 626.51 442.95 612.33 434.35 615.41 M 454.26 628.14 C 450.50 629.56 449.91 635.68 454.18 636.91 C 457.76 639.33 461.66 634.96 460.71 631.36 C 459.67 628.88 456.78 627.83 454.26 628.14 M 477.41 643.25 C 469.30 648.08 477.80 660.64 485.39 655.40 C 491.93 650.11 484.83 638.97 477.41 643.25 M 498.23 660.28 C 492.87 662.20 493.03 670.78 498.22 672.89 C 503.72 676.47 510.72 668.13 506.87 663.09 C 505.20 660.05 501.35 659.12 498.23 660.28 M 510.31 676.02 C 507.43 678.49 506.17 683.94 510.28 685.89 C 514.77 688.59 520.26 682.75 517.64 678.38 C 516.13 675.77 512.89 676.06 510.31 676.02 Z" />
<path fill="#fbfdfd" stroke="#fbfdfd" stroke-width="0.09375" opacity="1.00" d=" M 516.10 614.90 C 532.48 627.19 548.11 641.25 559.84 658.13 C 554.13 663.80 548.32 669.37 542.12 674.51 C 530.09 659.18 515.96 645.74 501.29 632.99 C 505.99 626.77 511.09 620.87 516.10 614.90 Z" />
<path fill="#fbfdfd" stroke="#fbfdfd" stroke-width="0.09375" opacity="1.00" d=" M 573.92 620.53 C 580.46 618.60 587.35 618.49 594.09 617.76 C 595.35 619.72 596.66 621.66 597.98 623.60 C 593.76 627.59 589.35 631.34 584.92 635.09 C 581.54 630.02 577.19 625.68 573.92 620.53 Z" />
<path fill="#fbfdfd" stroke="#fbfdfd" stroke-width="0.09375" opacity="1.00" d=" M 421.35 639.28 C 424.63 637.41 428.77 641.87 425.67 644.71 C 422.46 647.99 417.60 641.61 421.35 639.28 Z" />
<path fill="#fbfdfd" stroke="#fbfdfd" stroke-width="0.09375" opacity="1.00" d=" M 519.96 707.94 C 546.18 687.00 569.92 663.23 594.45 640.40 C 592.68 646.76 593.81 653.40 593.15 659.86 C 582.91 674.12 569.77 686.01 557.36 698.35 C 506.44 746.37 448.62 786.12 394.12 829.82 C 394.39 822.54 394.14 815.24 394.30 807.96 C 394.03 805.53 396.47 804.36 397.99 802.98 C 409.02 794.73 419.70 786.02 430.45 777.43 C 460.19 754.14 491.12 732.37 519.96 707.94 Z" />
<path fill="#fbfdfd" stroke="#fbfdfd" stroke-width="0.09375" opacity="1.00" d=" M 392.81 645.02 C 416.55 652.52 437.53 666.67 456.49 682.51 C 468.79 693.38 480.52 705.15 490.07 718.53 C 485.64 721.81 481.41 725.36 476.95 728.60 C 466.22 714.64 453.73 702.10 440.53 690.47 C 426.70 679.10 411.75 668.39 394.55 662.82 C 394.42 656.85 394.22 650.84 392.81 645.02 Z" />
<path fill="#fbfdfd" stroke="#fbfdfd" stroke-width="0.09375" opacity="1.00" d=" M 450.11 658.03 C 453.74 655.87 458.56 659.87 455.51 663.51 C 451.90 666.26 448.53 661.49 450.11 658.03 Z" />
<path fill="#fbfdfd" stroke="#fbfdfd" stroke-width="0.09375" opacity="1.00" d=" M 394.45 674.34 C 399.91 675.75 405.16 677.98 409.87 681.12 C 432.29 695.43 452.00 714.02 468.29 734.99 C 462.96 739.50 457.21 743.48 451.79 747.87 C 436.43 726.79 416.61 709.29 394.61 695.42 C 394.34 688.39 394.35 681.36 394.45 674.34 Z" />
<path fill="#fbfdfd" stroke="#fbfdfd" stroke-width="0.09375" opacity="1.00" d=" M 480.07 679.02 C 481.76 679.91 484.22 680.61 484.07 683.00 C 484.20 686.17 479.66 687.96 477.94 685.07 C 475.98 682.81 477.75 680.04 480.07 679.02 Z" />
<path fill="#fbfdfd" stroke="#fbfdfd" stroke-width="0.09375" opacity="1.00" d=" M 546.74 722.78 C 562.59 708.80 577.33 693.65 592.66 679.13 C 593.25 688.27 593.87 697.66 592.76 706.72 C 581.62 718.08 570.64 729.82 558.30 739.91 C 553.64 735.21 553.38 724.79 545.16 724.98 C 544.17 732.77 550.32 739.43 551.95 746.94 C 541.71 756.45 531.35 765.82 520.81 774.99 C 517.03 770.18 513.98 764.50 509.03 760.79 C 506.41 758.91 504.39 762.20 502.73 763.81 C 506.14 769.04 509.92 774.02 513.43 779.19 C 502.29 788.14 490.96 796.87 479.53 805.45 C 476.65 800.72 475.42 795.19 472.49 790.53 C 471.05 787.31 465.01 789.07 466.30 792.62 C 468.73 798.66 471.01 804.76 472.88 811.01 C 461.92 819.51 451.45 828.61 440.55 837.17 C 438.71 831.14 439.02 824.49 436.12 818.81 C 434.51 815.35 428.25 818.29 430.18 821.77 C 432.39 828.84 432.22 836.37 434.11 843.52 C 427.86 848.74 421.84 854.22 415.98 859.87 C 410.15 853.32 404.50 846.59 397.65 841.05 C 446.78 800.95 499.00 764.61 546.74 722.78 Z" />
<path fill="#fbfdfd" stroke="#fbfdfd" stroke-width="0.09375" opacity="1.00" d=" M 498.32 702.19 C 502.35 700.30 505.88 706.79 501.69 708.78 C 497.41 711.36 495.00 704.58 498.32 702.19 Z" />
<path fill="#fbfdfd" stroke="#fbfdfd" stroke-width="0.09375" opacity="1.00" d=" M 394.44 707.45 C 412.52 720.81 429.65 736.00 442.95 754.21 C 438.50 757.92 433.68 761.14 429.19 764.80 C 418.75 753.15 406.75 743.12 394.61 733.32 C 394.17 724.70 394.26 716.07 394.44 707.45 Z" />
<path fill="#fbfdfd" stroke="#fbfdfd" stroke-width="0.09375" opacity="1.00" d=" M 586.31 728.71 C 588.60 726.55 590.92 724.43 593.19 722.26 C 593.20 727.21 593.41 732.16 593.11 737.10 C 590.59 734.51 588.16 731.82 586.31 728.71 Z" />
<path fill="#fbfdfd" stroke="#fbfdfd" stroke-width="0.09375" opacity="1.00" d=" M 555.72 757.80 C 563.65 750.14 571.78 742.69 579.81 735.13 C 583.77 739.82 587.73 744.53 592.14 748.82 C 585.36 758.16 577.70 766.85 569.88 775.34 C 564.84 769.76 559.65 764.24 555.72 757.80 Z" />
<path fill="#fbfdfd" stroke="#fbfdfd" stroke-width="0.09375" opacity="1.00" d=" M 394.43 747.32 C 404.07 754.22 412.87 762.28 420.79 771.10 C 416.48 774.70 412.35 778.52 407.85 781.89 C 403.51 777.05 398.65 772.62 394.67 767.50 C 393.80 760.82 394.55 754.04 394.43 747.32 Z" />
<path fill="#fbfdfd" stroke="#fbfdfd" stroke-width="0.09375" opacity="1.00" d=" M 505.24 812.35 C 519.10 795.88 532.73 779.09 548.85 764.73 C 553.82 770.74 558.93 776.66 563.59 782.94 C 550.65 798.63 537.54 814.19 524.44 829.74 C 517.99 824.01 510.90 818.91 505.24 812.35 Z" />
<path fill="#fbfdfd" stroke="#fbfdfd" stroke-width="0.09375" opacity="1.00" d=" M 570.18 792.16 C 577.82 783.76 584.64 774.58 593.08 766.93 C 592.74 773.37 594.71 780.32 592.56 786.46 C 558.09 827.85 525.40 870.84 496.15 916.10 C 489.84 925.73 483.76 935.52 478.52 945.78 C 468.69 945.52 458.86 945.65 449.03 945.96 C 450.89 943.08 452.79 940.23 454.95 937.57 C 458.48 940.84 463.03 946.46 468.25 943.20 C 472.17 937.46 463.36 933.73 460.23 929.99 C 467.49 918.87 476.34 908.89 483.84 897.92 C 486.10 900.94 491.19 905.86 494.41 901.28 C 498.06 896.95 491.34 893.86 489.12 890.80 C 515.30 857.24 542.51 824.50 570.18 792.16 Z" />
<path fill="#fbfdfd" stroke="#fbfdfd" stroke-width="0.09375" opacity="1.00" d=" M 394.59 783.36 C 395.67 784.56 396.76 785.78 397.85 787.00 C 397.78 787.56 397.64 788.69 397.57 789.26 C 396.57 790.07 395.58 790.90 394.58 791.74 C 394.59 788.94 394.60 786.14 394.59 783.36 Z" />
<path fill="#fbfdfd" stroke="#fbfdfd" stroke-width="0.09375" opacity="1.00" d=" M 490.67 945.77 C 520.33 895.02 556.06 848.02 593.24 802.58 C 593.16 808.34 593.56 814.12 593.26 819.89 C 586.73 820.77 586.46 830.18 593.13 831.09 C 593.27 834.68 593.32 838.27 593.31 841.86 C 587.00 842.47 580.63 841.77 574.33 842.49 C 569.73 842.79 569.46 851.11 574.14 851.63 C 580.46 852.21 586.82 852.10 593.17 852.18 C 593.21 856.46 593.64 860.77 593.14 865.05 C 574.56 890.80 557.36 917.70 542.54 945.83 C 525.25 945.94 507.96 945.93 490.67 945.77 M 551.55 878.43 C 555.41 880.92 559.14 883.63 563.07 885.99 C 566.04 887.84 568.02 883.63 569.79 881.91 C 566.44 876.96 561.15 873.65 555.79 871.26 C 551.82 868.98 547.43 876.08 551.55 878.43 M 550.60 891.48 C 544.86 895.72 551.42 902.77 556.66 902.49 C 559.40 901.77 562.71 897.50 559.76 895.24 C 557.30 893.01 554.08 890.87 550.60 891.48 M 529.33 906.23 C 526.98 907.54 524.56 911.42 527.62 913.36 C 531.91 916.47 536.74 918.78 540.87 922.16 C 543.75 924.94 547.62 921.67 548.86 918.85 C 548.78 914.91 544.28 913.32 541.46 911.49 C 537.49 909.65 533.90 906.15 529.33 906.23 M 523.28 927.15 C 517.77 931.95 526.10 935.89 529.44 938.61 C 532.72 942.25 539.13 937.89 537.50 933.62 C 533.45 930.63 528.70 925.44 523.28 927.15 Z" />
<path fill="#fbfdfd" stroke="#fbfdfd" stroke-width="0.09375" opacity="1.00" d=" M 458.67 836.26 C 471.51 825.14 485.15 814.98 498.40 804.36 C 478.72 829.16 458.73 853.81 440.39 879.62 C 440.03 877.92 440.99 876.40 441.63 874.92 C 437.90 870.32 433.63 866.20 429.69 861.80 C 437.04 855.05 444.74 848.68 451.72 841.55 C 452.87 845.09 456.78 848.53 460.24 845.36 C 464.09 842.74 461.10 838.60 458.67 836.26 Z" />
<path fill="#fbfdfd" stroke="#fbfdfd" stroke-width="0.09375" opacity="1.00" d=" M 478.92 845.36 C 485.70 837.44 491.84 828.99 498.59 821.05 C 505.20 826.43 511.57 832.09 518.13 837.52 C 511.36 845.99 504.60 854.47 497.71 862.84 C 491.09 857.41 484.26 852.12 478.92 845.36 Z" />
<path fill="#fbfdfd" stroke="#fbfdfd" stroke-width="0.09375" opacity="1.00" d=" M 394.59 849.71 C 399.90 854.82 404.82 860.33 409.35 866.16 C 404.53 871.59 398.96 876.30 394.35 881.92 C 394.21 871.18 394.06 860.44 394.59 849.71 Z" />
<path fill="#fbfdfd" stroke="#fbfdfd" stroke-width="0.09375" opacity="1.00" d=" M 430.54 910.10 C 444.49 891.31 458.30 872.39 472.73 853.97 C 478.55 860.03 485.24 865.16 491.21 871.06 C 476.77 889.60 462.76 908.48 448.64 927.27 C 441.79 922.49 435.35 916.99 430.54 910.10 Z" />
<path fill="#fbfdfd" stroke="#fbfdfd" stroke-width="0.09375" opacity="1.00" d=" M 423.31 867.77 C 428.27 872.03 432.22 883.85 440.30 879.30 C 426.12 897.85 412.63 916.93 400.01 936.58 C 398.88 934.16 396.50 933.01 394.25 931.87 C 394.17 922.71 394.22 913.55 394.40 904.39 C 398.38 907.52 401.80 911.45 406.38 913.77 C 410.16 916.55 415.01 909.44 411.30 906.78 C 406.51 902.46 401.11 898.85 396.20 894.65 C 404.99 885.45 414.35 876.80 423.31 867.77 Z" />
<path fill="#fbfdfd" stroke="#fbfdfd" stroke-width="0.09375" opacity="1.00" d=" M 554.74 945.78 C 566.22 924.54 578.75 903.73 593.10 884.29 C 593.31 898.70 593.61 913.13 593.09 927.54 C 590.48 927.88 586.88 928.06 586.30 931.31 C 585.00 934.74 588.35 936.81 590.47 938.82 C 581.99 949.90 566.61 944.77 554.74 945.78 Z" />
<path fill="#fbfdfd" stroke="#fbfdfd" stroke-width="0.09375" opacity="1.00" d=" M 424.14 918.98 C 429.48 925.15 435.88 930.25 441.79 935.85 C 439.23 939.30 436.44 942.57 433.50 945.70 C 424.95 945.67 416.12 946.99 407.81 944.47 C 411.71 935.12 418.88 927.58 424.14 918.98 Z" />
</g>
<g id="#010000ff">
<path fill="#010000" stroke="#010000" stroke-width="0.09375" opacity="1.00" d=" M 93.45 109.43 C 102.81 100.31 116.22 97.02 128.97 97.11 C 188.64 97.07 248.32 97.05 307.99 97.10 C 321.99 96.57 336.62 100.24 347.24 109.73 C 357.21 117.86 362.34 129.98 367.81 141.26 C 411.08 226.76 453.14 312.87 493.96 399.57 C 497.28 394.68 499.10 388.97 501.73 383.71 C 542.09 297.08 584.21 211.28 626.73 125.70 C 633.34 112.01 646.55 101.77 661.37 98.52 C 669.76 96.58 678.45 97.03 687.00 97.01 C 744.02 97.22 801.05 96.89 858.07 97.13 C 877.42 96.98 897.44 108.84 903.04 127.98 C 907.04 140.10 904.69 153.48 898.18 164.27 C 813.00 317.63 726.31 470.16 642.06 624.04 C 636.99 634.44 629.60 644.22 628.20 655.99 C 628.27 748.65 628.26 841.31 628.22 933.98 C 628.85 950.81 618.34 967.00 603.26 974.18 C 595.19 978.33 586.07 979.84 577.06 979.83 C 521.70 979.96 466.35 979.86 410.99 979.86 C 401.15 980.14 391.16 978.18 382.43 973.56 C 368.59 966.11 358.92 950.92 359.31 935.04 C 359.22 847.36 359.33 759.68 359.21 672.01 C 359.05 665.22 359.74 658.17 357.26 651.69 C 354.39 644.00 350.03 636.98 346.22 629.73 C 261.62 478.90 178.10 327.47 93.17 176.82 C 87.85 166.68 80.70 156.82 79.95 145.02 C 78.50 131.89 83.32 118.08 93.45 109.43 M 140.84 131.73 C 143.71 136.08 146.16 140.68 148.84 145.14 C 152.43 145.29 156.02 145.43 159.60 145.68 C 157.07 140.87 154.50 136.07 151.60 131.46 C 148.01 131.26 144.42 131.46 140.84 131.73 M 284.34 131.52 C 284.76 132.68 285.18 133.83 285.61 135.00 C 288.27 133.77 290.93 132.56 293.63 131.40 C 290.53 131.45 287.43 131.50 284.34 131.52 M 669.00 132.03 C 658.12 136.20 655.32 148.61 650.08 157.76 C 665.00 156.10 679.94 154.65 694.79 152.42 C 694.89 145.41 695.17 138.40 696.06 131.44 C 687.06 132.00 677.89 130.36 669.00 132.03 M 707.23 131.51 C 703.60 145.22 705.44 159.93 709.89 173.21 C 713.82 171.76 717.62 168.93 722.02 169.65 C 725.53 169.97 725.74 175.52 722.68 176.69 C 719.63 178.13 716.24 178.59 713.02 179.51 C 720.84 197.52 736.69 211.65 755.39 217.58 C 788.76 228.38 830.96 213.55 845.39 180.38 C 852.97 165.56 856.02 147.69 850.60 131.66 C 837.07 131.42 823.55 131.35 810.03 131.56 C 815.25 140.37 816.87 150.95 814.17 160.86 C 820.52 166.97 830.12 168.91 836.74 174.93 C 835.47 177.26 833.46 180.23 830.44 178.51 C 824.14 174.96 817.81 171.46 811.49 167.96 C 807.43 173.94 802.38 179.22 796.22 183.05 C 797.38 190.99 799.86 198.64 801.57 206.46 C 803.08 210.46 795.79 211.46 795.18 207.78 C 792.77 200.70 791.51 193.26 788.95 186.21 C 775.85 188.73 761.49 185.04 752.18 175.23 C 747.11 179.11 742.80 183.95 737.52 187.51 C 734.35 189.17 732.01 184.36 734.11 182.07 C 737.79 176.93 743.33 173.53 748.15 169.55 C 744.46 162.27 743.30 154.15 743.78 146.07 C 735.40 144.02 725.94 145.57 718.31 141.18 C 719.00 139.65 718.79 137.10 720.96 136.84 C 729.23 137.47 737.26 139.86 745.37 141.51 C 746.42 138.19 747.37 134.85 748.52 131.57 C 734.76 131.33 720.99 131.22 707.23 131.51 M 114.50 138.10 C 115.59 140.47 116.84 142.77 118.04 145.09 C 123.24 144.42 128.30 142.97 133.47 142.14 C 131.66 138.21 129.23 134.61 126.30 131.43 C 121.82 132.51 117.68 134.73 114.50 138.10 M 164.25 131.66 C 170.88 142.11 176.47 153.16 182.27 164.07 C 186.29 163.86 190.27 163.28 194.20 162.44 C 189.72 151.05 185.56 138.66 175.00 131.39 C 171.41 131.31 167.83 131.49 164.25 131.66 M 193.37 131.67 C 195.26 134.93 196.86 138.33 198.65 141.65 C 200.13 140.94 201.60 140.22 203.08 139.50 C 202.85 136.81 202.37 134.16 201.82 131.52 C 199.00 131.46 196.18 131.52 193.37 131.67 M 211.00 131.54 C 211.35 139.74 220.15 146.60 228.03 143.11 C 233.66 146.50 239.33 142.56 243.98 139.34 C 243.44 136.71 242.69 134.14 241.98 131.56 C 231.66 131.50 221.33 131.36 211.00 131.54 M 256.08 131.56 C 257.66 138.76 259.31 145.97 261.99 152.85 C 267.08 151.18 272.17 149.48 276.97 147.07 C 275.62 141.77 273.88 136.59 272.06 131.45 C 266.73 131.56 261.41 131.54 256.08 131.56 M 763.27 132.20 C 750.48 142.16 751.82 163.87 765.60 172.36 C 777.14 180.51 794.77 175.61 801.37 163.36 C 808.04 153.34 805.58 137.92 794.99 131.66 C 784.46 131.59 773.66 131.02 763.27 132.20 M 863.13 132.58 C 863.41 140.75 864.29 148.94 862.90 157.08 C 865.29 151.47 868.67 146.12 869.85 140.09 C 869.00 136.70 865.62 134.75 863.13 132.58 M 290.02 144.00 C 290.99 147.35 292.31 150.59 293.62 153.82 C 304.72 149.60 316.03 145.66 326.38 139.76 C 324.73 136.96 322.10 134.73 319.00 133.74 C 309.32 137.04 299.68 140.59 290.02 144.00 M 201.83 149.60 C 203.87 156.08 206.27 162.51 209.66 168.42 C 215.10 166.90 220.47 165.11 225.85 163.37 C 224.89 160.39 224.15 157.25 222.34 154.64 C 217.58 153.70 213.21 151.65 209.73 148.22 C 207.33 145.64 204.30 148.76 201.83 149.60 M 237.16 154.57 C 238.59 159.93 240.84 165.23 244.93 169.11 C 243.65 171.78 241.14 174.43 242.38 177.61 C 245.39 188.64 249.72 199.27 253.81 209.93 C 259.72 207.94 265.59 205.79 271.18 203.02 C 265.18 191.08 260.64 178.27 253.31 167.07 C 254.95 160.46 250.02 154.70 248.29 148.59 C 245.08 151.43 241.12 153.08 237.16 154.57 M 319.94 154.23 C 325.79 152.81 331.67 156.88 332.35 162.81 C 334.01 169.96 325.40 176.16 318.96 173.06 C 311.85 170.41 310.62 159.92 316.76 155.46 C 310.67 158.47 304.11 160.33 297.75 162.67 C 303.17 175.96 311.12 188.15 319.67 199.63 C 327.29 189.98 335.95 181.18 343.30 171.33 C 339.20 164.03 335.83 156.33 331.37 149.22 C 327.68 151.16 323.82 152.74 319.94 154.23 M 122.68 154.42 C 124.75 158.92 126.83 163.53 130.04 167.35 C 135.12 167.07 140.08 165.68 145.15 165.20 C 143.54 160.33 140.73 156.03 138.18 151.62 C 132.97 152.26 127.76 153.08 122.68 154.42 M 152.50 154.34 C 155.81 159.96 158.46 165.92 161.49 171.70 C 165.27 171.77 169.06 171.68 172.85 171.63 C 170.89 166.67 168.50 161.86 165.51 157.44 C 162.98 152.77 156.74 155.44 152.50 154.34 M 265.09 161.58 C 268.07 171.53 272.80 180.83 277.40 190.10 C 283.23 187.72 289.02 185.07 293.98 181.12 C 289.50 172.48 284.95 163.87 280.87 155.03 C 275.70 157.44 270.33 159.36 265.09 161.58 M 645.78 168.56 C 644.55 171.53 642.28 174.35 642.44 177.69 C 646.14 201.43 656.99 223.58 671.31 242.70 C 697.61 276.93 741.48 299.42 785.14 293.36 C 789.42 286.05 793.69 278.69 797.28 271.01 C 795.10 269.84 792.62 267.89 793.67 265.07 C 794.90 261.16 799.79 261.50 802.86 262.84 C 811.66 247.21 820.40 231.53 828.81 215.69 C 814.25 226.81 795.64 230.97 777.65 231.77 C 777.68 245.19 777.47 258.61 777.76 272.02 C 778.25 275.19 774.91 276.33 772.80 277.69 C 770.67 276.36 767.65 275.12 767.91 272.09 C 767.23 258.43 767.70 244.75 767.59 231.08 C 750.09 228.47 733.09 221.00 720.26 208.66 C 710.10 218.71 700.35 229.16 690.66 239.64 C 687.40 244.39 679.54 238.50 682.90 233.97 C 691.48 221.64 703.04 211.78 713.05 200.67 C 704.98 189.18 698.77 176.40 695.89 162.61 C 679.15 164.29 662.50 166.75 645.78 168.56 M 185.82 172.45 C 187.74 177.46 189.36 182.60 191.61 187.49 C 195.65 187.15 199.70 186.97 203.75 186.90 C 202.07 181.33 199.87 175.95 197.45 170.68 C 193.57 171.26 189.68 171.76 185.82 172.45 M 212.76 176.57 C 214.26 183.44 217.06 189.94 219.16 196.65 C 224.36 194.76 229.32 192.31 234.47 190.29 C 232.70 184.10 230.49 178.05 228.35 171.99 C 223.22 173.75 218.10 175.58 212.76 176.57 M 133.98 176.78 C 138.06 182.93 141.15 189.67 145.15 195.87 C 148.70 196.34 152.27 196.66 155.84 196.92 C 154.69 189.15 153.18 181.33 149.84 174.16 C 144.51 174.72 139.24 175.76 133.98 176.78 M 163.71 180.33 C 165.86 188.36 167.52 196.51 168.56 204.76 C 173.80 204.98 179.03 205.40 184.26 205.79 C 182.00 197.22 179.89 188.44 175.70 180.57 C 171.70 180.42 167.71 180.33 163.71 180.33 M 348.31 183.78 C 329.29 205.74 309.15 227.18 294.46 252.42 C 286.73 265.97 281.01 282.39 285.56 297.95 C 312.68 270.18 340.57 242.33 361.00 209.11 C 357.48 200.33 352.63 192.18 348.31 183.78 M 281.42 197.25 C 285.50 206.72 290.76 215.69 296.86 224.01 C 302.19 219.22 307.47 214.36 312.03 208.81 C 307.95 202.18 303.24 195.97 298.88 189.52 C 293.15 192.30 287.40 195.04 281.42 197.25 M 633.93 192.57 C 631.23 198.58 626.44 204.12 625.40 210.63 C 642.39 263.69 689.16 307.37 744.56 316.96 C 745.56 312.29 746.11 307.55 746.70 302.82 C 735.61 300.12 724.58 296.74 714.33 291.67 C 674.63 272.41 646.63 234.19 633.93 192.57 M 193.98 195.82 C 195.77 204.39 197.81 212.92 199.65 221.47 C 204.33 223.35 209.73 222.74 214.73 223.13 C 212.97 213.84 210.06 204.71 206.00 196.17 C 202.00 195.92 197.99 195.82 193.98 195.82 M 221.68 204.57 C 223.37 210.86 225.46 217.04 226.90 223.40 C 232.81 222.06 238.62 220.32 244.23 218.02 C 242.81 211.51 239.95 205.45 237.28 199.40 C 232.15 201.33 226.96 203.11 221.68 204.57 M 150.66 206.52 C 153.16 210.61 155.43 214.83 157.63 219.10 C 158.00 213.77 158.79 204.49 150.66 206.52 M 258.16 218.34 C 260.64 227.09 265.00 235.14 267.80 243.78 C 274.43 240.75 280.97 237.45 286.97 233.27 C 283.37 225.65 278.71 218.59 274.35 211.40 C 269.07 213.99 263.50 215.91 258.16 218.34 M 169.43 213.66 C 169.52 217.52 169.79 221.38 170.28 225.21 C 176.46 224.96 182.61 224.20 188.79 224.09 C 188.10 221.14 188.17 217.35 185.73 215.29 C 180.40 214.04 174.89 213.83 169.43 213.66 M 351.31 247.10 C 351.55 266.37 353.02 285.65 353.86 304.91 C 356.44 306.00 359.00 307.18 361.28 308.84 C 374.01 301.52 386.77 294.12 400.53 288.87 C 398.08 283.16 395.65 277.25 391.57 272.47 C 384.07 264.66 373.50 260.68 365.80 253.13 C 362.16 250.40 366.95 244.47 370.57 246.40 C 375.64 248.73 380.31 251.86 384.99 254.89 C 379.48 243.75 373.46 232.87 367.83 221.79 C 362.33 230.23 357.01 238.80 351.31 247.10 M 229.06 232.71 C 230.73 239.84 232.95 246.83 234.68 253.94 C 242.32 252.69 249.81 250.63 257.09 248.01 C 254.76 240.76 251.75 233.72 248.31 226.93 C 242.04 229.30 235.56 231.09 229.06 232.71 M 201.76 231.21 C 202.88 240.06 204.44 248.86 205.30 257.74 C 211.66 258.69 218.00 259.72 224.40 260.33 C 222.33 250.83 220.06 241.35 216.93 232.14 C 211.90 231.52 206.83 231.12 201.76 231.21 M 170.76 233.63 C 168.96 241.57 174.66 247.76 178.05 254.26 C 183.24 254.88 188.44 255.41 193.65 255.82 C 193.11 248.48 192.02 241.19 190.57 233.98 C 183.98 233.46 177.36 233.35 170.76 233.63 M 605.47 250.01 C 612.64 260.90 621.04 270.93 629.06 281.20 C 630.99 278.42 633.06 275.73 635.14 273.07 C 627.45 260.56 619.05 248.43 613.02 234.97 C 610.39 239.92 607.93 244.96 605.47 250.01 M 271.69 255.20 C 272.61 260.18 273.92 265.07 275.26 269.95 C 277.36 262.95 279.71 256.03 282.56 249.30 C 278.83 251.06 275.15 252.96 271.69 255.20 M 301.34 298.26 C 315.32 298.86 329.18 301.11 342.96 303.44 C 342.52 287.58 341.68 271.71 340.58 255.88 C 328.24 270.68 314.54 284.25 301.34 298.26 M 241.78 264.17 C 248.52 267.03 255.43 269.46 262.10 272.52 C 261.97 267.76 260.69 263.17 259.65 258.56 C 253.63 260.23 247.81 262.55 241.78 264.17 M 593.15 276.73 C 598.98 284.83 604.69 293.03 609.74 301.64 C 614.79 299.55 620.12 298.27 625.54 297.60 C 617.78 285.24 609.50 273.12 599.91 262.09 C 597.42 266.86 595.20 271.77 593.15 276.73 M 185.31 267.34 C 189.75 276.47 195.40 284.94 200.03 293.97 C 200.87 295.39 201.51 297.49 203.53 297.41 C 219.94 298.95 236.09 302.33 252.39 304.64 C 258.55 305.70 264.98 306.62 271.15 305.15 C 276.93 303.99 275.72 295.94 272.21 292.84 C 262.12 282.74 247.88 278.58 234.58 274.49 C 218.47 270.52 201.96 267.32 185.31 267.34 M 635.04 291.93 C 638.35 298.05 642.05 303.95 645.19 310.16 C 650.63 310.03 656.22 310.37 661.17 312.85 C 663.18 310.12 665.23 307.40 667.33 304.73 C 658.80 297.47 650.33 290.12 643.29 281.36 C 640.65 284.97 637.55 288.22 635.04 291.93 M 581.31 301.33 C 578.09 306.59 584.04 311.18 585.58 315.99 C 589.81 311.61 595.28 308.83 600.49 305.81 C 597.31 299.00 592.65 293.06 588.26 287.02 C 585.85 291.74 583.40 296.45 581.31 301.33 M 372.59 314.76 C 385.55 323.92 391.16 340.54 390.69 355.92 C 400.48 348.00 411.15 340.92 423.23 337.06 C 421.97 333.63 420.42 330.31 418.66 327.11 C 412.95 328.88 407.11 330.26 401.55 332.49 C 395.44 334.55 389.49 326.57 393.28 321.31 C 396.61 316.63 403.48 316.91 407.23 320.94 C 409.93 319.99 412.54 318.83 415.14 317.62 C 412.30 311.15 408.68 305.06 405.41 298.80 C 393.83 302.62 382.96 308.39 372.59 314.76 M 756.45 304.66 C 756.12 309.25 755.37 313.79 755.01 318.38 C 759.74 319.28 764.51 320.39 769.35 320.37 C 773.53 315.93 775.67 310.05 778.61 304.80 C 771.23 305.59 763.84 304.77 756.45 304.66 M 612.39 310.75 C 613.23 314.49 614.30 318.16 615.41 321.83 C 622.21 320.77 629.61 325.12 630.52 332.22 C 631.53 337.69 627.73 342.35 623.55 345.32 C 624.68 348.84 625.80 352.36 626.98 355.87 C 634.54 353.02 644.03 348.45 643.94 339.01 C 643.31 330.07 639.66 321.45 635.25 313.74 C 630.10 306.13 619.63 306.65 612.39 310.75 M 287.55 311.47 C 277.55 315.34 270.26 323.54 263.43 331.46 C 255.79 340.67 248.27 350.70 245.62 362.61 C 244.82 368.04 243.50 374.22 247.14 378.94 C 254.63 390.46 258.87 404.32 269.31 413.68 C 276.26 421.32 280.92 430.64 287.25 438.72 C 295.61 448.27 309.83 447.57 321.31 446.21 C 338.20 443.55 356.36 439.34 368.88 426.88 C 383.30 412.98 386.86 390.82 380.76 372.19 C 377.91 375.98 371.56 376.12 369.45 371.54 C 367.99 366.73 372.89 363.02 377.31 363.02 C 384.54 346.90 375.91 326.23 359.96 319.13 C 347.34 313.55 333.43 312.29 319.96 310.11 C 309.25 308.60 297.78 306.93 287.55 311.47 M 676.53 311.63 C 674.25 314.84 671.87 318.00 669.11 320.81 C 676.92 328.52 685.28 335.62 694.00 342.28 C 697.32 336.93 701.82 332.43 704.93 326.94 C 694.75 323.25 685.79 317.07 676.53 311.63 M 209.94 312.38 C 218.46 327.80 227.56 342.98 235.03 358.92 C 240.06 342.80 250.58 329.40 261.52 316.89 C 244.44 314.31 227.24 312.41 209.94 312.38 M 590.26 328.97 C 591.61 336.35 594.63 343.32 596.45 350.60 C 598.51 360.14 611.16 361.52 618.80 358.35 C 618.85 354.57 617.81 350.92 616.75 347.33 C 604.90 348.72 598.80 331.20 609.33 325.12 C 607.95 321.33 606.61 317.53 605.28 313.73 C 598.79 316.54 590.68 321.05 590.26 328.97 M 567.39 330.81 C 578.98 363.79 585.68 398.37 589.06 433.11 C 590.31 437.82 582.66 440.43 581.48 435.69 C 576.43 404.28 572.73 372.15 560.96 342.37 C 559.14 346.79 556.00 350.95 555.52 355.77 C 564.41 379.79 568.97 405.10 573.69 430.20 C 581.24 474.73 585.95 520.18 582.20 565.31 C 579.32 572.46 583.75 579.35 588.52 584.45 C 593.53 570.64 593.80 555.75 595.24 541.29 C 596.60 510.88 596.21 480.41 597.23 449.99 C 598.75 404.32 591.71 357.93 573.95 315.71 C 571.89 320.76 568.47 325.50 567.39 330.81 M 649.90 321.05 C 660.89 357.52 664.11 396.30 658.88 434.04 C 657.07 447.73 653.85 461.23 652.86 475.03 C 652.34 490.67 654.34 506.36 658.11 521.53 C 662.47 513.37 667.26 505.35 670.78 496.80 C 669.26 491.85 666.43 487.27 665.94 482.01 C 663.98 470.48 668.00 459.15 672.89 448.89 C 674.93 445.54 673.66 441.67 673.23 438.08 C 672.10 430.85 673.79 423.60 675.63 416.63 C 679.71 400.04 676.55 382.85 674.35 366.24 C 675.01 363.89 677.66 362.52 679.91 363.79 C 688.57 367.39 697.79 371.88 702.69 380.31 C 707.48 387.88 707.04 398.01 702.64 405.64 C 700.55 409.43 697.42 413.37 699.07 417.98 C 701.66 427.54 701.53 437.45 699.56 447.10 C 706.55 435.39 712.65 423.15 719.22 411.20 C 720.40 408.60 722.47 405.83 721.31 402.85 C 716.31 384.89 707.66 367.06 692.83 355.20 C 681.94 346.48 671.05 337.72 660.94 328.09 C 657.77 325.02 653.84 322.96 649.90 321.05 M 617.22 330.43 C 614.64 330.92 612.46 333.72 613.59 336.33 C 614.65 340.30 621.39 338.77 621.28 334.98 C 621.64 332.62 619.68 330.12 617.22 330.43 M 715.83 331.27 C 711.66 337.06 706.93 342.41 702.39 347.90 C 714.00 361.30 724.21 376.09 729.82 393.06 C 735.03 383.79 740.00 374.38 745.16 365.07 C 751.28 356.77 743.56 347.13 743.64 338.03 C 734.28 336.17 724.86 334.41 715.83 331.27 M 754.86 338.64 C 755.34 341.40 755.92 344.15 756.65 346.87 C 758.09 344.22 759.45 341.54 760.76 338.83 C 758.78 338.76 756.82 338.70 754.86 338.64 M 391.61 371.13 C 397.74 392.76 393.89 418.22 377.36 434.36 C 374.91 437.62 369.72 439.18 369.59 443.76 C 368.38 454.72 366.30 465.60 365.80 476.63 C 371.19 476.56 376.58 476.52 381.97 476.63 C 383.70 455.64 387.19 434.72 393.51 414.60 C 397.74 399.68 402.78 384.18 413.77 372.76 C 419.38 366.68 427.05 363.20 434.64 360.29 C 432.63 355.70 430.41 351.22 428.09 346.79 C 413.97 351.12 400.73 359.40 391.61 371.13 M 628.53 364.15 C 629.44 368.79 630.32 373.45 631.39 378.07 C 637.64 379.37 644.07 377.88 649.35 374.36 C 648.85 367.76 647.86 361.21 646.31 354.77 C 640.96 358.86 635.03 362.28 628.53 364.15 M 543.90 389.14 C 549.51 405.36 552.58 422.28 555.87 439.08 C 561.87 473.85 566.09 509.42 562.69 544.69 C 560.12 552.78 569.05 557.28 573.07 562.99 C 575.39 547.28 574.60 531.30 574.26 515.48 C 572.33 474.72 566.37 434.20 557.59 394.37 C 555.25 385.13 553.13 375.79 549.66 366.89 C 547.20 374.08 539.80 381.30 543.90 389.14 M 601.13 368.62 C 602.65 373.70 603.07 379.04 604.67 384.11 C 615.33 387.66 617.66 402.39 610.12 410.06 C 606.84 412.77 606.57 417.42 607.73 421.23 C 609.91 424.01 612.95 426.25 614.12 429.72 C 616.21 435.25 613.16 442.64 607.16 444.03 C 606.24 451.34 606.01 458.76 606.58 466.11 C 610.80 467.75 615.36 469.44 618.13 473.24 C 615.63 477.33 611.03 480.06 606.28 480.70 C 606.29 487.56 605.09 494.65 606.47 501.38 C 610.37 503.52 616.37 505.47 619.80 501.70 C 621.02 490.93 618.31 479.95 619.68 469.13 C 620.55 454.04 622.04 439.00 622.83 423.91 C 625.03 405.27 623.02 386.46 619.70 368.09 C 613.67 369.75 607.23 370.20 601.13 368.62 M 408.77 401.84 C 399.43 426.10 394.01 451.81 392.21 477.73 C 397.75 477.84 403.25 478.49 408.77 478.91 C 410.48 460.77 412.92 442.61 418.11 425.10 C 422.33 409.00 430.92 392.54 446.74 385.29 C 444.68 380.07 442.36 374.94 439.45 370.14 C 423.79 373.25 413.93 387.76 408.77 401.84 M 686.07 379.85 C 686.35 386.19 688.50 392.22 690.33 398.23 C 696.70 392.77 695.61 380.55 686.07 379.85 M 632.19 386.85 C 632.42 393.73 632.69 400.62 633.23 407.49 C 638.66 407.76 644.79 409.06 649.82 406.82 C 651.72 400.36 650.36 393.18 650.42 386.46 C 644.35 385.75 638.23 386.07 632.19 386.85 M 427.36 430.37 C 422.65 446.57 419.60 463.30 419.06 480.18 C 424.21 481.10 429.32 482.32 434.53 482.97 C 436.91 457.77 438.05 428.23 458.76 410.43 C 456.29 405.28 453.94 400.07 451.12 395.11 C 437.78 402.04 430.92 416.43 427.36 430.37 M 528.32 412.41 C 525.85 417.04 530.06 421.61 530.79 426.20 C 540.35 460.38 545.38 496.30 542.33 531.78 C 546.17 534.58 549.61 537.89 553.56 540.55 C 555.61 531.85 555.20 522.86 555.28 514.00 C 554.32 479.82 548.94 445.89 541.45 412.58 C 540.09 406.72 538.33 400.98 536.34 395.32 C 533.45 400.91 530.86 406.65 528.32 412.41 M 632.45 417.25 C 632.23 424.07 630.89 430.93 631.96 437.73 C 637.21 438.74 644.11 439.53 647.90 434.88 C 649.84 429.73 649.56 424.07 649.67 418.65 C 643.95 417.92 638.22 417.16 632.45 417.25 M 450.33 444.35 C 446.62 457.84 444.94 471.82 444.56 485.78 C 449.73 486.89 454.87 488.10 459.94 489.61 C 461.37 476.06 459.84 461.92 464.93 448.97 C 466.44 444.78 469.34 441.24 470.77 437.04 C 469.26 431.41 466.11 426.37 463.50 421.20 C 456.86 427.39 452.71 435.70 450.33 444.35 M 687.21 439.96 C 691.35 435.09 692.07 427.29 686.88 422.86 C 681.89 427.34 682.58 435.48 687.21 439.96 M 513.63 441.04 C 520.25 465.05 522.60 490.15 521.64 515.00 C 524.07 518.94 529.06 520.89 533.03 523.20 C 535.64 506.88 533.45 490.29 531.36 474.03 C 528.87 458.21 526.83 442.05 520.92 427.06 C 518.22 431.57 515.90 436.30 513.63 441.04 M 339.93 453.73 C 338.44 462.33 337.25 471.01 336.42 479.71 C 342.49 478.73 348.56 477.81 354.66 477.10 C 356.25 466.92 357.60 456.70 359.06 446.50 C 352.97 449.63 345.97 450.69 339.93 453.73 M 630.39 446.56 C 625.93 483.58 629.72 521.05 637.84 557.30 C 641.82 550.08 645.53 542.73 649.49 535.51 C 650.78 533.68 650.02 531.48 649.50 529.53 C 641.85 502.53 641.58 473.84 646.72 446.36 C 641.28 446.53 635.83 446.60 630.39 446.56 M 477.15 447.27 C 469.45 461.13 470.36 477.43 470.12 492.75 C 475.19 494.47 480.19 496.38 485.04 498.68 C 486.00 484.81 485.61 470.87 485.07 456.99 C 482.29 453.87 479.28 450.91 477.15 447.27 M 495.17 457.80 C 495.61 472.71 495.62 487.63 495.05 502.53 C 500.79 505.17 506.29 508.25 511.83 511.26 C 513.33 491.12 511.38 470.59 506.25 451.07 C 503.36 454.43 499.64 457.10 495.17 457.80 M 287.63 452.97 C 290.92 458.73 294.22 464.50 297.83 470.07 C 298.75 465.68 299.83 461.31 300.47 456.87 C 296.12 455.82 291.86 454.43 287.63 452.97 M 310.80 457.91 C 309.00 467.49 307.60 477.20 307.78 486.98 C 313.79 485.61 319.73 483.94 325.69 482.34 C 326.38 473.36 327.85 464.47 329.11 455.55 C 323.07 456.81 316.88 456.98 310.80 457.91 M 677.89 482.95 C 681.44 477.10 687.54 467.77 679.12 463.01 C 674.26 468.49 674.27 476.82 677.89 482.95 M 372.92 487.78 C 374.75 494.04 377.16 501.34 373.41 507.39 C 368.72 515.99 354.86 516.83 349.24 508.77 C 345.12 503.01 346.35 495.51 348.04 489.12 C 336.10 490.56 324.27 493.10 312.88 496.97 C 317.59 508.12 324.59 518.03 330.12 528.75 C 351.11 527.39 372.10 529.28 392.94 531.66 C 389.35 516.54 383.31 502.14 377.86 487.63 C 376.21 487.64 374.56 487.70 372.92 487.78 M 395.08 488.68 C 398.43 495.49 401.02 503.02 406.69 508.35 C 410.76 512.39 418.20 512.42 422.10 508.11 C 426.22 503.83 429.29 498.69 432.19 493.55 C 419.97 491.03 407.58 488.82 395.08 488.68 M 443.01 496.19 C 440.89 505.40 436.99 514.51 430.44 521.43 C 423.14 528.88 410.57 530.05 402.31 523.51 C 403.23 526.52 403.66 529.65 404.51 532.69 C 407.00 534.31 410.20 534.17 413.00 534.97 C 434.05 538.81 454.27 545.96 474.34 553.19 C 474.79 537.49 474.43 521.78 473.71 506.10 C 464.01 501.34 453.48 498.66 443.01 496.19 M 606.34 514.22 C 606.37 519.70 605.38 525.42 607.19 530.71 C 609.34 536.92 620.04 538.47 623.39 533.02 C 623.16 525.67 621.56 518.40 621.03 511.06 C 615.91 510.92 611.14 512.77 606.34 514.22 M 489.27 511.96 C 491.95 519.01 493.90 526.32 496.34 533.46 C 504.11 531.43 511.97 529.71 519.92 528.58 C 509.97 522.58 500.02 516.44 489.27 511.96 M 525.40 533.30 C 525.36 534.40 525.33 535.51 525.30 536.62 C 526.68 536.52 528.07 536.43 529.47 536.34 C 528.11 535.31 526.75 534.31 525.40 533.30 M 336.81 538.92 C 338.64 543.09 340.71 547.17 343.27 550.94 C 377.81 548.82 412.31 555.56 445.11 565.98 C 489.80 580.98 531.12 607.20 561.74 643.27 C 563.72 645.79 565.89 648.15 568.22 650.36 C 571.14 647.68 573.99 644.91 576.88 642.20 C 574.04 636.03 568.45 631.92 564.11 626.90 C 505.73 566.36 420.13 536.21 336.81 538.92 M 609.41 545.85 C 611.55 559.26 614.78 573.12 623.20 584.11 C 626.07 578.82 629.05 573.58 631.63 568.14 C 628.51 560.16 626.87 551.75 624.94 543.45 C 619.78 544.38 614.65 545.52 609.41 545.85 M 484.41 556.02 C 484.30 557.67 485.70 558.40 486.99 559.05 C 516.67 572.96 543.71 592.32 567.19 615.14 C 568.79 604.51 572.22 594.09 572.69 583.35 C 566.06 570.30 554.89 560.50 544.94 550.04 C 543.73 548.93 542.56 547.55 540.88 547.24 C 521.80 545.42 501.29 545.75 484.41 556.02 M 348.59 561.17 C 352.75 568.74 356.93 576.29 361.13 583.84 C 363.64 583.88 366.15 583.90 368.67 583.89 C 368.48 576.22 368.52 568.54 367.96 560.88 C 361.50 560.74 355.03 560.53 348.59 561.17 M 378.78 562.20 C 378.85 569.61 378.95 577.03 378.96 584.45 C 393.79 586.29 408.43 589.27 422.92 592.88 C 424.41 585.67 426.40 578.58 427.88 571.37 C 411.78 567.20 395.47 562.99 378.78 562.20 M 437.99 574.98 C 436.39 582.10 433.65 588.94 432.58 596.19 C 454.22 603.29 474.59 613.85 493.21 626.94 C 497.88 620.76 502.91 614.84 507.34 608.47 C 494.15 598.73 479.39 591.36 464.57 584.49 C 455.89 580.87 447.32 576.62 437.99 574.98 M 602.69 574.51 C 600.59 581.28 599.16 588.26 598.19 595.28 C 596.34 603.00 602.75 608.94 605.85 615.36 C 609.22 609.23 617.06 602.19 612.01 595.01 C 608.47 588.37 606.14 581.18 602.69 574.51 M 367.06 594.10 C 369.44 599.25 373.22 603.60 378.76 605.38 C 378.96 605.98 379.35 607.19 379.54 607.79 C 376.59 611.48 379.41 615.36 381.28 618.76 C 393.47 620.69 405.36 624.15 417.10 627.93 C 455.57 641.52 486.83 669.44 512.87 700.09 C 519.84 693.97 527.31 688.43 534.01 681.98 C 523.94 667.66 511.20 655.37 497.74 644.27 C 461.47 613.44 414.39 596.38 367.06 594.10 M 516.10 614.90 C 511.09 620.87 505.99 626.77 501.29 632.99 C 515.96 645.74 530.09 659.18 542.12 674.51 C 548.32 669.37 554.13 663.80 559.84 658.13 C 548.11 641.25 532.48 627.19 516.10 614.90 M 573.92 620.53 C 577.19 625.68 581.54 630.02 584.92 635.09 C 589.35 631.34 593.76 627.59 597.98 623.60 C 596.66 621.66 595.35 619.72 594.09 617.76 C 587.35 618.49 580.46 618.60 573.92 620.53 M 421.35 639.28 C 417.60 641.61 422.46 647.99 425.67 644.71 C 428.77 641.87 424.63 637.41 421.35 639.28 M 519.96 707.94 C 491.12 732.37 460.19 754.14 430.45 777.43 C 419.70 786.02 409.02 794.73 397.99 802.98 C 396.47 804.36 394.03 805.53 394.30 807.96 C 394.14 815.24 394.39 822.54 394.12 829.82 C 448.62 786.12 506.44 746.37 557.36 698.35 C 569.77 686.01 582.91 674.12 593.15 659.86 C 593.81 653.40 592.68 646.76 594.45 640.40 C 569.92 663.23 546.18 687.00 519.96 707.94 M 392.81 645.02 C 394.22 650.84 394.42 656.85 394.55 662.82 C 411.75 668.39 426.70 679.10 440.53 690.47 C 453.73 702.10 466.22 714.64 476.95 728.60 C 481.41 725.36 485.64 721.81 490.07 718.53 C 480.52 705.15 468.79 693.38 456.49 682.51 C 437.53 666.67 416.55 652.52 392.81 645.02 M 450.11 658.03 C 448.53 661.49 451.90 666.26 455.51 663.51 C 458.56 659.87 453.74 655.87 450.11 658.03 M 394.45 674.34 C 394.35 681.36 394.34 688.39 394.61 695.42 C 416.61 709.29 436.43 726.79 451.79 747.87 C 457.21 743.48 462.96 739.50 468.29 734.99 C 452.00 714.02 432.29 695.43 409.87 681.12 C 405.16 677.98 399.91 675.75 394.45 674.34 M 480.07 679.02 C 477.75 680.04 475.98 682.81 477.94 685.07 C 479.66 687.96 484.20 686.17 484.07 683.00 C 484.22 680.61 481.76 679.91 480.07 679.02 M 546.74 722.78 C 499.00 764.61 446.78 800.95 397.65 841.05 C 404.50 846.59 410.15 853.32 415.98 859.87 C 421.84 854.22 427.86 848.74 434.11 843.52 C 432.22 836.37 432.39 828.84 430.18 821.77 C 428.25 818.29 434.51 815.35 436.12 818.81 C 439.02 824.49 438.71 831.14 440.55 837.17 C 451.45 828.61 461.92 819.51 472.88 811.01 C 471.01 804.76 468.73 798.66 466.30 792.62 C 465.01 789.07 471.05 787.31 472.49 790.53 C 475.42 795.19 476.65 800.72 479.53 805.45 C 490.96 796.87 502.29 788.14 513.43 779.19 C 509.92 774.02 506.14 769.04 502.73 763.81 C 504.39 762.20 506.41 758.91 509.03 760.79 C 513.98 764.50 517.03 770.18 520.81 774.99 C 531.35 765.82 541.71 756.45 551.95 746.94 C 550.32 739.43 544.17 732.77 545.16 724.98 C 553.38 724.79 553.64 735.21 558.30 739.91 C 570.64 729.82 581.62 718.08 592.76 706.72 C 593.87 697.66 593.25 688.27 592.66 679.13 C 577.33 693.65 562.59 708.80 546.74 722.78 M 498.32 702.19 C 495.00 704.58 497.41 711.36 501.69 708.78 C 505.88 706.79 502.35 700.30 498.32 702.19 M 394.44 707.45 C 394.26 716.07 394.17 724.70 394.61 733.32 C 406.75 743.12 418.75 753.15 429.19 764.80 C 433.68 761.14 438.50 757.92 442.95 754.21 C 429.65 736.00 412.52 720.81 394.44 707.45 M 586.31 728.71 C 588.16 731.82 590.59 734.51 593.11 737.10 C 593.41 732.16 593.20 727.21 593.19 722.26 C 590.92 724.43 588.60 726.55 586.31 728.71 M 555.72 757.80 C 559.65 764.24 564.84 769.76 569.88 775.34 C 577.70 766.85 585.36 758.16 592.14 748.82 C 587.73 744.53 583.77 739.82 579.81 735.13 C 571.78 742.69 563.65 750.14 555.72 757.80 M 394.43 747.32 C 394.55 754.04 393.80 760.82 394.67 767.50 C 398.65 772.62 403.51 777.05 407.85 781.89 C 412.35 778.52 416.48 774.70 420.79 771.10 C 412.87 762.28 404.07 754.22 394.43 747.32 M 505.24 812.35 C 510.90 818.91 517.99 824.01 524.44 829.74 C 537.54 814.19 550.65 798.63 563.59 782.94 C 558.93 776.66 553.82 770.74 548.85 764.73 C 532.73 779.09 519.10 795.88 505.24 812.35 M 570.18 792.16 C 542.51 824.50 515.30 857.24 489.12 890.80 C 491.34 893.86 498.06 896.95 494.41 901.28 C 491.19 905.86 486.10 900.94 483.84 897.92 C 476.34 908.89 467.49 918.87 460.23 929.99 C 463.36 933.73 472.17 937.46 468.25 943.20 C 463.03 946.46 458.48 940.84 454.95 937.57 C 452.79 940.23 450.89 943.08 449.03 945.96 C 458.86 945.65 468.69 945.52 478.52 945.78 C 483.76 935.52 489.84 925.73 496.15 916.10 C 525.40 870.84 558.09 827.85 592.56 786.46 C 594.71 780.32 592.74 773.37 593.08 766.93 C 584.64 774.58 577.82 783.76 570.18 792.16 M 394.59 783.36 C 394.60 786.14 394.59 788.94 394.58 791.74 C 395.58 790.90 396.57 790.07 397.57 789.26 C 397.64 788.69 397.78 787.56 397.85 787.00 C 396.76 785.78 395.67 784.56 394.59 783.36 M 490.67 945.77 C 507.96 945.93 525.25 945.94 542.54 945.83 C 557.36 917.70 574.56 890.80 593.14 865.05 C 593.64 860.77 593.21 856.46 593.17 852.18 C 586.82 852.10 580.46 852.21 574.14 851.63 C 569.46 851.11 569.73 842.79 574.33 842.49 C 580.63 841.77 587.00 842.47 593.31 841.86 C 593.32 838.27 593.27 834.68 593.13 831.09 C 586.46 830.18 586.73 820.77 593.26 819.89 C 593.56 814.12 593.16 808.34 593.24 802.58 C 556.06 848.02 520.33 895.02 490.67 945.77 M 458.67 836.26 C 461.10 838.60 464.09 842.74 460.24 845.36 C 456.78 848.53 452.87 845.09 451.72 841.55 C 444.74 848.68 437.04 855.05 429.69 861.80 C 433.63 866.20 437.90 870.32 441.63 874.92 C 440.99 876.40 440.03 877.92 440.39 879.62 C 458.73 853.81 478.72 829.16 498.40 804.36 C 485.15 814.98 471.51 825.14 458.67 836.26 M 478.92 845.36 C 484.26 852.12 491.09 857.41 497.71 862.84 C 504.60 854.47 511.36 845.99 518.13 837.52 C 511.57 832.09 505.20 826.43 498.59 821.05 C 491.84 828.99 485.70 837.44 478.92 845.36 M 394.59 849.71 C 394.06 860.44 394.21 871.18 394.35 881.92 C 398.96 876.30 404.53 871.59 409.35 866.16 C 404.82 860.33 399.90 854.82 394.59 849.71 M 430.54 910.10 C 435.35 916.99 441.79 922.49 448.64 927.27 C 462.76 908.48 476.77 889.60 491.21 871.06 C 485.24 865.16 478.55 860.03 472.73 853.97 C 458.30 872.39 444.49 891.31 430.54 910.10 M 423.31 867.77 C 414.35 876.80 404.99 885.45 396.20 894.65 C 401.11 898.85 406.51 902.46 411.30 906.78 C 415.01 909.44 410.16 916.55 406.38 913.77 C 401.80 911.45 398.38 907.52 394.40 904.39 C 394.22 913.55 394.17 922.71 394.25 931.87 C 396.50 933.01 398.88 934.16 400.01 936.58 C 412.63 916.93 426.12 897.85 440.30 879.30 C 432.22 883.85 428.27 872.03 423.31 867.77 M 554.74 945.78 C 566.61 944.77 581.99 949.90 590.47 938.82 C 588.35 936.81 585.00 934.74 586.30 931.31 C 586.88 928.06 590.48 927.88 593.09 927.54 C 593.61 913.13 593.31 898.70 593.10 884.29 C 578.75 903.73 566.22 924.54 554.74 945.78 M 424.14 918.98 C 418.88 927.58 411.71 935.12 407.81 944.47 C 416.12 946.99 424.95 945.67 433.50 945.70 C 436.44 942.57 439.23 939.30 441.79 935.85 C 435.88 930.25 429.48 925.15 424.14 918.98 Z" />
<path fill="#010000" stroke="#010000" stroke-width="0.09375" opacity="1.00" d=" M 675.31 132.22 C 677.33 131.96 679.65 132.43 680.89 134.22 C 683.87 138.44 678.41 145.23 673.81 142.24 C 669.61 140.02 670.51 132.92 675.31 132.22 Z" />
<path fill="#010000" stroke="#010000" stroke-width="0.09375" opacity="1.00" d=" M 832.46 142.56 C 836.85 141.21 842.05 145.12 841.51 149.80 C 841.30 154.91 834.37 158.20 830.55 154.45 C 826.14 151.43 827.31 144.01 832.46 142.56 Z" />
<path fill="#010000" stroke="#010000" stroke-width="0.09375" opacity="1.00" d=" M 773.32 144.26 C 781.97 139.91 788.44 153.79 780.02 158.03 C 771.42 162.96 764.24 148.09 773.32 144.26 Z" />
<path fill="#010000" stroke="#010000" stroke-width="0.09375" opacity="1.00" d=" M 680.39 177.31 C 683.25 176.39 686.44 178.23 687.44 180.99 C 688.18 184.80 683.10 189.31 679.78 186.24 C 676.21 184.33 676.83 178.83 680.39 177.31 Z" />
<path fill="#010000" stroke="#010000" stroke-width="0.09375" opacity="1.00" d=" M 663.37 186.39 C 669.32 183.59 676.55 191.77 672.11 197.06 C 670.12 200.83 664.96 200.34 662.08 197.96 C 658.12 195.19 659.04 188.32 663.37 186.39 Z" />
<path fill="#010000" stroke="#010000" stroke-width="0.09375" opacity="1.00" d=" M 763.26 195.27 C 768.37 193.07 774.86 199.63 771.59 204.52 C 769.66 208.39 763.88 209.23 761.02 205.97 C 757.77 202.97 758.91 196.60 763.26 195.27 Z" />
<path fill="#010000" stroke="#010000" stroke-width="0.09375" opacity="1.00" d=" M 688.20 198.98 C 691.20 197.42 696.27 200.21 695.34 203.93 C 694.83 207.28 690.51 209.77 687.68 207.33 C 684.49 205.52 685.31 200.65 688.20 198.98 Z" />
<path fill="#010000" stroke="#010000" stroke-width="0.09375" opacity="1.00" d=" M 739.45 230.50 C 744.48 226.86 749.92 235.70 744.81 238.89 C 739.73 242.46 734.08 233.85 739.45 230.50 Z" />
<path fill="#010000" stroke="#010000" stroke-width="0.09375" opacity="1.00" d=" M 709.44 239.51 C 712.77 237.54 717.74 239.58 718.73 243.32 C 719.65 248.15 713.52 252.88 709.29 249.82 C 705.51 247.62 705.41 241.49 709.44 239.51 Z" />
<path fill="#010000" stroke="#010000" stroke-width="0.09375" opacity="1.00" d=" M 792.36 242.39 C 795.60 241.67 799.81 245.28 797.72 248.56 C 796.48 251.69 792.11 252.72 789.80 250.18 C 786.96 247.82 789.01 242.87 792.36 242.39 Z" />
<path fill="#010000" stroke="#010000" stroke-width="0.09375" opacity="1.00" d=" M 727.37 249.38 C 736.49 246.57 739.45 261.15 730.97 263.30 C 722.32 265.42 718.78 251.44 727.37 249.38 Z" />
<path fill="#010000" stroke="#010000" stroke-width="0.09375" opacity="1.00" d=" M 746.47 255.36 C 750.13 252.57 755.68 255.72 756.20 260.03 C 755.90 263.55 752.84 267.32 748.98 266.45 C 743.75 265.79 741.79 258.20 746.47 255.36 Z" />
<path fill="#010000" stroke="#010000" stroke-width="0.09375" opacity="1.00" d=" M 365.41 271.34 C 369.32 269.16 374.99 271.10 376.51 275.39 C 378.82 280.68 372.54 287.25 367.15 284.80 C 361.17 283.36 359.63 274.11 365.41 271.34 Z" />
<path fill="#010000" stroke="#010000" stroke-width="0.09375" opacity="1.00" d=" M 230.28 321.23 C 235.43 318.67 242.19 325.54 238.55 330.43 C 236.40 334.42 230.68 334.33 227.94 331.06 C 225.02 328.02 226.53 322.79 230.28 321.23 Z" />
<path fill="#010000" stroke="#010000" stroke-width="0.09375" opacity="1.00" d=" M 287.34 321.27 C 290.45 319.81 295.20 321.51 295.77 325.19 C 296.51 330.05 289.81 334.57 285.87 331.08 C 282.55 328.50 283.72 322.96 287.34 321.27 Z" />
<path fill="#010000" stroke="#010000" stroke-width="0.09375" opacity="1.00" d=" M 327.47 324.49 C 331.60 323.35 337.15 326.91 335.58 331.59 C 334.53 336.51 327.27 337.27 324.53 333.44 C 321.92 330.56 324.01 325.57 327.47 324.49 Z" />
<path fill="#010000" stroke="#010000" stroke-width="0.09375" opacity="1.00" d=" M 282.20 355.92 C 283.34 344.34 293.89 333.39 305.99 334.48 C 312.73 335.03 316.86 340.84 320.23 346.01 C 328.99 340.31 341.27 340.18 350.01 346.00 C 358.77 352.29 361.05 365.51 355.69 374.71 C 353.41 379.54 348.56 382.48 346.09 387.12 C 344.80 393.73 345.26 400.85 341.90 406.94 C 336.92 417.26 323.61 423.09 312.93 418.10 C 308.07 416.30 304.96 412.03 301.54 408.40 C 298.34 406.08 294.07 406.77 290.35 406.32 C 290.77 406.65 291.59 407.30 292.00 407.63 C 292.64 412.16 289.49 417.47 284.30 415.68 C 278.72 413.97 280.51 406.74 284.39 404.11 C 274.73 400.78 268.11 389.98 270.97 379.91 C 272.21 373.69 277.16 369.44 281.85 365.67 C 282.70 362.51 281.84 359.15 282.20 355.92 M 300.34 346.38 C 291.51 349.84 291.51 360.51 293.69 368.25 C 295.46 374.04 288.23 375.27 284.73 377.73 C 279.94 380.73 279.94 388.31 284.28 391.74 C 290.05 397.56 299.14 394.34 305.76 398.18 C 309.45 400.86 311.25 405.62 315.57 407.54 C 320.20 409.77 326.93 409.72 330.13 405.13 C 334.86 399.33 334.23 391.50 335.66 384.59 C 336.86 376.10 347.81 372.97 347.91 364.02 C 348.38 353.63 334.22 349.14 326.74 354.75 C 323.61 357.06 319.45 362.66 315.51 358.49 C 311.98 353.13 308.89 342.59 300.34 346.38 Z" />
<path fill="#010000" stroke="#010000" stroke-width="0.09375" opacity="1.00" d=" M 726.30 342.31 C 735.35 338.58 739.86 354.36 730.61 356.55 C 721.95 358.86 717.94 345.27 726.30 342.31 Z" />
<path fill="#010000" stroke="#010000" stroke-width="0.09375" opacity="1.00" d=" M 258.37 355.37 C 264.68 351.80 270.76 361.64 264.41 365.47 C 258.22 370.68 251.06 358.79 258.37 355.37 Z" />
<path fill="#010000" stroke="#010000" stroke-width="0.09375" opacity="1.00" d=" M 313.36 377.36 C 316.08 376.75 319.31 378.24 319.86 381.16 C 320.79 385.16 315.21 388.75 312.00 385.97 C 308.38 384.13 309.89 378.38 313.36 377.36 Z" />
<path fill="#010000" stroke="#010000" stroke-width="0.09375" opacity="1.00" d=" M 360.29 395.26 C 367.01 392.54 371.52 402.91 365.01 406.08 C 358.36 409.80 353.09 397.95 360.29 395.26 Z" />
<path fill="#010000" stroke="#010000" stroke-width="0.09375" opacity="1.00" d=" M 342.38 421.41 C 349.71 418.79 353.24 430.77 345.60 432.47 C 338.44 434.69 335.23 423.32 342.38 421.41 Z" />
<path fill="#010000" stroke="#010000" stroke-width="0.09375" opacity="1.00" d=" M 304.21 431.11 C 307.72 429.37 312.75 432.00 312.79 436.10 C 313.15 440.39 307.42 444.13 303.98 440.94 C 300.24 438.88 300.31 432.94 304.21 431.11 Z" />
<path fill="#010000" stroke="#010000" stroke-width="0.09375" opacity="1.00" d=" M 327.45 501.50 C 331.51 498.70 338.32 502.95 337.07 507.97 C 336.80 512.42 331.14 514.75 327.59 512.36 C 323.54 510.26 323.94 503.92 327.45 501.50 Z" />
<path fill="#010000" stroke="#010000" stroke-width="0.09375" opacity="1.00" d=" M 450.37 510.37 C 455.22 508.08 461.74 510.82 463.10 516.10 C 465.08 522.32 458.41 529.27 452.09 527.06 C 444.64 525.24 443.21 513.54 450.37 510.37 Z" />
<path fill="#010000" stroke="#010000" stroke-width="0.09375" opacity="1.00" d=" M 522.39 555.34 C 525.35 553.57 529.37 555.05 530.94 558.01 C 534.21 562.55 528.09 569.60 523.16 566.95 C 518.68 565.02 518.37 557.84 522.39 555.34 Z" />
<path fill="#010000" stroke="#010000" stroke-width="0.09375" opacity="1.00" d=" M 552.37 570.36 C 556.90 568.98 561.61 573.35 560.91 577.95 C 560.79 582.99 554.06 586.24 550.19 582.82 C 545.42 579.76 546.79 571.56 552.37 570.36 Z" />
<path fill="#010000" stroke="#010000" stroke-width="0.09375" opacity="1.00" d=" M 406.29 607.37 C 411.83 604.82 417.97 611.38 415.77 616.76 C 413.72 621.35 406.76 622.32 403.69 618.25 C 400.44 614.99 402.06 608.89 406.29 607.37 Z" />
<path fill="#010000" stroke="#010000" stroke-width="0.09375" opacity="1.00" d=" M 434.35 615.41 C 442.95 612.33 448.06 626.51 439.41 629.50 C 430.72 632.65 425.59 618.39 434.35 615.41 Z" />
<path fill="#010000" stroke="#010000" stroke-width="0.09375" opacity="1.00" d=" M 454.26 628.14 C 456.78 627.83 459.67 628.88 460.71 631.36 C 461.66 634.96 457.76 639.33 454.18 636.91 C 449.91 635.68 450.50 629.56 454.26 628.14 Z" />
<path fill="#010000" stroke="#010000" stroke-width="0.09375" opacity="1.00" d=" M 477.41 643.25 C 484.83 638.97 491.93 650.11 485.39 655.40 C 477.80 660.64 469.30 648.08 477.41 643.25 Z" />
<path fill="#010000" stroke="#010000" stroke-width="0.09375" opacity="1.00" d=" M 498.23 660.28 C 501.35 659.12 505.20 660.05 506.87 663.09 C 510.72 668.13 503.72 676.47 498.22 672.89 C 493.03 670.78 492.87 662.20 498.23 660.28 Z" />
<path fill="#010000" stroke="#010000" stroke-width="0.09375" opacity="1.00" d=" M 510.31 676.02 C 512.89 676.06 516.13 675.77 517.64 678.38 C 520.26 682.75 514.77 688.59 510.28 685.89 C 506.17 683.94 507.43 678.49 510.31 676.02 Z" />
<path fill="#010000" stroke="#010000" stroke-width="0.09375" opacity="1.00" d=" M 551.55 878.43 C 547.43 876.08 551.82 868.98 555.79 871.26 C 561.15 873.65 566.44 876.96 569.79 881.91 C 568.02 883.63 566.04 887.84 563.07 885.99 C 559.14 883.63 555.41 880.92 551.55 878.43 Z" />
<path fill="#010000" stroke="#010000" stroke-width="0.09375" opacity="1.00" d=" M 550.60 891.48 C 554.08 890.87 557.30 893.01 559.76 895.24 C 562.71 897.50 559.40 901.77 556.66 902.49 C 551.42 902.77 544.86 895.72 550.60 891.48 Z" />
<path fill="#010000" stroke="#010000" stroke-width="0.09375" opacity="1.00" d=" M 529.33 906.23 C 533.90 906.15 537.49 909.65 541.46 911.49 C 544.28 913.32 548.78 914.91 548.86 918.85 C 547.62 921.67 543.75 924.94 540.87 922.16 C 536.74 918.78 531.91 916.47 527.62 913.36 C 524.56 911.42 526.98 907.54 529.33 906.23 Z" />
<path fill="#010000" stroke="#010000" stroke-width="0.09375" opacity="1.00" d=" M 523.28 927.15 C 528.70 925.44 533.45 930.63 537.50 933.62 C 539.13 937.89 532.72 942.25 529.44 938.61 C 526.10 935.89 517.77 931.95 523.28 927.15 Z" />
</g>
</svg>
