<?xml version="1.0" encoding="UTF-8" ?>
<!DOCTYPE svg PUBLIC "-//W3C//DTD SVG 1.1//EN" "http://www.w3.org/Graphics/SVG/1.1/DTD/svg11.dtd">
<svg width="1024pt" height="1024pt" viewBox="0 0 1024 1024" version="1.1" xmlns="http://www.w3.org/2000/svg">
<g id="#fcfefeff">
<path fill="#fcfefe" stroke="#fcfefe" stroke-width="0.09375" opacity="1.00" d=" M 0.00 0.00 L 1024.00 0.00 L 1024.00 1024.00 L 0.00 1024.00 L 0.00 0.00 M 211.92 155.91 C 202.81 167.48 199.69 182.55 199.87 197.00 C 200.06 225.02 199.41 253.05 200.15 281.05 C 200.54 298.94 210.08 316.09 224.54 326.48 C 237.85 336.19 250.90 346.27 264.55 355.49 C 276.13 363.25 290.11 366.68 303.96 366.49 C 361.75 366.56 419.53 366.72 477.32 366.41 C 439.69 422.12 402.01 477.81 364.77 533.79 C 337.91 572.43 312.29 611.90 285.92 650.87 C 282.60 655.86 279.12 660.77 275.01 665.14 C 262.75 665.26 250.10 664.14 238.32 668.28 C 215.22 675.47 200.68 699.41 200.53 722.94 C 200.34 754.98 200.25 787.03 200.52 819.08 C 200.79 837.63 211.16 855.46 227.16 864.85 C 238.48 871.35 249.70 878.10 261.65 883.38 C 275.86 889.68 291.68 890.43 306.99 890.10 C 448.99 890.04 590.99 890.17 732.99 890.05 C 768.87 889.70 801.20 864.53 815.21 832.27 C 824.45 811.67 825.34 788.48 823.77 766.29 C 822.74 752.22 816.46 738.52 805.60 729.35 C 792.12 718.10 775.48 711.55 760.71 702.35 C 750.79 688.58 733.59 681.74 716.97 681.63 C 661.88 681.48 606.79 681.68 551.71 681.51 C 632.93 565.29 715.44 449.97 797.07 334.04 C 806.82 319.89 817.91 306.33 824.19 290.15 C 831.88 271.48 832.61 250.89 831.89 230.98 C 831.43 215.37 828.03 199.24 818.42 186.57 C 807.24 171.40 789.07 164.46 774.21 153.80 C 762.21 140.88 744.74 133.06 727.00 133.91 C 570.34 133.99 413.67 133.89 257.01 133.95 C 239.75 134.00 222.04 141.56 211.92 155.91 Z" />
<path fill="#fcfefe" stroke="#fcfefe" stroke-width="0.09375" opacity="1.00" d=" M 219.77 188.01 C 220.25 169.52 236.08 152.45 255.01 152.78 C 412.99 152.55 570.99 152.76 728.98 152.66 C 742.30 152.47 756.68 159.81 760.88 173.12 C 765.77 188.91 763.99 205.70 764.21 221.98 C 764.74 242.64 755.61 262.26 743.64 278.61 C 712.60 324.51 680.64 369.77 649.93 415.89 C 593.03 497.09 538.12 579.66 483.06 662.11 C 478.54 668.65 473.53 676.54 476.15 684.81 C 479.01 695.37 490.81 700.50 500.99 699.93 C 566.66 700.03 632.33 699.80 697.99 700.12 C 709.20 700.47 721.16 698.23 731.60 703.46 C 742.93 708.99 748.97 721.73 748.99 733.97 C 749.38 755.66 749.29 777.38 748.73 799.07 C 748.29 814.41 739.85 829.99 725.73 836.76 C 716.50 841.31 705.96 840.28 696.01 840.26 C 555.98 840.26 415.96 840.22 275.94 840.29 C 267.93 839.92 262.31 847.35 263.32 855.01 C 248.37 853.96 232.07 848.39 224.64 834.36 C 220.73 827.62 219.69 819.67 219.79 812.00 C 219.95 783.00 219.75 754.00 219.93 725.00 C 219.76 708.76 229.14 691.76 244.70 685.77 C 256.35 681.72 268.95 685.14 280.86 682.89 C 289.05 681.08 293.85 673.62 298.11 667.07 C 332.58 614.70 368.06 563.00 402.78 510.80 C 433.92 464.01 465.95 417.81 496.88 370.88 C 504.70 359.40 512.94 348.20 520.53 336.56 C 523.82 331.14 527.29 324.57 524.87 318.12 C 523.11 312.25 516.88 309.15 511.07 309.18 C 424.05 309.20 337.03 309.07 250.00 309.24 C 242.72 309.30 235.07 307.41 229.58 302.38 C 222.30 295.74 219.19 285.65 219.48 275.99 C 219.63 246.66 219.27 217.33 219.77 188.01 M 240.63 196.99 C 240.62 221.33 240.57 245.68 240.55 270.02 C 240.82 282.30 253.07 291.64 265.00 289.85 C 363.68 289.38 462.37 290.27 561.03 289.35 C 555.49 298.49 548.20 306.45 542.46 315.43 C 539.49 321.47 547.78 326.81 552.43 322.44 C 564.74 310.30 573.64 295.12 586.01 283.01 C 589.20 280.56 589.63 275.10 585.66 273.21 C 580.50 271.82 575.07 273.13 569.83 273.37 C 582.68 252.19 594.89 230.61 606.90 208.94 C 610.53 202.74 613.80 196.28 618.19 190.56 C 649.48 190.35 680.78 190.60 712.07 190.45 C 716.63 190.02 719.77 193.70 721.83 197.27 C 719.04 199.49 715.88 201.16 712.71 202.76 C 689.58 215.17 666.98 228.87 646.89 245.86 C 633.36 257.65 621.16 270.93 610.06 285.03 C 577.16 327.01 546.25 370.50 514.08 413.04 C 493.43 442.03 469.53 468.44 446.69 495.67 C 427.41 519.99 406.80 543.24 387.74 567.73 C 364.06 604.31 338.99 639.98 316.12 677.09 C 309.93 686.26 304.76 697.23 294.39 702.40 C 282.55 708.09 269.06 703.44 256.60 705.67 C 248.09 708.06 242.80 716.73 241.43 725.03 C 240.96 751.35 241.57 777.70 240.73 804.02 C 239.97 813.43 248.83 821.16 257.91 820.80 C 406.30 820.77 554.69 820.77 703.07 820.74 C 714.19 821.08 725.68 812.72 726.08 801.06 C 726.56 781.05 726.43 761.02 726.48 741.01 C 726.59 730.07 716.94 720.93 706.10 721.16 C 643.74 721.10 581.36 721.20 518.99 721.10 C 506.55 721.00 494.04 721.64 481.64 720.45 C 467.07 719.03 453.53 708.19 450.48 693.62 C 447.86 684.36 450.10 674.37 455.51 666.55 C 518.78 570.19 583.99 475.13 648.89 379.87 C 676.74 338.69 705.60 298.14 731.85 255.92 C 739.89 241.64 738.71 224.78 738.88 209.00 C 738.74 200.51 739.61 191.36 735.28 183.66 C 731.25 176.60 722.90 173.33 715.09 173.14 C 563.69 173.22 412.30 173.13 260.90 173.24 C 248.75 173.18 240.71 185.87 240.63 196.99 M 752.26 189.11 C 750.36 189.83 749.22 191.87 749.30 193.85 C 749.79 204.57 749.67 215.30 749.47 226.03 C 749.45 228.85 748.63 232.73 751.81 234.23 C 754.75 236.20 758.62 233.46 758.22 230.08 C 758.02 218.36 758.10 206.63 758.05 194.92 C 758.34 191.81 755.79 187.63 752.26 189.11 M 532.42 338.30 C 527.71 341.70 525.17 347.14 521.47 351.48 C 514.16 361.53 506.35 371.24 499.49 381.60 C 496.21 385.45 500.35 391.22 504.99 390.39 C 508.83 389.19 511.21 385.62 513.71 382.70 C 522.64 371.23 531.57 359.70 539.73 347.69 C 543.42 342.97 538.08 334.98 532.42 338.30 M 488.46 406.49 C 481.68 412.07 477.43 420.09 471.71 426.69 C 468.73 431.18 463.35 435.09 463.71 440.97 C 465.28 445.93 472.24 445.98 474.87 441.91 C 481.97 432.95 489.18 424.02 495.70 414.62 C 499.34 410.23 493.28 403.40 488.46 406.49 M 450.57 460.62 C 443.54 465.87 438.90 473.82 433.84 480.89 C 429.98 485.86 438.26 491.45 442.07 487.08 C 447.40 481.31 452.05 474.90 456.67 468.55 C 459.54 464.82 454.90 458.88 450.57 460.62 M 229.52 815.39 C 227.05 817.24 227.32 820.81 228.81 823.21 C 233.95 832.73 242.47 840.24 252.11 845.00 C 255.64 847.16 260.58 842.11 258.39 838.67 C 255.01 835.43 250.19 834.37 246.53 831.52 C 241.22 827.95 237.99 822.27 235.44 816.58 C 234.65 814.07 231.26 813.64 229.52 815.39 Z" />
<path fill="#fcfefe" stroke="#fcfefe" stroke-width="0.09375" opacity="1.00" d=" M 783.05 181.50 C 788.65 185.34 794.42 189.21 798.35 194.89 C 793.52 190.17 783.00 189.55 783.05 181.50 Z" />
<path fill="#fcfefe" stroke="#fcfefe" stroke-width="0.09375" opacity="1.00" d=" M 264.35 190.59 C 272.04 190.20 279.76 190.33 287.46 190.33 C 289.32 196.08 290.46 204.76 283.93 207.93 C 274.85 210.89 264.57 212.44 257.85 219.96 C 258.30 212.68 257.81 205.38 258.31 198.11 C 258.43 194.70 260.59 190.79 264.35 190.59 Z" />
<path fill="#fcfefe" stroke="#fcfefe" stroke-width="0.09375" opacity="1.00" d=" M 336.20 190.26 C 342.56 190.23 348.91 190.26 355.27 190.44 C 367.03 216.50 362.50 247.31 351.24 272.77 C 345.88 273.33 340.50 272.96 335.13 272.86 C 347.71 247.28 349.87 215.88 336.20 190.26 Z" />
<path fill="#fcfefe" stroke="#fcfefe" stroke-width="0.09375" opacity="1.00" d=" M 373.59 190.39 C 389.96 190.36 406.34 190.59 422.71 190.31 C 426.89 200.65 426.51 212.05 426.10 222.98 C 424.72 240.21 420.32 257.29 412.67 272.81 C 398.01 272.99 383.35 272.98 368.69 273.13 C 378.68 246.86 381.31 217.62 373.59 190.39 Z" />
<path fill="#fcfefe" stroke="#fcfefe" stroke-width="0.09375" opacity="1.00" d=" M 441.42 190.37 C 450.01 190.31 458.61 190.28 467.20 190.50 C 475.68 217.24 473.55 246.86 463.08 272.75 C 452.17 273.05 441.25 272.97 430.33 273.11 C 440.32 246.86 446.11 218.43 441.42 190.37 Z" />
<path fill="#fcfefe" stroke="#fcfefe" stroke-width="0.09375" opacity="1.00" d=" M 484.91 190.41 C 500.36 190.68 515.82 190.18 531.26 190.63 C 528.87 197.13 525.53 203.21 522.38 209.36 C 512.60 229.88 505.00 251.33 497.50 272.76 C 491.72 272.94 485.94 272.89 480.16 272.97 C 488.91 246.44 490.71 217.77 484.91 190.41 Z" />
<path fill="#fcfefe" stroke="#fcfefe" stroke-width="0.09375" opacity="1.00" d=" M 550.77 190.50 C 566.85 190.28 582.93 190.74 599.01 190.43 C 583.32 218.06 568.96 246.59 550.95 272.80 C 538.79 273.12 526.63 272.71 514.48 273.19 C 524.13 244.70 534.31 215.88 550.77 190.50 Z" />
<path fill="#fcfefe" stroke="#fcfefe" stroke-width="0.09375" opacity="1.00" d=" M 302.60 190.50 C 306.84 190.46 311.07 190.32 315.31 190.32 C 322.28 198.34 327.47 208.34 328.51 219.01 C 329.22 227.09 323.70 234.08 317.44 238.48 C 306.93 245.73 293.08 245.25 282.68 252.67 C 276.13 257.65 272.21 265.33 270.70 273.30 C 267.11 272.65 261.58 274.41 259.84 270.13 C 256.68 262.86 258.15 254.68 257.91 246.99 C 257.70 239.61 260.42 231.98 266.33 227.32 C 275.31 219.45 289.56 221.90 297.60 212.57 C 303.17 206.67 303.03 198.06 302.60 190.50 Z" />
<path fill="#fcfefe" stroke="#fcfefe" stroke-width="0.09375" opacity="1.00" d=" M 784.01 192.93 C 788.98 196.19 794.19 199.08 799.75 201.23 C 804.54 202.82 805.64 208.21 807.19 212.37 C 799.65 208.46 792.49 203.84 784.86 200.14 C 783.43 198.25 784.34 195.24 784.01 192.93 Z" />
<path fill="#fcfefe" stroke="#fcfefe" stroke-width="0.09375" opacity="1.00" d=" M 784.18 207.25 C 791.84 210.61 798.96 215.05 806.63 218.41 C 810.89 219.67 809.30 225.04 809.93 228.36 C 801.41 223.66 793.02 218.67 784.13 214.70 C 784.12 212.21 784.14 209.73 784.18 207.25 Z" />
<path fill="#fcfefe" stroke="#fcfefe" stroke-width="0.09375" opacity="1.00" d=" M 630.56 285.80 C 655.43 256.63 687.31 233.98 721.43 216.87 C 721.66 234.43 715.38 253.09 700.54 263.53 C 681.06 280.08 654.53 281.33 630.56 285.80 Z" />
<path fill="#fcfefe" stroke="#fcfefe" stroke-width="0.09375" opacity="1.00" d=" M 784.07 222.03 C 792.46 225.81 800.50 230.30 808.76 234.35 C 811.72 235.60 810.43 239.47 810.89 241.98 C 801.95 237.18 792.95 232.48 784.09 227.56 C 783.79 225.73 783.99 223.87 784.07 222.03 Z" />
<path fill="#fcfefe" stroke="#fcfefe" stroke-width="0.09375" opacity="1.00" d=" M 783.55 234.69 C 792.29 239.90 801.50 244.25 810.57 248.85 C 810.39 252.04 810.03 255.21 809.61 258.37 C 800.74 252.97 791.56 248.08 782.40 243.20 C 782.79 240.36 783.17 237.52 783.55 234.69 Z" />
<path fill="#fcfefe" stroke="#fcfefe" stroke-width="0.09375" opacity="1.00" d=" M 298.41 258.46 C 309.51 255.66 320.68 251.81 329.20 243.82 C 326.06 253.88 323.02 264.81 315.80 272.70 C 305.68 273.55 295.47 272.90 285.32 273.13 C 287.03 266.53 291.62 260.34 298.41 258.46 Z" />
<path fill="#fcfefe" stroke="#fcfefe" stroke-width="0.09375" opacity="1.00" d=" M 781.05 249.19 C 789.97 254.82 799.38 259.62 808.64 264.65 C 808.05 267.23 807.42 269.80 806.69 272.34 C 797.61 266.72 788.35 261.27 778.75 256.58 C 779.49 254.11 780.26 251.65 781.05 249.19 Z" />
<path fill="#fcfefe" stroke="#fcfefe" stroke-width="0.09375" opacity="1.00" d=" M 773.86 268.89 C 774.79 266.76 775.77 264.65 776.78 262.55 C 786.13 267.59 794.93 273.57 804.44 278.31 C 803.87 280.06 803.24 281.79 802.56 283.49 C 793.06 278.50 783.37 273.86 773.86 268.89 Z" />
<path fill="#fcfefe" stroke="#fcfefe" stroke-width="0.09375" opacity="1.00" d=" M 771.26 274.70 C 780.42 280.20 790.18 284.63 799.60 289.68 C 798.34 291.37 797.08 293.07 795.83 294.77 C 786.77 289.46 777.14 285.16 767.69 280.57 C 768.83 278.58 770.03 276.63 771.26 274.70 Z" />
<path fill="#fcfefe" stroke="#fcfefe" stroke-width="0.09375" opacity="1.00" d=" M 759.17 292.17 C 760.76 289.98 762.39 287.82 764.03 285.66 C 773.54 290.78 782.96 296.19 792.96 300.29 C 791.21 302.39 789.62 304.61 788.06 306.85 C 778.80 301.25 768.86 296.93 759.17 292.17 Z" />
<path fill="#fcfefe" stroke="#fcfefe" stroke-width="0.09375" opacity="1.00" d=" M 614.47 306.40 C 638.88 296.90 666.32 298.97 690.39 288.27 C 679.44 304.01 669.08 320.31 657.93 335.82 C 632.93 334.21 607.74 337.88 584.18 346.39 C 594.26 333.05 604.35 319.70 614.47 306.40 Z" />
<path fill="#fcfefe" stroke="#fcfefe" stroke-width="0.09375" opacity="1.00" d=" M 750.84 304.19 C 752.42 301.81 754.02 299.45 755.68 297.13 C 765.01 302.62 774.91 307.07 784.47 312.13 C 782.92 314.57 781.25 316.93 779.47 319.21 C 770.24 313.63 760.33 309.28 750.84 304.19 Z" />
<path fill="#fcfefe" stroke="#fcfefe" stroke-width="0.09375" opacity="1.00" d=" M 742.10 316.46 C 743.73 314.09 745.34 311.70 746.96 309.31 C 756.58 314.59 766.03 320.31 776.13 324.65 C 774.34 327.01 772.60 329.41 770.87 331.81 C 761.48 326.31 751.51 321.91 742.10 316.46 Z" />
<path fill="#fcfefe" stroke="#fcfefe" stroke-width="0.09375" opacity="1.00" d=" M 734.06 328.07 C 735.42 325.87 736.88 323.73 738.44 321.67 C 747.66 327.56 757.69 332.07 767.34 337.21 C 765.66 339.49 763.93 341.73 762.21 343.98 C 753.31 337.87 743.40 333.45 734.06 328.07 Z" />
<path fill="#fcfefe" stroke="#fcfefe" stroke-width="0.09375" opacity="1.00" d=" M 265.98 327.37 C 267.67 327.25 269.36 327.14 271.05 327.03 C 274.24 331.06 277.33 335.16 280.21 339.42 C 275.28 335.63 270.32 331.84 265.98 327.37 Z" />
<path fill="#fcfefe" stroke="#fcfefe" stroke-width="0.09375" opacity="1.00" d=" M 280.65 326.79 C 283.77 326.81 286.90 326.82 290.03 326.86 C 295.21 333.68 300.91 340.07 306.12 346.86 C 301.71 346.41 296.29 347.72 292.95 344.00 C 288.00 338.95 283.96 333.02 280.65 326.79 Z" />
<path fill="#fcfefe" stroke="#fcfefe" stroke-width="0.09375" opacity="1.00" d=" M 300.61 327.29 C 304.53 327.04 308.89 326.03 312.59 327.43 C 318.08 333.31 322.37 340.20 327.45 346.43 C 323.98 346.44 320.51 346.57 317.05 346.77 C 310.65 341.14 305.10 334.54 300.61 327.29 Z" />
<path fill="#fcfefe" stroke="#fcfefe" stroke-width="0.09375" opacity="1.00" d=" M 323.04 326.80 C 328.10 327.38 334.76 324.83 338.32 329.64 C 343.04 334.97 347.50 340.55 351.51 346.44 C 347.23 346.33 342.77 347.33 338.60 346.32 C 331.97 341.20 327.29 333.92 323.04 326.80 Z" />
<path fill="#fcfefe" stroke="#fcfefe" stroke-width="0.09375" opacity="1.00" d=" M 346.92 326.86 C 352.49 327.65 360.26 324.38 363.92 330.03 C 367.83 335.24 371.59 340.61 374.52 346.44 C 369.73 345.86 363.30 348.84 360.05 344.01 C 355.35 338.56 350.81 332.92 346.92 326.86 Z" />
<path fill="#fcfefe" stroke="#fcfefe" stroke-width="0.09375" opacity="1.00" d=" M 371.85 327.36 C 375.72 327.08 379.72 326.22 383.55 327.24 C 388.61 332.76 392.32 339.51 394.68 346.60 C 391.31 346.64 387.94 346.60 384.57 346.55 C 379.98 340.39 375.96 333.83 371.85 327.36 Z" />
<path fill="#fcfefe" stroke="#fcfefe" stroke-width="0.09375" opacity="1.00" d=" M 393.90 327.40 C 397.97 327.59 404.33 324.51 406.29 329.68 C 409.26 335.07 412.13 340.53 414.36 346.27 C 410.89 346.30 407.42 346.33 403.96 346.23 C 400.98 339.75 397.51 333.53 393.90 327.40 Z" />
<path fill="#fcfefe" stroke="#fcfefe" stroke-width="0.09375" opacity="1.00" d=" M 414.23 326.73 C 416.95 326.67 419.68 326.65 422.41 326.62 C 425.20 333.18 428.40 339.62 430.21 346.55 C 428.11 346.49 426.01 346.43 423.92 346.38 C 421.15 339.61 417.32 333.35 414.23 326.73 Z" />
<path fill="#fcfefe" stroke="#fcfefe" stroke-width="0.09375" opacity="1.00" d=" M 431.82 326.73 C 434.86 326.69 437.90 326.72 440.95 326.83 C 444.13 333.26 447.10 339.82 449.25 346.68 C 445.97 346.56 442.69 346.51 439.42 346.49 C 436.93 339.88 434.41 333.29 431.82 326.73 Z" />
<path fill="#fcfefe" stroke="#fcfefe" stroke-width="0.09375" opacity="1.00" d=" M 450.91 326.82 C 454.75 326.78 458.59 326.78 462.44 326.88 C 465.67 333.22 468.77 339.63 471.19 346.34 C 467.19 346.29 463.17 346.88 459.18 346.41 C 455.74 340.21 453.21 333.52 450.91 326.82 Z" />
<path fill="#fcfefe" stroke="#fcfefe" stroke-width="0.09375" opacity="1.00" d=" M 471.99 326.83 C 476.80 326.81 481.61 326.69 486.42 326.69 C 488.21 332.53 495.98 338.37 491.47 344.51 C 489.33 348.27 484.16 346.34 480.69 346.19 C 476.99 340.15 474.94 333.25 471.99 326.83 Z" />
<path fill="#fcfefe" stroke="#fcfefe" stroke-width="0.09375" opacity="1.00" d=" M 496.24 326.76 C 498.47 326.74 500.71 326.76 502.95 326.80 C 502.21 329.42 501.32 332.00 500.31 334.54 C 498.83 332.01 497.47 329.41 496.24 326.76 Z" />
<path fill="#fcfefe" stroke="#fcfefe" stroke-width="0.09375" opacity="1.00" d=" M 730.58 333.12 C 739.72 338.83 749.15 344.12 758.86 348.80 C 757.64 350.84 756.40 352.86 755.06 354.82 C 745.68 349.24 735.84 344.53 726.14 339.54 C 727.58 337.37 729.07 335.23 730.58 333.12 Z" />
<path fill="#fcfefe" stroke="#fcfefe" stroke-width="0.09375" opacity="1.00" d=" M 717.49 352.90 C 719.10 350.13 720.85 347.44 722.69 344.82 C 731.78 350.63 741.63 355.10 750.99 360.46 C 749.10 362.93 747.23 365.39 745.33 367.84 C 736.16 362.66 726.70 358.00 717.49 352.90 Z" />
<path fill="#fcfefe" stroke="#fcfefe" stroke-width="0.09375" opacity="1.00" d=" M 568.07 368.14 C 593.27 359.26 619.53 350.69 646.63 351.79 C 632.60 373.28 618.15 394.53 603.57 415.65 C 578.64 409.76 552.23 412.59 528.39 421.54 C 542.35 404.30 554.60 385.69 568.07 368.14 Z" />
<path fill="#fcfefe" stroke="#fcfefe" stroke-width="0.09375" opacity="1.00" d=" M 707.82 365.87 C 709.79 363.28 711.70 360.65 713.64 358.05 C 722.96 363.23 732.15 368.67 741.86 373.11 C 740.16 375.77 738.29 378.31 736.31 380.76 C 726.84 375.74 716.99 371.42 707.82 365.87 Z" />
<path fill="#fcfefe" stroke="#fcfefe" stroke-width="0.09375" opacity="1.00" d=" M 700.07 378.51 C 701.37 376.09 702.77 373.73 704.29 371.44 C 713.57 376.97 723.23 381.83 732.94 386.54 C 731.12 388.64 729.34 390.77 727.57 392.90 C 718.76 387.49 709.36 383.04 700.07 378.51 Z" />
<path fill="#fcfefe" stroke="#fcfefe" stroke-width="0.09375" opacity="1.00" d=" M 691.81 390.44 C 693.19 388.09 694.58 385.76 696.01 383.44 C 705.36 388.55 714.69 393.72 724.47 397.99 C 722.80 400.32 721.02 402.55 719.28 404.83 C 710.44 399.45 701.01 395.15 691.81 390.44 Z" />
<path fill="#fcfefe" stroke="#fcfefe" stroke-width="0.09375" opacity="1.00" d=" M 688.20 395.65 C 697.34 400.83 706.64 405.72 716.00 410.49 C 714.00 413.10 711.90 415.64 709.94 418.28 C 701.05 413.08 692.10 407.90 682.80 403.46 C 684.51 400.80 686.30 398.19 688.20 395.65 Z" />
<path fill="#fcfefe" stroke="#fcfefe" stroke-width="0.09375" opacity="1.00" d=" M 678.89 408.05 C 687.66 413.95 697.17 418.60 706.44 423.64 C 704.60 426.34 702.72 429.02 700.81 431.67 C 691.80 426.61 682.91 421.36 673.85 416.39 C 675.64 413.68 677.24 410.85 678.89 408.05 Z" />
<path fill="#fcfefe" stroke="#fcfefe" stroke-width="0.09375" opacity="1.00" d=" M 669.90 421.72 C 679.13 426.49 687.61 432.68 697.13 436.89 C 694.73 440.33 692.28 443.74 689.62 446.98 C 680.43 442.16 671.09 437.58 662.32 432.04 C 665.01 428.72 667.52 425.26 669.90 421.72 Z" />
<path fill="#fcfefe" stroke="#fcfefe" stroke-width="0.09375" opacity="1.00" d=" M 527.40 438.42 C 547.99 430.07 570.86 426.91 592.83 430.88 C 581.60 449.14 568.95 466.51 557.14 484.40 C 528.58 479.26 499.15 485.56 473.62 498.78 C 482.63 481.46 494.47 465.77 506.21 450.23 C 510.75 442.84 520.18 441.96 527.40 438.42 Z" />
<path fill="#fcfefe" stroke="#fcfefe" stroke-width="0.09375" opacity="1.00" d=" M 652.35 447.05 C 654.45 443.99 656.62 440.98 658.70 437.89 C 667.65 443.06 676.68 448.09 685.89 452.77 C 683.81 455.45 681.76 458.16 679.71 460.87 C 670.74 455.97 661.28 452.04 652.35 447.05 Z" />
<path fill="#fcfefe" stroke="#fcfefe" stroke-width="0.09375" opacity="1.00" d=" M 641.85 461.80 C 644.11 458.77 646.35 455.73 648.35 452.53 C 657.62 457.10 666.69 462.10 676.17 466.25 C 674.01 468.99 671.85 471.73 669.95 474.65 C 660.64 470.23 651.12 466.28 641.85 461.80 Z" />
<path fill="#fcfefe" stroke="#fcfefe" stroke-width="0.09375" opacity="1.00" d=" M 637.85 467.66 C 647.23 471.83 656.60 476.07 666.17 479.80 C 664.41 482.35 662.69 484.93 660.96 487.51 C 651.71 483.15 642.33 479.02 632.79 475.32 C 634.51 472.79 636.20 470.24 637.85 467.66 Z" />
<path fill="#fcfefe" stroke="#fcfefe" stroke-width="0.09375" opacity="1.00" d=" M 629.15 480.26 C 638.29 485.11 647.76 489.37 657.47 492.96 C 655.14 496.00 652.79 499.03 650.37 502.01 C 641.27 497.60 631.71 494.16 622.71 489.52 C 624.87 486.45 627.01 483.35 629.15 480.26 Z" />
<path fill="#fcfefe" stroke="#fcfefe" stroke-width="0.09375" opacity="1.00" d=" M 618.85 495.19 C 628.35 499.27 637.57 503.97 647.18 507.82 C 644.87 510.51 642.75 513.36 640.82 516.34 C 631.50 512.21 621.81 508.88 612.75 504.19 C 614.68 501.12 616.63 498.06 618.85 495.19 Z" />
<path fill="#fcfefe" stroke="#fcfefe" stroke-width="0.09375" opacity="1.00" d=" M 471.98 516.98 C 494.70 504.85 520.32 496.64 546.35 499.46 C 523.59 533.93 500.24 568.04 477.62 602.60 C 474.32 607.54 470.98 612.44 467.38 617.16 C 454.30 590.91 455.83 559.82 463.11 532.11 C 465.29 526.77 465.91 519.41 471.98 516.98 Z" />
<path fill="#fcfefe" stroke="#fcfefe" stroke-width="0.09375" opacity="1.00" d=" M 603.20 517.78 C 605.17 515.18 607.03 512.50 608.76 509.74 C 618.15 513.89 627.50 518.17 637.04 522.00 C 634.99 524.64 632.90 527.26 631.02 530.03 C 621.95 525.49 612.23 522.40 603.20 517.78 Z" />
<path fill="#fcfefe" stroke="#fcfefe" stroke-width="0.09375" opacity="1.00" d=" M 409.28 567.32 C 423.70 551.01 436.82 533.62 450.83 516.96 C 447.11 530.07 443.99 543.38 442.38 556.93 C 439.75 581.53 443.49 606.97 454.59 629.19 C 433.52 634.83 413.66 644.05 394.00 653.34 C 395.85 626.52 399.36 599.75 405.67 573.59 C 406.16 571.15 407.71 569.17 409.28 567.32 Z" />
<path fill="#fcfefe" stroke="#fcfefe" stroke-width="0.09375" opacity="1.00" d=" M 594.40 531.40 C 596.11 528.69 597.86 526.00 599.75 523.41 C 608.81 527.95 618.17 531.88 627.53 535.71 C 625.78 538.03 624.29 540.53 622.50 542.83 C 612.93 539.58 604.05 534.48 594.40 531.40 Z" />
<path fill="#fcfefe" stroke="#fcfefe" stroke-width="0.09375" opacity="1.00" d=" M 590.71 536.68 C 599.93 540.89 609.06 545.35 618.63 548.70 C 616.42 551.45 614.22 554.22 611.99 556.96 C 603.04 552.99 593.74 549.83 584.91 545.60 C 586.97 542.71 588.93 539.74 590.71 536.68 Z" />
<path fill="#fcfefe" stroke="#fcfefe" stroke-width="0.09375" opacity="1.00" d=" M 581.10 550.95 C 590.26 554.83 599.11 559.47 608.51 562.80 C 606.09 565.52 603.84 568.39 601.78 571.39 C 592.81 567.37 583.50 564.13 574.59 559.98 C 576.92 557.08 579.23 554.17 581.10 550.95 Z" />
<path fill="#fcfefe" stroke="#fcfefe" stroke-width="0.09375" opacity="1.00" d=" M 571.32 565.47 C 580.17 569.58 589.24 573.20 598.20 577.05 C 596.31 579.29 594.48 581.57 592.69 583.89 C 584.17 579.42 574.81 576.93 566.16 572.74 C 567.93 570.35 569.67 567.94 571.32 565.47 Z" />
<path fill="#fcfefe" stroke="#fcfefe" stroke-width="0.09375" opacity="1.00" d=" M 562.18 578.08 C 570.97 582.65 580.46 585.58 589.53 589.50 C 587.71 592.07 585.78 594.56 583.74 596.96 C 574.92 593.19 565.89 589.97 557.01 586.36 C 558.80 583.64 560.44 580.83 562.18 578.08 Z" />
<path fill="#fcfefe" stroke="#fcfefe" stroke-width="0.09375" opacity="1.00" d=" M 553.40 592.11 C 562.54 594.87 570.99 599.62 579.99 602.85 C 577.71 605.87 575.51 608.94 573.49 612.13 C 565.00 608.02 556.10 604.84 547.58 600.80 C 549.33 597.79 550.95 594.62 553.40 592.11 Z" />
<path fill="#fcfefe" stroke="#fcfefe" stroke-width="0.09375" opacity="1.00" d=" M 543.33 606.62 C 552.37 609.69 560.76 614.30 569.66 617.71 C 567.29 621.07 564.68 624.27 562.33 627.65 C 553.62 624.06 544.62 621.17 536.12 617.07 C 538.69 613.70 540.94 610.11 543.33 606.62 Z" />
<path fill="#fcfefe" stroke="#fcfefe" stroke-width="0.09375" opacity="1.00" d=" M 363.63 633.56 C 369.14 624.65 376.61 617.00 382.63 608.39 C 380.26 627.49 377.61 646.76 378.07 666.03 C 378.52 673.30 387.47 673.18 392.29 670.29 C 409.73 663.32 426.83 655.48 444.59 649.31 C 435.33 664.28 425.05 678.61 415.24 693.22 C 390.52 730.10 365.84 767.01 340.98 803.79 C 314.95 804.07 288.92 803.69 262.91 804.12 C 260.95 804.45 259.62 802.92 258.20 801.90 C 274.43 796.22 290.61 789.13 303.48 777.45 C 315.99 765.92 325.68 751.63 333.51 736.61 C 349.66 704.42 358.79 669.11 363.63 633.56 Z" />
<path fill="#fcfefe" stroke="#fcfefe" stroke-width="0.09375" opacity="1.00" d=" M 532.61 623.02 C 541.40 626.18 549.89 630.10 558.50 633.71 C 556.19 636.72 553.97 639.81 551.82 642.95 C 543.16 639.29 534.09 636.61 525.76 632.20 C 528.08 629.17 530.38 626.12 532.61 623.02 Z" />
<path fill="#fcfefe" stroke="#fcfefe" stroke-width="0.09375" opacity="1.00" d=" M 517.56 644.57 C 519.21 642.28 520.85 639.97 522.49 637.67 C 530.81 641.98 539.59 645.37 548.37 648.60 C 546.73 650.69 545.16 652.82 543.64 654.99 C 535.23 650.80 526.05 648.56 517.56 644.57 Z" />
<path fill="#fcfefe" stroke="#fcfefe" stroke-width="0.09375" opacity="1.00" d=" M 513.96 650.07 C 522.41 654.23 531.41 657.06 540.10 660.65 C 538.24 662.96 536.45 665.32 534.71 667.72 C 526.20 664.44 517.65 661.25 509.10 658.03 C 510.60 655.30 512.14 652.60 513.96 650.07 Z" />
<path fill="#fcfefe" stroke="#fcfefe" stroke-width="0.09375" opacity="1.00" d=" M 501.13 669.13 C 502.56 667.18 504.05 665.28 505.63 663.46 C 514.29 666.79 522.73 670.70 531.57 673.51 C 530.28 675.36 528.99 677.21 527.67 679.05 C 518.98 675.32 509.98 672.42 501.13 669.13 Z" />
<path fill="#fcfefe" stroke="#fcfefe" stroke-width="0.09375" opacity="1.00" d=" M 497.25 675.46 C 502.60 677.27 507.85 679.35 513.16 681.27 C 507.67 681.02 502.21 680.40 496.77 679.62 C 496.92 678.22 497.08 676.84 497.25 675.46 Z" />
<path fill="#fcfefe" stroke="#fcfefe" stroke-width="0.09375" opacity="1.00" d=" M 300.49 721.50 C 316.14 710.58 327.09 694.77 337.51 679.11 C 333.89 697.15 326.45 714.11 318.51 730.61 C 306.36 755.30 285.81 777.30 258.59 784.78 C 258.77 771.94 258.46 759.08 259.19 746.25 C 274.57 741.00 288.64 732.63 300.49 721.50 Z" />
<path fill="#fcfefe" stroke="#fcfefe" stroke-width="0.09375" opacity="1.00" d=" M 360.28 803.81 C 384.22 768.29 407.85 732.54 432.28 697.34 C 435.76 716.49 451.27 731.99 470.04 736.53 C 454.73 758.88 439.11 781.03 424.47 803.83 C 415.82 804.14 407.17 803.59 398.53 804.00 C 401.30 801.76 404.10 798.87 403.73 795.00 C 403.54 787.77 393.35 784.14 388.44 789.37 C 383.66 792.62 383.85 799.34 386.75 803.79 C 377.93 803.97 369.10 803.84 360.28 803.81 M 433.29 728.20 C 427.13 730.40 424.88 739.60 430.08 743.91 C 435.06 748.72 444.45 745.60 445.74 738.84 C 447.64 732.08 439.76 725.17 433.29 728.20 M 413.34 757.26 C 405.82 759.47 404.44 770.95 411.19 774.86 C 418.40 779.39 428.27 770.97 425.76 763.16 C 424.43 758.08 418.12 755.04 413.34 757.26 Z" />
<path fill="#fcfefe" stroke="#fcfefe" stroke-width="0.09375" opacity="1.00" d=" M 261.56 722.49 C 266.02 722.17 270.49 721.87 274.96 721.89 C 269.90 724.52 264.70 726.98 259.24 728.65 C 259.94 726.56 260.72 724.52 261.56 722.49 Z" />
<path fill="#fcfefe" stroke="#fcfefe" stroke-width="0.09375" opacity="1.00" d=" M 768.62 729.80 C 779.28 734.82 790.76 740.18 797.07 750.71 C 787.78 745.84 778.48 740.95 768.89 736.71 C 768.79 734.40 768.70 732.09 768.62 729.80 Z" />
<path fill="#fcfefe" stroke="#fcfefe" stroke-width="0.09375" opacity="1.00" d=" M 489.27 738.49 C 505.43 738.37 521.59 738.57 537.75 738.23 C 522.77 760.78 505.16 781.47 489.83 803.78 C 474.32 804.12 458.79 803.57 443.29 804.14 C 457.82 781.76 473.09 759.74 489.27 738.49 Z" />
<path fill="#fcfefe" stroke="#fcfefe" stroke-width="0.09375" opacity="1.00" d=" M 560.34 738.47 C 607.57 738.11 654.85 738.95 702.07 737.89 C 706.33 737.78 708.00 742.27 709.23 745.58 C 696.57 745.98 684.13 748.83 672.28 753.21 C 660.82 757.03 650.14 763.32 638.07 765.19 C 625.11 767.63 612.12 763.94 599.83 760.09 C 580.80 754.41 560.08 754.85 541.27 761.18 C 547.56 753.60 552.88 744.86 560.34 738.47 Z" />
<path fill="#fcfefe" stroke="#fcfefe" stroke-width="0.09375" opacity="1.00" d=" M 768.80 743.66 C 779.09 749.38 789.80 754.30 800.21 759.78 C 801.83 763.37 801.66 767.57 802.49 771.43 C 791.47 765.52 779.64 761.16 768.77 755.01 C 768.39 751.23 768.75 747.43 768.80 743.66 Z" />
<path fill="#fcfefe" stroke="#fcfefe" stroke-width="0.09375" opacity="1.00" d=" M 629.01 782.70 C 657.44 782.86 680.61 761.29 709.12 761.63 C 708.96 773.44 708.71 785.26 708.71 797.07 C 709.26 800.82 705.74 804.11 702.09 803.87 C 638.00 804.06 573.88 803.54 509.80 804.15 C 517.50 794.10 526.67 784.69 538.38 779.41 C 551.73 773.66 566.57 770.91 581.05 772.95 C 597.27 775.08 612.37 783.37 629.01 782.70 Z" />
<path fill="#fcfefe" stroke="#fcfefe" stroke-width="0.09375" opacity="1.00" d=" M 768.98 762.91 C 780.13 768.39 791.42 773.59 802.82 778.51 C 802.75 782.73 802.77 786.96 802.43 791.18 C 791.50 785.36 779.92 780.77 769.20 774.57 C 767.97 770.96 769.17 766.74 768.98 762.91 Z" />
<path fill="#fcfefe" stroke="#fcfefe" stroke-width="0.09375" opacity="1.00" d=" M 768.89 782.05 C 779.87 787.46 790.74 793.14 802.12 797.73 C 801.55 800.65 800.82 803.53 800.08 806.42 C 789.89 800.79 779.04 796.44 768.54 791.41 C 768.57 788.28 768.69 785.16 768.89 782.05 Z" />
<path fill="#fcfefe" stroke="#fcfefe" stroke-width="0.09375" opacity="1.00" d=" M 768.78 798.46 C 778.70 803.36 788.73 807.99 798.83 812.52 C 798.18 814.20 797.52 815.88 796.85 817.57 C 787.17 813.15 777.80 808.07 768.22 803.45 C 768.39 801.78 768.58 800.11 768.78 798.46 Z" />
<path fill="#fcfefe" stroke="#fcfefe" stroke-width="0.09375" opacity="1.00" d=" M 767.72 810.98 C 776.28 815.66 785.00 820.02 793.73 824.39 C 793.46 825.35 793.20 826.32 792.95 827.30 C 784.51 822.95 775.98 818.76 767.19 815.14 C 767.35 813.75 767.52 812.36 767.72 810.98 Z" />
<path fill="#fcfefe" stroke="#fcfefe" stroke-width="0.09375" opacity="1.00" d=" M 764.60 821.81 C 772.88 825.58 781.35 828.99 789.18 833.66 C 788.43 834.75 787.64 835.82 786.81 836.85 C 778.91 833.60 771.49 829.33 763.56 826.15 C 763.89 824.69 764.24 823.25 764.60 821.81 Z" />
<path fill="#fcfefe" stroke="#fcfefe" stroke-width="0.09375" opacity="1.00" d=" M 760.35 831.99 C 768.14 835.10 775.26 839.72 783.06 842.83 C 781.67 844.20 780.30 845.59 778.90 846.96 C 771.59 843.24 763.81 840.54 756.55 836.72 C 757.76 835.10 758.92 833.43 760.35 831.99 Z" />
<path fill="#fcfefe" stroke="#fcfefe" stroke-width="0.09375" opacity="1.00" d=" M 752.93 842.19 C 759.95 845.57 766.93 849.08 774.23 851.82 C 772.24 853.43 770.23 855.00 768.17 856.52 C 761.46 852.71 754.16 850.13 747.34 846.55 C 749.15 845.03 751.02 843.58 752.93 842.19 Z" />
<path fill="#fcfefe" stroke="#fcfefe" stroke-width="0.09375" opacity="1.00" d=" M 733.13 854.59 C 735.29 853.33 737.50 852.14 739.75 851.03 C 747.39 853.67 754.39 857.80 761.96 860.61 C 759.02 861.99 756.11 863.47 753.08 864.64 C 746.52 861.10 739.75 857.98 733.13 854.59 Z" />
<path fill="#fcfefe" stroke="#fcfefe" stroke-width="0.09375" opacity="1.00" d=" M 278.54 856.52 C 282.93 856.42 287.93 855.38 291.73 858.24 C 298.20 862.59 305.04 866.37 312.07 869.73 C 307.29 869.25 301.80 871.47 297.60 868.39 C 291.17 864.55 284.69 860.78 278.54 856.52 Z" />
<path fill="#fcfefe" stroke="#fcfefe" stroke-width="0.09375" opacity="1.00" d=" M 301.33 856.46 C 306.62 857.03 312.96 854.75 317.38 858.62 C 322.93 862.72 328.82 866.32 334.79 869.76 C 331.21 869.85 327.64 869.99 324.08 870.27 C 316.77 865.25 309.08 860.75 301.33 856.46 Z" />
<path fill="#fcfefe" stroke="#fcfefe" stroke-width="0.09375" opacity="1.00" d=" M 326.00 856.53 C 330.69 856.97 336.72 854.55 340.24 858.75 C 344.94 863.31 350.79 866.40 356.43 869.63 C 352.93 869.79 349.44 869.96 345.96 870.25 C 339.66 865.19 332.87 860.76 326.00 856.53 Z" />
<path fill="#fcfefe" stroke="#fcfefe" stroke-width="0.09375" opacity="1.00" d=" M 348.23 856.50 C 353.49 856.78 359.87 854.83 364.20 858.76 C 369.33 863.03 375.06 866.49 380.89 869.70 C 376.25 869.88 371.61 870.05 366.97 870.14 C 360.91 865.34 354.75 860.65 348.23 856.50 Z" />
<path fill="#fcfefe" stroke="#fcfefe" stroke-width="0.09375" opacity="1.00" d=" M 372.43 856.76 C 377.16 856.89 382.74 854.79 386.77 858.19 C 392.17 862.45 397.92 866.22 403.86 869.69 C 399.72 869.76 395.59 869.88 391.45 870.05 C 385.46 865.15 379.05 860.76 372.43 856.76 Z" />
<path fill="#fcfefe" stroke="#fcfefe" stroke-width="0.09375" opacity="1.00" d=" M 396.12 856.74 C 401.15 856.69 407.23 854.72 411.35 858.65 C 416.29 862.85 421.66 866.49 427.25 869.77 C 423.12 869.76 419.00 869.78 414.88 870.00 C 409.02 865.06 402.61 860.79 396.12 856.74 Z" />
<path fill="#fcfefe" stroke="#fcfefe" stroke-width="0.09375" opacity="1.00" d=" M 419.40 856.86 C 423.95 856.88 429.11 854.89 433.20 857.74 C 439.50 861.78 445.60 866.14 452.14 869.80 C 447.47 869.81 442.80 869.81 438.15 870.09 C 432.20 865.28 425.95 860.81 419.40 856.86 Z" />
<path fill="#fcfefe" stroke="#fcfefe" stroke-width="0.09375" opacity="1.00" d=" M 443.93 856.77 C 456.33 853.21 464.58 864.94 474.65 869.75 C 470.66 869.62 466.68 869.50 462.70 869.79 C 456.89 864.86 450.48 860.65 443.93 856.77 Z" />
<path fill="#fcfefe" stroke="#fcfefe" stroke-width="0.09375" opacity="1.00" d=" M 466.25 856.88 C 471.09 856.97 476.62 854.81 480.84 858.12 C 487.26 862.27 493.97 865.93 500.57 869.78 C 495.68 869.78 490.79 869.82 485.91 870.11 C 479.56 865.42 473.05 860.90 466.25 856.88 Z" />
<path fill="#fcfefe" stroke="#fcfefe" stroke-width="0.09375" opacity="1.00" d=" M 490.91 856.74 C 497.57 856.94 505.30 854.37 510.98 859.03 C 516.45 862.74 522.12 866.13 527.64 869.77 C 521.78 869.15 515.04 872.00 509.94 868.08 C 503.63 864.25 497.54 860.02 490.91 856.74 Z" />
<path fill="#fcfefe" stroke="#fcfefe" stroke-width="0.09375" opacity="1.00" d=" M 519.39 856.67 C 526.75 857.40 535.52 853.74 541.59 859.40 C 546.46 863.22 551.70 866.54 556.97 869.79 C 550.17 869.01 542.14 872.45 536.41 867.57 C 530.88 863.71 525.17 860.13 519.39 856.67 Z" />
<path fill="#fcfefe" stroke="#fcfefe" stroke-width="0.09375" opacity="1.00" d=" M 549.19 856.76 C 553.94 856.70 559.49 855.11 563.52 858.50 C 569.02 862.70 574.93 866.31 580.96 869.71 C 576.94 869.90 572.92 869.99 568.92 870.21 C 562.45 865.57 556.08 860.77 549.19 856.76 Z" />
<path fill="#fcfefe" stroke="#fcfefe" stroke-width="0.09375" opacity="1.00" d=" M 572.12 856.74 C 576.65 856.76 581.86 855.12 585.82 858.12 C 591.79 862.24 597.80 866.33 604.25 869.69 C 600.47 869.78 596.69 869.94 592.92 870.17 C 586.10 865.52 579.45 860.57 572.12 856.74 Z" />
<path fill="#fcfefe" stroke="#fcfefe" stroke-width="0.09375" opacity="1.00" d=" M 596.25 856.78 C 602.21 857.07 609.12 854.62 614.25 858.71 C 620.00 862.54 625.88 866.15 631.76 869.78 C 626.29 869.50 620.72 870.54 615.32 869.79 C 608.79 865.71 602.77 860.87 596.25 856.78 Z" />
<path fill="#fcfefe" stroke="#fcfefe" stroke-width="0.09375" opacity="1.00" d=" M 623.36 856.69 C 629.92 857.25 637.48 854.40 643.21 858.79 C 648.62 862.55 654.05 866.28 659.56 869.89 C 654.36 869.71 649.15 870.00 643.96 869.93 C 636.80 866.05 630.39 860.83 623.36 856.69 Z" />
<path fill="#fcfefe" stroke="#fcfefe" stroke-width="0.09375" opacity="1.00" d=" M 652.12 856.72 C 658.97 857.38 667.10 854.08 672.84 859.14 C 677.78 862.81 683.06 866.01 687.94 869.78 C 682.64 869.74 677.33 870.35 672.04 869.95 C 665.09 866.03 658.98 860.80 652.12 856.72 Z" />
<path fill="#fcfefe" stroke="#fcfefe" stroke-width="0.09375" opacity="1.00" d=" M 711.78 857.04 C 724.27 853.43 733.95 863.48 744.75 867.77 C 739.91 868.36 735.15 870.12 730.27 869.96 C 723.78 866.15 717.90 861.40 711.78 857.04 Z" />
<path fill="#fcfefe" stroke="#fcfefe" stroke-width="0.09375" opacity="1.00" d=" M 682.01 856.88 C 687.99 856.44 693.99 856.75 699.98 856.81 C 705.58 861.57 711.75 865.59 717.59 870.04 C 712.04 869.95 706.48 870.24 700.94 869.99 C 694.31 866.13 688.28 861.29 682.01 856.88 Z" />
</g>
<g id="#000000ff">
<path fill="#000000" stroke="#000000" stroke-width="0.09375" opacity="1.00" d=" M 211.92 155.91 C 222.04 141.56 239.75 134.00 257.01 133.95 C 413.67 133.89 570.34 133.99 727.00 133.91 C 744.74 133.06 762.21 140.88 774.21 153.80 C 789.07 164.46 807.24 171.40 818.42 186.57 C 828.03 199.24 831.43 215.37 831.89 230.98 C 832.61 250.89 831.88 271.48 824.19 290.15 C 817.91 306.33 806.82 319.89 797.07 334.04 C 715.44 449.97 632.93 565.29 551.71 681.51 C 606.79 681.68 661.88 681.48 716.97 681.63 C 733.59 681.74 750.79 688.58 760.71 702.35 C 775.48 711.55 792.12 718.10 805.60 729.35 C 816.46 738.52 822.74 752.22 823.77 766.29 C 825.34 788.48 824.45 811.67 815.21 832.27 C 801.20 864.53 768.87 889.70 732.99 890.05 C 590.99 890.17 448.99 890.04 306.99 890.10 C 291.68 890.43 275.86 889.68 261.65 883.38 C 249.70 878.10 238.48 871.35 227.16 864.85 C 211.16 855.46 200.79 837.63 200.52 819.08 C 200.25 787.03 200.34 754.98 200.53 722.94 C 200.68 699.41 215.22 675.47 238.32 668.28 C 250.10 664.14 262.75 665.26 275.01 665.14 C 279.12 660.77 282.60 655.86 285.92 650.87 C 312.29 611.90 337.91 572.43 364.77 533.79 C 402.01 477.81 439.69 422.12 477.32 366.41 C 419.53 366.72 361.75 366.56 303.96 366.49 C 290.11 366.68 276.13 363.25 264.55 355.49 C 250.90 346.27 237.85 336.19 224.54 326.48 C 210.08 316.09 200.54 298.94 200.15 281.05 C 199.41 253.05 200.06 225.02 199.87 197.00 C 199.69 182.55 202.81 167.48 211.92 155.91 M 219.77 188.01 C 219.27 217.33 219.63 246.66 219.48 275.99 C 219.19 285.65 222.30 295.74 229.58 302.38 C 235.07 307.41 242.72 309.30 250.00 309.24 C 337.03 309.07 424.05 309.20 511.07 309.18 C 516.88 309.15 523.11 312.25 524.87 318.12 C 527.29 324.57 523.82 331.14 520.53 336.56 C 512.94 348.20 504.70 359.40 496.88 370.88 C 465.95 417.81 433.92 464.01 402.78 510.80 C 368.06 563.00 332.58 614.70 298.11 667.07 C 293.85 673.62 289.05 681.08 280.86 682.89 C 268.95 685.14 256.35 681.72 244.70 685.77 C 229.14 691.76 219.76 708.76 219.93 725.00 C 219.75 754.00 219.95 783.00 219.79 812.00 C 219.69 819.67 220.73 827.62 224.64 834.36 C 232.07 848.39 248.37 853.96 263.32 855.01 C 262.31 847.35 267.93 839.92 275.94 840.29 C 415.96 840.22 555.98 840.26 696.01 840.26 C 705.96 840.28 716.50 841.31 725.73 836.76 C 739.85 829.99 748.29 814.41 748.73 799.07 C 749.29 777.38 749.38 755.66 748.99 733.97 C 748.97 721.73 742.93 708.99 731.60 703.46 C 721.16 698.23 709.20 700.47 697.99 700.12 C 632.33 699.80 566.66 700.03 500.99 699.93 C 490.81 700.50 479.01 695.37 476.15 684.81 C 473.53 676.54 478.54 668.65 483.06 662.11 C 538.12 579.66 593.03 497.09 649.93 415.89 C 680.64 369.77 712.60 324.51 743.64 278.61 C 755.61 262.26 764.74 242.64 764.21 221.98 C 763.99 205.70 765.77 188.91 760.88 173.12 C 756.68 159.81 742.30 152.47 728.98 152.66 C 570.99 152.76 412.99 152.55 255.01 152.78 C 236.08 152.45 220.25 169.52 219.77 188.01 M 783.05 181.50 C 783.00 189.55 793.52 190.17 798.35 194.89 C 794.42 189.21 788.65 185.34 783.05 181.50 M 784.01 192.93 C 784.34 195.24 783.43 198.25 784.86 200.14 C 792.49 203.84 799.65 208.46 807.19 212.37 C 805.64 208.21 804.54 202.82 799.75 201.23 C 794.19 199.08 788.98 196.19 784.01 192.93 M 784.18 207.25 C 784.14 209.73 784.12 212.21 784.13 214.70 C 793.02 218.67 801.41 223.66 809.93 228.36 C 809.30 225.04 810.89 219.67 806.63 218.41 C 798.96 215.05 791.84 210.61 784.18 207.25 M 784.07 222.03 C 783.99 223.87 783.79 225.73 784.09 227.56 C 792.95 232.48 801.95 237.18 810.89 241.98 C 810.43 239.47 811.72 235.60 808.76 234.35 C 800.50 230.30 792.46 225.81 784.07 222.03 M 783.55 234.69 C 783.17 237.52 782.79 240.36 782.40 243.20 C 791.56 248.08 800.74 252.97 809.61 258.37 C 810.03 255.21 810.39 252.04 810.57 248.85 C 801.50 244.25 792.29 239.90 783.55 234.69 M 781.05 249.19 C 780.26 251.65 779.49 254.11 778.75 256.58 C 788.35 261.27 797.61 266.72 806.69 272.34 C 807.42 269.80 808.05 267.23 808.64 264.65 C 799.38 259.62 789.97 254.82 781.05 249.19 M 773.86 268.89 C 783.37 273.86 793.06 278.50 802.56 283.49 C 803.24 281.79 803.87 280.06 804.44 278.31 C 794.93 273.57 786.13 267.59 776.78 262.55 C 775.77 264.65 774.79 266.76 773.86 268.89 M 771.26 274.70 C 770.03 276.63 768.83 278.58 767.69 280.57 C 777.14 285.16 786.77 289.46 795.83 294.77 C 797.08 293.07 798.34 291.37 799.60 289.68 C 790.18 284.63 780.42 280.20 771.26 274.70 M 759.17 292.17 C 768.86 296.93 778.80 301.25 788.06 306.85 C 789.62 304.61 791.21 302.39 792.96 300.29 C 782.96 296.19 773.54 290.78 764.03 285.66 C 762.39 287.82 760.76 289.98 759.17 292.17 M 750.84 304.19 C 760.33 309.28 770.24 313.63 779.47 319.21 C 781.25 316.93 782.92 314.57 784.47 312.13 C 774.91 307.07 765.01 302.62 755.68 297.13 C 754.02 299.45 752.42 301.81 750.84 304.19 M 742.10 316.46 C 751.51 321.91 761.48 326.31 770.87 331.81 C 772.60 329.41 774.34 327.01 776.13 324.65 C 766.03 320.31 756.58 314.59 746.96 309.31 C 745.34 311.70 743.73 314.09 742.10 316.46 M 734.06 328.07 C 743.40 333.45 753.31 337.87 762.21 343.98 C 763.93 341.73 765.66 339.49 767.34 337.21 C 757.69 332.07 747.66 327.56 738.44 321.67 C 736.88 323.73 735.42 325.87 734.06 328.07 M 265.98 327.37 C 270.32 331.84 275.28 335.63 280.21 339.42 C 277.33 335.16 274.24 331.06 271.05 327.03 C 269.36 327.14 267.67 327.25 265.98 327.37 M 280.65 326.79 C 283.96 333.02 288.00 338.95 292.95 344.00 C 296.29 347.72 301.71 346.41 306.12 346.86 C 300.91 340.07 295.21 333.68 290.03 326.86 C 286.90 326.82 283.77 326.81 280.65 326.79 M 300.61 327.29 C 305.10 334.54 310.65 341.14 317.05 346.77 C 320.51 346.57 323.98 346.44 327.45 346.43 C 322.37 340.20 318.08 333.31 312.59 327.43 C 308.89 326.03 304.53 327.04 300.61 327.29 M 323.04 326.80 C 327.29 333.92 331.97 341.20 338.60 346.32 C 342.77 347.33 347.23 346.33 351.51 346.44 C 347.50 340.55 343.04 334.97 338.32 329.64 C 334.76 324.83 328.10 327.38 323.04 326.80 M 346.92 326.86 C 350.81 332.92 355.35 338.56 360.05 344.01 C 363.30 348.84 369.73 345.86 374.52 346.44 C 371.59 340.61 367.83 335.24 363.92 330.03 C 360.26 324.38 352.49 327.65 346.92 326.86 M 371.85 327.36 C 375.96 333.83 379.98 340.39 384.57 346.55 C 387.94 346.60 391.31 346.64 394.68 346.60 C 392.32 339.51 388.61 332.76 383.55 327.24 C 379.72 326.22 375.72 327.08 371.85 327.36 M 393.90 327.40 C 397.51 333.53 400.98 339.75 403.96 346.23 C 407.42 346.33 410.89 346.30 414.36 346.27 C 412.13 340.53 409.26 335.07 406.29 329.68 C 404.33 324.51 397.97 327.59 393.90 327.40 M 414.23 326.73 C 417.32 333.35 421.15 339.61 423.92 346.38 C 426.01 346.43 428.11 346.49 430.21 346.55 C 428.40 339.62 425.20 333.18 422.41 326.62 C 419.68 326.65 416.95 326.67 414.23 326.73 M 431.82 326.73 C 434.41 333.29 436.93 339.88 439.42 346.49 C 442.69 346.51 445.97 346.56 449.25 346.68 C 447.10 339.82 444.13 333.26 440.95 326.83 C 437.90 326.72 434.86 326.69 431.82 326.73 M 450.91 326.82 C 453.21 333.52 455.74 340.21 459.18 346.41 C 463.17 346.88 467.19 346.29 471.19 346.34 C 468.77 339.63 465.67 333.22 462.44 326.88 C 458.59 326.78 454.75 326.78 450.91 326.82 M 471.99 326.83 C 474.94 333.25 476.99 340.15 480.69 346.19 C 484.16 346.34 489.33 348.27 491.47 344.51 C 495.98 338.37 488.21 332.53 486.42 326.69 C 481.61 326.69 476.80 326.81 471.99 326.83 M 496.24 326.76 C 497.47 329.41 498.83 332.01 500.31 334.54 C 501.32 332.00 502.21 329.42 502.95 326.80 C 500.71 326.76 498.47 326.74 496.24 326.76 M 730.58 333.12 C 729.07 335.23 727.58 337.37 726.14 339.54 C 735.84 344.53 745.68 349.24 755.06 354.82 C 756.40 352.86 757.64 350.84 758.86 348.80 C 749.15 344.12 739.72 338.83 730.58 333.12 M 717.49 352.90 C 726.70 358.00 736.16 362.66 745.33 367.84 C 747.23 365.39 749.10 362.93 750.99 360.46 C 741.63 355.10 731.78 350.63 722.69 344.82 C 720.85 347.44 719.10 350.13 717.49 352.90 M 707.82 365.87 C 716.99 371.42 726.84 375.74 736.31 380.76 C 738.29 378.31 740.16 375.77 741.86 373.11 C 732.15 368.67 722.96 363.23 713.64 358.05 C 711.70 360.65 709.79 363.28 707.82 365.87 M 700.07 378.51 C 709.36 383.04 718.76 387.49 727.57 392.90 C 729.34 390.77 731.12 388.64 732.94 386.54 C 723.23 381.83 713.57 376.97 704.29 371.44 C 702.77 373.73 701.37 376.09 700.07 378.51 M 691.81 390.44 C 701.01 395.15 710.44 399.45 719.28 404.83 C 721.02 402.55 722.80 400.32 724.47 397.99 C 714.69 393.72 705.36 388.55 696.01 383.44 C 694.58 385.76 693.19 388.09 691.81 390.44 M 688.20 395.65 C 686.30 398.19 684.51 400.80 682.80 403.46 C 692.10 407.90 701.05 413.08 709.94 418.28 C 711.90 415.64 714.00 413.10 716.00 410.49 C 706.64 405.72 697.34 400.83 688.20 395.65 M 678.89 408.05 C 677.24 410.85 675.64 413.68 673.85 416.39 C 682.91 421.36 691.80 426.61 700.81 431.67 C 702.72 429.02 704.60 426.34 706.44 423.64 C 697.17 418.60 687.66 413.95 678.89 408.05 M 669.90 421.72 C 667.52 425.26 665.01 428.72 662.32 432.04 C 671.09 437.58 680.43 442.16 689.62 446.98 C 692.28 443.74 694.73 440.33 697.13 436.89 C 687.61 432.68 679.13 426.49 669.90 421.72 M 652.35 447.05 C 661.28 452.04 670.74 455.97 679.71 460.87 C 681.76 458.16 683.81 455.45 685.89 452.77 C 676.68 448.09 667.65 443.06 658.70 437.89 C 656.62 440.98 654.45 443.99 652.35 447.05 M 641.85 461.80 C 651.12 466.28 660.64 470.23 669.95 474.65 C 671.85 471.73 674.01 468.99 676.17 466.25 C 666.69 462.10 657.62 457.10 648.35 452.53 C 646.35 455.73 644.11 458.77 641.85 461.80 M 637.85 467.66 C 636.20 470.24 634.51 472.79 632.79 475.32 C 642.33 479.02 651.71 483.15 660.96 487.51 C 662.69 484.93 664.41 482.35 666.17 479.80 C 656.60 476.07 647.23 471.83 637.85 467.66 M 629.15 480.26 C 627.01 483.35 624.87 486.45 622.71 489.52 C 631.71 494.16 641.27 497.60 650.37 502.01 C 652.79 499.03 655.14 496.00 657.47 492.96 C 647.76 489.37 638.29 485.11 629.15 480.26 M 618.85 495.19 C 616.63 498.06 614.68 501.12 612.75 504.19 C 621.81 508.88 631.50 512.21 640.82 516.34 C 642.75 513.36 644.87 510.51 647.18 507.82 C 637.57 503.97 628.35 499.27 618.85 495.19 M 603.20 517.78 C 612.23 522.40 621.95 525.49 631.02 530.03 C 632.90 527.26 634.99 524.64 637.04 522.00 C 627.50 518.17 618.15 513.89 608.76 509.74 C 607.03 512.50 605.17 515.18 603.20 517.78 M 594.40 531.40 C 604.05 534.48 612.93 539.58 622.50 542.83 C 624.29 540.53 625.78 538.03 627.53 535.71 C 618.17 531.88 608.81 527.95 599.75 523.41 C 597.86 526.00 596.11 528.69 594.40 531.40 M 590.71 536.68 C 588.93 539.74 586.97 542.71 584.91 545.60 C 593.74 549.83 603.04 552.99 611.99 556.96 C 614.22 554.22 616.42 551.45 618.63 548.70 C 609.06 545.35 599.93 540.89 590.71 536.68 M 581.10 550.95 C 579.23 554.17 576.92 557.08 574.59 559.98 C 583.50 564.13 592.81 567.37 601.78 571.39 C 603.84 568.39 606.09 565.52 608.51 562.80 C 599.11 559.47 590.26 554.83 581.10 550.95 M 571.32 565.47 C 569.67 567.94 567.93 570.35 566.16 572.74 C 574.81 576.93 584.17 579.42 592.69 583.89 C 594.48 581.57 596.31 579.29 598.20 577.05 C 589.24 573.20 580.17 569.58 571.32 565.47 M 562.18 578.08 C 560.44 580.83 558.80 583.64 557.01 586.36 C 565.89 589.97 574.92 593.19 583.74 596.96 C 585.78 594.56 587.71 592.07 589.53 589.50 C 580.46 585.58 570.97 582.65 562.18 578.08 M 553.40 592.11 C 550.95 594.62 549.33 597.79 547.58 600.80 C 556.10 604.84 565.00 608.02 573.49 612.13 C 575.51 608.94 577.71 605.87 579.99 602.85 C 570.99 599.62 562.54 594.87 553.40 592.11 M 543.33 606.62 C 540.94 610.11 538.69 613.70 536.12 617.07 C 544.62 621.17 553.62 624.06 562.33 627.65 C 564.68 624.27 567.29 621.07 569.66 617.71 C 560.76 614.30 552.37 609.69 543.33 606.62 M 532.61 623.02 C 530.38 626.12 528.08 629.17 525.76 632.20 C 534.09 636.61 543.16 639.29 551.82 642.95 C 553.97 639.81 556.19 636.72 558.50 633.71 C 549.89 630.10 541.40 626.18 532.61 623.02 M 517.56 644.57 C 526.05 648.56 535.23 650.80 543.64 654.99 C 545.16 652.82 546.73 650.69 548.37 648.60 C 539.59 645.37 530.81 641.98 522.49 637.67 C 520.85 639.97 519.21 642.28 517.56 644.57 M 513.96 650.07 C 512.14 652.60 510.60 655.30 509.10 658.03 C 517.65 661.25 526.20 664.44 534.71 667.72 C 536.45 665.32 538.24 662.96 540.10 660.65 C 531.41 657.06 522.41 654.23 513.96 650.07 M 501.13 669.13 C 509.98 672.42 518.98 675.32 527.67 679.05 C 528.99 677.21 530.28 675.36 531.57 673.51 C 522.73 670.70 514.29 666.79 505.63 663.46 C 504.05 665.28 502.56 667.18 501.13 669.13 M 497.25 675.46 C 497.08 676.84 496.92 678.22 496.77 679.62 C 502.21 680.40 507.67 681.02 513.16 681.27 C 507.85 679.35 502.60 677.27 497.25 675.46 M 768.62 729.80 C 768.70 732.09 768.79 734.40 768.89 736.71 C 778.48 740.95 787.78 745.84 797.07 750.71 C 790.76 740.18 779.28 734.82 768.62 729.80 M 768.80 743.66 C 768.75 747.43 768.39 751.23 768.77 755.01 C 779.64 761.16 791.47 765.52 802.49 771.43 C 801.66 767.57 801.83 763.37 800.21 759.78 C 789.80 754.30 779.09 749.38 768.80 743.66 M 768.98 762.91 C 769.17 766.74 767.97 770.96 769.20 774.57 C 779.92 780.77 791.50 785.36 802.43 791.18 C 802.77 786.96 802.75 782.73 802.82 778.51 C 791.42 773.59 780.13 768.39 768.98 762.91 M 768.89 782.05 C 768.69 785.16 768.57 788.28 768.54 791.41 C 779.04 796.44 789.89 800.79 800.08 806.42 C 800.82 803.53 801.55 800.65 802.12 797.73 C 790.74 793.14 779.87 787.46 768.89 782.05 M 768.78 798.46 C 768.58 800.11 768.39 801.78 768.22 803.45 C 777.80 808.07 787.17 813.15 796.85 817.57 C 797.52 815.88 798.18 814.20 798.83 812.52 C 788.73 807.99 778.70 803.36 768.78 798.46 M 767.72 810.98 C 767.52 812.36 767.35 813.75 767.19 815.14 C 775.98 818.76 784.51 822.95 792.95 827.30 C 793.20 826.32 793.46 825.35 793.73 824.39 C 785.00 820.02 776.28 815.66 767.72 810.98 M 764.60 821.81 C 764.24 823.25 763.89 824.69 763.56 826.15 C 771.49 829.33 778.91 833.60 786.81 836.85 C 787.64 835.82 788.43 834.75 789.18 833.66 C 781.35 828.99 772.88 825.58 764.60 821.81 M 760.35 831.99 C 758.92 833.43 757.76 835.10 756.55 836.72 C 763.81 840.54 771.59 843.24 778.90 846.96 C 780.30 845.59 781.67 844.20 783.06 842.83 C 775.26 839.72 768.14 835.10 760.35 831.99 M 752.93 842.19 C 751.02 843.58 749.15 845.03 747.34 846.55 C 754.16 850.13 761.46 852.71 768.17 856.52 C 770.23 855.00 772.24 853.43 774.23 851.82 C 766.93 849.08 759.95 845.57 752.93 842.19 M 733.13 854.59 C 739.75 857.98 746.52 861.10 753.08 864.64 C 756.11 863.47 759.02 861.99 761.96 860.61 C 754.39 857.80 747.39 853.67 739.75 851.03 C 737.50 852.14 735.29 853.33 733.13 854.59 M 278.54 856.52 C 284.69 860.78 291.17 864.55 297.60 868.39 C 301.80 871.47 307.29 869.25 312.07 869.73 C 305.04 866.37 298.20 862.59 291.73 858.24 C 287.93 855.38 282.93 856.42 278.54 856.52 M 301.33 856.46 C 309.08 860.75 316.77 865.25 324.08 870.27 C 327.64 869.99 331.21 869.85 334.79 869.76 C 328.82 866.32 322.93 862.72 317.38 858.62 C 312.96 854.75 306.62 857.03 301.33 856.46 M 326.00 856.53 C 332.87 860.76 339.66 865.19 345.96 870.25 C 349.44 869.96 352.93 869.79 356.43 869.63 C 350.79 866.40 344.94 863.31 340.24 858.75 C 336.72 854.55 330.69 856.97 326.00 856.53 M 348.23 856.50 C 354.75 860.65 360.91 865.34 366.97 870.14 C 371.61 870.05 376.25 869.88 380.89 869.70 C 375.06 866.49 369.33 863.03 364.20 858.76 C 359.87 854.83 353.49 856.78 348.23 856.50 M 372.43 856.76 C 379.05 860.76 385.46 865.15 391.45 870.05 C 395.59 869.88 399.72 869.76 403.86 869.69 C 397.92 866.22 392.17 862.45 386.77 858.19 C 382.74 854.79 377.16 856.89 372.43 856.76 M 396.12 856.74 C 402.61 860.79 409.02 865.06 414.88 870.00 C 419.00 869.78 423.12 869.76 427.25 869.77 C 421.66 866.49 416.29 862.85 411.35 858.65 C 407.23 854.72 401.15 856.69 396.12 856.74 M 419.40 856.86 C 425.95 860.81 432.20 865.28 438.15 870.09 C 442.80 869.81 447.47 869.81 452.14 869.80 C 445.60 866.14 439.50 861.78 433.20 857.74 C 429.11 854.89 423.95 856.88 419.40 856.86 M 443.93 856.77 C 450.48 860.65 456.89 864.86 462.70 869.79 C 466.68 869.50 470.66 869.62 474.65 869.75 C 464.58 864.94 456.33 853.21 443.93 856.77 M 466.25 856.88 C 473.05 860.90 479.56 865.42 485.91 870.11 C 490.79 869.82 495.68 869.78 500.57 869.78 C 493.97 865.93 487.26 862.27 480.84 858.12 C 476.62 854.81 471.09 856.97 466.25 856.88 M 490.91 856.74 C 497.54 860.02 503.63 864.25 509.94 868.08 C 515.04 872.00 521.78 869.15 527.64 869.77 C 522.12 866.13 516.45 862.74 510.98 859.03 C 505.30 854.37 497.57 856.94 490.91 856.74 M 519.39 856.67 C 525.17 860.13 530.88 863.71 536.41 867.57 C 542.14 872.45 550.17 869.01 556.97 869.79 C 551.70 866.54 546.46 863.22 541.59 859.40 C 535.52 853.74 526.75 857.40 519.39 856.67 M 549.19 856.76 C 556.08 860.77 562.45 865.57 568.92 870.21 C 572.92 869.99 576.94 869.90 580.96 869.71 C 574.93 866.31 569.02 862.70 563.52 858.50 C 559.49 855.11 553.94 856.70 549.19 856.76 M 572.12 856.74 C 579.45 860.57 586.10 865.52 592.92 870.17 C 596.69 869.94 600.47 869.78 604.25 869.69 C 597.80 866.33 591.79 862.24 585.82 858.12 C 581.86 855.12 576.65 856.76 572.12 856.74 M 596.25 856.78 C 602.77 860.87 608.79 865.71 615.32 869.79 C 620.72 870.54 626.29 869.50 631.76 869.78 C 625.88 866.15 620.00 862.54 614.25 858.71 C 609.12 854.62 602.21 857.07 596.25 856.78 M 623.36 856.69 C 630.39 860.83 636.80 866.05 643.96 869.93 C 649.15 870.00 654.36 869.71 659.56 869.89 C 654.05 866.28 648.62 862.55 643.21 858.79 C 637.48 854.40 629.92 857.25 623.36 856.69 M 652.12 856.72 C 658.98 860.80 665.09 866.03 672.04 869.95 C 677.33 870.35 682.64 869.74 687.94 869.78 C 683.06 866.01 677.78 862.81 672.84 859.14 C 667.10 854.08 658.97 857.38 652.12 856.72 M 711.78 857.04 C 717.90 861.40 723.78 866.15 730.27 869.96 C 735.15 870.12 739.91 868.36 744.75 867.77 C 733.95 863.48 724.27 853.43 711.78 857.04 M 682.01 856.88 C 688.28 861.29 694.31 866.13 700.94 869.99 C 706.48 870.24 712.04 869.95 717.59 870.04 C 711.75 865.59 705.58 861.57 699.98 856.81 C 693.99 856.75 687.99 856.44 682.01 856.88 Z" />
<path fill="#000000" stroke="#000000" stroke-width="0.09375" opacity="1.00" d=" M 240.63 196.99 C 240.71 185.87 248.75 173.18 260.90 173.24 C 412.30 173.13 563.69 173.22 715.09 173.14 C 722.90 173.33 731.25 176.60 735.28 183.66 C 739.61 191.36 738.74 200.51 738.88 209.00 C 738.71 224.78 739.89 241.64 731.85 255.92 C 705.60 298.14 676.74 338.69 648.89 379.87 C 583.99 475.13 518.78 570.19 455.51 666.55 C 450.10 674.37 447.86 684.36 450.48 693.62 C 453.53 708.19 467.07 719.03 481.64 720.45 C 494.04 721.64 506.55 721.00 518.99 721.10 C 581.36 721.20 643.74 721.10 706.10 721.16 C 716.94 720.93 726.59 730.07 726.48 741.01 C 726.43 761.02 726.56 781.05 726.08 801.06 C 725.68 812.72 714.19 821.08 703.07 820.74 C 554.69 820.77 406.30 820.77 257.91 820.80 C 248.83 821.16 239.97 813.43 240.73 804.02 C 241.57 777.70 240.96 751.35 241.43 725.03 C 242.80 716.73 248.09 708.06 256.60 705.67 C 269.06 703.44 282.55 708.09 294.39 702.40 C 304.76 697.23 309.93 686.26 316.12 677.09 C 338.99 639.98 364.06 604.31 387.74 567.73 C 406.80 543.24 427.41 519.99 446.69 495.67 C 469.53 468.44 493.43 442.03 514.08 413.04 C 546.25 370.50 577.16 327.01 610.06 285.03 C 621.16 270.93 633.36 257.65 646.89 245.86 C 666.98 228.87 689.58 215.17 712.71 202.76 C 715.88 201.16 719.04 199.49 721.83 197.27 C 719.77 193.70 716.63 190.02 712.07 190.45 C 680.78 190.60 649.48 190.35 618.19 190.56 C 613.80 196.28 610.53 202.74 606.90 208.94 C 594.89 230.61 582.68 252.19 569.83 273.37 C 575.07 273.13 580.50 271.82 585.66 273.21 C 589.63 275.10 589.20 280.56 586.01 283.01 C 573.64 295.12 564.74 310.30 552.43 322.44 C 547.78 326.81 539.49 321.47 542.46 315.43 C 548.20 306.45 555.49 298.49 561.03 289.35 C 462.37 290.27 363.68 289.38 265.00 289.85 C 253.07 291.64 240.82 282.30 240.55 270.02 C 240.57 245.68 240.62 221.33 240.63 196.99 M 264.35 190.59 C 260.59 190.79 258.43 194.70 258.31 198.11 C 257.81 205.38 258.30 212.68 257.85 219.96 C 264.57 212.44 274.85 210.89 283.93 207.93 C 290.46 204.76 289.32 196.08 287.46 190.33 C 279.76 190.33 272.04 190.20 264.35 190.59 M 336.20 190.26 C 349.87 215.88 347.71 247.28 335.13 272.86 C 340.50 272.96 345.88 273.33 351.24 272.77 C 362.50 247.31 367.03 216.50 355.27 190.44 C 348.91 190.26 342.56 190.23 336.20 190.26 M 373.59 190.39 C 381.31 217.62 378.68 246.86 368.69 273.13 C 383.35 272.98 398.01 272.99 412.67 272.81 C 420.32 257.29 424.72 240.21 426.10 222.98 C 426.51 212.05 426.89 200.65 422.71 190.31 C 406.34 190.59 389.96 190.36 373.59 190.39 M 441.42 190.37 C 446.11 218.43 440.32 246.86 430.33 273.11 C 441.25 272.97 452.17 273.05 463.08 272.75 C 473.55 246.86 475.68 217.24 467.20 190.50 C 458.61 190.28 450.01 190.31 441.42 190.37 M 484.91 190.41 C 490.71 217.77 488.91 246.44 480.16 272.97 C 485.94 272.89 491.72 272.94 497.50 272.76 C 505.00 251.33 512.60 229.88 522.38 209.36 C 525.53 203.21 528.87 197.13 531.26 190.63 C 515.82 190.18 500.36 190.68 484.91 190.41 M 550.77 190.50 C 534.31 215.88 524.13 244.70 514.48 273.19 C 526.63 272.71 538.79 273.12 550.95 272.80 C 568.96 246.59 583.32 218.06 599.01 190.43 C 582.93 190.74 566.85 190.28 550.77 190.50 M 302.60 190.50 C 303.03 198.06 303.17 206.67 297.60 212.57 C 289.56 221.90 275.31 219.45 266.33 227.32 C 260.42 231.98 257.70 239.61 257.91 246.99 C 258.15 254.68 256.68 262.86 259.84 270.13 C 261.58 274.41 267.11 272.65 270.70 273.30 C 272.21 265.33 276.13 257.65 282.68 252.67 C 293.08 245.25 306.93 245.73 317.44 238.48 C 323.70 234.08 329.22 227.09 328.51 219.01 C 327.47 208.34 322.28 198.34 315.31 190.32 C 311.07 190.32 306.84 190.46 302.60 190.50 M 630.56 285.80 C 654.53 281.33 681.06 280.08 700.54 263.53 C 715.38 253.09 721.66 234.43 721.43 216.87 C 687.31 233.98 655.43 256.63 630.56 285.80 M 298.41 258.46 C 291.62 260.34 287.03 266.53 285.32 273.13 C 295.47 272.90 305.68 273.55 315.80 272.70 C 323.02 264.81 326.06 253.88 329.20 243.82 C 320.68 251.81 309.51 255.66 298.41 258.46 M 614.47 306.40 C 604.35 319.70 594.26 333.05 584.18 346.39 C 607.74 337.88 632.93 334.21 657.93 335.82 C 669.08 320.31 679.44 304.01 690.39 288.27 C 666.32 298.97 638.88 296.90 614.47 306.40 M 568.07 368.14 C 554.60 385.69 542.35 404.30 528.39 421.54 C 552.23 412.59 578.64 409.76 603.57 415.65 C 618.15 394.53 632.60 373.28 646.63 351.79 C 619.53 350.69 593.27 359.26 568.07 368.14 M 527.40 438.42 C 520.18 441.96 510.75 442.84 506.21 450.23 C 494.47 465.77 482.63 481.46 473.62 498.78 C 499.15 485.56 528.58 479.26 557.14 484.40 C 568.95 466.51 581.60 449.14 592.83 430.88 C 570.86 426.91 547.99 430.07 527.40 438.42 M 471.98 516.98 C 465.91 519.41 465.29 526.77 463.11 532.11 C 455.83 559.82 454.30 590.91 467.38 617.16 C 470.98 612.44 474.32 607.54 477.62 602.60 C 500.24 568.04 523.59 533.93 546.35 499.46 C 520.32 496.64 494.70 504.85 471.98 516.98 M 409.28 567.32 C 407.71 569.17 406.16 571.15 405.67 573.59 C 399.36 599.75 395.85 626.52 394.00 653.34 C 413.66 644.05 433.52 634.83 454.59 629.19 C 443.49 606.97 439.75 581.53 442.38 556.93 C 443.99 543.38 447.11 530.07 450.83 516.96 C 436.82 533.62 423.70 551.01 409.28 567.32 M 363.63 633.56 C 358.79 669.11 349.66 704.42 333.51 736.61 C 325.68 751.63 315.99 765.92 303.48 777.45 C 290.61 789.13 274.43 796.22 258.20 801.90 C 259.62 802.92 260.95 804.45 262.91 804.12 C 288.92 803.69 314.95 804.07 340.98 803.79 C 365.84 767.01 390.52 730.10 415.24 693.22 C 425.05 678.61 435.33 664.28 444.59 649.31 C 426.83 655.48 409.73 663.32 392.29 670.29 C 387.47 673.18 378.52 673.30 378.07 666.03 C 377.61 646.76 380.26 627.49 382.63 608.39 C 376.61 617.00 369.14 624.65 363.63 633.56 M 300.49 721.50 C 288.64 732.63 274.57 741.00 259.19 746.25 C 258.46 759.08 258.77 771.94 258.59 784.78 C 285.81 777.30 306.36 755.30 318.51 730.61 C 326.45 714.11 333.89 697.15 337.51 679.11 C 327.09 694.77 316.14 710.58 300.49 721.50 M 360.28 803.81 C 369.10 803.84 377.93 803.97 386.75 803.79 C 383.85 799.34 383.66 792.62 388.44 789.37 C 393.35 784.14 403.54 787.77 403.73 795.00 C 404.10 798.87 401.30 801.76 398.53 804.00 C 407.17 803.59 415.82 804.14 424.47 803.83 C 439.11 781.03 454.73 758.88 470.04 736.53 C 451.27 731.99 435.76 716.49 432.28 697.34 C 407.85 732.54 384.22 768.29 360.28 803.81 M 261.56 722.49 C 260.72 724.52 259.94 726.56 259.24 728.65 C 264.70 726.98 269.90 724.52 274.96 721.89 C 270.49 721.87 266.02 722.17 261.56 722.49 M 489.27 738.49 C 473.09 759.74 457.82 781.76 443.29 804.14 C 458.79 803.57 474.32 804.12 489.83 803.78 C 505.16 781.47 522.77 760.78 537.75 738.23 C 521.59 738.57 505.43 738.37 489.27 738.49 M 560.34 738.47 C 552.88 744.86 547.56 753.60 541.27 761.18 C 560.08 754.85 580.80 754.41 599.83 760.09 C 612.12 763.94 625.11 767.63 638.07 765.19 C 650.14 763.32 660.82 757.03 672.28 753.21 C 684.13 748.83 696.57 745.98 709.23 745.58 C 708.00 742.27 706.33 737.78 702.07 737.89 C 654.85 738.95 607.57 738.11 560.34 738.47 M 629.01 782.70 C 612.37 783.37 597.27 775.08 581.05 772.95 C 566.57 770.91 551.73 773.66 538.38 779.41 C 526.67 784.69 517.50 794.10 509.80 804.15 C 573.88 803.54 638.00 804.06 702.09 803.87 C 705.74 804.11 709.26 800.82 708.71 797.07 C 708.71 785.26 708.96 773.44 709.12 761.63 C 680.61 761.29 657.44 782.86 629.01 782.70 Z" />
<path fill="#000000" stroke="#000000" stroke-width="0.09375" opacity="1.00" d=" M 752.26 189.11 C 755.79 187.63 758.34 191.81 758.05 194.92 C 758.10 206.63 758.02 218.36 758.22 230.08 C 758.62 233.46 754.75 236.20 751.81 234.23 C 748.63 232.73 749.45 228.85 749.47 226.03 C 749.67 215.30 749.79 204.57 749.30 193.85 C 749.22 191.87 750.36 189.83 752.26 189.11 Z" />
<path fill="#000000" stroke="#000000" stroke-width="0.09375" opacity="1.00" d=" M 532.42 338.30 C 538.08 334.98 543.42 342.97 539.73 347.69 C 531.57 359.70 522.64 371.23 513.71 382.70 C 511.21 385.62 508.83 389.19 504.99 390.39 C 500.35 391.22 496.21 385.45 499.49 381.60 C 506.35 371.24 514.16 361.53 521.47 351.48 C 525.17 347.14 527.71 341.70 532.42 338.30 Z" />
<path fill="#000000" stroke="#000000" stroke-width="0.09375" opacity="1.00" d=" M 488.46 406.49 C 493.28 403.40 499.34 410.23 495.70 414.62 C 489.18 424.02 481.97 432.95 474.87 441.91 C 472.24 445.98 465.28 445.93 463.71 440.97 C 463.35 435.09 468.73 431.18 471.71 426.69 C 477.43 420.09 481.68 412.07 488.46 406.49 Z" />
<path fill="#000000" stroke="#000000" stroke-width="0.09375" opacity="1.00" d=" M 450.57 460.62 C 454.90 458.88 459.54 464.82 456.67 468.55 C 452.05 474.90 447.40 481.31 442.07 487.08 C 438.26 491.45 429.98 485.86 433.84 480.89 C 438.90 473.82 443.54 465.87 450.57 460.62 Z" />
<path fill="#000000" stroke="#000000" stroke-width="0.09375" opacity="1.00" d=" M 433.29 728.20 C 439.76 725.17 447.64 732.08 445.74 738.84 C 444.45 745.60 435.06 748.72 430.08 743.91 C 424.88 739.60 427.13 730.40 433.29 728.20 Z" />
<path fill="#000000" stroke="#000000" stroke-width="0.09375" opacity="1.00" d=" M 413.34 757.26 C 418.12 755.04 424.43 758.08 425.76 763.16 C 428.27 770.97 418.40 779.39 411.19 774.86 C 404.44 770.95 405.82 759.47 413.34 757.26 Z" />
<path fill="#000000" stroke="#000000" stroke-width="0.09375" opacity="1.00" d=" M 229.52 815.39 C 231.26 813.64 234.65 814.07 235.44 816.58 C 237.99 822.27 241.22 827.95 246.53 831.52 C 250.19 834.37 255.01 835.43 258.39 838.67 C 260.58 842.11 255.64 847.16 252.11 845.00 C 242.47 840.24 233.95 832.73 228.81 823.21 C 227.32 820.81 227.05 817.24 229.52 815.39 Z" />
</g>
</svg>
