<?xml version="1.0" encoding="UTF-8" ?>
<!DOCTYPE svg PUBLIC "-//W3C//DTD SVG 1.1//EN" "http://www.w3.org/Graphics/SVG/1.1/DTD/svg11.dtd">
<svg width="1024pt" height="1024pt" viewBox="0 0 1024 1024" version="1.1" xmlns="http://www.w3.org/2000/svg">
<g id="#000000ff">
<path fill="#000000" stroke="#000000" stroke-width="0.09375" opacity="1.00" d=" M 496.35 83.42 C 502.99 81.52 511.25 84.15 514.42 90.59 C 516.50 94.38 516.44 98.84 516.24 103.04 C 529.51 97.46 543.93 92.95 558.48 95.21 C 565.36 95.87 572.44 98.70 576.56 104.48 C 579.75 108.74 580.34 114.65 578.50 119.58 C 577.38 122.18 575.82 124.55 574.23 126.88 C 598.05 132.56 621.74 140.87 641.82 155.18 C 653.12 145.50 668.57 142.83 682.98 141.75 C 693.61 142.19 704.46 143.44 714.36 147.65 C 737.82 156.79 756.48 174.47 773.99 192.02 C 781.91 199.08 789.05 207.10 797.90 213.07 C 821.16 228.36 847.92 238.41 868.84 257.18 C 880.88 267.67 888.89 282.43 892.04 298.01 C 893.82 310.17 895.38 322.54 893.82 334.82 C 891.63 352.31 888.31 369.71 882.79 386.47 C 873.75 418.23 860.29 449.00 840.77 475.78 C 832.18 486.50 822.61 497.10 809.93 502.99 C 798.08 509.45 782.79 508.88 771.48 501.56 C 767.24 499.07 763.96 495.42 760.65 491.87 C 757.87 519.18 743.47 544.13 724.45 563.45 C 710.66 576.76 694.19 587.05 676.61 594.61 C 662.52 600.85 648.08 606.34 633.20 610.38 C 630.71 610.97 628.33 611.90 625.90 612.69 C 638.11 624.77 648.11 638.81 659.18 651.89 C 671.46 666.88 684.40 681.31 697.14 695.91 C 706.66 706.85 716.01 718.02 723.83 730.27 C 724.33 731.23 725.27 732.21 726.43 731.49 C 740.30 712.83 749.62 690.85 753.68 667.97 C 755.81 657.00 756.27 645.81 757.52 634.73 C 757.92 629.84 759.67 624.77 763.70 621.70 C 768.27 618.44 774.34 617.81 779.67 619.32 C 787.09 621.31 793.47 625.88 799.48 630.51 C 810.82 639.31 819.44 651.12 826.33 663.62 C 832.43 675.57 836.12 688.69 838.08 701.94 C 839.05 713.16 839.19 724.82 835.24 735.53 C 839.49 735.52 844.13 736.70 846.82 740.25 C 850.79 745.10 849.92 751.97 848.64 757.66 C 842.69 776.72 828.97 792.49 812.87 803.87 C 816.13 808.44 818.43 814.46 815.93 819.92 C 811.67 828.84 802.70 834.20 794.04 838.16 C 786.24 841.09 778.27 844.10 769.88 844.60 C 772.67 847.99 776.09 850.87 778.43 854.63 C 786.97 867.30 790.26 884.40 783.90 898.69 C 781.40 904.78 776.75 909.73 771.27 913.26 C 755.83 923.51 737.18 927.58 718.98 929.22 C 712.33 929.82 705.66 930.74 698.97 930.24 C 689.32 929.29 679.54 929.25 670.05 927.09 C 665.88 926.23 661.83 924.50 657.54 924.44 C 651.85 932.19 643.32 937.40 634.27 940.35 C 619.07 945.33 602.94 946.89 587.01 946.49 C 572.86 946.74 558.46 945.01 545.22 939.80 C 533.96 935.33 524.26 926.63 519.52 915.38 C 515.16 915.52 510.79 915.07 506.44 915.48 C 504.59 917.74 503.98 920.79 502.20 923.14 C 493.64 934.96 479.57 941.46 465.48 943.79 C 449.84 946.55 433.82 947.43 418.02 945.54 C 404.58 944.52 390.74 941.47 379.73 933.29 C 376.54 930.68 373.52 927.80 370.93 924.60 C 364.22 925.45 357.88 928.02 351.12 928.60 C 342.78 929.51 334.41 930.62 326.01 930.37 C 308.14 929.45 289.88 926.67 273.87 918.25 C 266.34 914.05 259.27 908.03 255.99 899.86 C 251.09 887.58 251.91 873.46 257.24 861.47 C 262.92 847.20 275.96 836.20 290.86 832.66 C 290.88 828.41 289.67 824.36 288.78 820.26 C 284.87 796.57 287.46 771.61 297.58 749.71 C 302.27 739.07 308.41 728.92 316.58 720.58 C 324.58 712.70 333.43 705.59 343.44 700.42 C 351.41 696.38 359.53 692.41 368.26 690.30 C 369.16 685.96 370.16 681.65 371.25 677.36 C 377.10 658.28 382.58 638.87 392.16 621.24 C 393.29 619.30 394.13 617.22 395.04 615.18 C 380.86 610.95 366.39 607.34 352.77 601.43 C 323.74 590.20 295.78 573.37 276.92 548.07 C 265.31 532.05 256.06 513.66 253.86 493.77 C 251.27 495.50 249.22 497.86 246.83 499.82 C 238.23 506.38 226.76 509.10 216.17 506.75 C 206.94 504.61 198.75 499.44 191.59 493.40 C 179.34 482.26 170.21 468.24 161.82 454.09 C 154.36 441.09 147.96 427.49 142.43 413.57 C 136.27 396.80 131.73 379.48 127.59 362.12 C 123.43 344.41 121.27 326.10 122.97 307.94 C 125.06 292.89 129.78 277.60 139.80 265.87 C 150.54 252.91 164.70 243.24 179.42 235.31 C 193.04 227.22 207.61 220.73 220.59 211.57 C 231.53 203.66 240.47 193.46 250.48 184.48 C 258.40 176.32 267.25 169.14 276.33 162.31 C 292.58 150.82 311.74 141.97 331.99 142.18 C 346.86 141.74 362.06 145.84 373.96 154.94 C 400.03 137.27 430.79 127.53 461.68 122.60 C 463.52 116.49 465.05 110.15 468.82 104.87 C 475.36 95.12 484.45 85.89 496.35 83.42 M 492.46 100.53 C 486.51 104.04 481.82 109.39 478.30 115.28 C 472.83 125.16 469.08 136.24 469.19 147.64 C 464.56 145.44 463.65 139.67 462.48 135.20 C 455.09 136.13 447.90 138.22 440.66 139.92 C 421.31 145.50 402.34 152.77 384.88 162.91 C 377.97 166.83 371.65 171.66 365.09 176.11 C 358.96 180.17 353.33 184.94 347.91 189.90 C 345.04 192.43 342.69 195.66 339.10 197.25 C 340.44 193.25 343.03 189.87 345.55 186.56 C 351.38 178.96 358.64 172.62 366.12 166.71 C 362.51 163.36 357.77 161.72 353.29 159.92 C 346.20 157.18 338.50 157.10 331.01 157.26 C 317.48 156.85 304.45 162.16 293.15 169.22 C 278.43 177.57 266.66 189.95 254.72 201.72 C 242.20 212.87 231.29 225.62 219.52 237.52 C 211.54 245.89 203.71 254.78 193.83 260.94 C 196.84 254.66 202.00 249.76 206.36 244.43 C 211.26 238.36 217.44 233.47 222.17 227.26 C 211.13 234.97 198.91 240.68 187.28 247.41 C 172.72 256.60 157.55 266.21 147.85 280.84 C 143.01 288.28 140.32 296.95 138.79 305.63 C 137.84 314.07 138.25 322.58 138.39 331.05 C 139.52 348.90 143.59 366.41 148.61 383.52 C 151.23 390.41 152.73 397.68 155.61 404.47 C 159.98 416.03 164.94 427.36 170.66 438.32 C 177.70 451.16 184.95 464.17 195.38 474.61 C 200.37 479.62 205.26 485.07 211.77 488.11 C 220.70 492.63 232.39 491.75 239.90 484.86 C 252.34 473.52 260.20 457.97 264.77 441.95 C 269.45 426.47 271.87 410.44 274.48 394.52 C 277.30 379.14 277.98 363.47 280.00 347.98 C 281.07 337.84 282.64 327.75 283.55 317.59 C 285.67 305.28 286.77 292.81 289.23 280.55 C 291.56 266.38 294.42 252.20 299.51 238.73 C 303.20 228.05 307.78 217.59 314.22 208.26 C 319.34 200.64 324.96 192.83 332.83 187.88 C 330.43 192.36 327.39 196.45 324.93 200.90 C 313.82 220.52 305.51 241.87 301.55 264.11 C 299.40 278.35 297.90 292.70 297.08 307.07 C 296.49 313.03 295.48 318.97 295.41 324.97 C 295.39 334.03 293.41 342.95 293.32 352.01 C 291.99 366.03 290.30 380.01 289.04 394.04 C 287.44 411.37 283.15 428.30 279.30 445.23 C 276.06 455.21 272.82 465.32 267.46 474.40 C 266.33 476.59 264.53 478.93 265.53 481.53 C 267.45 488.95 268.65 496.57 271.12 503.85 C 276.47 521.71 286.50 538.14 299.83 551.17 C 304.75 556.25 309.94 561.11 315.70 565.24 C 334.54 578.92 356.07 588.32 377.93 596.04 C 396.74 602.86 416.44 606.74 436.01 610.66 C 443.99 611.98 452.08 612.48 460.06 613.81 C 467.13 615.04 474.36 614.20 481.44 615.37 C 496.62 615.96 511.83 615.62 527.02 615.59 C 548.22 614.80 569.39 612.50 590.16 608.05 C 622.50 601.56 654.30 591.22 683.28 575.30 C 699.05 566.85 712.79 554.91 724.22 541.22 C 737.14 525.88 744.51 506.57 747.86 486.96 C 748.20 484.19 749.67 481.79 750.54 479.19 C 747.02 472.36 743.20 465.66 740.31 458.52 C 737.02 450.80 735.00 442.63 733.21 434.46 C 730.00 422.16 727.45 409.67 725.79 397.07 C 723.20 383.50 723.03 369.63 720.77 356.02 C 718.84 335.72 717.48 315.37 715.85 295.04 C 715.43 264.37 707.05 234.06 693.30 206.72 C 689.95 200.00 685.45 193.98 681.16 187.85 C 685.32 189.78 688.31 193.33 691.46 196.53 C 703.71 209.76 710.33 226.96 716.36 243.66 C 725.91 277.04 729.36 311.69 733.42 346.03 C 735.71 360.67 737.42 375.38 739.15 390.09 C 740.37 399.70 742.99 409.04 744.89 418.52 C 747.10 429.81 750.31 440.90 754.48 451.62 C 758.97 463.92 765.92 475.52 775.44 484.58 C 782.12 490.99 792.20 492.10 800.84 489.80 C 809.77 487.11 816.29 480.09 822.44 473.47 C 835.70 458.16 845.98 440.45 853.80 421.81 C 861.26 406.35 866.49 389.95 871.16 373.46 C 876.48 351.66 880.62 329.13 878.13 306.64 C 876.03 296.62 873.20 286.34 866.83 278.12 C 859.23 268.36 849.49 260.44 838.88 254.15 C 824.46 244.60 808.85 237.05 794.14 227.98 C 799.73 234.03 806.00 239.45 811.16 245.89 C 814.53 250.35 818.75 254.21 821.42 259.17 C 817.66 257.70 814.87 254.72 811.84 252.19 C 804.96 246.41 799.21 239.46 792.60 233.40 C 785.86 227.11 780.17 219.83 773.48 213.52 C 765.10 205.57 757.56 196.78 748.86 189.18 C 737.17 178.83 724.85 168.71 710.34 162.61 C 702.13 158.69 692.98 157.32 683.99 156.70 C 671.82 156.68 659.02 158.88 648.85 165.94 C 654.56 170.23 659.46 175.47 664.48 180.52 C 669.13 185.64 673.93 190.85 676.90 197.17 C 674.73 196.08 672.80 194.60 671.11 192.89 C 658.84 181.15 644.76 171.52 630.24 162.83 C 609.54 152.18 587.95 142.43 564.87 138.44 C 560.75 137.51 556.93 139.65 553.46 141.56 C 553.46 141.83 553.45 142.36 553.45 142.63 C 557.04 144.59 561.06 146.01 563.93 149.07 C 566.65 151.65 568.47 155.91 566.44 159.44 C 563.17 165.93 555.58 168.45 548.96 169.99 C 537.48 172.82 525.48 170.46 514.53 166.62 C 510.28 164.76 505.78 162.74 502.91 158.95 C 507.09 159.89 511.11 161.44 515.29 162.38 C 522.64 164.14 530.26 163.69 537.75 163.51 C 543.30 162.81 549.21 162.09 554.01 158.99 C 556.25 157.74 556.27 154.16 554.40 152.60 C 550.17 149.00 544.54 147.29 539.04 147.27 C 526.98 147.13 514.87 146.97 502.93 148.86 C 503.23 147.63 504.35 146.86 505.54 146.65 C 518.11 143.32 530.54 139.38 542.53 134.37 C 549.22 130.41 556.70 126.86 561.32 120.33 C 562.42 118.35 564.44 115.64 562.58 113.51 C 560.62 110.89 557.01 110.46 553.98 110.26 C 547.84 110.23 541.56 109.81 535.57 111.46 C 527.63 113.61 519.72 116.34 512.78 120.86 C 504.40 126.25 496.79 132.73 489.42 139.41 C 487.79 140.92 485.87 142.07 483.83 142.91 C 485.83 138.76 489.69 136.03 492.30 132.32 C 497.08 126.01 501.95 119.15 502.64 111.00 C 502.93 107.19 503.93 102.77 501.54 99.42 C 498.57 97.93 495.18 99.03 492.46 100.53 M 560.05 625.51 C 563.33 631.51 566.05 637.84 567.58 644.52 C 570.01 655.24 572.87 665.96 573.35 677.01 C 573.53 685.24 573.69 693.55 571.90 701.65 C 570.88 705.95 570.59 710.69 567.87 714.36 C 567.37 698.93 568.80 683.33 565.86 668.05 C 563.85 653.74 559.34 639.94 554.01 626.57 C 547.96 627.70 541.76 627.08 535.67 627.78 C 532.79 628.13 529.89 628.40 527.00 628.40 C 513.33 628.41 499.65 628.54 485.99 628.31 C 479.12 627.76 472.23 626.91 465.33 627.39 C 463.91 628.33 463.45 630.16 462.72 631.63 C 460.12 638.43 457.69 645.32 455.56 652.29 C 452.25 665.97 449.00 679.85 449.23 694.02 C 448.20 703.98 449.07 713.97 449.57 723.93 C 450.76 731.77 453.10 739.42 456.28 746.69 C 458.38 751.36 460.21 756.33 463.80 760.10 C 462.07 752.93 459.47 745.97 458.36 738.66 C 456.93 728.75 455.91 718.64 457.58 708.70 C 457.67 715.56 458.81 722.34 459.86 729.11 C 461.73 740.39 466.33 750.93 470.61 761.46 C 473.46 768.30 478.36 774.00 483.57 779.17 C 480.50 773.64 478.33 767.68 476.02 761.81 C 474.75 758.67 474.28 755.31 474.23 751.95 C 478.85 762.49 485.39 772.28 493.95 780.06 C 497.79 783.15 501.87 786.56 506.98 787.08 C 503.69 778.93 499.77 770.98 497.59 762.42 C 495.20 752.10 493.85 741.52 494.43 730.91 C 496.55 738.65 496.60 746.90 499.70 754.40 C 504.13 767.92 510.56 781.13 520.60 791.40 C 524.28 794.82 528.08 798.41 532.93 800.09 C 541.33 774.31 551.08 748.95 558.59 722.88 C 559.16 720.45 559.64 717.97 560.94 715.81 C 561.40 733.48 557.34 750.81 553.12 767.85 C 551.75 773.57 550.98 779.43 549.35 785.10 C 545.75 797.85 542.70 810.74 539.70 823.64 C 537.33 831.66 536.28 839.98 534.38 848.11 C 532.76 857.69 530.65 867.23 530.26 876.97 C 532.36 871.06 536.31 866.08 541.09 862.08 C 555.68 849.88 575.30 845.14 594.02 845.72 C 606.35 846.82 619.44 849.56 628.87 858.15 C 629.88 859.48 632.50 862.02 629.99 863.13 C 611.36 852.69 588.59 850.88 568.03 855.87 C 559.02 858.25 550.08 861.80 542.93 867.92 C 538.13 872.08 533.32 876.63 530.67 882.51 C 529.91 887.64 530.38 892.87 530.33 898.04 C 530.01 907.06 534.62 915.80 541.53 921.43 C 547.41 926.57 555.27 928.33 562.67 930.09 C 564.74 930.35 567.12 931.12 569.09 930.10 C 571.13 926.18 571.83 921.73 572.45 917.41 C 573.13 908.50 572.98 899.32 569.94 890.83 C 568.38 885.74 565.24 881.40 562.95 876.65 C 570.91 880.50 575.14 889.10 577.92 897.07 C 580.98 908.32 581.49 921.00 576.15 931.66 C 586.42 931.74 596.70 931.93 606.96 931.46 C 610.94 931.33 613.74 927.90 615.76 924.84 C 619.89 917.65 622.02 909.30 621.79 901.01 C 621.94 894.35 621.40 887.51 618.46 881.44 C 616.57 876.66 613.13 872.82 610.02 868.84 C 613.81 869.42 616.61 872.22 619.17 874.86 C 626.05 881.99 628.60 892.32 628.52 902.00 C 628.74 911.38 626.40 921.00 621.30 928.93 C 624.21 928.20 627.18 927.69 630.08 926.89 C 639.55 924.52 647.66 916.83 650.07 907.30 C 651.85 898.85 649.49 890.28 646.27 882.50 C 643.55 876.53 638.98 871.73 634.58 866.97 C 636.32 865.77 637.83 864.02 640.00 863.61 C 642.78 864.35 645.18 866.28 647.24 868.28 C 648.63 865.51 648.76 862.35 649.18 859.34 C 651.85 838.00 652.83 816.50 652.54 795.00 C 652.89 785.00 651.44 775.07 651.56 765.08 C 649.22 735.89 646.79 706.55 640.07 677.97 C 639.08 674.30 637.70 670.72 637.11 666.96 C 642.78 678.15 646.14 690.35 649.97 702.26 C 653.06 710.39 654.49 718.99 656.57 727.39 C 659.44 738.83 660.19 750.66 662.78 762.16 C 663.77 770.76 665.35 779.33 665.44 788.01 C 665.66 800.35 667.00 812.71 665.73 825.04 C 665.35 838.31 665.37 851.74 661.89 864.66 C 661.05 869.34 658.63 873.49 657.27 878.00 C 657.58 879.93 658.88 881.52 659.72 883.27 C 664.41 891.76 665.21 901.87 663.42 911.28 C 671.20 911.98 678.73 915.22 686.63 914.57 C 688.86 913.33 689.44 910.56 690.21 908.34 C 693.28 896.85 691.68 884.25 686.16 873.76 C 684.44 870.59 681.95 867.93 680.03 864.90 C 682.13 865.61 684.10 866.68 685.70 868.24 C 698.75 879.83 702.42 900.38 694.29 915.81 C 704.49 915.36 714.92 916.38 724.91 913.81 C 730.14 910.70 732.31 904.47 733.86 898.90 C 737.20 887.12 736.23 873.37 728.54 863.44 C 725.85 859.75 721.90 857.31 718.89 853.93 C 723.71 854.55 727.73 857.59 731.33 860.66 C 738.14 867.17 742.19 876.56 742.28 885.98 C 742.00 895.32 741.05 905.24 735.16 912.92 C 740.51 911.34 746.31 910.32 750.85 906.85 C 756.66 901.36 758.62 893.26 760.33 885.75 C 761.30 878.07 759.37 870.09 755.58 863.39 C 753.09 858.58 748.69 855.24 745.79 850.75 C 758.46 856.42 767.28 870.10 767.22 884.02 C 766.82 890.74 765.64 897.75 761.34 903.18 C 765.95 899.80 769.57 895.03 771.21 889.53 C 773.04 880.61 771.90 870.83 766.92 863.08 C 759.97 852.73 748.92 845.62 737.18 841.87 C 725.78 838.71 713.67 838.66 702.03 840.33 C 693.05 841.49 684.80 845.59 677.17 850.26 C 674.91 851.76 672.31 852.61 669.64 853.00 C 673.20 847.82 678.42 843.98 683.66 840.63 C 696.49 832.71 711.85 829.00 726.86 830.06 C 727.19 829.86 727.84 829.45 728.17 829.25 C 736.61 804.50 732.51 776.90 721.03 753.82 C 714.67 741.16 705.71 730.07 696.81 719.13 C 686.20 706.15 675.18 693.51 664.07 680.96 C 653.13 668.80 643.16 655.83 632.79 643.20 C 625.71 634.01 617.85 625.43 610.83 616.20 C 593.99 619.68 577.19 623.70 560.05 625.51 M 409.53 618.27 C 407.42 623.05 404.25 627.29 402.18 632.10 C 397.64 642.55 393.74 653.26 390.17 664.07 C 382.62 684.60 378.54 706.15 374.93 727.65 C 372.75 739.99 372.49 752.51 371.50 764.95 C 371.27 794.32 370.40 823.91 375.42 852.97 C 376.30 858.59 377.32 864.27 379.14 869.68 C 381.74 867.80 383.65 864.69 387.00 864.08 C 388.74 864.52 389.90 866.09 391.33 867.10 C 386.43 873.34 381.97 880.16 380.12 887.99 C 377.31 896.95 377.64 907.30 382.63 915.44 C 389.00 924.61 400.20 928.39 410.78 929.98 C 406.69 924.37 404.29 917.73 403.00 910.96 C 401.25 898.92 402.87 885.56 411.02 876.02 C 413.98 872.70 417.33 868.59 422.19 868.60 C 420.61 870.84 418.85 872.95 417.09 875.06 C 407.12 888.67 406.96 907.83 414.50 922.58 C 416.82 926.89 420.53 931.70 425.95 931.54 C 435.62 931.82 445.29 931.59 454.96 931.46 C 449.37 920.76 449.43 907.86 452.50 896.42 C 455.21 888.40 459.65 880.04 467.37 875.92 C 466.68 877.61 465.80 879.23 464.78 880.76 C 461.65 885.31 460.36 890.77 459.00 896.04 C 456.22 906.71 456.57 918.54 461.40 928.58 C 462.13 930.36 464.09 929.38 465.49 929.25 C 471.67 927.76 478.01 926.05 483.18 922.18 C 489.71 917.67 494.91 910.22 494.69 902.04 C 494.65 896.36 494.86 890.64 493.97 885.02 C 493.68 881.68 491.05 879.38 489.14 876.88 C 485.53 872.19 480.97 868.33 476.33 864.72 C 461.23 854.76 442.38 851.98 424.65 853.86 C 414.27 855.15 404.65 859.36 394.93 862.93 C 395.72 859.52 398.60 857.24 401.32 855.32 C 411.29 848.84 423.33 846.71 434.98 845.79 C 442.51 845.94 450.03 847.03 457.39 848.63 C 464.88 850.70 471.90 854.34 478.37 858.59 C 484.14 863.50 489.73 869.02 492.87 876.04 C 491.63 863.79 488.12 851.88 484.80 840.06 C 481.40 827.36 477.41 814.83 473.85 802.17 C 471.81 793.92 468.44 786.08 466.19 777.89 C 465.40 775.50 465.02 772.73 462.93 771.08 C 458.07 766.66 454.86 760.83 451.82 755.10 C 447.72 747.56 445.96 739.08 444.22 730.77 C 441.90 719.33 442.51 707.61 442.46 696.02 C 442.34 685.02 443.85 674.08 446.09 663.34 C 447.99 652.51 451.28 641.90 455.84 631.90 C 456.56 629.84 458.92 628.08 458.33 625.77 C 445.55 624.85 432.83 622.92 420.37 619.94 C 416.79 619.18 413.14 618.83 409.53 618.27 M 774.46 634.25 C 771.12 638.88 771.35 644.59 771.33 650.02 C 767.93 679.50 759.89 709.17 742.97 733.92 C 740.27 738.11 736.95 741.90 734.37 746.17 C 740.67 761.78 745.83 778.13 746.93 795.04 C 748.03 801.01 746.49 806.97 746.43 812.95 C 746.24 819.04 744.42 824.89 743.14 830.81 C 747.10 831.68 750.86 833.61 754.98 833.69 C 769.76 833.50 784.84 829.63 796.90 820.83 C 799.53 818.92 802.51 816.08 801.53 812.47 C 799.99 809.84 796.53 810.60 794.01 810.18 C 788.19 809.40 782.30 809.59 776.48 808.86 C 772.36 808.30 768.02 808.75 764.17 806.94 C 768.26 805.71 772.55 805.89 776.77 805.44 C 789.76 802.97 802.12 796.90 811.63 787.64 C 820.98 779.06 828.71 768.69 834.19 757.24 C 835.71 754.51 835.60 751.37 835.51 748.36 C 832.01 747.35 829.90 750.69 827.82 752.84 C 820.24 761.60 813.88 771.97 803.71 778.04 C 804.82 776.10 806.08 774.25 807.50 772.53 C 811.78 767.29 815.14 761.40 818.55 755.59 C 820.97 751.54 822.42 747.01 823.41 742.42 C 829.52 711.16 821.66 676.77 800.15 652.87 C 795.17 646.53 789.01 641.19 782.24 636.85 C 779.91 635.31 777.24 634.40 774.46 634.25 M 343.29 717.33 C 328.02 727.37 315.80 741.98 309.16 759.05 C 300.82 778.08 298.93 800.10 305.00 820.06 C 306.18 823.92 307.43 827.76 308.43 831.67 C 323.83 830.46 340.15 833.77 352.38 843.62 C 354.88 846.19 358.59 848.60 358.58 852.59 C 354.95 852.23 352.29 849.53 349.21 847.90 C 335.01 839.42 317.42 837.77 301.53 841.70 C 291.12 844.37 281.82 850.73 275.14 859.09 C 270.41 865.72 267.13 873.77 267.34 882.02 C 267.18 891.14 272.12 900.25 280.08 904.80 C 277.47 901.16 274.96 897.30 274.06 892.85 C 270.94 881.94 274.35 869.95 281.10 861.11 C 284.82 857.00 289.20 852.52 295.02 851.96 C 291.97 855.24 288.26 857.98 285.94 861.90 C 280.64 870.36 277.68 880.89 280.40 890.75 C 282.13 896.92 284.47 903.29 289.18 907.84 C 294.01 911.40 300.27 911.86 305.78 913.89 C 300.39 907.22 298.50 898.40 298.56 890.00 C 298.15 879.31 302.49 868.58 310.10 861.09 C 313.93 857.51 318.52 853.98 324.02 853.98 C 320.92 856.56 317.39 858.68 314.80 861.82 C 309.66 867.82 306.07 875.30 305.43 883.24 C 305.09 889.71 304.79 896.52 307.52 902.57 C 309.43 906.89 311.40 911.70 315.65 914.22 C 323.95 915.56 332.35 915.35 340.70 914.75 C 334.31 903.86 335.53 889.85 340.79 878.76 C 343.12 874.56 346.04 869.86 351.01 868.58 C 348.07 874.24 344.57 879.82 343.62 886.25 C 342.92 895.53 342.64 905.37 347.33 913.78 C 353.28 913.80 359.12 912.54 364.74 910.67 C 364.64 902.60 363.75 894.08 367.50 886.60 C 368.14 884.47 370.55 882.21 368.99 879.98 C 367.56 877.33 366.02 874.73 365.17 871.84 C 358.09 848.27 357.28 823.44 357.26 799.00 C 357.33 786.25 357.19 773.46 358.44 760.76 C 359.41 742.36 362.42 724.15 365.87 706.07 C 357.36 707.30 350.39 712.89 343.29 717.33 M 478.90 786.35 C 481.63 793.16 485.05 799.68 487.48 806.62 C 489.56 813.19 492.01 819.65 493.99 826.26 C 497.17 835.11 498.91 844.37 501.86 853.29 C 505.15 868.87 508.88 884.66 508.32 900.69 C 510.82 900.56 513.32 900.56 515.83 900.70 C 515.66 895.46 515.54 890.22 515.66 884.99 C 517.58 858.84 524.24 833.38 531.00 808.14 C 523.64 806.22 517.58 801.19 512.86 795.40 C 508.96 796.59 504.60 796.83 500.76 795.31 C 495.93 793.70 492.29 790.06 488.58 786.78 C 485.36 786.99 482.01 787.93 478.90 786.35 Z" />
<path fill="#000000" stroke="#000000" stroke-width="0.09375" opacity="1.00" d=" M 276.80 186.79 C 280.33 184.23 283.48 180.63 288.03 180.02 C 286.19 182.50 283.60 184.24 281.52 186.50 C 270.18 199.28 259.22 212.48 249.80 226.76 C 247.62 229.92 246.41 233.94 243.02 236.08 C 244.97 226.14 250.23 217.19 255.82 208.87 C 261.48 200.36 268.71 193.00 276.80 186.79 Z" />
<path fill="#000000" stroke="#000000" stroke-width="0.09375" opacity="1.00" d=" M 728.98 180.05 C 745.24 188.80 758.00 203.16 766.79 219.25 C 769.45 224.74 772.66 230.09 773.91 236.12 C 771.66 234.30 770.03 231.90 768.48 229.49 C 758.59 215.53 748.68 201.53 737.17 188.83 C 734.62 185.73 730.75 183.75 728.98 180.05 Z" />
<path fill="#000000" stroke="#000000" stroke-width="0.09375" opacity="1.00" d=" M 361.27 252.24 C 365.75 247.91 371.74 244.93 378.00 244.63 C 380.79 244.63 385.23 246.35 384.13 249.87 C 382.72 254.05 377.91 255.11 374.25 256.48 C 367.99 258.31 361.90 261.03 355.34 261.56 C 355.66 257.64 358.81 254.96 361.27 252.24 Z" />
<path fill="#000000" stroke="#000000" stroke-width="0.09375" opacity="1.00" d=" M 630.24 245.08 C 633.42 243.91 636.92 244.82 639.99 245.94 C 646.55 248.48 652.62 253.30 655.30 259.97 C 654.20 262.53 651.50 260.77 649.55 260.51 C 643.43 258.67 637.05 257.45 631.25 254.71 C 628.83 253.38 625.87 250.34 627.39 247.44 C 627.80 246.18 629.14 245.60 630.24 245.08 Z" />
<path fill="#000000" stroke="#000000" stroke-width="0.09375" opacity="1.00" d=" M 377.37 272.49 C 384.00 270.62 392.39 272.91 395.37 279.58 C 398.20 285.60 394.96 292.32 390.89 296.89 C 383.70 304.71 373.13 308.04 363.07 310.36 C 356.79 311.69 350.51 313.98 344.00 313.40 C 341.35 313.17 339.87 310.43 340.50 307.99 C 342.09 299.79 347.10 292.72 352.75 286.77 C 359.50 279.99 367.89 274.44 377.37 272.49 M 375.88 278.90 C 365.37 282.52 356.73 290.52 350.85 299.81 C 355.60 296.76 360.26 293.34 365.78 291.80 C 371.33 289.84 377.27 289.95 382.99 288.88 C 387.06 288.51 389.22 283.16 387.05 279.94 C 383.94 277.45 379.49 278.04 375.88 278.90 Z" />
<path fill="#000000" stroke="#000000" stroke-width="0.09375" opacity="1.00" d=" M 625.30 272.32 C 633.73 270.30 642.42 273.94 649.35 278.57 C 659.15 285.66 667.83 295.30 671.18 307.15 C 672.70 310.99 668.63 314.09 665.05 313.45 C 653.70 312.84 642.49 309.73 632.21 304.89 C 625.04 301.43 618.14 295.78 615.83 287.88 C 613.84 281.19 618.33 273.48 625.30 272.32 M 625.67 278.76 C 622.05 280.52 622.74 286.17 625.91 288.08 C 629.54 290.27 634.04 289.84 638.11 290.40 C 646.34 290.93 654.13 294.33 660.79 299.06 C 655.32 291.67 648.75 284.71 640.25 280.84 C 635.73 278.87 630.56 277.35 625.67 278.76 Z" />
<path fill="#000000" stroke="#000000" stroke-width="0.09375" opacity="1.00" d=" M 354.20 343.98 C 360.40 342.38 367.35 341.64 373.29 344.52 C 374.55 345.24 376.55 345.91 375.72 347.75 C 367.03 349.21 358.28 351.57 351.02 356.78 C 359.17 353.09 368.23 353.20 376.98 353.50 C 396.10 354.57 414.02 365.83 423.92 382.11 C 433.05 396.99 434.73 415.18 433.42 432.24 C 431.81 443.48 429.39 455.16 422.46 464.45 C 413.05 477.76 396.84 484.63 381.03 486.36 C 374.35 486.62 367.65 486.70 360.97 486.35 C 345.36 484.66 330.67 476.25 321.41 463.53 C 312.21 450.24 308.02 433.99 307.78 417.95 C 308.66 403.52 312.89 388.67 322.72 377.72 C 325.80 374.59 326.12 369.96 328.06 366.19 C 333.01 355.49 342.69 346.86 354.20 343.98 M 349.65 372.61 C 339.39 377.52 331.91 386.63 326.56 396.44 C 322.10 404.60 318.38 413.53 318.25 422.97 C 318.17 427.99 318.01 433.03 318.42 438.04 C 320.29 454.06 331.27 468.58 346.19 474.73 C 356.51 479.32 367.94 479.85 379.05 479.59 C 377.07 479.05 375.06 478.57 373.01 478.53 C 365.70 478.26 358.75 475.27 352.66 471.39 C 341.57 464.08 334.03 452.44 329.96 439.97 C 325.68 425.93 326.91 410.09 334.22 397.26 C 340.42 386.82 350.15 377.70 362.29 375.02 C 374.11 371.88 387.20 373.85 397.53 380.41 C 409.49 387.65 417.72 400.28 420.48 413.90 C 422.73 421.40 422.77 429.32 422.10 437.06 C 420.85 448.43 415.11 459.04 406.86 466.85 C 402.19 471.08 396.59 474.02 391.06 476.93 C 398.88 475.41 406.18 471.38 412.11 466.12 C 419.79 459.35 423.25 449.27 425.19 439.51 C 426.07 434.04 425.65 428.48 425.67 422.98 C 425.76 414.10 422.88 405.52 419.36 397.49 C 412.57 383.75 399.75 373.09 384.90 369.17 C 373.21 366.54 360.55 367.48 349.65 372.61 M 381.56 383.79 C 377.09 385.41 373.22 388.77 371.21 393.11 C 367.94 401.08 372.65 411.58 381.22 413.63 C 388.73 415.83 397.81 412.15 400.57 404.57 C 404.38 396.37 398.81 386.33 390.57 383.67 C 387.62 383.07 384.49 383.07 381.56 383.79 M 346.47 415.62 C 340.77 416.87 335.84 421.93 336.20 428.03 C 335.27 435.50 342.45 442.55 349.88 441.59 C 356.27 441.35 362.40 435.64 361.83 429.01 C 362.74 420.96 354.19 413.95 346.47 415.62 Z" />
<path fill="#000000" stroke="#000000" stroke-width="0.09375" opacity="1.00" d=" M 635.11 347.07 C 638.99 342.54 645.55 342.36 651.06 342.71 C 664.51 343.67 675.95 353.10 682.71 364.30 C 684.76 367.35 685.40 371.02 686.66 374.41 C 688.81 377.51 691.71 380.06 693.67 383.33 C 698.27 390.88 701.19 399.38 702.86 408.03 C 704.95 425.64 702.21 444.31 692.49 459.42 C 684.63 472.27 671.06 480.96 656.56 484.44 C 640.09 488.36 622.01 487.06 606.85 479.22 C 597.93 474.46 590.50 466.92 586.06 457.81 C 577.09 440.03 575.31 418.93 580.70 399.80 C 585.23 383.62 595.32 368.36 610.50 360.46 C 618.16 356.72 626.36 353.68 634.93 353.09 C 643.06 352.16 651.09 354.23 658.99 355.87 C 651.64 351.45 643.35 349.15 635.11 347.07 M 610.13 376.17 C 598.48 384.12 591.25 397.24 587.60 410.60 C 583.51 425.10 585.19 440.85 591.46 454.47 C 596.73 466.30 608.85 473.72 621.01 476.84 C 617.22 474.69 613.18 472.97 609.73 470.27 C 602.12 465.17 596.58 457.45 592.74 449.24 C 585.99 433.50 588.06 414.99 596.04 400.10 C 600.84 391.59 607.23 383.66 615.93 378.91 C 627.66 372.31 642.53 371.46 654.79 377.17 C 670.28 383.52 680.43 399.25 682.44 415.56 C 684.38 426.16 682.01 437.08 677.96 446.92 C 672.23 460.70 660.08 471.15 646.23 476.28 C 642.22 477.89 637.82 477.49 633.71 478.67 C 640.73 478.72 647.86 479.10 654.74 477.43 C 662.04 475.66 669.07 472.60 675.12 468.13 C 686.05 460.35 692.28 447.15 693.46 434.00 C 694.28 417.61 690.14 400.28 679.41 387.54 C 674.26 381.71 668.57 376.12 661.59 372.53 C 645.37 364.46 625.13 366.16 610.13 376.17 M 623.36 383.46 C 614.60 384.79 606.96 394.35 609.93 403.26 C 611.72 407.59 615.16 411.45 619.51 413.31 C 625.11 414.27 631.89 414.67 636.17 410.18 C 643.43 404.36 642.75 392.04 635.60 386.41 C 632.31 383.39 627.62 382.78 623.36 383.46 M 606.35 415.43 C 598.64 416.59 594.47 426.06 597.05 432.99 C 599.18 438.00 604.33 442.07 609.97 441.58 C 616.89 441.62 622.51 434.76 621.85 428.01 C 622.59 419.96 613.95 413.55 606.35 415.43 Z" />
<path fill="#000000" stroke="#000000" stroke-width="0.09375" opacity="1.00" d=" M 472.93 453.90 C 481.31 446.27 492.91 443.36 503.96 442.61 C 512.31 442.43 520.79 444.00 528.34 447.63 C 531.22 448.97 534.23 450.36 536.25 452.93 C 532.01 452.13 528.03 450.34 523.76 449.69 C 512.31 447.75 500.55 447.94 489.08 449.58 C 483.50 450.24 478.41 452.80 472.93 453.90 Z" />
<path fill="#000000" stroke="#000000" stroke-width="0.09375" opacity="1.00" d=" M 457.27 473.25 C 467.54 463.95 481.51 460.24 494.96 458.70 C 502.65 458.36 510.38 458.22 518.05 458.80 C 531.78 461.28 547.06 464.21 556.30 475.73 C 562.45 482.79 562.95 493.20 559.74 501.68 C 555.36 512.62 547.52 522.27 537.54 528.57 C 528.31 533.53 518.74 538.55 508.11 539.45 C 509.18 549.13 513.72 559.67 523.04 563.97 C 527.20 566.17 532.08 565.84 536.61 565.50 C 546.31 564.29 554.37 557.59 559.72 549.74 C 563.39 544.13 563.95 537.24 563.78 530.72 C 560.33 531.48 558.48 534.74 556.04 536.97 C 557.28 532.69 559.20 528.53 562.11 525.12 C 564.06 523.02 567.72 521.58 570.00 524.05 C 572.78 527.11 571.67 531.64 572.74 535.34 C 579.07 537.72 586.61 538.15 592.62 534.62 C 597.42 531.90 601.45 526.78 600.86 521.00 C 601.14 515.79 597.15 511.56 592.87 509.24 C 587.31 506.25 580.77 507.39 574.75 507.74 C 577.12 503.49 582.56 502.49 587.02 502.55 C 596.96 502.39 606.39 510.91 606.59 520.98 C 607.49 532.04 597.85 541.34 587.65 543.60 C 581.95 545.19 576.20 543.19 570.59 542.17 C 568.51 555.68 557.69 566.59 545.30 571.49 C 539.62 574.20 533.13 573.79 527.04 573.26 C 517.84 571.66 509.87 565.22 505.62 557.00 C 502.40 563.16 497.46 568.54 490.85 571.06 C 481.81 575.48 471.07 573.13 462.66 568.38 C 452.98 562.95 446.11 553.06 443.84 542.27 C 438.46 544.72 432.37 546.16 426.56 544.45 C 416.13 542.63 408.23 533.29 406.70 523.05 C 406.17 513.18 415.18 504.03 425.03 504.22 C 428.99 504.18 433.97 504.44 436.31 508.18 C 431.45 508.60 426.21 507.36 421.72 509.76 C 417.25 511.95 412.57 515.72 412.39 521.11 C 411.92 525.29 414.37 529.03 416.99 532.04 C 423.20 539.32 435.35 541.07 442.95 534.99 C 444.23 531.95 443.18 528.13 445.36 525.41 C 446.71 523.49 449.36 523.40 451.17 524.73 C 455.55 526.73 455.47 532.10 456.87 536.05 C 455.22 534.59 453.50 533.20 451.86 531.73 C 450.60 536.72 450.83 542.25 453.25 546.87 C 458.11 556.28 467.27 563.91 477.97 565.25 C 485.57 565.82 493.52 562.21 497.74 555.78 C 501.09 550.99 502.86 545.23 502.80 539.40 C 485.92 537.88 470.06 528.54 459.94 515.03 C 454.53 508.11 449.88 500.06 449.59 491.05 C 448.90 484.24 452.60 477.89 457.27 473.25 M 467.83 477.84 C 464.61 480.01 460.94 482.76 461.08 487.10 C 465.15 485.43 467.59 481.41 471.57 479.57 C 480.55 474.60 491.03 474.42 501.00 473.59 C 513.35 473.48 525.79 475.78 537.10 480.84 C 541.14 482.54 544.12 485.90 547.90 488.06 C 548.16 485.57 547.77 482.90 545.86 481.12 C 541.13 476.49 535.11 473.29 528.79 471.43 C 523.65 469.95 518.45 468.30 513.04 468.35 C 506.45 468.30 499.84 468.08 493.26 468.61 C 484.35 470.13 475.44 472.83 467.83 477.84 M 487.45 477.79 C 482.73 478.68 477.83 479.95 474.04 483.05 C 471.48 484.95 470.82 488.53 471.58 491.49 C 473.02 495.31 476.96 497.27 480.63 498.40 C 490.41 501.22 500.87 500.80 510.72 498.57 C 515.22 497.40 520.07 495.90 523.09 492.11 C 525.63 489.25 525.24 484.21 522.07 481.95 C 517.80 478.69 512.36 477.21 507.03 477.27 C 500.50 477.25 493.93 476.97 487.45 477.79 Z" />
<path fill="#000000" stroke="#000000" stroke-width="0.09375" opacity="1.00" d=" M 479.42 585.35 C 484.80 586.01 488.02 591.06 492.93 592.85 C 502.72 596.31 514.21 596.64 523.43 591.36 C 526.79 589.68 529.54 586.93 533.07 585.60 C 533.41 585.93 534.09 586.60 534.44 586.93 C 533.13 592.28 528.02 595.84 523.40 598.38 C 516.92 602.13 509.19 601.78 501.98 601.45 C 494.12 600.59 486.35 596.92 481.32 590.71 C 480.02 589.23 479.44 587.28 479.42 585.35 Z" />
<path fill="#000000" stroke="#000000" stroke-width="0.09375" opacity="1.00" d=" M 310.73 805.97 C 307.53 789.81 310.61 772.65 317.83 757.99 C 316.64 765.46 314.18 772.69 313.38 780.23 C 311.74 792.21 313.34 804.27 314.14 816.25 C 311.87 813.29 311.67 809.44 310.73 805.97 Z" />
</g>
</svg>
