<?xml version="1.0" encoding="UTF-8" standalone="no"?>
<svg
   width="1024pt"
   height="1024pt"
   viewBox="0 0 1024 1024"
   version="1.1"
   id="svg27"
   sodipodi:docname="dog.svg"
   inkscape:version="1.3.2 (091e20e, 2023-11-25)"
   xmlns:inkscape="http://www.inkscape.org/namespaces/inkscape"
   xmlns:sodipodi="http://sodipodi.sourceforge.net/DTD/sodipodi-0.dtd"
   xmlns="http://www.w3.org/2000/svg"
   xmlns:svg="http://www.w3.org/2000/svg">
  <defs
     id="defs27" />
  <sodipodi:namedview
     id="namedview27"
     pagecolor="#ffffff"
     bordercolor="#000000"
     borderopacity="0.25"
     inkscape:showpageshadow="2"
     inkscape:pageopacity="0.0"
     inkscape:pagecheckerboard="0"
     inkscape:deskcolor="#d1d1d1"
     inkscape:document-units="pt"
     inkscape:export-bgcolor="#ffffffff"
     inkscape:zoom="0.58081055"
     inkscape:cx="682.66667"
     inkscape:cy="682.66667"
     inkscape:window-width="1408"
     inkscape:window-height="1214"
     inkscape:window-x="47"
     inkscape:window-y="25"
     inkscape:window-maximized="0"
     inkscape:current-layer="svg27" />
  <g
     id="#fcfdfeff">
    <path
       fill="#fcfdfe"
       stroke="#fcfdfe"
       stroke-width="0.09375"
       opacity="1.00"
       d=" M 260.28 270.87 C 259.81 266.54 263.02 262.81 266.88 261.34 C 265.36 264.94 262.96 268.06 260.28 270.87 Z"
       id="path1" />
    <path
       fill="#fcfdfe"
       stroke="#fcfdfe"
       stroke-width="0.09375"
       opacity="1.00"
       d=" M 214.58 440.27 C 216.24 443.52 217.82 446.81 219.59 450.02 C 210.31 471.67 201.05 493.46 194.86 516.24 C 192.92 514.98 191.00 513.68 189.12 512.35 C 189.51 507.44 191.51 502.88 193.17 498.30 C 197.70 486.19 202.51 474.20 207.06 462.10 C 209.78 454.90 211.73 447.42 214.58 440.27 Z"
       id="path2" />
    <path
       fill="#fcfdfe"
       stroke="#fcfdfe"
       stroke-width="0.09375"
       opacity="1.00"
       d=" M 690.53 508.37 C 695.45 507.10 698.35 514.94 695.16 518.23 C 692.97 521.35 689.11 518.14 687.83 515.75 C 687.13 513.17 688.15 509.56 690.53 508.37 Z"
       id="path3" />
    <path
       fill="#fcfdfe"
       stroke="#fcfdfe"
       stroke-width="0.09375"
       opacity="1.00"
       d=" M 678.18 520.30 C 679.58 519.29 681.38 521.64 680.06 522.75 C 678.65 523.71 676.81 521.39 678.18 520.30 Z"
       id="path4" />
    <path
       fill="#fcfdfe"
       stroke="#fcfdfe"
       stroke-width="0.09375"
       opacity="1.00"
       d=" M 260.40 526.82 C 261.77 530.63 264.89 533.83 264.93 538.05 C 265.51 545.48 265.09 552.98 266.32 560.36 C 267.07 567.88 269.27 575.14 271.78 582.24 C 261.74 565.73 260.07 545.71 260.40 526.82 Z"
       id="path5" />
    <path
       fill="#fcfdfe"
       stroke="#fcfdfe"
       stroke-width="0.09375"
       opacity="1.00"
       d=" M 710.74 554.27 C 714.80 549.05 720.54 545.37 726.36 542.40 C 721.83 547.10 716.84 551.71 710.74 554.27 Z"
       id="path6" />
    <path
       fill="#fcfdfe"
       stroke="#fcfdfe"
       stroke-width="0.09375"
       opacity="1.00"
       d=" M 274.73 547.64 C 276.57 551.16 276.71 555.12 276.65 559.01 C 277.32 566.69 277.87 574.39 278.36 582.09 C 274.97 571.02 273.25 559.17 274.73 547.64 Z"
       id="path7" />
    <path
       fill="#fcfdfe"
       stroke="#fcfdfe"
       stroke-width="0.09375"
       opacity="1.00"
       d=" M 691.46 563.59 C 694.35 562.09 697.27 560.58 700.48 559.85 C 695.63 563.77 690.13 566.83 684.49 569.43 C 683.58 569.49 681.76 569.60 680.85 569.65 C 683.97 566.97 687.85 565.48 691.46 563.59 Z"
       id="path8" />
    <path
       fill="#fcfdfe"
       stroke="#fcfdfe"
       stroke-width="0.09375"
       opacity="1.00"
       d=" M 442.56 589.57 C 445.09 585.75 448.41 581.63 453.32 581.10 C 450.12 584.37 446.54 587.30 442.56 589.57 Z"
       id="path9" />
  </g>
  <g
     id="#000000ff">
    <path
       fill="#000000"
       stroke="#000000"
       stroke-width="0.09375"
       opacity="1.00"
       d=" M 365.84 106.80 C 425.76 88.84 491.39 90.56 550.25 111.77 C 586.58 124.38 620.02 145.55 646.44 173.56 C 671.21 199.63 689.92 231.48 700.20 265.97 C 701.79 271.42 703.38 276.89 704.29 282.50 C 713.16 285.58 718.31 294.30 721.32 302.68 C 726.17 315.53 726.38 329.50 725.43 343.04 C 723.94 357.57 719.64 372.56 709.52 383.51 C 706.61 386.85 702.50 388.62 698.88 391.00 C 696.43 402.98 692.03 414.47 686.75 425.48 C 715.32 418.70 745.92 424.60 771.40 438.66 C 790.96 449.57 807.48 465.60 819.52 484.45 C 838.87 514.96 847.36 552.13 843.49 588.03 C 840.58 616.74 830.63 645.01 813.07 668.08 C 800.97 684.43 784.55 697.96 765.12 704.53 C 766.23 710.31 767.54 716.06 768.00 721.95 C 768.88 727.19 767.59 732.40 767.22 737.61 C 776.14 744.95 783.79 754.43 787.06 765.66 C 788.24 769.84 787.77 774.27 788.62 778.48 C 799.58 800.66 807.77 824.42 811.06 849.00 C 812.67 862.40 812.37 876.69 805.82 888.85 C 800.19 900.26 788.90 908.49 776.37 910.60 C 763.20 913.29 749.72 909.00 738.23 902.67 C 722.78 894.24 708.61 883.74 693.94 874.07 C 686.13 868.74 678.01 863.83 670.53 858.04 C 668.33 856.45 665.46 856.84 662.92 856.53 C 651.17 855.22 640.49 849.62 630.77 843.19 C 618.99 836.98 605.94 832.97 592.74 831.33 C 597.99 841.70 602.76 852.40 605.36 863.77 C 608.33 874.95 609.41 887.45 604.23 898.15 C 599.98 907.73 591.00 914.86 580.78 917.06 C 571.18 918.77 561.01 917.90 552.02 913.98 C 538.36 908.13 526.17 899.52 514.07 891.02 C 504.66 884.10 495.11 877.36 486.19 869.81 C 480.40 864.79 473.93 860.68 467.63 856.36 C 455.76 847.39 444.40 837.64 434.49 826.52 C 421.72 811.80 412.28 794.59 403.72 777.19 C 402.00 773.93 401.56 769.87 398.70 767.33 C 389.22 759.13 379.75 750.90 370.10 742.89 C 367.15 740.59 365.10 736.83 361.18 736.04 C 352.16 733.34 345.38 726.19 339.91 718.85 C 332.47 723.13 324.57 726.83 315.98 728.02 C 304.97 729.41 293.26 728.90 283.20 723.78 C 272.58 718.47 263.98 708.11 262.65 696.09 C 262.10 687.37 264.76 678.66 269.11 671.17 C 275.32 660.28 285.32 652.21 295.77 645.60 C 289.98 634.90 284.79 623.84 281.07 612.23 C 280.27 610.08 279.98 607.38 277.63 606.35 C 260.82 595.92 245.21 583.69 230.43 570.58 C 218.44 559.93 205.94 549.78 194.96 538.05 C 192.66 535.77 191.35 532.40 188.37 530.90 C 179.27 527.29 171.72 520.86 164.08 514.91 C 149.89 502.92 137.76 487.12 134.30 468.51 C 131.25 451.88 136.41 433.56 148.95 421.95 C 162.34 408.79 183.10 405.81 200.71 410.80 C 197.34 400.97 194.70 390.87 193.00 380.62 C 192.69 377.86 190.11 376.37 188.71 374.20 C 185.05 368.79 183.94 362.19 182.82 355.89 C 181.11 340.97 181.07 325.85 182.90 310.95 C 184.30 301.99 186.15 292.35 192.52 285.47 C 194.54 283.07 198.75 282.70 199.22 279.14 C 209.25 233.91 235.00 193.10 268.71 161.72 C 296.03 135.90 329.91 117.50 365.84 106.80 M 398.26 113.97 C 370.75 119.40 343.55 127.98 319.31 142.30 C 298.06 154.11 279.57 170.33 263.13 188.12 C 241.34 212.49 224.58 241.40 214.55 272.54 C 202.37 307.61 199.88 346.08 207.87 382.36 C 211.71 397.88 215.92 413.48 223.30 427.75 C 239.55 461.32 265.12 491.45 298.83 508.34 C 319.45 518.38 341.83 524.38 364.46 527.79 C 395.02 532.64 426.19 532.74 456.99 530.34 C 479.52 528.22 501.85 523.93 523.61 517.71 C 547.45 510.96 570.38 500.36 589.73 484.73 C 617.51 461.30 637.23 429.06 647.33 394.30 C 652.63 374.06 654.49 352.89 652.58 332.05 C 650.50 299.04 638.63 267.27 622.18 238.81 C 618.20 231.38 613.06 224.67 608.30 217.73 C 601.02 207.20 592.28 197.78 583.03 188.97 C 574.70 180.73 564.66 174.57 555.02 168.03 C 539.52 158.62 522.87 151.11 505.63 145.51 C 482.08 138.47 457.69 133.71 433.05 133.49 C 410.65 132.93 388.16 135.24 366.41 140.69 C 362.17 141.74 358.00 143.07 353.69 143.82 C 353.56 142.76 353.45 141.71 353.34 140.65 C 366.35 135.59 380.18 132.96 393.98 131.12 C 428.20 126.44 463.34 128.78 496.63 138.07 C 522.39 144.68 546.64 156.47 568.54 171.47 C 582.11 181.35 594.15 193.22 604.98 206.02 C 628.13 234.41 644.96 267.98 653.50 303.63 C 657.42 322.28 659.31 341.46 658.05 360.50 C 656.13 384.74 649.81 408.78 638.25 430.26 C 634.46 437.08 631.29 444.27 626.58 450.53 C 619.91 459.46 613.67 468.82 605.53 476.53 C 594.56 488.22 581.34 497.61 567.35 505.34 C 539.10 519.77 507.95 527.53 476.72 532.22 C 443.58 537.16 409.76 538.04 376.46 534.19 C 357.39 531.72 338.26 528.65 320.05 522.28 C 306.82 518.64 294.52 512.40 282.55 505.81 C 291.64 512.66 301.46 518.66 312.12 522.75 C 334.05 531.89 357.56 536.51 381.05 539.40 C 396.67 540.66 412.38 541.74 428.05 540.81 C 434.71 540.70 441.38 540.63 448.03 540.24 C 482.85 537.58 517.39 529.95 549.85 517.03 C 566.09 510.66 581.30 501.81 594.85 490.83 C 605.17 482.14 613.98 471.82 621.79 460.85 C 632.14 447.48 640.34 432.57 647.19 417.15 C 649.34 412.29 650.97 407.19 653.65 402.58 C 655.89 398.80 655.76 394.06 658.44 390.49 C 658.96 393.61 657.62 396.52 656.54 399.37 C 661.59 397.17 668.92 396.22 672.59 401.32 C 675.66 405.22 673.68 410.30 672.17 414.40 C 664.60 431.39 654.43 447.20 642.27 461.28 C 631.39 473.68 619.15 484.82 606.18 494.99 C 628.72 479.72 648.77 460.53 663.63 437.62 C 673.44 423.35 680.44 407.27 685.07 390.62 C 679.68 390.55 674.29 390.61 668.91 390.41 C 665.56 390.30 661.76 389.18 660.25 385.89 C 657.48 380.81 659.86 375.09 660.70 369.84 C 663.08 360.07 662.96 349.95 662.67 339.97 C 662.36 326.95 659.47 314.04 660.44 300.98 C 660.93 295.92 663.19 290.51 667.85 287.96 C 674.41 284.35 681.91 283.18 689.07 281.29 C 688.71 279.30 688.39 277.30 687.78 275.37 C 682.03 255.90 674.16 236.93 663.17 219.81 C 653.13 203.38 640.49 188.68 626.53 175.46 C 606.15 156.55 582.77 140.56 556.81 130.36 C 541.91 124.92 526.98 119.40 511.46 115.98 C 474.39 107.66 435.60 106.98 398.26 113.97 M 697.15 295.31 C 693.29 302.52 692.93 311.13 693.91 319.04 C 695.94 311.12 697.10 302.80 701.50 295.70 C 700.04 295.54 698.59 295.41 697.15 295.31 M 696.88 333.99 C 696.50 347.16 696.08 360.49 698.81 373.46 C 704.16 368.41 707.10 361.47 708.72 354.42 C 706.56 354.44 704.41 354.44 702.27 354.38 C 702.27 353.14 702.30 351.92 702.34 350.69 C 704.71 350.53 707.08 350.38 709.46 350.25 C 710.93 345.30 710.48 340.09 711.12 335.02 C 711.59 330.31 710.65 325.63 710.53 320.94 C 709.93 313.71 708.30 306.02 702.97 300.73 C 696.94 310.67 697.93 322.85 696.88 333.99 M 153.55 442.42 C 148.48 451.44 148.53 462.57 151.84 472.18 C 156.93 486.77 168.20 498.74 181.77 505.89 C 191.28 481.47 203.15 457.68 208.11 431.75 C 198.09 426.47 186.33 423.86 175.13 426.37 C 166.04 428.18 157.82 434.17 153.55 442.42 M 710.44 438.57 C 715.20 439.72 719.73 441.59 724.03 443.93 C 717.79 442.55 711.63 440.65 705.24 440.13 C 697.62 439.04 689.88 440.13 682.44 441.83 C 680.14 442.45 677.44 442.79 675.98 444.91 C 673.80 447.75 671.59 450.57 669.18 453.21 C 679.78 453.24 690.53 456.36 698.72 463.29 C 713.45 475.12 720.00 493.50 727.97 509.98 C 731.12 516.06 733.35 522.55 736.34 528.70 C 737.63 531.69 740.81 532.98 743.15 534.99 C 745.41 536.80 747.08 539.20 748.74 541.56 C 747.95 541.51 746.37 541.43 745.58 541.38 C 755.69 560.04 764.15 579.61 770.90 599.73 C 771.57 601.93 771.55 604.25 771.88 606.52 C 773.22 604.23 774.41 601.85 775.74 599.56 C 775.78 604.77 775.81 610.06 774.68 615.19 C 773.99 618.59 774.06 622.12 774.78 625.53 C 776.62 634.07 775.52 642.91 773.56 651.32 C 770.81 660.69 763.35 667.80 755.25 672.80 C 757.42 678.01 758.77 683.51 760.34 688.93 C 770.92 685.36 781.28 680.20 789.05 672.00 C 800.17 661.46 809.10 648.67 815.72 634.88 C 822.91 620.59 826.42 604.76 828.26 588.96 C 828.89 579.57 828.83 570.14 828.48 560.73 C 827.22 542.84 822.85 525.13 815.25 508.86 C 800.37 477.14 772.20 451.09 737.98 442.04 C 729.04 439.57 719.77 437.57 710.44 438.57 M 214.58 440.27 C 211.73 447.42 209.78 454.90 207.06 462.10 C 202.51 474.20 197.70 486.19 193.17 498.30 C 191.51 502.88 189.51 507.44 189.12 512.35 C 191.00 513.68 192.92 514.98 194.86 516.24 C 201.05 493.46 210.31 471.67 219.59 450.02 C 217.82 446.81 216.24 443.52 214.58 440.27 M 202.86 514.62 C 202.47 516.98 201.25 519.87 203.03 521.95 C 205.26 525.03 207.89 527.79 210.23 530.78 C 213.77 535.50 219.07 538.43 222.86 542.92 C 220.32 531.10 221.04 518.42 226.29 507.42 C 227.11 514.65 224.83 521.83 226.08 529.04 C 226.87 538.06 228.77 548.29 236.37 554.16 C 236.87 550.29 235.17 545.84 237.90 542.56 C 238.37 548.32 238.58 554.75 242.73 559.27 C 248.33 565.63 255.37 570.50 261.94 575.79 C 258.28 568.34 256.81 560.10 255.59 551.97 C 252.90 533.82 255.48 515.34 259.84 497.67 C 245.79 486.02 234.28 471.61 224.06 456.58 C 216.22 475.62 208.04 494.64 202.86 514.62 M 649.90 472.59 C 656.00 473.89 662.16 472.33 668.30 472.69 C 665.73 475.10 663.41 478.32 659.94 479.40 C 655.08 479.48 650.24 479.97 645.47 480.88 C 637.91 483.72 634.23 491.84 627.17 495.49 C 632.64 495.28 638.14 495.84 643.61 495.41 C 649.17 491.73 654.13 487.19 659.83 483.67 C 666.77 478.43 674.53 474.40 681.25 468.85 C 673.39 467.03 665.26 467.25 657.26 467.44 C 654.44 468.52 652.26 470.78 649.90 472.59 M 680.74 476.73 C 670.54 485.23 658.92 491.93 649.12 500.91 C 654.11 508.27 657.80 516.39 661.39 524.50 C 665.34 532.65 668.98 540.94 673.00 549.06 C 675.39 553.77 677.11 558.82 680.00 563.27 C 695.37 556.09 710.52 547.90 723.52 536.90 C 718.17 523.14 711.63 509.88 705.33 496.54 C 700.79 488.27 697.11 478.34 688.13 473.89 C 685.28 472.07 682.89 475.29 680.74 476.73 M 624.25 507.32 C 627.46 514.72 628.19 522.92 627.14 530.86 C 626.90 532.35 626.11 533.96 626.71 535.46 C 629.72 540.03 634.02 543.54 637.08 548.07 C 640.36 552.75 643.60 557.67 644.95 563.29 C 653.64 563.47 662.34 563.48 671.03 563.50 C 664.99 552.85 660.82 541.27 655.17 530.41 C 651.27 522.72 648.86 513.76 642.47 507.69 C 636.42 507.15 630.32 507.68 624.25 507.32 M 570.14 521.15 C 551.14 529.15 530.96 533.62 511.05 538.68 C 528.54 535.14 546.25 532.41 563.35 527.21 C 575.06 523.34 587.45 519.36 596.48 510.55 C 587.40 513.32 579.03 517.90 570.14 521.15 M 271.58 515.01 C 271.53 521.05 270.82 527.98 275.07 532.92 C 281.65 540.10 290.62 544.33 299.15 548.72 C 315.34 556.87 333.10 561.20 350.81 564.55 C 378.83 569.72 407.43 570.38 435.83 569.11 C 465.81 567.24 495.73 564.13 525.46 559.73 C 549.73 556.01 574.15 551.05 596.57 540.69 C 602.38 537.72 608.96 534.82 612.30 528.87 C 613.32 525.21 612.69 521.33 612.52 517.61 C 609.43 520.84 606.26 524.09 602.41 526.43 C 583.84 537.66 562.38 542.89 541.11 546.03 C 506.85 551.60 472.17 553.78 437.55 555.35 C 409.13 555.83 380.50 555.49 352.56 549.76 C 329.42 546.05 306.80 538.44 286.69 526.31 C 281.38 522.93 275.97 519.57 271.58 515.01 M 260.40 526.82 C 260.07 545.71 261.74 565.73 271.78 582.24 C 269.27 575.14 267.07 567.88 266.32 560.36 C 265.09 552.98 265.51 545.48 264.93 538.05 C 264.89 533.83 261.77 530.63 260.40 526.82 M 710.74 554.27 C 716.84 551.71 721.83 547.10 726.36 542.40 C 720.54 545.37 714.80 549.05 710.74 554.27 M 716.61 557.71 C 715.86 558.45 713.70 559.28 714.80 560.62 C 723.86 579.01 732.44 597.70 738.79 617.23 C 740.74 623.42 743.41 629.47 744.15 635.98 C 744.56 639.15 740.92 642.00 742.77 645.12 C 744.63 648.85 746.38 652.63 747.92 656.51 C 749.19 657.35 750.26 656.04 751.28 655.40 C 758.21 650.21 762.49 641.66 762.28 632.97 C 761.88 623.34 759.61 613.87 756.37 604.82 C 751.99 591.87 746.47 579.36 741.00 566.85 C 737.81 559.95 734.83 552.87 730.43 546.63 C 726.00 550.53 721.50 554.39 716.61 557.71 M 274.73 547.64 C 273.25 559.17 274.97 571.02 278.36 582.09 C 277.87 574.39 277.32 566.69 276.65 559.01 C 276.71 555.12 276.57 551.16 274.73 547.64 M 603.36 551.61 C 604.13 556.99 605.57 562.28 605.75 567.74 C 603.91 562.72 601.34 558.04 599.26 553.13 C 597.16 554.09 594.95 554.82 592.89 555.85 C 591.33 557.22 590.91 559.40 589.94 561.16 C 589.55 560.35 588.76 558.72 588.36 557.91 C 577.95 561.81 567.13 564.51 556.34 567.09 C 549.35 568.59 542.24 569.37 535.26 570.84 C 550.75 579.90 563.71 594.38 568.26 612.01 C 573.06 621.24 569.30 631.87 565.97 640.95 C 578.88 630.48 589.88 617.54 598.14 603.11 C 601.87 596.57 604.01 589.31 607.08 582.48 C 607.68 595.52 603.82 608.44 598.14 620.07 C 592.02 632.87 582.67 643.75 572.70 653.70 C 562.42 663.62 550.66 671.80 539.32 680.42 C 539.63 681.25 540.25 682.90 540.56 683.72 C 548.15 678.66 555.88 673.77 564.10 669.78 C 558.70 677.82 550.01 682.50 542.13 687.69 C 544.51 692.96 547.43 697.97 550.54 702.84 C 561.07 697.51 570.11 689.70 578.53 681.54 C 592.47 668.15 604.46 652.73 614.00 635.92 C 617.36 628.98 621.45 622.31 623.74 614.91 C 620.53 610.42 616.19 606.83 612.41 602.83 C 616.84 605.30 621.03 608.18 625.29 610.94 C 626.94 605.22 629.40 599.50 629.65 593.52 C 626.88 590.14 623.01 587.99 619.67 585.26 C 616.50 582.66 613.16 580.27 609.92 577.75 C 616.43 579.15 621.49 583.67 626.88 587.25 C 628.32 588.21 629.50 589.49 630.69 590.73 C 631.75 584.42 632.21 577.87 631.44 571.51 C 623.68 564.46 614.72 558.71 607.28 551.23 C 606.30 551.33 604.34 551.52 603.36 551.61 M 282.40 556.38 C 282.06 560.15 282.12 563.96 282.75 567.71 C 284.13 575.39 285.17 583.27 288.45 590.43 C 295.35 606.51 300.79 623.18 307.73 639.23 C 308.26 633.82 306.97 628.50 305.64 623.30 C 301.72 607.13 294.35 592.07 290.27 575.94 C 288.54 570.61 287.98 564.98 286.17 559.69 C 285.10 558.38 283.68 557.44 282.40 556.38 M 691.46 563.59 C 687.85 565.48 683.97 566.97 680.85 569.65 C 681.76 569.60 683.58 569.49 684.49 569.43 C 690.13 566.83 695.63 563.77 700.48 559.85 C 697.27 560.58 694.35 562.09 691.46 563.59 M 701.49 566.33 C 696.33 569.76 690.61 572.13 685.06 574.81 C 687.83 581.33 691.23 587.57 693.93 594.14 C 695.21 597.70 699.13 598.92 701.84 601.16 C 714.65 611.11 725.99 622.92 735.70 635.90 C 734.40 624.74 730.05 614.27 726.19 603.82 C 720.76 590.32 715.36 576.62 707.20 564.49 C 705.11 563.70 703.23 565.45 701.49 566.33 M 301.46 564.13 C 301.82 566.77 300.89 570.81 303.93 572.13 C 315.56 577.85 327.59 582.88 340.18 586.04 C 340.59 582.98 341.20 579.96 341.63 576.92 C 327.77 574.34 314.37 569.72 301.46 564.13 M 522.87 573.49 C 526.65 576.93 530.72 580.04 534.44 583.56 C 542.73 591.61 549.29 601.70 552.24 612.93 C 555.19 626.14 553.81 640.41 548.34 652.80 C 551.42 650.39 554.37 647.68 556.12 644.12 C 563.36 631.73 563.27 616.09 558.06 602.98 C 552.68 590.58 543.05 579.93 530.88 573.91 C 528.41 572.56 525.50 573.43 522.87 573.49 M 303.28 574.91 C 305.15 586.94 309.49 598.38 312.93 610.01 C 315.04 616.36 316.41 622.92 318.44 629.29 C 326.81 631.06 335.16 633.03 343.73 633.62 C 343.20 628.65 342.11 623.76 341.54 618.81 C 340.07 608.90 340.16 598.85 339.70 588.87 C 326.80 586.60 314.99 580.52 303.28 574.91 M 637.64 575.87 C 637.31 582.01 636.27 588.07 635.55 594.17 C 639.58 597.76 643.77 601.20 647.43 605.18 C 648.83 598.38 649.01 591.34 648.42 584.45 C 645.48 580.84 640.97 579.05 637.64 575.87 M 470.02 579.44 C 463.64 579.88 456.91 580.61 451.59 584.50 C 441.37 591.83 433.35 601.97 428.08 613.36 C 434.81 606.95 444.35 606.49 452.88 604.36 C 444.66 607.27 436.89 611.61 430.26 617.28 C 425.52 622.23 422.26 628.45 419.95 634.86 C 426.76 630.09 435.34 631.47 443.12 631.99 C 438.88 632.32 434.45 631.78 430.44 633.44 C 426.54 634.92 422.47 636.51 419.53 639.57 C 416.94 642.73 416.08 646.84 414.92 650.65 C 426.13 650.60 436.94 654.33 446.93 659.14 C 463.89 667.47 478.85 680.39 488.07 697.04 C 490.01 693.89 494.25 691.74 493.88 687.59 C 494.41 669.91 484.19 653.96 472.23 641.77 C 476.70 645.63 480.28 650.37 484.50 654.49 C 492.49 663.70 498.50 674.97 499.62 687.28 C 502.17 684.37 506.42 682.67 507.53 678.71 C 509.27 661.99 503.46 645.26 494.01 631.62 C 507.58 642.39 515.21 659.85 513.83 677.14 C 517.38 675.52 519.36 671.82 519.51 668.02 C 519.79 661.10 520.36 653.89 517.86 647.28 C 515.50 639.35 511.52 632.02 506.89 625.20 C 504.48 621.96 501.44 619.27 498.84 616.20 C 502.83 619.85 506.71 623.63 510.44 627.55 C 520.14 638.96 525.92 654.06 524.79 669.13 C 530.02 665.77 535.57 662.07 538.16 656.16 C 545.22 642.03 548.04 625.14 543.18 609.86 C 538.75 595.58 527.92 583.83 514.85 576.87 C 510.07 575.25 504.89 576.54 499.96 576.51 C 489.99 577.54 479.99 578.31 470.02 579.44 M 348.51 579.25 C 346.83 588.36 346.28 597.68 346.95 606.92 C 348.04 622.12 350.30 637.41 355.56 651.78 C 358.27 651.82 360.99 651.79 363.70 651.75 C 358.62 632.36 355.45 612.25 356.68 592.16 C 357.22 588.31 357.64 584.45 357.82 580.57 C 354.71 580.13 351.64 579.52 348.51 579.25 M 365.76 582.18 C 365.37 584.91 364.93 587.64 364.59 590.39 C 382.99 594.14 401.92 595.19 420.67 594.57 C 423.65 591.11 425.69 586.90 428.73 583.46 C 423.16 583.69 417.56 583.51 412.01 584.18 C 396.55 584.73 381.15 583.19 365.76 582.18 M 442.56 589.57 C 446.54 587.30 450.12 584.37 453.32 581.10 C 448.41 581.63 445.09 585.75 442.56 589.57 M 657.89 591.64 C 657.61 597.13 657.72 602.66 656.67 608.09 C 656.61 609.66 655.81 611.42 656.63 612.92 C 658.59 614.60 660.83 615.92 663.10 617.17 C 664.19 612.16 664.74 607.06 664.62 601.94 C 664.45 599.53 665.10 596.69 663.22 594.80 C 661.89 593.11 659.88 592.24 657.89 591.64 M 364.59 594.28 C 363.45 608.01 365.42 621.75 367.86 635.24 C 379.93 635.69 392.08 636.08 404.12 635.14 C 406.52 629.89 407.60 624.14 409.84 618.81 C 412.74 611.92 415.33 604.84 419.12 598.36 C 400.87 598.76 382.52 597.81 364.59 594.28 M 634.58 597.68 C 632.88 602.91 630.88 608.04 629.31 613.31 C 633.35 617.60 637.97 621.30 642.13 625.47 C 643.58 620.95 645.08 616.44 646.16 611.82 C 646.35 610.39 647.10 608.59 645.67 607.56 C 642.24 603.98 638.38 600.86 634.58 597.68 M 676.88 603.93 C 676.64 610.11 675.72 616.23 674.56 622.30 C 680.43 625.63 685.79 629.77 691.17 633.84 C 704.64 643.93 716.65 656.18 725.03 670.89 C 710.07 653.70 692.87 638.35 673.70 625.99 C 672.11 632.17 669.67 638.16 668.32 644.37 C 672.18 647.36 676.03 650.39 679.50 653.86 C 674.50 654.45 670.70 650.71 666.85 648.15 C 664.53 653.38 662.34 658.67 659.85 663.83 C 643.99 697.55 619.82 727.10 590.55 750.08 C 591.99 751.71 593.45 753.32 594.94 754.93 C 611.74 743.87 626.42 729.72 639.31 714.32 C 647.04 705.27 653.02 694.82 661.04 686.03 C 655.63 701.95 644.09 714.76 633.20 727.20 C 622.41 738.85 610.36 749.40 596.91 757.89 C 605.96 769.09 617.24 778.20 627.96 787.74 C 648.12 782.39 666.79 772.09 682.82 758.83 C 687.32 755.23 691.73 751.42 695.32 746.89 C 693.76 744.15 691.23 742.16 689.07 739.93 C 683.22 734.04 676.99 728.49 670.02 723.95 C 667.50 722.10 664.49 720.15 663.67 716.95 C 663.54 710.66 667.36 705.31 669.80 699.77 C 672.55 694.52 674.21 688.62 677.91 683.91 C 680.61 680.33 685.67 681.17 689.26 682.74 C 694.43 685.04 699.36 687.89 704.09 690.98 C 704.58 688.62 705.21 686.30 705.88 683.99 C 707.79 687.57 707.45 692.48 711.03 694.97 C 717.58 700.40 724.30 706.14 727.99 714.01 C 732.06 722.88 737.12 732.32 735.10 742.42 C 735.01 735.69 732.52 729.50 729.82 723.44 C 725.93 731.60 721.81 739.91 715.57 746.56 C 711.24 751.36 703.87 752.66 698.21 749.46 C 690.97 758.19 682.08 765.41 672.77 771.83 C 660.14 780.72 646.05 787.56 631.16 791.71 C 634.18 794.59 637.50 797.79 638.38 802.02 C 638.90 805.89 635.55 808.45 632.60 810.16 C 632.82 807.22 631.39 804.68 629.09 802.97 C 621.08 796.31 613.32 789.37 605.54 782.45 C 595.80 773.21 585.50 764.44 577.11 753.91 C 569.91 745.75 562.40 737.83 556.08 728.95 C 545.89 716.17 536.91 702.29 530.62 687.16 C 528.85 688.86 527.03 690.52 525.13 692.09 C 528.68 702.96 534.82 712.68 540.57 722.48 C 546.20 731.90 553.09 740.46 560.07 748.89 C 560.98 747.29 562.03 745.78 563.47 744.62 C 562.65 746.40 561.57 748.03 560.43 749.62 C 563.40 753.33 566.33 757.07 569.46 760.66 C 570.61 759.15 571.66 757.53 573.20 756.39 C 572.73 758.31 571.22 759.56 569.78 760.79 C 579.23 771.78 588.91 782.63 599.98 792.03 C 606.22 798.04 613.49 802.89 619.40 809.25 C 612.89 810.06 606.74 806.92 601.37 803.58 C 588.27 795.37 577.93 783.71 566.98 772.98 C 565.95 771.55 564.11 772.23 562.86 772.93 C 554.97 777.24 546.42 780.12 538.23 783.81 C 548.07 795.68 560.03 805.61 572.74 814.26 C 575.47 816.36 579.12 815.46 582.31 815.66 C 580.51 814.54 578.70 813.45 576.90 812.35 C 580.52 812.41 584.13 812.67 587.71 813.22 C 606.00 814.09 624.63 816.66 642.70 812.44 C 672.20 805.51 699.71 790.52 721.72 769.72 C 733.23 758.89 743.58 746.23 748.99 731.20 C 751.59 724.40 751.06 716.82 749.46 709.86 C 745.45 692.50 738.81 675.87 731.16 659.82 C 718.66 636.67 699.57 617.21 676.88 603.93 M 655.51 614.23 C 653.56 623.86 649.48 632.86 646.28 642.10 C 649.15 643.32 652.95 645.03 652.60 648.80 C 649.79 647.42 647.66 645.12 645.98 642.55 C 637.19 660.82 627.19 678.64 614.52 694.53 C 603.72 709.01 591.05 722.00 577.49 733.90 C 579.41 736.05 581.30 738.23 583.27 740.35 C 591.71 734.62 598.85 727.23 605.94 719.94 C 620.75 704.03 633.96 686.48 644.18 667.26 C 649.07 657.80 654.13 648.27 656.86 637.94 C 654.96 636.26 653.18 634.43 651.72 632.36 C 653.89 633.60 655.69 635.34 657.22 637.32 C 659.45 631.69 661.10 625.85 662.57 619.97 C 660.12 618.18 657.81 616.21 655.51 614.23 M 627.54 617.23 C 617.40 642.71 600.93 665.31 581.30 684.31 C 572.70 692.69 563.33 700.25 553.08 706.54 C 557.90 714.28 563.14 721.83 569.38 728.51 C 588.46 713.57 604.37 694.95 617.94 674.97 C 627.59 660.46 635.85 644.92 641.49 628.41 C 636.55 625.07 631.79 621.43 627.54 617.23 M 319.04 633.40 C 320.90 641.73 324.07 649.70 327.79 657.36 C 330.18 655.59 332.53 653.56 335.50 652.85 C 339.79 652.24 344.16 652.39 348.43 651.50 C 346.94 647.21 345.86 642.79 344.42 638.49 C 335.74 638.13 327.07 636.87 319.04 633.40 M 368.72 639.36 C 369.66 643.55 370.69 647.73 372.29 651.73 C 381.55 651.79 390.82 651.70 400.06 651.21 C 401.68 647.47 402.11 643.38 402.95 639.43 C 397.64 639.71 392.31 639.61 387.00 639.89 C 380.90 640.80 374.82 639.44 368.72 639.36 M 274.34 682.18 C 271.27 688.79 270.71 696.96 274.67 703.34 C 280.36 713.20 291.88 718.23 302.91 718.68 C 314.10 719.49 325.73 716.82 334.87 710.14 C 330.93 700.51 325.25 691.73 320.54 682.47 C 314.98 672.44 309.95 662.03 303.06 652.81 C 290.73 659.24 280.24 669.51 274.34 682.18 M 410.92 662.32 C 428.50 662.56 445.64 669.72 459.00 680.99 C 467.06 687.60 474.24 695.48 479.05 704.79 C 480.37 702.98 482.52 701.05 481.43 698.59 C 478.38 691.79 473.19 686.21 468.29 680.70 C 460.04 673.26 451.07 666.19 440.55 662.29 C 432.62 658.78 423.92 656.42 415.19 657.42 C 412.57 657.43 411.99 660.48 410.92 662.32 M 344.01 663.57 C 340.02 663.59 335.86 662.97 332.11 664.71 C 332.10 669.28 335.33 672.80 336.99 676.83 C 340.79 685.61 345.14 694.14 349.10 702.85 C 351.69 708.05 353.56 714.01 358.24 717.80 C 364.55 722.90 373.23 721.21 380.71 721.19 C 375.07 719.47 368.68 719.71 363.64 716.36 C 360.03 712.88 359.28 707.47 359.18 702.69 C 364.33 702.40 369.49 702.60 374.65 702.68 C 374.46 699.83 374.32 696.97 374.24 694.13 C 370.00 698.60 363.44 697.36 357.92 697.57 C 355.65 697.36 352.66 698.07 351.21 695.79 C 348.46 691.87 346.82 687.31 345.09 682.88 C 343.90 679.61 342.48 676.03 343.54 672.53 C 345.19 670.11 348.36 670.24 350.95 669.90 C 356.35 669.70 361.76 669.52 367.17 669.57 C 371.93 676.03 373.58 684.19 375.23 691.89 C 377.42 691.82 379.62 691.75 381.82 691.65 C 380.59 686.37 377.06 681.18 378.54 675.59 C 382.28 671.71 388.05 671.45 393.09 671.34 C 392.80 672.96 392.51 674.60 392.21 676.23 C 389.51 676.49 386.87 677.06 384.27 677.79 C 384.56 683.30 387.13 688.30 388.64 693.53 C 391.26 701.62 393.80 710.12 399.36 716.75 C 396.64 709.62 393.21 702.64 392.23 694.98 C 390.29 684.00 392.62 672.90 395.79 662.39 C 390.23 662.54 384.66 662.58 379.14 663.29 C 367.43 663.44 355.72 663.66 344.01 663.57 M 407.51 696.75 C 409.71 705.70 415.54 713.71 423.40 718.54 C 434.07 724.46 447.40 725.16 458.76 720.85 C 463.99 718.55 469.48 715.65 472.81 710.87 C 468.85 701.12 461.21 693.40 453.35 686.65 C 441.30 677.13 426.55 669.22 410.71 670.46 C 406.88 678.55 405.12 687.98 407.51 696.75 M 348.99 675.55 C 350.70 680.95 351.56 687.13 355.38 691.49 C 359.52 692.07 363.74 691.77 367.90 691.43 C 367.46 685.67 365.66 680.04 363.06 674.90 C 358.37 674.47 353.63 674.76 348.99 675.55 M 683.65 686.84 C 680.28 692.92 677.69 699.39 674.30 705.46 C 672.89 708.60 670.67 711.88 671.30 715.47 C 674.25 717.67 677.68 719.13 680.61 721.37 C 688.50 727.39 695.66 734.34 702.17 741.83 C 704.61 745.07 709.96 744.30 711.97 740.97 C 716.69 734.63 721.32 727.80 723.31 720.07 C 719.90 711.46 712.56 705.14 705.50 699.47 C 698.87 694.29 691.74 689.38 683.65 686.84 M 506.08 703.08 C 503.95 705.24 501.58 707.14 499.11 708.88 C 501.91 715.44 504.37 722.15 506.48 728.98 C 514.88 728.89 522.85 725.92 530.18 722.01 C 525.97 712.90 520.63 704.34 517.06 694.92 C 513.38 697.62 509.29 699.80 506.08 703.08 M 366.38 706.69 C 366.53 708.54 365.55 711.32 367.78 712.26 C 371.11 714.41 375.18 714.75 379.05 714.85 C 378.73 711.82 378.24 708.12 375.16 706.64 C 372.23 706.39 369.29 706.40 366.38 706.69 M 490.21 717.99 C 491.37 724.06 494.44 729.46 496.95 735.04 C 497.62 734.84 498.95 734.43 499.61 734.23 C 500.16 726.86 497.05 719.79 493.31 713.62 C 492.28 715.08 491.24 716.53 490.21 717.99 M 389.82 717.67 C 389.29 719.25 388.75 720.84 388.25 722.45 C 389.83 722.41 391.41 722.34 393.00 722.25 C 392.55 720.66 392.04 719.09 391.49 717.55 C 391.07 717.58 390.24 717.64 389.82 717.67 M 456.49 738.38 C 449.48 740.20 442.17 739.90 435.01 739.51 C 425.16 738.45 416.10 734.00 407.98 728.54 C 403.29 728.51 398.65 729.40 393.95 729.47 C 391.26 729.32 388.23 731.59 389.29 734.53 C 393.38 740.37 400.74 742.47 407.39 743.78 C 422.69 746.95 438.38 745.29 453.81 744.24 C 465.90 743.01 478.30 741.91 489.67 737.32 C 487.85 732.51 485.56 727.92 483.05 723.44 C 475.73 730.64 466.54 736.09 456.49 738.38 M 526.02 728.17 C 519.48 730.10 512.83 731.61 506.32 733.65 C 506.48 735.41 506.65 737.18 506.86 738.96 C 515.65 737.37 523.41 732.46 530.29 726.98 C 530.60 727.77 531.22 729.35 531.53 730.14 C 526.29 738.01 516.65 741.08 508.34 744.61 C 512.05 748.87 515.48 753.36 518.90 757.85 C 528.64 755.55 537.95 751.74 546.65 746.80 C 541.89 739.40 536.54 732.40 531.74 725.04 C 529.76 725.95 528.15 727.56 526.02 728.17 M 491.84 744.75 C 496.11 750.37 500.31 756.14 505.79 760.67 C 507.75 760.30 509.69 759.81 511.62 759.29 C 506.44 753.79 500.03 748.18 499.41 740.12 C 497.01 741.86 494.34 743.16 491.84 744.75 M 729.85 773.85 C 719.66 783.81 708.69 793.10 696.47 800.47 C 675.45 813.31 651.83 824.04 626.74 823.94 C 631.22 825.94 635.98 827.58 640.93 827.72 C 656.02 828.51 670.81 824.08 684.71 818.64 C 700.64 812.50 715.46 803.51 728.41 792.40 C 737.05 784.55 745.11 775.70 750.25 765.12 C 753.52 758.16 754.21 750.20 752.29 742.76 C 747.10 754.57 738.59 764.52 729.85 773.85 M 478.64 749.04 C 470.21 751.06 461.52 751.38 452.96 752.62 C 457.85 756.90 462.72 761.23 468.15 764.84 C 469.51 765.93 471.33 765.69 472.97 765.72 C 480.98 765.52 488.84 763.75 496.81 763.05 C 493.14 757.79 488.31 753.51 484.28 748.55 C 482.47 747.87 480.47 748.77 478.64 749.04 M 415.17 753.45 C 426.12 760.42 438.96 764.11 451.90 764.64 C 447.53 761.06 443.27 757.35 439.27 753.37 C 431.24 753.93 423.20 753.32 415.17 753.45 M 751.29 778.26 C 742.60 790.43 731.48 800.74 719.14 809.12 C 698.34 823.28 674.14 833.57 648.78 834.81 C 654.15 837.55 659.73 840.08 665.78 840.86 C 684.18 844.36 703.07 840.18 720.10 833.04 C 734.45 827.29 747.76 818.65 758.21 807.19 C 765.36 799.38 771.37 789.79 772.41 779.04 C 773.28 769.91 768.01 761.61 761.93 755.30 C 759.41 763.37 756.24 771.34 751.29 778.26 M 531.61 765.83 C 530.08 768.31 530.62 771.38 530.41 774.15 C 539.86 771.13 549.44 768.07 557.93 762.83 C 557.36 760.20 554.40 758.68 552.97 756.44 C 546.17 760.26 538.78 762.84 531.61 765.83 M 487.04 776.47 C 489.50 778.40 491.43 782.22 495.05 781.69 C 503.98 781.16 512.72 778.98 521.45 777.16 C 521.78 774.79 522.10 772.41 522.41 770.06 C 510.75 772.87 498.87 774.65 487.04 776.47 M 442.03 777.45 C 447.54 780.73 453.65 782.83 460.04 783.47 C 465.82 783.80 471.63 784.81 477.38 783.55 C 476.10 781.84 474.87 780.12 473.59 778.44 C 463.03 778.81 452.58 777.42 442.03 777.45 M 523.28 790.18 C 527.71 796.20 533.45 801.05 539.09 805.90 C 543.18 809.18 547.08 812.72 551.49 815.60 C 554.97 818.06 559.45 817.97 563.53 818.42 C 551.73 809.11 540.12 799.45 530.27 788.04 C 527.89 788.59 525.58 789.37 523.28 790.18 M 492.20 794.74 C 482.73 796.17 473.11 795.18 463.59 795.36 C 487.89 809.34 515.70 818.32 543.94 817.77 C 532.77 810.54 523.11 801.19 514.02 791.54 C 506.82 793.05 499.55 794.36 492.20 794.74 M 427.82 793.78 C 435.70 806.01 444.73 817.97 456.92 826.21 C 454.38 823.31 452.00 820.28 449.79 817.13 C 446.24 812.10 441.18 808.47 437.07 803.95 C 433.91 800.63 431.10 796.98 427.82 793.78 M 756.04 822.05 C 751.08 826.15 748.07 832.01 743.43 836.43 C 735.76 843.74 726.94 849.87 717.29 854.27 C 711.04 856.97 704.09 856.57 697.44 856.62 C 716.35 867.84 733.26 882.40 753.46 891.39 C 762.77 895.57 774.29 896.62 783.44 891.44 C 790.55 887.18 794.08 878.89 795.42 871.03 C 796.95 857.17 794.55 843.24 791.15 829.84 C 787.90 818.01 783.89 806.29 777.85 795.58 C 772.01 805.45 764.90 814.69 756.04 822.05 M 457.68 820.92 C 462.32 826.40 468.70 830.42 475.71 832.09 C 474.42 829.87 473.72 826.78 470.95 826.00 C 466.46 824.46 461.95 822.98 457.68 820.92 M 480.17 828.10 C 481.82 830.17 482.96 833.18 485.80 833.85 C 497.53 836.37 509.72 835.72 521.50 833.82 C 526.52 833.06 531.15 830.78 536.13 829.85 C 521.52 829.02 506.89 830.03 492.28 829.34 C 488.27 828.68 484.21 828.47 480.17 828.10 M 729.89 838.73 C 717.36 844.15 704.37 848.97 690.64 850.02 C 696.60 851.80 702.98 852.09 709.06 850.71 C 722.17 847.99 733.85 840.67 743.50 831.55 C 739.24 834.45 734.58 836.66 729.89 838.73 M 549.25 835.34 C 535.34 841.37 520.11 844.03 505.00 844.15 C 499.24 843.63 493.47 843.16 487.68 843.29 C 491.89 847.80 495.88 853.17 501.90 855.33 C 515.98 859.07 531.02 857.92 544.90 853.83 C 556.40 849.95 569.01 843.83 573.24 831.52 C 567.87 831.86 562.48 831.40 557.12 831.73 C 554.39 832.69 551.90 834.21 549.25 835.34 M 468.02 838.24 C 473.33 843.30 479.76 846.94 486.21 850.31 C 483.69 847.01 481.73 843.10 478.27 840.66 C 475.06 839.17 471.49 838.70 468.02 838.24 M 556.01 858.98 C 540.54 865.98 523.01 868.15 506.28 865.30 C 510.10 867.95 513.59 871.21 518.04 872.83 C 522.54 875.07 527.66 874.82 532.54 874.72 C 533.24 873.64 533.94 872.57 534.65 871.52 C 539.05 871.60 543.46 871.43 547.87 871.50 C 543.20 873.53 538.67 875.98 533.73 877.31 C 530.08 878.00 526.35 877.61 522.68 877.59 C 533.81 884.81 544.82 892.38 556.90 897.97 C 565.26 901.43 575.39 903.48 583.64 898.63 C 590.62 894.47 592.28 885.45 591.53 877.96 C 590.24 865.05 585.41 852.79 579.70 841.24 C 573.43 849.03 565.25 855.17 556.01 858.98 Z"
       id="path10" />
    <path
       fill="#000000"
       stroke="#000000"
       stroke-width="0.09375"
       opacity="1.00"
       d=" M 546.53 131.85 C 549.54 131.14 552.80 131.27 555.70 132.41 C 587.52 145.08 615.50 166.36 637.76 192.25 C 640.88 195.95 643.76 200.90 642.03 205.87 C 639.22 213.54 629.77 217.05 622.26 215.02 C 614.16 211.40 609.69 203.35 603.88 197.10 C 592.68 185.28 581.22 173.48 567.65 164.35 C 561.26 160.01 554.88 155.59 547.84 152.35 C 543.99 150.36 539.35 148.31 537.81 143.90 C 536.23 138.15 541.45 133.30 546.53 131.85 Z"
       id="path11" />
    <path
       fill="#000000"
       stroke="#000000"
       stroke-width="0.09375"
       opacity="1.00"
       d=" M 313.85 155.83 C 318.50 153.18 323.23 150.43 328.53 149.37 C 327.94 152.99 324.12 153.90 321.39 155.47 C 303.07 164.57 286.71 177.17 271.70 190.95 C 283.58 176.91 298.21 165.40 313.85 155.83 Z"
       id="path12" />
    <path
       fill="#000000"
       stroke="#000000"
       stroke-width="0.09375"
       opacity="1.00"
       d=" M 349.72 163.66 C 380.38 153.83 412.96 150.25 445.04 152.47 C 467.04 154.48 488.91 158.76 509.72 166.26 C 539.81 176.24 567.15 194.11 588.72 217.29 C 623.94 256.34 643.33 309.47 640.93 362.05 C 640.53 377.52 638.65 393.07 633.80 407.82 C 630.03 418.80 625.70 429.69 619.65 439.63 C 610.22 454.73 598.58 468.48 585.01 480.03 C 572.56 490.74 558.10 498.86 542.93 505.03 C 523.97 512.78 503.99 517.78 483.85 521.28 C 463.10 524.88 442.07 526.99 421.00 526.71 C 392.84 527.06 364.59 523.84 337.34 516.61 C 320.33 512.51 303.96 505.90 288.84 497.11 C 279.83 491.33 271.12 485.02 263.24 477.76 C 246.77 462.66 233.98 443.89 224.34 423.81 C 215.79 405.76 210.56 386.00 210.35 365.97 C 210.29 355.10 210.31 344.18 211.70 333.38 C 213.53 318.07 216.12 302.61 222.22 288.35 C 222.04 295.84 218.41 302.65 217.63 310.03 C 217.29 312.47 219.41 314.18 220.81 315.86 C 227.54 314.13 230.67 307.41 232.83 301.45 C 234.25 303.71 235.56 307.46 238.96 306.38 C 245.73 303.79 250.30 296.90 251.33 289.88 C 251.83 286.59 249.98 283.68 248.73 280.79 C 248.51 278.99 248.53 277.17 248.38 275.37 C 247.13 275.41 245.87 275.37 244.64 275.60 C 241.97 278.41 240.16 282.10 236.60 283.99 C 237.99 279.49 241.47 275.11 240.14 270.19 C 239.13 266.93 235.31 266.86 232.56 267.50 C 230.23 269.00 228.65 271.34 226.74 273.29 C 236.72 247.39 251.79 223.14 271.99 203.97 C 279.87 196.59 289.42 191.39 298.31 185.37 C 314.50 176.14 331.90 169.08 349.72 163.66 M 387.60 164.83 C 398.57 177.77 407.59 192.31 414.82 207.65 C 432.50 206.58 450.50 207.52 467.53 212.67 C 471.99 202.48 476.55 192.19 483.19 183.18 C 485.86 179.62 488.56 176.08 491.35 172.61 C 471.36 167.20 450.81 163.39 430.05 163.29 C 415.89 163.18 401.68 163.13 387.60 164.83 M 347.71 171.68 C 341.00 173.63 333.90 175.12 327.92 178.85 C 323.46 183.93 318.48 188.49 313.66 193.22 C 312.93 191.13 312.53 188.72 310.68 187.28 C 308.26 184.64 304.17 184.91 301.09 186.05 C 295.38 188.57 290.54 192.82 286.77 197.75 C 275.70 211.66 264.93 226.08 257.47 242.29 C 256.03 246.27 253.68 252.13 257.91 255.18 C 261.61 257.02 264.97 253.86 267.42 251.44 C 278.25 240.41 289.42 229.48 302.59 221.25 C 298.42 234.32 294.63 247.62 293.13 261.30 C 298.35 257.44 304.35 254.88 310.51 252.95 C 308.23 254.99 305.92 256.99 303.51 258.87 C 303.57 259.76 303.64 260.65 303.71 261.54 C 293.23 269.30 282.63 277.19 274.31 287.34 C 263.53 299.72 257.07 315.09 251.49 330.35 C 248.03 340.07 243.41 349.65 236.10 357.09 C 231.92 361.83 226.22 365.85 224.57 372.28 C 222.94 382.94 229.75 392.63 237.13 399.58 C 234.19 400.02 231.15 400.24 228.40 401.48 C 228.46 403.50 228.22 405.71 229.51 407.43 C 233.52 414.32 241.19 417.40 247.97 420.82 C 245.34 422.07 242.83 423.52 240.32 424.97 C 243.26 433.14 248.72 440.12 254.46 446.52 C 267.05 460.25 283.34 469.77 299.69 478.30 C 320.69 488.49 343.03 495.99 366.03 500.01 C 385.12 503.67 404.62 504.45 424.02 504.24 C 460.23 503.18 496.29 496.89 530.78 485.79 C 549.52 479.75 568.12 472.54 584.54 461.50 C 589.26 458.28 593.80 454.35 596.15 449.01 C 592.47 447.70 588.75 446.35 585.54 444.08 C 591.81 442.84 597.79 440.32 603.41 437.33 C 607.58 435.28 610.62 431.45 611.74 426.94 C 606.58 424.52 600.86 424.34 595.28 424.04 C 601.66 419.39 609.28 416.56 615.00 410.99 C 619.84 406.52 625.14 401.05 625.47 394.14 C 622.36 389.40 618.63 385.04 616.16 379.90 C 611.16 369.58 609.15 358.18 606.74 347.06 C 603.96 333.09 600.00 318.97 591.76 307.16 C 588.45 302.11 584.07 297.92 580.33 293.22 C 580.96 287.81 580.62 282.36 580.39 276.94 C 578.96 259.94 576.24 243.02 571.77 226.55 C 569.94 220.09 567.26 213.45 561.88 209.13 C 547.98 197.75 532.71 187.61 515.79 181.32 C 513.47 180.64 511.08 178.83 508.61 179.55 C 502.95 184.34 498.66 190.51 494.86 196.82 C 489.90 205.57 485.64 214.72 482.35 224.23 C 481.74 226.01 481.14 227.83 481.07 229.72 C 482.24 230.73 483.70 231.30 485.09 231.95 C 495.55 236.49 505.13 242.84 513.84 250.17 C 510.75 235.41 509.06 220.00 512.00 205.09 C 513.11 199.82 517.12 194.04 523.06 194.15 C 527.77 193.67 531.99 196.65 534.83 200.15 C 539.98 206.74 542.35 214.95 544.28 222.96 C 547.51 236.40 548.69 250.22 549.31 264.00 C 549.56 268.17 548.79 272.40 549.42 276.54 C 551.83 280.57 554.35 284.73 553.84 289.68 C 544.82 282.02 535.63 274.34 525.08 268.87 C 521.19 266.98 517.27 265.14 513.33 263.36 C 513.26 261.97 513.67 260.40 512.68 259.24 C 509.55 254.76 505.15 251.34 500.66 248.32 C 478.03 233.26 451.26 224.17 424.01 223.54 C 395.20 222.56 366.32 229.05 340.15 240.98 C 331.68 245.13 323.27 249.43 315.06 254.06 C 317.54 250.00 320.53 246.23 324.10 243.06 C 325.21 241.94 326.59 240.95 327.15 239.41 C 329.45 224.60 332.88 209.77 339.16 196.09 C 341.69 190.83 345.37 185.08 351.54 183.88 C 357.58 182.70 363.46 188.09 363.69 194.06 C 364.16 203.85 361.97 213.49 360.14 223.05 C 370.67 218.96 381.64 216.25 392.58 213.54 C 386.89 196.77 378.31 180.41 365.11 168.34 C 359.20 168.79 353.42 170.19 347.71 171.68 M 260.28 270.87 C 262.96 268.06 265.36 264.94 266.88 261.34 C 263.02 262.81 259.81 266.54 260.28 270.87 M 216.72 323.32 C 215.63 334.14 211.31 345.06 214.05 355.94 C 215.96 345.05 216.02 333.74 219.77 323.22 C 219.01 323.25 217.49 323.30 216.72 323.32 M 222.84 337.23 C 224.25 334.83 224.98 332.12 224.24 329.36 C 222.18 331.41 219.70 334.90 222.84 337.23 Z"
       id="path13" />
    <path
       fill="#000000"
       stroke="#000000"
       stroke-width="0.09375"
       opacity="1.00"
       d=" M 623.04 219.79 C 624.15 219.63 625.26 219.47 626.38 219.33 C 627.38 221.61 628.44 223.88 629.65 226.08 C 629.71 223.35 629.61 220.64 629.67 217.92 C 632.66 221.16 635.62 225.03 635.74 229.64 C 633.86 230.95 631.76 233.11 629.26 232.15 C 625.44 229.30 623.46 224.44 623.04 219.79 Z"
       id="path14" />
    <path
       fill="#000000"
       stroke="#000000"
       stroke-width="0.09375"
       opacity="1.00"
       d=" M 315.55 276.60 C 320.34 273.93 327.21 275.89 329.21 281.17 C 330.79 287.07 324.79 292.68 319.02 291.81 C 315.26 292.09 312.00 289.27 310.77 285.89 C 309.83 282.15 312.17 278.20 315.55 276.60 Z"
       id="path15" />
    <path
       fill="#000000"
       stroke="#000000"
       stroke-width="0.09375"
       opacity="1.00"
       d=" M 485.53 281.77 C 490.85 280.01 498.09 283.06 498.63 289.09 C 498.59 298.27 484.36 302.25 479.51 294.45 C 476.28 289.51 480.08 282.89 485.53 281.77 Z"
       id="path16" />
    <path
       fill="#000000"
       stroke="#000000"
       stroke-width="0.09375"
       opacity="1.00"
       d=" M 306.31 309.89 C 311.78 309.09 317.40 310.33 322.40 312.56 C 330.82 316.51 336.32 325.04 338.21 333.95 C 338.71 338.00 339.04 342.78 335.92 345.94 C 333.72 348.73 329.84 349.11 326.60 348.36 C 322.28 345.66 319.34 340.78 314.10 339.60 C 308.22 337.51 301.86 338.90 296.32 341.31 C 292.62 342.92 287.46 344.00 284.46 340.52 C 281.67 338.26 282.06 334.32 282.32 331.13 C 285.20 320.19 294.93 311.18 306.31 309.89 Z"
       id="path17" />
    <path
       fill="#000000"
       stroke="#000000"
       stroke-width="0.09375"
       opacity="1.00"
       d=" M 471.33 318.21 C 479.76 316.08 489.14 316.82 496.73 321.26 C 503.95 325.61 509.75 332.80 511.32 341.20 C 512.33 347.13 506.79 352.87 500.92 352.76 C 497.66 353.19 494.80 351.50 492.19 349.81 C 484.28 344.66 473.53 344.98 465.47 349.63 C 462.39 351.14 459.58 353.72 455.99 353.81 C 453.04 354.01 450.47 351.58 449.52 348.97 C 448.73 344.67 449.04 340.03 451.14 336.12 C 455.04 327.74 462.33 320.75 471.33 318.21 Z"
       id="path18" />
    <path
       fill="#000000"
       stroke="#000000"
       stroke-width="0.09375"
       opacity="1.00"
       d=" M 315.74 378.74 C 322.20 364.41 333.61 351.43 348.67 345.99 C 345.11 351.54 339.91 355.72 336.00 361.00 C 327.27 371.82 318.59 384.51 319.17 399.04 C 318.97 407.60 322.19 416.54 328.86 422.13 C 333.82 426.13 340.79 426.82 346.69 424.68 C 353.51 422.31 359.86 417.95 363.80 411.82 C 366.78 407.24 365.71 401.54 365.34 396.42 C 356.46 392.11 347.40 386.04 343.98 376.30 C 342.56 370.78 342.91 364.31 346.72 359.77 C 352.26 352.89 361.50 350.47 369.99 350.34 C 379.73 350.10 390.35 352.39 397.32 359.68 C 400.74 363.40 403.60 368.61 402.05 373.79 C 399.88 382.01 392.81 387.71 385.66 391.64 C 382.02 393.73 377.43 394.40 374.43 397.43 C 371.97 404.30 375.96 411.48 381.26 415.75 C 394.24 426.29 411.53 430.58 428.03 429.39 C 439.48 428.08 450.60 423.77 459.84 416.86 C 466.69 411.75 473.14 405.60 476.77 397.74 C 477.97 395.27 478.88 392.61 480.70 390.51 C 482.49 389.94 485.30 389.75 486.11 391.86 C 487.07 393.72 486.68 396.06 485.96 397.95 C 479.45 412.01 467.16 422.54 453.66 429.67 C 445.66 433.77 436.92 436.46 427.97 437.41 C 424.71 437.76 421.40 437.45 418.19 438.12 C 416.11 438.38 415.18 440.49 414.02 441.95 C 408.37 450.98 404.92 461.21 399.11 470.15 C 395.12 476.18 389.13 481.21 381.89 482.62 C 374.67 484.56 366.63 481.81 361.68 476.32 C 357.74 471.69 355.25 465.87 354.50 459.85 C 354.22 455.55 353.77 451.27 353.64 446.97 C 353.45 442.12 351.55 437.57 349.68 433.16 C 345.16 433.55 340.61 435.01 336.10 433.77 C 328.53 432.42 322.16 427.24 318.15 420.83 C 309.83 408.52 309.66 392.04 315.74 378.74 M 363.75 443.68 C 360.66 451.46 360.94 460.68 364.91 468.10 C 367.23 472.49 371.90 475.93 377.01 475.76 C 382.21 476.13 387.04 473.19 390.42 469.45 C 395.98 462.53 398.43 453.62 399.34 444.93 C 399.93 440.93 396.09 436.91 392.06 437.64 C 389.12 438.34 386.27 439.98 384.72 442.66 C 382.09 447.04 380.35 451.91 379.13 456.86 C 378.48 456.76 377.19 456.57 376.54 456.47 C 376.33 452.24 376.75 448.04 377.35 443.86 C 377.84 441.03 376.89 437.55 373.88 436.58 C 369.18 435.62 365.36 439.70 363.75 443.68 Z"
       id="path19" />
    <path
       fill="#000000"
       stroke="#000000"
       stroke-width="0.09375"
       opacity="1.00"
       d=" M 682.32 494.73 C 693.69 494.33 702.96 505.19 703.36 516.08 C 703.01 523.23 699.84 530.75 693.45 534.49 C 689.10 537.56 683.00 537.14 678.65 534.31 C 668.72 527.62 664.16 513.03 670.42 502.41 C 672.79 498.02 677.55 495.57 682.32 494.73 M 690.53 508.37 C 688.15 509.56 687.13 513.17 687.83 515.75 C 689.11 518.14 692.97 521.35 695.16 518.23 C 698.35 514.94 695.45 507.10 690.53 508.37 M 678.18 520.30 C 676.81 521.39 678.65 523.71 680.06 522.75 C 681.38 521.64 679.58 519.29 678.18 520.30 Z"
       id="path20" />
    <path
       fill="#000000"
       stroke="#000000"
       stroke-width="0.09375"
       opacity="1.00"
       d=" M 735.65 515.78 C 749.87 524.46 759.23 539.11 766.20 553.88 C 770.22 563.77 773.01 574.49 772.43 585.24 C 772.12 586.20 771.51 588.12 771.21 589.08 C 768.42 579.95 766.70 570.49 762.96 561.66 C 759.32 551.35 753.46 542.09 748.58 532.37 C 745.35 526.06 740.00 521.27 735.65 515.78 Z"
       id="path21" />
    <path
       fill="#000000"
       stroke="#000000"
       stroke-width="0.09375"
       opacity="1.00"
       d=" M 321.36 548.96 C 331.06 549.95 340.29 553.46 349.97 554.64 C 368.44 558.05 387.17 559.79 405.93 560.58 C 408.70 560.63 411.44 561.08 414.12 561.81 C 412.87 563.47 411.17 564.89 408.96 564.51 C 392.37 564.88 375.83 563.20 359.40 561.07 C 346.46 559.02 333.52 556.44 321.10 552.24 C 321.16 551.42 321.29 549.78 321.36 548.96 Z"
       id="path22" />
    <path
       fill="#000000"
       stroke="#000000"
       stroke-width="0.09375"
       opacity="1.00"
       d=" M 800.70 643.85 C 808.05 634.80 813.53 624.45 818.57 614.01 C 819.16 619.44 816.31 624.36 814.64 629.36 C 811.06 639.36 805.85 648.76 799.02 656.90 C 795.25 661.17 791.93 665.88 787.39 669.41 C 783.04 672.80 778.96 677.60 773.05 677.84 C 773.61 675.69 774.18 673.33 776.10 671.97 C 785.97 664.24 794.06 654.44 800.70 643.85 Z"
       id="path23" />
    <path
       fill="#000000"
       stroke="#000000"
       stroke-width="0.09375"
       opacity="1.00"
       d=" M 744.71 620.18 C 747.50 623.51 748.67 627.75 750.34 631.68 C 751.81 635.47 754.08 639.15 753.70 643.38 C 753.00 643.49 751.59 643.70 750.89 643.81 C 748.93 635.92 743.98 628.56 744.71 620.18 Z"
       id="path24" />
    <path
       fill="#000000"
       stroke="#000000"
       stroke-width="0.09375"
       opacity="1.00"
       d=" M 777.53 639.90 C 784.45 636.12 790.29 630.66 795.79 625.08 C 795.87 630.03 791.82 633.45 788.52 636.55 C 785.56 639.32 781.35 639.64 777.53 639.90 Z"
       id="path25" />
    <path
       fill="#000000"
       stroke="#000000"
       stroke-width="0.09375"
       opacity="1.00"
       d=" M 550.85 784.05 C 556.60 782.00 562.00 779.13 567.57 776.66 C 563.29 781.35 556.82 782.83 550.85 784.05 Z"
       id="path26" />
    <path
       fill="#000000"
       stroke="#000000"
       stroke-width="0.09375"
       opacity="1.00"
       d=" M 715.27 863.82 C 723.19 863.29 731.13 863.79 739.05 863.88 C 731.53 866.75 722.80 866.55 715.27 863.82 Z"
       id="path27" />
  </g>
</svg>
