<?xml version="1.0" encoding="UTF-8" standalone="no"?>
<svg
   width="1024pt"
   height="1024pt"
   viewBox="0 0 1024 1024"
   version="1.1"
   id="svg27"
   sodipodi:docname="dog.svg"
   inkscape:version="1.3.2 (091e20e, 2023-11-25)"
   xmlns:inkscape="http://www.inkscape.org/namespaces/inkscape"
   xmlns:sodipodi="http://sodipodi.sourceforge.net/DTD/sodipodi-0.dtd"
   xmlns="http://www.w3.org/2000/svg"
   xmlns:svg="http://www.w3.org/2000/svg">
  <defs
     id="defs27" />
  <sodipodi:namedview
     id="namedview27"
     pagecolor="#ffffff"
     bordercolor="#000000"
     borderopacity="0.25"
     inkscape:showpageshadow="2"
     inkscape:pageopacity="0.0"
     inkscape:pagecheckerboard="0"
     inkscape:deskcolor="#d1d1d1"
     inkscape:document-units="pt"
     inkscape:export-bgcolor="#ffffffff"
     inkscape:zoom="0.58081055"
     inkscape:cx="682.66666"
     inkscape:cy="682.66666"
     inkscape:window-width="1408"
     inkscape:window-height="1214"
     inkscape:window-x="638"
     inkscape:window-y="100"
     inkscape:window-maximized="0"
     inkscape:current-layer="svg27" />
  <g
     id="#fcfdfeff">
    <path
       fill="#fcfdfe"
       stroke="#fcfdfe"
       stroke-width="0.09375"
       opacity="1.00"
       d=" M 690.53 508.37 C 695.45 507.10 698.35 514.94 695.16 518.23 C 692.97 521.35 689.11 518.14 687.83 515.75 C 687.13 513.17 688.15 509.56 690.53 508.37 Z"
       id="path3" />
  </g>
  <g
     id="#000000ff">
    <path
       fill="#000000"
       stroke="#000000"
       stroke-width="0.09375"
       opacity="1.00"
       d=" M 546.53 131.85 C 549.54 131.14 552.80 131.27 555.70 132.41 C 587.52 145.08 615.50 166.36 637.76 192.25 C 640.88 195.95 643.76 200.90 642.03 205.87 C 639.22 213.54 629.77 217.05 622.26 215.02 C 614.16 211.40 609.69 203.35 603.88 197.10 C 592.68 185.28 581.22 173.48 567.65 164.35 C 561.26 160.01 554.88 155.59 547.84 152.35 C 543.99 150.36 539.35 148.31 537.81 143.90 C 536.23 138.15 541.45 133.30 546.53 131.85 Z"
       id="path11" />
    <path
       fill="#000000"
       stroke="#000000"
       stroke-width="0.09375"
       opacity="1.00"
       d=" M 313.85 155.83 C 318.50 153.18 323.23 150.43 328.53 149.37 C 327.94 152.99 324.12 153.90 321.39 155.47 C 303.07 164.57 286.71 177.17 271.70 190.95 C 283.58 176.91 298.21 165.40 313.85 155.83 Z"
       id="path12" />
    <path
       fill="#000000"
       stroke="#000000"
       stroke-width="0.09375"
       opacity="1.00"
       d=" M 623.04 219.79 C 624.15 219.63 625.26 219.47 626.38 219.33 C 627.38 221.61 628.44 223.88 629.65 226.08 C 629.71 223.35 629.61 220.64 629.67 217.92 C 632.66 221.16 635.62 225.03 635.74 229.64 C 633.86 230.95 631.76 233.11 629.26 232.15 C 625.44 229.30 623.46 224.44 623.04 219.79 Z"
       id="path14" />
    <path
       fill="#000000"
       stroke="#000000"
       stroke-width="0.09375"
       opacity="1.00"
       d=" M 315.55 276.60 C 320.34 273.93 327.21 275.89 329.21 281.17 C 330.79 287.07 324.79 292.68 319.02 291.81 C 315.26 292.09 312.00 289.27 310.77 285.89 C 309.83 282.15 312.17 278.20 315.55 276.60 Z"
       id="path15" />
    <path
       fill="#000000"
       stroke="#000000"
       stroke-width="0.09375"
       opacity="1.00"
       d=" M 485.53 281.77 C 490.85 280.01 498.09 283.06 498.63 289.09 C 498.59 298.27 484.36 302.25 479.51 294.45 C 476.28 289.51 480.08 282.89 485.53 281.77 Z"
       id="path16" />
    <path
       fill="#000000"
       stroke="#000000"
       stroke-width="0.09375"
       opacity="1.00"
       d=" M 306.31 309.89 C 311.78 309.09 317.40 310.33 322.40 312.56 C 330.82 316.51 336.32 325.04 338.21 333.95 C 338.71 338.00 339.04 342.78 335.92 345.94 C 333.72 348.73 329.84 349.11 326.60 348.36 C 322.28 345.66 319.34 340.78 314.10 339.60 C 308.22 337.51 301.86 338.90 296.32 341.31 C 292.62 342.92 287.46 344.00 284.46 340.52 C 281.67 338.26 282.06 334.32 282.32 331.13 C 285.20 320.19 294.93 311.18 306.31 309.89 Z"
       id="path17" />
    <path
       fill="#000000"
       stroke="#000000"
       stroke-width="0.09375"
       opacity="1.00"
       d=" M 471.33 318.21 C 479.76 316.08 489.14 316.82 496.73 321.26 C 503.95 325.61 509.75 332.80 511.32 341.20 C 512.33 347.13 506.79 352.87 500.92 352.76 C 497.66 353.19 494.80 351.50 492.19 349.81 C 484.28 344.66 473.53 344.98 465.47 349.63 C 462.39 351.14 459.58 353.72 455.99 353.81 C 453.04 354.01 450.47 351.58 449.52 348.97 C 448.73 344.67 449.04 340.03 451.14 336.12 C 455.04 327.74 462.33 320.75 471.33 318.21 Z"
       id="path18" />
    <path
       fill="#000000"
       stroke="#000000"
       stroke-width="0.09375"
       opacity="1.00"
       d=" M 315.74 378.74 C 322.20 364.41 333.61 351.43 348.67 345.99 C 345.11 351.54 339.91 355.72 336.00 361.00 C 327.27 371.82 318.59 384.51 319.17 399.04 C 318.97 407.60 322.19 416.54 328.86 422.13 C 333.82 426.13 340.79 426.82 346.69 424.68 C 353.51 422.31 359.86 417.95 363.80 411.82 C 366.78 407.24 365.71 401.54 365.34 396.42 C 356.46 392.11 347.40 386.04 343.98 376.30 C 342.56 370.78 342.91 364.31 346.72 359.77 C 352.26 352.89 361.50 350.47 369.99 350.34 C 379.73 350.10 390.35 352.39 397.32 359.68 C 400.74 363.40 403.60 368.61 402.05 373.79 C 399.88 382.01 392.81 387.71 385.66 391.64 C 382.02 393.73 377.43 394.40 374.43 397.43 C 371.97 404.30 375.96 411.48 381.26 415.75 C 394.24 426.29 411.53 430.58 428.03 429.39 C 439.48 428.08 450.60 423.77 459.84 416.86 C 466.69 411.75 473.14 405.60 476.77 397.74 C 477.97 395.27 478.88 392.61 480.70 390.51 C 482.49 389.94 485.30 389.75 486.11 391.86 C 487.07 393.72 486.68 396.06 485.96 397.95 C 479.45 412.01 467.16 422.54 453.66 429.67 C 445.66 433.77 436.92 436.46 427.97 437.41 C 424.71 437.76 421.40 437.45 418.19 438.12 C 416.11 438.38 415.18 440.49 414.02 441.95 C 408.37 450.98 404.92 461.21 399.11 470.15 C 395.12 476.18 389.13 481.21 381.89 482.62 C 374.67 484.56 366.63 481.81 361.68 476.32 C 357.74 471.69 355.25 465.87 354.50 459.85 C 354.22 455.55 353.77 451.27 353.64 446.97 C 353.45 442.12 351.55 437.57 349.68 433.16 C 345.16 433.55 340.61 435.01 336.10 433.77 C 328.53 432.42 322.16 427.24 318.15 420.83 C 309.83 408.52 309.66 392.04 315.74 378.74 M 363.75 443.68 C 360.66 451.46 360.94 460.68 364.91 468.10 C 367.23 472.49 371.90 475.93 377.01 475.76 C 382.21 476.13 387.04 473.19 390.42 469.45 C 395.98 462.53 398.43 453.62 399.34 444.93 C 399.93 440.93 396.09 436.91 392.06 437.64 C 389.12 438.34 386.27 439.98 384.72 442.66 C 382.09 447.04 380.35 451.91 379.13 456.86 C 378.48 456.76 377.19 456.57 376.54 456.47 C 376.33 452.24 376.75 448.04 377.35 443.86 C 377.84 441.03 376.89 437.55 373.88 436.58 C 369.18 435.62 365.36 439.70 363.75 443.68 Z"
       id="path19" />
    <path
       fill="#000000"
       stroke="#000000"
       stroke-width="0.09375"
       opacity="1.00"
       d=" M 682.32 494.73 C 693.69 494.33 702.96 505.19 703.36 516.08 C 703.01 523.23 699.84 530.75 693.45 534.49 C 689.10 537.56 683.00 537.14 678.65 534.31 C 668.72 527.62 664.16 513.03 670.42 502.41 C 672.79 498.02 677.55 495.57 682.32 494.73 M 690.53 508.37 C 688.15 509.56 687.13 513.17 687.83 515.75 C 689.11 518.14 692.97 521.35 695.16 518.23 C 698.35 514.94 695.45 507.10 690.53 508.37 M 678.18 520.30 C 676.81 521.39 678.65 523.71 680.06 522.75 C 681.38 521.64 679.58 519.29 678.18 520.30 Z"
       id="path20" />
    <path
       fill="#000000"
       stroke="#000000"
       stroke-width="0.09375"
       opacity="1.00"
       d=" M 735.65 515.78 C 749.87 524.46 759.23 539.11 766.20 553.88 C 770.22 563.77 773.01 574.49 772.43 585.24 C 772.12 586.20 771.51 588.12 771.21 589.08 C 768.42 579.95 766.70 570.49 762.96 561.66 C 759.32 551.35 753.46 542.09 748.58 532.37 C 745.35 526.06 740.00 521.27 735.65 515.78 Z"
       id="path21" />
    <path
       fill="#000000"
       stroke="#000000"
       stroke-width="0.09375"
       opacity="1.00"
       d=" M 321.36 548.96 C 331.06 549.95 340.29 553.46 349.97 554.64 C 368.44 558.05 387.17 559.79 405.93 560.58 C 408.70 560.63 411.44 561.08 414.12 561.81 C 412.87 563.47 411.17 564.89 408.96 564.51 C 392.37 564.88 375.83 563.20 359.40 561.07 C 346.46 559.02 333.52 556.44 321.10 552.24 C 321.16 551.42 321.29 549.78 321.36 548.96 Z"
       id="path22" />
    <path
       fill="#000000"
       stroke="#000000"
       stroke-width="0.09375"
       opacity="1.00"
       d=" M 800.70 643.85 C 808.05 634.80 813.53 624.45 818.57 614.01 C 819.16 619.44 816.31 624.36 814.64 629.36 C 811.06 639.36 805.85 648.76 799.02 656.90 C 795.25 661.17 791.93 665.88 787.39 669.41 C 783.04 672.80 778.96 677.60 773.05 677.84 C 773.61 675.69 774.18 673.33 776.10 671.97 C 785.97 664.24 794.06 654.44 800.70 643.85 Z"
       id="path23" />
    <path
       fill="#000000"
       stroke="#000000"
       stroke-width="0.09375"
       opacity="1.00"
       d=" M 744.71 620.18 C 747.50 623.51 748.67 627.75 750.34 631.68 C 751.81 635.47 754.08 639.15 753.70 643.38 C 753.00 643.49 751.59 643.70 750.89 643.81 C 748.93 635.92 743.98 628.56 744.71 620.18 Z"
       id="path24" />
    <path
       fill="#000000"
       stroke="#000000"
       stroke-width="0.09375"
       opacity="1.00"
       d=" M 777.53 639.90 C 784.45 636.12 790.29 630.66 795.79 625.08 C 795.87 630.03 791.82 633.45 788.52 636.55 C 785.56 639.32 781.35 639.64 777.53 639.90 Z"
       id="path25" />
    <path
       fill="#000000"
       stroke="#000000"
       stroke-width="0.09375"
       opacity="1.00"
       d=" M 550.85 784.05 C 556.60 782.00 562.00 779.13 567.57 776.66 C 563.29 781.35 556.82 782.83 550.85 784.05 Z"
       id="path26" />
  </g>
</svg>
