<?xml version="1.0" encoding="UTF-8" ?>
<!DOCTYPE svg PUBLIC "-//W3C//DTD SVG 1.1//EN" "http://www.w3.org/Graphics/SVG/1.1/DTD/svg11.dtd">
<svg width="1024pt" height="1024pt" viewBox="0 0 1024 1024" version="1.1" xmlns="http://www.w3.org/2000/svg">
<g id="#fcfefeff">
<path fill="#fcfefe" stroke="#fcfefe" stroke-width="0.09375" opacity="1.00" d=" M 0.00 0.00 L 1024.00 0.00 L 1024.00 1024.00 L 0.00 1024.00 L 0.00 0.00 M 428.04 95.43 C 394.08 97.85 360.45 106.17 329.58 120.60 C 301.30 133.77 275.73 152.67 254.77 175.77 C 228.31 204.48 208.18 239.56 199.60 277.82 C 198.91 282.49 193.63 283.66 191.12 287.09 C 187.19 292.18 185.26 298.52 183.95 304.74 C 181.50 317.65 181.27 330.88 181.77 343.99 C 182.43 352.93 182.94 362.16 186.63 370.47 C 188.38 374.68 192.75 377.49 193.34 382.22 C 194.82 391.85 197.67 401.19 200.39 410.53 C 192.69 409.00 184.79 407.83 176.94 408.95 C 165.62 410.31 154.67 415.48 146.94 423.95 C 134.53 436.93 130.65 456.69 135.46 473.77 C 140.32 490.34 151.44 504.49 164.64 515.35 C 171.63 520.87 178.63 526.59 186.84 530.22 C 191.38 532.10 193.50 536.85 196.87 540.12 C 207.76 551.27 219.84 561.17 231.48 571.51 C 245.60 583.95 260.45 595.60 276.44 605.55 C 279.32 607.02 280.46 610.10 281.34 613.00 C 284.96 624.25 290.01 634.98 295.69 645.32 C 289.76 649.80 283.40 653.82 278.27 659.28 C 272.27 665.28 267.49 672.58 264.81 680.65 C 262.59 687.56 261.55 695.19 263.94 702.20 C 267.45 712.52 275.84 720.94 285.90 725.01 C 295.84 729.15 306.99 729.41 317.50 727.76 C 325.50 726.52 332.76 722.81 339.79 718.98 C 344.50 724.64 349.39 730.57 356.15 733.87 C 359.42 735.58 363.29 736.31 366.01 738.97 C 373.83 746.53 382.57 753.05 390.61 760.37 C 394.00 763.58 398.33 766.00 400.72 770.13 C 408.00 786.77 416.59 802.96 427.38 817.61 C 437.24 831.26 450.01 842.44 463.09 852.92 C 469.41 858.03 476.58 861.96 482.88 867.12 C 498.67 880.20 515.28 892.31 532.46 903.50 C 544.18 910.62 556.82 918.18 571.01 917.86 C 579.15 918.22 587.46 915.94 594.00 911.02 C 602.83 904.24 607.94 893.13 607.81 882.05 C 608.12 872.21 605.23 862.70 602.41 853.40 C 599.91 845.76 596.09 838.66 592.99 831.27 C 603.26 832.47 613.20 835.63 622.82 839.33 C 630.67 842.23 637.09 847.82 644.70 851.21 C 650.53 853.88 656.74 855.79 663.13 856.49 C 665.92 856.88 668.99 856.91 671.34 858.70 C 677.96 863.47 684.76 868.00 691.58 872.49 C 707.24 882.80 722.36 894.00 738.84 903.03 C 750.40 909.36 764.04 913.34 777.22 910.43 C 789.39 908.12 800.28 900.03 805.80 888.90 C 813.46 874.63 812.66 857.75 810.07 842.26 C 806.22 821.07 799.41 800.39 789.81 781.11 C 787.15 775.85 788.55 769.69 786.65 764.21 C 783.06 753.62 775.78 744.66 767.24 737.61 C 767.56 733.41 768.30 729.24 768.23 725.02 C 767.99 718.08 766.42 711.30 765.15 704.51 C 781.36 699.00 795.62 688.67 806.80 675.80 C 816.17 665.02 823.89 652.82 829.86 639.86 C 845.47 604.42 848.98 563.46 838.09 526.17 C 830.05 497.36 813.72 470.55 790.39 451.61 C 762.04 428.27 722.96 417.17 686.83 425.39 C 691.38 415.57 695.55 405.51 697.94 394.92 C 698.45 393.32 698.61 391.30 700.15 390.31 C 703.74 387.91 707.66 385.85 710.48 382.48 C 720.05 371.36 724.18 356.62 725.49 342.26 C 726.26 329.96 726.20 317.34 722.29 305.52 C 719.41 296.04 714.07 286.32 704.44 282.39 C 695.60 241.44 674.88 203.29 645.96 173.04 C 620.14 145.86 587.71 125.15 552.44 112.54 C 532.92 105.52 512.75 100.11 492.15 97.50 C 470.94 94.48 449.39 93.45 428.04 95.43 Z" />
<path fill="#fcfefe" stroke="#fcfefe" stroke-width="0.09375" opacity="1.00" d=" M 393.62 114.86 C 439.48 105.59 487.83 107.51 532.49 121.74 C 548.18 127.16 564.02 132.40 578.60 140.47 C 623.24 165.39 660.74 204.57 679.79 252.36 C 683.43 261.84 687.26 271.37 689.01 281.41 C 681.87 283.17 674.38 284.29 667.88 287.93 C 662.90 290.70 660.67 296.56 660.38 301.99 C 659.96 309.35 660.66 316.72 661.43 324.04 C 662.74 335.83 663.31 347.75 662.38 359.59 C 661.84 366.83 659.14 373.76 659.08 381.04 C 658.91 385.15 661.66 389.51 665.98 389.99 C 672.27 390.98 678.67 390.42 685.02 390.57 C 680.66 406.56 674.01 422.00 664.82 435.81 C 650.40 458.42 631.09 477.73 609.10 492.99 C 611.78 490.37 614.66 487.95 617.56 485.58 C 636.43 469.57 652.99 450.62 664.94 428.87 C 668.45 422.16 672.72 415.57 674.05 407.99 C 674.88 404.05 672.56 399.66 668.74 398.31 C 664.92 396.82 660.84 398.11 657.03 398.94 C 657.71 396.39 658.32 393.81 658.56 391.18 C 656.08 394.29 655.46 398.29 653.88 401.84 C 648.98 412.04 645.29 422.81 639.67 432.66 C 632.04 447.70 621.97 461.32 611.34 474.35 C 599.88 488.16 585.33 499.08 569.70 507.76 C 556.86 514.71 543.15 519.92 529.30 524.48 C 504.96 532.12 479.86 537.39 454.44 539.68 C 442.33 540.97 430.14 540.55 418.00 541.19 C 401.46 540.98 384.87 540.29 368.51 537.68 C 349.54 534.63 330.59 530.46 312.80 523.03 C 302.07 518.92 292.08 513.06 282.92 506.14 C 294.18 511.93 305.41 518.06 317.65 521.54 C 329.54 525.53 341.66 528.92 354.08 530.79 C 400.42 539.44 448.30 537.98 494.51 529.26 C 515.66 524.90 536.72 519.41 556.46 510.50 C 579.84 500.40 600.59 484.34 616.35 464.34 C 622.75 455.62 629.73 447.20 634.47 437.40 C 643.90 420.28 651.75 402.00 654.93 382.61 C 659.36 362.09 659.25 340.85 656.39 320.13 C 653.46 297.17 645.67 275.09 635.78 254.26 C 620.29 222.48 598.15 193.54 569.69 172.33 C 546.52 156.03 520.44 143.82 492.90 137.08 C 450.59 125.90 405.37 126.02 363.10 137.27 C 360.36 138.06 357.58 138.82 355.01 140.06 C 353.84 140.44 353.11 141.50 353.24 142.73 C 354.26 144.11 355.97 143.35 357.34 143.13 C 410.81 127.58 469.29 130.84 521.07 151.06 C 535.63 157.11 549.90 164.09 562.78 173.25 C 576.88 182.07 588.84 193.85 599.62 206.42 C 624.42 236.86 642.66 273.05 650.12 311.73 C 653.74 333.61 654.55 356.13 650.84 378.06 C 648.07 395.50 642.03 412.31 633.99 428.00 C 619.37 457.24 597.02 483.27 568.25 499.30 C 550.73 509.58 531.22 515.92 511.63 520.94 C 484.29 527.70 456.20 531.62 428.02 531.74 C 408.34 532.13 388.58 531.38 369.10 528.46 C 337.34 523.98 305.13 515.22 278.82 496.17 C 251.14 475.91 230.66 446.88 217.73 415.32 C 210.30 395.39 205.13 374.49 203.61 353.23 C 202.81 334.99 203.52 316.58 207.40 298.69 C 210.23 284.72 214.69 271.13 219.83 257.85 C 233.54 223.54 255.47 192.61 283.26 168.26 C 297.06 155.88 312.46 145.33 329.02 136.99 C 349.29 126.42 371.34 119.69 393.62 114.86 M 546.50 131.83 C 541.38 133.16 536.30 138.25 537.84 143.91 C 539.67 149.06 545.41 150.90 549.80 153.31 C 574.50 166.31 595.04 185.95 612.55 207.45 C 616.46 211.83 621.69 216.34 628.01 215.53 C 635.40 215.26 643.60 209.12 642.38 201.05 C 640.80 194.20 635.16 189.39 630.66 184.35 C 611.56 164.05 588.77 147.09 563.30 135.65 C 558.07 133.28 552.41 130.23 546.50 131.83 M 312.53 156.62 C 297.88 165.77 284.08 176.57 272.81 189.73 C 287.27 177.18 302.34 165.02 319.58 156.46 C 322.86 154.67 326.94 153.41 328.47 149.63 C 322.64 150.56 317.51 153.62 312.53 156.62 M 372.30 157.56 C 348.72 162.94 325.67 170.95 304.18 182.09 C 296.86 185.89 290.17 190.75 283.24 195.19 C 272.47 202.19 263.73 211.79 255.76 221.76 C 243.67 237.24 233.96 254.55 226.86 272.86 C 229.47 270.51 231.79 266.54 235.86 267.21 C 238.49 267.02 240.52 269.49 240.44 272.01 C 240.29 276.10 238.14 279.75 237.09 283.64 C 241.17 281.25 242.77 275.23 248.05 275.11 C 248.60 278.59 249.51 281.99 250.60 285.34 C 252.42 290.20 250.22 295.42 247.52 299.48 C 245.03 302.86 241.59 306.39 237.11 306.51 C 235.27 305.42 234.06 303.60 232.70 302.01 C 230.45 306.94 228.28 312.89 222.85 315.09 C 219.98 316.70 217.39 312.61 217.68 310.02 C 218.37 302.81 222.01 296.16 221.99 288.82 C 214.84 305.98 212.49 324.64 210.73 343.00 C 210.34 355.72 209.74 368.53 211.49 381.19 C 213.66 398.18 219.44 414.56 227.28 429.74 C 234.76 443.97 243.69 457.56 254.75 469.26 C 264.66 480.18 276.47 489.20 288.86 497.14 C 305.11 506.61 322.85 513.42 341.18 517.60 C 378.39 527.01 417.24 528.54 455.36 525.18 C 479.03 522.76 502.57 518.47 525.33 511.44 C 542.10 505.98 558.53 499.01 573.18 489.10 C 586.98 479.53 599.15 467.67 609.37 454.37 C 617.09 444.56 623.72 433.83 628.34 422.21 C 633.21 410.81 637.08 398.93 638.81 386.62 C 641.74 367.28 641.72 347.54 639.56 328.12 C 634.31 288.39 617.37 250.21 591.10 219.91 C 569.36 195.63 541.35 176.91 510.43 166.49 C 484.32 157.22 456.69 152.23 428.99 151.77 C 409.97 151.83 390.91 153.54 372.30 157.56 M 622.82 220.01 C 623.86 224.19 625.06 228.76 628.55 231.61 C 630.86 233.45 634.08 231.51 635.53 229.45 C 636.11 224.99 632.62 221.46 629.90 218.41 C 629.73 220.75 629.64 223.09 629.50 225.43 C 628.37 223.41 627.31 221.36 626.28 219.29 C 625.12 219.53 623.96 219.77 622.82 220.01 Z" />
<path fill="#fcfefe" stroke="#fcfefe" stroke-width="0.09375" opacity="1.00" d=" M 406.58 163.45 C 423.67 163.10 440.87 162.78 457.81 165.47 C 469.09 166.93 480.13 169.69 491.11 172.55 C 487.24 178.17 482.70 183.32 479.17 189.18 C 474.69 196.56 471.01 204.40 467.75 212.40 C 457.56 209.95 447.22 207.99 436.74 207.45 C 429.45 207.09 422.16 207.39 414.88 207.57 C 410.22 197.76 404.72 188.37 398.70 179.34 C 395.36 174.33 391.37 169.79 387.94 164.85 C 394.13 164.11 400.34 163.55 406.58 163.45 Z" />
<path fill="#fcfefe" stroke="#fcfefe" stroke-width="0.09375" opacity="1.00" d=" M 334.69 175.60 C 343.59 172.56 352.73 170.03 362.04 168.62 C 365.75 167.71 368.13 171.28 370.43 173.56 C 380.36 185.23 388.15 198.93 392.35 213.70 C 381.46 216.17 370.68 219.15 360.18 222.97 C 361.91 213.39 364.26 203.76 363.67 193.96 C 363.47 187.82 357.20 182.51 351.09 183.98 C 345.16 185.35 341.66 190.96 339.15 196.05 C 333.12 209.24 329.73 223.48 327.43 237.75 C 327.10 240.75 324.54 242.61 322.57 244.59 C 319.60 247.31 317.16 250.53 314.99 253.91 C 324.94 248.90 334.60 243.27 344.85 238.88 C 373.74 226.62 405.71 220.88 437.00 224.50 C 456.86 226.72 475.98 233.75 493.25 243.67 C 500.82 248.41 509.27 252.99 513.60 261.20 C 511.73 261.29 509.86 261.35 508.00 261.39 C 518.18 265.01 527.98 269.85 536.80 276.12 C 543.08 280.36 548.56 285.64 554.68 290.09 C 554.08 284.61 550.81 280.04 549.28 274.92 C 549.53 258.32 548.32 241.64 544.81 225.39 C 542.89 217.01 540.77 208.37 535.68 201.28 C 532.80 197.25 528.29 193.66 523.05 194.13 C 516.89 194.11 512.88 200.15 511.87 205.64 C 509.10 220.55 510.80 235.92 513.98 250.64 C 504.44 241.54 492.69 235.26 480.79 229.83 C 483.78 218.19 489.06 207.29 494.87 196.83 C 498.87 190.47 502.99 183.69 509.25 179.34 C 517.33 181.12 524.88 184.99 532.20 188.80 C 542.82 194.87 553.14 201.59 562.41 209.62 C 568.75 214.97 570.97 223.33 572.95 231.05 C 576.72 246.13 579.16 261.53 580.38 277.02 C 580.66 282.24 581.04 287.55 579.93 292.71 C 585.31 299.22 591.35 305.29 595.29 312.85 C 604.08 328.21 606.17 346.04 610.25 362.96 C 612.30 370.84 614.79 378.80 619.49 385.55 C 621.51 388.71 624.19 391.50 625.55 395.05 C 624.22 402.28 618.79 407.80 613.40 412.39 C 608.07 416.93 601.55 419.67 595.81 423.62 C 601.25 424.62 607.19 424.34 611.95 427.60 C 610.31 430.59 608.71 433.82 605.81 435.79 C 599.82 439.96 592.73 442.13 585.80 444.18 C 589.00 446.20 592.48 447.73 596.07 448.94 C 594.01 453.90 590.03 457.67 585.71 460.68 C 571.29 470.66 555.03 477.54 538.53 483.24 C 515.02 491.21 490.82 497.28 466.20 500.57 C 443.65 503.97 420.75 505.08 397.98 503.70 C 379.66 503.05 361.56 499.59 343.84 495.08 C 324.96 489.57 306.39 482.57 289.32 472.70 C 274.37 464.33 259.98 454.25 249.42 440.56 C 245.68 435.85 242.41 430.72 240.37 425.04 C 242.90 423.59 245.46 422.18 247.78 420.42 C 240.25 417.02 231.18 413.27 228.44 404.72 C 227.25 399.66 233.79 400.25 236.97 399.70 C 230.52 392.99 224.10 384.78 224.31 374.99 C 224.31 367.71 230.65 363.00 235.13 358.12 C 242.72 350.66 247.67 341.01 251.22 331.09 C 255.72 318.63 260.83 306.26 268.23 295.20 C 275.24 285.07 284.15 276.38 293.93 268.93 C 297.29 266.26 301.20 264.03 303.52 260.28 C 305.21 257.45 307.70 255.26 310.13 253.09 C 304.10 254.89 298.48 257.75 293.12 261.01 C 294.50 247.56 298.78 234.69 302.14 221.67 C 289.06 229.66 278.13 240.58 267.43 251.43 C 265.19 253.45 262.67 256.24 259.32 255.63 C 257.12 255.38 255.58 253.14 255.58 251.02 C 255.47 245.50 258.16 240.47 260.68 235.73 C 268.34 221.56 277.96 208.56 288.12 196.11 C 291.51 192.09 295.62 188.56 300.42 186.35 C 303.46 185.02 307.42 184.58 310.19 186.76 C 312.30 188.31 312.76 191.05 313.59 193.37 C 317.46 189.31 321.80 185.73 325.43 181.44 C 327.78 178.50 331.19 176.77 334.69 175.60 M 316.35 276.25 C 312.84 277.53 310.15 281.16 310.63 284.97 C 311.25 288.90 314.98 292.06 319.00 291.84 C 324.46 292.56 330.16 287.73 329.38 282.06 C 328.21 276.48 321.26 273.98 316.35 276.25 M 485.56 281.75 C 480.13 282.86 476.32 289.45 479.51 294.42 C 484.26 302.27 498.64 298.28 498.64 289.09 C 498.10 283.09 490.86 280.04 485.56 281.75 M 302.40 310.66 C 293.19 313.10 285.83 320.65 282.73 329.54 C 281.73 333.36 281.52 338.32 284.95 341.02 C 288.30 344.14 293.21 342.53 296.94 341.07 C 302.46 338.74 308.76 337.60 314.54 339.69 C 319.48 341.10 322.33 345.77 326.62 348.25 C 329.80 349.31 333.72 348.64 335.92 345.96 C 339.14 342.50 338.81 337.31 338.00 333.00 C 336.03 324.69 330.80 316.85 323.08 312.91 C 316.74 309.76 309.26 308.70 302.40 310.66 M 473.41 317.69 C 461.78 320.05 452.42 329.83 449.33 341.11 C 447.89 345.47 449.07 351.31 453.54 353.41 C 457.70 354.89 461.44 351.75 464.92 349.96 C 471.37 346.00 479.53 344.97 486.74 347.24 C 491.61 348.74 495.54 353.16 500.93 352.78 C 507.24 352.82 512.98 346.31 511.10 340.02 C 507.25 324.01 489.24 313.77 473.41 317.69 M 338.20 351.23 C 327.38 358.88 318.86 369.84 314.31 382.31 C 310.20 393.49 310.41 406.45 315.97 417.11 C 319.79 424.58 326.12 431.36 334.51 433.43 C 339.51 434.92 344.69 433.77 349.73 433.19 C 350.52 435.16 351.34 437.14 352.01 439.17 C 355.10 447.85 352.90 457.43 355.93 466.13 C 358.24 472.97 362.95 479.47 369.99 481.93 C 379.70 485.59 390.86 480.92 397.00 473.00 C 404.27 463.60 407.70 451.93 414.00 441.93 C 415.11 440.45 416.21 438.56 418.19 438.20 C 422.53 437.35 427.01 437.74 431.38 437.00 C 442.50 435.27 453.12 430.78 462.38 424.43 C 471.90 418.03 480.19 409.56 485.36 399.25 C 486.36 397.19 487.04 394.82 486.46 392.54 C 485.78 389.68 481.12 389.13 479.82 391.78 C 477.10 396.14 475.56 401.20 472.20 405.17 C 461.11 418.73 444.55 427.99 427.00 429.44 C 410.84 430.39 393.94 426.11 381.27 415.74 C 376.42 411.77 372.59 405.55 373.98 399.06 C 374.20 396.24 377.40 395.48 379.49 394.37 C 386.87 391.51 394.04 387.27 398.75 380.75 C 401.25 377.13 403.19 372.60 402.16 368.15 C 400.36 361.36 394.68 356.25 388.39 353.55 C 380.60 350.31 371.89 349.65 363.59 350.86 C 357.21 351.83 350.80 354.58 346.74 359.77 C 342.79 364.50 342.43 371.35 344.22 377.02 C 347.95 386.40 356.79 392.18 365.41 396.60 C 365.69 401.64 366.72 407.24 363.83 411.76 C 360.24 417.51 354.43 421.61 348.24 424.16 C 342.20 426.66 334.77 426.62 329.42 422.55 C 322.03 416.84 318.78 407.09 319.15 397.98 C 318.96 384.09 327.24 372.05 335.52 361.60 C 339.66 356.13 344.87 351.59 348.84 346.00 C 345.10 347.29 341.43 348.89 338.20 351.23 Z" />
<path fill="#fcfefe" stroke="#fcfefe" stroke-width="0.09375" opacity="1.00" d=" M 260.00 270.30 C 260.49 266.22 263.20 263.06 266.54 260.91 C 265.76 264.83 263.30 268.11 260.00 270.30 Z" />
<path fill="#fcfefe" stroke="#fcfefe" stroke-width="0.09375" opacity="1.00" d=" M 697.14 295.31 C 698.46 295.37 699.78 295.44 701.12 295.51 C 699.52 299.74 697.55 303.85 696.42 308.25 C 694.88 314.09 694.42 320.13 693.52 326.08 C 693.69 315.79 692.07 304.78 697.14 295.31 Z" />
<path fill="#fcfefe" stroke="#fcfefe" stroke-width="0.09375" opacity="1.00" d=" M 702.72 300.76 C 706.52 304.12 708.60 308.88 709.49 313.81 C 711.77 325.63 711.42 337.82 709.80 349.71 C 707.37 350.14 704.94 350.50 702.51 350.80 C 702.36 351.91 702.22 353.03 702.08 354.15 C 704.31 354.31 706.54 354.43 708.78 354.55 C 706.95 361.45 704.33 368.50 698.75 373.28 C 696.16 360.70 696.50 347.77 696.84 335.00 C 697.71 323.50 697.15 311.26 702.72 300.76 Z" />
<path fill="#fcfefe" stroke="#fcfefe" stroke-width="0.09375" opacity="1.00" d=" M 216.70 323.37 C 217.39 323.29 218.76 323.15 219.45 323.08 C 217.56 331.19 215.88 339.39 215.32 347.71 C 215.19 350.38 214.51 352.99 213.70 355.53 C 211.79 344.68 215.42 334.05 216.70 323.37 Z" />
<path fill="#fcfefe" stroke="#fcfefe" stroke-width="0.09375" opacity="1.00" d=" M 221.88 337.48 C 220.79 334.38 221.79 331.31 224.64 329.63 C 224.78 332.55 223.97 335.37 221.88 337.48 Z" />
<path fill="#fcfefe" stroke="#fcfefe" stroke-width="0.09375" opacity="1.00" d=" M 153.82 441.91 C 158.50 433.38 167.34 427.36 176.96 425.99 C 187.59 424.13 198.41 426.83 207.95 431.50 C 203.45 457.60 191.21 481.42 181.73 505.92 C 168.21 498.68 156.93 486.78 151.84 472.17 C 148.46 462.40 148.49 451.00 153.82 441.91 Z" />
<path fill="#fcfefe" stroke="#fcfefe" stroke-width="0.09375" opacity="1.00" d=" M 368.59 437.60 C 371.40 435.47 376.33 436.37 377.14 440.14 C 378.00 445.64 375.48 451.23 377.01 456.70 C 377.43 456.74 378.27 456.81 378.69 456.85 C 381.88 450.38 382.59 441.05 390.32 438.16 C 394.31 436.12 399.45 439.49 399.31 443.93 C 399.04 451.34 396.87 458.71 393.32 465.21 C 390.12 471.11 384.03 476.16 376.99 475.78 C 371.87 475.90 367.25 472.49 364.89 468.11 C 361.46 461.80 360.91 454.16 362.56 447.25 C 363.47 443.53 365.27 439.73 368.59 437.60 Z" />
<path fill="#fcfefe" stroke="#fcfefe" stroke-width="0.09375" opacity="1.00" d=" M 710.86 438.37 C 723.32 437.61 735.53 440.96 747.20 444.96 C 780.20 456.99 806.28 484.68 818.80 517.21 C 826.19 535.83 829.30 556.01 828.72 576.00 C 828.97 590.10 826.42 604.08 822.58 617.59 C 820.77 623.42 818.77 629.28 815.51 634.48 C 815.89 629.47 816.98 624.55 818.72 619.84 C 821.06 613.39 822.71 606.71 823.88 599.95 C 821.26 605.31 818.88 610.80 817.34 616.58 C 813.64 624.48 809.17 632.02 804.31 639.26 C 795.95 646.06 785.38 649.68 774.67 650.22 C 774.76 648.43 774.85 646.65 774.99 644.87 C 775.71 638.66 776.12 632.33 774.88 626.15 C 773.98 621.85 774.06 617.41 775.19 613.17 C 776.46 607.47 776.80 601.62 776.81 595.80 C 775.91 597.92 775.06 600.07 774.09 602.16 C 773.45 603.38 772.76 604.58 772.03 605.75 C 771.99 595.40 773.74 585.01 772.07 574.71 C 769.55 557.37 761.19 541.30 749.94 528.03 C 745.94 523.31 741.27 519.16 735.97 515.95 C 741.55 522.59 747.33 529.14 751.24 536.96 C 751.17 538.26 751.11 539.56 751.05 540.88 C 747.58 537.97 744.00 535.17 740.22 532.68 C 737.61 531.19 736.07 528.54 734.97 525.85 C 730.58 514.91 725.32 504.36 720.35 493.69 C 714.35 480.94 706.78 468.12 694.64 460.34 C 687.36 455.29 678.39 453.67 669.73 453.06 C 671.75 450.32 673.72 447.53 675.97 444.97 C 677.77 442.74 680.74 442.20 683.37 441.57 C 690.53 440.09 697.93 439.15 705.23 440.14 C 711.31 440.74 717.20 442.47 723.18 443.65 C 719.29 441.41 715.08 439.83 710.86 438.37 M 775.84 555.52 C 775.78 558.36 776.47 561.13 777.94 563.58 C 778.68 560.68 779.09 557.07 775.84 555.52 M 814.37 597.40 C 815.82 595.86 817.32 594.15 817.40 591.91 C 818.18 585.57 819.34 579.26 819.68 572.88 C 818.18 581.12 814.57 588.96 814.37 597.40 M 795.04 625.81 C 789.85 631.11 784.08 635.83 777.92 639.97 C 781.16 639.52 784.70 639.42 787.45 637.41 C 790.30 635.33 792.52 632.55 794.79 629.89 C 796.97 626.95 798.26 623.50 798.99 619.95 C 797.53 621.77 795.51 623.42 795.04 625.81 Z" />
<path fill="#fcfefe" stroke="#fcfefe" stroke-width="0.09375" opacity="1.00" d=" M 207.08 462.11 C 209.80 455.03 211.51 447.60 214.62 440.67 C 216.32 443.74 217.91 446.87 219.52 449.99 C 210.32 471.69 201.14 493.50 194.73 516.22 C 192.93 515.02 191.05 513.91 189.45 512.44 C 189.00 509.25 190.35 506.19 191.32 503.23 C 196.43 489.47 201.85 475.82 207.08 462.11 Z" />
<path fill="#fcfefe" stroke="#fcfefe" stroke-width="0.09375" opacity="1.00" d=" M 224.00 456.92 C 234.62 471.52 245.68 486.08 259.75 497.57 C 253.49 522.97 251.53 550.65 261.61 575.34 C 255.50 570.88 249.48 566.23 244.14 560.86 C 236.53 553.07 237.65 541.23 236.45 531.23 C 236.23 538.70 236.61 546.18 236.22 553.64 C 228.36 547.92 226.52 537.27 226.22 528.17 C 226.20 519.35 227.61 510.61 227.74 501.80 C 221.20 513.72 220.25 527.79 221.79 541.06 C 214.43 536.27 208.82 529.42 203.50 522.56 C 201.90 520.84 202.00 518.44 202.49 516.32 C 205.64 502.16 211.25 488.73 216.36 475.21 C 218.76 469.05 221.41 463.00 224.00 456.92 Z" />
<path fill="#fcfefe" stroke="#fcfefe" stroke-width="0.09375" opacity="1.00" d=" M 650.23 472.71 C 652.70 470.38 655.27 467.29 658.99 467.36 C 666.38 467.18 673.84 467.27 681.12 468.73 C 677.89 471.30 674.89 474.37 671.00 475.93 C 669.51 476.40 668.01 476.81 666.51 477.24 C 666.71 476.22 666.91 475.21 667.13 474.21 C 667.22 473.76 667.40 472.87 667.49 472.42 C 661.74 472.82 655.97 473.49 650.23 472.71 Z" />
<path fill="#fcfefe" stroke="#fcfefe" stroke-width="0.09375" opacity="1.00" d=" M 680.71 476.69 C 682.86 475.28 685.30 472.21 688.10 473.89 C 695.98 477.68 699.78 486.06 703.70 493.35 C 709.74 505.19 715.05 517.39 720.61 529.46 C 721.61 531.78 722.81 534.15 722.87 536.74 C 722.39 538.17 721.02 539.01 719.96 539.97 C 707.55 549.23 693.97 556.84 679.94 563.34 C 673.39 550.60 667.63 537.48 661.44 524.57 C 657.86 516.41 654.06 508.33 649.18 500.86 C 658.94 491.88 670.59 485.26 680.71 476.69 M 679.41 495.45 C 674.98 496.75 671.19 500.03 669.41 504.31 C 664.82 514.61 669.12 527.51 678.12 533.94 C 682.33 536.95 688.35 537.67 692.85 534.87 C 699.75 530.93 703.58 522.80 703.29 514.99 C 702.42 507.78 698.37 500.68 691.88 497.15 C 688.12 495.13 683.56 493.84 679.41 495.45 Z" />
<path fill="#fcfefe" stroke="#fcfefe" stroke-width="0.09375" opacity="1.00" d=" M 690.44 508.31 C 696.55 506.98 699.02 517.93 692.93 519.65 C 690.56 519.10 688.17 517.41 687.67 514.91 C 687.32 512.44 688.41 509.77 690.44 508.31 Z" />
<path fill="#fcfefe" stroke="#fcfefe" stroke-width="0.09375" opacity="1.00" d=" M 568.01 522.02 C 577.57 518.47 586.65 513.77 596.29 510.42 C 591.81 515.52 585.58 518.58 579.52 521.37 C 557.71 530.57 534.16 534.21 511.06 538.67 C 530.20 533.69 549.65 529.54 568.01 522.02 Z" />
<path fill="#fcfefe" stroke="#fcfefe" stroke-width="0.09375" opacity="1.00" d=" M 271.47 515.09 C 283.40 525.81 297.96 533.17 312.78 539.05 C 331.56 546.79 351.81 549.76 371.75 552.95 C 404.67 556.73 437.94 555.81 470.94 553.56 C 493.14 552.09 515.34 550.10 537.33 546.59 C 558.18 543.65 579.25 539.14 597.90 528.99 C 603.58 526.17 608.66 522.18 612.61 517.20 C 612.88 521.38 613.99 525.97 611.72 529.81 C 609.26 533.68 605.18 536.10 601.27 538.29 C 590.00 544.33 577.77 548.33 565.47 551.71 C 538.46 558.80 510.62 561.96 482.93 565.12 C 431.34 570.80 378.14 573.34 327.60 559.29 C 312.97 555.70 299.18 549.32 286.20 541.77 C 281.84 538.96 277.36 536.00 274.23 531.78 C 270.87 526.90 271.62 520.69 271.47 515.09 M 314.48 548.20 C 314.45 548.81 314.41 550.03 314.38 550.64 C 315.00 550.64 316.24 550.62 316.86 550.61 C 316.67 550.18 316.29 549.31 316.11 548.88 C 315.70 548.71 314.88 548.37 314.48 548.20 M 321.15 549.04 C 321.20 550.19 321.26 551.34 321.34 552.50 C 337.20 557.29 353.51 560.67 370.00 562.36 C 384.17 563.88 398.48 565.21 412.74 564.19 C 412.77 563.44 412.84 561.94 412.87 561.19 C 408.47 560.72 404.05 560.49 399.63 560.27 C 379.66 559.28 359.77 556.80 340.17 552.81 C 333.85 551.43 327.63 549.47 321.15 549.04 Z" />
<path fill="#fcfefe" stroke="#fcfefe" stroke-width="0.09375" opacity="1.00" d=" M 678.22 520.32 C 679.63 519.20 681.43 521.61 679.98 522.67 C 678.56 523.77 676.75 521.36 678.22 520.32 Z" />
<path fill="#fcfefe" stroke="#fcfefe" stroke-width="0.09375" opacity="1.00" d=" M 260.36 526.97 C 262.26 530.80 264.93 534.49 264.98 538.94 C 265.46 546.99 265.23 555.10 266.67 563.07 C 267.45 568.91 269.39 574.48 270.79 580.17 C 265.39 571.93 263.44 562.07 261.77 552.52 C 260.32 544.08 260.33 535.51 260.36 526.97 Z" />
<path fill="#fcfefe" stroke="#fcfefe" stroke-width="0.09375" opacity="1.00" d=" M 710.89 554.16 C 714.91 549.01 720.53 545.47 726.13 542.26 C 722.05 547.32 716.86 551.55 710.89 554.16 Z" />
<path fill="#fcfefe" stroke="#fcfefe" stroke-width="0.09375" opacity="1.00" d=" M 714.35 559.61 C 719.87 555.46 725.16 551.01 730.66 546.82 C 736.85 556.41 741.05 567.07 745.62 577.47 C 751.51 591.48 757.61 605.56 760.76 620.49 C 762.29 628.44 763.49 637.11 759.83 644.68 C 757.51 650.16 753.00 654.21 748.34 657.71 C 746.71 652.92 744.04 648.56 742.44 643.78 C 742.62 640.50 744.30 637.40 743.78 634.07 C 743.01 628.20 740.50 622.75 738.76 617.14 C 732.36 597.28 723.48 578.34 714.35 559.61 M 744.53 620.57 C 744.48 628.82 748.60 636.19 751.06 643.86 C 751.75 643.73 753.14 643.48 753.83 643.36 C 753.59 640.00 752.67 636.76 751.28 633.72 C 749.24 629.24 748.07 624.19 744.53 620.57 Z" />
<path fill="#fcfefe" stroke="#fcfefe" stroke-width="0.09375" opacity="1.00" d=" M 274.59 548.32 C 275.51 550.08 276.56 551.89 276.51 553.95 C 276.72 563.36 277.99 572.70 278.45 582.10 C 274.80 571.30 273.53 559.66 274.59 548.32 Z" />
<path fill="#fcfefe" stroke="#fcfefe" stroke-width="0.09375" opacity="1.00" d=" M 604.18 550.86 C 606.36 551.41 608.56 552.14 610.17 553.80 C 615.92 559.13 622.12 563.93 628.37 568.65 C 629.73 569.86 631.67 571.00 631.67 573.07 C 632.11 578.72 631.55 584.40 631.00 590.04 C 624.12 585.82 618.15 579.77 610.09 577.84 C 616.60 583.15 623.59 587.85 629.90 593.42 C 628.96 599.37 627.33 605.19 625.21 610.82 C 620.97 608.06 616.76 605.25 612.31 602.85 C 616.01 606.95 620.79 610.22 623.60 615.04 C 622.52 619.63 620.10 623.75 618.06 627.97 C 610.31 644.04 599.82 658.69 587.91 671.92 C 576.88 683.69 565.09 695.20 550.73 702.82 C 547.35 697.98 544.28 692.88 542.27 687.32 C 550.25 682.60 558.67 677.84 563.96 669.94 C 558.61 672.40 553.49 675.33 548.58 678.59 C 545.79 680.33 543.06 682.43 539.76 683.07 C 539.31 680.94 540.24 679.17 542.06 678.10 C 555.78 668.40 569.37 658.19 580.50 645.51 C 591.06 633.99 599.54 620.36 603.98 605.31 C 606.07 598.20 607.49 590.78 607.00 583.34 C 603.61 589.73 601.76 596.82 598.15 603.11 C 589.93 617.53 578.89 630.35 566.08 640.89 C 567.75 636.35 568.97 631.68 570.17 627.02 C 572.44 618.59 576.78 610.96 579.81 602.82 C 582.98 594.42 585.88 585.88 588.17 577.19 C 589.90 570.68 590.48 563.93 592.12 557.40 C 593.04 554.48 596.97 554.49 599.36 553.17 C 601.36 557.90 603.52 562.55 605.75 567.18 C 605.22 561.74 604.02 556.35 604.18 550.86 Z" />
<path fill="#fcfefe" stroke="#fcfefe" stroke-width="0.09375" opacity="1.00" d=" M 282.31 556.60 C 285.16 558.01 287.11 560.53 287.36 563.77 C 290.61 581.61 297.98 598.26 303.46 615.46 C 305.66 623.18 308.14 631.04 307.83 639.18 C 301.33 624.89 296.62 609.85 290.51 595.40 C 285.01 583.29 281.98 569.90 282.31 556.60 Z" />
<path fill="#fcfefe" stroke="#fcfefe" stroke-width="0.09375" opacity="1.00" d=" M 555.53 567.28 C 566.03 564.95 576.41 562.10 586.55 558.50 C 589.38 561.76 587.75 566.17 586.91 569.86 C 582.61 584.80 576.47 599.21 568.78 612.71 C 565.62 602.70 560.75 593.17 553.51 585.48 C 548.49 579.56 541.89 575.39 535.75 570.76 C 542.29 569.29 548.98 568.66 555.53 567.28 Z" />
<path fill="#fcfefe" stroke="#fcfefe" stroke-width="0.09375" opacity="1.00" d=" M 681.48 569.90 C 686.51 564.84 693.58 562.45 700.12 559.95 C 694.63 564.37 688.51 568.56 681.48 569.90 Z" />
<path fill="#fcfefe" stroke="#fcfefe" stroke-width="0.09375" opacity="1.00" d=" M 685.09 574.85 C 692.69 571.71 699.47 566.87 707.15 563.96 C 715.76 577.84 722.07 592.97 727.83 608.22 C 731.16 617.22 734.55 626.31 735.84 635.88 C 725.98 623.29 715.13 611.35 702.38 601.64 C 699.24 599.18 695.10 597.45 693.61 593.46 C 690.92 587.18 687.81 581.10 685.09 574.85 Z" />
<path fill="#fcfefe" stroke="#fcfefe" stroke-width="0.09375" opacity="1.00" d=" M 301.40 564.41 C 314.50 569.40 327.67 574.49 341.53 576.96 C 341.09 580.14 340.58 583.32 340.17 586.51 C 327.88 582.33 315.46 578.24 303.99 572.09 C 301.07 570.73 301.88 567.00 301.40 564.41 Z" />
<path fill="#fcfefe" stroke="#fcfefe" stroke-width="0.09375" opacity="1.00" d=" M 522.93 573.23 C 526.07 573.25 529.46 572.90 532.28 574.62 C 546.98 582.59 558.32 597.24 561.10 613.86 C 563.43 627.80 559.99 644.02 548.28 652.96 C 553.22 641.98 554.69 629.63 553.19 617.72 C 551.48 606.23 545.58 595.68 537.87 587.13 C 533.37 581.99 527.70 578.09 522.93 573.23 Z" />
<path fill="#fcfefe" stroke="#fcfefe" stroke-width="0.09375" opacity="1.00" d=" M 303.23 575.04 C 315.21 580.69 327.29 586.36 340.25 589.40 C 340.13 598.92 340.03 608.50 341.41 617.95 C 342.08 623.16 343.05 628.32 343.67 633.54 C 335.12 633.07 326.79 631.10 318.46 629.27 C 316.21 622.17 314.58 614.89 312.26 607.82 C 308.93 596.99 305.15 586.23 303.23 575.04 Z" />
<path fill="#fcfefe" stroke="#fcfefe" stroke-width="0.09375" opacity="1.00" d=" M 463.06 580.21 C 477.72 578.32 492.50 577.33 507.21 575.91 C 510.13 575.51 513.16 575.92 515.78 577.34 C 528.82 584.62 539.50 596.69 543.60 611.22 C 547.97 626.63 544.86 643.46 537.49 657.44 C 534.80 662.57 529.81 665.80 525.18 668.99 C 524.75 663.56 524.92 658.03 523.44 652.75 C 522.13 647.97 520.31 643.36 518.26 638.86 C 514.26 629.52 506.96 622.11 498.89 616.15 C 504.29 622.67 509.36 629.48 513.56 636.85 C 519.53 646.85 520.90 658.97 519.14 670.34 C 518.58 673.12 516.49 675.17 514.68 677.20 C 513.65 671.86 513.84 666.36 512.67 661.05 C 509.99 649.57 503.21 639.33 494.26 631.76 C 503.15 645.32 509.19 661.47 507.60 677.90 C 507.03 682.27 502.61 684.40 499.64 687.06 C 498.28 674.14 491.83 662.32 483.09 652.91 C 479.90 649.48 476.78 645.99 473.35 642.81 C 484.58 654.84 493.97 670.09 494.14 687.02 C 494.27 691.28 490.62 693.97 488.12 696.90 C 480.59 683.89 469.89 672.87 457.15 664.89 C 444.51 656.87 430.07 651.03 414.95 650.53 C 416.42 644.98 418.36 638.56 424.17 636.14 C 430.01 633.90 436.19 632.82 442.25 631.36 C 436.12 630.64 429.61 630.08 423.84 632.75 C 422.50 633.32 421.22 634.00 419.93 634.66 C 422.25 628.81 425.06 623.03 429.28 618.30 C 434.32 612.91 441.26 610.01 447.37 606.09 C 440.36 606.13 433.74 608.91 428.18 613.06 C 432.08 605.37 436.50 597.73 443.08 592.01 C 448.83 586.76 455.29 581.86 463.06 580.21 Z" />
<path fill="#fcfefe" stroke="#fcfefe" stroke-width="0.09375" opacity="1.00" d=" M 637.64 576.08 C 641.17 578.90 645.52 580.86 648.32 584.50 C 649.25 591.20 648.69 598.09 647.49 604.74 C 643.44 601.27 639.49 597.67 635.57 594.06 C 636.35 588.08 637.18 582.10 637.64 576.08 Z" />
<path fill="#fcfefe" stroke="#fcfefe" stroke-width="0.09375" opacity="1.00" d=" M 348.43 579.23 C 351.55 579.55 354.67 579.96 357.78 580.41 C 357.61 583.95 357.31 587.50 356.88 591.03 C 354.96 611.68 359.06 632.21 363.52 652.26 C 360.82 652.15 358.13 651.95 355.44 651.74 C 347.86 628.54 344.48 603.46 348.43 579.23 Z" />
<path fill="#fcfefe" stroke="#fcfefe" stroke-width="0.09375" opacity="1.00" d=" M 365.03 590.70 C 365.16 587.86 365.37 585.02 365.66 582.20 C 374.79 582.60 383.86 583.81 393.01 583.88 C 404.76 585.14 416.50 583.39 428.26 583.62 C 425.82 587.34 423.31 591.01 420.82 594.69 C 402.15 595.16 383.43 593.90 365.03 590.70 Z" />
<path fill="#fcfefe" stroke="#fcfefe" stroke-width="0.09375" opacity="1.00" d=" M 658.43 590.81 C 660.62 592.56 663.72 593.93 664.31 596.98 C 665.13 603.70 664.51 610.56 662.99 617.14 C 660.72 615.78 658.33 614.52 656.50 612.58 C 656.77 605.33 657.77 598.06 658.43 590.81 Z" />
<path fill="#fcfefe" stroke="#fcfefe" stroke-width="0.09375" opacity="1.00" d=" M 364.53 594.32 C 382.45 597.71 400.75 598.78 418.96 598.36 C 415.00 606.18 411.50 614.24 408.51 622.47 C 406.95 626.60 406.22 631.07 404.00 634.92 C 399.45 636.13 394.65 635.44 390.00 635.66 C 382.71 635.49 375.36 636.05 368.12 635.03 C 366.38 630.23 366.33 625.05 365.52 620.06 C 364.26 611.54 363.99 602.91 364.53 594.32 Z" />
<path fill="#fcfefe" stroke="#fcfefe" stroke-width="0.09375" opacity="1.00" d=" M 634.48 597.89 C 638.39 600.84 642.37 603.83 645.58 607.56 C 646.92 608.70 646.36 610.43 646.12 611.91 C 645.18 616.42 643.64 620.77 642.24 625.15 C 637.90 621.25 632.87 617.87 629.59 612.98 C 630.70 607.80 632.92 602.94 634.48 597.89 Z" />
<path fill="#fcfefe" stroke="#fcfefe" stroke-width="0.09375" opacity="1.00" d=" M 677.14 603.99 C 703.19 619.65 725.11 643.10 736.48 671.50 C 742.57 685.85 748.11 700.64 750.53 716.10 C 752.22 726.57 747.39 736.42 742.27 745.18 C 734.74 757.31 724.68 767.67 713.75 776.76 C 701.53 787.10 687.74 795.54 673.18 802.15 C 659.14 808.24 644.40 813.24 629.06 814.52 C 611.66 815.46 594.32 813.43 577.00 812.24 C 578.70 813.42 580.41 814.60 582.11 815.82 C 578.74 815.62 575.02 816.02 572.15 813.89 C 563.94 808.24 556.06 802.06 548.85 795.17 C 545.06 791.68 541.38 788.00 538.64 783.61 C 546.06 780.47 553.61 777.62 560.78 773.94 C 562.37 773.18 563.96 772.30 565.75 772.15 C 568.32 773.89 570.32 776.31 572.51 778.49 C 582.33 788.38 592.25 798.54 604.49 805.46 C 608.88 807.75 613.85 810.07 618.91 808.72 C 615.86 805.53 612.51 802.67 609.07 799.93 C 596.95 789.78 585.33 778.98 575.12 766.89 C 570.79 761.56 565.66 756.90 561.84 751.19 C 560.38 749.26 562.47 747.03 562.92 745.08 C 561.82 746.01 560.73 746.95 559.64 747.90 C 547.84 735.28 538.83 720.39 530.72 705.22 C 528.54 700.99 526.71 696.59 525.10 692.12 C 526.83 690.42 528.53 688.71 530.22 686.98 C 533.58 693.51 536.52 700.28 540.42 706.53 C 550.73 723.41 563.30 738.80 576.62 753.39 C 585.27 764.02 595.56 773.12 605.56 782.44 C 612.44 788.56 619.24 794.80 626.40 800.61 C 628.16 802.13 630.09 803.58 631.38 805.57 C 631.78 807.12 631.81 808.74 631.99 810.35 C 635.17 808.65 638.82 806.14 638.36 802.01 C 637.45 797.77 634.12 794.69 631.33 791.59 C 645.96 787.60 659.78 780.87 672.21 772.22 C 681.68 765.72 690.65 758.39 698.16 749.66 C 702.91 751.42 708.52 752.05 712.83 748.83 C 720.88 742.81 724.45 732.96 729.67 724.72 C 731.77 730.92 733.99 737.07 735.69 743.39 C 737.08 734.83 735.08 726.14 730.51 718.82 C 727.67 713.43 724.95 707.80 720.52 703.49 C 717.17 699.86 712.98 697.13 709.65 693.50 C 707.79 690.58 707.05 687.11 705.77 683.93 C 705.22 686.24 704.68 688.56 704.19 690.90 C 699.08 687.93 694.07 684.70 688.59 682.46 C 685.34 681.23 680.99 680.50 678.40 683.40 C 674.73 687.48 673.17 692.89 670.75 697.71 C 668.28 703.41 664.58 708.73 663.72 715.00 C 663.06 718.90 666.72 721.47 669.44 723.53 C 679.12 730.05 687.88 737.95 695.48 746.80 C 686.40 757.15 675.08 765.30 663.44 772.53 C 652.40 779.22 640.45 784.45 627.97 787.75 C 617.25 778.24 606.02 769.10 596.95 757.94 C 612.27 748.02 626.03 735.76 637.90 721.91 C 647.05 711.03 656.48 699.72 661.04 686.04 C 656.70 690.47 653.37 695.73 649.68 700.69 C 634.76 721.75 616.38 740.57 594.93 754.99 C 593.82 753.23 590.80 751.88 591.47 749.52 C 595.25 745.58 599.94 742.65 603.90 738.89 C 617.73 725.98 630.73 712.00 641.22 696.20 C 651.52 681.22 659.95 665.03 666.77 648.19 C 668.82 649.54 670.90 650.86 672.91 652.30 C 679.43 656.97 685.53 662.21 691.89 667.10 C 687.28 660.53 681.72 654.64 675.33 649.79 C 673.05 647.99 670.58 646.42 668.49 644.41 C 669.37 638.13 672.17 632.25 673.62 626.07 C 692.96 638.16 709.91 653.79 724.99 670.82 C 713.34 650.07 694.25 634.94 674.61 622.17 C 675.74 616.15 676.42 610.06 677.14 603.99 M 571.25 757.06 C 569.52 757.41 570.08 760.38 571.88 759.76 C 573.62 759.39 573.06 756.42 571.25 757.06 M 550.81 784.12 C 557.06 783.73 564.54 782.40 567.73 776.28 C 561.69 777.91 556.03 780.71 550.81 784.12 Z" />
<path fill="#fcfefe" stroke="#fcfefe" stroke-width="0.09375" opacity="1.00" d=" M 646.40 641.84 C 649.67 632.80 653.16 623.84 655.70 614.56 C 657.97 616.36 660.23 618.19 662.51 620.00 C 661.18 625.68 659.60 631.31 657.39 636.72 C 655.67 635.37 653.96 634.02 652.19 632.76 C 653.57 634.56 655.10 636.25 656.33 638.17 C 656.64 641.19 654.86 644.01 653.98 646.84 C 651.49 645.10 648.98 643.40 646.40 641.84 Z" />
<path fill="#fcfefe" stroke="#fcfefe" stroke-width="0.09375" opacity="1.00" d=" M 572.41 692.40 C 596.11 671.99 615.54 646.47 627.61 617.54 C 631.97 621.35 636.47 625.02 641.28 628.26 C 639.24 636.46 635.23 643.94 631.66 651.55 C 622.88 669.00 611.58 685.08 598.94 699.94 C 589.95 710.31 580.28 720.23 569.22 728.40 C 563.10 721.73 557.99 714.24 553.06 706.68 C 559.62 702.07 566.53 697.90 572.41 692.40 Z" />
<path fill="#fcfefe" stroke="#fcfefe" stroke-width="0.09375" opacity="1.00" d=" M 319.03 633.39 C 327.06 636.93 335.76 638.02 344.44 638.56 C 345.81 642.92 347.07 647.33 348.58 651.66 C 344.80 652.04 341.01 652.25 337.23 652.66 C 333.61 653.05 330.61 655.27 327.54 657.03 C 324.00 649.43 320.85 641.60 319.03 633.39 Z" />
<path fill="#fcfefe" stroke="#fcfefe" stroke-width="0.09375" opacity="1.00" d=" M 368.82 639.51 C 380.20 640.36 391.57 639.72 402.95 639.53 C 402.18 643.48 401.31 647.41 400.30 651.30 C 390.95 651.58 381.59 651.83 372.24 651.75 C 370.78 647.76 369.65 643.67 368.82 639.51 Z" />
<path fill="#fcfefe" stroke="#fcfefe" stroke-width="0.09375" opacity="1.00" d=" M 642.50 649.41 C 643.57 647.24 644.68 645.10 645.81 642.96 C 647.92 645.21 650.28 647.24 652.98 648.76 C 647.06 663.13 639.38 676.78 630.53 689.55 C 618.61 706.62 604.85 722.47 589.08 736.09 C 587.29 737.61 585.44 739.18 583.17 739.90 C 581.03 738.21 579.40 736.01 577.66 733.96 C 604.44 710.29 627.00 681.67 642.50 649.41 Z" />
<path fill="#fcfefe" stroke="#fcfefe" stroke-width="0.09375" opacity="1.00" d=" M 283.34 668.35 C 288.96 662.05 295.54 656.33 303.33 652.91 C 310.02 662.48 315.30 672.92 320.89 683.15 C 325.52 692.14 331.03 700.70 334.86 710.09 C 326.03 716.63 314.80 719.35 303.92 718.74 C 293.73 718.45 283.06 714.60 276.69 706.30 C 272.80 701.56 270.98 695.13 272.21 689.08 C 273.67 681.22 278.31 674.39 283.34 668.35 Z" />
<path fill="#fcfefe" stroke="#fcfefe" stroke-width="0.09375" opacity="1.00" d=" M 411.08 662.09 C 412.18 660.39 412.68 657.44 415.21 657.43 C 426.62 656.01 437.55 660.65 447.62 665.45 C 460.71 672.76 472.39 682.97 480.16 695.89 C 480.73 696.97 481.29 698.09 481.56 699.30 C 482.18 701.39 480.15 702.91 479.22 704.55 C 465.18 680.54 439.23 663.10 411.08 662.09 Z" />
<path fill="#fcfefe" stroke="#fcfefe" stroke-width="0.09375" opacity="1.00" d=" M 332.01 664.35 C 341.89 662.58 352.01 664.10 361.99 663.49 C 373.22 663.81 384.39 662.52 395.61 662.50 C 394.92 665.42 394.22 668.33 393.48 671.24 C 388.39 671.67 382.29 671.48 378.62 675.65 C 377.10 681.08 380.44 686.32 381.74 691.47 C 379.62 691.72 377.50 691.98 375.38 692.25 C 373.83 685.39 372.33 678.32 368.94 672.10 C 367.35 668.54 363.11 669.69 360.02 669.58 C 355.10 669.92 349.89 669.26 345.21 671.13 C 342.53 672.16 343.11 675.46 343.48 677.71 C 344.67 682.69 346.76 687.42 348.95 692.04 C 350.23 694.46 351.80 697.74 355.07 697.48 C 361.54 697.58 368.82 698.63 374.32 694.38 C 374.36 697.12 374.44 699.85 374.53 702.60 C 369.34 702.55 364.15 702.41 358.98 702.83 C 359.59 707.87 360.05 714.16 364.84 717.13 C 369.71 719.43 375.26 719.54 380.33 721.25 C 375.16 721.44 369.91 721.71 364.78 720.92 C 358.87 719.78 354.65 714.85 352.28 709.61 C 347.19 698.70 342.00 687.85 337.00 676.91 C 335.03 672.86 332.46 668.95 332.01 664.35 Z" />
<path fill="#fcfefe" stroke="#fcfefe" stroke-width="0.09375" opacity="1.00" d=" M 410.52 671.32 L 411.05 670.62 C 423.81 669.17 435.96 674.85 446.43 681.56 C 456.26 688.17 465.06 696.64 471.07 706.92 C 471.89 708.59 473.65 711.06 471.62 712.58 C 460.30 723.84 442.10 726.45 427.52 720.54 C 419.17 717.21 412.71 710.08 409.20 701.92 C 405.07 692.23 405.63 680.60 410.52 671.32 Z" />
<path fill="#fcfefe" stroke="#fcfefe" stroke-width="0.09375" opacity="1.00" d=" M 349.01 675.45 C 352.98 674.96 357.00 674.44 361.01 674.84 C 362.27 674.77 363.17 675.30 363.71 676.43 C 366.23 681.05 367.34 686.30 367.92 691.49 C 363.76 691.69 359.54 692.16 355.41 691.44 C 351.49 687.08 350.64 680.90 349.01 675.45 Z" />
<path fill="#fcfefe" stroke="#fcfefe" stroke-width="0.09375" opacity="1.00" d=" M 384.21 677.71 C 386.90 677.12 389.60 676.58 392.32 676.11 C 391.47 682.97 391.11 689.96 392.51 696.78 C 393.64 703.58 396.86 709.74 398.93 716.25 C 394.19 710.23 391.64 702.89 389.32 695.69 C 387.51 689.73 384.87 683.96 384.21 677.71 Z" />
<path fill="#fcfefe" stroke="#fcfefe" stroke-width="0.09375" opacity="1.00" d=" M 683.48 686.85 C 689.67 688.55 695.14 692.03 700.39 695.63 C 707.68 700.86 714.76 706.64 720.08 713.95 C 721.80 716.38 723.65 719.36 722.61 722.46 C 720.77 728.15 717.37 733.19 714.13 738.16 C 712.28 740.54 710.38 743.83 706.98 743.87 C 704.55 744.24 702.74 742.37 701.21 740.79 C 693.10 731.85 684.46 723.05 673.81 717.14 C 672.71 716.32 670.91 715.74 671.19 714.06 C 671.49 710.72 673.21 707.75 674.66 704.80 C 677.81 698.92 680.49 692.81 683.48 686.85 Z" />
<path fill="#fcfefe" stroke="#fcfefe" stroke-width="0.09375" opacity="1.00" d=" M 499.24 708.99 C 505.11 704.20 510.41 698.66 517.17 695.05 C 520.58 704.53 526.32 712.90 529.99 722.25 C 522.75 726.06 514.86 728.37 506.77 729.46 C 504.44 722.57 501.99 715.72 499.24 708.99 Z" />
<path fill="#fcfefe" stroke="#fcfefe" stroke-width="0.09375" opacity="1.00" d=" M 365.95 706.89 C 368.92 706.57 371.97 706.18 374.93 706.79 C 378.47 707.80 378.53 711.98 379.19 714.93 C 374.96 714.54 369.96 714.60 366.82 711.28 C 366.36 709.85 366.21 708.34 365.95 706.89 Z" />
<path fill="#fcfefe" stroke="#fcfefe" stroke-width="0.09375" opacity="1.00" d=" M 490.50 718.02 C 491.22 716.68 491.69 713.92 493.72 714.46 C 497.59 720.29 499.91 727.31 499.67 734.36 C 499.01 734.51 497.68 734.80 497.02 734.95 C 494.53 729.46 491.05 724.14 490.50 718.02 Z" />
<path fill="#fcfefe" stroke="#fcfefe" stroke-width="0.09375" opacity="1.00" d=" M 387.89 722.41 C 388.89 720.59 389.97 718.82 391.10 717.09 C 391.71 718.65 392.36 720.21 392.88 721.82 C 391.27 722.34 389.56 722.37 387.89 722.41 Z" />
<path fill="#fcfefe" stroke="#fcfefe" stroke-width="0.09375" opacity="1.00" d=" M 454.09 738.91 C 465.05 736.90 475.15 731.22 483.01 723.38 C 485.55 727.85 487.82 732.48 489.62 737.31 C 478.50 741.72 466.47 743.01 454.65 744.16 C 437.23 745.44 419.31 747.28 402.22 742.60 C 397.40 741.09 392.17 739.00 389.39 734.54 C 388.32 732.34 390.28 730.02 392.48 729.77 C 396.64 729.05 400.87 728.82 405.08 728.61 C 408.72 728.12 411.54 730.86 414.51 732.48 C 426.23 739.78 440.70 741.13 454.09 738.91 Z" />
<path fill="#fcfefe" stroke="#fcfefe" stroke-width="0.09375" opacity="1.00" d=" M 506.32 733.72 C 514.81 730.76 524.12 729.90 531.88 725.06 C 536.40 732.55 542.08 739.25 546.43 746.84 C 537.87 751.82 528.62 755.60 518.96 757.81 C 515.47 753.40 511.91 749.04 508.64 744.47 C 516.28 741.34 524.45 738.36 530.27 732.26 C 531.93 730.94 530.68 728.81 530.63 727.10 C 523.36 732.16 515.82 737.30 506.98 739.08 C 506.74 737.28 506.52 735.50 506.32 733.72 Z" />
<path fill="#fcfefe" stroke="#fcfefe" stroke-width="0.09375" opacity="1.00" d=" M 491.93 744.50 C 494.40 743.12 496.90 741.76 499.33 740.31 C 500.16 748.49 506.97 753.57 511.36 759.85 C 509.13 759.88 506.47 761.17 504.57 759.49 C 499.46 755.35 495.63 749.88 491.93 744.50 Z" />
<path fill="#fcfefe" stroke="#fcfefe" stroke-width="0.09375" opacity="1.00" d=" M 741.02 761.02 C 745.45 755.39 749.21 749.28 752.49 742.93 C 754.01 750.36 753.59 758.27 750.21 765.16 C 744.87 776.15 736.43 785.31 727.32 793.32 C 713.46 805.07 697.42 814.21 680.30 820.32 C 667.72 824.87 654.41 828.51 640.91 827.72 C 636.02 827.55 631.38 825.88 626.80 824.31 C 632.23 823.52 637.76 823.66 643.15 822.58 C 655.45 820.27 667.34 816.02 678.50 810.40 C 702.58 798.76 724.41 782.05 741.02 761.02 Z" />
<path fill="#fcfefe" stroke="#fcfefe" stroke-width="0.09375" opacity="1.00" d=" M 453.36 752.68 C 463.59 751.25 473.88 750.33 483.99 748.17 C 488.01 753.16 492.83 757.46 496.45 762.78 C 487.78 764.11 479.03 765.99 470.23 765.57 C 463.68 762.81 458.55 757.42 453.36 752.68 Z" />
<path fill="#fcfefe" stroke="#fcfefe" stroke-width="0.09375" opacity="1.00" d=" M 414.84 753.33 C 422.77 753.63 430.71 753.45 438.62 753.61 C 443.60 756.47 447.31 761.25 451.89 764.76 C 438.82 764.10 425.97 760.27 414.84 753.33 Z" />
<path fill="#fcfefe" stroke="#fcfefe" stroke-width="0.09375" opacity="1.00" d=" M 760.22 760.16 C 761.01 758.89 760.80 756.00 762.87 756.39 C 768.96 762.50 773.45 771.14 772.31 779.99 C 771.27 788.45 767.09 796.23 761.88 802.86 C 752.26 814.93 739.49 824.32 725.48 830.67 C 710.62 837.54 694.48 842.34 677.99 842.15 C 668.20 841.62 657.95 840.40 649.57 834.87 C 662.73 834.00 675.68 830.95 687.85 825.89 C 704.18 819.43 719.36 810.12 732.67 798.69 C 744.49 788.11 755.49 775.61 760.22 760.16 Z" />
<path fill="#fcfefe" stroke="#fcfefe" stroke-width="0.09375" opacity="1.00" d=" M 531.26 765.68 C 538.77 763.26 545.91 759.88 553.10 756.67 C 554.76 758.47 556.51 760.20 558.03 762.15 C 556.52 764.01 554.27 765.00 552.18 766.07 C 545.18 769.39 537.80 771.82 530.40 774.06 C 530.54 771.25 530.82 768.45 531.26 765.68 Z" />
<path fill="#fcfefe" stroke="#fcfefe" stroke-width="0.09375" opacity="1.00" d=" M 505.85 773.52 C 511.37 772.40 516.88 771.23 522.41 770.11 C 522.08 772.48 521.75 774.86 521.41 777.24 C 512.66 778.90 503.95 781.19 495.03 781.69 C 491.49 782.09 489.49 778.58 487.20 776.55 C 493.34 775.08 499.68 774.82 505.85 773.52 Z" />
<path fill="#fcfefe" stroke="#fcfefe" stroke-width="0.09375" opacity="1.00" d=" M 444.14 777.82 C 449.09 777.36 454.06 777.73 459.00 778.20 C 463.81 778.66 468.69 777.98 473.48 778.67 C 475.07 780.06 476.13 781.91 477.32 783.64 C 471.32 784.54 465.24 784.05 459.25 783.35 C 453.91 782.59 448.28 781.55 444.14 777.82 Z" />
<path fill="#fcfefe" stroke="#fcfefe" stroke-width="0.09375" opacity="1.00" d=" M 523.45 790.53 C 525.87 789.58 529.24 786.84 531.51 789.46 C 538.41 796.90 545.60 804.10 553.60 810.37 C 556.91 812.93 560.13 815.62 563.13 818.55 C 558.15 818.17 552.96 817.29 549.05 813.94 C 540.00 806.75 530.76 799.56 523.45 790.53 Z" />
<path fill="#fcfefe" stroke="#fcfefe" stroke-width="0.09375" opacity="1.00" d=" M 462.94 795.19 C 480.03 796.12 497.23 795.14 514.00 791.66 C 523.23 801.17 532.79 810.51 543.90 817.83 C 534.66 817.70 525.39 817.28 516.29 815.48 C 497.57 811.61 479.55 804.63 462.94 795.19 Z" />
<path fill="#fcfefe" stroke="#fcfefe" stroke-width="0.09375" opacity="1.00" d=" M 428.00 794.05 C 431.36 797.35 434.35 801.00 437.58 804.43 C 441.28 808.37 445.61 811.71 448.93 816.02 C 451.51 819.39 454.03 822.82 456.72 826.12 C 444.79 817.85 435.71 806.20 428.00 794.05 Z" />
<path fill="#fcfefe" stroke="#fcfefe" stroke-width="0.09375" opacity="1.00" d=" M 775.41 799.32 C 776.23 798.24 776.81 796.66 778.30 796.38 C 783.91 806.39 787.57 817.39 790.76 828.38 C 794.36 842.30 797.12 856.78 795.36 871.20 C 793.99 879.74 789.70 888.82 781.38 892.48 C 773.28 896.31 763.81 895.57 755.67 892.29 C 736.66 884.56 720.85 871.18 703.53 860.50 C 701.58 859.26 699.66 857.97 697.76 856.66 C 704.78 856.58 712.19 856.91 718.64 853.66 C 730.81 847.60 742.25 839.39 750.28 828.28 C 753.77 823.47 758.71 820.05 762.78 815.78 C 767.55 810.75 771.85 805.27 775.41 799.32 M 715.62 863.86 C 723.01 866.81 731.46 866.33 739.04 864.31 C 731.27 863.40 723.41 863.38 715.62 863.86 M 741.20 874.92 C 741.47 876.25 741.76 877.59 742.05 878.94 C 743.07 878.53 744.11 878.14 745.15 877.75 C 743.83 876.79 742.52 875.85 741.20 874.92 Z" />
<path fill="#fcfefe" stroke="#fcfefe" stroke-width="0.09375" opacity="1.00" d=" M 457.00 820.23 C 461.25 822.52 465.81 824.10 470.32 825.80 C 473.26 826.68 474.47 829.70 475.88 832.14 C 468.43 830.44 461.89 826.03 457.00 820.23 Z" />
<path fill="#fcfefe" stroke="#fcfefe" stroke-width="0.09375" opacity="1.00" d=" M 481.07 830.03 C 488.98 828.22 497.01 830.52 504.99 830.10 C 513.12 829.74 521.29 829.28 529.38 830.44 C 527.84 831.31 526.32 832.18 524.75 832.97 C 520.67 834.43 516.28 834.50 512.03 835.03 C 503.57 835.80 494.96 835.74 486.61 834.05 C 484.21 833.66 482.71 831.58 481.07 830.03 Z" />
<path fill="#fcfefe" stroke="#fcfefe" stroke-width="0.09375" opacity="1.00" d=" M 548.48 835.60 C 552.22 834.09 555.78 831.67 559.94 831.62 C 564.31 831.52 568.67 831.64 573.04 831.69 C 569.38 842.90 558.26 848.94 547.89 852.79 C 533.93 857.68 518.56 859.04 504.05 855.88 C 496.79 854.33 491.85 848.18 487.51 842.63 C 507.97 845.61 529.39 843.92 548.48 835.60 Z" />
<path fill="#fcfefe" stroke="#fcfefe" stroke-width="0.09375" opacity="1.00" d=" M 708.82 846.67 C 720.38 842.92 731.75 838.46 742.37 832.50 C 733.31 841.13 722.12 847.70 709.89 850.56 C 703.61 852.08 697.04 851.75 690.80 850.22 C 696.81 849.05 702.96 848.50 708.82 846.67 Z" />
<path fill="#fcfefe" stroke="#fcfefe" stroke-width="0.09375" opacity="1.00" d=" M 468.00 838.18 C 471.67 838.78 475.64 839.05 478.83 841.16 C 481.87 843.50 483.84 846.89 486.03 849.99 C 479.44 847.04 473.26 843.14 468.00 838.18 Z" />
<path fill="#fcfefe" stroke="#fcfefe" stroke-width="0.09375" opacity="1.00" d=" M 566.43 853.45 C 571.42 850.22 575.45 845.81 579.79 841.81 C 585.44 852.46 589.68 863.99 591.33 875.97 C 592.13 882.57 591.71 889.95 587.41 895.36 C 583.03 900.64 575.54 902.08 569.02 901.30 C 557.43 899.83 547.50 893.22 537.74 887.29 C 533.24 884.53 528.75 881.74 524.53 878.55 C 534.53 878.26 544.95 875.36 552.40 868.39 C 545.16 869.07 538.03 870.60 530.78 871.12 C 531.18 872.17 531.57 873.23 531.98 874.30 C 528.58 874.37 525.19 874.43 521.81 874.24 C 516.56 872.75 511.63 869.96 507.98 865.87 C 528.13 868.26 549.22 864.46 566.43 853.45 M 550.33 886.76 C 550.43 887.42 550.62 888.73 550.72 889.39 C 551.85 889.50 552.98 889.61 554.13 889.74 C 552.87 888.73 551.60 887.73 550.33 886.76 Z" />
</g>
<g id="#000000ff">
<path fill="#000000" stroke="#000000" stroke-width="0.09375" opacity="1.00" d=" M 428.04 95.43 C 449.39 93.45 470.94 94.48 492.15 97.50 C 512.75 100.11 532.92 105.52 552.44 112.54 C 587.71 125.15 620.14 145.86 645.96 173.04 C 674.88 203.29 695.60 241.44 704.44 282.39 C 714.07 286.32 719.41 296.04 722.29 305.52 C 726.20 317.34 726.26 329.96 725.49 342.26 C 724.18 356.62 720.05 371.36 710.48 382.48 C 707.66 385.85 703.74 387.91 700.15 390.31 C 698.61 391.30 698.45 393.32 697.94 394.92 C 695.55 405.51 691.38 415.57 686.83 425.39 C 722.96 417.17 762.04 428.27 790.39 451.61 C 813.72 470.55 830.05 497.36 838.09 526.17 C 848.98 563.46 845.47 604.42 829.86 639.86 C 823.89 652.82 816.17 665.02 806.80 675.80 C 795.62 688.67 781.36 699.00 765.15 704.51 C 766.42 711.30 767.99 718.08 768.23 725.02 C 768.30 729.24 767.56 733.41 767.24 737.61 C 775.78 744.66 783.06 753.62 786.65 764.21 C 788.55 769.69 787.15 775.85 789.81 781.11 C 799.41 800.39 806.22 821.07 810.07 842.26 C 812.66 857.75 813.46 874.63 805.80 888.90 C 800.28 900.03 789.39 908.12 777.22 910.43 C 764.04 913.34 750.40 909.36 738.84 903.03 C 722.36 894.00 707.24 882.80 691.58 872.49 C 684.76 868.00 677.96 863.47 671.34 858.70 C 668.99 856.91 665.92 856.88 663.13 856.49 C 656.74 855.79 650.53 853.88 644.70 851.21 C 637.09 847.82 630.67 842.23 622.82 839.33 C 613.20 835.63 603.26 832.47 592.99 831.27 C 596.09 838.66 599.91 845.76 602.41 853.40 C 605.23 862.70 608.12 872.21 607.81 882.05 C 607.94 893.13 602.83 904.24 594.00 911.02 C 587.46 915.94 579.15 918.22 571.01 917.86 C 556.82 918.18 544.18 910.62 532.46 903.50 C 515.28 892.31 498.67 880.20 482.88 867.12 C 476.58 861.96 469.41 858.03 463.09 852.92 C 450.01 842.44 437.24 831.26 427.38 817.61 C 416.59 802.96 408.00 786.77 400.72 770.13 C 398.33 766.00 394.00 763.58 390.61 760.37 C 382.57 753.05 373.83 746.53 366.01 738.97 C 363.29 736.31 359.42 735.58 356.15 733.87 C 349.39 730.57 344.50 724.64 339.79 718.98 C 332.76 722.81 325.50 726.52 317.50 727.76 C 306.99 729.41 295.84 729.15 285.90 725.01 C 275.84 720.94 267.45 712.52 263.94 702.20 C 261.55 695.19 262.59 687.56 264.81 680.65 C 267.49 672.58 272.27 665.28 278.27 659.28 C 283.40 653.82 289.76 649.80 295.69 645.32 C 290.01 634.98 284.96 624.25 281.34 613.00 C 280.46 610.10 279.32 607.02 276.44 605.55 C 260.45 595.60 245.60 583.95 231.48 571.51 C 219.84 561.17 207.76 551.27 196.87 540.12 C 193.50 536.85 191.38 532.10 186.84 530.22 C 178.63 526.59 171.63 520.87 164.64 515.35 C 151.44 504.49 140.32 490.34 135.46 473.77 C 130.65 456.69 134.53 436.93 146.94 423.95 C 154.67 415.48 165.62 410.31 176.94 408.95 C 184.79 407.83 192.69 409.00 200.39 410.53 C 197.67 401.19 194.82 391.85 193.34 382.22 C 192.75 377.49 188.38 374.68 186.63 370.47 C 182.94 362.16 182.43 352.93 181.77 343.99 C 181.27 330.88 181.50 317.65 183.95 304.74 C 185.26 298.52 187.19 292.18 191.12 287.09 C 193.63 283.66 198.91 282.49 199.60 277.82 C 208.18 239.56 228.31 204.48 254.77 175.77 C 275.73 152.67 301.30 133.77 329.58 120.60 C 360.45 106.17 394.08 97.85 428.04 95.43 M 393.62 114.86 C 371.34 119.69 349.29 126.42 329.02 136.99 C 312.46 145.33 297.06 155.88 283.26 168.26 C 255.47 192.61 233.54 223.54 219.83 257.85 C 214.69 271.13 210.23 284.72 207.40 298.69 C 203.52 316.58 202.81 334.99 203.61 353.23 C 205.13 374.49 210.30 395.39 217.73 415.32 C 230.66 446.88 251.14 475.91 278.82 496.17 C 305.13 515.22 337.34 523.98 369.10 528.46 C 388.58 531.38 408.34 532.13 428.02 531.74 C 456.20 531.62 484.29 527.70 511.63 520.94 C 531.22 515.92 550.73 509.58 568.25 499.30 C 597.02 483.27 619.37 457.24 633.99 428.00 C 642.03 412.31 648.07 395.50 650.84 378.06 C 654.55 356.13 653.74 333.61 650.12 311.73 C 642.66 273.05 624.42 236.86 599.62 206.42 C 588.84 193.85 576.88 182.07 562.78 173.25 C 549.90 164.09 535.63 157.11 521.07 151.06 C 469.29 130.84 410.81 127.58 357.34 143.13 C 355.97 143.35 354.26 144.11 353.24 142.73 C 353.11 141.50 353.84 140.44 355.01 140.06 C 357.58 138.82 360.36 138.06 363.10 137.27 C 405.37 126.02 450.59 125.90 492.90 137.08 C 520.44 143.82 546.52 156.03 569.69 172.33 C 598.15 193.54 620.29 222.48 635.78 254.26 C 645.67 275.09 653.46 297.17 656.39 320.13 C 659.25 340.85 659.36 362.09 654.93 382.61 C 651.75 402.00 643.90 420.28 634.47 437.40 C 629.73 447.20 622.75 455.62 616.35 464.34 C 600.59 484.34 579.84 500.40 556.46 510.50 C 536.72 519.41 515.66 524.90 494.51 529.26 C 448.30 537.98 400.42 539.44 354.08 530.79 C 341.66 528.92 329.54 525.53 317.65 521.54 C 305.41 518.06 294.18 511.93 282.92 506.14 C 292.08 513.06 302.07 518.92 312.80 523.03 C 330.59 530.46 349.54 534.63 368.51 537.68 C 384.87 540.29 401.46 540.98 418.00 541.19 C 430.14 540.55 442.33 540.97 454.44 539.68 C 479.86 537.39 504.96 532.12 529.30 524.48 C 543.15 519.92 556.86 514.71 569.70 507.76 C 585.33 499.08 599.88 488.16 611.34 474.35 C 621.97 461.32 632.04 447.70 639.67 432.66 C 645.29 422.81 648.98 412.04 653.88 401.84 C 655.46 398.29 656.08 394.29 658.56 391.18 C 658.32 393.81 657.71 396.39 657.03 398.94 C 660.84 398.11 664.92 396.82 668.74 398.31 C 672.56 399.66 674.88 404.05 674.05 407.99 C 672.72 415.57 668.45 422.16 664.94 428.87 C 652.99 450.62 636.43 469.57 617.56 485.58 C 614.66 487.95 611.78 490.37 609.10 492.99 C 631.09 477.73 650.40 458.42 664.82 435.81 C 674.01 422.00 680.66 406.56 685.02 390.57 C 678.67 390.42 672.27 390.98 665.98 389.99 C 661.66 389.51 658.91 385.15 659.08 381.04 C 659.14 373.76 661.84 366.83 662.38 359.59 C 663.31 347.75 662.74 335.83 661.43 324.04 C 660.66 316.72 659.96 309.35 660.38 301.99 C 660.67 296.56 662.90 290.70 667.88 287.93 C 674.38 284.29 681.87 283.17 689.01 281.41 C 687.26 271.37 683.43 261.84 679.79 252.36 C 660.74 204.57 623.24 165.39 578.60 140.47 C 564.02 132.40 548.18 127.16 532.49 121.74 C 487.83 107.51 439.48 105.59 393.62 114.86 M 697.14 295.31 C 692.07 304.78 693.69 315.79 693.52 326.08 C 694.42 320.13 694.88 314.09 696.42 308.25 C 697.55 303.85 699.52 299.74 701.12 295.51 C 699.78 295.44 698.46 295.37 697.14 295.31 M 702.72 300.76 C 697.15 311.26 697.71 323.50 696.84 335.00 C 696.50 347.77 696.16 360.70 698.75 373.28 C 704.33 368.50 706.95 361.45 708.78 354.55 C 706.54 354.43 704.31 354.31 702.08 354.15 C 702.22 353.03 702.36 351.91 702.51 350.80 C 704.94 350.50 707.37 350.14 709.80 349.71 C 711.42 337.82 711.77 325.63 709.49 313.81 C 708.60 308.88 706.52 304.12 702.72 300.76 M 153.82 441.91 C 148.49 451.00 148.46 462.40 151.84 472.17 C 156.93 486.78 168.21 498.68 181.73 505.92 C 191.21 481.42 203.45 457.60 207.95 431.50 C 198.41 426.83 187.59 424.13 176.96 425.99 C 167.34 427.36 158.50 433.38 153.82 441.91 M 710.86 438.37 C 715.08 439.83 719.29 441.41 723.18 443.65 C 717.20 442.47 711.31 440.74 705.23 440.14 C 697.93 439.15 690.53 440.09 683.37 441.57 C 680.74 442.20 677.77 442.74 675.97 444.97 C 673.72 447.53 671.75 450.32 669.73 453.06 C 678.39 453.67 687.36 455.29 694.64 460.34 C 706.78 468.12 714.35 480.94 720.35 493.69 C 725.32 504.36 730.58 514.91 734.97 525.85 C 736.07 528.54 737.61 531.19 740.22 532.68 C 743.25 539.75 747.72 546.06 750.93 553.03 C 759.22 570.07 766.52 587.61 772.03 605.75 C 772.76 604.58 773.45 603.38 774.09 602.16 C 775.17 605.72 775.36 609.46 775.19 613.17 C 774.06 617.41 773.98 621.85 774.88 626.15 C 776.12 632.33 775.71 638.66 774.99 644.87 C 773.41 650.02 771.87 655.32 768.74 659.78 C 765.24 665.03 760.08 668.81 755.03 672.44 C 756.36 678.23 758.23 683.87 760.08 689.51 C 767.68 687.36 774.97 684.04 781.34 679.34 C 793.88 670.17 803.45 657.58 811.36 644.35 C 813.10 641.24 815.07 638.09 815.51 634.48 C 818.77 629.28 820.77 623.42 822.58 617.59 C 826.42 604.08 828.97 590.10 828.72 576.00 C 829.30 556.01 826.19 535.83 818.80 517.21 C 806.28 484.68 780.20 456.99 747.20 444.96 C 735.53 440.96 723.32 437.61 710.86 438.37 M 207.08 462.11 C 201.85 475.82 196.43 489.47 191.32 503.23 C 190.35 506.19 189.00 509.25 189.45 512.44 C 191.05 513.91 192.93 515.02 194.73 516.22 C 201.14 493.50 210.32 471.69 219.52 449.99 C 217.91 446.87 216.32 443.74 214.62 440.67 C 211.51 447.60 209.80 455.03 207.08 462.11 M 224.00 456.92 C 221.41 463.00 218.76 469.05 216.36 475.21 C 211.25 488.73 205.64 502.16 202.49 516.32 C 202.00 518.44 201.90 520.84 203.50 522.56 C 208.82 529.42 214.43 536.27 221.79 541.06 C 222.00 541.84 222.24 542.61 222.52 543.37 C 222.87 534.99 219.86 526.20 223.90 518.26 C 224.84 521.52 225.58 524.83 226.22 528.17 C 226.52 537.27 228.36 547.92 236.22 553.64 C 236.61 546.18 236.23 538.70 236.45 531.23 C 237.65 541.23 236.53 553.07 244.14 560.86 C 249.48 566.23 255.50 570.88 261.61 575.34 C 251.53 550.65 253.49 522.97 259.75 497.57 C 245.68 486.08 234.62 471.52 224.00 456.92 M 650.23 472.71 C 655.97 473.49 661.74 472.82 667.49 472.42 C 667.40 472.87 667.22 473.76 667.13 474.21 C 664.68 475.72 662.32 477.48 659.57 478.38 C 655.16 479.63 650.49 479.04 646.06 480.07 C 643.15 480.72 640.86 482.75 638.70 484.69 C 634.83 488.26 630.88 491.73 627.17 495.46 C 631.74 496.23 636.40 496.91 641.06 496.49 C 644.73 496.15 647.57 493.53 650.41 491.43 C 657.11 486.05 664.74 481.86 671.00 475.93 C 674.89 474.37 677.89 471.30 681.12 468.73 C 673.84 467.27 666.38 467.18 658.99 467.36 C 655.27 467.29 652.70 470.38 650.23 472.71 M 680.71 476.69 C 670.59 485.26 658.94 491.88 649.18 500.86 C 654.06 508.33 657.86 516.41 661.44 524.57 C 667.63 537.48 673.39 550.60 679.94 563.34 C 693.97 556.84 707.55 549.23 719.96 539.97 C 721.02 539.01 722.39 538.17 722.87 536.74 C 722.81 534.15 721.61 531.78 720.61 529.46 C 715.05 517.39 709.74 505.19 703.70 493.35 C 699.78 486.06 695.98 477.68 688.10 473.89 C 685.30 472.21 682.86 475.28 680.71 476.69 M 623.99 506.69 C 625.32 512.37 626.87 518.09 626.69 523.98 C 626.74 527.88 625.90 531.80 626.44 535.69 C 627.68 538.79 630.39 540.97 632.46 543.52 C 637.73 549.33 641.56 556.26 644.68 563.42 C 653.56 563.85 662.45 564.57 671.33 563.81 C 668.52 556.19 664.45 549.13 661.31 541.66 C 657.02 532.63 652.98 523.49 648.44 514.59 C 646.64 511.57 644.84 507.60 640.93 507.05 C 635.33 506.15 629.63 506.58 623.99 506.69 M 568.01 522.02 C 549.65 529.54 530.20 533.69 511.06 538.67 C 534.16 534.21 557.71 530.57 579.52 521.37 C 585.58 518.58 591.81 515.52 596.29 510.42 C 586.65 513.77 577.57 518.47 568.01 522.02 M 271.47 515.09 C 271.62 520.69 270.87 526.90 274.23 531.78 C 277.36 536.00 281.84 538.96 286.20 541.77 C 299.18 549.32 312.97 555.70 327.60 559.29 C 378.14 573.34 431.34 570.80 482.93 565.12 C 510.62 561.96 538.46 558.80 565.47 551.71 C 577.77 548.33 590.00 544.33 601.27 538.29 C 605.18 536.10 609.26 533.68 611.72 529.81 C 613.99 525.97 612.88 521.38 612.61 517.20 C 608.66 522.18 603.58 526.17 597.90 528.99 C 579.25 539.14 558.18 543.65 537.33 546.59 C 515.34 550.10 493.14 552.09 470.94 553.56 C 437.94 555.81 404.67 556.73 371.75 552.95 C 351.81 549.76 331.56 546.79 312.78 539.05 C 297.96 533.17 283.40 525.81 271.47 515.09 M 260.36 526.97 C 260.33 535.51 260.32 544.08 261.77 552.52 C 263.44 562.07 265.39 571.93 270.79 580.17 C 269.39 574.48 267.45 568.91 266.67 563.07 C 265.23 555.10 265.46 546.99 264.98 538.94 C 264.93 534.49 262.26 530.80 260.36 526.97 M 710.89 554.16 C 716.86 551.55 722.05 547.32 726.13 542.26 C 720.53 545.47 714.91 549.01 710.89 554.16 M 714.35 559.61 C 723.48 578.34 732.36 597.28 738.76 617.14 C 740.50 622.75 743.01 628.20 743.78 634.07 C 744.30 637.40 742.62 640.50 742.44 643.78 C 744.04 648.56 746.71 652.92 748.34 657.71 C 753.00 654.21 757.51 650.16 759.83 644.68 C 763.49 637.11 762.29 628.44 760.76 620.49 C 757.61 605.56 751.51 591.48 745.62 577.47 C 741.05 567.07 736.85 556.41 730.66 546.82 C 725.16 551.01 719.87 555.46 714.35 559.61 M 274.59 548.32 C 273.53 559.66 274.80 571.30 278.45 582.10 C 277.99 572.70 276.72 563.36 276.51 553.95 C 276.56 551.89 275.51 550.08 274.59 548.32 M 604.18 550.86 C 604.02 556.35 605.22 561.74 605.75 567.18 C 603.52 562.55 601.36 557.90 599.36 553.17 C 596.97 554.49 593.04 554.48 592.12 557.40 C 590.26 557.77 588.40 558.13 586.55 558.50 C 576.41 562.10 566.03 564.95 555.53 567.28 C 548.98 568.66 542.29 569.29 535.75 570.76 C 541.89 575.39 548.49 579.56 553.51 585.48 C 560.75 593.17 565.62 602.70 568.78 612.71 C 568.54 617.50 569.96 622.23 570.17 627.02 C 568.97 631.68 567.75 636.35 566.08 640.89 C 578.89 630.35 589.93 617.53 598.15 603.11 C 601.76 596.82 603.61 589.73 607.00 583.34 C 607.49 590.78 606.07 598.20 603.98 605.31 C 599.54 620.36 591.06 633.99 580.50 645.51 C 569.37 658.19 555.78 668.40 542.06 678.10 C 540.24 679.17 539.31 680.94 539.76 683.07 C 543.06 682.43 545.79 680.33 548.58 678.59 C 553.49 675.33 558.61 672.40 563.96 669.94 C 558.67 677.84 550.25 682.60 542.27 687.32 C 544.28 692.88 547.35 697.98 550.73 702.82 C 565.09 695.20 576.88 683.69 587.91 671.92 C 599.82 658.69 610.31 644.04 618.06 627.97 C 620.10 623.75 622.52 619.63 623.60 615.04 C 620.79 610.22 616.01 606.95 612.31 602.85 C 616.76 605.25 620.97 608.06 625.21 610.82 C 627.33 605.19 628.96 599.37 629.90 593.42 C 623.59 587.85 616.60 583.15 610.09 577.84 C 618.15 579.77 624.12 585.82 631.00 590.04 C 631.55 584.40 632.11 578.72 631.67 573.07 C 631.67 571.00 629.73 569.86 628.37 568.65 C 622.12 563.93 615.92 559.13 610.17 553.80 C 608.56 552.14 606.36 551.41 604.18 550.86 M 282.31 556.60 C 281.98 569.90 285.01 583.29 290.51 595.40 C 296.62 609.85 301.33 624.89 307.83 639.18 C 308.14 631.04 305.66 623.18 303.46 615.46 C 297.98 598.26 290.61 581.61 287.36 563.77 C 287.11 560.53 285.16 558.01 282.31 556.60 M 681.48 569.90 C 688.51 568.56 694.63 564.37 700.12 559.95 C 693.58 562.45 686.51 564.84 681.48 569.90 M 685.09 574.85 C 687.81 581.10 690.92 587.18 693.61 593.46 C 695.10 597.45 699.24 599.18 702.38 601.64 C 715.13 611.35 725.98 623.29 735.84 635.88 C 734.55 626.31 731.16 617.22 727.83 608.22 C 722.07 592.97 715.76 577.84 707.15 563.96 C 699.47 566.87 692.69 571.71 685.09 574.85 M 301.40 564.41 C 301.88 567.00 301.07 570.73 303.99 572.09 C 315.46 578.24 327.88 582.33 340.17 586.51 C 340.58 583.32 341.09 580.14 341.53 576.96 C 327.67 574.49 314.50 569.40 301.40 564.41 M 522.93 573.23 C 527.70 578.09 533.37 581.99 537.87 587.13 C 545.58 595.68 551.48 606.23 553.19 617.72 C 554.69 629.63 553.22 641.98 548.28 652.96 C 559.99 644.02 563.43 627.80 561.10 613.86 C 558.32 597.24 546.98 582.59 532.28 574.62 C 529.46 572.90 526.07 573.25 522.93 573.23 M 303.23 575.04 C 305.15 586.23 308.93 596.99 312.26 607.82 C 314.58 614.89 316.21 622.17 318.46 629.27 C 326.79 631.10 335.12 633.07 343.67 633.54 C 343.05 628.32 342.08 623.16 341.41 617.95 C 340.03 608.50 340.13 598.92 340.25 589.40 C 327.29 586.36 315.21 580.69 303.23 575.04 M 463.06 580.21 C 458.66 580.80 454.14 580.83 449.82 581.94 C 446.20 583.75 443.89 587.29 441.21 590.20 C 441.83 590.79 442.45 591.40 443.08 592.01 C 436.50 597.73 432.08 605.37 428.18 613.06 C 433.74 608.91 440.36 606.13 447.37 606.09 C 441.26 610.01 434.32 612.91 429.28 618.30 C 425.06 623.03 422.25 628.81 419.93 634.66 C 421.22 634.00 422.50 633.32 423.84 632.75 C 426.21 632.52 428.59 632.30 430.97 632.06 C 428.68 633.38 426.40 634.72 424.17 636.14 C 418.36 638.56 416.42 644.98 414.95 650.53 C 430.07 651.03 444.51 656.87 457.15 664.89 C 469.89 672.87 480.59 683.89 488.12 696.90 C 490.62 693.97 494.27 691.28 494.14 687.02 C 493.97 670.09 484.58 654.84 473.35 642.81 C 476.78 645.99 479.90 649.48 483.09 652.91 C 491.83 662.32 498.28 674.14 499.64 687.06 C 502.61 684.40 507.03 682.27 507.60 677.90 C 509.19 661.47 503.15 645.32 494.26 631.76 C 503.21 639.33 509.99 649.57 512.67 661.05 C 513.84 666.36 513.65 671.86 514.68 677.20 C 516.49 675.17 518.58 673.12 519.14 670.34 C 520.90 658.97 519.53 646.85 513.56 636.85 C 513.90 636.53 514.59 635.90 514.93 635.58 C 516.03 636.67 517.14 637.77 518.26 638.86 C 520.31 643.36 522.13 647.97 523.44 652.75 C 524.92 658.03 524.75 663.56 525.18 668.99 C 529.81 665.80 534.80 662.57 537.49 657.44 C 544.86 643.46 547.97 626.63 543.60 611.22 C 539.50 596.69 528.82 584.62 515.78 577.34 C 513.16 575.92 510.13 575.51 507.21 575.91 C 492.50 577.33 477.72 578.32 463.06 580.21 M 637.64 576.08 C 637.18 582.10 636.35 588.08 635.57 594.06 C 639.49 597.67 643.44 601.27 647.49 604.74 C 648.69 598.09 649.25 591.20 648.32 584.50 C 645.52 580.86 641.17 578.90 637.64 576.08 M 676.04 577.80 C 677.10 581.69 679.10 585.26 681.91 588.15 C 680.82 584.27 678.96 580.61 676.04 577.80 M 348.43 579.23 C 344.48 603.46 347.86 628.54 355.44 651.74 C 358.13 651.95 360.82 652.15 363.52 652.26 C 359.06 632.21 354.96 611.68 356.88 591.03 C 357.31 587.50 357.61 583.95 357.78 580.41 C 354.67 579.96 351.55 579.55 348.43 579.23 M 365.03 590.70 C 383.43 593.90 402.15 595.16 420.82 594.69 C 423.31 591.01 425.82 587.34 428.26 583.62 C 416.50 583.39 404.76 585.14 393.01 583.88 C 383.86 583.81 374.79 582.60 365.66 582.20 C 365.37 585.02 365.16 587.86 365.03 590.70 M 658.43 590.81 C 657.77 598.06 656.77 605.33 656.50 612.58 C 658.33 614.52 660.72 615.78 662.99 617.14 C 664.51 610.56 665.13 603.70 664.31 596.98 C 663.72 593.93 660.62 592.56 658.43 590.81 M 364.53 594.32 C 363.99 602.91 364.26 611.54 365.52 620.06 C 366.33 625.05 366.38 630.23 368.12 635.03 C 375.36 636.05 382.71 635.49 390.00 635.66 C 394.65 635.44 399.45 636.13 404.00 634.92 C 406.22 631.07 406.95 626.60 408.51 622.47 C 411.50 614.24 415.00 606.18 418.96 598.36 C 400.75 598.78 382.45 597.71 364.53 594.32 M 634.48 597.89 C 632.92 602.94 630.70 607.80 629.59 612.98 C 632.87 617.87 637.90 621.25 642.24 625.15 C 643.64 620.77 645.18 616.42 646.12 611.91 C 646.36 610.43 646.92 608.70 645.58 607.56 C 642.37 603.83 638.39 600.84 634.48 597.89 M 677.14 603.99 C 676.42 610.06 675.74 616.15 674.61 622.17 C 694.25 634.94 713.34 650.07 724.99 670.82 C 709.91 653.79 692.96 638.16 673.62 626.07 C 672.17 632.25 669.37 638.13 668.49 644.41 C 670.58 646.42 673.05 647.99 675.33 649.79 C 675.81 650.83 676.29 651.88 676.78 652.94 C 675.48 652.71 674.19 652.50 672.91 652.30 C 670.90 650.86 668.82 649.54 666.77 648.19 C 659.95 665.03 651.52 681.22 641.22 696.20 C 630.73 712.00 617.73 725.98 603.90 738.89 C 599.94 742.65 595.25 745.58 591.47 749.52 C 590.80 751.88 593.82 753.23 594.93 754.99 C 616.38 740.57 634.76 721.75 649.68 700.69 C 653.37 695.73 656.70 690.47 661.04 686.04 C 656.48 699.72 647.05 711.03 637.90 721.91 C 626.03 735.76 612.27 748.02 596.95 757.94 C 606.02 769.10 617.25 778.24 627.97 787.75 C 640.45 784.45 652.40 779.22 663.44 772.53 C 675.08 765.30 686.40 757.15 695.48 746.80 C 687.88 737.95 679.12 730.05 669.44 723.53 C 666.72 721.47 663.06 718.90 663.72 715.00 C 664.58 708.73 668.28 703.41 670.75 697.71 C 673.17 692.89 674.73 687.48 678.40 683.40 C 680.99 680.50 685.34 681.23 688.59 682.46 C 694.07 684.70 699.08 687.93 704.19 690.90 C 704.68 688.56 705.22 686.24 705.77 683.93 C 707.05 687.11 707.79 690.58 709.65 693.50 C 712.98 697.13 717.17 699.86 720.52 703.49 C 724.95 707.80 727.67 713.43 730.51 718.82 C 730.20 720.77 729.51 722.72 729.67 724.72 C 724.45 732.96 720.88 742.81 712.83 748.83 C 708.52 752.05 702.91 751.42 698.16 749.66 C 690.65 758.39 681.68 765.72 672.21 772.22 C 659.78 780.87 645.96 787.60 631.33 791.59 C 634.12 794.69 637.45 797.77 638.36 802.01 C 638.82 806.14 635.17 808.65 631.99 810.35 C 631.81 808.74 631.78 807.12 631.38 805.57 C 630.09 803.58 628.16 802.13 626.40 800.61 C 619.24 794.80 612.44 788.56 605.56 782.44 C 595.56 773.12 585.27 764.02 576.62 753.39 C 563.30 738.80 550.73 723.41 540.42 706.53 C 536.52 700.28 533.58 693.51 530.22 686.98 C 528.53 688.71 526.83 690.42 525.10 692.12 C 526.71 696.59 528.54 700.99 530.72 705.22 C 538.83 720.39 547.84 735.28 559.64 747.90 C 560.73 746.95 561.82 746.01 562.92 745.08 C 562.47 747.03 560.38 749.26 561.84 751.19 C 565.66 756.90 570.79 761.56 575.12 766.89 C 585.33 778.98 596.95 789.78 609.07 799.93 C 612.51 802.67 615.86 805.53 618.91 808.72 C 613.85 810.07 608.88 807.75 604.49 805.46 C 592.25 798.54 582.33 788.38 572.51 778.49 C 570.32 776.31 568.32 773.89 565.75 772.15 C 563.96 772.30 562.37 773.18 560.78 773.94 C 553.61 777.62 546.06 780.47 538.64 783.61 C 541.38 788.00 545.06 791.68 548.85 795.17 C 556.06 802.06 563.94 808.24 572.15 813.89 C 575.02 816.02 578.74 815.62 582.11 815.82 C 580.41 814.60 578.70 813.42 577.00 812.24 C 594.32 813.43 611.66 815.46 629.06 814.52 C 644.40 813.24 659.14 808.24 673.18 802.15 C 687.74 795.54 701.53 787.10 713.75 776.76 C 724.68 767.67 734.74 757.31 742.27 745.18 C 747.39 736.42 752.22 726.57 750.53 716.10 C 748.11 700.64 742.57 685.85 736.48 671.50 C 725.11 643.10 703.19 619.65 677.14 603.99 M 646.40 641.84 C 648.98 643.40 651.49 645.10 653.98 646.84 C 654.86 644.01 656.64 641.19 656.33 638.17 C 655.10 636.25 653.57 634.56 652.19 632.76 C 653.96 634.02 655.67 635.37 657.39 636.72 C 659.60 631.31 661.18 625.68 662.51 620.00 C 660.23 618.19 657.97 616.36 655.70 614.56 C 653.16 623.84 649.67 632.80 646.40 641.84 M 572.41 692.40 C 566.53 697.90 559.62 702.07 553.06 706.68 C 557.99 714.24 563.10 721.73 569.22 728.40 C 580.28 720.23 589.95 710.31 598.94 699.94 C 611.58 685.08 622.88 669.00 631.66 651.55 C 635.23 643.94 639.24 636.46 641.28 628.26 C 636.47 625.02 631.97 621.35 627.61 617.54 C 615.54 646.47 596.11 671.99 572.41 692.40 M 319.03 633.39 C 320.85 641.60 324.00 649.43 327.54 657.03 C 330.61 655.27 333.61 653.05 337.23 652.66 C 341.01 652.25 344.80 652.04 348.58 651.66 C 347.07 647.33 345.81 642.92 344.44 638.56 C 335.76 638.02 327.06 636.93 319.03 633.39 M 368.82 639.51 C 369.65 643.67 370.78 647.76 372.24 651.75 C 381.59 651.83 390.95 651.58 400.30 651.30 C 401.31 647.41 402.18 643.48 402.95 639.53 C 391.57 639.72 380.20 640.36 368.82 639.51 M 642.50 649.41 C 627.00 681.67 604.44 710.29 577.66 733.96 C 579.40 736.01 581.03 738.21 583.17 739.90 C 585.44 739.18 587.29 737.61 589.08 736.09 C 604.85 722.47 618.61 706.62 630.53 689.55 C 639.38 676.78 647.06 663.13 652.98 648.76 C 650.28 647.24 647.92 645.21 645.81 642.96 C 644.68 645.10 643.57 647.24 642.50 649.41 M 283.34 668.35 C 278.31 674.39 273.67 681.22 272.21 689.08 C 270.98 695.13 272.80 701.56 276.69 706.30 C 283.06 714.60 293.73 718.45 303.92 718.74 C 314.80 719.35 326.03 716.63 334.86 710.09 C 331.03 700.70 325.52 692.14 320.89 683.15 C 315.30 672.92 310.02 662.48 303.33 652.91 C 295.54 656.33 288.96 662.05 283.34 668.35 M 411.08 662.09 C 439.23 663.10 465.18 680.54 479.22 704.55 C 480.15 702.91 482.18 701.39 481.56 699.30 C 481.29 698.09 480.73 696.97 480.16 695.89 C 472.39 682.97 460.71 672.76 447.62 665.45 C 437.55 660.65 426.62 656.01 415.21 657.43 C 412.68 657.44 412.18 660.39 411.08 662.09 M 332.01 664.35 C 332.46 668.95 335.03 672.86 337.00 676.91 C 342.00 687.85 347.19 698.70 352.28 709.61 C 354.65 714.85 358.87 719.78 364.78 720.92 C 369.91 721.71 375.16 721.44 380.33 721.25 C 375.26 719.54 369.71 719.43 364.84 717.13 C 360.05 714.16 359.59 707.87 358.98 702.83 C 364.15 702.41 369.34 702.55 374.53 702.60 C 374.44 699.85 374.36 697.12 374.32 694.38 C 368.82 698.63 361.54 697.58 355.07 697.48 C 351.80 697.74 350.23 694.46 348.95 692.04 C 346.76 687.42 344.67 682.69 343.48 677.71 C 343.11 675.46 342.53 672.16 345.21 671.13 C 349.89 669.26 355.10 669.92 360.02 669.58 C 363.11 669.69 367.35 668.54 368.94 672.10 C 372.33 678.32 373.83 685.39 375.38 692.25 C 377.50 691.98 379.62 691.72 381.74 691.47 C 380.44 686.32 377.10 681.08 378.62 675.65 C 382.29 671.48 388.39 671.67 393.48 671.24 C 394.22 668.33 394.92 665.42 395.61 662.50 C 384.39 662.52 373.22 663.81 361.99 663.49 C 352.01 664.10 341.89 662.58 332.01 664.35 M 410.52 671.32 C 405.63 680.60 405.07 692.23 409.20 701.92 C 412.71 710.08 419.17 717.21 427.52 720.54 C 442.10 726.45 460.30 723.84 471.62 712.58 C 473.65 711.06 471.89 708.59 471.07 706.92 C 465.06 696.64 456.26 688.17 446.43 681.56 C 435.96 674.85 423.81 669.17 411.05 670.62 L 410.52 671.32 M 349.01 675.45 C 350.64 680.90 351.49 687.08 355.41 691.44 C 359.54 692.16 363.76 691.69 367.92 691.49 C 367.34 686.30 366.23 681.05 363.71 676.43 C 363.17 675.30 362.27 674.77 361.01 674.84 C 357.00 674.44 352.98 674.96 349.01 675.45 M 384.21 677.71 C 384.87 683.96 387.51 689.73 389.32 695.69 C 391.64 702.89 394.19 710.23 398.93 716.25 C 396.86 709.74 393.64 703.58 392.51 696.78 C 391.11 689.96 391.47 682.97 392.32 676.11 C 389.60 676.58 386.90 677.12 384.21 677.71 M 683.48 686.85 C 680.49 692.81 677.81 698.92 674.66 704.80 C 673.21 707.75 671.49 710.72 671.19 714.06 C 670.91 715.74 672.71 716.32 673.81 717.14 C 684.46 723.05 693.10 731.85 701.21 740.79 C 702.74 742.37 704.55 744.24 706.98 743.87 C 710.38 743.83 712.28 740.54 714.13 738.16 C 717.37 733.19 720.77 728.15 722.61 722.46 C 723.65 719.36 721.80 716.38 720.08 713.95 C 714.76 706.64 707.68 700.86 700.39 695.63 C 695.14 692.03 689.67 688.55 683.48 686.85 M 499.24 708.99 C 501.99 715.72 504.44 722.57 506.77 729.46 C 514.86 728.37 522.75 726.06 529.99 722.25 C 526.32 712.90 520.58 704.53 517.17 695.05 C 510.41 698.66 505.11 704.20 499.24 708.99 M 365.95 706.89 C 366.21 708.34 366.36 709.85 366.82 711.28 C 369.96 714.60 374.96 714.54 379.19 714.93 C 378.53 711.98 378.47 707.80 374.93 706.79 C 371.97 706.18 368.92 706.57 365.95 706.89 M 490.50 718.02 C 491.05 724.14 494.53 729.46 497.02 734.95 C 497.68 734.80 499.01 734.51 499.67 734.36 C 499.91 727.31 497.59 720.29 493.72 714.46 C 491.69 713.92 491.22 716.68 490.50 718.02 M 387.89 722.41 C 389.56 722.37 391.27 722.34 392.88 721.82 C 392.36 720.21 391.71 718.65 391.10 717.09 C 389.97 718.82 388.89 720.59 387.89 722.41 M 454.09 738.91 C 440.70 741.13 426.23 739.78 414.51 732.48 C 411.54 730.86 408.72 728.12 405.08 728.61 C 400.87 728.82 396.64 729.05 392.48 729.77 C 390.28 730.02 388.32 732.34 389.39 734.54 C 392.17 739.00 397.40 741.09 402.22 742.60 C 419.31 747.28 437.23 745.44 454.65 744.16 C 466.47 743.01 478.50 741.72 489.62 737.31 C 487.82 732.48 485.55 727.85 483.01 723.38 C 475.15 731.22 465.05 736.90 454.09 738.91 M 506.32 733.72 C 506.52 735.50 506.74 737.28 506.98 739.08 C 515.82 737.30 523.36 732.16 530.63 727.10 C 530.68 728.81 531.93 730.94 530.27 732.26 C 524.45 738.36 516.28 741.34 508.64 744.47 C 511.91 749.04 515.47 753.40 518.96 757.81 C 528.62 755.60 537.87 751.82 546.43 746.84 C 542.08 739.25 536.40 732.55 531.88 725.06 C 524.12 729.90 514.81 730.76 506.32 733.72 M 491.93 744.50 C 495.63 749.88 499.46 755.35 504.57 759.49 C 506.47 761.17 509.13 759.88 511.36 759.85 C 506.97 753.57 500.16 748.49 499.33 740.31 C 496.90 741.76 494.40 743.12 491.93 744.50 M 741.02 761.02 C 724.41 782.05 702.58 798.76 678.50 810.40 C 667.34 816.02 655.45 820.27 643.15 822.58 C 637.76 823.66 632.23 823.52 626.80 824.31 C 631.38 825.88 636.02 827.55 640.91 827.72 C 654.41 828.51 667.72 824.87 680.30 820.32 C 697.42 814.21 713.46 805.07 727.32 793.32 C 736.43 785.31 744.87 776.15 750.21 765.16 C 753.59 758.27 754.01 750.36 752.49 742.93 C 749.21 749.28 745.45 755.39 741.02 761.02 M 453.36 752.68 C 458.55 757.42 463.68 762.81 470.23 765.57 C 479.03 765.99 487.78 764.11 496.45 762.78 C 492.83 757.46 488.01 753.16 483.99 748.17 C 473.88 750.33 463.59 751.25 453.36 752.68 M 414.84 753.33 C 425.97 760.27 438.82 764.10 451.89 764.76 C 447.31 761.25 443.60 756.47 438.62 753.61 C 430.71 753.45 422.77 753.63 414.84 753.33 M 760.22 760.16 C 755.49 775.61 744.49 788.11 732.67 798.69 C 719.36 810.12 704.18 819.43 687.85 825.89 C 675.68 830.95 662.73 834.00 649.57 834.87 C 657.95 840.40 668.20 841.62 677.99 842.15 C 694.48 842.34 710.62 837.54 725.48 830.67 C 739.49 824.32 752.26 814.93 761.88 802.86 C 767.09 796.23 771.27 788.45 772.31 779.99 C 773.45 771.14 768.96 762.50 762.87 756.39 C 760.80 756.00 761.01 758.89 760.22 760.16 M 531.26 765.68 C 530.82 768.45 530.54 771.25 530.40 774.06 C 537.80 771.82 545.18 769.39 552.18 766.07 C 554.27 765.00 556.52 764.01 558.03 762.15 C 556.51 760.20 554.76 758.47 553.10 756.67 C 545.91 759.88 538.77 763.26 531.26 765.68 M 505.85 773.52 C 499.68 774.82 493.34 775.08 487.20 776.55 C 489.49 778.58 491.49 782.09 495.03 781.69 C 503.95 781.19 512.66 778.90 521.41 777.24 C 521.75 774.86 522.08 772.48 522.41 770.11 C 516.88 771.23 511.37 772.40 505.85 773.52 M 444.14 777.82 C 448.28 781.55 453.91 782.59 459.25 783.35 C 465.24 784.05 471.32 784.54 477.32 783.64 C 476.13 781.91 475.07 780.06 473.48 778.67 C 468.69 777.98 463.81 778.66 459.00 778.20 C 454.06 777.73 449.09 777.36 444.14 777.82 M 523.45 790.53 C 530.76 799.56 540.00 806.75 549.05 813.94 C 552.96 817.29 558.15 818.17 563.13 818.55 C 560.13 815.62 556.91 812.93 553.60 810.37 C 545.60 804.10 538.41 796.90 531.51 789.46 C 529.24 786.84 525.87 789.58 523.45 790.53 M 462.94 795.19 C 479.55 804.63 497.57 811.61 516.29 815.48 C 525.39 817.28 534.66 817.70 543.90 817.83 C 532.79 810.51 523.23 801.17 514.00 791.66 C 497.23 795.14 480.03 796.12 462.94 795.19 M 428.00 794.05 C 435.71 806.20 444.79 817.85 456.72 826.12 C 454.03 822.82 451.51 819.39 448.93 816.02 C 445.61 811.71 441.28 808.37 437.58 804.43 C 434.35 801.00 431.36 797.35 428.00 794.05 M 775.41 799.32 C 771.85 805.27 767.55 810.75 762.78 815.78 C 758.71 820.05 753.77 823.47 750.28 828.28 C 742.25 839.39 730.81 847.60 718.64 853.66 C 712.19 856.91 704.78 856.58 697.76 856.66 C 699.66 857.97 701.58 859.26 703.53 860.50 C 720.85 871.18 736.66 884.56 755.67 892.29 C 763.81 895.57 773.28 896.31 781.38 892.48 C 789.70 888.82 793.99 879.74 795.36 871.20 C 797.12 856.78 794.36 842.30 790.76 828.38 C 787.57 817.39 783.91 806.39 778.30 796.38 C 776.81 796.66 776.23 798.24 775.41 799.32 M 457.00 820.23 C 461.89 826.03 468.43 830.44 475.88 832.14 C 474.47 829.70 473.26 826.68 470.32 825.80 C 465.81 824.10 461.25 822.52 457.00 820.23 M 479.92 827.47 C 480.29 828.31 480.68 829.17 481.07 830.03 C 482.71 831.58 484.21 833.66 486.61 834.05 C 494.96 835.74 503.57 835.80 512.03 835.03 C 516.28 834.50 520.67 834.43 524.75 832.97 C 528.81 832.75 532.76 831.65 536.38 829.81 C 522.94 828.59 509.42 829.83 495.96 829.13 C 490.59 828.78 485.26 828.03 479.92 827.47 M 548.48 835.60 C 529.39 843.92 507.97 845.61 487.51 842.63 C 491.85 848.18 496.79 854.33 504.05 855.88 C 518.56 859.04 533.93 857.68 547.89 852.79 C 558.26 848.94 569.38 842.90 573.04 831.69 C 568.67 831.64 564.31 831.52 559.94 831.62 C 555.78 831.67 552.22 834.09 548.48 835.60 M 708.82 846.67 C 702.96 848.50 696.81 849.05 690.80 850.22 C 697.04 851.75 703.61 852.08 709.89 850.56 C 722.12 847.70 733.31 841.13 742.37 832.50 C 731.75 838.46 720.38 842.92 708.82 846.67 M 468.00 838.18 C 473.26 843.14 479.44 847.04 486.03 849.99 C 483.84 846.89 481.87 843.50 478.83 841.16 C 475.64 839.05 471.67 838.78 468.00 838.18 M 566.43 853.45 C 549.22 864.46 528.13 868.26 507.98 865.87 C 511.63 869.96 516.56 872.75 521.81 874.24 C 527.52 876.51 533.35 874.04 539.17 873.89 C 534.44 877.99 527.91 876.44 522.48 878.57 C 522.99 878.56 524.02 878.55 524.53 878.55 C 528.75 881.74 533.24 884.53 537.74 887.29 C 547.50 893.22 557.43 899.83 569.02 901.30 C 575.54 902.08 583.03 900.64 587.41 895.36 C 591.71 889.95 592.13 882.57 591.33 875.97 C 589.68 863.99 585.44 852.46 579.79 841.81 C 575.45 845.81 571.42 850.22 566.43 853.45 Z" />
<path fill="#000000" stroke="#000000" stroke-width="0.09375" opacity="1.00" d=" M 546.50 131.83 C 552.41 130.23 558.07 133.28 563.30 135.65 C 588.77 147.09 611.56 164.05 630.66 184.35 C 635.16 189.39 640.80 194.20 642.38 201.05 C 643.60 209.12 635.40 215.26 628.01 215.53 C 621.69 216.34 616.46 211.83 612.55 207.45 C 595.04 185.95 574.50 166.31 549.80 153.31 C 545.41 150.90 539.67 149.06 537.84 143.91 C 536.30 138.25 541.38 133.16 546.50 131.83 Z" />
<path fill="#000000" stroke="#000000" stroke-width="0.09375" opacity="1.00" d=" M 312.53 156.62 C 317.51 153.62 322.64 150.56 328.47 149.63 C 326.94 153.41 322.86 154.67 319.58 156.46 C 302.34 165.02 287.27 177.18 272.81 189.73 C 284.08 176.57 297.88 165.77 312.53 156.62 Z" />
<path fill="#000000" stroke="#000000" stroke-width="0.09375" opacity="1.00" d=" M 372.30 157.56 C 390.91 153.54 409.97 151.83 428.99 151.77 C 456.69 152.23 484.32 157.22 510.43 166.49 C 541.35 176.91 569.36 195.63 591.10 219.91 C 617.37 250.21 634.31 288.39 639.56 328.12 C 641.72 347.54 641.74 367.28 638.81 386.62 C 637.08 398.93 633.21 410.81 628.34 422.21 C 623.72 433.83 617.09 444.56 609.37 454.37 C 599.15 467.67 586.98 479.53 573.18 489.10 C 558.53 499.01 542.10 505.98 525.33 511.44 C 502.57 518.47 479.03 522.76 455.36 525.18 C 417.24 528.54 378.39 527.01 341.18 517.60 C 322.85 513.42 305.11 506.61 288.86 497.14 C 276.47 489.20 264.66 480.18 254.75 469.26 C 243.69 457.56 234.76 443.97 227.28 429.74 C 219.44 414.56 213.66 398.18 211.49 381.19 C 209.74 368.53 210.34 355.72 210.73 343.00 C 212.49 324.64 214.84 305.98 221.99 288.82 C 222.01 296.16 218.37 302.81 217.68 310.02 C 217.39 312.61 219.98 316.70 222.85 315.09 C 228.28 312.89 230.45 306.94 232.70 302.01 C 234.06 303.60 235.27 305.42 237.11 306.51 C 241.59 306.39 245.03 302.86 247.52 299.48 C 250.22 295.42 252.42 290.20 250.60 285.34 C 249.51 281.99 248.60 278.59 248.05 275.11 C 242.77 275.23 241.17 281.25 237.09 283.64 C 238.14 279.75 240.29 276.10 240.44 272.01 C 240.52 269.49 238.49 267.02 235.86 267.21 C 231.79 266.54 229.47 270.51 226.86 272.86 C 233.96 254.55 243.67 237.24 255.76 221.76 C 263.73 211.79 272.47 202.19 283.24 195.19 C 290.17 190.75 296.86 185.89 304.18 182.09 C 325.67 170.95 348.72 162.94 372.30 157.56 M 406.58 163.45 C 400.34 163.55 394.13 164.11 387.94 164.85 C 391.37 169.79 395.36 174.33 398.70 179.34 C 404.72 188.37 410.22 197.76 414.88 207.57 C 422.16 207.39 429.45 207.09 436.74 207.45 C 447.22 207.99 457.56 209.95 467.75 212.40 C 471.01 204.40 474.69 196.56 479.17 189.18 C 482.70 183.32 487.24 178.17 491.11 172.55 C 480.13 169.69 469.09 166.93 457.81 165.47 C 440.87 162.78 423.67 163.10 406.58 163.45 M 334.69 175.60 C 331.19 176.77 327.78 178.50 325.43 181.44 C 321.80 185.73 317.46 189.31 313.59 193.37 C 312.76 191.05 312.30 188.31 310.19 186.76 C 307.42 184.58 303.46 185.02 300.42 186.35 C 295.62 188.56 291.51 192.09 288.12 196.11 C 277.96 208.56 268.34 221.56 260.68 235.73 C 258.16 240.47 255.47 245.50 255.58 251.02 C 255.58 253.14 257.12 255.38 259.32 255.63 C 262.67 256.24 265.19 253.45 267.43 251.43 C 278.13 240.58 289.06 229.66 302.14 221.67 C 298.78 234.69 294.50 247.56 293.12 261.01 C 298.48 257.75 304.10 254.89 310.13 253.09 C 307.70 255.26 305.21 257.45 303.52 260.28 C 301.20 264.03 297.29 266.26 293.93 268.93 C 284.15 276.38 275.24 285.07 268.23 295.20 C 260.83 306.26 255.72 318.63 251.22 331.09 C 247.67 341.01 242.72 350.66 235.13 358.12 C 230.65 363.00 224.31 367.71 224.31 374.99 C 224.10 384.78 230.52 392.99 236.97 399.70 C 233.79 400.25 227.25 399.66 228.44 404.72 C 231.18 413.27 240.25 417.02 247.78 420.42 C 245.46 422.18 242.90 423.59 240.37 425.04 C 242.41 430.72 245.68 435.85 249.42 440.56 C 259.98 454.25 274.37 464.33 289.32 472.70 C 306.39 482.57 324.96 489.57 343.84 495.08 C 361.56 499.59 379.66 503.05 397.98 503.70 C 420.75 505.08 443.65 503.97 466.20 500.57 C 490.82 497.28 515.02 491.21 538.53 483.24 C 555.03 477.54 571.29 470.66 585.71 460.68 C 590.03 457.67 594.01 453.90 596.07 448.94 C 592.48 447.73 589.00 446.20 585.80 444.18 C 592.73 442.13 599.82 439.96 605.81 435.79 C 608.71 433.82 610.31 430.59 611.95 427.60 C 607.19 424.34 601.25 424.62 595.81 423.62 C 601.55 419.67 608.07 416.93 613.40 412.39 C 618.79 407.80 624.22 402.28 625.55 395.05 C 624.19 391.50 621.51 388.71 619.49 385.55 C 614.79 378.80 612.30 370.84 610.25 362.96 C 606.17 346.04 604.08 328.21 595.29 312.85 C 591.35 305.29 585.31 299.22 579.93 292.71 C 581.04 287.55 580.66 282.24 580.38 277.02 C 579.16 261.53 576.72 246.13 572.95 231.05 C 570.97 223.33 568.75 214.97 562.41 209.62 C 553.14 201.59 542.82 194.87 532.20 188.80 C 524.88 184.99 517.33 181.12 509.25 179.34 C 502.99 183.69 498.87 190.47 494.87 196.83 C 489.06 207.29 483.78 218.19 480.79 229.83 C 492.69 235.26 504.44 241.54 513.98 250.64 C 510.80 235.92 509.10 220.55 511.87 205.64 C 512.88 200.15 516.89 194.11 523.05 194.13 C 528.29 193.66 532.80 197.25 535.68 201.28 C 540.77 208.37 542.89 217.01 544.81 225.39 C 548.32 241.64 549.53 258.32 549.28 274.92 C 550.81 280.04 554.08 284.61 554.68 290.09 C 548.56 285.64 543.08 280.36 536.80 276.12 C 527.98 269.85 518.18 265.01 508.00 261.39 C 509.86 261.35 511.73 261.29 513.60 261.20 C 509.27 252.99 500.82 248.41 493.25 243.67 C 475.98 233.75 456.86 226.72 437.00 224.50 C 405.71 220.88 373.74 226.62 344.85 238.88 C 334.60 243.27 324.94 248.90 314.99 253.91 C 317.16 250.53 319.60 247.31 322.57 244.59 C 324.54 242.61 327.10 240.75 327.43 237.75 C 329.73 223.48 333.12 209.24 339.15 196.05 C 341.66 190.96 345.16 185.35 351.09 183.98 C 357.20 182.51 363.47 187.82 363.67 193.96 C 364.26 203.76 361.91 213.39 360.18 222.97 C 370.68 219.15 381.46 216.17 392.35 213.70 C 388.15 198.93 380.36 185.23 370.43 173.56 C 368.13 171.28 365.75 167.71 362.04 168.62 C 352.73 170.03 343.59 172.56 334.69 175.60 M 260.00 270.30 C 263.30 268.11 265.76 264.83 266.54 260.91 C 263.20 263.06 260.49 266.22 260.00 270.30 M 216.70 323.37 C 215.42 334.05 211.79 344.68 213.70 355.53 C 214.51 352.99 215.19 350.38 215.32 347.71 C 215.88 339.39 217.56 331.19 219.45 323.08 C 218.76 323.15 217.39 323.29 216.70 323.37 M 221.88 337.48 C 223.97 335.37 224.78 332.55 224.64 329.63 C 221.79 331.31 220.79 334.38 221.88 337.48 Z" />
<path fill="#000000" stroke="#000000" stroke-width="0.09375" opacity="1.00" d=" M 622.82 220.01 C 623.96 219.77 625.12 219.53 626.28 219.29 C 627.31 221.36 628.37 223.41 629.50 225.43 C 629.64 223.09 629.73 220.75 629.90 218.41 C 632.62 221.46 636.11 224.99 635.53 229.45 C 634.08 231.51 630.86 233.45 628.55 231.61 C 625.06 228.76 623.86 224.19 622.82 220.01 Z" />
<path fill="#000000" stroke="#000000" stroke-width="0.09375" opacity="1.00" d=" M 316.35 276.25 C 321.26 273.98 328.21 276.48 329.38 282.06 C 330.16 287.73 324.46 292.56 319.00 291.84 C 314.98 292.06 311.25 288.90 310.63 284.97 C 310.15 281.16 312.84 277.53 316.35 276.25 Z" />
<path fill="#000000" stroke="#000000" stroke-width="0.09375" opacity="1.00" d=" M 485.56 281.75 C 490.86 280.04 498.10 283.09 498.64 289.09 C 498.64 298.28 484.26 302.27 479.51 294.42 C 476.32 289.45 480.13 282.86 485.56 281.75 Z" />
<path fill="#000000" stroke="#000000" stroke-width="0.09375" opacity="1.00" d=" M 302.40 310.66 C 309.26 308.70 316.74 309.76 323.08 312.91 C 330.80 316.85 336.03 324.69 338.00 333.00 C 338.81 337.31 339.14 342.50 335.92 345.96 C 333.72 348.64 329.80 349.31 326.62 348.25 C 322.33 345.77 319.48 341.10 314.54 339.69 C 308.76 337.60 302.46 338.74 296.94 341.07 C 293.21 342.53 288.30 344.14 284.95 341.02 C 281.52 338.32 281.73 333.36 282.73 329.54 C 285.83 320.65 293.19 313.10 302.40 310.66 Z" />
<path fill="#000000" stroke="#000000" stroke-width="0.09375" opacity="1.00" d=" M 473.41 317.69 C 489.24 313.77 507.25 324.01 511.10 340.02 C 512.98 346.31 507.24 352.82 500.93 352.78 C 495.54 353.16 491.61 348.74 486.74 347.24 C 479.53 344.97 471.37 346.00 464.92 349.96 C 461.44 351.75 457.70 354.89 453.54 353.41 C 449.07 351.31 447.89 345.47 449.33 341.11 C 452.42 329.83 461.78 320.05 473.41 317.69 Z" />
<path fill="#000000" stroke="#000000" stroke-width="0.09375" opacity="1.00" d=" M 338.20 351.23 C 341.43 348.89 345.10 347.29 348.84 346.00 C 344.87 351.59 339.66 356.13 335.52 361.60 C 327.24 372.05 318.96 384.09 319.15 397.98 C 318.78 407.09 322.03 416.84 329.42 422.55 C 334.77 426.62 342.20 426.66 348.24 424.16 C 354.43 421.61 360.24 417.51 363.83 411.76 C 366.72 407.24 365.69 401.64 365.41 396.60 C 356.79 392.18 347.95 386.40 344.22 377.02 C 342.43 371.35 342.79 364.50 346.74 359.77 C 350.80 354.58 357.21 351.83 363.59 350.86 C 371.89 349.65 380.60 350.31 388.39 353.55 C 394.68 356.25 400.36 361.36 402.16 368.15 C 403.19 372.60 401.25 377.13 398.75 380.75 C 394.04 387.27 386.87 391.51 379.49 394.37 C 377.40 395.48 374.20 396.24 373.98 399.06 C 372.59 405.55 376.42 411.77 381.27 415.74 C 393.94 426.11 410.84 430.39 427.00 429.44 C 444.55 427.99 461.11 418.73 472.20 405.17 C 475.56 401.20 477.10 396.14 479.82 391.78 C 481.12 389.13 485.78 389.68 486.46 392.54 C 487.04 394.82 486.36 397.19 485.36 399.25 C 480.19 409.56 471.90 418.03 462.38 424.43 C 453.12 430.78 442.50 435.27 431.38 437.00 C 427.01 437.74 422.53 437.35 418.19 438.20 C 416.21 438.56 415.11 440.45 414.00 441.93 C 407.70 451.93 404.27 463.60 397.00 473.00 C 390.86 480.92 379.70 485.59 369.99 481.93 C 362.95 479.47 358.24 472.97 355.93 466.13 C 352.90 457.43 355.10 447.85 352.01 439.17 C 351.34 437.14 350.52 435.16 349.73 433.19 C 344.69 433.77 339.51 434.92 334.51 433.43 C 326.12 431.36 319.79 424.58 315.97 417.11 C 310.41 406.45 310.20 393.49 314.31 382.31 C 318.86 369.84 327.38 358.88 338.20 351.23 M 368.59 437.60 C 365.27 439.73 363.47 443.53 362.56 447.25 C 360.91 454.16 361.46 461.80 364.89 468.11 C 367.25 472.49 371.87 475.90 376.99 475.78 C 384.03 476.16 390.12 471.11 393.32 465.21 C 396.87 458.71 399.04 451.34 399.31 443.93 C 399.45 439.49 394.31 436.12 390.32 438.16 C 382.59 441.05 381.88 450.38 378.69 456.85 C 378.27 456.81 377.43 456.74 377.01 456.70 C 375.48 451.23 378.00 445.64 377.14 440.14 C 376.33 436.37 371.40 435.47 368.59 437.60 Z" />
<path fill="#000000" stroke="#000000" stroke-width="0.09375" opacity="1.00" d=" M 679.41 495.45 C 683.56 493.84 688.12 495.13 691.88 497.15 C 698.37 500.68 702.42 507.78 703.29 514.99 C 703.58 522.80 699.75 530.93 692.85 534.87 C 688.35 537.67 682.33 536.95 678.12 533.94 C 669.12 527.51 664.82 514.61 669.41 504.31 C 671.19 500.03 674.98 496.75 679.41 495.45 M 690.44 508.31 C 688.41 509.77 687.32 512.44 687.67 514.91 C 688.17 517.41 690.56 519.10 692.93 519.65 C 699.02 517.93 696.55 506.98 690.44 508.31 M 678.22 520.32 C 676.75 521.36 678.56 523.77 679.98 522.67 C 681.43 521.61 679.63 519.20 678.22 520.32 Z" />
<path fill="#000000" stroke="#000000" stroke-width="0.09375" opacity="1.00" d=" M 735.97 515.95 C 741.27 519.16 745.94 523.31 749.94 528.03 C 761.19 541.30 769.55 557.37 772.07 574.71 C 772.51 579.51 772.07 584.32 771.68 589.11 C 768.08 570.69 761.44 552.78 751.24 536.96 C 747.33 529.14 741.55 522.59 735.97 515.95 Z" />
<path fill="#000000" stroke="#000000" stroke-width="0.09375" opacity="1.00" d=" M 314.48 548.20 C 314.88 548.37 315.70 548.71 316.11 548.88 C 316.29 549.31 316.67 550.18 316.86 550.61 C 316.24 550.62 315.00 550.64 314.38 550.64 C 314.41 550.03 314.45 548.81 314.48 548.20 Z" />
<path fill="#000000" stroke="#000000" stroke-width="0.09375" opacity="1.00" d=" M 321.15 549.04 C 327.63 549.47 333.85 551.43 340.17 552.81 C 359.77 556.80 379.66 559.28 399.63 560.27 C 404.05 560.49 408.47 560.72 412.87 561.19 C 412.84 561.94 412.77 563.44 412.74 564.19 C 398.48 565.21 384.17 563.88 370.00 562.36 C 353.51 560.67 337.20 557.29 321.34 552.50 C 321.26 551.34 321.20 550.19 321.15 549.04 Z" />
<path fill="#000000" stroke="#000000" stroke-width="0.09375" opacity="1.00" d=" M 804.31 639.26 C 809.17 632.02 813.64 624.48 817.34 616.58 C 816.78 622.71 814.73 628.55 812.05 634.05 C 806.10 648.02 796.43 660.12 785.30 670.33 C 781.97 673.44 777.94 675.68 773.66 677.20 C 777.97 670.15 784.98 665.47 790.23 659.21 C 795.78 653.19 800.09 646.23 804.31 639.26 Z" />
<path fill="#000000" stroke="#000000" stroke-width="0.09375" opacity="1.00" d=" M 744.53 620.57 C 748.07 624.19 749.24 629.24 751.28 633.72 C 752.67 636.76 753.59 640.00 753.83 643.36 C 753.14 643.48 751.75 643.73 751.06 643.86 C 748.60 636.19 744.48 628.82 744.53 620.57 Z" />
<path fill="#000000" stroke="#000000" stroke-width="0.09375" opacity="1.00" d=" M 795.04 625.81 C 794.87 627.16 794.84 628.52 794.79 629.89 C 792.52 632.55 790.30 635.33 787.45 637.41 C 784.70 639.42 781.16 639.52 777.92 639.97 C 784.08 635.83 789.85 631.11 795.04 625.81 Z" />
<path fill="#000000" stroke="#000000" stroke-width="0.09375" opacity="1.00" d=" M 571.25 757.06 C 573.06 756.42 573.62 759.39 571.88 759.76 C 570.08 760.38 569.52 757.41 571.25 757.06 Z" />
<path fill="#000000" stroke="#000000" stroke-width="0.09375" opacity="1.00" d=" M 715.62 863.86 C 723.41 863.38 731.27 863.40 739.04 864.31 C 731.46 866.33 723.01 866.81 715.62 863.86 Z" />
</g>
<g id="#898a8bff">
<path fill="#898a8b" stroke="#898a8b" stroke-width="0.09375" opacity="1.00" d=" M 659.57 478.38 C 662.32 477.48 664.68 475.72 667.13 474.21 C 666.91 475.21 666.71 476.22 666.51 477.24 C 668.01 476.81 669.51 476.40 671.00 475.93 C 664.74 481.86 657.11 486.05 650.41 491.43 C 647.57 493.53 644.73 496.15 641.06 496.49 C 636.40 496.91 631.74 496.23 627.17 495.46 C 630.88 491.73 634.83 488.26 638.70 484.69 C 640.86 482.75 643.15 480.72 646.06 480.07 C 650.49 479.04 655.16 479.63 659.57 478.38 Z" />
<path fill="#898a8b" stroke="#898a8b" stroke-width="0.09375" opacity="1.00" d=" M 221.79 541.06 C 220.25 527.79 221.20 513.72 227.74 501.80 C 227.61 510.61 226.20 519.35 226.22 528.17 C 225.58 524.83 224.84 521.52 223.90 518.26 C 219.86 526.20 222.87 534.99 222.52 543.37 C 222.24 542.61 222.00 541.84 221.79 541.06 Z" />
<path fill="#898a8b" stroke="#898a8b" stroke-width="0.09375" opacity="1.00" d=" M 623.99 506.69 C 629.63 506.58 635.33 506.15 640.93 507.05 C 644.84 507.60 646.64 511.57 648.44 514.59 C 652.98 523.49 657.02 532.63 661.31 541.66 C 664.45 549.13 668.52 556.19 671.33 563.81 C 662.45 564.57 653.56 563.85 644.68 563.42 C 641.56 556.26 637.73 549.33 632.46 543.52 C 630.39 540.97 627.68 538.79 626.44 535.69 C 625.90 531.80 626.74 527.88 626.69 523.98 C 626.87 518.09 625.32 512.37 623.99 506.69 Z" />
<path fill="#898a8b" stroke="#898a8b" stroke-width="0.09375" opacity="1.00" d=" M 740.22 532.68 C 744.00 535.17 747.58 537.97 751.05 540.88 C 751.11 539.56 751.17 538.26 751.24 536.96 C 761.44 552.78 768.08 570.69 771.68 589.11 C 772.07 584.32 772.51 579.51 772.07 574.71 C 773.74 585.01 771.99 595.40 772.03 605.75 C 766.52 587.61 759.22 570.07 750.93 553.03 C 747.72 546.06 743.25 539.75 740.22 532.68 Z" />
<path fill="#898a8b" stroke="#898a8b" stroke-width="0.09375" opacity="1.00" d=" M 775.84 555.52 C 779.09 557.07 778.68 560.68 777.94 563.58 C 776.47 561.13 775.78 558.36 775.84 555.52 Z" />
<path fill="#898a8b" stroke="#898a8b" stroke-width="0.09375" opacity="1.00" d=" M 586.55 558.50 C 588.40 558.13 590.26 557.77 592.12 557.40 C 590.48 563.93 589.90 570.68 588.17 577.19 C 585.88 585.88 582.98 594.42 579.81 602.82 C 576.78 610.96 572.44 618.59 570.17 627.02 C 569.96 622.23 568.54 617.50 568.78 612.71 C 576.47 599.21 582.61 584.80 586.91 569.86 C 587.75 566.17 589.38 561.76 586.55 558.50 Z" />
<path fill="#898a8b" stroke="#898a8b" stroke-width="0.09375" opacity="1.00" d=" M 814.37 597.40 C 814.57 588.96 818.18 581.12 819.68 572.88 C 819.34 579.26 818.18 585.57 817.40 591.91 C 817.32 594.15 815.82 595.86 814.37 597.40 Z" />
<path fill="#898a8b" stroke="#898a8b" stroke-width="0.09375" opacity="1.00" d=" M 676.04 577.80 C 678.96 580.61 680.82 584.27 681.91 588.15 C 679.10 585.26 677.10 581.69 676.04 577.80 Z" />
<path fill="#898a8b" stroke="#898a8b" stroke-width="0.09375" opacity="1.00" d=" M 449.82 581.94 C 454.14 580.83 458.66 580.80 463.06 580.21 C 455.29 581.86 448.83 586.76 443.08 592.01 C 442.45 591.40 441.83 590.79 441.21 590.20 C 443.89 587.29 446.20 583.75 449.82 581.94 Z" />
<path fill="#898a8b" stroke="#898a8b" stroke-width="0.09375" opacity="1.00" d=" M 774.09 602.16 C 775.06 600.07 775.91 597.92 776.81 595.80 C 776.80 601.62 776.46 607.47 775.19 613.17 C 775.36 609.46 775.17 605.72 774.09 602.16 Z" />
<path fill="#898a8b" stroke="#898a8b" stroke-width="0.09375" opacity="1.00" d=" M 817.34 616.58 C 818.88 610.80 821.26 605.31 823.88 599.95 C 822.71 606.71 821.06 613.39 818.72 619.84 C 816.98 624.55 815.89 629.47 815.51 634.48 C 815.07 638.09 813.10 641.24 811.36 644.35 C 803.45 657.58 793.88 670.17 781.34 679.34 C 774.97 684.04 767.68 687.36 760.08 689.51 C 758.23 683.87 756.36 678.23 755.03 672.44 C 760.08 668.81 765.24 665.03 768.74 659.78 C 771.87 655.32 773.41 650.02 774.99 644.87 C 774.85 646.65 774.76 648.43 774.67 650.22 C 785.38 649.68 795.95 646.06 804.31 639.26 C 800.09 646.23 795.78 653.19 790.23 659.21 C 784.98 665.47 777.97 670.15 773.66 677.20 C 777.94 675.68 781.97 673.44 785.30 670.33 C 796.43 660.12 806.10 648.02 812.05 634.05 C 814.73 628.55 816.78 622.71 817.34 616.58 Z" />
<path fill="#898a8b" stroke="#898a8b" stroke-width="0.09375" opacity="1.00" d=" M 498.89 616.15 C 506.96 622.11 514.26 629.52 518.26 638.86 C 517.14 637.77 516.03 636.67 514.93 635.58 C 514.59 635.90 513.90 636.53 513.56 636.85 C 509.36 629.48 504.29 622.67 498.89 616.15 Z" />
<path fill="#898a8b" stroke="#898a8b" stroke-width="0.09375" opacity="1.00" d=" M 795.04 625.81 C 795.51 623.42 797.53 621.77 798.99 619.95 C 798.26 623.50 796.97 626.95 794.79 629.89 C 794.84 628.52 794.87 627.16 795.04 625.81 Z" />
<path fill="#898a8b" stroke="#898a8b" stroke-width="0.09375" opacity="1.00" d=" M 423.84 632.75 C 429.61 630.08 436.12 630.64 442.25 631.36 C 436.19 632.82 430.01 633.90 424.17 636.14 C 426.40 634.72 428.68 633.38 430.97 632.06 C 428.59 632.30 426.21 632.52 423.84 632.75 Z" />
<path fill="#898a8b" stroke="#898a8b" stroke-width="0.09375" opacity="1.00" d=" M 675.33 649.79 C 681.72 654.64 687.28 660.53 691.89 667.10 C 685.53 662.21 679.43 656.97 672.91 652.30 C 674.19 652.50 675.48 652.71 676.78 652.94 C 676.29 651.88 675.81 650.83 675.33 649.79 Z" />
<path fill="#898a8b" stroke="#898a8b" stroke-width="0.09375" opacity="1.00" d=" M 730.51 718.82 C 735.08 726.14 737.08 734.83 735.69 743.39 C 733.99 737.07 731.77 730.92 729.67 724.72 C 729.51 722.72 730.20 720.77 730.51 718.82 Z" />
<path fill="#898a8b" stroke="#898a8b" stroke-width="0.09375" opacity="1.00" d=" M 550.81 784.12 C 556.03 780.71 561.69 777.91 567.73 776.28 C 564.54 782.40 557.06 783.73 550.81 784.12 Z" />
<path fill="#898a8b" stroke="#898a8b" stroke-width="0.09375" opacity="1.00" d=" M 479.92 827.47 C 485.26 828.03 490.59 828.78 495.96 829.13 C 509.42 829.83 522.94 828.59 536.38 829.81 C 532.76 831.65 528.81 832.75 524.75 832.97 C 526.32 832.18 527.84 831.31 529.38 830.44 C 521.29 829.28 513.12 829.74 504.99 830.10 C 497.01 830.52 488.98 828.22 481.07 830.03 C 480.68 829.17 480.29 828.31 479.92 827.47 Z" />
<path fill="#898a8b" stroke="#898a8b" stroke-width="0.09375" opacity="1.00" d=" M 530.78 871.12 C 538.03 870.60 545.16 869.07 552.40 868.39 C 544.95 875.36 534.53 878.26 524.53 878.55 C 524.02 878.55 522.99 878.56 522.48 878.57 C 527.91 876.44 534.44 877.99 539.17 873.89 C 533.35 874.04 527.52 876.51 521.81 874.24 C 525.19 874.43 528.58 874.37 531.98 874.30 C 531.57 873.23 531.18 872.17 530.78 871.12 Z" />
<path fill="#898a8b" stroke="#898a8b" stroke-width="0.09375" opacity="1.00" d=" M 741.20 874.92 C 742.52 875.85 743.83 876.79 745.15 877.75 C 744.11 878.14 743.07 878.53 742.05 878.94 C 741.76 877.59 741.47 876.25 741.20 874.92 Z" />
<path fill="#898a8b" stroke="#898a8b" stroke-width="0.09375" opacity="1.00" d=" M 550.33 886.76 C 551.60 887.73 552.87 888.73 554.13 889.74 C 552.98 889.61 551.85 889.50 550.72 889.39 C 550.62 888.73 550.43 887.42 550.33 886.76 Z" />
</g>
</svg>
