<?xml version="1.0" encoding="UTF-8" standalone="no"?>
<svg
   version="1.0"
   width="1024.000000pt"
   height="1024.000000pt"
   viewBox="0 0 1024.000000 1024.000000"
   preserveAspectRatio="xMidYMid meet"
   id="svg13"
   sodipodi:docname="final_output1.svg"
   inkscape:version="1.3.2 (091e20e, 2023-11-25)"
   xmlns:inkscape="http://www.inkscape.org/namespaces/inkscape"
   xmlns:sodipodi="http://sodipodi.sourceforge.net/DTD/sodipodi-0.dtd"
   xmlns="http://www.w3.org/2000/svg"
   xmlns:svg="http://www.w3.org/2000/svg">
  <defs
     id="defs13" />
  <sodipodi:namedview
     id="namedview13"
     pagecolor="#ffffff"
     bordercolor="#000000"
     borderopacity="0.25"
     inkscape:showpageshadow="2"
     inkscape:pageopacity="0.0"
     inkscape:pagecheckerboard="0"
     inkscape:deskcolor="#d1d1d1"
     inkscape:document-units="pt"
     inkscape:export-bgcolor="#ffffffff"
     inkscape:zoom="0.58081055"
     inkscape:cx="655.11896"
     inkscape:cy="734.31862"
     inkscape:window-width="1408"
     inkscape:window-height="1214"
     inkscape:window-x="47"
     inkscape:window-y="25"
     inkscape:window-maximized="0"
     inkscape:current-layer="g13" />
  <metadata
     id="metadata1">
Created by potrace 1.16, written by Peter Selinger 2001-2019
</metadata>
  <g
     transform="translate(0.000000,1024.000000) scale(0.100000,-0.100000)"
     fill="#000000"
     stroke="none"
     id="g13">
    <path
       d="M4917 9390 c-66 -26 -144 -87 -194 -151 -49 -65 -65 -96 -88 -171 l-18 -57 -51 -7 c-229 -31 -586 -160 -774 -281 l-53 -34 -27 19 c-106 75 -218 106 -382 106 -290 0 -507 -115 -870 -461 -243 -231 -246 -233 -560 -408 -263 -146 -328 -191 -440 -304 -73 -73 -105 -115 -137 -176 -133 -256 -131 -557 6 -1056 62 -222 105 -338 196 -525 145 -300 318 -534 467 -633 168 -113 345 -112 488 3 l55 44 26 -107 c52 -210 162 -396 338 -571 215 -214 496 -367 895 -486 83 -24 151 -46 152 -47 2 -2 -11 -30 -27 -62 -75 -148 -152 -359 -209 -579 -16 -59 -30 -109 -32 -110 -2 -1 -23 -8 -48 -15 -25 -7 -91 -36 -148 -63 -276 -135 -452 -337 -552 -636 -60 -181 -75 -433 -35 -612 21 -94 21 -93 -37 -114 -195 -69 -328 -264 -328 -482 0 -85 26 -178 66 -236 76 -110 272 -196 519 -229 112 -15 362 -6 460 16 138 31 131 32 172 -10 73 -75 178 -127 313 -154 197 -39 526 -27 695 26 117 36 237 127 288 218 l23 40 64 0 65 0 24 -45 c35 -64 120 -142 195 -179 98 -48 203 -71 364 -80 351 -21 616 38 752 165 52 49 66 51 149 29 148 -39 453 -44 646 -10 180 32 345 101 435 182 149 134 145 403 -9 588 -22 27 -41 53 -41 57 0 5 11 8 24 8 36 0 182 48 250 82 69 35 148 105 170 153 21 44 20 78 -5 126 l-20 41 23 16 c53 36 193 182 235 245 87 130 126 263 100 337 -14 39 -67 80 -105 80 -22 0 -24 3 -18 33 23 111 27 185 16 284 -27 251 -133 484 -299 656 -69 72 -201 166 -260 186 -58 19 -134 14 -172 -12 -53 -35 -67 -76 -85 -248 -20 -195 -44 -320 -90 -450 -42 -121 -117 -272 -176 -355 l-42 -58 -20 29 c-96 133 -194 254 -374 462 -115 133 -270 315 -343 405 -74 89 -160 192 -191 227 -32 34 -58 66 -58 70 0 4 48 22 108 40 249 76 517 196 677 305 158 107 317 279 413 447 63 111 132 311 132 383 0 14 3 26 6 26 4 0 27 -18 51 -41 25 -22 70 -53 101 -67 50 -24 69 -27 162 -27 102 0 109 1 180 37 89 44 149 92 238 191 263 291 505 870 588 1402 22 145 15 373 -15 490 -36 139 -92 237 -196 340 -107 107 -200 171 -479 325 -114 63 -240 140 -281 170 -40 30 -154 132 -253 226 -99 94 -215 198 -259 232 -160 121 -320 197 -474 221 -176 29 -386 -8 -507 -90 l-44 -30 -62 39 c-133 84 -293 153 -480 207 -65 19 -121 37 -124 39 -2 3 5 21 17 40 27 43 30 120 7 165 -23 43 -87 87 -147 100 -114 25 -290 4 -412 -48 -27 -12 -51 -21 -53 -21 -2 0 -4 22 -4 49 0 120 -114 182 -243 131z m103 -155 c9 -11 11 -36 7 -85 -7 -84 -42 -156 -124 -255 -30 -37 -52 -69 -49 -72 3 -3 43 26 88 64 167 141 227 178 363 224 84 28 253 34 298 10 56 -30 19 -99 -91 -171 -85 -56 -169 -91 -348 -145 -126 -38 -172 -62 -94 -48 25 4 122 8 215 8 163 0 172 -1 214 -25 59 -34 71 -53 46 -80 -51 -56 -294 -74 -437 -32 -38 10 -68 16 -68 11 0 -14 88 -60 158 -82 98 -31 274 -30 354 1 67 27 118 79 118 122 0 36 -40 85 -92 111 -47 24 -45 38 7 56 49 17 132 2 308 -57 289 -97 558 -251 788 -452 36 -32 69 -58 73 -58 21 0 -41 79 -143 183 -131 134 -130 127 -22 168 77 28 140 39 235 39 117 0 207 -23 321 -79 182 -90 269 -164 695 -592 285 -287 393 -387 365 -337 -16 27 -82 106 -164 196 l-85 93 195 -112 c276 -159 353 -212 444 -303 124 -125 178 -251 191 -441 27 -389 -192 -1079 -466 -1466 -80 -113 -197 -232 -261 -264 -112 -57 -233 -40 -319 46 -138 138 -221 328 -299 681 -37 169 -58 304 -112 738 -61 498 -90 673 -139 870 -41 162 -99 307 -172 434 -38 65 -170 216 -190 216 -5 0 15 -35 44 -77 97 -145 197 -400 244 -623 24 -116 28 -156 64 -630 62 -802 147 -1247 287 -1498 23 -40 33 -71 30 -85 -3 -12 -16 -69 -30 -127 -61 -257 -150 -416 -333 -597 -116 -113 -247 -202 -434 -292 -459 -220 -1030 -341 -1615 -341 -534 0 -1012 83 -1428 246 -419 165 -673 358 -841 638 -54 90 -95 198 -133 345 l-34 135 41 84 c134 274 196 605 255 1347 24 309 45 533 61 650 33 255 134 527 289 783 14 23 22 42 17 42 -16 0 -116 -114 -164 -187 -183 -275 -256 -579 -353 -1458 -86 -772 -167 -1066 -352 -1265 -76 -83 -119 -104 -208 -104 -94 0 -154 31 -260 138 -179 179 -365 529 -474 888 -91 301 -115 437 -115 663 -1 152 2 178 23 245 31 100 53 143 117 222 70 87 225 203 413 308 80 46 174 100 209 121 34 21 62 37 62 34 0 -2 -47 -55 -105 -117 -104 -111 -162 -184 -154 -193 11 -10 129 99 304 282 254 264 480 482 574 552 90 66 232 142 311 165 78 24 221 31 307 17 40 -7 104 -28 142 -46 l71 -34 -113 -113 c-62 -62 -123 -132 -135 -155 -13 -24 -21 -43 -18 -43 3 0 49 38 102 85 117 102 330 248 457 311 159 80 389 163 552 198 120 26 113 28 138 -33 30 -74 44 -75 52 -4 13 110 68 241 133 322 66 81 161 124 192 86z m1313 -5434 c125 -153 279 -338 343 -411 328 -372 479 -571 548 -722 102 -219 129 -480 71 -675 l-16 -53 -65 0 c-125 0 -267 -40 -374 -105 -59 -36 -145 -113 -136 -122 3 -3 50 17 105 46 135 69 197 84 351 85 147 0 220 -16 323 -72 138 -74 224 -191 235 -317 6 -83 -11 -144 -54 -192 l-34 -38 16 40 c9 22 18 73 21 115 6 90 -16 163 -71 239 -32 43 -100 101 -119 101 -4 0 15 -29 42 -64 27 -36 57 -88 66 -117 46 -137 -9 -334 -107 -385 -34 -18 -118 -44 -118 -38 0 3 9 22 19 42 28 56 44 152 39 240 -4 64 -10 89 -38 140 -36 68 -102 134 -151 151 -29 10 -27 7 24 -49 90 -97 121 -214 93 -351 -21 -100 -53 -160 -96 -181 -25 -12 -75 -19 -169 -24 l-134 -7 7 24 c5 13 14 51 22 84 28 118 -21 282 -106 359 -54 49 -67 45 -31 -7 78 -115 101 -308 48 -415 -12 -25 -17 -27 -62 -24 -28 1 -79 8 -115 15 l-65 14 -5 99 c-5 83 -11 110 -37 165 l-30 66 28 84 c45 137 54 230 53 589 0 304 -2 336 -28 495 -57 355 -119 605 -211 846 -31 81 -43 86 -21 8 56 -197 115 -688 131 -1089 9 -229 -25 -803 -49 -828 -3 -2 -17 5 -32 17 -31 24 -53 26 -79 7 -17 -12 -16 -16 30 -72 57 -70 80 -117 101 -212 37 -163 -41 -286 -212 -333 -61 -17 -65 -17 -58 -1 79 179 76 363 -8 488 -30 44 -95 100 -105 90 -3 -2 11 -26 30 -53 47 -67 67 -123 74 -212 7 -94 -8 -176 -46 -257 -44 -93 -54 -98 -243 -102 -87 -3 -158 0 -158 4 0 5 7 34 15 64 28 104 12 257 -35 350 -23 46 -74 106 -102 121 -16 8 -14 1 10 -43 52 -94 66 -152 66 -273 0 -113 -13 -184 -38 -204 -11 -9 -30 -8 -83 4 -95 22 -161 55 -209 104 -66 65 -86 119 -92 238 -4 90 -2 107 17 147 31 62 126 148 213 190 118 58 212 79 363 79 164 0 217 -12 403 -90 25 -11 11 26 -22 55 -88 77 -245 118 -420 109 -125 -6 -200 -23 -300 -70 -93 -42 -173 -106 -218 -173 l-37 -54 5 37 c27 203 65 388 143 698 113 452 165 719 159 814 l-3 46 -18 -60 c-23 -78 -191 -586 -229 -691 -35 -97 -40 -98 -124 -21 -127 116 -230 314 -269 518 -25 137 -33 114 -15 -46 14 -118 34 -197 80 -311 27 -65 35 -94 25 -94 -7 0 -40 18 -73 41 -67 44 -140 130 -202 235 -35 60 -39 64 -34 34 8 -41 45 -143 69 -191 l18 -34 -22 20 c-42 37 -100 136 -140 239 -49 126 -68 196 -87 324 l-13 97 3 -135 c3 -103 10 -158 30 -234 14 -55 24 -101 22 -103 -11 -12 -70 116 -108 237 -21 70 -23 90 -22 310 0 217 2 245 27 365 26 122 84 310 111 364 l13 23 448 1 449 1 23 -64 c74 -197 102 -351 112 -605 l7 -190 19 60 c17 51 20 88 20 240 0 162 -3 192 -28 299 -15 65 -42 154 -58 198 -17 44 -29 80 -27 82 1 1 53 10 113 20 86 13 236 43 376 75 3 0 108 -125 232 -278z m-2077 228 c55 -11 149 -26 208 -34 60 -7 111 -16 114 -19 3 -3 -9 -36 -26 -73 -124 -270 -167 -758 -92 -1048 26 -103 85 -225 142 -295 36 -44 53 -80 86 -180 42 -128 165 -551 201 -695 28 -110 42 -206 27 -181 -26 44 -85 113 -119 139 -181 138 -460 174 -688 90 -66 -24 -131 -69 -149 -103 -9 -16 7 -13 100 20 141 51 255 66 382 50 101 -12 220 -48 285 -86 55 -32 152 -122 188 -174 28 -40 29 -47 30 -158 0 -94 -4 -124 -18 -153 -25 -50 -82 -106 -138 -134 -54 -28 -153 -55 -167 -46 -25 16 -45 108 -45 201 1 106 25 202 68 277 15 24 25 47 22 49 -11 11 -90 -84 -116 -140 -52 -108 -59 -269 -18 -368 l15 -36 -30 -6 c-49 -10 -240 -7 -280 4 -82 23 -143 157 -142 310 0 100 24 175 78 251 41 56 42 59 21 59 -9 0 -36 -20 -61 -46 -117 -116 -143 -322 -63 -493 16 -35 28 -66 26 -67 -8 -8 -138 35 -180 60 -155 90 -175 312 -45 507 39 57 40 61 22 74 -25 19 -25 19 -64 -10 -19 -14 -37 -22 -41 -18 -4 5 -15 46 -24 93 -63 333 -72 925 -20 1280 46 312 104 535 220 845 34 93 105 245 126 271 10 12 17 11 165 -17z m3591 -176 c69 -46 183 -168 240 -254 60 -94 98 -180 131 -297 24 -89 27 -112 27 -277 0 -146 -3 -191 -18 -240 -20 -66 -77 -170 -139 -253 -91 -122 18 -33 133 109 70 87 104 119 123 119 3 0 6 -17 6 -38 0 -99 -187 -343 -334 -437 -79 -50 -206 -95 -288 -102 -125 -11 -77 -25 127 -38 125 -8 152 -13 159 -30 14 -38 -30 -82 -139 -138 -116 -58 -289 -87 -381 -63 -31 8 -57 16 -59 18 -2 2 4 32 13 68 11 46 16 111 16 225 0 177 -12 242 -81 447 l-36 107 65 98 c85 129 128 209 171 318 65 165 109 357 127 547 13 133 23 160 59 152 14 -3 49 -22 78 -41z m-4192 -695 c-116 -524 -108 -1436 16 -1680 24 -47 24 -65 -1 -119 -15 -33 -20 -66 -20 -135 l0 -92 -42 -10 c-24 -6 -63 -13 -89 -17 -42 -6 -46 -5 -57 20 -44 97 -37 260 16 366 30 63 30 68 -6 43 -85 -59 -135 -279 -89 -388 10 -21 17 -43 17 -48 0 -6 -47 -8 -119 -6 -111 3 -121 5 -147 28 -14 14 -38 50 -52 80 -22 47 -26 70 -26 155 -1 92 2 105 31 168 21 44 52 87 88 123 61 59 54 70 -16 26 -58 -37 -106 -93 -138 -162 -23 -50 -26 -67 -26 -175 0 -110 2 -125 27 -175 15 -30 26 -55 25 -56 -1 -1 -32 8 -69 20 -82 27 -108 50 -142 126 -67 150 -49 282 58 413 49 61 50 65 8 43 -46 -24 -110 -98 -139 -161 -24 -51 -28 -73 -28 -145 0 -70 5 -94 25 -135 13 -27 26 -54 28 -60 3 -5 -12 6 -32 25 -124 118 -105 325 44 470 103 100 237 145 410 137 119 -5 201 -28 291 -83 31 -19 62 -34 68 -34 24 0 9 30 -37 72 -92 82 -216 127 -360 130 -64 1 -85 5 -92 17 -4 9 -20 65 -35 124 -80 319 19 663 258 895 104 102 280 213 350 221 4 1 5 -9 2 -21z m1267 -817 c53 -46 92 -61 155 -61 55 0 61 -2 97 -39 20 -21 60 -49 87 -61 27 -13 48 -29 45 -35 -14 -37 -100 -404 -117 -502 -12 -66 -24 -183 -26 -266 l-6 -148 -36 3 -36 3 -6 100 c-12 189 -70 440 -173 741 -30 88 -68 189 -85 227 l-30 67 49 0 c40 0 56 -5 82 -29z"
       id="path1" />
    <path
       d="M2822 8412 c-117 -78 -248 -222 -321 -353 -35 -62 -75 -172 -61 -167 5 2 38 47 73 100 79 118 197 267 291 366 38 40 67 75 64 77 -3 3 -23 -7 -46 -23z"
       id="path2" />
    <path
       d="M7351 8373 c84 -91 164 -192 275 -346 54 -76 100 -132 102 -124 4 21 -71 169 -131 255 -57 83 -193 216 -258 251 l-44 25 56 -61z"
       id="path3" />
    <path
       d="M3683 7764 c-54 -26 -123 -93 -123 -119 0 -22 28 -19 134 15 99 32 146 60 146 89 0 48 -77 55 -157 15z"
       id="path4" />
    <path
       d="M6282 7778 c-38 -38 9 -81 129 -119 144 -45 167 -38 108 34 -45 54 -123 97 -179 97 -26 0 -51 -5 -58 -12z"
       id="path5" />
    <path
       d="M3723 7500 c-60 -21 -154 -83 -200 -131 -40 -43 -100 -143 -113 -188 -15 -54 0 -71 63 -71 65 0 261 51 330 86 165 82 211 245 87 309 -38 20 -103 18 -167 -5z m135 -56 c52 -36 13 -88 -74 -98 -86 -10 -163 -34 -216 -67 -27 -16 -48 -25 -48 -21 0 17 83 101 133 136 91 63 162 80 205 50z"
       id="path6" />
    <path
       d="M6225 7506 c-34 -15 -58 -46 -68 -87 -19 -76 57 -174 180 -232 142 -66 332 -99 363 -62 51 61 -110 284 -258 357 -75 37 -167 47 -217 24z m189 -82 c31 -15 82 -55 122 -96 38 -39 65 -68 59 -66 -5 2 -37 17 -69 32 -36 18 -89 33 -135 38 -108 14 -144 28 -156 62 -8 24 -6 31 15 48 31 26 88 19 164 -18z"
       id="path7" />
    <path
       d="M3512 6790 c-109 -39 -196 -126 -244 -245 -14 -34 -42 -83 -62 -109 -146 -192 -165 -480 -47 -730 71 -153 202 -264 366 -311 81 -24 295 -24 384 0 155 40 297 146 354 265 84 174 98 444 32 633 -64 185 -198 318 -387 384 -60 21 -92 26 -178 27 -58 0 -123 -3 -145 -7 l-40 -7 35 19 c19 11 68 28 108 37 39 10 72 21 72 26 0 4 -13 14 -30 23 -40 21 -152 18 -218 -5z m343 -245 c88 -23 152 -62 231 -140 109 -107 161 -231 171 -406 14 -233 -72 -406 -242 -490 -80 -39 -96 -33 -23 9 74 41 143 119 186 210 35 73 37 83 40 193 6 194 -45 335 -164 449 -88 84 -171 122 -282 128 -150 8 -248 -28 -344 -124 -103 -104 -148 -217 -148 -370 0 -268 185 -507 422 -545 91 -15 86 -22 -12 -14 -171 13 -283 59 -376 152 -91 91 -134 207 -134 362 0 100 21 183 69 278 113 225 252 321 466 322 45 1 107 -6 140 -14z m71 -154 c54 -24 87 -78 88 -142 2 -143 -200 -206 -281 -86 -54 79 -29 179 57 224 52 28 82 29 136 4z m-368 -328 c51 -31 74 -101 53 -156 -24 -62 -105 -98 -163 -74 -58 25 -83 61 -83 122 0 46 4 58 30 85 47 49 108 58 163 23z"
       id="path8" />
    <path
       d="M6391 6797 c-14 -6 -25 -16 -25 -20 -1 -5 31 -19 69 -31 39 -12 84 -30 100 -40 l30 -17 -30 6 c-16 3 -68 8 -115 12 -191 13 -392 -84 -506 -244 -186 -260 -177 -679 21 -910 106 -124 319 -193 527 -172 354 36 568 288 568 670 0 163 -38 281 -129 404 -21 28 -45 70 -55 95 -37 100 -139 201 -241 239 -63 24 -175 28 -214 8z m134 -249 c132 -33 268 -152 340 -295 83 -167 89 -398 13 -547 -31 -60 -115 -143 -183 -181 -80 -44 -152 -64 -255 -70 l-85 -5 59 15 c156 40 305 165 363 306 59 142 68 285 24 411 -77 223 -296 359 -508 314 -133 -27 -220 -88 -302 -212 -64 -95 -92 -182 -98 -304 -6 -113 11 -194 59 -279 39 -69 130 -161 186 -190 52 -27 55 -37 5 -16 -192 80 -286 239 -285 480 0 113 21 193 78 307 109 217 351 327 589 266z m-175 -168 c61 -43 79 -148 37 -211 -33 -49 -80 -71 -145 -66 -66 5 -100 28 -131 91 -21 42 -22 52 -12 85 33 112 162 164 251 101z m-203 -307 c66 -31 91 -108 57 -178 -21 -45 -59 -68 -112 -68 -51 0 -89 24 -115 74 -30 58 -2 144 57 173 40 20 70 20 113 -1z"
       id="path9" />
    <path
       d="M4905 5791 c-68 -20 -135 -52 -154 -74 -10 -12 0 -11 51 4 137 43 356 45 506 5 62 -17 59 -5 -9 29 -110 56 -274 71 -394 36z"
       id="path10" />
    <path
       d="M4945 5650 c-178 -16 -345 -94 -410 -190 -27 -41 -30 -52 -30 -130 0 -78 3 -90 34 -148 44 -81 145 -190 224 -242 62 -41 196 -90 244 -90 24 0 25 -2 19 -42 -27 -174 -187 -266 -333 -192 -117 58 -201 190 -179 280 7 26 7 26 28 8 21 -19 21 -19 14 16 -14 74 -91 108 -108 48 -5 -16 -11 -40 -16 -55 -10 -36 -53 -57 -117 -57 -57 0 -98 19 -143 65 -99 102 -36 221 125 238 65 6 67 7 43 21 -14 8 -51 14 -85 14 -49 0 -68 -5 -101 -27 -104 -70 -110 -198 -15 -300 60 -65 175 -93 259 -64 32 11 42 12 42 2 0 -32 74 -156 116 -195 100 -92 247 -125 353 -80 48 21 141 107 141 131 0 6 19 -14 43 -43 28 -34 64 -63 101 -82 50 -26 68 -30 139 -30 69 1 91 5 140 29 104 50 187 139 220 236 9 26 21 43 29 41 7 -2 42 -6 78 -9 83 -7 152 20 209 82 51 55 67 111 51 174 -24 97 -96 151 -199 151 -48 0 -65 -5 -87 -23 l-26 -23 73 1 c57 0 82 -5 109 -21 110 -64 102 -197 -16 -254 -38 -19 -57 -22 -111 -17 -71 5 -83 14 -83 62 0 67 -56 97 -97 53 -20 -22 -53 -80 -53 -93 0 -4 12 3 26 14 42 33 47 27 40 -36 -21 -186 -209 -328 -375 -283 -70 18 -135 91 -162 179 -11 40 -20 73 -18 75 2 1 31 7 64 14 32 6 105 34 160 61 85 42 112 61 170 123 132 139 173 283 115 398 -76 150 -345 237 -645 210z m321 -118 c120 -38 214 -105 214 -153 0 -17 -6 -15 -50 15 -98 68 -243 106 -398 106 -185 -1 -288 -28 -376 -99 -44 -35 -52 -35 -35 2 22 48 143 114 249 136 30 6 64 13 75 15 48 12 262 -4 321 -22z m-120 -77 c72 -22 98 -46 98 -89 0 -46 -24 -71 -93 -97 -72 -27 -231 -37 -316 -19 -65 13 -125 61 -125 98 0 50 80 102 175 115 77 10 215 6 261 -8z"
       id="path11" />
    <path
       d="M4800 4365 c0 -28 60 -82 122 -111 55 -24 75 -28 153 -28 71 1 101 6 142 24 54 23 123 88 123 115 0 23 -16 18 -79 -20 -71 -44 -109 -55 -192 -55 -82 0 -146 19 -201 59 -46 34 -68 39 -68 16z"
       id="path12" />
    <path
       d="M3141 2568 c-33 -100 -42 -154 -42 -252 0 -86 14 -184 31 -215 4 -8 6 61 3 155 -4 146 -2 182 16 268 12 55 19 101 17 103 -2 2 -13 -24 -25 -59z"
       id="path13" />
  </g>
</svg>
