<?xml version="1.0" standalone="no"?>
<!DOCTYPE svg PUBLIC "-//W3C//DTD SVG 20010904//EN"
 "http://www.w3.org/TR/2001/REC-SVG-20010904/DTD/svg10.dtd">
<svg version="1.0" xmlns="http://www.w3.org/2000/svg"
 width="1024.000000pt" height="1024.000000pt" viewBox="0 0 1024.000000 1024.000000"
 preserveAspectRatio="xMidYMid meet">
<metadata>
Created by potrace 1.16, written by Peter Selinger 2001-2019
</metadata>
<g transform="translate(0.000000,1024.000000) scale(0.100000,-0.100000)"
fill="#000000" stroke="none">
<path d="M3722 10148 c-21 -21 -14 -57 14 -70 31 -14 57 -1 62 31 7 42 -46 69
-76 39z"/>
<path d="M8146 10080 c-14 -22 -32 -40 -39 -40 -6 0 -23 -9 -37 -20 l-25 -20
43 -38 c23 -20 48 -48 55 -62 8 -16 23 -26 40 -28 22 -3 30 3 44 32 9 20 32
45 50 56 42 25 42 45 -2 71 -19 12 -35 24 -35 29 0 11 -48 60 -58 60 -5 0 -21
-18 -36 -40z m54 -96 c0 -22 -2 -23 -20 -14 -16 9 -18 15 -10 31 14 25 30 16
30 -17z"/>
<path d="M5615 10075 c-152 -33 -262 -91 -349 -186 -213 -230 -192 -587 58
-966 60 -91 142 -185 177 -202 26 -13 31 -13 49 4 30 27 22 46 -70 186 -251
380 -285 687 -97 886 107 114 228 162 427 170 148 7 251 -6 448 -53 108 -25
148 -31 163 -24 26 15 24 56 -3 74 -35 23 -258 95 -344 112 -96 18 -375 18
-459 -1z"/>
<path d="M4316 10059 c-30 -23 -33 -45 -10 -77 19 -27 64 -29 87 -4 24 26 21
68 -5 86 -29 21 -40 20 -72 -5z"/>
<path d="M7232 10040 c-30 -56 -47 -72 -93 -89 -24 -9 -45 -24 -47 -33 -2 -9
14 -33 34 -53 30 -31 37 -45 39 -81 2 -62 13 -70 69 -51 42 14 50 14 93 0 44
-15 47 -15 60 3 9 12 12 32 8 54 -5 30 -1 41 30 77 19 23 35 46 35 51 0 16
-31 36 -71 47 -26 7 -47 23 -71 55 -43 57 -63 61 -86 20z m53 -100 c11 -21 23
-30 40 -30 29 0 30 -7 10 -34 -8 -11 -15 -28 -15 -37 0 -14 -8 -17 -40 -15
-36 2 -42 6 -60 41 -24 47 -24 45 -2 45 10 0 23 5 30 12 7 7 12 20 12 30 0 26
7 22 25 -12z"/>
<path d="M9666 10041 c-23 -25 -36 -76 -36 -140 0 -54 0 -54 -70 -119 -58 -54
-70 -70 -70 -96 0 -48 23 -72 99 -101 38 -14 75 -33 83 -42 7 -9 24 -45 38
-81 29 -75 64 -108 104 -98 14 3 56 35 94 70 66 62 68 63 135 68 114 9 133 51
77 170 -34 72 -35 84 -15 152 21 68 19 129 -3 149 -23 21 -40 21 -129 0 l-72
-16 -78 51 c-86 56 -128 65 -157 33z m87 -113 c12 -6 40 -26 63 -45 46 -37 73
-41 148 -18 27 8 51 13 54 10 3 -2 -7 -31 -22 -64 -14 -32 -26 -64 -26 -71 0
-7 18 -39 40 -72 22 -33 40 -63 40 -67 0 -3 -30 -4 -67 -3 l-68 4 -56 -63 -56
-62 -23 69 c-24 75 -35 94 -56 94 -21 0 -124 41 -124 49 0 4 30 25 66 46 l66
39 -7 83 c-4 46 -4 83 0 83 3 0 16 -5 28 -12z"/>
<path d="M8890 10043 c-66 -24 -81 -103 -29 -147 34 -29 55 -32 94 -14 67 30
66 126 -1 154 -36 15 -41 15 -64 7z m34 -59 c19 -7 21 -40 3 -47 -23 -9 -40 8
-32 32 7 23 7 23 29 15z"/>
<path d="M368 9994 c-35 -18 -48 -43 -48 -89 0 -47 13 -71 50 -90 61 -31 120
-11 146 50 38 91 -60 177 -148 129z m92 -69 c15 -18 4 -52 -20 -60 -25 -8 -60
11 -60 33 0 39 55 57 80 27z"/>
<path d="M2349 9951 c-39 -39 -40 -89 -1 -131 48 -54 133 -39 162 29 40 98
-85 177 -161 102z m97 -45 c25 -19 9 -50 -28 -54 -19 -2 -27 2 -31 19 -11 42
22 62 59 35z"/>
<path d="M3121 9886 l-50 -34 -58 24 c-70 29 -85 29 -106 6 -23 -25 -21 -63 5
-124 l22 -51 -27 -49 c-49 -87 -35 -112 63 -107 47 3 52 0 84 -37 40 -45 55
-42 95 18 19 30 31 37 70 43 25 4 54 11 64 16 29 16 20 56 -24 104 l-41 44 16
48 c43 126 -7 170 -113 99z m89 -10 c0 -2 -9 -34 -21 -72 -24 -77 -19 -99 30
-135 48 -35 37 -59 -28 -59 -14 0 -37 -7 -50 -16 -22 -16 -23 -16 -17 4 9 26
-3 72 -18 72 -11 0 -42 -19 -105 -65 -19 -14 -36 -23 -38 -21 -3 2 4 27 14 55
l18 51 -33 63 c-17 35 -32 74 -32 86 0 25 16 23 82 -10 53 -27 81 -24 128 16
36 30 70 45 70 31z"/>
<path d="M4784 9840 c-28 -11 -64 -58 -64 -82 0 -52 50 -98 106 -98 34 0 84
51 84 85 0 35 -27 81 -57 94 -28 13 -40 13 -69 1z m51 -66 c21 -22 14 -38 -18
-42 -29 -4 -30 0 -21 36 7 26 17 28 39 6z"/>
<path d="M1200 9825 c-225 -50 -395 -140 -535 -281 -82 -83 -171 -211 -216
-310 -69 -152 -103 -372 -82 -527 l10 -69 -101 -76 c-116 -87 -206 -170 -247
-226 -29 -38 -29 -41 -29 -177 l0 -138 55 -26 c77 -38 186 -49 350 -35 72 5
173 19 225 31 163 34 155 34 206 4 167 -98 312 -143 489 -152 328 -16 639 126
848 388 81 101 131 196 181 343 l41 120 105 70 c299 201 429 360 404 493 -16
85 -128 155 -275 174 -78 9 -251 1 -360 -17 -34 -6 -37 -4 -103 74 -126 149
-271 243 -481 313 -94 30 -110 33 -260 35 -113 3 -179 -1 -225 -11z m270 -126
c-49 -33 -199 -101 -285 -129 -76 -24 -125 -33 -207 -37 -76 -4 -108 -3 -108
5 0 27 205 121 330 152 83 21 297 28 270 9z m206 -38 c42 -19 46 -23 40 -48
-25 -106 -172 -178 -314 -156 -37 6 -73 12 -81 14 -8 2 -17 -4 -19 -14 -6 -29
60 -50 158 -50 145 0 246 53 291 154 21 45 26 50 49 44 49 -12 200 -122 200
-146 0 -5 -53 -36 -117 -69 -65 -33 -152 -78 -193 -100 -154 -82 -246 -96
-462 -70 -223 27 -428 -5 -671 -105 -45 -19 86 212 175 308 l54 57 114 0 c200
1 321 34 545 148 132 68 146 70 231 33z m445 -335 l40 -59 -48 -34 c-91 -66
-100 -68 -150 -43 -34 17 -53 20 -81 15 -59 -11 -102 -35 -118 -67 -30 -59 5
-98 87 -98 48 0 53 2 198 97 62 41 119 77 126 80 10 3 22 -20 39 -77 14 -44
26 -89 26 -100 0 -23 -36 -49 -115 -83 -84 -37 -135 -46 -253 -47 -129 0 -256
-25 -433 -85 -179 -61 -356 -148 -598 -294 -110 -67 -209 -121 -219 -121 -14
0 -28 18 -49 68 -40 88 -73 196 -73 237 0 29 5 34 47 53 l48 20 41 -37 c51
-48 101 -65 184 -65 96 0 175 29 232 84 40 38 48 53 48 82 0 120 -177 191
-347 140 -72 -22 -116 -58 -147 -119 -16 -32 -45 -52 -95 -68 l-24 -7 7 83 c9
111 22 156 50 174 60 40 351 118 481 130 46 4 107 1 180 -11 241 -37 341 -20
555 97 286 154 280 152 302 132 10 -9 37 -44 59 -77z m553 3 c55 -11 111 -41
126 -69 40 -75 -45 -187 -275 -361 -243 -183 -695 -415 -1130 -580 -492 -186
-860 -279 -1101 -279 -118 1 -178 13 -220 45 -69 52 -47 125 73 245 74 73 235
200 254 200 4 0 12 -15 17 -32 8 -30 6 -35 -22 -57 -17 -14 -53 -46 -79 -72
-46 -45 -48 -50 -45 -95 2 -38 8 -51 31 -68 25 -18 42 -21 140 -21 131 1 190
13 471 97 549 163 1049 385 1407 624 143 95 213 153 234 195 46 87 -19 138
-176 139 l-67 0 -15 38 c-15 37 -15 37 12 45 81 24 258 27 365 6z m-737 -186
c9 -22 -27 -50 -78 -58 -67 -12 -78 28 -16 59 42 21 86 20 94 -1z m508 -9 c14
-6 11 -12 -16 -40 -18 -19 -38 -34 -45 -34 -14 0 -37 58 -28 71 6 10 65 12 89
3z m-1464 -197 c114 -60 79 -147 -77 -193 -70 -20 -144 -15 -203 16 -54 27
-68 57 -47 98 46 90 225 133 327 79z m1239 8 c-7 -9 -70 -48 -139 -87 l-126
-72 -110 -1 c-103 0 -114 -2 -182 -34 -78 -36 -121 -75 -150 -135 -16 -34 -27
-42 -103 -73 -109 -44 -528 -183 -644 -214 l-88 -23 -18 24 c-10 14 -16 28
-14 32 3 5 28 20 55 33 27 14 122 69 212 122 278 165 475 252 717 315 90 23
148 31 270 37 160 8 209 20 291 70 41 25 46 26 29 6z m-376 -204 c6 -10 -252
-126 -261 -117 -12 12 31 47 94 77 52 25 97 39 155 48 4 1 9 -3 12 -8z m374
-166 c-6 -14 -21 -27 -32 -30 -51 -10 -89 -15 -85 -11 5 4 123 66 126 66 2 0
-3 -11 -9 -25z m-42 -108 c-7 -18 -25 -52 -40 -75 -28 -45 -33 -47 -171 -57
-226 -15 -478 -92 -795 -241 -104 -48 -119 -53 -150 -44 -38 11 -67 27 -60 33
3 2 50 16 105 32 137 39 522 180 680 249 257 113 275 119 433 135 10 1 9 -6
-2 -32z m-1673 -141 c15 -24 27 -46 27 -50 0 -8 -110 -6 -134 3 -17 7 -15 11
21 49 22 23 44 42 49 42 5 0 21 -20 37 -44z m1496 -92 c-30 -30 -84 -77 -120
-105 l-66 -49 -58 32 c-112 60 -243 37 -420 -74 l-96 -60 -47 12 c-80 19 -80
24 -5 60 203 96 419 174 588 212 81 18 263 38 274 31 3 -2 -20 -28 -50 -59z
m-282 -156 c15 -7 28 -17 28 -23 1 -30 -274 -90 -380 -83 l-50 3 70 40 c141
81 252 102 332 63z"/>
<path d="M2653 9255 c-28 -19 -34 -49 -16 -75 22 -31 73 -24 93 13 14 27 14
29 -13 53 -33 28 -36 29 -64 9z"/>
<path d="M135 8216 c-13 -19 -14 -29 -5 -45 25 -48 100 -33 100 19 0 51 -67
69 -95 26z"/>
<path d="M5634 9771 c-30 -18 -83 -79 -116 -132 -49 -78 -74 -228 -58 -351 23
-186 100 -323 149 -264 10 12 6 34 -19 113 -75 237 -38 448 98 559 43 36 52
60 30 82 -17 17 -48 15 -84 -7z"/>
<path d="M3913 9755 c-87 -27 -221 -115 -327 -214 -77 -73 -253 -273 -348
-397 -162 -212 -334 -490 -438 -707 -234 -490 -375 -1057 -397 -1597 l-6 -165
-81 -81 c-221 -220 -388 -561 -466 -954 -42 -211 -50 -308 -50 -615 0 -271 11
-391 41 -447 5 -10 14 -66 19 -125 18 -197 50 -325 92 -370 16 -17 33 -23 62
-23 38 0 46 6 113 75 130 135 256 385 294 583 10 55 9 232 -3 282 -3 15 122
57 202 66 l45 6 24 -62 c13 -34 43 -91 66 -126 l43 -63 4 -143 c4 -151 16
-194 68 -258 l21 -26 -35 -74 c-87 -185 -88 -422 -2 -621 68 -158 198 -378
269 -455 77 -82 119 -104 164 -82 48 23 61 61 79 238 17 161 18 166 55 225 74
117 109 232 116 388 6 119 4 116 81 101 l30 -6 -33 -72 c-50 -108 -75 -223
-75 -340 0 -56 5 -117 11 -136 7 -22 11 -116 10 -250 -2 -212 6 -307 36 -425
20 -83 42 -125 63 -125 41 0 43 22 14 157 -41 192 -45 458 -8 470 5 2 15 -31
21 -72 18 -110 74 -269 154 -435 110 -229 145 -271 208 -249 101 35 344 480
397 726 15 73 19 81 35 72 27 -14 77 -124 96 -209 12 -57 16 -121 15 -262 -1
-155 1 -187 13 -192 51 -19 65 31 65 236 0 179 -11 256 -56 399 -24 76 -24 78
-8 145 37 157 14 373 -56 530 l-29 63 52 8 c73 11 72 11 69 -18 -5 -40 15
-180 33 -235 23 -67 71 -161 105 -204 19 -24 30 -52 34 -90 11 -94 28 -184 39
-205 48 -97 140 -84 229 32 46 62 103 166 119 221 7 23 27 59 44 80 44 51 60
86 85 178 44 165 36 325 -25 475 l-23 57 24 28 c50 62 64 122 64 284 l0 149
44 50 c25 28 59 79 76 115 36 77 30 76 180 37 l105 -27 7 -114 c9 -168 64
-342 165 -530 99 -183 180 -280 232 -280 47 0 68 15 95 68 31 62 53 138 66
232 6 41 22 104 37 140 45 114 55 201 56 490 1 301 -13 454 -63 650 -78 308
-224 605 -392 795 -59 67 -162 164 -201 190 -23 15 -26 25 -32 103 -40 550
-174 1047 -416 1537 -195 397 -445 753 -728 1036 -314 314 -513 419 -688 364z
m166 -110 c46 -16 101 -51 101 -65 0 -25 -211 -42 -313 -26 -42 6 -46 9 -37
26 15 27 127 80 170 80 21 0 56 -7 79 -15z m208 -139 c15 -13 25 -27 22 -31
-4 -3 -45 -13 -90 -22 -155 -29 -519 -18 -519 16 0 4 9 16 20 26 19 17 23 17
115 0 114 -21 234 -17 340 13 39 11 73 20 77 21 4 1 20 -10 35 -23z m140 -128
c57 -53 263 -278 263 -288 0 -4 -12 -12 -27 -18 -46 -18 -262 -70 -363 -87
-132 -22 -483 -31 -661 -16 -137 12 -280 35 -306 50 -15 8 54 102 197 271 108
127 80 117 245 86 144 -27 389 -16 511 23 83 27 89 26 141 -21z m394 -452 c37
-48 79 -110 94 -137 l27 -50 -64 -28 c-105 -48 -273 -91 -495 -127 -216 -35
-807 -29 -1031 11 -91 16 -250 52 -263 61 -12 7 -1 27 99 177 72 109 88 128
106 123 411 -100 964 -87 1321 32 50 17 101 30 114 29 18 -2 42 -26 92 -91z
m232 -357 c75 -123 212 -402 275 -559 135 -339 212 -645 259 -1035 23 -195 27
-901 5 -928 -15 -18 -220 -101 -347 -141 -200 -63 -511 -130 -747 -160 -415
-54 -827 -43 -1288 35 -236 41 -605 141 -620 169 -5 10 -17 91 -26 181 -24
227 -25 742 -1 956 43 378 122 706 258 1058 55 144 206 445 222 445 7 0 36 -7
63 -15 86 -25 244 -55 374 -70 151 -18 656 -21 810 -5 195 21 413 71 600 138
47 17 90 30 95 28 6 -1 36 -45 68 -97z m786 -2098 c134 -156 225 -304 300
-485 104 -253 140 -455 148 -834 l6 -254 -74 74 c-126 126 -274 204 -513 271
-79 22 -116 37 -116 46 0 8 15 64 34 125 47 151 61 210 85 356 35 206 51 394
51 588 0 108 4 182 10 182 5 0 36 -31 69 -69z m-3405 -505 c25 -195 86 -465
146 -640 16 -50 30 -95 30 -102 0 -7 -19 -18 -42 -24 -139 -34 -236 -68 -335
-115 -95 -47 -125 -67 -204 -142 l-92 -88 6 270 c6 300 20 417 72 620 67 260
178 488 336 685 l44 55 11 -195 c7 -107 19 -253 28 -324z m3152 -58 c-3 -29
-12 -84 -18 -122 l-12 -69 -90 -42 c-231 -108 -599 -197 -1041 -252 -191 -24
-664 -24 -885 1 -305 33 -543 83 -780 163 l-115 39 -23 113 c-12 63 -21 115
-19 117 2 3 48 -10 103 -26 582 -180 1247 -231 1869 -144 313 44 710 148 950
248 33 14 62 25 64 26 2 0 1 -24 -3 -52z m-58 -305 c-7 -37 -425 -186 -653
-233 -323 -67 -654 -96 -1005 -87 -398 10 -723 61 -1045 164 -126 40 -155 56
-155 83 0 18 3 18 73 -6 250 -86 556 -145 892 -174 165 -14 543 -14 711 0 364
31 797 124 1060 229 114 45 127 47 122 24z m-71 -235 c-97 -266 -145 -356
-205 -387 -120 -61 -432 -148 -662 -185 -220 -36 -355 -46 -595 -46 -389 0
-694 44 -987 141 -51 17 -102 37 -114 44 -12 8 -39 57 -63 116 -43 102 -133
361 -127 366 1 1 49 -13 106 -32 215 -73 418 -116 740 -157 140 -17 745 -17
894 0 160 19 441 69 552 98 114 29 329 100 429 142 39 16 71 28 73 27 2 -2
-17 -59 -41 -127z m547 -400 c91 -54 161 -124 192 -193 23 -49 25 -69 26 -172
0 -110 -18 -230 -41 -270 -17 -31 -184 282 -229 428 -18 58 -42 193 -42 235 0
22 19 17 94 -28z m-3710 -55 c25 -153 -42 -377 -169 -568 -26 -38 -59 -83 -73
-98 l-26 -28 -15 58 c-19 75 -20 347 -2 420 12 51 65 143 81 143 4 0 10 -14
14 -30 5 -29 30 -49 43 -37 3 4 15 34 27 69 16 47 30 68 55 85 47 31 57 29 65
-14z m2916 -187 c0 -141 1 -139 -104 -190 -160 -79 -385 -139 -681 -183 -187
-28 -710 -25 -892 5 -208 34 -363 77 -473 132 -86 43 -92 54 -98 170 -3 55 -3
100 -1 100 2 0 36 -9 74 -20 171 -49 298 -73 550 -102 148 -17 664 -17 820 0
255 28 530 86 700 146 108 38 105 40 105 -58z m0 -477 c20 -56 22 -78 17 -174
-3 -60 -11 -123 -17 -140 l-12 -30 -17 50 c-9 30 -23 51 -33 53 -14 3 -17 -8
-17 -75 -1 -94 -28 -209 -72 -294 -35 -72 -88 -149 -101 -149 -4 0 -8 22 -8
49 0 57 -33 258 -52 316 -7 22 -20 41 -30 43 -14 3 -17 -6 -20 -45 l-4 -48
-28 58 c-40 82 -62 202 -50 275 8 51 11 57 33 57 20 0 27 -8 41 -49 16 -48 45
-80 62 -69 6 3 8 37 6 77 l-3 71 55 22 55 22 22 -37 c13 -20 26 -53 29 -72 11
-59 18 -66 43 -41 28 28 27 76 -3 134 l-23 47 41 23 c49 28 53 24 86 -74z
m-2173 35 c32 -24 33 -27 27 -74 -13 -96 48 -240 100 -240 30 0 81 57 126 141
23 44 36 59 48 55 9 -3 29 -8 44 -11 24 -6 27 -12 33 -76 11 -107 -6 -208 -52
-311 -29 -66 -43 -73 -43 -23 0 45 -28 115 -46 115 -11 0 -13 -21 -12 -102 2
-105 -30 -428 -42 -428 -11 0 -85 110 -118 175 -41 82 -61 152 -77 275 -8 58
-15 111 -15 118 0 6 -7 12 -15 12 -13 0 -24 -29 -37 -95 -7 -34 -36 76 -43
162 -4 51 -1 105 8 158 15 83 52 175 70 175 5 0 25 -12 44 -26z m181 -85 l33
-14 -33 -65 c-43 -85 -62 -89 -83 -15 -10 34 -14 70 -11 90 6 31 9 33 34 25
15 -4 42 -14 60 -21z m1204 -130 c52 -104 98 -326 84 -404 l-7 -37 -51 74
c-58 85 -97 128 -115 128 -17 0 -16 -14 3 -97 12 -50 15 -98 11 -183 -6 -140
-38 -249 -124 -422 -54 -107 -171 -297 -184 -298 -11 0 -102 161 -140 249
-114 265 -135 498 -62 676 l27 65 17 -69 c24 -95 79 -210 124 -259 47 -53 70
-55 80 -5 3 20 22 86 42 147 27 85 35 130 37 191 1 73 -1 80 -18 80 -17 0 -22
-12 -33 -70 -15 -81 -75 -275 -85 -275 -25 0 -97 213 -113 333 -5 40 -10 47
-28 47 -18 0 -31 -17 -65 -87 -47 -97 -141 -243 -156 -243 -14 0 2 188 24 274
11 42 33 106 50 141 l31 65 232 1 c128 1 266 5 307 9 96 9 92 10 112 -31z"/>
<path d="M4652 8869 c-29 -11 -46 -53 -31 -80 15 -30 55 -42 87 -27 69 34 17
134 -56 107z"/>
<path d="M3315 8805 c-14 -13 -25 -31 -25 -40 0 -21 44 -65 65 -65 21 0 65 44
65 65 0 21 -44 65 -65 65 -9 0 -27 -11 -40 -25z"/>
<path d="M4222 8774 c-32 -22 -30 -69 4 -91 24 -15 29 -15 53 -2 45 25 36 88
-14 103 -12 3 -30 -1 -43 -10z"/>
<path d="M3763 8770 c-25 -10 -38 -48 -29 -78 8 -25 57 -46 85 -37 48 15 51
93 5 114 -29 13 -31 13 -61 1z"/>
<path d="M3791 8285 c-394 -86 -705 -351 -854 -728 -61 -156 -80 -258 -80
-427 -1 -220 32 -358 131 -555 61 -123 112 -195 206 -293 150 -156 293 -247
504 -320 l107 -37 230 0 c219 1 235 2 328 28 395 110 676 385 811 792 120 361
47 783 -189 1091 -71 92 -202 218 -285 272 -128 85 -284 147 -441 177 -103 19
-378 19 -468 0z m364 -66 c604 -74 1051 -626 985 -1217 -29 -265 -139 -500
-316 -679 -168 -169 -376 -276 -607 -313 -108 -18 -339 -8 -439 18 -238 63
-456 212 -609 415 -78 103 -161 274 -196 403 -25 91 -27 114 -27 279 0 201 12
265 79 418 78 181 218 360 373 477 125 94 313 171 475 194 118 18 171 18 282
5z"/>
<path d="M3985 8145 c-41 -40 -28 -93 28 -114 71 -27 124 72 65 122 -28 24
-65 21 -93 -8z m68 -31 c11 -11 -5 -34 -24 -34 -18 0 -26 20 -12 33 8 9 28 9
36 1z"/>
<path d="M3536 8028 c-34 -49 -5 -118 49 -118 33 0 65 33 65 68 0 60 -82 96
-114 50z m56 -60 c-13 -13 -24 5 -16 27 7 16 8 16 17 0 6 -11 6 -20 -1 -27z"/>
<path d="M4437 8032 c-40 -43 -7 -122 51 -122 33 0 45 8 61 38 10 19 10 30 0
53 -20 50 -80 66 -112 31z m63 -42 c13 -9 13 -11 0 -19 -10 -7 -17 -6 -22 2
-17 26 -5 35 22 17z"/>
<path d="M3850 7940 c-244 -52 -414 -167 -547 -372 -99 -150 -140 -309 -130
-498 7 -134 25 -199 92 -335 114 -232 282 -375 530 -451 81 -25 105 -28 245
-28 133 -1 167 3 235 22 88 25 207 82 282 133 132 91 250 255 310 430 30 88
36 119 40 223 8 185 -23 316 -109 464 -128 216 -335 364 -583 417 -95 20 -260
18 -365 -5z m385 -124 c157 -50 290 -168 369 -329 55 -113 75 -184 82 -307 12
-182 -41 -346 -159 -497 -212 -268 -627 -354 -906 -185 -206 124 -325 328
-338 578 -12 222 62 402 231 561 169 159 324 218 548 207 64 -3 123 -12 173
-28z"/>
<path d="M4470 7557 c0 -4 11 -35 25 -70 35 -85 49 -183 40 -292 -30 -392
-380 -701 -773 -684 -45 2 -82 1 -82 -3 0 -4 26 -15 58 -25 41 -12 93 -17 187
-17 151 0 216 14 345 76 70 33 100 56 170 127 136 137 193 278 192 471 0 116
-20 199 -73 301 -34 66 -89 137 -89 116z"/>
<path d="M3186 7739 c-19 -15 -26 -30 -26 -53 0 -45 28 -68 76 -64 70 6 87 90
24 123 -38 19 -42 19 -74 -6z m51 -44 c7 -20 0 -27 -20 -19 -9 3 -13 12 -10
20 7 19 22 18 30 -1z"/>
<path d="M4810 7720 c-51 -51 9 -138 75 -108 45 20 52 93 11 120 -21 14 -66 8
-86 -12z m58 -44 c3 -12 -1 -17 -10 -14 -7 3 -15 13 -16 22 -3 12 1 17 10 14
7 -3 15 -13 16 -22z"/>
<path d="M3011 7223 c-53 -45 -24 -133 43 -133 52 0 79 42 63 101 -6 24 -42
49 -71 49 -8 0 -23 -8 -35 -17z m53 -49 c9 -23 8 -24 -14 -24 -19 0 -27 20
-13 33 11 11 20 8 27 -9z"/>
<path d="M4986 7219 c-32 -25 -34 -66 -5 -103 36 -45 102 -31 122 26 10 27
-12 74 -39 87 -35 16 -47 14 -78 -10z m68 -54 c-7 -17 -32 -27 -39 -15 -3 5
-1 19 5 30 9 17 14 19 25 10 8 -6 11 -18 9 -25z"/>
<path d="M3160 6630 c-27 -27 -25 -66 5 -95 46 -46 115 -22 115 41 0 43 -29
74 -70 74 -17 0 -39 -9 -50 -20z m65 -43 c0 -26 -20 -25 -23 2 -3 16 1 22 10
19 7 -3 13 -12 13 -21z"/>
<path d="M4817 6622 c-25 -28 -22 -87 5 -106 24 -17 65 -21 84 -8 36 24 39 78
6 115 -20 23 -74 22 -95 -1z m63 -53 c0 -5 -9 -9 -20 -9 -22 0 -23 1 -14 24 5
13 9 14 20 5 8 -6 14 -15 14 -20z"/>
<path d="M3550 6297 c-38 -19 -40 -78 -4 -106 42 -33 104 -4 104 48 0 32 -8
44 -37 60 -27 14 -32 14 -63 -2z m45 -48 c11 -17 0 -20 -21 -4 -17 13 -17 14
-2 15 9 0 20 -5 23 -11z"/>
<path d="M4451 6281 c-22 -22 -27 -61 -11 -91 24 -44 111 -26 124 26 16 62
-68 110 -113 65z m54 -54 c-20 -11 -27 -5 -19 17 5 13 9 14 21 5 12 -11 12
-14 -2 -22z"/>
<path d="M4002 6183 c-33 -28 -37 -66 -10 -97 30 -36 83 -39 110 -6 25 30 23
53 -8 89 -29 35 -61 40 -92 14z m57 -46 c13 -16 5 -27 -21 -27 -18 0 -25 20
-11 33 10 10 19 8 32 -6z"/>
<path d="M5429 5823 c-9 -2 -21 -16 -28 -30 -24 -54 43 -98 82 -55 23 26 21
58 -5 76 -12 9 -25 15 -28 15 -3 -1 -12 -3 -21 -6z"/>
<path d="M5227 5742 c-24 -26 -21 -59 7 -77 19 -13 28 -14 50 -4 14 7 26 16
26 20 0 4 3 14 6 22 7 19 -29 57 -54 57 -11 0 -26 -8 -35 -18z"/>
<path d="M2749 5714 c-20 -54 45 -99 85 -58 34 33 5 84 -48 84 -19 0 -29 -7
-37 -26z"/>
<path d="M4722 5634 c-50 -35 -5 -108 52 -83 34 16 36 61 4 83 -12 9 -25 16
-28 16 -3 0 -16 -7 -28 -16z"/>
<path d="M3240 5610 c-15 -28 -3 -59 27 -71 51 -19 95 37 57 75 -23 23 -71 20
-84 -4z"/>
<path d="M3807 5552 c-22 -24 -21 -45 1 -65 37 -34 82 -15 82 35 0 45 -53 64
-83 30z"/>
<path d="M4172 5558 c-27 -27 0 -88 40 -88 19 0 48 32 48 53 0 38 -61 62 -88
35z"/>
<path d="M5950 9753 c-108 -18 -222 -79 -269 -144 -58 -79 -74 -140 -74 -279
1 -157 24 -273 88 -435 165 -419 401 -706 1058 -1288 72 -64 81 -77 136 -191
223 -462 623 -792 1111 -916 167 -43 243 -52 490 -59 l245 -7 99 -43 c458
-198 924 -322 1269 -338 l137 -6 0 65 0 66 -112 7 c-151 9 -216 19 -388 61
-210 52 -486 146 -837 288 -520 209 -801 348 -1211 598 -741 452 -1427 1080
-1723 1576 -176 296 -257 620 -190 767 12 27 32 60 44 73 77 83 268 112 502
77 193 -29 269 -52 751 -233 61 -22 74 -24 88 -13 22 19 20 44 -6 68 -51 46
-346 174 -548 237 -200 63 -284 76 -470 74 -91 0 -176 -3 -190 -5z m1332
-2566 c95 -51 468 -280 464 -284 -2 -3 -135 47 -356 133 -53 20 -88 42 -120
74 -64 64 -114 130 -98 130 7 0 57 -24 110 -53z m218 -240 c30 -14 141 -54
245 -90 107 -37 277 -106 390 -159 110 -52 211 -99 225 -106 l25 -11 -27 0
c-52 -2 -257 39 -354 70 -199 63 -388 160 -525 269 -102 82 -101 82 21 27z"/>
<path d="M8270 9654 c-14 -2 -59 -9 -100 -15 -318 -45 -644 -196 -862 -398
-47 -44 -73 -61 -76 -52 -13 39 -154 106 -385 182 -128 42 -163 51 -185 43
-35 -12 -41 -48 -11 -65 12 -6 66 -26 119 -44 80 -27 405 -153 419 -162 2 -1
-2 -9 -8 -17 -11 -13 -20 -12 -69 11 -119 54 -304 123 -420 157 -198 57 -275
71 -412 71 -111 0 -130 -3 -173 -24 -30 -15 -58 -38 -75 -64 -24 -37 -27 -50
-27 -131 0 -109 22 -180 101 -337 110 -217 325 -490 609 -775 418 -419 933
-779 1560 -1090 310 -153 489 -227 815 -337 402 -136 630 -186 887 -194 84 -3
177 -2 208 2 l55 6 0 65 0 64 -42 -7 c-24 -5 -108 -8 -188 -7 -123 0 -169 5
-300 32 -139 29 -276 66 -348 93 -25 9 -23 12 57 61 l83 51 76 -9 c43 -5 145
-9 227 -9 137 0 155 2 203 24 168 76 170 248 6 451 -33 42 -64 82 -68 88 -6
10 35 150 50 170 8 11 52 -30 125 -115 133 -158 119 -153 119 -37 l0 100 -95
102 c-52 56 -95 107 -95 112 0 6 7 70 16 143 40 326 -9 626 -151 925 -232 486
-629 798 -1160 912 -75 16 -144 22 -280 25 -99 2 -191 2 -205 -1z m285 -134
c187 -18 391 -77 563 -164 39 -19 73 -40 76 -45 10 -16 -82 -26 -234 -25 -127
1 -156 4 -235 28 -120 36 -238 95 -303 152 -77 67 -64 72 133 54z m-191 -58
c137 -129 306 -201 520 -222 103 -10 234 -1 321 22 40 11 46 10 82 -14 21 -14
57 -41 80 -61 50 -41 49 -42 -75 -57 -310 -39 -795 115 -1004 318 -59 57 -62
77 -12 69 25 -4 53 -22 88 -55z m-134 -18 c143 -146 404 -277 666 -334 124
-27 313 -36 414 -21 163 26 148 29 209 -42 30 -34 54 -66 54 -72 -3 -35 -287
-57 -459 -36 -274 34 -643 162 -884 308 -87 53 -251 180 -257 199 -3 9 143 51
187 53 9 1 40 -24 70 -55z m-239 -78 c133 -123 302 -220 568 -326 265 -105
449 -148 686 -157 131 -5 164 -3 264 17 65 13 116 19 120 13 86 -123 127 -191
119 -198 -11 -11 -117 -46 -182 -59 -132 -28 -248 -35 -378 -25 -159 11 -253
31 -414 84 -288 96 -559 233 -804 406 -95 67 -250 203 -250 220 0 15 152 86
189 88 7 1 44 -28 82 -63z m-224 -137 c226 -213 559 -405 938 -541 231 -83
427 -114 649 -105 146 7 206 17 340 61 44 15 80 25 81 24 11 -13 45 -90 45
-102 0 -10 -23 -19 -77 -31 -121 -25 -136 -29 -140 -42 -8 -22 45 -25 129 -8
46 10 89 18 97 19 30 2 95 -219 69 -235 -24 -15 -167 -20 -278 -9 -146 14
-202 27 -430 100 -205 65 -270 82 -509 135 -398 88 -653 189 -903 357 -167
112 -346 279 -335 312 5 17 205 155 225 156 1 0 46 -41 99 -91z m-1306 -5 c52
-9 146 -31 210 -49 124 -36 377 -129 405 -149 15 -11 12 -18 -27 -74 -33 -48
-49 -62 -64 -58 -11 2 -65 16 -120 31 -125 34 -271 39 -322 12 -44 -24 -66
-69 -60 -124 10 -87 106 -243 244 -395 l61 -66 -5 -84 c-3 -46 -8 -85 -10 -88
-17 -17 -345 371 -450 532 -127 194 -209 406 -181 466 30 62 134 77 319 46z
m1037 -202 c143 -145 277 -240 494 -349 210 -105 361 -152 823 -258 88 -21
243 -64 345 -97 296 -95 324 -100 560 -103 l205 -2 6 -79 c3 -43 2 -82 -1 -87
-11 -14 -429 -12 -515 2 -234 37 -409 105 -743 286 -82 44 -138 58 -130 33 12
-35 412 -236 588 -296 193 -65 251 -74 545 -81 l260 -6 0 -25 c0 -23 -5 -25
-85 -39 -197 -33 -724 -12 -1008 39 -339 62 -654 215 -1116 543 -265 188 -359
265 -456 372 -40 44 -48 59 -41 73 14 24 155 172 164 172 5 0 52 -44 105 -98z
m-213 -230 c214 -210 695 -538 1030 -702 277 -135 475 -185 885 -221 202 -18
521 -16 638 5 50 9 94 16 96 16 2 0 0 -17 -5 -37 -4 -21 -13 -70 -19 -108 -6
-39 -14 -76 -19 -83 -13 -21 -120 -36 -251 -35 -151 1 -308 30 -515 97 -77 24
-214 65 -305 91 -303 84 -450 140 -695 263 -144 72 -244 115 -390 167 -284
101 -372 145 -501 249 -70 57 -174 167 -174 185 0 14 117 211 125 211 0 0 45
-44 100 -98z m-510 23 c38 -8 91 -22 117 -31 l48 -15 -35 -69 c-19 -38 -42
-96 -51 -129 -10 -34 -21 -61 -25 -61 -24 0 -159 180 -186 250 -29 73 -3 83
132 55z m506 -418 c96 -62 206 -112 414 -187 110 -40 308 -123 440 -185 306
-145 349 -161 590 -230 110 -31 284 -83 386 -115 252 -80 330 -94 519 -94 85
-1 176 2 202 6 l47 8 -35 -102 c-20 -56 -47 -124 -61 -151 l-25 -50 -156 6
c-238 8 -426 46 -752 152 -91 29 -273 85 -405 124 -374 110 -475 147 -720 265
-173 84 -391 210 -508 293 -84 61 -241 203 -258 234 -12 23 11 117 47 200 l25
56 97 -97 c53 -53 122 -113 153 -133z m-271 -143 c136 -139 351 -279 668 -438
236 -118 427 -190 762 -286 80 -23 251 -75 380 -116 361 -115 557 -155 782
-157 70 -1 128 -4 128 -8 0 -10 -60 -99 -67 -99 -5 0 -51 -8 -103 -17 -62 -11
-154 -17 -265 -17 -204 -1 -238 6 -550 109 -121 41 -305 95 -410 120 -479 117
-804 265 -1138 517 -130 99 -268 234 -279 275 -4 14 -3 58 2 97 5 39 10 74 10
79 0 17 19 3 80 -59z m-30 -266 l23 -33 -26 24 c-15 14 -27 28 -27 33 0 14 5
9 30 -24z m320 -252 c310 -208 586 -327 996 -430 121 -30 323 -88 449 -129
127 -41 268 -83 315 -92 104 -22 332 -23 465 -2 50 8 92 13 94 10 3 -2 -17
-25 -43 -52 -59 -60 -75 -65 -311 -87 -255 -24 -560 -5 -761 46 -257 66 -1120
604 -1419 885 l-70 66 80 -66 c44 -36 136 -103 205 -149z m2687 -713 c27 -87
-4 -126 -118 -144 -46 -7 -87 -7 -146 1 l-82 12 70 80 c38 44 90 113 116 154
l46 74 49 -63 c26 -34 56 -85 65 -114z m-1197 -114 c111 -15 373 -15 480 0 47
7 108 14 135 17 48 5 49 5 30 -11 -48 -39 -155 -95 -210 -110 -33 -9 -91 -19
-130 -22 -66 -5 -78 -2 -230 52 -88 31 -176 66 -195 76 l-35 20 35 -6 c19 -3
73 -10 120 -16z"/>
<path d="M170 9493 c-8 -3 -27 -17 -42 -31 -80 -74 30 -200 119 -137 29 21 46
75 34 108 -15 39 -76 72 -111 60z m44 -69 c12 -12 13 -20 6 -35 -13 -23 -29
-24 -56 -4 -19 15 -19 15 5 35 28 24 26 24 45 4z"/>
<path d="M9982 9174 c-27 -18 -28 -45 -4 -67 35 -32 82 -15 82 29 0 20 -32 54
-50 54 -3 0 -16 -7 -28 -16z"/>
<path d="M5777 7962 c-24 -27 -21 -59 8 -78 23 -15 27 -15 50 0 30 20 33 56 7
79 -24 22 -45 21 -65 -1z"/>
<path d="M2067 7953 c-21 -21 2 -57 112 -172 108 -113 120 -122 140 -112 11 7
21 20 21 31 0 17 -159 198 -214 242 -22 18 -48 23 -59 11z"/>
<path d="M10220 7809 c-11 -118 -11 -132 4 -147 15 -15 16 -5 16 131 0 81 -2
147 -3 147 -2 0 -10 -59 -17 -131z"/>
<path d="M1944 7835 c-9 -21 -5 -28 107 -217 84 -141 104 -169 121 -166 12 2
26 11 32 20 8 13 -9 48 -88 180 -55 90 -106 171 -114 181 -19 21 -51 22 -58 2z"/>
<path d="M1780 7755 c-15 -19 -10 -36 67 -188 58 -117 66 -128 86 -121 45 14
46 12 -30 173 -69 148 -92 174 -123 136z"/>
<path d="M1126 7667 c-17 -13 -73 -274 -78 -366 -2 -42 1 -56 15 -65 30 -19
51 4 61 70 4 32 18 119 31 193 12 74 20 142 18 152 -6 23 -27 31 -47 16z"/>
<path d="M1464 7646 c-16 -12 -17 -23 -5 -157 12 -152 21 -177 60 -164 19 6
21 14 21 73 -1 67 -15 201 -25 233 -8 24 -30 30 -51 15z"/>
<path d="M1290 7635 c-9 -11 -14 -82 -18 -245 -4 -213 -4 -230 13 -236 10 -4
25 -3 34 3 13 9 17 44 24 229 8 221 4 264 -27 264 -7 0 -19 -7 -26 -15z"/>
<path d="M5991 7624 c-11 -14 -23 -35 -26 -45 -4 -12 -30 -30 -61 -44 -30 -13
-54 -28 -54 -34 0 -6 18 -27 40 -47 34 -32 40 -43 40 -78 0 -66 9 -72 68 -51
44 16 57 17 92 6 22 -6 45 -9 50 -6 6 3 10 26 10 51 0 34 8 56 31 90 17 25 28
51 25 59 -3 8 -24 19 -48 25 -29 8 -56 26 -84 56 -22 24 -46 44 -52 44 -6 0
-20 -12 -31 -26z m49 -84 c0 -6 10 -21 23 -34 18 -18 22 -32 19 -57 -3 -32 -6
-34 -41 -34 -33 0 -40 4 -51 30 -8 16 -15 33 -18 38 -2 4 4 7 13 7 9 0 22 13
28 30 11 29 27 41 27 20z"/>
<path d="M335 7430 c-16 -11 -42 -20 -57 -20 -36 0 -41 -11 -43 -101 -1 -84 2
-89 54 -89 15 0 42 -11 61 -25 19 -14 35 -25 37 -25 2 0 12 20 22 44 11 24 33
53 50 65 39 28 39 38 -1 71 -17 15 -37 42 -43 61 -14 41 -39 47 -80 19z m41
-95 c9 -38 -2 -55 -36 -55 -30 0 -31 1 -25 33 12 51 50 65 61 22z"/>
<path d="M1857 7213 c-8 -10 -19 -30 -22 -45 -5 -21 -20 -33 -61 -52 -30 -14
-54 -31 -54 -38 0 -8 16 -29 35 -48 26 -25 35 -42 35 -66 0 -67 14 -76 75 -47
31 15 42 15 81 5 61 -17 78 -4 69 50 -6 32 -2 46 20 79 14 23 24 47 21 54 -3
8 -23 19 -46 26 -27 8 -52 26 -76 56 -39 47 -53 52 -77 26z m85 -135 c11 -4
11 -8 0 -20 -7 -9 -10 -23 -6 -32 5 -13 0 -16 -24 -16 -17 0 -38 -3 -47 -7
-14 -5 -16 -2 -11 15 5 15 1 24 -15 33 -22 11 -22 12 8 24 16 7 33 21 37 30 6
17 8 17 26 -2 10 -12 25 -23 32 -25z"/>
<path d="M6633 7127 c-10 -13 -29 -46 -42 -74 -20 -43 -31 -54 -74 -74 -68
-32 -97 -56 -97 -81 0 -12 26 -46 65 -83 62 -59 65 -64 65 -108 0 -58 13 -93
41 -107 18 -10 33 -7 95 25 58 30 80 36 106 31 92 -18 124 -18 137 -2 14 17
11 76 -7 149 -9 33 -6 45 19 92 31 59 37 96 16 113 -7 7 -38 16 -68 22 -30 6
-63 13 -74 15 -11 3 -44 27 -73 55 -59 56 -82 61 -109 27z m183 -167 c30 0 54
-3 54 -7 0 -5 -11 -30 -24 -56 -23 -44 -24 -51 -12 -85 7 -20 16 -49 20 -64
l6 -27 -41 14 c-58 21 -84 19 -134 -11 -25 -14 -49 -23 -55 -19 -5 3 -10 30
-10 58 0 52 -1 53 -52 92 l-52 39 34 14 c19 8 45 18 58 23 15 6 32 30 48 65
l25 56 40 -46 c39 -44 43 -46 95 -46z"/>
<path d="M783 6922 c-45 -42 -62 -82 -94 -230 -17 -75 -32 -139 -34 -143 -3
-3 -44 -23 -92 -44 -168 -71 -234 -120 -253 -184 -20 -72 53 -153 208 -228
l92 -45 0 -52 c0 -76 19 -214 34 -251 8 -18 27 -44 42 -59 25 -24 35 -27 80
-23 60 4 131 50 251 162 l73 67 92 -32 c64 -22 120 -33 178 -37 77 -5 88 -3
112 16 64 51 53 147 -40 352 l-30 67 30 28 c39 38 115 145 134 189 31 76 6
158 -60 189 -27 13 -68 16 -194 16 l-160 0 -53 73 c-69 93 -136 165 -171 183
-15 8 -47 14 -71 14 -35 0 -51 -6 -74 -28z m185 -256 c44 -62 87 -118 95 -125
19 -15 24 -15 183 -6 94 6 137 4 153 -4 22 -12 22 -12 2 -39 -11 -15 -50 -61
-89 -102 -103 -113 -102 -101 -38 -227 29 -60 56 -118 60 -130 3 -13 8 -32 11
-42 5 -18 2 -18 -37 -10 -24 6 -86 23 -139 39 -53 17 -105 30 -117 30 -12 0
-61 -38 -119 -91 -123 -114 -152 -135 -158 -117 -2 7 -8 78 -13 157 -10 169
-2 158 -149 220 -54 23 -107 48 -117 56 -19 14 -19 16 -2 34 10 11 76 43 146
71 71 29 134 58 141 66 6 7 24 80 40 161 36 181 37 183 54 177 7 -3 49 -56 93
-118z"/>
<path d="M102 6768 c-15 -15 -15 -61 0 -76 7 -7 25 -12 40 -12 37 0 57 38 40
75 -13 27 -58 35 -80 13z"/>
<path d="M1904 6525 c-15 -23 -15 -27 0 -50 29 -44 86 -28 86 25 0 53 -57 69
-86 25z"/>
<path d="M7368 6348 c-9 -7 -22 -26 -31 -42 -9 -19 -29 -35 -58 -45 -24 -9
-45 -23 -47 -32 -1 -8 11 -33 28 -54 22 -27 30 -48 30 -77 0 -48 17 -56 70
-35 31 12 47 13 74 5 50 -16 66 -6 66 41 0 29 9 53 31 85 17 24 29 48 25 54
-3 5 -26 15 -51 22 -33 9 -50 21 -65 45 -11 18 -27 36 -36 39 -20 8 -18 8 -36
-6z m65 -132 c20 -5 20 -6 4 -24 -9 -10 -17 -24 -17 -30 0 -7 -6 -12 -14 -12
-8 0 -20 -2 -28 -5 -8 -3 -17 8 -24 31 -11 33 -10 37 7 41 10 3 21 15 25 27
l7 21 10 -22 c5 -12 19 -24 30 -27z"/>
<path d="M6466 6284 c-37 -36 -4 -114 47 -114 51 0 77 78 39 113 -23 21 -66
22 -86 1z"/>
<path d="M8250 6180 c-10 -10 -31 -42 -44 -69 -23 -45 -31 -51 -95 -76 -105
-40 -135 -63 -139 -107 -3 -34 2 -43 58 -97 59 -59 61 -63 60 -108 -3 -88 0
-104 25 -128 28 -29 75 -32 147 -11 42 13 53 13 122 -6 71 -20 76 -20 101 -4
31 20 45 53 45 104 0 64 19 110 69 164 109 120 96 163 -68 212 -83 25 -93 30
-122 71 -18 25 -43 52 -55 60 -32 21 -80 19 -104 -5z m101 -51 l30 -32 -30
-18 c-53 -32 -110 -59 -125 -59 -12 0 -8 15 16 70 26 59 35 70 55 70 15 0 37
-13 54 -31z m241 -137 c56 -23 49 -52 -28 -107 -31 -22 -64 -56 -74 -76 -25
-48 -38 -57 -89 -61 -66 -5 -62 -24 5 -31 64 -7 75 -17 72 -67 -3 -30 -7 -35
-32 -38 -16 -2 -49 4 -73 13 -47 18 -88 17 -167 -6 -46 -13 -49 -13 -66 9 -15
19 -18 34 -13 95 l6 73 -38 34 c-75 69 -85 79 -85 94 0 21 82 36 193 36 l92 0
55 44 54 43 81 -22 c44 -12 92 -27 107 -33z"/>
<path d="M8942 6133 c-7 -3 -18 -17 -23 -30 -12 -33 12 -63 51 -63 32 0 50 17
50 45 0 38 -41 63 -78 48z"/>
<path d="M6915 5756 c-114 -27 -155 -54 -155 -104 0 -39 25 -59 158 -127 125
-65 189 -113 179 -136 -4 -8 -24 -43 -44 -78 l-38 -64 -99 -32 c-104 -34 -136
-57 -136 -102 0 -39 24 -74 94 -139 l66 -61 0 -116 c0 -113 1 -116 26 -136 35
-28 84 -27 142 3 80 40 126 51 161 36 17 -7 31 -16 31 -19 0 -25 -38 -128 -71
-191 -123 -238 -323 -373 -679 -460 -103 -25 -140 -51 -140 -96 0 -56 117
-127 282 -171 91 -23 392 -23 503 1 485 106 820 486 850 966 19 289 -72 543
-265 741 -133 135 -290 225 -475 270 -107 26 -310 34 -390 15z m366 -106 c174
-45 320 -131 450 -267 177 -185 257 -421 229 -671 -17 -152 -84 -332 -170
-458 -49 -71 -157 -181 -225 -230 -89 -63 -236 -130 -350 -160 -89 -24 -118
-27 -265 -26 -117 0 -185 5 -233 16 -71 17 -184 63 -175 71 2 3 47 16 99 29
211 53 364 133 491 254 117 112 195 235 242 381 18 56 25 66 46 69 92 10 105
46 76 199 l-13 71 60 74 c71 87 91 127 78 161 -19 50 -56 67 -201 92 -30 5
-41 15 -82 81 -28 43 -60 82 -79 92 -17 9 -58 39 -91 65 -33 26 -112 73 -175
104 -62 31 -112 57 -110 59 2 2 28 8 58 13 80 15 243 5 340 -19z m-22 -420
c23 -38 45 -71 50 -74 4 -3 41 -10 82 -17 121 -19 120 -14 39 -102 -38 -43
-70 -85 -70 -95 0 -9 9 -48 20 -86 11 -38 18 -71 16 -73 -2 -2 -35 10 -74 27
-39 16 -81 30 -94 30 -13 0 -56 -16 -96 -35 l-73 -35 7 88 7 88 -32 32 c-18
17 -52 48 -77 68 -53 44 -50 47 54 70 81 18 91 28 131 124 42 99 46 99 110
-10z"/>
<path d="M7612 5016 c-64 -35 -81 -119 -33 -167 63 -63 141 -13 141 91 0 30
-6 47 -25 65 -27 28 -49 31 -83 11z m48 -50 c0 -25 -12 -46 -26 -46 -9 0 -14
11 -14 30 0 23 4 30 20 30 11 0 20 -6 20 -14z"/>
<path d="M7534 4785 c-9 -22 5 -46 39 -65 36 -20 81 -4 85 32 3 23 -1 26 -35
31 -21 2 -48 8 -60 12 -17 5 -25 3 -29 -10z"/>
<path d="M9400 5720 c-25 -25 -25 -32 -2 -60 25 -31 69 -21 78 17 5 20 2 31
-16 45 -28 23 -35 23 -60 -2z"/>
<path d="M9899 5701 c-61 -62 -19 -161 69 -161 33 0 45 6 67 32 35 41 29 91
-15 131 -41 37 -83 36 -121 -2z m91 -66 c0 -31 -26 -43 -46 -23 -20 20 -7 48
22 48 19 0 24 -5 24 -25z"/>
<path d="M8790 5510 c-24 -24 -24 -29 -4 -58 26 -37 94 -20 94 24 0 19 -36 54
-55 54 -8 0 -24 -9 -35 -20z"/>
<path d="M82 5498 c-24 -24 -11 -78 18 -78 35 0 50 12 50 39 0 30 -16 51 -40
51 -9 0 -21 -5 -28 -12z"/>
<path d="M9162 5380 c-36 -22 -80 -87 -140 -207 -23 -45 -46 -84 -51 -87 -5
-4 -48 -13 -95 -21 -118 -21 -194 -51 -238 -95 -74 -74 -48 -141 107 -272 47
-40 84 -77 81 -84 -14 -37 -37 -232 -31 -270 8 -56 46 -101 91 -110 43 -8 126
20 241 82 44 24 87 44 95 44 7 0 58 -27 112 -60 149 -90 196 -97 252 -38 29
29 29 30 29 161 0 73 -3 146 -7 163 -6 29 -3 34 40 65 115 82 182 165 182 225
0 36 -34 89 -73 113 -18 11 -84 34 -147 51 -63 17 -123 36 -133 43 -10 7 -40
62 -67 122 -61 135 -116 195 -177 195 -21 0 -53 -9 -71 -20z m92 -187 c13 -27
38 -83 56 -127 47 -114 59 -124 160 -141 108 -19 190 -44 190 -59 0 -11 -32
-37 -146 -119 -80 -57 -77 -50 -54 -182 21 -126 24 -165 13 -165 -5 0 -39 18
-78 40 -38 22 -93 52 -122 67 l-52 27 -118 -61 c-151 -78 -163 -81 -163 -51 0
13 12 76 27 141 19 86 24 123 17 135 -6 10 -39 39 -75 65 -106 79 -139 108
-139 121 0 15 58 30 194 51 55 9 104 19 108 21 5 3 34 58 64 122 54 115 80
162 89 162 3 0 15 -21 29 -47z"/>
<path d="M1462 5368 c-28 -28 -3 -72 39 -66 30 4 47 33 33 56 -14 21 -55 27
-72 10z"/>
<path d="M8410 5345 c-18 -22 -4 -64 24 -71 50 -12 88 40 54 74 -17 17 -63 15
-78 -3z"/>
<path d="M961 5254 c-12 -9 -38 -40 -56 -68 -32 -50 -37 -53 -109 -74 -113
-33 -120 -69 -28 -154 l40 -37 -5 -78 c-5 -70 -3 -80 15 -97 20 -17 23 -17 71
-1 28 9 53 21 56 26 11 16 54 10 105 -16 90 -46 110 -30 110 85 0 72 0 72 50
129 28 32 50 67 50 79 0 27 -34 50 -100 67 -58 15 -85 35 -107 80 -16 31 -52
75 -63 75 -3 0 -16 -7 -29 -16z m58 -143 c29 -47 33 -50 92 -62 l62 -12 -48
-45 -47 -45 6 -64 7 -64 -31 16 c-66 34 -75 35 -130 9 -28 -13 -53 -24 -55
-24 -2 0 -1 27 2 59 6 59 5 61 -36 107 -45 52 -42 64 15 64 38 0 74 26 99 74
11 20 23 36 26 36 4 0 21 -22 38 -49z"/>
<path d="M10051 5204 c-38 -27 -22 -84 25 -84 29 0 46 23 42 56 -4 34 -37 48
-67 28z"/>
<path d="M1404 4672 c-12 -2 -32 -14 -45 -28 -54 -57 -10 -149 71 -149 54 0
85 31 85 84 0 63 -48 103 -111 93z m46 -87 c0 -20 -5 -25 -25 -25 -20 0 -25 5
-25 25 0 20 5 25 25 25 20 0 25 -5 25 -25z"/>
<path d="M334 4566 c-12 -8 -31 -42 -43 -75 -20 -56 -24 -60 -69 -75 -63 -21
-112 -52 -112 -71 0 -9 25 -39 55 -68 l54 -52 3 -80 c3 -79 3 -80 31 -83 15
-2 52 8 83 22 l56 26 45 -20 c25 -11 58 -20 73 -20 45 0 53 20 46 108 l-7 77
36 35 c20 19 43 47 50 61 21 39 2 57 -80 74 -73 15 -72 14 -138 105 -37 50
-53 57 -83 36z"/>
<path d="M6632 4478 c-30 -30 -3 -83 39 -76 32 5 45 31 31 62 -13 28 -49 35
-70 14z"/>
<path d="M5682 4354 c-42 -29 -19 -94 33 -94 29 0 59 41 51 68 -4 10 -18 24
-32 30 -31 15 -25 15 -52 -4z"/>
<path d="M8339 4323 c-7 -7 -9 -28 -6 -48 3 -20 0 -53 -8 -75 l-14 -40 38 -10
c21 -5 46 -19 56 -30 24 -27 51 -25 70 3 8 13 33 29 55 36 22 6 40 14 40 18 0
5 -24 83 -42 134 -9 26 -12 27 -94 26 -58 0 -87 -4 -95 -14z m127 -85 c-12
-59 -49 -62 -54 -5 -3 36 -2 37 29 37 30 0 31 -1 25 -32z"/>
<path d="M9929 4257 c-16 -20 -43 -38 -68 -45 -39 -12 -40 -14 -29 -40 6 -15
11 -49 12 -77 l1 -50 47 3 c28 2 58 -3 76 -12 34 -18 45 -11 56 39 4 17 19 43
34 58 l26 28 -40 37 c-23 20 -49 49 -58 65 -9 15 -20 27 -24 27 -4 0 -19 -15
-33 -33z m39 -110 c3 -22 -1 -27 -18 -27 -26 0 -37 25 -20 45 18 22 34 13 38
-18z"/>
<path d="M996 4221 c-21 -24 -18 -49 9 -67 44 -29 97 32 60 70 -22 21 -48 20
-69 -3z"/>
<path d="M2445 4066 c-19 -19 -24 -32 -20 -49 8 -27 41 -57 64 -57 31 0 61 30
61 60 0 27 -22 60 -40 60 -5 0 -15 3 -24 6 -9 3 -26 -5 -41 -20z"/>
<path d="M1432 3935 c-17 -25 -38 -45 -45 -45 -8 0 -26 -9 -41 -21 l-26 -20
30 -37 c19 -24 32 -54 36 -85 7 -50 13 -53 62 -36 21 7 42 7 67 0 52 -14 65
-6 65 41 0 29 9 52 31 83 17 24 29 48 25 53 -3 5 -25 14 -49 20 -35 9 -47 19
-66 52 -13 23 -30 40 -40 40 -9 0 -31 -20 -49 -45z m62 -80 c3 -8 13 -15 23
-15 13 0 14 -3 5 -12 -7 -7 -12 -20 -12 -30 0 -28 -48 -24 -61 6 -9 19 -8 28
7 44 23 25 30 26 38 7z"/>
<path d="M5610 3905 c-10 -36 -20 -49 -56 -70 -24 -14 -44 -30 -44 -35 0 -12
31 -44 55 -57 11 -6 19 -27 22 -56 6 -53 21 -59 75 -31 26 13 38 14 70 5 52
-16 61 -8 55 48 -4 37 0 54 21 90 25 42 25 44 7 57 -10 8 -31 14 -45 14 -17 0
-39 14 -65 40 -53 55 -79 53 -95 -5z m74 -80 c3 -8 15 -15 26 -15 24 0 24 1 4
-38 -20 -41 -53 -43 -74 -5 -14 25 -13 29 5 50 24 27 31 28 39 8z"/>
<path d="M8312 3849 c-18 -7 -23 -15 -20 -36 3 -27 5 -28 58 -28 54 0 55 0 58
31 3 26 -1 33 -20 38 -30 8 -48 7 -76 -5z"/>
<path d="M8494 3846 c-15 -38 0 -51 58 -54 48 -3 57 0 62 16 13 39 -3 52 -60
52 -38 0 -56 -4 -60 -14z"/>
<path d="M8695 3829 c-12 -36 23 -55 92 -51 26 2 40 37 23 57 -8 9 -31 15 -61
15 -40 0 -49 -3 -54 -21z"/>
<path d="M8105 3817 c-13 -10 -16 -21 -11 -40 5 -23 12 -27 45 -27 50 0 86 28
77 58 -6 18 -15 22 -50 22 -23 0 -50 -6 -61 -13z"/>
<path d="M8908 3819 c-43 -25 -2 -79 59 -79 27 0 34 5 39 26 4 16 2 30 -7 39
-20 18 -71 27 -91 14z"/>
<path d="M2078 3790 c-26 -27 -30 -36 -25 -68 7 -41 55 -92 87 -92 64 0 110
67 89 129 -23 65 -100 81 -151 31z m87 -44 c19 -14 19 -15 1 -34 -19 -22 -41
-20 -50 5 -6 15 9 43 23 43 4 0 16 -6 26 -14z"/>
<path d="M7920 3770 c-26 -26 -25 -36 3 -54 23 -16 53 -12 91 10 14 9 17 18
12 38 -6 23 -12 26 -46 26 -27 0 -47 -7 -60 -20z"/>
<path d="M9092 3768 c-29 -29 3 -65 63 -70 38 -3 40 -1 43 27 3 19 -2 33 -14
42 -22 16 -76 17 -92 1z"/>
<path d="M210 3752 c-13 -10 -29 -44 -39 -82 -18 -63 -19 -65 -75 -94 -32 -16
-64 -40 -73 -53 -14 -22 -14 -25 3 -44 11 -12 41 -32 67 -45 51 -27 67 -52 67
-110 0 -90 47 -97 140 -23 32 26 39 28 73 18 21 -5 54 -9 75 -7 34 3 37 6 40
35 2 17 -4 55 -12 83 l-15 52 34 51 c60 88 44 117 -66 117 l-62 0 -57 60 c-32
33 -62 60 -68 60 -5 0 -20 -8 -32 -18z"/>
<path d="M7742 3724 c-26 -18 -26 -51 0 -67 11 -8 28 -7 58 3 49 16 53 21 40
54 -8 21 -16 26 -43 26 -18 0 -43 -7 -55 -16z"/>
<path d="M9288 3719 c-10 -5 -18 -20 -18 -33 0 -17 10 -28 41 -41 46 -21 72
-13 77 23 5 34 -67 71 -100 51z"/>
<path d="M7559 3651 c-21 -16 -22 -22 -11 -45 8 -18 19 -26 36 -26 59 0 102
44 76 75 -17 21 -73 19 -101 -4z"/>
<path d="M9462 3638 c-29 -29 -2 -68 60 -83 20 -5 29 -2 37 13 15 27 5 50 -30
67 -34 18 -51 19 -67 3z"/>
<path d="M7410 3582 c-38 -18 -49 -44 -30 -67 16 -19 43 -19 80 0 33 17 39 45
14 69 -19 20 -21 20 -64 -2z"/>
<path d="M6571 3558 c-17 -45 39 -87 75 -58 17 15 18 52 2 68 -21 21 -68 15
-77 -10z"/>
<path d="M9630 3555 c-19 -23 -8 -47 34 -68 28 -15 43 -18 55 -10 28 17 25 49
-7 72 -35 25 -65 27 -82 6z"/>
<path d="M8420 3501 c-18 -35 4 -63 47 -59 21 2 41 10 47 21 17 26 -4 51 -47
55 -28 2 -38 -1 -47 -17z"/>
<path d="M8600 3500 c-8 -15 -6 -24 10 -40 33 -33 110 -19 110 20 0 39 -101
56 -120 20z"/>
<path d="M7243 3494 c-64 -32 -48 -93 21 -80 47 9 71 42 52 71 -18 26 -34 28
-73 9z"/>
<path d="M8254 3501 c-17 -4 -36 -11 -42 -15 -17 -10 -15 -41 3 -56 17 -14 79
-8 101 11 15 13 19 59 5 59 -5 0 -15 2 -23 4 -7 2 -27 1 -44 -3z"/>
<path d="M8808 3499 c-21 -12 -24 -42 -5 -57 22 -17 77 -25 92 -12 18 15 19
44 3 58 -21 16 -72 22 -90 11z"/>
<path d="M9800 3462 c-29 -23 -17 -50 34 -77 29 -16 37 -17 50 -6 31 26 15 61
-41 90 -17 9 -26 7 -43 -7z"/>
<path d="M8031 3457 c-44 -15 -60 -39 -41 -62 10 -12 23 -15 48 -11 35 5 82
31 82 44 -1 31 -43 45 -89 29z"/>
<path d="M8992 3461 c-26 -16 -9 -54 30 -69 48 -18 68 -10 68 27 0 24 -6 31
-31 40 -38 13 -50 13 -67 2z"/>
<path d="M9183 3413 c-7 -2 -13 -16 -13 -29 0 -44 102 -74 115 -34 8 27 -1 39
-41 56 -35 15 -41 15 -61 7z"/>
<path d="M7807 3396 c-37 -17 -48 -35 -35 -59 11 -21 44 -20 101 2 23 9 28 16
25 39 -2 22 -8 27 -33 29 -16 1 -43 -4 -58 -11z"/>
<path d="M7070 3371 l-35 -29 24 -26 c14 -14 28 -26 33 -26 5 0 25 16 46 34
31 29 35 38 26 53 -18 29 -55 27 -94 -6z"/>
<path d="M1405 3364 c-284 -41 -596 -169 -815 -333 -130 -97 -296 -268 -374
-386 -68 -102 -153 -276 -190 -389 l-26 -78 0 -474 0 -473 31 -78 c194 -488
554 -828 1044 -986 189 -61 268 -71 545 -72 217 0 257 3 346 23 134 29 266 74
390 132 452 212 782 638 880 1135 22 112 25 431 6 545 -46 262 -132 486 -265
685 -250 376 -597 620 -1027 722 -90 21 -133 25 -310 28 -113 2 -218 1 -235
-1z m458 -150 c237 -45 511 -177 700 -338 74 -63 97 -98 97 -148 0 -102 59
-178 152 -197 52 -11 59 -16 87 -59 17 -26 48 -86 70 -133 182 -395 198 -826
44 -1199 -84 -204 -155 -310 -317 -475 -115 -116 -232 -198 -401 -280 -217
-105 -399 -153 -605 -161 -131 -5 -134 -4 -105 12 22 13 66 19 161 24 72 4
136 10 142 14 5 3 69 22 142 41 142 38 259 81 328 121 64 38 44 40 -28 4 -55
-28 -259 -100 -282 -100 -5 0 -2 13 7 30 23 44 18 69 -19 106 -45 45 -99 48
-139 6 -37 -38 -36 -86 2 -139 l30 -41 -29 -6 c-59 -11 -251 -28 -257 -22 -12
12 6 18 64 22 112 8 158 15 173 25 16 11 -114 6 -194 -8 -36 -6 -38 -5 -27 14
8 17 25 22 83 28 110 11 126 24 21 18 l-92 -6 -6 39 c-12 73 -26 103 -66 143
-57 57 -113 81 -185 81 -134 -1 -234 -99 -234 -229 0 -50 0 -50 -26 -40 -37
14 -42 4 -7 -16 26 -15 26 -15 3 -9 -53 14 -229 87 -297 124 -89 48 -208 135
-287 209 -91 87 -274 332 -291 391 -4 14 -16 34 -26 45 -10 11 -34 64 -54 118
-39 108 -48 157 -11 62 35 -92 129 -272 183 -352 61 -92 179 -229 246 -286 50
-43 206 -150 257 -177 50 -27 224 -99 228 -96 5 6 -42 31 -156 83 -282 128
-510 365 -672 697 -44 89 -82 175 -86 191 -12 53 11 16 71 -117 32 -70 67
-135 77 -145 11 -10 -5 36 -42 116 -33 73 -60 136 -60 140 0 4 26 15 58 24 70
19 126 69 162 143 32 68 34 172 3 230 -93 176 -343 49 -343 -172 0 -43 8 -85
25 -130 27 -71 33 -109 10 -59 -28 63 -16 -15 20 -124 62 -184 185 -385 334
-544 86 -91 246 -214 341 -262 74 -37 259 -114 337 -139 28 -9 57 -24 63 -32
17 -19 16 -19 -117 27 -363 127 -604 311 -812 621 -85 128 -169 318 -206 466
-34 140 -42 404 -16 547 l7 40 8 -30 c11 -45 44 -75 82 -75 46 0 94 56 94 110
0 110 -137 131 -170 26 -21 -66 1 48 26 137 21 76 93 260 107 273 3 3 22 -6
42 -21 45 -30 83 -32 134 -5 56 28 95 64 130 119 61 94 50 193 -25 228 -19 9
-33 20 -32 24 2 4 37 37 78 74 240 215 576 364 895 399 72 7 317 -5 398 -20z
m-1344 -556 c42 -73 -100 -243 -175 -210 -33 16 -41 70 -19 128 41 107 153
155 194 82z m2267 -30 c20 -38 18 -41 -12 -22 -25 17 -54 62 -54 85 0 17 49
-30 66 -63z m-2568 -646 c3 -26 -1 -34 -23 -44 -22 -10 -28 -9 -35 3 -5 8 -7
23 -4 34 17 55 57 59 62 7z m151 -228 c30 -21 51 -73 50 -121 l-1 -38 -8 46
c-10 57 -22 82 -56 108 -31 25 -19 28 15 5z m-60 -29 c56 -28 71 -97 45 -201
-10 -40 14 -21 38 30 16 34 18 36 13 11 -15 -72 -89 -145 -148 -145 -57 0
-107 91 -92 169 9 50 40 105 71 130 32 25 37 25 73 6z m1207 -1185 c71 -45
100 -123 70 -193 -21 -51 -68 -70 -158 -65 -55 3 -75 9 -110 34 -101 70 -81
208 36 244 45 14 122 4 162 -20z m478 -102 c13 -19 14 -25 2 -43 -18 -26 -40
-30 -60 -10 -20 21 -20 39 0 59 21 22 40 20 58 -6z"/>
<path d="M1329 3182 c-66 -34 -99 -80 -99 -136 0 -51 18 -78 66 -101 76 -36
192 -11 246 54 111 131 -50 268 -213 183z m151 -42 c11 -6 24 -19 30 -30 26
-48 -57 -120 -138 -120 -44 0 -92 31 -92 59 0 65 134 126 200 91z"/>
<path d="M2027 3120 c-15 -12 -27 -25 -27 -30 0 -18 33 -40 59 -40 36 0 53 21
49 57 -4 37 -43 43 -81 13z m42 -25 c3 -12 -13 -9 -17 4 -2 7 0 11 6 7 5 -3
10 -8 11 -11z"/>
<path d="M1055 3121 c-35 -15 -76 -67 -82 -104 -5 -31 -1 -40 26 -68 27 -26
37 -31 66 -26 70 11 119 70 108 129 -10 50 -73 88 -118 69z m55 -60 c0 -5 3
-16 6 -24 3 -9 -4 -25 -15 -36 -25 -25 -71 -28 -71 -5 0 19 19 56 34 66 16 11
46 10 46 -1z"/>
<path d="M1825 2962 c-66 -23 -108 -54 -144 -105 -37 -54 -44 -79 -42 -145 2
-106 68 -202 171 -251 75 -36 190 -36 268 -2 96 43 151 131 152 242 0 123 -71
217 -195 258 -79 25 -143 26 -210 3z m222 -70 c46 -25 98 -77 112 -115 25 -66
6 -164 -42 -215 -64 -69 -187 -88 -280 -43 -90 44 -158 154 -141 229 17 74 77
139 152 163 43 14 155 3 199 -19z"/>
<path d="M1867 2876 c-94 -26 -147 -87 -147 -171 0 -32 5 -57 14 -64 11 -9 14
-2 19 40 15 128 148 191 260 126 65 -38 87 -75 96 -155 l8 -67 17 39 c12 27
16 50 11 75 -25 132 -149 211 -278 177z"/>
<path d="M2372 2827 c-69 -73 55 -210 147 -162 66 33 54 117 -24 165 -44 27
-96 26 -123 -3z m118 -64 c26 -33 21 -49 -16 -46 -30 2 -64 34 -64 59 0 26 57
17 80 -13z"/>
<path d="M689 2810 c-23 -23 -29 -35 -24 -52 10 -33 21 -41 54 -41 56 0 94 57
66 99 -22 33 -60 31 -96 -6z m56 -40 c-3 -5 -10 -10 -16 -10 -5 0 -9 5 -9 10
0 6 7 10 16 10 8 0 12 -4 9 -10z"/>
<path d="M808 2641 c-148 -58 -246 -187 -256 -336 -8 -127 48 -229 154 -281
47 -23 63 -26 126 -22 178 10 318 139 348 322 16 100 -7 181 -71 251 -73 79
-198 106 -301 66z m161 -47 c109 -32 176 -145 153 -260 -32 -157 -153 -266
-297 -268 -204 -3 -282 254 -129 424 62 69 142 116 205 119 8 1 39 -6 68 -15z"/>
<path d="M833 2555 c-51 -22 -42 -38 19 -33 69 7 111 -6 153 -47 49 -49 59
-98 40 -180 -18 -77 -17 -75 -7 -75 5 0 19 19 32 43 35 60 34 147 -2 209 -48
81 -154 118 -235 83z"/>
<path d="M2415 2496 c-48 -48 -21 -126 43 -126 33 0 57 23 67 61 5 19 0 33
-17 52 -35 39 -63 43 -93 13z m47 -68 c-15 -15 -26 -4 -18 18 5 13 9 15 18 6
9 -9 9 -15 0 -24z"/>
<path d="M2724 2396 c-62 -27 -80 -120 -34 -179 86 -108 243 12 170 130 -30
51 -85 70 -136 49z m86 -88 c19 -34 5 -62 -33 -66 -37 -5 -65 38 -48 74 15 34
59 30 81 -8z"/>
<path d="M1385 2321 c-99 -45 -132 -146 -82 -242 56 -106 183 -118 264 -26 75
86 49 222 -51 268 -52 23 -81 23 -131 0z m109 -45 c19 -8 37 -20 41 -27 5 -7
-2 -5 -16 4 -41 30 -86 22 -130 -22 -25 -25 -39 -48 -39 -65 0 -36 13 -33 50
14 26 33 38 40 66 40 25 0 38 -6 51 -26 16 -25 17 -25 30 -8 12 17 13 17 13
-1 0 -10 -9 -38 -20 -61 -24 -49 -76 -80 -117 -69 -34 8 -79 57 -86 92 -9 50
38 124 88 136 33 8 34 8 69 -7z"/>
<path d="M2320 2191 c-85 -17 -160 -74 -202 -154 -33 -61 -32 -183 1 -250 51
-104 141 -162 251 -161 84 0 144 28 204 95 130 145 86 366 -89 444 -58 26
-116 35 -165 26z m126 -161 c43 -27 78 -98 69 -142 -29 -138 -185 -173 -261
-59 -51 78 -27 166 56 209 51 26 83 24 136 -8z"/>
<path d="M2960 2091 c0 -6 5 -13 10 -16 6 -3 10 1 10 9 0 9 -4 16 -10 16 -5 0
-10 -4 -10 -9z"/>
<path d="M2869 2064 c-7 -9 -13 -31 -13 -49 0 -43 19 -65 55 -65 52 0 75 72
37 117 -15 18 -63 16 -79 -3z m51 -44 c0 -5 -4 -10 -10 -10 -5 0 -10 5 -10 10
0 6 5 10 10 10 6 0 10 -4 10 -10z"/>
<path d="M2980 2028 c0 -7 5 -20 10 -28 8 -12 10 -11 10 7 0 12 -4 25 -10 28
-5 3 -10 0 -10 -7z"/>
<path d="M911 1844 c-122 -61 -172 -212 -110 -335 78 -156 289 -185 405 -57
53 59 77 120 72 182 -16 182 -205 290 -367 210z m169 -129 c80 -41 78 -160 -4
-199 -42 -20 -57 -20 -101 -2 -39 17 -65 60 -65 110 0 27 8 44 35 71 40 40 84
46 135 20z"/>
<path d="M2896 1759 c-56 -44 -70 -110 -36 -167 36 -58 116 -73 166 -31 24 20
26 5 9 -87 -15 -84 -25 -123 -62 -252 -29 -102 -23 -45 8 72 18 69 29 134 27
159 l-4 42 -7 -40 c-26 -134 -60 -264 -69 -262 -6 1 -17 -14 -25 -33 -12 -32
-12 -33 2 -16 18 23 18 21 6 -22 -13 -42 -6 -41 18 6 11 20 20 33 21 29 0 -12
-30 -68 -55 -102 -13 -16 -32 -51 -43 -77 -21 -49 -133 -210 -140 -203 -2 2
17 34 42 70 51 74 91 147 112 209 14 40 14 40 -3 19 -10 -13 -49 -80 -88 -150
-58 -105 -88 -146 -173 -237 -56 -60 -100 -111 -98 -114 7 -6 106 68 106 79 0
5 8 9 17 9 26 0 -19 -43 -104 -101 -78 -53 -111 -87 -47 -50 130 76 301 239
387 369 128 193 237 514 237 695 0 96 -17 71 -23 -34 -13 -219 -136 -536 -275
-711 -77 -96 -132 -141 -132 -106 0 18 31 47 45 42 25 -10 145 167 235 346 69
136 116 343 122 534 3 76 2 78 -30 107 -41 37 -105 40 -146 8z m108 -55 c23
-23 19 -61 -9 -89 -29 -30 -49 -31 -75 -5 -24 24 -25 41 -5 80 12 23 23 30 45
30 16 0 36 -7 44 -16z"/>
<path d="M1798 1734 c-35 -18 -68 -82 -68 -129 0 -79 61 -139 140 -139 81 0
140 60 140 144 0 53 -21 93 -63 119 -41 25 -109 27 -149 5z m129 -66 c52 -48
12 -138 -61 -138 -68 0 -99 87 -50 141 24 26 81 25 111 -3z"/>
<path d="M2956 1429 c-8 -62 -56 -206 -101 -305 -19 -41 -32 -74 -30 -74 11 0
88 168 115 248 32 99 47 182 32 182 -5 0 -12 -23 -16 -51z"/>
<path d="M1379 1432 c-138 -89 -105 -301 54 -343 118 -32 226 47 235 170 5 70
-20 126 -74 168 -30 22 -49 28 -103 31 -59 3 -71 0 -112 -26z m162 -47 c35
-19 69 -70 69 -104 0 -45 -38 -108 -77 -126 -115 -55 -227 83 -155 193 32 49
106 66 163 37z"/>
<path d="M2544 1449 c-61 -18 -114 -103 -114 -184 0 -17 10 -51 23 -75 74
-148 266 -108 297 62 15 80 -25 152 -105 189 -44 21 -55 21 -101 8z m97 -66
c83 -49 72 -175 -18 -218 -33 -16 -39 -16 -69 -2 -41 20 -66 66 -62 115 2 28
10 40 34 54 26 15 36 17 58 7 24 -11 66 -80 66 -108 0 -7 5 -9 11 -5 7 4 9 24
6 51 -5 49 -34 87 -82 108 l-30 13 28 1 c16 1 42 -7 58 -16z"/>
<path d="M554 1211 c-87 -53 -114 -159 -66 -256 59 -121 183 -140 269 -42 41
47 61 128 43 181 -14 45 -62 101 -101 122 -39 20 -108 18 -145 -5z m134 -57
c31 -21 62 -73 62 -107 0 -66 -59 -137 -115 -137 -28 0 -81 34 -101 65 -25 38
-24 117 1 145 52 59 99 69 153 34z"/>
<path d="M574 1121 c-25 -15 -54 -63 -54 -87 0 -13 23 1 53 31 19 19 44 35 56
35 12 0 39 -16 61 -36 l40 -36 0 27 c0 16 -11 38 -29 56 -35 35 -81 38 -127
10z"/>
<path d="M2124 1200 c-81 -41 -113 -155 -65 -234 26 -42 85 -76 132 -76 44 0
106 37 132 80 30 48 30 138 1 176 -52 70 -128 91 -200 54z m111 -55 c76 -37
70 -147 -11 -181 -56 -24 -104 0 -124 62 -14 41 9 97 49 119 34 18 46 18 86 0z"/>
<path d="M1073 960 c-42 -25 -66 -74 -67 -130 0 -123 142 -184 230 -99 98 95
40 249 -93 249 -21 0 -52 -9 -70 -20z m120 -60 c35 -28 41 -53 22 -94 -31 -64
-111 -73 -140 -15 -21 39 -12 82 22 109 33 25 63 25 96 0z"/>
<path d="M430 921 c0 -18 92 -133 167 -208 92 -92 265 -213 305 -213 43 0 76
20 93 57 23 47 13 95 -26 127 -40 34 -80 33 -120 -2 -25 -23 -32 -36 -33 -70
0 -23 -3 -42 -7 -42 -3 0 -37 22 -75 49 -81 57 -208 185 -219 221 -12 39 -85
109 -85 81z m516 -298 c9 -35 -7 -58 -42 -58 -22 0 -30 5 -32 22 -8 58 61 91
74 36z"/>
<path d="M1774 901 c-62 -28 -84 -63 -84 -131 0 -158 174 -228 274 -110 71 84
48 197 -48 241 -52 23 -90 23 -142 0z m151 -66 c14 -13 25 -29 25 -36 0 -6 -8
-2 -17 10 -20 24 -78 37 -117 27 -13 -3 -39 -18 -57 -33 -28 -24 -30 -24 -21
-6 35 66 139 87 187 38z m-31 -55 c55 -21 38 -101 -24 -115 -39 -8 -87 10 -96
37 -20 64 45 107 120 78z"/>
<path d="M2630 885 c-19 -23 -8 -50 22 -53 29 -3 54 27 44 54 -7 18 -50 18
-66 -1z"/>
<path d="M575 795 c25 -43 60 -78 113 -115 l47 -32 -45 42 c-25 23 -65 63 -88
88 -34 36 -40 40 -27 17z"/>
<path d="M2353 786 c-43 -20 -73 -70 -73 -123 0 -33 7 -50 31 -78 22 -24 27
-36 17 -39 -46 -14 -109 -39 -113 -46 -3 -4 18 -2 46 5 81 22 43 -2 -67 -41
-132 -47 -152 -66 -34 -32 59 17 220 90 220 99 0 5 11 9 23 9 30 0 97 48 121
86 11 16 37 51 59 77 22 26 37 50 34 53 -11 11 -45 -16 -57 -46 -7 -16 -15
-30 -19 -30 -3 0 -13 18 -22 39 -28 66 -102 96 -166 67z m92 -71 c30 -29 31
-45 4 -79 -44 -56 -134 -17 -110 47 10 27 47 57 69 57 7 0 24 -11 37 -25z"/>
<path d="M2650 769 c0 -5 5 -7 10 -4 6 3 10 8 10 11 0 2 -4 4 -10 4 -5 0 -10
-5 -10 -11z"/>
<path d="M2435 533 c-49 -34 -248 -119 -298 -128 -20 -4 -40 -11 -43 -16 -26
-43 282 74 361 136 41 34 27 40 -20 8z"/>
<path d="M940 489 c0 -12 155 -87 201 -96 44 -8 30 12 -19 28 -20 6 -59 23
-85 36 -72 36 -97 44 -97 32z"/>
<path d="M9958 3359 c-28 -16 -21 -46 18 -75 41 -32 67 -25 72 18 2 19 -5 31
-26 47 -34 24 -40 25 -64 10z"/>
<path d="M6244 3350 c-12 -5 -39 -30 -60 -57 -53 -67 -58 -70 -122 -78 -113
-13 -129 -52 -57 -136 28 -33 43 -59 40 -69 -4 -8 -9 -44 -12 -79 -5 -53 -3
-66 11 -76 18 -14 70 -6 131 19 32 14 35 13 85 -25 54 -40 89 -49 109 -26 6 8
14 46 17 86 7 72 8 73 48 98 120 75 116 119 -18 164 -56 19 -56 19 -88 103
-25 65 -51 89 -84 76z"/>
<path d="M9360 3330 c-9 -18 -8 -25 5 -40 27 -30 72 -45 90 -30 34 28 7 70
-57 85 -21 5 -29 2 -38 -15z"/>
<path d="M7625 3325 c-21 -8 -47 -23 -59 -34 -20 -21 -20 -21 -1 -41 17 -17
26 -18 56 -10 43 12 82 51 74 73 -10 23 -27 26 -70 12z"/>
<path d="M6913 3246 c-32 -29 -36 -38 -27 -53 18 -29 49 -27 89 8 43 38 45 72
3 77 -20 2 -37 -6 -65 -32z"/>
<path d="M9537 3253 c-18 -18 -5 -53 27 -72 43 -27 62 -26 77 1 10 19 8 25
-20 50 -29 26 -69 36 -84 21z"/>
<path d="M10102 3238 c-18 -18 -14 -42 11 -65 30 -28 57 -36 73 -22 21 17 17
43 -11 73 -26 28 -54 33 -73 14z"/>
<path d="M7393 3203 c-44 -28 -53 -49 -31 -71 18 -18 39 -14 83 16 28 20 40
35 40 52 0 36 -40 37 -92 3z"/>
<path d="M8408 3179 c-40 -23 -14 -69 40 -69 61 0 92 36 60 68 -15 15 -76 15
-100 1z"/>
<path d="M8612 3178 c-33 -33 -1 -68 62 -68 31 0 56 19 56 44 0 30 -93 49
-118 24z"/>
<path d="M8202 3150 c-18 -8 -23 -16 -20 -37 3 -24 8 -28 38 -31 48 -3 85 17
85 48 0 22 -5 25 -40 27 -22 1 -50 -2 -63 -7z"/>
<path d="M8809 3139 c-17 -32 9 -53 68 -53 45 -1 48 1 51 26 3 22 -2 30 -23
38 -44 17 -83 12 -96 -11z"/>
<path d="M9704 3139 c-19 -21 -19 -21 20 -55 43 -37 58 -41 76 -19 17 21 4 51
-34 75 -41 25 -39 25 -62 -1z"/>
<path d="M5238 3129 c-32 -12 -62 -70 -52 -102 20 -68 107 -92 153 -43 65 69
-11 178 -101 145z m57 -84 c0 -30 -39 -27 -43 3 -3 20 0 23 20 20 15 -2 23
-10 23 -23z"/>
<path d="M10225 3110 c-3 -11 -2 -28 4 -37 8 -15 10 -11 11 20 0 41 -5 47 -15
17z"/>
<path d="M9025 3106 c-29 -21 -14 -49 38 -70 43 -18 49 -18 63 -4 19 19 11 53
-14 63 -48 20 -71 23 -87 11z"/>
<path d="M7207 3085 c-41 -28 -48 -58 -17 -75 23 -12 63 4 93 38 15 16 16 24
7 41 -14 28 -37 26 -83 -4z"/>
<path d="M7994 3100 c-30 -12 -36 -24 -25 -53 9 -22 13 -24 48 -18 58 11 85
29 81 54 -2 18 -10 22 -43 24 -22 1 -50 -2 -61 -7z"/>
<path d="M9225 3034 c-8 -9 -15 -21 -15 -29 0 -19 48 -47 84 -49 27 -1 31 3
34 26 3 27 -7 37 -62 58 -19 7 -29 6 -41 -6z"/>
<path d="M7780 3018 c-34 -17 -46 -30 -48 -49 -5 -39 22 -43 84 -15 58 27 74
47 54 71 -17 21 -38 19 -90 -7z"/>
<path d="M9866 3024 c-20 -19 -10 -41 35 -78 30 -25 33 -26 50 -10 26 24 24
38 -12 73 -34 35 -50 38 -73 15z"/>
<path d="M7034 2956 c-33 -29 -37 -36 -25 -49 22 -27 49 -30 80 -7 35 24 47
55 31 75 -19 23 -43 18 -86 -19z"/>
<path d="M9400 2945 c-18 -22 -8 -47 29 -72 41 -28 57 -29 71 -4 14 27 4 47
-35 71 -39 24 -49 25 -65 5z"/>
<path d="M7585 2911 c-70 -32 -95 -80 -50 -98 19 -7 77 23 108 55 16 18 19 27
11 39 -15 24 -24 25 -69 4z"/>
<path d="M10010 2885 c-10 -12 -8 -21 8 -47 12 -18 31 -39 43 -46 19 -12 24
-11 41 6 19 18 19 21 4 50 -25 49 -71 67 -96 37z"/>
<path d="M8435 2884 c-214 -23 -502 -130 -673 -251 -37 -26 -114 -95 -172
-153 -234 -233 -383 -542 -406 -839 -7 -94 -16 -121 -41 -121 -21 0 -230 -84
-315 -126 -79 -40 -84 -40 -91 -14 -11 42 -67 32 -67 -12 0 -12 -33 -52 -80
-96 -84 -82 -110 -127 -110 -192 0 -99 71 -159 247 -210 73 -21 89 -33 125
-99 14 -26 20 -29 40 -22 20 7 23 15 21 51 l-2 43 61 -7 c33 -3 119 -6 189 -6
l128 0 48 -62 c212 -276 448 -442 776 -547 169 -54 254 -64 497 -58 165 4 237
10 310 26 205 44 433 145 596 262 115 82 271 240 357 359 113 159 216 391 257
580 14 60 37 92 81 110 27 12 29 16 29 72 0 33 -3 58 -7 56 -5 -2 -44 -22 -88
-44 -44 -22 -118 -56 -165 -74 -101 -41 -136 -70 -120 -100 17 -33 38 -35 106
-13 l64 21 -6 -26 c-32 -131 -126 -337 -210 -462 -82 -121 -127 -174 -229
-269 -197 -183 -433 -304 -708 -363 -84 -18 -136 -22 -297 -22 -218 -1 -284 9
-470 71 -233 77 -402 184 -572 362 -105 109 -127 139 -106 145 59 16 73 23 76
41 5 43 -10 49 -110 44 -51 -2 -190 -3 -308 -3 -173 2 -234 6 -312 22 -164 34
-239 89 -223 164 7 32 77 114 128 150 l28 20 -26 -37 c-18 -27 -25 -51 -25
-84 0 -40 5 -52 33 -79 19 -18 56 -41 84 -52 148 -56 628 -49 968 14 44 9 85
15 92 16 6 0 49 -31 95 -70 100 -83 222 -149 343 -186 80 -24 107 -27 250 -28
138 -1 171 2 245 22 281 77 484 239 608 488 22 44 46 85 54 91 7 6 47 20 88
32 182 50 397 132 609 232 l111 52 0 66 0 66 -143 -70 c-78 -39 -183 -88 -232
-109 -103 -43 -324 -120 -372 -129 -32 -6 -33 -5 -33 26 0 38 18 51 120 90
168 63 301 149 314 202 24 94 -110 122 -342 72 -62 -13 -114 -21 -116 -18 -2
3 -6 18 -9 32 l-7 26 153 32 c183 38 387 68 511 76 163 11 156 7 156 70 l0 55
-77 0 c-43 0 -134 -7 -203 -15 -118 -14 -126 -14 -138 2 -7 10 -41 58 -75 108
-149 215 -391 405 -649 509 -167 67 -273 88 -458 91 -91 2 -183 1 -205 -1z
m355 -119 c174 -29 349 -100 518 -212 134 -89 336 -292 385 -389 l16 -30 -165
-39 c-90 -21 -166 -36 -168 -34 -2 2 -27 39 -55 81 -91 136 -236 251 -399 318
-267 109 -608 78 -867 -77 -88 -54 -231 -202 -284 -296 -55 -97 -97 -218 -114
-328 l-13 -84 -179 -52 c-99 -29 -180 -51 -181 -50 -6 6 29 202 47 267 49 181
183 402 336 557 285 287 726 432 1123 368z m-70 -349 c278 -51 513 -246 613
-509 29 -78 31 -90 32 -227 0 -126 -3 -154 -23 -214 -75 -225 -219 -392 -427
-496 -123 -61 -189 -79 -326 -87 -263 -15 -481 67 -651 245 -201 210 -251 513
-132 800 104 252 341 439 619 491 75 13 210 12 295 -3z m996 -601 c-25 -19
-223 -105 -241 -105 -11 0 -15 11 -15 39 l0 40 78 16 c42 9 82 18 87 20 6 2
33 4 60 4 45 0 48 -1 31 -14z m-2068 -282 c-3 -24 -12 -31 -73 -53 -184 -68
-256 -141 -194 -199 43 -40 186 -51 316 -25 27 5 32 2 56 -38 14 -23 24 -44
23 -46 -2 -1 -68 -12 -147 -24 -118 -17 -194 -21 -424 -22 -249 -1 -285 1
-328 17 -26 10 -52 28 -58 39 -9 16 -5 25 27 54 47 45 262 149 427 208 114 41
349 114 370 116 5 0 7 -12 5 -27z m32 -142 c0 -5 3 -16 6 -25 5 -14 -5 -16
-72 -16 -65 1 -75 3 -59 12 51 30 125 47 125 29z"/>
<path d="M8889 1969 c-11 -11 -19 -25 -16 -32 2 -6 32 -17 68 -24 146 -29 131
-29 127 3 -7 63 -131 101 -179 53z"/>
<path d="M8935 1823 c-78 -19 -122 -153 -75 -230 19 -32 66 -63 93 -63 8 0 41
12 73 27 36 16 73 26 98 25 50 -2 79 13 56 27 -12 9 -12 11 3 17 23 8 22 44 0
44 -10 0 -24 -4 -32 -9 -11 -7 -18 2 -31 40 -32 95 -103 142 -185 122z m33
-74 c4 -21 -24 -50 -43 -43 -20 8 -27 34 -14 51 16 18 53 13 57 -8z"/>
<path d="M8065 1808 c-47 -26 -85 -72 -85 -104 0 -48 26 -52 69 -11 20 19 53
44 74 56 20 13 37 28 37 35 0 33 -54 47 -95 24z"/>
<path d="M8080 1622 c-30 -30 -40 -48 -41 -73 -2 -48 1 -90 7 -121 5 -26 4
-27 -30 -21 -41 7 -45 -3 -15 -41 l20 -26 39 20 c30 15 59 20 125 20 78 0 88
2 110 25 20 19 25 34 25 75 0 103 -54 170 -145 178 -53 4 -56 3 -95 -36z m94
-18 c20 -20 20 -38 0 -58 -12 -12 -20 -13 -35 -6 -10 6 -19 12 -19 15 0 2 -3
10 -6 18 -5 14 20 47 36 47 5 0 16 -7 24 -16z"/>
<path d="M9063 1517 c-18 -7 -40 -20 -50 -29 -16 -17 -16 -18 12 -17 45 1 100
24 103 42 4 20 -18 21 -65 4z"/>
<path d="M8685 1424 c-56 -30 -73 -34 -139 -34 -70 0 -77 -2 -92 -25 -48 -73
84 -245 187 -245 76 1 151 59 178 139 27 80 2 181 -48 194 -13 3 -45 -7 -86
-29z m65 -53 c0 -17 -60 -60 -98 -71 -55 -15 -87 -12 -113 10 l-24 19 45 1
c25 0 74 11 110 24 79 28 80 28 80 17z"/>
<path d="M8084 1309 l-19 -22 50 7 c81 11 105 17 105 27 0 5 -26 9 -58 9 -48
0 -63 -4 -78 -21z"/>
<path d="M6909 2847 c-8 -7 -23 -24 -33 -38 -15 -25 -16 -28 -1 -43 24 -23 48
-20 78 12 29 31 34 51 15 70 -15 15 -38 15 -59 -1z"/>
<path d="M9562 2838 c-20 -20 -14 -34 28 -72 44 -39 50 -42 68 -24 21 21 13
45 -23 77 -39 34 -54 38 -73 19z"/>
<path d="M5530 2767 c-11 -18 -36 -41 -55 -50 -44 -21 -44 -32 -1 -58 19 -11
44 -36 55 -55 27 -45 56 -45 77 0 9 18 29 41 45 50 16 9 29 21 29 26 0 12
-107 120 -120 120 -6 0 -19 -15 -30 -33z m39 -98 c-9 -5 -16 -3 -20 9 -8 22
13 36 25 15 5 -10 4 -18 -5 -24z"/>
<path d="M7384 2781 c-48 -30 -70 -59 -58 -79 17 -27 37 -25 82 8 45 32 54 63
24 79 -14 7 -26 5 -48 -8z"/>
<path d="M10141 2736 c-24 -28 27 -96 71 -96 23 0 28 4 28 24 0 30 -45 86 -70
86 -10 0 -23 -6 -29 -14z"/>
<path d="M9733 2713 c-25 -9 -13 -43 31 -89 48 -50 79 -55 84 -15 3 17 -8 36
-39 67 -42 43 -51 48 -76 37z"/>
<path d="M6652 2625 c-11 -8 -28 -35 -37 -60 -15 -37 -15 -48 -5 -60 7 -9 23
-15 34 -13 23 3 66 71 66 105 0 31 -31 46 -58 28z"/>
<path d="M6216 2544 c-21 -21 -20 -47 3 -68 29 -26 73 -17 85 16 18 51 -49 91
-88 52z"/>
<path d="M7210 2512 c-14 -15 -35 -34 -48 -42 l-24 -15 28 -54 c15 -29 33 -55
40 -58 16 -6 121 46 128 64 3 8 -3 28 -14 43 -12 16 -26 43 -31 60 -14 39 -46
40 -79 2z m50 -77 c0 -1 -7 -8 -15 -15 -13 -10 -15 -9 -15 8 0 15 5 20 15 16
8 -4 15 -7 15 -9z"/>
<path d="M9922 2488 c-18 -18 -15 -38 14 -80 28 -40 62 -50 83 -24 10 11 9 21
-4 46 -32 61 -67 84 -93 58z"/>
<path d="M6901 2427 c-33 -53 -23 -97 21 -97 26 0 66 84 52 108 -20 31 -50 26
-73 -11z"/>
<path d="M5266 2365 c-19 -42 -57 -109 -83 -148 -60 -91 -201 -232 -273 -274
-68 -40 -163 -66 -211 -58 -47 8 -96 58 -114 117 -13 43 -12 48 10 81 46 67
256 183 435 242 95 31 114 43 104 69 -6 15 -14 17 -53 11 -115 -17 -394 -151
-482 -233 l-57 -53 -12 38 c-44 135 -119 243 -170 243 -49 0 -60 -25 -70 -164
-9 -136 -28 -189 -80 -228 -14 -10 -90 -37 -170 -59 -245 -70 -407 -151 -558
-280 -83 -70 -102 -100 -82 -124 17 -20 37 -9 109 58 156 144 334 231 631 308
74 19 91 28 131 68 53 54 74 118 85 263 4 64 9 85 18 82 22 -8 55 -77 101
-214 54 -157 73 -196 116 -238 73 -71 181 -70 325 3 152 77 288 226 389 425
55 110 59 134 23 138 -25 3 -30 -3 -62 -73z"/>
<path d="M6547 2413 c-18 -21 -57 -108 -57 -129 0 -7 12 -17 27 -20 32 -8 44
6 74 85 19 53 19 56 3 68 -23 17 -28 16 -47 -4z"/>
<path d="M3523 2381 c-62 -38 -72 -101 -23 -149 49 -49 121 -48 154 3 57 86
-45 199 -131 146z m84 -77 c3 -8 0 -21 -7 -29 -32 -38 -83 3 -54 43 12 18 19
20 35 11 11 -5 23 -17 26 -25z"/>
<path d="M6842 2281 c-16 -9 -42 -75 -42 -105 0 -29 33 -44 55 -26 19 16 49
96 41 109 -11 18 -41 30 -54 22z"/>
<path d="M5847 2182 c-22 -24 -21 -45 1 -65 35 -32 82 -10 82 38 0 42 -54 59
-83 27z"/>
<path d="M6453 2178 c-27 -36 -48 -126 -32 -144 21 -26 48 -16 64 23 21 50 31
123 17 123 -6 0 -17 2 -25 5 -7 3 -18 0 -24 -7z"/>
<path d="M6756 2058 c-24 -37 -31 -102 -12 -117 29 -24 50 -9 69 52 15 46 16
61 7 72 -18 22 -47 18 -64 -7z"/>
<path d="M6383 1917 c-21 -46 -26 -112 -9 -126 27 -22 49 -9 63 39 20 67 14
104 -18 108 -19 2 -28 -3 -36 -21z"/>
<path d="M6700 1820 c-6 -23 -10 -56 -8 -73 2 -26 8 -33 30 -35 24 -3 28 1 38
38 6 23 10 56 8 73 -2 26 -8 33 -30 35 -24 3 -28 -1 -38 -38z"/>
<path d="M5973 1819 c-64 -24 -43 -119 26 -119 52 0 77 53 46 97 -17 25 -43
33 -72 22z"/>
<path d="M4174 1776 c-75 -24 -202 -98 -281 -166 -82 -69 -167 -173 -226 -275
-45 -77 -49 -105 -19 -116 20 -7 26 -4 40 22 132 240 330 423 520 479 52 16
69 34 52 55 -15 18 -31 18 -86 1z"/>
<path d="M4567 1757 c-16 -11 -9 -27 79 -177 53 -91 107 -189 120 -218 30 -66
46 -132 32 -132 -12 0 -60 49 -134 135 -29 35 -74 73 -105 90 -46 26 -65 30
-129 30 -93 0 -147 -24 -237 -109 -117 -109 -219 -287 -264 -463 -24 -94 -24
-132 -3 -140 32 -12 48 12 62 92 29 177 152 391 284 496 67 53 105 69 163 69
59 0 111 -27 167 -87 24 -26 71 -76 103 -111 66 -70 93 -82 131 -57 24 16 26
21 22 79 -3 47 -14 84 -46 152 -76 156 -201 364 -221 364 -4 0 -15 -6 -24 -13z"/>
<path d="M6352 1688 c-7 -7 -12 -40 -12 -79 0 -60 2 -68 21 -74 12 -4 26 -2
32 4 13 13 28 119 21 144 -6 20 -44 23 -62 5z"/>
<path d="M6676 1608 c-7 -32 -9 -47 -7 -91 1 -37 2 -38 34 -35 l32 3 0 70 c0
69 -1 70 -27 73 -22 3 -28 -2 -32 -20z"/>
<path d="M4899 1555 c-53 -17 -82 -44 -73 -69 7 -19 9 -19 104 9 115 34 249
-7 384 -119 40 -33 75 -55 83 -52 8 4 17 6 19 6 2 0 4 11 4 24 0 47 -160 157
-287 196 -75 23 -167 25 -234 5z"/>
<path d="M6334 1439 c-11 -18 -8 -129 4 -141 5 -5 20 -8 33 -6 23 3 24 7 24
78 0 74 0 75 -27 78 -14 2 -30 -2 -34 -9z"/>
<path d="M5708 1329 c-15 -11 -44 -48 -66 -82 -22 -34 -46 -67 -53 -73 -8 -6
-56 -18 -108 -27 -101 -17 -144 -39 -149 -77 -6 -40 7 -68 69 -145 60 -75 61
-77 55 -123 -16 -113 -18 -179 -7 -200 19 -36 69 -38 171 -6 101 31 81 34 210
-36 68 -37 112 -39 145 -5 23 22 25 31 25 126 l0 101 90 87 c70 67 90 92 90
113 0 45 -38 76 -135 112 l-90 33 -45 81 c-64 116 -89 142 -137 142 -22 -1
-49 -9 -65 -21z m117 -212 l30 -72 89 -30 c49 -16 91 -35 93 -41 2 -7 -26 -33
-62 -58 -93 -67 -98 -77 -86 -172 5 -43 8 -80 6 -82 -2 -2 -42 17 -89 42 l-86
45 -85 -29 c-56 -19 -85 -25 -85 -17 0 7 9 46 20 87 22 86 24 80 -59 175 -28
32 -51 62 -51 66 0 4 30 10 68 14 132 12 127 10 168 78 55 93 64 101 83 82 9
-8 30 -48 46 -88z"/>
<path d="M6352 1198 c-7 -9 -7 -29 -1 -61 13 -70 25 -89 57 -85 26 3 27 5 24
51 -6 79 -15 102 -44 105 -13 2 -30 -3 -36 -10z"/>
<path d="M6420 967 c-28 -15 -29 -37 -4 -104 18 -45 46 -62 70 -42 10 8 13 21
8 42 -5 26 -42 117 -47 117 -1 0 -13 -6 -27 -13z"/>
<path d="M5012 948 c-21 -21 -14 -58 13 -68 33 -12 54 -3 61 26 11 43 -42 74
-74 42z"/>
<path d="M3338 878 c-8 -13 -18 -32 -24 -43 -6 -11 -30 -33 -52 -48 -23 -16
-42 -34 -42 -40 0 -7 16 -25 35 -40 26 -21 37 -38 41 -68 8 -49 22 -56 64 -34
21 11 49 15 83 13 l52 -3 -3 47 c-3 35 2 57 17 82 31 49 27 62 -22 74 -28 7
-55 24 -75 47 -38 41 -56 44 -74 13z m84 -149 c-3 -21 -9 -29 -19 -25 -8 3
-23 1 -34 -4 -16 -9 -19 -7 -19 10 0 11 -7 23 -15 26 -12 5 -10 12 12 33 28
26 28 26 54 8 20 -14 24 -24 21 -48z"/>
<path d="M10172 875 c-31 -39 -38 -86 -17 -101 9 -7 22 -11 29 -8 19 7 45 59
48 95 3 28 -1 35 -18 37 -14 2 -29 -6 -42 -23z"/>
<path d="M4500 784 l-67 -67 -94 2 c-52 1 -99 -2 -105 -6 -42 -30 -35 -90 20
-167 l34 -48 -39 -81 c-45 -94 -48 -115 -16 -145 27 -25 73 -28 161 -10 l57
11 32 -39 c70 -86 105 -106 151 -88 26 10 39 44 51 129 l10 80 64 31 c78 37
125 85 115 117 -9 32 -31 51 -104 90 -56 30 -66 40 -72 68 -23 119 -31 146
-50 166 -39 41 -73 31 -148 -43z"/>
<path d="M6476 725 c-12 -13 -13 -20 -3 -43 33 -73 48 -93 69 -90 39 6 43 30
15 91 -27 60 -50 72 -81 42z"/>
<path d="M6935 689 c-12 -18 3 -54 39 -88 25 -24 39 -31 55 -26 30 9 26 44
-10 88 -30 37 -70 49 -84 26z"/>
<path d="M10051 654 c-38 -51 -35 -76 11 -82 20 -2 29 6 52 48 22 41 25 54 16
65 -21 25 -44 16 -79 -31z"/>
<path d="M6582 528 c-18 -18 -15 -36 14 -85 21 -37 30 -44 52 -41 38 4 39 42
4 93 -30 43 -50 53 -70 33z"/>
<path d="M7092 518 c-20 -20 -14 -33 29 -77 45 -45 73 -52 89 -21 9 17 4 27
-31 65 -42 46 -65 55 -87 33z"/>
<path d="M9932 497 c-36 -37 -41 -71 -13 -87 30 -16 35 -13 70 36 32 43 32 46
15 65 -24 26 -35 24 -72 -14z"/>
<path d="M3747 382 c-23 -25 -21 -45 4 -68 19 -17 23 -17 47 -3 35 19 40 52
10 73 -29 21 -41 20 -61 -2z"/>
<path d="M7277 369 c-9 -6 -17 -18 -17 -28 0 -19 41 -61 79 -81 20 -10 26 -9
44 9 l21 21 -29 31 c-41 42 -76 60 -98 48z"/>
<path d="M9806 361 c-57 -38 -68 -78 -27 -100 17 -10 26 -5 61 28 37 35 40 41
28 60 -18 29 -31 32 -62 12z"/>
<path d="M6049 341 c-20 -20 -29 -39 -29 -61 0 -45 47 -90 94 -90 53 0 91 37
91 90 0 84 -95 121 -156 61z m91 -55 c0 -29 -28 -42 -48 -22 -13 12 -13 18 -2
30 20 25 50 20 50 -8z"/>
<path d="M6708 349 c-27 -15 -22 -35 18 -79 40 -44 68 -51 84 -21 14 27 14 26
-26 71 -38 42 -48 46 -76 29z"/>
<path d="M2877 322 c-36 -38 -37 -90 -2 -125 52 -52 116 -41 148 25 16 33 17
40 3 71 -26 64 -102 78 -149 29z m88 -62 c0 -30 -26 -38 -50 -14 -16 17 -16
18 1 31 27 20 49 12 49 -17z"/>
<path d="M260 270 c-29 -29 -26 -74 7 -100 32 -25 69 -20 96 12 22 27 22 49
-4 82 -25 32 -70 35 -99 6z"/>
<path d="M7462 228 c-21 -21 -13 -46 23 -68 44 -27 89 -24 93 7 2 16 -7 28
-41 47 -49 29 -58 31 -75 14z"/>
<path d="M9611 209 c-81 -58 -29 -107 57 -52 43 28 52 49 30 71 -19 19 -42 14
-87 -19z"/>
<path d="M5364 195 c-30 -46 10 -94 63 -74 30 11 38 45 19 74 -22 33 -60 33
-82 0z"/>
<path d="M10152 185 c-46 -40 -53 -68 -22 -85 17 -9 27 -4 65 31 80 73 39 124
-43 54z"/>
<path d="M6852 188 c-20 -20 -14 -34 33 -77 48 -44 55 -47 73 -29 21 21 13 53
-21 86 -34 33 -65 40 -85 20z"/>
<path d="M3422 98 c-20 -20 -14 -65 10 -82 30 -21 44 -20 68 4 24 24 26 53 4
74 -18 19 -65 21 -82 4z"/>
<path d="M7042 71 c-7 -4 -16 -22 -21 -39 l-10 -32 75 0 75 0 -33 29 c-44 38
-71 51 -86 42z"/>
<path d="M9995 33 l-40 -28 64 -3 c35 -2 65 -1 67 1 3 2 0 16 -5 31 -13 33
-36 33 -86 -1z"/>
</g>
</svg>
